<?xml version="1.0" encoding="UTF-8" standalone="no"?>
<!-- Generator: Adobe Illustrator 16.0.0, SVG Export Plug-In . SVG Version: 6.00 Build 0)  -->

<svg
   xmlns:dc="http://purl.org/dc/elements/1.1/"
   xmlns:cc="http://creativecommons.org/ns#"
   xmlns:rdf="http://www.w3.org/1999/02/22-rdf-syntax-ns#"
   xmlns:svg="http://www.w3.org/2000/svg"
   xmlns="http://www.w3.org/2000/svg"
   xmlns:sodipodi="http://sodipodi.sourceforge.net/DTD/sodipodi-0.dtd"
   xmlns:inkscape="http://www.inkscape.org/namespaces/inkscape"
   version="1.1"
   id="Layer_1"
   x="0px"
   y="0px"
   width="841.89px"
   height="595.28px"
   viewBox="0 0 841.89 595.28"
   enable-background="new 0 0 841.89 595.28"
   xml:space="preserve"
   sodipodi:docname="logo2.svg"
   inkscape:version="0.92.3 (2405546, 2018-03-11)"><metadata
   id="metadata974"><rdf:RDF><cc:Work
       rdf:about=""><dc:format>image/svg+xml</dc:format><dc:type
         rdf:resource="http://purl.org/dc/dcmitype/StillImage" /></cc:Work></rdf:RDF></metadata><defs
   id="defs972" /><sodipodi:namedview
   pagecolor="#ffffff"
   bordercolor="#666666"
   borderopacity="1"
   objecttolerance="10"
   gridtolerance="10"
   guidetolerance="10"
   inkscape:pageopacity="0"
   inkscape:pageshadow="2"
   inkscape:window-width="1920"
   inkscape:window-height="1056"
   id="namedview970"
   showgrid="false"
   inkscape:zoom="1.5690095"
   inkscape:cx="294.1134"
   inkscape:cy="297.64001"
   inkscape:window-x="0"
   inkscape:window-y="24"
   inkscape:window-maximized="1"
   inkscape:current-layer="Layer_1" />
<g
   id="g967"
   inkscape:export-filename="/home/gessami/Documents/treball/donestech/digifem/Donestech/difusio/logo_donestech.png"
   inkscape:export-xdpi="1200.1355"
   inkscape:export-ydpi="1200.1355">
	<path
   fill="#ED585C"
   d="M277.375,316.324c2.11-2.627,3.166-6.185,3.166-10.671c0-3.897-0.022-9.607-0.066-17.129h-0.809   c0.043,6.57,0.067,12.371,0.067,17.4c0,3.853-0.876,6.979-2.628,9.381c-2.336,3.308-5.885,5.097-10.645,5.368v0.816   C271.221,321.218,274.858,319.496,277.375,316.324z"
   id="path815" />
	<path
   fill="#ED585C"
   d="M274.209,313.741c1.617-1.993,2.424-4.69,2.424-8.088v-2.039c-0.045-0.906-0.066-1.676-0.066-2.312v-5.029   l-0.066-7.749h-0.81l0.136,17.4c0,2.811-0.631,5.098-1.887,6.865c-1.752,2.447-4.245,3.762-7.479,3.942v0.815   C269.738,317.367,272.321,316.099,274.209,313.741z"
   id="path817" />
	<path
   fill="#ED585C"
   d="M272.727,312.45c1.302-1.632,1.954-3.875,1.954-6.729v-2.039c-0.046-0.906-0.068-1.677-0.068-2.312v-5.03   l-0.067-7.749h-0.809c0,2.267,0.012,4.929,0.034,7.987c0.022,3.058,0.044,5.347,0.067,6.865c0.021,1.518,0.033,2.368,0.033,2.549   c0,2.311-0.494,4.191-1.481,5.641c-1.438,1.903-3.414,2.924-5.929,3.06v0.815C269.155,315.373,271.244,314.354,272.727,312.45z"
   id="path819" />
	<path
   fill="#ED585C"
   d="M278.723,305.993v-2.244c-0.045-0.634-0.067-1.427-0.067-2.378l-0.067-5.098l-0.067-7.749h-0.81   l0.136,13.729l0.067,3.874c0,3.763-1.123,6.775-3.369,9.041c-2.155,2.175-4.851,3.354-8.084,3.534v0.816   c3.547-0.182,6.422-1.429,8.623-3.739C277.51,313.333,278.723,310.071,278.723,305.993z"
   id="path821" />
	<path
   fill="#ED585C"
   d="M277.779,318.907c3.188-3.171,4.783-7.521,4.783-13.05v-2.108c-0.045-0.951-0.066-1.721-0.066-2.311v-5.098   l-0.068-7.816h-0.809l0.135,17.4c0,5.258-1.506,9.403-4.514,12.438c-2.65,2.629-6.244,4.056-10.779,4.282v0.815   c2.649-0.136,4.828-0.544,6.535-1.223C274.703,321.559,276.297,320.448,277.779,318.907z"
   id="path823" />
	<path
   fill="#ED585C"
   d="M336.627,286.383c-0.449,0-0.764,0.023-0.942,0.068l0.135,0.816c0.089-0.045,0.291-0.068,0.606-0.068h0.066   h0.135c0.225,0,0.449,0.091,0.674,0.271c0.359,0.364,0.562,0.907,0.606,1.633v4.146v6.525v6.593v6.594v6.525v4.146h0.81v-4.146   v-6.525v-6.594v-8.632l0.066-6.186c0-1.993-0.135-3.308-0.404-3.942C338.109,286.973,337.525,286.565,336.627,286.383z"
   id="path825" />
	<path
   fill="#ED585C"
   d="M271.782,287.368h3.234h3.233h3.234c1.572,0,2.471,0.024,2.695,0.068c1.078,0.182,1.617,0.93,1.617,2.242   l-0.067,3.468l0.067,2.923v1.903c-0.045,0.996-0.067,1.948-0.067,2.854l0.067,5.098c0,1.043-0.158,1.768-0.471,2.176   c-0.316,0.406-0.877,0.635-1.686,0.679v0.815c1.078-0.045,1.841-0.35,2.291-0.918c0.447-0.565,0.674-1.461,0.674-2.684   l-0.068-12.031l0.068-3.671c0-1.132-0.091-1.925-0.27-2.379c-0.181-0.452-0.562-0.792-1.146-1.019   c-0.495-0.228-2.472-0.341-5.929-0.341h-4.245h-3.234h-3.301h-2.021v0.815h2.021H271.782z"
   id="path827" />
	<path
   fill="#ED585C"
   d="M271.244,311.362c0.987-1.269,1.482-3.239,1.482-5.913v-4.146l-0.068-5.029v-7.749h-0.808   c0,6.299,0.022,10.875,0.067,13.729v3.535c0,4.486-1.819,6.82-5.457,7.001v0.815C268.481,313.469,270.076,312.723,271.244,311.362z   "
   id="path829" />
	<path
   fill="#ED585C"
   d="M270.772,305.518v-4.079l-0.067-5.098v-7.885h-0.809l0.066,13.935v3.467c0,3.126-1.168,4.781-3.502,4.961   v0.815c1.121-0.044,2.133-0.498,3.031-1.358C270.344,309.414,270.772,307.828,270.772,305.518z"
   id="path831" />
	<path
   fill="#ED585C"
   d="M311.965,290.02v-0.271v-0.204v-0.34V289c0-1.54,0.572-2.911,1.718-4.111   c1.146-1.201,2.437-1.803,3.874-1.803c1.527,0,2.84,0.578,3.941,1.734c1.101,1.155,1.65,2.526,1.65,4.112v4.825v4.895v4.826   c0,3.082-0.057,4.928-0.168,5.539c-0.113,0.611-0.482,1.234-1.111,1.868c-1.304,1.406-2.763,2.108-4.38,2.108   c-1.348,0-2.718-0.702-4.11-2.108c-0.942-1.358-1.414-2.559-1.414-3.602c0-1.54,0.516-2.865,1.55-3.976   c1.032-1.11,2.267-1.688,3.704-1.734v-0.815c-1.707,0.045-3.143,0.703-4.312,1.972c-1.168,1.269-1.751,2.787-1.751,4.554   c0,1.677,0.641,3.184,1.92,4.52c1.28,1.338,2.729,2.006,4.346,2.006c1.617,0,3.144-0.612,4.582-1.835   c0.763-0.681,1.279-1.37,1.549-2.073c0.27-0.702,0.404-1.778,0.404-3.229v-3.193v-4.826v-8.77c0-2.583-0.719-4.508-2.156-5.776   c-1.348-1.225-2.807-1.835-4.379-1.835c-1.662,0-3.123,0.669-4.379,2.005c-1.258,1.337-1.887,2.912-1.887,4.724v0.272v0.34v0.271   v0.272v0.204l0.809-0.204V290.02z"
   id="path833" />
	<path
   fill="#ED585C"
   d="M271.782,285.261h3.234h3.233h3.303c1.66,0,2.683,0.024,3.064,0.068c0.381,0.046,0.819,0.229,1.314,0.544   c0.718,0.363,1.179,0.839,1.381,1.427c0.202,0.591,0.303,1.655,0.303,3.195l-0.066,2.651l0.066,12.981   c0,1.678-0.326,2.867-0.977,3.569c-0.651,0.703-1.764,1.077-3.336,1.121l-0.133,0.815c3.502-0.044,5.254-1.631,5.254-4.758   l-0.067-13.729l0.067-2.991c0-1.495-0.146-2.583-0.438-3.262c-0.293-0.681-0.842-1.269-1.65-1.769   c-0.584-0.361-1.18-0.565-1.785-0.61c-0.607-0.046-2.348-0.068-5.223-0.068h-4.312h-3.234h-3.301h-2.021v0.814h2.021H271.782z"
   id="path835" />
	<path
   fill="#ED585C"
   d="M313.918,289.544v-0.136v-0.204v-0.271v-0.204c0-0.906,0.371-1.723,1.112-2.447   c0.741-0.724,1.56-1.088,2.459-1.088c0.897,0,1.728,0.33,2.493,0.985c0.764,0.657,1.145,1.394,1.145,2.21v4.825v4.826l0.067,8.36   c0,0.998-0.067,1.711-0.202,2.141c-0.134,0.433-0.449,0.873-0.943,1.326c-0.854,0.725-1.752,1.088-2.694,1.088   c-0.988,0-1.843-0.408-2.56-1.224c-0.584-0.588-0.877-1.428-0.877-2.516c0-1.042,0.304-1.902,0.91-2.583   c0.606-0.68,1.403-1.042,2.391-1.087v-0.815c-1.258,0.046-2.256,0.476-2.997,1.291s-1.111,1.881-1.111,3.194   c0,1.27,0.414,2.346,1.246,3.229c0.831,0.883,1.83,1.325,2.998,1.325c0.987,0,1.931-0.316,2.83-0.952   c1.213-0.905,1.796-2.266,1.752-4.078v-3.806c0-10.104-0.067-15.362-0.203-15.77c-0.269-0.77-0.819-1.428-1.649-1.972   c-0.832-0.543-1.697-0.815-2.595-0.815c-1.169,0-2.19,0.432-3.065,1.291c-0.877,0.862-1.313,1.881-1.313,3.06V289v0.272v0.204   v0.202v0.137l0.808-0.137V289.544z"
   id="path837" />
	<path
   fill="#ED585C"
   d="M309.943,290.631v-0.34v-0.408v-0.543v-0.407c0-2.084,0.764-3.932,2.291-5.54   c1.525-1.608,3.277-2.413,5.255-2.413c1.661,0,3.222,0.624,4.683,1.869c1.459,1.246,2.347,2.709,2.662,4.385   c0.178,0.814,0.269,4.531,0.269,11.146c0,6.616-0.091,10.287-0.269,11.012c-0.36,1.587-1.258,2.923-2.695,4.01   c-1.438,1.088-3.01,1.632-4.717,1.632c-2.021,0-3.772-0.782-5.256-2.345c-1.481-1.564-2.223-3.434-2.223-5.608   c0-2.084,0.674-3.84,2.021-5.268s3.076-2.209,5.188-2.346v-0.814c-2.291,0.136-4.199,1.009-5.727,2.617s-2.291,3.546-2.291,5.811   c0,2.357,0.83,4.408,2.492,6.151c1.662,1.745,3.594,2.617,5.795,2.617c1.842,0,3.492-0.51,4.951-1.529   c1.461-1.021,2.482-2.391,3.066-4.112c0.225-0.544,0.348-1.313,0.371-2.311c0.021-0.996,0.033-4.191,0.033-9.584v-4.826   c0-3.263-0.023-5.12-0.067-5.574c-0.135-1.585-0.696-3.013-1.685-4.282c-1.707-2.311-3.907-3.466-6.603-3.466   c-2.247,0-4.2,0.873-5.862,2.616c-1.662,1.745-2.492,3.796-2.492,6.152v0.544v0.543v0.476v0.477v0.271l0.809-0.34V290.631z"
   id="path839" />
	<path
   fill="#ED585C"
   d="M303.071,307.08c0,3.942,1.437,7.398,4.312,10.366s6.221,4.452,10.039,4.452c2.74,0,5.435-0.86,8.084-2.583   c2.65-1.723,4.582-4.259,5.795-7.613c0.313-0.86,0.494-1.857,0.539-2.991c0.045-1.132,0.067-4.689,0.067-10.671v-5.166   c0-3.579-0.045-5.731-0.135-6.457c-0.36-2.628-1.438-4.983-3.233-7.068c-2.965-3.489-6.693-5.234-11.185-5.234   c-3.011,0-5.761,0.884-8.253,2.651c-2.493,1.767-4.256,4.102-5.289,7.001c-0.495,1.404-0.741,3.533-0.741,6.389v2.243v1.768v1.699   v1.087l0.808-1.155v-0.952v-1.494v-1.495v-1.973c0-1.494,0.022-2.469,0.068-2.922c0.27-2.583,1.391-5.029,3.368-7.341   c2.604-3.127,5.952-4.689,10.039-4.689c2.785,0,5.367,0.815,7.748,2.446c2.38,1.631,4.087,3.784,5.121,6.457   c0.448,1.043,0.707,1.949,0.774,2.719c0.067,0.771,0.101,2.879,0.101,6.321v5.166v9.856c-0.046,2.401-0.63,4.485-1.751,6.253   c-1.258,2.131-2.943,3.817-5.053,5.063c-2.112,1.247-4.357,1.869-6.738,1.869c-3.729,0-6.939-1.382-9.635-4.146   c-2.694-2.765-4.043-6.051-4.043-9.856c0-3.625,1.314-6.773,3.942-9.448c2.627-2.673,5.761-4.078,9.397-4.214v-0.815   c-3.862,0.136-7.187,1.632-9.971,4.485C304.463,299.943,303.071,303.274,303.071,307.08z"
   id="path841" />
	<path
   fill="#ED585C"
   d="M307.922,291.583v-0.544v-0.612v-0.814v-0.68c0-2.583,0.965-4.883,2.897-6.899   c1.931-2.016,4.132-3.025,6.603-3.025c1.707,0,3.425,0.578,5.154,1.733c1.729,1.156,2.998,2.595,3.807,4.316   c0.404,0.861,0.64,1.711,0.707,2.549c0.067,0.839,0.102,3.388,0.102,7.646c0,8.792-0.068,13.526-0.202,14.206   c-0.495,2.131-1.663,3.933-3.504,5.404c-1.842,1.473-3.84,2.209-5.996,2.209c-2.606,0-4.841-0.974-6.704-2.923   c-1.863-1.948-2.796-4.305-2.796-7.069c0-2.719,0.864-4.983,2.595-6.797c1.729-1.812,3.94-2.741,6.635-2.787v-0.814   c-2.875,0.045-5.266,1.064-7.174,3.058c-1.91,1.995-2.863,4.464-2.863,7.409c0,2.899,1.021,5.415,3.064,7.545   s4.457,3.195,7.243,3.195c4.177,0,7.321-2.017,9.433-6.051c0.539-0.996,0.853-1.869,0.942-2.616   c0.091-0.748,0.136-2.821,0.136-6.22v-4.826V289c-0.045-2.13-0.562-3.919-1.549-5.37c-0.99-1.586-2.337-2.889-4.044-3.907   c-1.706-1.021-3.392-1.53-5.053-1.53c-2.785,0-5.188,1.077-7.209,3.229c-2.021,2.153-3.032,4.68-3.032,7.579v0.748v0.951v0.68   v0.747v0.408l0.809-0.543V291.583z"
   id="path843" />
	<path
   fill="#ED585C"
   d="M317.557,308.848c-0.449,0-0.831-0.171-1.145-0.51c-0.315-0.34-0.473-0.759-0.473-1.258   c0-0.68,0.427-1.155,1.279-1.427v-0.816c-1.391,0.363-2.088,1.111-2.088,2.243c0,0.726,0.246,1.337,0.742,1.835   c0.493,0.499,1.078,0.748,1.752,0.748c0.672,0,1.211-0.204,1.616-0.612c0.404-0.407,0.606-0.974,0.606-1.698v-18.557   c0-0.724-0.236-1.313-0.707-1.767c-0.473-0.453-1.068-0.68-1.786-0.68c-0.674,0-1.213,0.216-1.617,0.646   c-0.403,0.431-0.606,1.009-0.606,1.733v0.136v0.204v0.136v0.204v0.068h0.809v-0.068v-0.204v-0.136v-0.204v-0.136   c0-1.042,0.473-1.563,1.415-1.563c0.494,0,0.897,0.147,1.213,0.441c0.313,0.296,0.472,0.691,0.472,1.189v18.557   C319.039,308.35,318.545,308.848,317.557,308.848z"
   id="path845" />
	<path
   fill="#ED585C"
   d="M325.137,274.08c-2.493-1.336-5.065-2.005-7.715-2.005c-3.369,0-6.479,1.009-9.332,3.025   s-4.883,4.633-6.096,7.85c-0.404,1.179-0.652,2.141-0.742,2.889s-0.135,2.413-0.135,4.996v3.195v2.447v2.379v1.562l0.809-1.699   v-1.359v-2.107v-2.106v-2.72c0-2.084,0.022-3.397,0.068-3.941c0.358-3.081,1.66-5.822,3.907-8.226   c3.188-3.578,7.074-5.368,11.655-5.368c2.738,0,5.367,0.747,7.883,2.242s4.491,3.467,5.93,5.913   c0.853,1.451,1.357,2.731,1.516,3.842c0.156,1.109,0.236,3.682,0.236,7.714v5.166v5.233c0,4.532-0.158,7.387-0.473,8.564   c-0.539,2.131-1.684,4.214-3.436,6.254c-3.1,3.489-6.963,5.232-11.588,5.232c-4.224,0-7.896-1.573-11.017-4.724   c-3.122-3.148-4.683-6.853-4.683-11.113c0-4.35,1.449-8.03,4.346-11.045c2.896-3.013,6.546-4.61,10.947-4.792v-0.815   c-4.58,0.227-8.41,1.937-11.486,5.132c-3.077,3.195-4.615,7.058-4.615,11.589c0,4.441,1.639,8.316,4.918,11.623   c3.279,3.308,7.143,4.962,11.59,4.962c3.188,0,6.106-0.838,8.758-2.515c2.649-1.677,4.67-4.011,6.063-7.001   c0.718-1.45,1.146-2.72,1.28-3.807c0.135-1.088,0.201-3.603,0.201-7.545v-5.233v-9.788c-0.045-3.171-0.942-6.004-2.694-8.496   C329.66,277.218,327.629,275.417,325.137,274.08z"
   id="path847" />
	<path
   fill="#ED585C"
   d="M329.01,308.915c-0.18,1.949-0.898,3.784-2.155,5.506c-1.078,1.451-2.449,2.596-4.11,3.433   c-1.662,0.84-3.414,1.258-5.255,1.258c-3.099,0-5.806-1.178-8.118-3.535c-2.314-2.354-3.47-5.12-3.47-8.292   c0-3.353,1.054-6.128,3.166-8.326c2.11-2.198,4.828-3.387,8.151-3.568v-0.816c-3.502,0.182-6.399,1.473-8.69,3.875   s-3.437,5.347-3.437,8.836c0,3.354,1.258,6.299,3.773,8.836c2.516,2.539,5.412,3.807,8.691,3.807c2.65,0,5.064-0.793,7.242-2.379   c2.179-1.586,3.695-3.646,4.549-6.186c0.269-0.771,0.426-1.721,0.471-2.855c0.044-1.132,0.068-4.644,0.068-10.534v-5.03   c0-3.443-0.024-5.438-0.068-5.981c-0.18-2.13-1.057-4.146-2.627-6.05c-2.516-3.171-5.771-4.758-9.77-4.758   c-3.459,0-6.39,1.269-8.793,3.807c-2.402,2.538-3.604,5.619-3.604,9.244v1.087v1.36v1.087v1.02v0.681l0.809-0.885v-0.544v-0.884   v-0.883v-1.156v-1.019c0-3.354,1.133-6.208,3.402-8.565c2.268-2.354,4.996-3.534,8.186-3.534c2.381,0,4.615,0.726,6.703,2.176   c2.09,1.45,3.561,3.308,4.414,5.573c0.27,0.726,0.426,1.644,0.471,2.752c0.045,1.111,0.068,4.612,0.068,10.503v5.098   C329.078,306.424,329.055,308.372,329.01,308.915z"
   id="path849" />
	<path
   fill="#ED585C"
   d="M298.26,280.571c-2.2-3.76-5.523-6.253-9.971-7.477c-1.168-0.316-2.145-0.498-2.931-0.544   c-0.786-0.045-2.796-0.067-6.03-0.067h-4.312h-3.234h-3.301h-2.021v0.814h2.021h3.301h3.234h4.312c3.234,0,5.223,0.024,5.963,0.068   c0.741,0.046,1.674,0.228,2.797,0.544c4.131,1.043,7.275,3.422,9.432,7.137c0.898,1.496,1.449,2.901,1.65,4.214   c0.203,1.315,0.304,3.921,0.304,7.817v4.554v4.622c0,3.264-0.022,5.303-0.067,6.118c-0.046,0.815-0.225,1.812-0.539,2.99   c-0.584,2.493-1.842,4.758-3.773,6.797c-1.661,1.677-3.492,2.845-5.49,3.501c-1.999,0.657-4.75,0.985-8.253,0.985h-2.359h-1.751   h-1.752h-1.145l-2.022,0.815h1.349h2.156h2.155h2.83c3.638,0,6.22-0.204,7.748-0.611c4.221-1.133,7.411-3.557,9.567-7.273   c0.942-1.721,1.537-3.341,1.785-4.859c0.245-1.518,0.37-4.339,0.37-8.463v-4.622v-4.554c0-3.987-0.112-6.661-0.337-8.021   S299.158,282.203,298.26,280.571z"
   id="path851" />
	<path
   fill="#ED585C"
   d="M268.414,308.507c0.225-0.406,0.338-2.423,0.338-6.049v-4.689v-3.467v-3.534v-2.243h-0.81v2.243v3.534   v3.467c0,6.48-0.045,9.834-0.135,10.06c-0.226,0.635-0.673,0.951-1.347,0.951v0.815C267.358,309.55,268.01,309.188,268.414,308.507   z"
   id="path853" />
	<path
   fill="#ED585C"
   d="M548.529,287.621v-4.554c-0.047-2.039-0.068-5.732-0.068-11.079h-0.809v20.119l0.877-0.815V287.621z"
   id="path855" />
	<path
   fill="#ED585C"
   d="M461.715,273.867h3.1h3.1h3.031h5.346h9.016c0.965-0.3,1.779-0.486,2.426-0.543   c0.557-0.05,3.426-0.272,3.426-0.272h-15.137h-5.684h-3.436H463.4h-3.438h-2.223l2.021,0.815H461.715z"
   id="path857" />
	<polygon
   fill="#ED585C"
   points="544.486,271.988 543.678,271.988 543.678,298.021 544.486,296.729  "
   id="polygon859" />
	<polygon
   fill="#ED585C"
   points="550.482,271.988 549.607,271.988 549.607,290.34 550.482,289.66  "
   id="polygon861" />
	<polygon
   fill="#ED585C"
   points="546.508,271.988 545.631,271.988 545.631,294.351 546.508,293.331  "
   id="polygon863" />
	<polygon
   fill="#ED585C"
   points="552.436,271.988 551.561,271.988 551.561,289.048 552.436,288.642  "
   id="polygon865" />
	<polygon
   fill="#ED585C"
   points="556.412,271.988 555.604,271.988 555.604,287.485 556.412,287.35  "
   id="polygon867" />
	<rect
   x="557.557"
   y="271.988"
   fill="#ED585C"
   width="0.809"
   height="15.157"
   id="rect869" />
	<polygon
   fill="#ED585C"
   points="554.457,271.988 553.582,271.988 553.582,288.098 554.457,287.894  "
   id="polygon871" />
	<path
   fill="#ED585C"
   d="M271.782,275.134h3.234h3.233h3.303h2.021c2.83,0.092,5.345,0.793,7.546,2.107   c4.266,2.538,6.4,6.525,6.4,11.963v2.379v2.447l-0.066,5.709c0,4.578-0.023,7.33-0.068,8.259s-0.18,1.893-0.404,2.888   c-0.764,2.991-2.391,5.395-4.884,7.205c-2.493,1.813-5.447,2.72-8.86,2.72h-1.279h-1.551h-1.279h-1.213h-0.742l-1.211,0.815h0.942   h1.415h1.482h1.414h1.416h0.808c4.312,0,7.838-1.359,10.578-4.078c2.739-2.719,4.153-6.254,4.243-10.604   c0-2.763,0.023-7.363,0.068-13.798v-3.874c0-3.762-1.011-6.889-3.031-9.38c-2.291-2.945-5.346-4.714-9.164-5.303   c-1.077-0.181-3.346-0.271-6.805-0.271h-4.312h-3.234h-3.301h-2.021v0.815h2.021H271.782z"
   id="path873" />
	<path
   fill="#ED585C"
   d="M271.782,277.105h3.234h4.312c3.459,0,5.604,0.046,6.436,0.136c0.83,0.091,1.852,0.408,3.064,0.951   c1.797,0.861,3.278,2.04,4.447,3.535c1.167,1.495,1.887,3.172,2.156,5.029c0.089,0.68,0.156,5.869,0.201,15.565v3.942   c0,3.762-1.101,6.774-3.301,9.041c-2.336,2.355-5.279,3.533-8.826,3.533h-0.943h-1.145h-0.877h-0.808h-0.539l-0.81,0.816h0.606   h1.011h1.012h1.347h1.011c3.862,0,7.051-1.269,9.567-3.807c2.335-2.355,3.503-5.551,3.503-9.584   c0-11.781-0.045-18.124-0.134-19.031c-0.271-2.492-1.236-4.69-2.897-6.594c-1.662-1.903-3.75-3.194-6.266-3.874   c-1.213-0.317-3.818-0.477-7.816-0.477h-4.312h-3.234h-3.301h-2.021v0.816h2.021H271.782z"
   id="path875" />
	<path
   fill="#ED585C"
   d="M283.438,316.8h-0.606h-0.674h-0.539h-0.539h-0.336l-0.472,0.816h0.403h0.606h0.607h0.808h0.741   c3.413,0,6.108-1.008,8.085-3.025c1.977-2.016,2.964-4.769,2.964-8.259v-2.446c-0.045-0.815-0.067-1.653-0.067-2.515l-0.066-5.506   c-0.045-5.03-0.135-8.065-0.27-9.108c-0.136-1.042-0.496-2.151-1.078-3.331c-0.899-1.721-2.426-3.059-4.582-4.01   c-1.123-0.498-2.077-0.792-2.863-0.884c-0.786-0.09-2.863-0.136-6.232-0.136h-4.244h-3.302h-3.233h-2.021v0.815h2.021h3.233h3.302   h4.244c3.01,0,4.828,0.023,5.459,0.068c0.627,0.046,1.368,0.204,2.223,0.476c3.502,1.134,5.592,3.398,6.266,6.797   c0.135,0.771,0.246,6.006,0.337,15.701l0.067,4.078c0,3.218-0.922,5.768-2.762,7.647C289.074,315.86,286.582,316.8,283.438,316.8z"
   id="path877" />
	<path
   fill="#ED585C"
   d="M271.782,283.223h3.234h3.233c4.268,0,6.76,0.113,7.479,0.34c1.481,0.454,2.493,1.167,3.032,2.141   c0.539,0.975,0.808,2.617,0.808,4.928l-0.067,2.447l0.067,13.05c0,2.176-0.448,3.785-1.347,4.827   c-1.123,1.223-2.651,1.835-4.582,1.835h-0.202h-0.202h-0.135h-0.202h-0.067l-0.336,0.815h0.135h0.201h0.27h0.27h0.27   c2.066,0,3.706-0.601,4.919-1.802c1.212-1.199,1.819-2.843,1.819-4.928l-0.068-13.798l0.068-2.854c0-1.947-0.203-3.398-0.607-4.351   c-0.404-0.951-1.145-1.744-2.223-2.379c-0.854-0.544-1.641-0.86-2.358-0.951c-0.719-0.091-2.673-0.136-5.862-0.136h-4.312h-3.234   h-3.301h-2.021v0.815h2.021H271.782z"
   id="path879" />
	<path
   fill="#ED585C"
   d="M271.782,281.251h3.234h4.312c3.01,0,4.784,0.023,5.323,0.068c2.695,0.271,4.649,1.405,5.86,3.398   c0.63,1.043,0.945,2.923,0.945,5.642c0.088,7.161,0.133,12.462,0.133,15.905c0,2.719-0.695,4.804-2.088,6.254   c-1.481,1.495-3.459,2.242-5.929,2.242h-0.403h-0.338h-0.336h-0.27h-0.203l-0.404,0.815h0.202h0.405h0.404h0.471h0.472   c2.695,0,4.851-0.815,6.468-2.447c1.571-1.585,2.358-3.896,2.358-6.933v-2.311l-0.067-2.447v-5.505   c-0.045-5.71-0.181-8.995-0.404-9.856c-0.494-2.22-1.842-3.829-4.043-4.826c-0.898-0.408-1.729-0.646-2.492-0.714   c-0.764-0.067-2.786-0.102-6.064-0.102h-4.312h-3.234h-3.301h-2.021v0.815h2.021H271.782z"
   id="path881" />
	<path
   fill="#ED585C"
   d="M469.463,281.004h-1.752h-1.145l0.404,0.816h1.078h1.75h1.686h1.684h2.309   c0.15-0.281,0.326-0.545,0.492-0.816h-2.867h-1.818H469.463z"
   id="path883" />
	<path
   fill="#ED585C"
   d="M477.42,278.965h-4.723h-2.021h-2.088h-2.021h-1.281l0.539,0.816h1.213h1.955h1.953h1.887h3.963   C477,279.506,477.197,279.229,477.42,278.965z"
   id="path885" />
	<path
   fill="#ED585C"
   d="M478.705,277.606c0.283-0.269,0.586-0.504,0.885-0.748h-7.363h-2.359h-2.357h-2.291h-1.482l0.742,0.815   h1.414h2.156h2.223h2.156h6.213C478.662,277.652,478.682,277.628,478.705,277.606z"
   id="path887" />
	<path
   fill="#ED585C"
   d="M482.676,274.887h-11.191h-2.695h-2.762h-2.762h-1.754l1.012,0.816h1.617h2.561h2.559h2.562h9.369   C481.67,275.403,482.166,275.133,482.676,274.887z"
   id="path889" />
	<rect
   x="567.502"
   y="271.988"
   fill="#ED585C"
   width="0.811"
   height="51.872"
   id="rect891" />
	<path
   fill="#ED585C"
   d="M533.672,292.322v1.155v0.748h0.811v-0.748v-1.155v-1.156v-1.291c0-1.903-0.227-3.443-0.674-4.622   c-0.99-2.446-2.617-4.497-4.887-6.151c-2.268-1.653-4.57-2.481-6.904-2.481c-2.383,0-4.762,0.918-7.143,2.753   s-3.908,3.954-4.582,6.355c-0.312,1.224-0.471,3.738-0.471,7.545v5.098v5.166c0,3.534,0.09,5.733,0.27,6.593   c0.449,2.447,1.527,4.51,3.234,6.186c2.559,2.583,5.502,3.875,8.826,3.875c3.098,0,5.996-1.314,8.689-3.943   c2.383-2.447,3.572-5.46,3.572-9.04v-1.223v-0.952v-0.951v-0.612h-0.809v0.612v0.951v0.952v1.223c0,1.859-0.248,3.422-0.74,4.69   c-0.496,1.269-1.348,2.515-2.562,3.738c-2.559,2.492-5.277,3.738-8.15,3.738c-2.471,0-4.762-0.792-6.873-2.379   c-2.111-1.586-3.48-3.534-4.109-5.845c-0.27-0.906-0.428-1.676-0.471-2.312c-0.047-0.634-0.068-2.401-0.068-5.302v-5.166v-8.7   c0-2.175,0.404-4.055,1.213-5.642c1.033-1.857,2.537-3.421,4.514-4.69c1.977-1.268,3.885-1.902,5.727-1.902   c2.066,0,4.111,0.703,6.131,2.106c2.021,1.405,3.547,3.195,4.582,5.37c0.582,1.223,0.875,2.811,0.875,4.758v1.495V292.322z"
   id="path893" />
	<path
   fill="#ED585C"
   d="M339.795,285.907c-0.943-1.087-2.09-1.631-3.437-1.631c-0.495,0-0.832,0.022-1.011,0.067l0.201,0.815   c0.136-0.044,0.404-0.068,0.81-0.068h0.067c0.447,0,1.1,0.229,1.953,0.681l0.067,0.067c0.584,0.318,1.011,0.839,1.28,1.563   c0.179,0.544,0.27,3.988,0.27,10.332v8.632v6.594v6.525v4.146h0.809v-4.146v-6.525v-6.594v-8.632c0-5.256-0.045-8.383-0.135-9.38   C340.58,287.358,340.287,286.542,339.795,285.907z"
   id="path895" />
	<path
   fill="#ED585C"
   d="M470.609,285.83h1.48h1.482h0.42c0.057-0.26,0.127-0.532,0.207-0.814h-0.693h-1.482h-1.482h-1.549h-0.943   l0.135,0.814h0.943H470.609z"
   id="path897" />
	<path
   fill="#ED585C"
   d="M527.541,292.593v1.021v0.612h0.811v-0.612v-1.021v-1.019v-1.156c0-1.449-0.059-2.446-0.17-2.99   c-0.113-0.544-0.416-1.132-0.908-1.768c-1.35-1.811-3.102-2.718-5.256-2.718c-1.662,0-3.145,0.601-4.447,1.801   c-1.303,1.201-1.953,2.549-1.953,4.044v18.692c0,1.723,0.662,3.252,1.986,4.588c1.324,1.337,2.842,2.005,4.549,2.005   c1.078,0,2.109-0.294,3.098-0.883s1.752-1.382,2.291-2.379c0.584-0.952,0.877-2.379,0.877-4.282v-1.021v-0.748v-0.814v-0.477   h-0.809v0.477v0.814v0.748v1.021c0,1.677-0.248,2.968-0.742,3.874c-1.123,1.903-2.695,2.854-4.715,2.854   c-1.527,0-2.863-0.589-4.01-1.768c-1.145-1.177-1.719-2.515-1.719-4.01v-18.692c0-1.268,0.562-2.424,1.686-3.466   s2.402-1.564,3.84-1.564c1.842,0,3.346,0.727,4.514,2.176c0.449,0.59,0.742,1.121,0.877,1.598c0.135,0.475,0.201,1.371,0.201,2.684   v1.36V292.593z"
   id="path899" />
	<path
   fill="#ED585C"
   d="M531.584,292.391v1.154v0.681h0.809v-0.681v-1.154v-1.089v-1.291c0-1.903-0.215-3.409-0.641-4.521   c-0.426-1.109-1.201-2.231-2.324-3.364c-2.246-2.265-4.717-3.398-7.41-3.398c-2.246,0-4.357,0.781-6.334,2.345   s-3.189,3.411-3.639,5.54c-0.18,0.815-0.268,3.014-0.268,6.593v4.962v4.962v3.535c0,2.718,0.648,4.985,1.953,6.797   c1.031,1.45,2.312,2.582,3.84,3.398c1.527,0.815,3.076,1.224,4.648,1.224c3.145,0,5.861-1.404,8.152-4.215   c0.809-0.996,1.359-1.959,1.65-2.888c0.293-0.93,0.438-2.232,0.438-3.909v-1.223v-0.885v-0.883v-0.612h-0.807v0.612v0.883v0.885   v1.223c0,1.496-0.113,2.629-0.338,3.398c-0.225,0.771-0.652,1.632-1.279,2.583c-0.9,1.27-2.078,2.288-3.537,3.059   c-1.461,0.771-2.91,1.156-4.346,1.156c-2.381,0-4.572-0.962-6.57-2.89c-1.998-1.925-2.998-4.021-2.998-6.287v-4.962v-4.962   l-0.066-8.496c0-2.99,0.877-5.347,2.627-7.068c2.111-2.039,4.381-3.06,6.805-3.06c2.965,0,5.502,1.315,7.613,3.942   c0.854,0.998,1.404,1.904,1.65,2.719c0.246,0.816,0.371,2.018,0.371,3.604v1.494V292.391z"
   id="path901" />
	<path
   fill="#ED585C"
   d="M535.693,292.322v1.155v0.748h0.809v-0.748v-1.155v-1.156v-1.562c0-2.267-0.326-4.181-0.977-5.744   c-0.652-1.563-1.74-3.115-3.268-4.656c-3.1-3.035-6.49-4.554-10.174-4.554c-2.875,0-5.615,0.975-8.219,2.923   c-4.088,2.946-6.131,6.684-6.131,11.215l0.135,14.886l-0.068,3.194c0,2.447,0.305,4.476,0.91,6.084   c0.605,1.609,1.65,3.138,3.133,4.588c3.055,3.082,6.49,4.622,10.309,4.622c3.863,0,7.299-1.518,10.307-4.554   c1.438-1.404,2.459-2.9,3.066-4.486c0.605-1.586,0.91-3.511,0.91-5.778v-1.291v-0.951v-1.02v-0.612h-0.809v0.612v1.02v0.951v1.291   c0,2.176-0.281,3.988-0.842,5.438c-0.562,1.451-1.516,2.854-2.865,4.214c-2.875,2.901-6.131,4.35-9.768,4.35   c-3.639,0-6.896-1.448-9.77-4.35c-2.83-2.809-4.088-6.661-3.773-11.555c0.045-0.362,0.066-0.725,0.066-1.088v-0.68l-0.066-5.233   v-5.234c-0.045-1.313-0.066-2.651-0.066-4.01c0-3.671,1.301-6.797,3.906-9.38c2.875-2.899,6.086-4.351,9.635-4.351   c3.504,0,6.715,1.428,9.635,4.282c1.438,1.451,2.459,2.935,3.066,4.452c0.605,1.519,0.908,3.388,0.908,5.608v1.358V292.322z"
   id="path903" />
	<path
   fill="#ED585C"
   d="M522.443,324.186c-0.1,0.001-0.193,0.015-0.291,0.015h0.291V324.186z"
   id="path905" />
	<path
   fill="#ED585C"
   d="M473.785,287.122h-0.145h-1.414h-1.482h-1.416h-0.875v0.815h0.943h1.414h1.416h1.414h0.092   C473.748,287.628,473.766,287.353,473.785,287.122z"
   id="path907" />
	<path
   fill="#ED585C"
   d="M544.957,298.089c-0.854,1.948-1.279,3.807-1.279,5.573l-0.014,3.545c-0.045,0.499-0.158,0.839-0.338,1.021   c-0.268,0.362-0.719,0.566-1.346,0.61h-3.598c0.049-0.555,0.074-1.121,0.074-1.698v-1.224v-0.952v-0.883v-0.612h-0.809v0.612v0.883   v0.952v1.224c0,4.485-1.506,8.247-4.516,11.282c-3.367,3.31-7.029,4.962-10.98,4.962c-3.191,0-6.244-1.109-9.164-3.33   c-2.92-2.22-4.852-4.915-5.793-8.089c-0.361-1.132-0.562-2.05-0.607-2.753c-0.045-0.702-0.066-2.639-0.066-5.811v-5.234v-5.166   c0-3.76,0.09-6.094,0.27-7.001c0.539-2.809,1.885-5.277,4.041-7.409c3.414-3.442,7.188-5.165,11.32-5.165   c3.951,0,7.59,1.632,10.914,4.895c1.662,1.631,2.84,3.296,3.537,4.995c0.695,1.7,1.045,3.728,1.045,6.084v1.562v1.225v1.223v0.748   h0.809v-0.748v-1.223v-1.225v-1.562c0-1.812-0.113-3.149-0.338-4.01c-0.719-2.81-2.223-5.348-4.514-7.613   c-3.414-3.443-7.232-5.166-11.453-5.166c-1.383,0-2.748,0.212-4.094,0.612h-18.455h-2.695h-3.504c-2.965,0-4.828,0.033-5.592,0.102   c-0.766,0.068-1.752,0.306-2.965,0.713c-2.291,0.727-4.312,1.915-6.062,3.569c-1.752,1.654-3.078,3.592-3.977,5.811   c-0.494,1.315-0.799,2.438-0.908,3.365c-0.113,0.929-0.17,2.821-0.17,5.676v3.194v2.379v2.447v1.495l0.809-1.903v-1.291v-2.039   v-2.039v-2.719c0-2.356,0.045-3.919,0.135-4.69c0.09-0.77,0.314-1.699,0.674-2.787c0.719-2.13,1.863-4.021,3.438-5.676   c1.57-1.653,3.436-2.911,5.592-3.771c1.705-0.681,4.109-1.021,7.209-1.021h2.627h2.695h2.695h16.287   c-0.633,0.293-1.26,0.637-1.885,1.021h-14.402h-2.695h-3.504c-2.785,0-4.537,0.033-5.256,0.102s-1.615,0.283-2.695,0.646   c-2.02,0.635-3.818,1.688-5.389,3.159c-1.572,1.474-2.719,3.185-3.436,5.133c-0.631,1.677-0.943,4.056-0.943,7.137v2.175v1.631   v1.632v1.02l0.809-1.087v-0.885v-1.427v-1.428v-1.903c0-2.583,0.223-4.554,0.672-5.913c0.584-1.857,1.572-3.512,2.965-4.962   s3.033-2.56,4.918-3.331c1.572-0.588,3.75-0.883,6.537-0.883h2.627h2.695h2.695h13.176c-0.098,0.07-0.197,0.131-0.295,0.203   c-0.418,0.31-0.812,0.628-1.191,0.952h-11.689h-2.695h-3.504c-2.605,0-4.223,0.023-4.852,0.068   c-0.629,0.046-1.393,0.227-2.291,0.544c-1.797,0.589-3.391,1.528-4.783,2.82c-1.393,1.291-2.426,2.798-3.1,4.521   c-0.494,1.313-0.74,3.218-0.74,5.709v1.496v1.223v1.156v0.747l0.809-0.815v-0.612v-1.02v-1.087v-1.292v-1.087   c0-4.351,1.887-7.658,5.66-9.924c1.121-0.681,2.154-1.121,3.098-1.325s2.402-0.307,4.381-0.307h2.627h2.695h2.695h10.795   c-0.43,0.417-0.822,0.851-1.191,1.291h-9.672h-2.627c-4.492,0-7.188,0.034-8.086,0.103s-1.797,0.284-2.695,0.646   c-2.064,0.816-3.693,2.085-4.883,3.807c-1.191,1.723-1.787,3.647-1.787,5.777v0.884v1.088v0.884v0.814v0.545l0.811-0.612v-0.477   v-0.679v-0.748v-0.952v-0.747c0-3.578,1.57-6.298,4.715-8.156c1.123-0.635,2.078-1.02,2.863-1.155s2.615-0.204,5.49-0.204h3.572   h2.627h9.025c-0.291,0.398-0.555,0.807-0.799,1.223h-8.158h-2.695c-5.301,0-8.332,0.093-9.096,0.272   c-1.844,0.454-3.359,1.428-4.547,2.923c-1.191,1.495-1.787,3.15-1.787,4.962v0.748v0.747v0.544v0.612v0.34l0.809-0.408v-0.34   v-0.476v-0.477v-0.679v-0.477c0-1.449,0.404-2.786,1.213-4.01s1.908-2.151,3.301-2.787c0.764-0.316,1.426-0.51,1.988-0.578   c0.562-0.067,2.1-0.102,4.615-0.102h3.504h2.695h7.701c-0.189,0.378-0.363,0.763-0.518,1.155h-7.184h-2.695   c-5.076,0-7.951,0.092-8.625,0.271c-1.393,0.364-2.537,1.101-3.436,2.209c-0.898,1.111-1.348,2.323-1.348,3.638v0.476v0.543v0.408   v0.34v0.271l0.809-0.271v-0.204v-0.34v-0.34v-0.476v-0.34c0-2.175,1.1-3.761,3.301-4.758c0.629-0.317,1.18-0.498,1.65-0.544   c0.473-0.044,1.854-0.068,4.145-0.068h3.504h2.695h6.9c-0.037,0.114-0.084,0.226-0.117,0.34c-0.088,0.326-0.143,0.593-0.211,0.885   h-6.572h-2.695c-4.896,0-7.547,0.045-7.951,0.136c-1.033,0.271-1.887,0.805-2.559,1.597c-0.674,0.793-1.012,1.644-1.012,2.549   v0.272v0.271v0.271v0.271v0.137l0.809-0.137v-0.136v-0.204v-0.271v-0.272v-0.204c0-1.313,0.742-2.355,2.223-3.127   c0.539-0.226,2.201-0.34,4.986-0.34h3.504h2.695h6.389c-0.084,0.429-0.148,0.823-0.178,1.156c-0.004,0.037-0.008,0.092-0.012,0.136   h-6.199h-2.695c-4.852,0-7.457,0.045-7.816,0.136c-1.076,0.228-1.615,0.861-1.615,1.903v0.272v0.271v0.271v0.204v0.136h0.807   v-0.136v-0.204v-0.203v-0.204v-0.272c0-0.589,0.314-0.995,0.943-1.224c0.225-0.09,1.012-0.136,2.359-0.136h2.627h2.695h2.695h6.16   c-0.033,1.019-0.051,2.642-0.051,4.894v5.166v5.234c0,2.769,0.059,4.8,0.174,6.117h-3.656h-2.627h-2.695   c-4.762,0-7.209-0.022-7.344-0.068c-0.766-0.136-1.146-0.634-1.146-1.495c0-0.68,0.246-1.156,0.742-1.427   c0.27-0.181,1.369-0.272,3.301-0.272h2.492h1.955h1.885h1.213v-0.815h-1.213h-1.885h-1.955c-3.637,0-5.615,0.067-5.928,0.204   c-0.943,0.362-1.416,1.133-1.416,2.311c0,1.087,0.449,1.813,1.348,2.175c0.27,0.137,1.752,0.204,4.447,0.204h3.504h2.695h2.627   h3.748c0.021,0.151,0.047,0.291,0.07,0.408c0.053,0.277,0.121,0.549,0.188,0.819c0-0.001-0.001-0.003-0.001-0.004h-4.006h-2.627   h-2.695c-3.908,0-6.223-0.022-6.941-0.068c-0.717-0.044-1.303-0.18-1.75-0.407c-1.17-0.634-1.752-1.7-1.752-3.195   c0-1.403,0.582-2.446,1.752-3.127c0.359-0.226,0.719-0.361,1.078-0.407c0.359-0.044,1.414-0.067,3.166-0.067h2.492h1.955h1.885   h1.213v-0.816h-1.213h-1.885h-1.955h-2.289c-1.932,0-3.1,0.023-3.504,0.068s-0.854,0.204-1.348,0.477   c-1.438,0.906-2.156,2.197-2.156,3.873c0,1.451,0.539,2.651,1.617,3.603c0.539,0.454,1.078,0.714,1.617,0.782   c0.539,0.067,2.043,0.102,4.514,0.102h3.504h2.695h2.627h4.235c0.122,0.392,0.26,0.777,0.414,1.156h-4.649h-2.627h-2.695   c-4.133,0-6.604-0.034-7.412-0.103c-0.809-0.067-1.527-0.261-2.156-0.577c-0.854-0.453-1.549-1.156-2.088-2.107   c-0.539-0.952-0.809-1.926-0.809-2.923c0-2.084,0.92-3.693,2.762-4.826c0.898-0.544,2.201-0.816,3.908-0.816h1.955h1.885h1.955   h1.885h1.213v-0.814h-1.213h-1.885h-1.955h-2.289c-2.113,0-3.426,0.034-3.941,0.102c-0.518,0.068-1.137,0.329-1.854,0.781   c-2.156,1.36-3.234,3.218-3.234,5.574c0,1.541,0.482,2.912,1.449,4.112c0.965,1.2,2.166,1.937,3.604,2.209   c0.539,0.136,2.111,0.203,4.717,0.203h3.504h2.695h2.627h5.008c0.178,0.369,0.373,0.732,0.583,1.089h-5.591h-2.627h-2.695   c-4.178,0-6.66-0.023-7.445-0.068c-0.787-0.045-1.494-0.181-2.123-0.408c-1.438-0.588-2.615-1.54-3.537-2.854   c-0.92-1.314-1.381-2.741-1.381-4.282c0-1.314,0.348-2.571,1.045-3.772c0.695-1.2,1.627-2.142,2.795-2.82   c0.809-0.498,1.518-0.793,2.123-0.885c0.607-0.09,1.965-0.136,4.076-0.136h2.492h1.955h1.885h1.213v-0.814h-1.213h-1.885h-1.955   h-2.492c-2.201,0-3.627,0.057-4.277,0.169c-0.652,0.113-1.428,0.42-2.324,0.918c-1.258,0.725-2.281,1.767-3.066,3.127   c-0.787,1.358-1.18,2.764-1.18,4.214c0,1.451,0.393,2.854,1.18,4.214c0.785,1.36,1.83,2.402,3.133,3.127   c0.854,0.499,1.594,0.805,2.223,0.918s1.773,0.169,3.436,0.169h2.629h2.695h2.695h2.627h6.102c0.292,0.431,0.614,0.851,0.957,1.263   c-0.011-0.014-0.022-0.025-0.033-0.038h-7.025h-2.627h-2.695c-4.717,0-7.557-0.057-8.523-0.171   c-0.967-0.112-2.01-0.464-3.133-1.054c-1.393-0.724-2.539-1.879-3.436-3.466c-0.9-1.586-1.348-3.217-1.348-4.895   c0-1.722,0.426-3.318,1.279-4.792c0.854-1.472,2.021-2.639,3.504-3.5c0.988-0.589,1.863-0.951,2.627-1.088   c0.764-0.136,2.291-0.204,4.582-0.204h2.492h1.955h1.885h1.213v-0.815h-1.213h-1.885h-1.955h-2.492   c-2.381,0-3.975,0.068-4.783,0.204s-1.752,0.521-2.83,1.156c-1.572,0.95-2.83,2.242-3.773,3.874   c-0.943,1.631-1.414,3.354-1.414,5.165c0,1.813,0.459,3.547,1.381,5.2c0.92,1.654,2.166,2.935,3.74,3.84   c1.078,0.636,2.043,1.021,2.896,1.156s2.762,0.204,5.727,0.204h3.504h2.695h2.627h7.744c-0.004-0.004-0.008-0.009-0.012-0.014   c0.197,0.211,0.391,0.421,0.602,0.625c0.191,0.193,0.387,0.36,0.582,0.544h-8.916h-2.627h-2.695h-5.93   c-2.605,0-4.783-0.498-6.535-1.495s-3.178-2.437-4.277-4.317c-1.102-1.879-1.65-3.84-1.65-5.879c0-1.993,0.537-3.896,1.615-5.71   c1.078-1.811,2.516-3.262,4.312-4.35c1.168-0.68,2.189-1.099,3.064-1.257c0.877-0.158,2.527-0.238,4.953-0.238h2.492h1.955h1.885   h1.213v-0.816h-1.213h-1.885h-1.955h-2.492c-2.471,0-4.178,0.093-5.121,0.272c-0.941,0.182-2.02,0.635-3.232,1.359   c-1.934,1.134-3.482,2.685-4.65,4.656s-1.752,4.022-1.752,6.151c0,3.036,1.045,5.755,3.133,8.156   c2.09,2.402,4.594,3.784,7.514,4.146c0.629,0.091,2.312,0.136,5.053,0.136h3.504h2.695h2.627h9.811   c0.5,0.421,1.006,0.803,1.518,1.155H502.23h-2.627h-2.695h-3.504H489.9c-2.291-0.044-4.379-0.634-6.266-1.767   c-2.156-1.225-3.875-2.899-5.154-5.03c-1.279-2.129-1.92-4.372-1.92-6.729c0-2.355,0.641-4.633,1.92-6.83   c1.279-2.198,2.975-3.908,5.088-5.133c1.346-0.77,2.514-1.246,3.502-1.427s2.785-0.271,5.391-0.271h2.492h1.955h1.885h1.213v-0.816   h-1.213h-1.885h-1.955h-2.492c-2.65,0-4.514,0.114-5.592,0.34c-1.078,0.228-2.314,0.726-3.705,1.495   c-2.248,1.315-4.043,3.127-5.391,5.438c-1.348,2.311-2.021,4.713-2.021,7.204c0,3.444,1.234,6.571,3.705,9.381   s5.412,4.418,8.826,4.825c0.674,0.092,2.381,0.137,5.121,0.137h3.504h2.695h2.627h12.617c0,0,0,0,0-0.001   c0.826,0.47,1.668,0.855,2.529,1.155H502.23h-2.627h-2.695h-3.504H489.9c-2.74-0.044-5.188-0.701-7.344-1.971   c-2.426-1.404-4.367-3.364-5.826-5.879c-1.461-2.515-2.191-5.132-2.191-7.851c0-4.759,1.932-8.769,5.795-12.031   c2.83-2.312,6.422-3.466,10.779-3.466h1.955h1.885h1.955h1.885h1.213v-0.816h-1.213h-1.885h-1.955h-2.492H489.9   c-2.92,0.046-5.547,0.771-7.883,2.175c-2.516,1.495-4.525,3.524-6.029,6.083c-1.506,2.562-2.258,5.269-2.258,8.123   c0,3.898,1.291,7.398,3.875,10.502c2.582,3.104,5.805,4.995,9.668,5.675c1.078,0.183,3.121,0.272,6.131,0.272h3.504h2.695h2.627   h19.922c1.049,0,2.08-0.115,3.09-0.34h17.916c1.752,0,3.592-0.43,5.525-1.291c1.93-0.861,3.57-1.994,4.918-3.399   c2.74-2.808,4.479-6.646,4.912-11.497l0.055-2.99c0.043-0.635,0.246-1.089,0.605-1.36c0.18-0.18,0.516-0.294,1.012-0.339v-0.816   c-1.617,0.091-2.428,0.952-2.428,2.583v2.457h-0.002c-0.135,3.853-1.438,7.137-3.549,9.856c-1.346,1.812-3.031,3.263-5.053,4.35   c-2.021,1.088-4.02,1.631-5.996,1.631h-15.414c0.789-0.333,1.568-0.743,2.334-1.223h13.012c1.752,0,3.605-0.521,5.561-1.563   c1.953-1.042,3.559-2.355,4.816-3.942c1.846-2.381,2.861-5.267,3.066-8.643h0.012v-0.466v-2.729c0-0.996,0.35-1.824,1.045-2.481   c0.697-0.656,1.561-1.008,2.596-1.054v-0.815c-1.305,0.045-2.371,0.477-3.201,1.291c-0.832,0.816-1.246,1.835-1.246,3.06v3.008   c-0.18,3.542-1.246,6.467-3.215,8.761c-1.168,1.36-2.65,2.493-4.447,3.399s-3.48,1.358-5.053,1.358h-11.742   c0.531-0.392,1.053-0.826,1.572-1.291h10.035c3.145,0,5.828-1.189,8.051-3.568c2.125-2.273,3.326-5.103,3.627-8.473h0.004v-0.051   c0.012-0.14,0.002-0.415,0.002-0.415l0.02-3.001c0-0.724,0.225-1.506,0.674-2.345c0.449-0.838,0.967-1.461,1.551-1.869   c1.031-0.68,2.154-1.042,3.369-1.088v-0.815c-1.979,0.137-3.527,0.747-4.65,1.835c-1.123,1.087-1.684,2.516-1.684,4.282   l-0.049,3.001c-0.18,3.399-1.303,6.197-3.367,8.396c-2.066,2.197-4.582,3.296-7.547,3.296h-9.154   c0.389-0.397,0.756-0.805,1.098-1.224h7.99c1.525,0,3.02-0.396,4.479-1.189c1.459-0.792,2.617-1.846,3.471-3.16   c1.004-1.605,1.582-3.497,1.768-5.652l0.031-0.466v-3.341c0-1.812,0.73-3.387,2.189-4.724c1.459-1.336,3.27-2.073,5.426-2.209   v-0.816c-2.428,0.136-4.438,0.941-6.031,2.413c-1.594,1.473-2.393,3.252-2.393,5.336v3.574c-0.174,2.704-1.072,4.939-2.709,6.7   c-1.684,1.812-3.762,2.719-6.23,2.719h-7.385c0.27-0.376,0.52-0.762,0.754-1.155h6.764c2.066,0,3.83-0.804,5.289-2.413   c1.365-1.504,2.143-3.381,2.35-5.618l0.023-0.466v-3.205c0-2.491,0.898-4.588,2.695-6.287c1.795-1.698,4.086-2.616,6.873-2.753   v-0.815c-2.338,0.136-4.359,0.748-6.064,1.836c-1.303,0.86-2.348,2.027-3.133,3.5c-0.787,1.473-1.18,2.979-1.18,4.52v3.351   c-0.158,2.108-0.875,3.889-2.17,5.326c-1.324,1.474-2.887,2.21-4.684,2.21h-6.297c0.219-0.424,0.424-0.852,0.602-1.292h5.359   c1.752,0,3.166-0.566,4.244-1.699c1.078-1.132,1.629-2.695,1.764-4.69l-0.031-3.272c0-2.991,1.09-5.528,3.268-7.613   c2.178-2.083,4.953-3.217,8.322-3.398v-0.815c-3.551,0.227-6.502,1.462-8.861,3.705c-2.357,2.243-3.537,4.951-3.537,8.122   l0.012,3.487c-0.072,1.141-0.369,2.204-1.002,3.185c-0.404,0.589-1.021,1.11-1.854,1.562c-0.832,0.454-1.605,0.681-2.324,0.681   h-5.1c0.131-0.381,0.254-0.764,0.355-1.156h4.307c1.213,0,2.223-0.418,3.031-1.257c0.744-0.771,1.148-1.752,1.246-2.926   l0.049-3.713c0-1.585,0.447-3.284,1.348-5.098c0.896-1.812,2.02-3.307,3.369-4.486c2.334-2.039,5.32-3.126,8.961-3.262v-0.816   c-3.551,0.137-6.561,1.18-9.029,3.128c-1.572,1.269-2.875,2.888-3.908,4.859c-1.033,1.971-1.549,3.84-1.549,5.607l-0.014,3.477   c-0.045,1.043-0.395,1.915-1.045,2.617c-0.652,0.703-1.473,1.054-2.459,1.054h-4.113c0.084-0.4,0.148-0.81,0.205-1.224h3.639   c1.51,0,2.344-0.721,2.523-2.144l0.051-3.849c0-1.993,0.539-4.01,1.617-6.049s2.514-3.739,4.311-5.098   c2.695-2.13,5.951-3.264,9.771-3.399v-0.815c-5.031,0.363-8.984,1.972-11.859,4.826   C546.934,294.486,545.811,296.142,544.957,298.089z"
   id="path909" />
	<path
   fill="#ED585C"
   d="M525.723,292.662v0.951v0.612h0.809v-0.612v-0.951v-1.02v-1.089c0-1.132-0.023-1.856-0.068-2.175   c-0.045-0.315-0.225-0.702-0.539-1.154c-0.854-1.54-2.133-2.312-3.84-2.312c-1.438,0-2.627,0.589-3.57,1.768   c-0.494,0.544-0.775,1.11-0.842,1.698c-0.068,0.59-0.102,2.379-0.102,5.37v4.486v4.486v3.194c0,1.903,0.312,3.262,0.943,4.078   c0.854,1.315,2.064,1.971,3.639,1.971c1.617,0,2.873-0.747,3.771-2.242c0.404-0.725,0.607-1.836,0.607-3.33v-1.021v-0.68v-0.747   v-0.477h-0.809v0.477v0.747v0.68v1.021c0,1.313-0.18,2.288-0.539,2.922c-0.629,1.224-1.641,1.836-3.031,1.836   c-0.988,0-1.865-0.397-2.627-1.19c-0.766-0.792-1.146-1.71-1.146-2.753v-4.485v-4.486c0-4.849,0.021-7.703,0.068-8.564   c0.043-0.86,0.178-1.54,0.404-2.039c0.268-0.544,0.729-0.997,1.381-1.359c0.65-0.362,1.291-0.544,1.92-0.544   c1.301,0,2.312,0.611,3.031,1.836c0.359,0.499,0.539,1.45,0.539,2.854v1.225V292.662z"
   id="path911" />
	<rect
   x="573.498"
   y="271.988"
   fill="#ED585C"
   width="0.811"
   height="51.872"
   id="rect913" />
	<rect
   x="571.68"
   y="271.988"
   fill="#ED585C"
   width="0.809"
   height="51.872"
   id="rect915" />
	<rect
   x="575.453"
   y="271.988"
   fill="#ED585C"
   width="0.809"
   height="51.872"
   id="rect917" />
	<rect
   x="569.658"
   y="271.988"
   fill="#ED585C"
   width="0.809"
   height="51.872"
   id="rect919" />
	<rect
   x="565.617"
   y="271.988"
   fill="#ED585C"
   width="0.807"
   height="51.872"
   id="rect921" />
	<path
   fill="#ED585C"
   d="M523.633,292.662v0.951v0.612h0.811v-0.612v-0.951v-0.952v-1.224c0-1.313-0.113-2.151-0.338-2.515   c-0.449-0.725-1.102-1.088-1.953-1.088c-0.719,0-1.326,0.262-1.82,0.782c-0.494,0.521-0.74,1.145-0.74,1.869v4.35v4.418   c0,6.163,0.09,9.472,0.27,9.925c0.494,1.133,1.256,1.698,2.291,1.698c0.674,0,1.223-0.26,1.65-0.781   c0.426-0.521,0.641-1.211,0.641-2.073v-0.883v-0.952v-0.68v-0.68v-0.408h-0.811v0.408v0.68v0.68v0.952v0.883   c0,1.36-0.492,2.039-1.48,2.039c-0.539,0-1.01-0.271-1.416-0.815c-0.225-0.408-0.336-2.288-0.336-5.642v-4.351v-7.545   c0-1.223,0.111-1.992,0.336-2.311c0.359-0.498,0.832-0.747,1.416-0.747c0.582,0,1.01,0.249,1.279,0.747   c0.135,0.227,0.201,0.907,0.201,2.039v1.224V292.662z"
   id="path923" />
	<rect
   x="561.574"
   y="271.988"
   fill="#ED585C"
   width="0.809"
   height="51.872"
   id="rect925" />
	<rect
   x="563.662"
   y="271.988"
   fill="#ED585C"
   width="0.809"
   height="51.872"
   id="rect927" />
	<path
   fill="#ED585C"
   d="M529.631,292.526v1.019v0.612h0.809v-0.612v-1.019v-1.088v-1.156c0-1.585-0.09-2.707-0.27-3.364   c-0.18-0.656-0.586-1.438-1.213-2.345c-1.842-2.537-4.156-3.807-6.939-3.807c-2.156,0-4.178,0.906-6.064,2.719   c-0.898,0.952-1.506,1.904-1.818,2.854c-0.314,0.952-0.473,2.379-0.473,4.282l0.068,2.719l-0.068,13.391   c0,2.221,0.539,4.079,1.617,5.574c1.887,2.492,4.178,3.737,6.873,3.737c1.436,0,2.816-0.407,4.143-1.223   c1.324-0.816,2.369-1.903,3.133-3.263c0.674-1.224,1.012-2.831,1.012-4.826v-1.155v-0.816v-0.814v-0.544h-0.809v0.544v0.814v0.816   v1.155c0,1.949-0.314,3.444-0.943,4.486c-0.674,1.179-1.617,2.142-2.83,2.889c-1.213,0.748-2.449,1.122-3.705,1.122   c-1.934,0-3.695-0.759-5.289-2.277c-1.596-1.518-2.393-3.183-2.393-4.996l0.068-14.614l-0.068-3.127   c0-1.585,0.146-2.809,0.439-3.67c0.291-0.859,0.842-1.699,1.65-2.515c1.615-1.631,3.436-2.447,5.457-2.447   c2.334,0,4.334,1.021,5.996,3.06c0.674,0.815,1.111,1.574,1.314,2.276c0.201,0.703,0.303,1.779,0.303,3.229v1.292V292.526z"
   id="path929" />
	<path
   fill="#ED585C"
   d="M452.619,287.599c-0.404-0.317-1.482-0.477-3.234-0.477h-1.752h-2.963h-6.4h-0.4v-0.003h-1.279h-4.199   h-1.955c-3.818,0-5.906,0.114-6.266,0.34c-0.898,0.454-1.348,1.201-1.348,2.243c0,1.451,0.764,2.221,2.291,2.312   c3.863,0.271,7.119,1.54,9.77,3.807c3.729,3.262,5.592,7.228,5.592,11.894c0,3.31-0.955,6.3-2.863,8.974   c-1.91,2.674-4.438,4.554-7.58,5.641c-1.123,0.454-2.088,0.714-2.896,0.782c-0.809,0.067-2.809,0.102-5.996,0.102h-3.975h-3.101   h-3.031h-1.954v0.002h-5.252h-2.629h-2.695H395h-3.504c-2.74-0.044-5.188-0.699-7.344-1.965c-2.426-1.399-4.369-3.354-5.828-5.863   c-1.46-2.508-2.189-5.116-2.189-7.827c0-4.745,1.931-8.743,5.793-11.997c2.83-2.305,6.424-3.456,10.781-3.456h1.953h1.887h1.953   h1.888h1.212v-0.814h-1.212h-1.888h-1.953h-2.492h-2.561c-2.92,0.046-5.548,0.77-7.883,2.169c-2.516,1.491-4.525,3.515-6.029,6.066   c-1.506,2.554-2.258,5.253-2.258,8.1c0,0.418,0.033,0.825,0.065,1.234h-2.589c-0.629-0.045-1.078-0.249-1.348-0.612   c-0.168-0.17-0.275-0.486-0.326-0.937v-0.945v-8.632c0-5.891-0.045-9.312-0.135-10.265c-0.313-3.487-1.505-6.524-3.57-9.107   c-3.233-4.032-7.568-6.049-13.004-6.049c-2.828,0-5.321,0.635-7.478,1.902l0.808,0.544c1.842-1.088,4.11-1.632,6.806-1.632   c3.368,0,6.434,0.976,9.196,2.923c2.763,1.949,4.66,4.511,5.693,7.682c0.448,1.314,0.707,2.549,0.775,3.704   c0.066,1.155,0.101,4.588,0.101,10.298v8.632l0.009,1.03c0.142,1.514,0.982,2.278,2.541,2.278h2.604   c0.053,0.411,0.107,0.822,0.189,1.225h-3.063c-0.987,0-1.808-0.352-2.459-1.055c-0.636-0.686-0.978-1.536-1.036-2.548h0.003v-0.862   v-8.633l0.067-6.049c0-3.172-0.28-5.664-0.842-7.477c-0.562-1.812-1.562-3.511-2.998-5.099c-2.875-3.171-6.492-4.758-10.848-4.758   c-2.201,0-4.133,0.432-5.794,1.291l0.539,0.612c1.752-0.724,5.323-1.087,5.323-1.087c2.604,0,5.053,0.725,7.343,2.175   c2.291,1.45,3.997,3.376,5.121,5.777c0.583,1.224,0.954,2.391,1.11,3.501c0.158,1.11,0.236,2.979,0.236,5.606l-0.066,5.506v8.633   v0.794h-0.012c0.045,1.314,0.471,2.391,1.279,3.229c0.809,0.839,1.818,1.257,3.032,1.257h3.243   c0.103,0.392,0.229,0.775,0.363,1.156h-3.875c-0.719,0-1.494-0.226-2.326-0.68c-0.83-0.452-1.447-0.975-1.853-1.563   c-0.673-1.042-1.032-2.175-1.077-3.398h-0.011v-0.862l0.067-14.749c0-2.81-0.226-4.951-0.674-6.424   c-0.449-1.472-1.304-2.934-2.561-4.384c-2.605-2.991-5.75-4.486-9.432-4.486c-1.617,0-3.123,0.271-4.514,0.816l0.538,0.746   c1.212-0.451,2.493-0.679,3.841-0.679c2.291,0,4.412,0.623,6.366,1.869c1.954,1.247,3.446,2.912,4.479,4.996   c0.494,1.043,0.81,2.039,0.943,2.991c0.135,0.951,0.203,2.649,0.203,5.097v2.243l-0.068,3.331v8.632l0.084,1.405   c0.203,1.729,0.772,3.124,1.746,4.146c1.078,1.133,2.494,1.699,4.246,1.699h4.168c0.18,0.439,0.395,0.866,0.613,1.292h-5.119   c-1.796,0-3.357-0.736-4.683-2.209c-1.324-1.472-2.056-3.297-2.188-5.472l-0.035-0.862v-8.632c0-5.71-0.022-8.904-0.066-9.584   c-0.18-2.129-0.854-4.01-2.021-5.643c-2.021-2.763-4.918-4.146-8.69-4.146c-0.854,0-1.888,0.114-3.101,0.34l0.405,0.816   c0.897-0.182,1.772-0.272,2.627-0.272c2.38,0,4.413,0.612,6.097,1.835c1.686,1.225,2.842,2.923,3.471,5.098   c0.224,0.771,0.359,1.644,0.404,2.617c0.045,0.976,0.067,3.954,0.067,8.938v8.632l0.082,1.405c0.218,2.204,0.994,4.054,2.343,5.541   c1.461,1.608,3.223,2.413,5.289,2.413h5.572c0.229,0.388,0.453,0.777,0.719,1.154h-6.156c-2.469,0-4.547-0.905-6.232-2.719   c-1.684-1.812-2.594-4.123-2.729-6.933h-0.011v-0.862v-8.632l0.067-6.117c0-2.492-0.146-4.283-0.438-5.37   c-0.293-1.088-0.888-2.13-1.785-3.127c-1.662-1.812-3.863-2.719-6.604-2.719c-0.673,0-1.37,0.046-2.088,0.136l0.337,0.816   c0.269-0.045,0.808-0.068,1.617-0.068h0.337c2.245,0,4.109,0.748,5.592,2.243c0.943,0.907,1.549,1.881,1.818,2.923   c0.27,1.043,0.404,2.946,0.404,5.709v2.243l-0.066,3.331v8.632l0.07,1.405c0.192,2.123,0.767,3.989,1.758,5.575   c0.854,1.313,2.012,2.367,3.471,3.159c1.46,0.794,2.954,1.19,4.48,1.19h6.77c0.104,0.132,0.191,0.27,0.303,0.401   c0.245,0.296,0.514,0.549,0.773,0.821h-7.913c-2.964,0-5.479-1.098-7.546-3.296c-1.986-2.114-3.092-4.789-3.334-8.014v-1.243   v-8.632l0.066-6.117c0-2.22-0.101-3.773-0.303-4.656c-0.201-0.884-0.64-1.71-1.314-2.48c-1.303-1.45-2.941-2.175-4.918-2.175   c-0.27,0-0.74,0.045-1.414,0.136l0.269,0.814c0.136,0,0.313-0.021,0.539-0.067h0.135h0.136h0.135c1.482,0,2.783,0.454,3.906,1.359   l1.686,2.447c0.225,0.861,0.337,2.582,0.337,5.165v2.243l-0.067,3.331v8.632v0.862c0,0-0.01,0.227,0,0.342l0.02,0.201   c0.312,3.337,1.509,6.139,3.617,8.395c2.224,2.379,4.908,3.569,8.052,3.569h8.694c0.502,0.467,1.022,0.899,1.564,1.291h-10.395   c-1.57,0-3.256-0.452-5.053-1.359c-1.795-0.906-3.277-2.039-4.445-3.398c-2.022-2.355-2.809-5.029-2.942-8.7l0.129-1.947   l-0.007-1.088h0.018v-2.175v-1.79v-2.968c0-5.257-0.045-8.384-0.135-9.381c-0.091-0.995-0.382-1.812-0.876-2.446   c-0.942-1.088-2.089-1.631-3.437-1.631c-0.494,0-0.831,0.022-1.01,0.067l0.201,0.815c0.135-0.044,0.405-0.068,0.809-0.068h0.068   c0.448,0,1.1,0.229,1.953,0.68l0.068,0.068c0.583,0.318,1.01,0.839,1.279,1.563c0.18,0.544,0.27,3.987,0.27,10.332v2.968v1.097   h-0.037l0.027,3.956l-0.096,2.514c0.192,3.297,0.947,5.846,2.772,8.201c1.258,1.587,2.864,2.901,4.817,3.943   c1.953,1.043,3.807,1.562,5.559,1.562h11.711c0.842,0.492,1.73,0.897,2.661,1.225h-14.438c-1.977,0-3.976-0.544-5.998-1.632   c-2.021-1.087-3.705-2.537-5.053-4.351c-2.109-2.719-3.15-6.004-3.285-9.855l0.068-1.607l-0.007-1.088h0.019v-2.175v-1.79v-2.968   l0.066-6.186c0-1.994-0.135-3.308-0.404-3.942s-0.854-1.042-1.752-1.224c-0.449,0-0.764,0.023-0.943,0.068l0.136,0.814   c0.089-0.044,0.291-0.066,0.606-0.066h0.067h0.134c0.225,0,0.449,0.091,0.674,0.271c0.359,0.363,0.562,0.907,0.606,1.632v4.146   v2.719v3.807v0.929v1.097h-0.037l0.026,3.956l-0.057,2.514c0.479,4.641,2.032,8.334,4.689,11.057   c1.347,1.405,2.986,2.538,4.918,3.398c1.932,0.861,3.773,1.291,5.525,1.291h18.158c1.168,0.098,2.844,0.147,5.049,0.147h3.502   h2.695h2.629h5.252h0.361h1.593h3.031h3.101h3.975c3.008,0,4.873-0.045,5.592-0.136c3.188-0.272,6.086-1.473,8.691-3.604   c1.84-1.54,3.277-3.421,4.312-5.641c1.031-2.221,1.549-4.531,1.549-6.935c0-4.214-1.482-7.952-4.447-11.215   c-1.303-1.449-2.887-2.661-4.75-3.636c-1.863-0.974-3.627-1.506-5.289-1.598c-1.48-0.044-2.336-0.158-2.559-0.34   c-0.404-0.316-0.607-0.725-0.607-1.224c0-0.77,0.291-1.291,0.875-1.562c0.225-0.137,0.877-0.204,1.955-0.204h1.953h2.021h1.955   h4.199h0.871v0.002h0.809h6.4h2.963h1.281h1.146c0.896,0,1.504,0.058,1.818,0.17c0.314,0.114,0.561,0.397,0.74,0.85   c0.135,0.318,0.203,3.444,0.203,9.38v8.564v6.525v6.525v4.078h0.809v-4.078v-6.525v-6.525v-6.934l0.066-7.951   c0-1.496-0.066-2.516-0.201-3.06S453.068,287.961,452.619,287.599z"
   id="path931" />
	<path
   fill="#ED585C"
   d="M389.407,281.42c-1.843,0.453-3.358,1.428-4.548,2.922c-1.191,1.496-1.785,3.15-1.785,4.962v0.748v0.748   v0.543v0.612v0.34l0.809-0.408v-0.34v-0.475v-0.476v-0.681v-0.476c0-1.45,0.404-2.787,1.213-4.01   c0.808-1.224,1.908-2.152,3.301-2.787c0.764-0.316,1.425-0.511,1.988-0.578c0.561-0.068,2.099-0.103,4.615-0.103h3.502h2.695h9.842   c0.141-0.275,0.299-0.546,0.457-0.814h-10.299h-2.695C393.203,281.148,390.17,281.239,389.407,281.42z"
   id="path933" />
	<path
   fill="#ED585C"
   d="M348.957,278.362c-3.233-4.032-7.568-6.049-13.004-6.049c-2.828,0-5.322,0.635-7.478,1.902l0.808,0.544   c1.842-1.088,4.11-1.631,6.805-1.631c3.369,0,6.435,0.976,9.197,2.922c2.762,1.949,4.659,4.511,5.693,7.682   c0.447,1.314,0.707,2.549,0.775,3.704c0.066,1.155,0.101,4.588,0.101,10.298v8.632v6.594v6.525v4.146h0.808v-4.146v-6.525v-6.594   v-8.632c0-5.891-0.045-9.312-0.135-10.265C352.213,283.982,351.022,280.945,348.957,278.362z"
   id="path935" />
	<path
   fill="#ED585C"
   d="M412.851,279.109h-11.72h-2.629c-4.492,0-7.187,0.034-8.084,0.102c-0.899,0.068-1.797,0.283-2.695,0.646   c-2.066,0.815-3.695,2.085-4.885,3.807c-1.19,1.722-1.785,3.648-1.785,5.777v0.884v1.087v0.884v0.816v0.543l0.809-0.611v-0.476   v-0.681v-0.747v-0.951v-0.748c0-3.579,1.572-6.298,4.717-8.156c1.121-0.634,2.076-1.02,2.862-1.156   c0.786-0.136,2.616-0.204,5.491-0.204h3.57h2.629h11.138C412.472,279.647,412.627,279.377,412.851,279.109z"
   id="path937" />
	<path
   fill="#ED585C"
   d="M470.271,283.791h1.617h1.549h1.16c0.045-0.125,0.084-0.244,0.133-0.374   c0.061-0.151,0.141-0.292,0.205-0.44h-1.564h-1.617h-1.684h-1.617h-1.012l0.27,0.814h1.012H470.271z"
   id="path939" />
	<path
   fill="#ED585C"
   d="M342.623,283.12c-1.662-1.812-3.863-2.719-6.602-2.719c-0.674,0-1.371,0.046-2.089,0.136l0.337,0.816   c0.27-0.045,0.809-0.068,1.617-0.068h0.337c2.245,0,4.11,0.748,5.592,2.243c0.942,0.907,1.55,1.881,1.819,2.923   c0.27,1.043,0.404,2.946,0.404,5.709v2.243l-0.067,3.331v8.632v6.594v6.525v4.146h0.808v-4.146v-6.525v-6.594v-8.632l0.068-6.117   c0-2.492-0.146-4.283-0.438-5.37C344.116,285.159,343.521,284.118,342.623,283.12z"
   id="path941" />
	<path
   fill="#ED585C"
   d="M341.142,284.48c-1.304-1.45-2.942-2.175-4.918-2.175c-0.271,0-0.741,0.045-1.415,0.136l0.27,0.814   c0.135,0,0.313-0.021,0.539-0.067h0.135h0.135h0.135c1.482,0,2.784,0.454,3.906,1.359c0.9,0.771,1.461,1.586,1.686,2.447   s0.338,2.583,0.338,5.165v2.243l-0.068,3.331v8.632v6.594v6.525v4.146h0.809v-4.146v-6.525v-6.594v-8.632l0.066-6.117   c0-2.22-0.101-3.773-0.303-4.656C342.254,286.077,341.815,285.251,341.142,284.48z"
   id="path943" />
	<path
   fill="#ED585C"
   d="M345.655,280.81c-2.604-2.99-5.75-4.486-9.432-4.486c-1.617,0-3.122,0.271-4.515,0.816l0.539,0.747   c1.213-0.452,2.493-0.68,3.84-0.68c2.291,0,4.414,0.623,6.367,1.869c1.955,1.247,3.447,2.912,4.48,4.996   c0.494,1.043,0.809,2.039,0.943,2.991c0.135,0.951,0.203,2.649,0.203,5.097v2.243l-0.068,3.331v8.632v6.594v6.525v4.146h0.809   v-4.146v-6.525v-6.594l0.067-14.749c0-2.809-0.226-4.951-0.675-6.424C347.767,283.722,346.912,282.26,345.655,280.81z"
   id="path945" />
	<path
   fill="#ED585C"
   d="M344.713,282.509c-2.021-2.764-4.918-4.146-8.691-4.146c-0.854,0-1.887,0.114-3.1,0.34l0.404,0.816   c0.898-0.182,1.774-0.272,2.627-0.272c2.381,0,4.413,0.612,6.098,1.835c1.685,1.225,2.841,2.923,3.471,5.098   c0.225,0.771,0.357,1.644,0.404,2.617c0.043,0.976,0.066,3.954,0.066,8.938v8.632v6.594v6.525v4.146h0.809v-4.146v-6.525v-6.594   v-8.632c0-5.71-0.022-8.904-0.067-9.584C346.553,286.021,345.879,284.141,344.713,282.509z"
   id="path947" />
	<path
   fill="#ED585C"
   d="M346.936,279.178c-2.875-3.171-6.491-4.758-10.848-4.758c-2.201,0-4.133,0.432-5.793,1.291l0.539,0.612   c1.752-0.724,5.322-1.087,5.322-1.087c2.604,0,5.053,0.725,7.344,2.175s3.996,3.376,5.121,5.777   c0.582,1.224,0.952,2.391,1.11,3.501c0.157,1.11,0.235,2.979,0.235,5.606l-0.066,5.506v8.633v6.525v6.525v4.146h0.809v-4.146   v-6.525v-6.525v-8.633l0.067-6.049c0-3.172-0.28-5.664-0.843-7.477S348.373,280.766,346.936,279.178z"
   id="path949" />
	<path
   fill="#ED585C"
   d="M462.457,285.016c-1.17-3.081-3.303-5.393-6.4-6.934c-1.035-0.544-1.934-0.884-2.695-1.02   c-0.764-0.137-2.066-0.204-3.908-0.204h-1.752h-3.031h-6.4h-0.4v-0.002h-1.279h-4.199h-1.955h-2.627   c-1.932,0-3.166,0.022-3.705,0.067c-2.426,0.271-4.605,1.224-6.536,2.854c-3.056,2.583-4.582,5.892-4.582,9.924   c0,3.354,1.179,6.231,3.537,8.632c2.358,2.403,5.244,3.649,8.659,3.739c1.525,0.046,2.807,0.612,3.84,1.699   c1.031,1.088,1.549,2.402,1.549,3.941c0,2.583-1.168,4.328-3.504,5.234c-0.629,0.271-2.605,0.408-5.928,0.408h-3.975h-3.101h-3.031   h-1.954v0.03h-5.252h-2.629h-2.695c-4.133,0-6.602-0.033-7.41-0.102s-1.527-0.259-2.156-0.576   c-0.854-0.451-1.549-1.151-2.088-2.101s-0.809-1.92-0.809-2.915c0-2.077,0.92-3.683,2.762-4.812   c0.897-0.542,2.199-0.812,3.908-0.812h1.953h1.887h1.953h1.888h1.212v-0.813h-1.212h-1.888h-1.953h-2.291   c-2.111,0-3.426,0.034-3.941,0.102c-0.518,0.067-1.135,0.329-1.854,0.779c-2.154,1.355-3.232,3.209-3.232,5.558   c0,1.537,0.482,2.904,1.447,4.101c0.966,1.198,2.168,1.932,3.605,2.203c0.539,0.135,2.11,0.203,4.717,0.203h3.502h2.695h2.629   h5.613v-0.028h1.593h3.031h3.101h3.03h3.032c1.752,0,2.92-0.067,3.504-0.204c0.584-0.136,1.258-0.476,2.021-1.02   c1.752-1.314,2.627-3.058,2.627-5.234c0-1.675-0.605-3.148-1.818-4.418c-1.213-1.268-2.674-1.946-4.379-2.039   c-3.28-0.09-5.997-1.233-8.153-3.432c-2.155-2.198-3.233-4.905-3.233-8.123c0-2.719,0.863-5.2,2.594-7.443   c1.729-2.242,3.873-3.681,6.434-4.315c0.764-0.18,2.426-0.272,4.986-0.272h2.627h1.955h4.199h0.871v0.003h0.809h6.4h3.031h1.752   c1.842,0,3.121,0.068,3.84,0.204c0.719,0.137,1.549,0.453,2.494,0.951c2.873,1.405,4.85,3.558,5.928,6.458   c0.449,1.087,0.707,2.175,0.775,3.262c0.068,1.088,0.1,4.351,0.1,9.788v8.564v6.525v6.525v4.078h0.811v-4.078v-6.525v-6.525v-8.564   c0-5.481-0.047-8.778-0.135-9.89C463.174,287.337,462.904,286.194,462.457,285.016z"
   id="path951" />
	<path
   fill="#ED585C"
   d="M464.275,284.335c-1.303-3.535-3.729-6.208-7.277-8.021c-1.211-0.588-2.279-0.975-3.199-1.155   c-0.922-0.181-2.371-0.272-4.346-0.272h-1.752h-3.031h-6.4h-0.4v-0.003h-1.279h-4.199h-1.955h-2.627   c-2.021,0-3.324,0.024-3.908,0.069c-2.74,0.271-5.211,1.314-7.411,3.126c-1.708,1.451-3.044,3.195-4.009,5.234   c-0.966,2.039-1.448,4.146-1.448,6.32c0,1.995,0.46,3.967,1.382,5.914c0.92,1.949,2.166,3.603,3.738,4.962   c2.426,2.176,5.434,3.33,9.029,3.467c0.896,0.046,1.705,0.441,2.424,1.189c0.719,0.747,1.078,1.575,1.078,2.481   c0,1.133-0.428,2.062-1.279,2.786c-0.539,0.453-1.068,0.726-1.584,0.815c-0.518,0.091-2.078,0.136-4.682,0.136h-3.975h-3.101   h-3.031h-1.954v0.036h-5.252h-2.629h-2.695c-3.908,0-6.221-0.021-6.938-0.067c-0.72-0.044-1.304-0.181-1.752-0.406   c-1.169-0.632-1.752-1.695-1.752-3.187c0-1.399,0.583-2.439,1.752-3.117c0.358-0.226,0.718-0.361,1.078-0.406   c0.358-0.045,1.415-0.068,3.167-0.068h2.492h1.953h1.888h1.212v-0.812h-1.212h-1.888h-1.953h-2.291   c-1.932,0-3.098,0.022-3.504,0.066c-0.403,0.046-0.853,0.204-1.347,0.476c-1.438,0.903-2.155,2.191-2.155,3.862   c0,1.447,0.539,2.644,1.617,3.593c0.538,0.453,1.077,0.712,1.616,0.779c0.539,0.068,2.043,0.103,4.515,0.103h3.502h2.695h2.629   h5.613v-0.034h1.593h3.031h3.101h7.545c1.168-0.045,2.088-0.295,2.764-0.748c1.346-0.86,2.02-2.106,2.02-3.739   c0-1.132-0.449-2.163-1.348-3.092c-0.898-0.928-1.887-1.416-2.963-1.462c-3.235-0.136-5.953-1.087-8.153-2.854   c-1.616-1.269-2.887-2.855-3.807-4.759c-0.921-1.903-1.382-3.851-1.382-5.846c0-2.039,0.473-4.044,1.416-6.015   c0.942-1.972,2.223-3.591,3.84-4.86c1.482-1.178,2.886-1.994,4.211-2.447c1.324-0.453,3.043-0.68,5.154-0.68h1.953h2.021h1.955   h4.199h0.871v0.003h0.809h6.4h3.031h1.752c1.93,0,3.324,0.079,4.178,0.238c0.852,0.159,1.863,0.509,3.031,1.053   c3.189,1.631,5.48,4.192,6.873,7.681c0.447,1.27,0.717,2.471,0.807,3.603c0.09,1.133,0.137,4.464,0.137,9.992v8.563v6.526v6.524   v4.146h0.807v-4.146v-6.524v-6.526v-8.563c0-5.618-0.045-9.018-0.135-10.196C465.061,286.896,464.77,285.65,464.275,284.335z"
   id="path953" />
	<path
   fill="#ED585C"
   d="M464.746,280.937c-3.188-5.256-7.814-7.885-13.879-7.885h-1.346h-1.752h-3.033h-6.4h-0.467v-0.003h-1.279   h-4.199h-1.955h-2.627c-2.111,0-3.459,0.024-4.043,0.068c-0.453,0.042-0.893,0.138-1.335,0.216c0.21-0.047,0.415-0.094,0.562-0.138   h-21.795h-2.695H395c-2.965,0-4.83,0.034-5.593,0.102c-0.765,0.068-1.752,0.307-2.965,0.714c-2.29,0.726-4.312,1.915-6.063,3.568   c-1.752,1.655-3.076,3.592-3.975,5.812c-0.494,1.314-0.798,2.436-0.91,3.363c-0.113,0.931-0.168,2.821-0.168,5.677v3.194v2.379   v2.447v1.495l0.809-1.903v-1.292v-2.039v-2.039v-2.719c0-2.355,0.043-3.919,0.135-4.689c0.089-0.771,0.312-1.699,0.674-2.787   c0.719-2.129,1.863-4.021,3.436-5.676c1.572-1.653,3.437-2.91,5.593-3.772c1.706-0.679,4.108-1.02,7.209-1.02h2.627h2.694h2.695   h18.651c0.25-0.115,0.631-0.221,1.038-0.321c-1.137,0.326-2.242,0.754-3.297,1.341h-16.393h-2.695H395   c-2.787,0-4.539,0.034-5.256,0.102c-0.719,0.068-1.617,0.284-2.695,0.646c-2.021,0.635-3.818,1.688-5.389,3.161   c-1.574,1.473-2.719,3.184-3.437,5.131c-0.63,1.678-0.944,4.056-0.944,7.137v2.176v1.632v1.631v1.02l0.809-1.088v-0.883v-1.428   v-1.428v-1.902c0-2.583,0.225-4.556,0.674-5.914c0.584-1.857,1.572-3.512,2.965-4.962s3.031-2.56,4.918-3.33   c1.572-0.589,3.75-0.884,6.536-0.884h2.627h2.694h2.695h15.112c-0.234,0.146-0.469,0.294-0.696,0.466   c-1.977,1.587-3.549,3.567-4.716,5.946c-0.141,0.285-0.252,0.573-0.369,0.86h-9.331h-2.695c-5.076,0-7.949,0.091-8.623,0.272   c-1.393,0.362-2.539,1.099-3.437,2.209c-0.899,1.11-1.347,2.322-1.347,3.636v0.476v0.544v0.408v0.34v0.272l0.808-0.272V290.8v-0.34   v-0.34v-0.476v-0.341c0-2.175,1.101-3.76,3.302-4.758c0.629-0.315,1.18-0.498,1.65-0.543c0.473-0.045,1.854-0.067,4.145-0.067   h3.502h2.695h8.984c-0.151,0.404-0.266,0.813-0.385,1.223h-8.6h-2.695c-4.896,0-7.545,0.046-7.949,0.136   c-1.034,0.272-1.887,0.806-2.561,1.598c-0.674,0.794-1.011,1.643-1.011,2.549v0.271v0.272v0.271v0.272v0.136l0.81-0.136v-0.136   v-0.204v-0.272v-0.271v-0.204c0-1.314,0.74-2.355,2.223-3.126c0.539-0.228,2.199-0.34,4.986-0.34h3.502h2.695h8.367   c-0.1,0.428-0.167,0.858-0.23,1.291h-8.137h-2.695c-4.851,0-7.455,0.046-7.814,0.136c-1.078,0.227-1.617,0.86-1.617,1.902v0.272   v0.272v0.271v0.204v0.136h0.809v-0.136v-0.204v-0.204v-0.204v-0.271c0-0.588,0.313-0.996,0.943-1.224   c0.225-0.091,1.01-0.136,2.358-0.136h2.627h2.694h2.695h8.036c-0.047,0.493-0.088,0.987-0.088,1.485   c0,4.396,1.616,8.225,4.851,11.486c1.303,1.36,2.853,2.493,4.649,3.399c1.796,0.907,3.458,1.383,4.985,1.427   c1.348,0.093,2.133,0.229,2.359,0.408c0.492,0.363,0.74,0.816,0.74,1.36c0,0.589-0.203,1.019-0.607,1.291   c-0.225,0.227-0.549,0.351-0.977,0.374c-0.428,0.022-1.764,0.034-4.008,0.034h-3.975h-3.101h-3.031h-1.954v0.042h-5.252h-2.629   h-2.695c-4.761,0-7.209-0.022-7.342-0.068c-0.766-0.136-1.146-0.632-1.146-1.491c0-0.678,0.246-1.152,0.74-1.423   c0.271-0.18,1.371-0.271,3.303-0.271h2.492h1.953h1.888h1.212v-0.813h-1.212h-1.888h-1.953c-3.639,0-5.615,0.068-5.928,0.204   c-0.945,0.361-1.416,1.129-1.416,2.304c0,1.084,0.448,1.808,1.348,2.169c0.27,0.135,1.752,0.203,4.447,0.203h3.502h2.695h2.629   h5.613v-0.039h1.593h3.031h3.101c5.568,0,8.488-0.045,8.758-0.136c1.078-0.453,1.617-1.225,1.617-2.312   c0-0.679-0.236-1.257-0.707-1.732c-0.473-0.477-1.023-0.736-1.65-0.781c-3.684-0.181-6.807-1.337-9.366-3.467   c-1.842-1.495-3.278-3.319-4.312-5.473c-1.035-2.15-1.549-4.338-1.549-6.559c0-3.398,0.998-6.502,2.998-9.312   c1.998-2.81,4.568-4.734,7.713-5.777c1.526-0.499,3.908-0.748,7.143-0.748h2.627h1.955h4.199h0.871v0.002h0.875h6.4h3.033h1.279   h1.348h0.74c3.279,0,6.277,1.043,8.994,3.127c2.719,2.085,4.594,4.782,5.627,8.089c0.359,1.178,0.572,2.322,0.641,3.433   c0.066,1.11,0.1,4.361,0.1,9.754v8.563v6.526v6.524v4.146h0.809v-4.146v-6.524v-6.526v-8.563c0-5.71-0.023-8.973-0.066-9.788   C466.971,285.672,466.139,283.157,464.746,280.937z"
   id="path955" />
	<path
   fill="#ED585C"
   d="M458.75,282.568c-2.066-2.402-4.783-3.604-8.15-3.604h-1.146h-1.752h-3.031h-6.4h-0.4v-0.002h-1.279h-4.199   h-1.955h-2.627c-1.932,0-3.123,0.023-3.57,0.068c-1.979,0.181-3.773,0.929-5.391,2.243c-2.561,2.13-3.84,4.917-3.84,8.359   c0,3.127,1.166,5.733,3.502,7.817c1.842,1.587,4.066,2.447,6.672,2.583c2.064,0.046,3.816,0.815,5.254,2.311   s2.156,3.309,2.156,5.438c0,1.587-0.449,3.025-1.348,4.317c-0.898,1.291-2.111,2.209-3.639,2.752   c-0.809,0.271-2.963,0.407-6.467,0.407h-3.975h-3.101h-3.031h-1.954v0.025h-5.252h-2.629h-2.695c-4.176,0-6.658-0.022-7.444-0.067   s-1.493-0.18-2.122-0.406c-1.438-0.587-2.617-1.536-3.537-2.848c-0.921-1.31-1.381-2.732-1.381-4.27   c0-1.311,0.347-2.563,1.044-3.761c0.696-1.197,1.628-2.136,2.796-2.813c0.809-0.497,1.516-0.79,2.122-0.881   c0.606-0.09,1.965-0.136,4.077-0.136h2.492h1.953h1.888h1.212v-0.813h-1.212h-1.888h-1.953h-2.492c-2.202,0-3.629,0.058-4.279,0.17   c-0.65,0.113-1.426,0.418-2.324,0.915c-1.258,0.724-2.279,1.762-3.066,3.117c-0.785,1.356-1.178,2.757-1.178,4.202   c0,1.447,0.393,2.847,1.178,4.203c0.787,1.354,1.83,2.395,3.134,3.117c0.853,0.497,1.594,0.803,2.224,0.914   c0.629,0.114,1.773,0.171,3.437,0.171h2.627h2.694h2.695h2.629h5.613v-0.023h1.593h3.031h3.101h3.975   c2.738,0,4.355-0.022,4.852-0.068c1.75-0.181,3.277-0.815,4.58-1.902c1.887-1.632,2.83-3.715,2.83-6.254   c0-2.312-0.797-4.316-2.393-6.016c-1.594-1.699-3.535-2.57-5.826-2.617c-2.338-0.045-4.291-0.748-5.863-2.106   c-2.336-1.903-3.503-4.396-3.503-7.478c0-2.039,0.595-3.941,1.786-5.709c1.189-1.768,2.705-2.968,4.547-3.603   c0.943-0.362,2.83-0.544,5.66-0.544h2.627h1.955h4.199h0.871v0.003h0.809h6.4h3.031h1.348h1.348h0.674   c2.83,0,5.209,1.111,7.141,3.33c1.078,1.179,1.775,2.356,2.09,3.535c0.312,1.179,0.471,3.218,0.471,6.117l-0.066,5.506v8.563v6.526   v6.524v4.146h0.807v-4.146v-6.524v-6.526v-8.563l0.068-6.05c0-2.583-0.191-4.52-0.572-5.812   C460.625,285.117,459.873,283.837,458.75,282.568z"
   id="path957" />
	<path
   fill="#ED585C"
   d="M457.27,283.791c-1.574-1.856-3.797-2.787-6.67-2.787h-1.146h-1.752h-3.031h-6.4h-0.4v-0.002h-1.279h-4.199   h-1.955h-2.627c-1.887,0-3.01,0.023-3.369,0.068c-1.572,0.136-3.055,0.793-4.447,1.971c-2.021,1.813-3.031,4.034-3.031,6.661   c0,2.312,0.785,4.282,2.357,5.914c1.572,1.631,3.525,2.47,5.863,2.515c2.648,0.045,4.871,0.997,6.67,2.854   c1.795,1.858,2.693,4.124,2.693,6.797c0,1.995-0.596,3.83-1.785,5.506c-1.189,1.677-2.752,2.833-4.682,3.467   c-0.764,0.272-1.426,0.432-1.988,0.477s-2.213,0.066-4.951,0.066h-3.975h-3.101h-3.031h-1.954v0.021h-5.252h-2.629h-2.695   c-4.715,0-7.557-0.057-8.522-0.17c-0.966-0.112-2.011-0.463-3.132-1.05c-1.393-0.724-2.539-1.875-3.436-3.457   c-0.9-1.581-1.349-3.208-1.349-4.881c0-1.717,0.426-3.309,1.28-4.777c0.853-1.468,2.021-2.632,3.504-3.491   c0.986-0.586,1.863-0.948,2.627-1.084c0.763-0.136,2.291-0.203,4.582-0.203h2.492h1.953h1.888h1.212v-0.813h-1.212h-1.888h-1.953   h-2.492c-2.383,0-3.977,0.067-4.784,0.203c-0.81,0.136-1.752,0.521-2.83,1.152c-1.571,0.949-2.829,2.236-3.772,3.863   s-1.416,3.345-1.416,5.15c0,1.809,0.461,3.536,1.383,5.186c0.92,1.65,2.166,2.926,3.738,3.83c1.078,0.633,2.043,1.016,2.897,1.151   c0.853,0.136,2.763,0.203,5.728,0.203h3.502h2.695h2.629h5.613v-0.017h1.593h3.031h3.101h3.975c2.828,0,4.49-0.022,4.984-0.068   c2.066-0.18,3.908-0.928,5.525-2.243c2.471-1.992,3.705-4.621,3.705-7.885c0-2.898-0.977-5.369-2.93-7.408   c-1.955-2.04-4.369-3.104-7.242-3.194c-2.156-0.09-3.932-0.838-5.324-2.243c-1.393-1.404-2.088-3.195-2.088-5.37   c0-1.585,0.482-3.069,1.447-4.452c0.967-1.382,2.19-2.367,3.674-2.957c0.762-0.315,2.402-0.475,4.918-0.475h2.627h1.955h4.199   h0.871v0.002h0.809h6.4h3.031h1.348h1.348h0.605c2.291,0,4.178,0.861,5.66,2.583c0.898,0.997,1.471,1.982,1.717,2.957   c0.248,0.975,0.371,2.775,0.371,5.403l-0.066,5.506v8.563v6.526v6.524v4.146h0.809v-4.146v-6.524v-6.526l0.066-14.681   c0-2.267-0.156-3.978-0.471-5.132C458.773,285.864,458.166,284.789,457.27,283.791z"
   id="path959" />
	<path
   fill="#ED585C"
   d="M454.17,286.238c-0.586-0.544-1.158-0.883-1.719-1.02c-0.562-0.136-1.584-0.203-3.066-0.203h-1.684h-3.031   h-6.4h-0.4v-0.004h-1.279h-4.199h-1.955c-3.234,0-5.166,0.034-5.793,0.103c-0.631,0.068-1.236,0.329-1.82,0.782   c-1.348,0.997-2.021,2.266-2.021,3.806c0,1.224,0.414,2.255,1.246,3.093c0.832,0.839,1.875,1.281,3.135,1.325   c3.816,0.136,6.994,1.507,9.531,4.113c2.537,2.605,3.809,5.789,3.809,9.549c0,2.811-0.82,5.394-2.459,7.749   c-1.641,2.357-3.764,4.01-6.367,4.962c-1.035,0.363-1.934,0.578-2.695,0.646c-0.764,0.067-2.719,0.102-5.861,0.102h-4.043h-3.032   h-3.031h-1.954v0.008h-5.252h-2.629h-2.695H395h-3.504c-2.291-0.045-4.38-0.633-6.266-1.763c-2.156-1.219-3.875-2.892-5.154-5.015   c-1.281-2.123-1.921-4.36-1.921-6.711c0-2.349,0.64-4.618,1.921-6.811c1.279-2.191,2.975-3.898,5.086-5.118   c1.348-0.767,2.516-1.242,3.504-1.423c0.987-0.18,2.785-0.271,5.391-0.271h2.492h1.953h1.888h1.212v-0.813h-1.212h-1.888h-1.953   h-2.492c-2.651,0-4.516,0.113-5.594,0.339c-1.076,0.227-2.312,0.723-3.705,1.491c-2.246,1.311-4.043,3.117-5.389,5.422   c-1.348,2.304-2.021,4.7-2.021,7.184c0,3.436,1.234,6.553,3.705,9.354c2.47,2.802,5.412,4.406,8.826,4.812   c0.674,0.092,2.379,0.136,5.121,0.136h3.502h2.695h2.629h5.613v-0.006h1.593h3.031h3.032h4.043c2.92,0,4.717-0.022,5.389-0.068   c3.055-0.316,5.682-1.427,7.883-3.33c3.279-2.855,4.92-6.457,4.92-10.808c0-3.987-1.371-7.386-4.111-10.195   c-2.74-2.809-6.086-4.259-10.037-4.35c-1.123,0-2.021-0.408-2.695-1.225c-0.585-0.634-0.877-1.427-0.877-2.379   c0-1.087,0.404-2.039,1.213-2.854c0.494-0.498,0.965-0.792,1.416-0.884c0.447-0.091,1.639-0.136,3.57-0.136h2.627h1.955h4.199   h0.871v0.002h0.809h6.4h3.031h1.549c1.527,0,2.516,0.046,2.965,0.136c0.449,0.093,0.898,0.364,1.348,0.816   c0.584,0.544,0.943,1.111,1.078,1.699c0.135,0.59,0.201,2.017,0.201,4.282l-0.066,5.506v8.563v6.526v6.524v4.146h0.809v-4.146   v-6.524v-6.526l0.068-14.681c0-1.948-0.092-3.274-0.271-3.978C455.201,287.474,454.797,286.828,454.17,286.238z"
   id="path961" />
	<path
   fill="#ED585C"
   d="M455.045,284.472c-0.943-0.681-1.719-1.099-2.324-1.259c-0.605-0.157-1.719-0.236-3.336-0.236h-1.684   h-3.031h-6.4h-0.4v-0.003h-1.279h-4.199h-1.955h-2.357c-1.977,0-3.145,0.022-3.504,0.067c-1.303,0.136-2.492,0.748-3.57,1.835   c-1.349,1.451-2.021,3.06-2.021,4.826c0,1.813,0.583,3.32,1.751,4.521s2.649,1.824,4.448,1.868   c3.188,0.093,5.883,1.259,8.084,3.501c2.199,2.243,3.301,4.951,3.301,8.122c0,2.403-0.707,4.612-2.121,6.628   c-1.416,2.017-3.291,3.433-5.627,4.248c-0.898,0.363-1.674,0.567-2.324,0.612c-0.652,0.045-2.436,0.068-5.355,0.068h-3.975h-3.101   h-3.031h-1.954v0.013h-5.252h-2.629h-2.695h-5.929c-2.604,0-4.782-0.496-6.534-1.491c-1.752-0.993-3.179-2.428-4.279-4.304   c-1.1-1.874-1.65-3.829-1.65-5.862c0-1.987,0.539-3.886,1.617-5.693c1.078-1.807,2.515-3.254,4.312-4.338   c1.166-0.678,2.189-1.095,3.064-1.254c0.876-0.157,2.527-0.236,4.953-0.236h2.492h1.953h1.888h1.212v-0.814h-1.212h-1.888h-1.953   h-2.492c-2.471,0-4.178,0.091-5.121,0.271s-2.021,0.634-3.234,1.355c-1.932,1.13-3.48,2.677-4.648,4.644   c-1.168,1.965-1.752,4.01-1.752,6.133c0,3.028,1.045,5.739,3.133,8.134c2.089,2.396,4.593,3.773,7.513,4.134   c0.628,0.091,2.312,0.136,5.054,0.136h3.502h2.695h2.629h5.613v-0.012h1.593h3.031h3.101h3.03h3.032   c2.516,0,4.436-0.204,5.762-0.611c1.324-0.407,2.682-1.2,4.076-2.379c2.873-2.355,4.311-5.461,4.311-9.312   c0-3.398-1.178-6.309-3.537-8.734c-2.357-2.423-5.244-3.681-8.656-3.771c-1.574-0.045-2.864-0.589-3.875-1.632   c-1.012-1.041-1.516-2.355-1.516-3.942c0-1.631,0.582-3.035,1.752-4.214c0.763-0.816,1.447-1.302,2.055-1.461   c0.605-0.159,2.01-0.238,4.211-0.238h2.627h1.955h4.199h0.871v0.002h0.809h6.4h3.031h1.684c1.617,0,2.684,0.059,3.201,0.17   c0.516,0.114,1.111,0.442,1.785,0.986c1.078,0.861,1.752,1.722,2.021,2.583s0.404,2.605,0.404,5.233l-0.066,5.506v8.563v6.526   v6.524v4.146h0.807v-4.146v-6.524v-6.526l0.068-14.681c0-2.356-0.135-3.919-0.404-4.69   C456.707,286.238,455.988,285.242,455.045,284.472z"
   id="path963" />
	<path
   fill="#ED585C"
   d="M414.809,277.001h-13.611h-2.695H395c-2.606,0-4.224,0.024-4.852,0.068   c-0.63,0.046-1.393,0.228-2.291,0.544c-1.797,0.59-3.393,1.53-4.783,2.821c-1.393,1.291-2.426,2.799-3.1,4.52   c-0.494,1.315-0.741,3.218-0.741,5.71v1.495v1.224v1.155v0.748l0.81-0.816v-0.611v-1.02v-1.088v-1.291v-1.088   c0-4.35,1.885-7.657,5.658-9.924c1.122-0.679,2.156-1.121,3.1-1.325s2.402-0.306,4.38-0.306h2.627h2.694h2.695h12.756   C414.238,277.54,414.498,277.269,414.809,277.001z"
   id="path965" />
</g>
</svg>