<?xml version="1.0" encoding="UTF-8" standalone="no"?>
<!-- Created with Inkscape (http://www.inkscape.org/) -->

<svg
   xmlns:dc="http://purl.org/dc/elements/1.1/"
   xmlns:cc="http://creativecommons.org/ns#"
   xmlns:rdf="http://www.w3.org/1999/02/22-rdf-syntax-ns#"
   xmlns:svg="http://www.w3.org/2000/svg"
   xmlns="http://www.w3.org/2000/svg"
   xmlns:sodipodi="http://sodipodi.sourceforge.net/DTD/sodipodi-0.dtd"
   xmlns:inkscape="http://www.inkscape.org/namespaces/inkscape"
   width="328.71545"
   height="202.75111"
   id="svg3419"
   version="1.1"
   inkscape:version="0.48.4 r9939"
   sodipodi:docname="New document 4">
  <defs
     id="defs3421" />
  <sodipodi:namedview
     id="base"
     pagecolor="#ffffff"
     bordercolor="#666666"
     borderopacity="1.0"
     inkscape:pageopacity="0.0"
     inkscape:pageshadow="2"
     inkscape:zoom="0.35"
     inkscape:cx="79.35772"
     inkscape:cy="-64.338732"
     inkscape:document-units="px"
     inkscape:current-layer="layer1"
     showgrid="false"
     inkscape:showpageshadow="false"
     fit-margin-top="0"
     fit-margin-left="0"
     fit-margin-right="0"
     fit-margin-bottom="0"
     inkscape:window-width="1920"
     inkscape:window-height="1021"
     inkscape:window-x="0"
     inkscape:window-y="27"
     inkscape:window-maximized="1" />
  <metadata
     id="metadata3424">
    <rdf:RDF>
      <cc:Work
         rdf:about="">
        <dc:format>image/svg+xml</dc:format>
        <dc:type
           rdf:resource="http://purl.org/dc/dcmitype/StillImage" />
        <dc:title></dc:title>
      </cc:Work>
    </rdf:RDF>
  </metadata>
  <g
     inkscape:label="Layer 1"
     inkscape:groupmode="layer"
     id="layer1"
     transform="translate(-295.64228,-265.27234)">
    <g
       id="g4003"
       transform="matrix(1.25,0,0,-1.25,87.952918,1099.7039)">
      <path
         inkscape:connector-curvature="0"
         style="fill:#3bb84c;fill-opacity:1;fill-rule:nonzero;stroke:none"
         id="path158"
         d="m 273.4428,591.8515 c 0.077,-1.2612 -0.3163,-3.2773 -1.3888,-4.0893 -2.3758,-1.7986 -12.1655,-0.5437 -14.9834,0.3908 -1.7144,0.5689 -2.1948,2.2136 -2.9531,3.5884 -0.2235,0.405 -0.3884,0.7312 -0.506,0.9905 -1.5815,0.4143 -2.7313,2.0039 -2.6164,3.6658 0.06,0.8662 0.5282,2.0234 1.3163,2.4829 1.0234,0.5966 0.6035,1.1045 0.7363,2.2038 0.1711,1.417 -0.2509,3.0269 0.18,4.4358 0.5229,1.7102 2.982,2.6885 4.5816,2.916 1.9861,0.283 4.151,0.5305 6.1543,0.5913 0.9328,0.028 7.0754,-0.017 8.7649,-1.2241 1.7173,-1.2273 2.2429,-3.3286 2.1206,-5.3437 -0.093,-1.5313 -0.067,-3.1331 -0.4551,-4.6253 1.5287,-0.8364 1.4917,-2.5625 0.883,-3.9504 -0.5234,-1.1941 -1.2496,-1.1651 -1.8342,-2.0325 z" />
      <path
         inkscape:connector-curvature="0"
         style="fill:#ffffff;fill-opacity:1;fill-rule:nonzero;stroke:none"
         id="path160"
         d="m 254.4117,598.3378 c 2.9966,-0.1084 3.9324,-3.8784 0.5868,-4.5573 -3.3134,-0.6726 -4.0117,4.6811 -0.5868,4.5573 z" />
      <path
         inkscape:connector-curvature="0"
         style="fill:#ffffff;fill-opacity:1;fill-rule:nonzero;stroke:none"
         id="path162"
         d="m 272.8713,597.3315 c 2.6047,0.018 2.182,-4.0725 -0.1299,-4.2256 -3.0504,-0.2019 -2.4311,4.208 0.1299,4.2256 z" />
      <path
         inkscape:connector-curvature="0"
         style="fill:#9fd753;fill-opacity:1;fill-rule:nonzero;stroke:none"
         id="path164"
         d="m 263.1602,585.6162 c -0.4707,-0.014 -1.0746,0 -1.4923,-0.2442 -1.0305,-0.6025 -0.8525,-2.5398 0.046,-3.1997 0.9207,-0.676 5.1297,-0.022 5.6294,0.3411 0.6434,0.4665 0.8674,1.5239 0.3077,2.144 -0.8352,0.9256 -3.3023,0.9942 -4.491,0.9588 z" />
      <path
         inkscape:connector-curvature="0"
         style="fill:#3bb84c;fill-opacity:1;fill-rule:nonzero;stroke:none"
         id="path166"
         d="m 260.1611,580.6755 c -1.7361,0.051 -3.6942,-0.5899 -4.5816,-2.1821 -1.0074,-1.8077 -1.3237,-4.4651 -1.5356,-6.5103 -0.3117,-3.0076 -0.2041,-6.103 -0.3386,-9.1277 -0.086,-1.9402 0.4137,-3.6003 1.8706,-5.177 1.4188,-1.5359 2.9522,-2.0386 4.8579,-2.2678 2.5793,-0.3103 5.8266,-1.0139 8.9968,0.5027 1.2811,0.6128 1.5871,1.092 3.0042,2.0578 2.1372,1.4566 3.0306,4.8069 2.7732,7.2469 -0.3382,3.2033 -1.6233,12.6977 -4.4297,14.4314 -1.9633,1.2129 -9.6881,0.9985 -10.6172,1.0261 z" />
      <path
         inkscape:connector-curvature="0"
         style="fill:#3bb84c;fill-opacity:1;fill-rule:nonzero;stroke:none"
         id="path168"
         d="m 275.4379,558.1713 c -1.018,0.4663 -1.1449,-1.3806 -1.9484,-2.1098 -1.1878,-1.0779 -3.418,-2.4385 -5.0206,-2.7466 -1.7519,-0.3367 -7.0522,-0.041 -8.9235,0.2571 -2.3776,0.3786 -3.8466,1.7097 -5.8401,2.9863 -1.2348,0.7905 -1.4214,-0.5828 -1.4828,-1.6692 -0.1179,-2.0898 0.2435,-3.0034 1.1819,-4.7248 1.3115,-2.406 1.1118,-4.9417 4.3441,-5.8934 2.1994,-0.6477 4.3559,-0.8867 6.6421,-0.76 2.3413,0.1299 4.7921,-0.1652 6.926,1.033 2.5903,1.4543 3.9982,5.4558 4.3436,8.1743 0.1653,1.3005 0.4082,2.5762 0.6436,3.8628 0.1074,0.5877 -0.2239,1.2961 -0.8659,1.5903 z" />
      <path
         inkscape:connector-curvature="0"
         style="fill:#9fd753;fill-opacity:1;fill-rule:nonzero;stroke:none"
         id="path170"
         d="m 273.1447,580.9741 c -0.1795,-0.1717 -0.2663,-0.4348 -0.2917,-0.7461 -0.037,-0.4514 0.2463,-0.6643 0.397,-1.0916 0.6474,-1.8359 1.2406,-2.9812 1.4613,-4.7734 0.2323,-1.886 2.8597,-0.9104 3.8559,-0.4595 4.3364,1.9631 1.037,7.6109 -2.399,7.5454 -0.881,-0.017 -2.7624,-0.2253 -3.0235,-0.4748 z" />
      <path
         inkscape:connector-curvature="0"
         style="fill:#9fd753;fill-opacity:1;fill-rule:nonzero;stroke:none"
         id="path172"
         d="m 252.1938,581.6953 c -1.0107,0.026 -2.0436,-0.2593 -2.8304,-0.9119 -0.872,-0.7031 -1.3444,-1.7888 -1.4963,-2.8789 -0.2594,-1.1665 -0.057,-2.5154 0.7931,-3.4009 0.6531,-0.6047 1.5143,-0.8943 2.3225,-1.2239 0.5474,-0.1845 1.1824,-0.2441 1.7207,-0.01 0.4703,0.248 0.4551,0.824 0.4484,1.2808 0,0.7915 0.083,1.5822 0.2457,2.3557 0.1807,0.6699 0.44,1.3164 0.7848,1.9182 0.2768,0.5276 0.5625,1.0525 0.8611,1.5666 -0.2441,0.3077 -0.985,0.9585 -1.792,1.1802 -0.4003,0.1099 -0.7037,0.114 -1.0576,0.1209 z" />
      <path
         inkscape:connector-curvature="0"
         style="fill:#3bb84c;fill-opacity:1;fill-rule:nonzero;stroke:none"
         id="path174"
         d="m 246.039,581.0776 c -0.738,0.4529 -0.8461,1.4614 -1.3905,2.1509 -0.9473,1.8198 -1.7381,3.7092 -2.4919,5.6145 -0.7448,1.7639 -2.8941,7.5407 -3.0718,8.7097 -0.2791,1.1074 -0.1143,2.5244 0.9602,3.155 0.905,0.6834 2.4698,0.7166 3.1089,-0.3381 0.3364,-0.8128 0.1715,-1.7207 0.2948,-2.575 0.1603,-1.4109 0.4173,-2.8239 0.8459,-4.1794 0.76,-2.0542 1.3225,-4.1795 2.1601,-6.2073 0.4635,-1.3533 0.896,-2.718 1.5598,-3.9902 0.567,-0.7864 0.5621,-1.8242 -0.1913,-2.3535 -0.5693,-0.4002 -1.0566,-0.3487 -1.7842,0.013 z" />
      <path
         inkscape:connector-curvature="0"
         style="fill:#9fd753;fill-opacity:1;fill-rule:nonzero;stroke:none"
         id="path176"
         d="m 242.7365,602.4724 c -1.2104,-0.024 -2.4345,-0.1272 -3.6343,0.077 -0.6019,0.09 -1.1689,0.437 -1.4608,0.9821 -0.4861,0.7864 -0.5208,1.7405 -0.5935,2.6365 -0.01,0.7234 -0.1495,1.4395 -0.1625,2.1621 0.037,0.7871 0.2638,1.6658 0.9405,2.1426 0.4348,0.27 0.958,0.3865 1.4653,0.4243 0.6018,-0.031 1.0237,-0.5232 1.4699,-0.8703 0.3498,-0.3055 0.7891,-0.5035 1.0726,-0.8853 0.5845,-0.644 1.0812,-1.4636 1.0413,-2.3625 -0.01,-0.729 -0.087,-2.9622 -0.041,-3.25 0.01,-0.055 -0.073,-1.0037 -0.098,-1.0564 z" />
      <path
         inkscape:connector-curvature="0"
         style="fill:#9fd753;fill-opacity:1;fill-rule:nonzero;stroke:none"
         id="path178"
         d="m 243.7838,605.2766 c -0.3351,0.3532 -0.3948,0.7973 -0.4449,1.1665 -0.1231,0.7356 0.03,1.4895 0.3252,2.166 0.2238,0.5957 0.5248,1.1582 0.7554,1.7495 0.2003,0.3931 0.4286,0.8037 0.7976,1.0608 0.4286,0.2615 1.0902,0.2026 1.3579,-0.261 0.2774,-0.5103 0.2992,-1.1099 0.3628,-1.6746 0.044,-0.8505 0,-1.738 -0.378,-2.5183 -0.3689,-0.7492 -0.9114,-1.688 -1.588,-2.1953 -0.2021,-0.046 -0.8415,0.1409 -1.188,0.5064 z" />
      <path
         inkscape:connector-curvature="0"
         style="fill:#9fd753;fill-opacity:1;fill-rule:nonzero;stroke:none"
         id="path180"
         d="m 242.6357,610.998 c -0.099,-0.2385 -0.5305,-0.4177 -1.022,-0.5254 -0.6167,-0.1348 -2.4615,1.4356 -3.6584,1.7444 -0.4827,0.1245 -0.8893,0.5947 -0.7577,1.1099 0.4785,1.8725 1.782,2.7731 3.5594,3.2297 1.2543,0.3223 5.1086,0.397 5.4203,-1.252 0.09,-0.4743 0.027,-1.0976 -0.3999,-1.4023 -0.4545,-0.3242 -1.0597,0.01 -1.5227,-0.3887 -0.7799,-0.664 -1.2336,-1.5862 -1.619,-2.5156 z" />
      <path
         inkscape:connector-curvature="0"
         style="fill:#9fd753;fill-opacity:1;fill-rule:nonzero;stroke:none"
         id="path182"
         d="m 258.1625,543.0009 c -0.6975,0.074 -1.1707,-0.7292 -1.3083,-1.4477 -0.3832,-1.9998 -0.086,-4.1338 -0.4075,-6.1724 -0.2553,-1.6194 -1.0957,-7.2778 0.09,-8.4121 0.7734,-0.7397 1.7995,-1.4417 2.8246,-0.7246 0.8168,0.5713 0.9886,1.9629 1.0743,2.8725 0.3439,3.6509 0.8114,7.2259 0.8968,10.8992 0.017,0.7359 -0.02,1.6331 -0.7074,2.0767 -0.2953,0.1907 -2.1226,0.8723 -2.4622,0.9084 z" />
      <path
         inkscape:connector-curvature="0"
         style="fill:#9fd753;fill-opacity:1;fill-rule:nonzero;stroke:none"
         id="path184"
         d="m 271.0815,541.9523 c -0.3543,0.9771 -2.5514,0.6131 -3.4386,0.062 -1.423,-0.883 -1.0083,-5.1677 -0.7014,-6.6184 0.5697,-2.6936 0.3949,-5.4465 1.3139,-8.0791 0.2084,-0.5971 0.672,-1.1577 1.3714,-0.936 2.6376,0.8352 2.4603,1.239 2.5207,3.5286 0.049,1.8715 -0.2599,5.0537 -0.4619,6.9148 -0.1413,1.3017 -0.4962,4.8298 -0.6041,5.1276 z" />
      <path
         inkscape:connector-curvature="0"
         style="fill:#3bb84c;fill-opacity:1;fill-rule:nonzero;stroke:none"
         id="path186"
         d="m 279.8201,572.7255 c -0.7249,0.025 -1.3814,-0.8422 -1.8261,-1.2544 -0.495,-0.4589 0.1278,-0.9096 0.4264,-1.3735 0.7835,-1.2173 1.6618,-2.3743 2.4367,-3.6079 0.447,-0.7114 1.0834,-1.4802 1.9975,-1.5007 1.4218,-0.032 5.8602,2.7929 7.4813,3.6169 0.4552,0.2315 1.4803,0.7634 1.7516,1.1755 0.6437,0.9778 -1.0674,2.6197 -2.1471,2.2432 -1.392,-0.4851 -4.6749,-2.7314 -6.0204,-2.885 -1.9242,-0.2195 -2.8478,3.542 -4.0999,3.5859 z" />
      <path
         inkscape:connector-curvature="0"
         style="fill:#9fd753;fill-opacity:1;fill-rule:nonzero;stroke:none"
         id="path188"
         d="m 293.0561,575.7226 c 0.2585,0.3494 0.5332,-0.045 0.8726,-0.087 0.8176,-0.1008 1.9206,-0.2927 2.0785,-0.3772 0.4405,-0.2356 0.522,-0.2302 0.6899,-0.6082 0.4271,-0.9609 2.2071,-5.0024 1.1998,-5.7656 -0.3596,-0.2724 -0.8082,-0.098 -1.2132,0.04 -0.4952,0.1689 -0.8293,0.7539 -1.2733,0.9314 -1.4214,0.5678 -2.1102,2.1389 -2.3901,4.1105 -0.1291,0.9104 -0.3338,1.2564 0.036,1.7559 z" />
      <path
         inkscape:connector-curvature="0"
         style="fill:#9fd753;fill-opacity:1;fill-rule:nonzero;stroke:none"
         id="path190"
         d="m 300.894,577.1137 c -0.7577,-0.019 -1.6222,-0.052 -2.2742,-0.4787 -0.8347,-0.5467 -1.6316,-8.2447 2.6303,-6.6184 0.5589,0.2133 1.2396,0.4948 1.6981,0.883 1.3596,1.1519 1.3096,4.634 -0.015,5.8074 -0.5816,0.5149 -1.3063,0.4248 -2.0391,0.4067 z" />
      <path
         inkscape:connector-curvature="0"
         style="fill:#9fd753;fill-opacity:1;fill-rule:nonzero;stroke:none"
         id="path192"
         d="m 293.8294,577.705 c 0.5517,1.4239 1.6286,4.0259 3.4038,4.0584 0.6243,0.011 0.6673,-0.4368 1.0901,-0.4378 0.9393,0 2.7569,-1.4309 2.6516,-2.4428 -0.032,-0.3072 -0.3917,-0.6822 -0.5866,-0.9187 -0.6994,-0.8482 -2.3717,0.4746 -2.9109,-0.095 -0.6309,-0.6655 -1.802,-2.085 -2.8481,-1.3736 -0.2677,0.1822 -0.9427,0.8404 -0.7999,1.209 z" />
      <path
         inkscape:connector-curvature="0"
         style="fill:#3bb84c;fill-opacity:1;fill-rule:nonzero;stroke:none"
         id="path194"
         d="m 253.4089,530.8813 c -1.1605,-0.273 -0.7229,-1.8394 -0.9011,-2.7158 -0.1868,-1.822 -0.5491,-3.6236 -0.6678,-5.4563 -0.2244,-1.9309 -0.8021,-3.7991 -1.211,-5.6975 -0.4961,-1.9991 -1.0941,-3.9702 -1.6763,-5.9434 -0.2987,-1.4502 -0.7143,-3.1748 0.2109,-4.4827 0.8544,-1.2082 2.4739,-1.1272 3.7924,-1.1574 2.9486,-0.016 5.8995,-0.1802 8.8442,0 0.8522,0.09 2.1927,0.2812 2.2477,1.4167 -0.3734,3.0105 -0.5299,6.0469 -0.6682,9.0772 -0.026,3.177 -0.657,6.3479 -0.2942,9.5254 0.066,1.2876 0.2813,2.5639 0.2374,3.8581 0.2397,0.7954 -1.055,0.3557 -1.321,0.2417 0.039,-1.0351 -0.1362,-2.0588 -0.2987,-3.072 -0.7189,-0.8633 -1.7242,-1.738 -2.8583,-1.7268 -1.0366,0.059 -2.4326,0.023 -3.5016,0.9497 -1.4189,1.2302 -0.3657,3.0056 -1.1526,4.675 -0.1665,0.273 -0.45,0.4991 -0.7818,0.5081 z" />
      <path
         inkscape:connector-curvature="0"
         style="fill:#3bb84c;fill-opacity:1;fill-rule:nonzero;stroke:none"
         id="path196"
         d="m 274.375,530.5078 c -1.3293,-0.026 -0.115,-2.3726 -0.7806,-3.1392 -1.0129,-1.4023 -2.8913,-1.8547 -4.5462,-2.501 -0.9936,-0.3879 -1.9866,1.1221 -2.3578,2.1284 -0.1497,0.6023 -0.035,1.2852 -0.2862,1.6556 -0.707,1.0412 -2.0024,1.3571 -1.6553,-0.023 0.051,-1.5906 0.6502,-3.0892 0.7249,-4.6761 0.4309,-3.6403 0.4922,-7.3125 0.5036,-10.977 0,-2.1231 -0.5625,-4.2981 0.028,-6.3855 0.4946,-1.1055 1.903,-1.2522 2.8852,-1.1621 1.7932,0.1343 9.1585,-0.2239 11.0328,0 1.5357,-0.013 2.1156,1.6655 1.4479,2.9001 -0.6441,2.5139 -1.8635,4.8364 -2.5049,7.3518 -0.7144,2.3008 -1.6722,4.5357 -2.0964,6.9195 -0.3758,1.9294 -0.648,3.8784 -1.1643,5.7768 -0.1935,0.76 -0.189,2.0718 -1.2307,2.1314 z" />
      <path
         inkscape:connector-curvature="0"
         style="fill:#3bb84c;fill-opacity:1;fill-rule:nonzero;stroke:none"
         id="path198"
         d="m 286.0334,619.227 c 0.5647,-2.3308 1.9777,-7.6929 2.5885,-10.0132 1.1272,-4.9905 2.6415,-9.8882 3.7181,-14.8887 0.648,-3.6345 1.6634,-7.1916 2.3113,-10.8259 0.2858,-1.6897 2.1819,-0.8393 3.3198,-1.011 1.844,0.2527 0.242,2.5774 0.1958,3.7395 -1.274,5.1617 -2.9902,10.209 -3.9926,15.4363 -1.1711,5.5525 -2.9728,13.3089 -4.81,18.6812 -0.3228,0.6391 -3.6909,0.2246 -3.3309,-1.1182 z" />
      <path
         inkscape:connector-curvature="0"
         style="fill:#3bb84c;fill-opacity:1;fill-rule:nonzero;stroke:none"
         id="path200"
         d="m 301.7596,569.1223 c -0.9789,-0.2771 -2.8763,-0.6895 -3.0408,-1.8433 -0.3091,-2.1685 2.4796,-13.6909 3.5504,-15.7371 0.4214,-0.8051 1.1189,-1.0651 1.984,-1.0329 0.7801,0.029 1.6457,0.1194 1.8045,1.0503 0.3037,1.78 -1.6874,7.812 -2.2263,9.8791 -0.2489,0.9546 -1.6853,7.5015 -2.0718,7.6839 z" />
      <path
         inkscape:connector-curvature="0"
         style="fill:#3bb84c;fill-opacity:1;fill-rule:nonzero;stroke:none"
         id="path202"
         d="m 295.6519,667.5432 c -2.4232,-0.3357 -11.1296,-2.2044 -18.1583,-3.9839 -8.7196,-2.2078 -17.8202,-3.771 -22.116,-6.5442 -2.3446,-2.0921 -1.3495,-5.6643 -1.0479,-8.4155 1.4168,-7.2884 3.5549,-14.4119 5.7149,-21.4983 0.9535,-2.9485 2.2259,-6.1565 4.9303,-7.8199 3.9972,-1.4477 8.1873,0.2859 12.1557,0.9534 4.6626,1.0547 8.5879,1.7046 13.99,3.1536 3.1223,0.8374 4.9184,1.2202 7.9537,2.3332 3.2277,1.1834 5.9349,1.3994 8.042,3.6077 2.4064,2.7822 1.422,6.7546 0.5541,9.9844 -1.3539,3.865 -2.3603,7.8313 -3.1557,11.8525 -1.1531,3.9155 -2.3321,8.009 -3.5212,11.9065 -0.7689,2.1887 -3.078,4.552 -5.3416,4.4705 z" />
      <g
         id="g3845">
        <path
           inkscape:connector-curvature="0"
           style="fill:#ffffff;fill-opacity:1;fill-rule:nonzero;stroke:none"
           id="path204"
           d="m 270.7196,643.017 c -1.4242,5.625 -2.3558,6.1263 -3.4892,5.836 l -0.5979,-0.1497 3.9026,-15.4507 0.6328,0.158 c 0.9663,0.2458 1.5643,1.6348 -0.4483,9.6064 z m -7.5324,8.2176 3.0234,0.7649 c 4.1748,1.0546 6.6183,-0.2637 8.6574,-8.3323 2.1094,-8.3845 1.2921,-12.542 -2.9531,-13.614 l -4.0432,-1.0193 -5.3967,21.3569 c -0.096,0.4046 0.026,0.6768 0.7122,0.8438 z" />
        <path
           inkscape:connector-curvature="0"
           style="fill:#ffffff;fill-opacity:1;fill-rule:nonzero;stroke:none"
           id="path206"
           d="m 283.0614,632.8745 c 0.6328,0.1582 0.4044,0.7734 0.4044,0.7734 l -2.4435,9.6677 3.208,0.8089 c 0.5889,0.1491 0.4482,0.7116 -0.2194,3.3571 l -3.7968,-0.958 -1.389,5.4934 4.0253,1.0193 c 0.6239,0.1585 0.589,0.3167 -0.1316,3.1382 l -7.5414,-1.9075 c -0.5883,-0.1496 -0.4567,-0.7824 -0.4567,-0.7824 l 5.3966,-21.357 2.9441,0.7469 z" />
        <path
           inkscape:connector-curvature="0"
           style="fill:#ffffff;fill-opacity:1;fill-rule:nonzero;stroke:none"
           id="path208"
           d="m 292.8787,648.6132 c -1.4237,5.625 -2.3552,6.1263 -3.4892,5.836 l -0.5973,-0.149 3.902,-15.4514 0.6328,0.1582 c 0.9669,0.2464 1.5643,1.6346 -0.4483,9.6062 z m -7.5318,8.2183 3.0234,0.7644 c 4.1748,1.0547 6.6178,-0.2639 8.6569,-8.3323 2.1093,-8.3847 1.292,-12.5415 -2.9532,-13.6142 l -4.0427,-1.0193 -5.3966,21.3576 c -0.097,0.4039 0.026,0.6768 0.7122,0.8438 z" />
      </g>
    </g>
    <g
       id="g3986"
       transform="matrix(1.25,0,0,-1.25,87.952918,1099.7039)">
      <path
         inkscape:connector-curvature="0"
         style="fill:#3bb84c;fill-opacity:1;fill-rule:nonzero;stroke:none"
         id="path210"
         d="m 216.3148,555.1137 c -3.4081,-0.5041 -6.8527,-0.4822 -10.2898,-0.5578 -3.6428,-0.08 -7.2932,-0.2713 -10.9317,0.024 -1.2176,0.099 -4.3537,0.4593 -4.6361,0.6878 -3.0445,-8.3372 -1.7538,-17.625 -3.294,-26.2508 -0.172,-0.9631 0.9829,-2.1843 1.6965,-2.7729 2.9925,-2.4683 17.592,-0.8679 21.821,-0.6746 2.4369,0.1116 6.5805,0.386 8.5428,1.9226 2.275,1.7818 2.1112,5.4576 2.0835,8.0247 -0.04,3.6877 -0.8777,7.0779 -1.6114,10.6655 -0.2103,1.0286 -0.3228,2.0855 -0.5379,3.1067 -0.3778,1.7935 -2.8429,5.8247 -2.8429,5.8247 z" />
      <path
         inkscape:connector-curvature="0"
         style="fill:#3bb84c;fill-opacity:1;fill-rule:nonzero;stroke:none"
         id="path212"
         d="m 191.8477,557.4489 c 2.3285,-0.2224 4.5932,-1.1775 6.9368,-1.2104 2.5936,-0.036 5.2679,0.4197 7.871,0.5383 3.0462,0.1389 6.0542,-0.1746 9.0968,-0.2239 -0.2162,1.9202 -0.6051,3.8289 -0.8882,5.7415 -0.3838,2.5925 -1.178,6.1811 -3.7637,7.4372 -3.423,1.6631 -7.2709,1.3912 -10.962,1.3912 -1.7859,0 -3.1383,-0.3946 -4.4561,-1.6368 -2.1977,-2.0715 -2.487,-4.8965 -2.8934,-7.7285 -0.094,-0.6531 -0.2831,-1.3625 -0.328,-2.0124 -0.068,-0.9793 -0.091,-1.4219 -0.6132,-2.2962 z" />
      <path
         inkscape:connector-curvature="0"
         style="fill:#ffffff;fill-opacity:1;fill-rule:nonzero;stroke:none"
         id="path214"
         d="m 200.0372,562.9733 c -2.7335,2.719 -7.0772,-1.6743 -3.9595,-3.7771 2.3978,-1.6174 6.8253,0.9263 3.9595,3.7771 z" />
      <path
         inkscape:connector-curvature="0"
         style="fill:#ffffff;fill-opacity:1;fill-rule:nonzero;stroke:none"
         id="path216"
         d="m 212.4409,562.7844 c -2.118,1.4148 -5.974,0.093 -4.9816,-2.3777 0.7943,-1.9776 4.8583,-2.6084 5.6453,-0.2376 0.2219,0.6687 0.09,1.4256 -0.3257,1.9847 -0.1447,0.1945 -0.2379,0.4111 -0.338,0.6306 z" />
      <path
         inkscape:connector-curvature="0"
         style="fill:#9fd753;fill-opacity:1;fill-rule:nonzero;stroke:none"
         id="path218"
         d="m 187.0615,555.913 c 0.7893,-0.2378 1.8347,-0.7402 1.5344,-1.4541 -0.8789,-2.0893 -1.3339,-5.8725 -1.4699,-8.1516 -0.03,-0.5115 0.043,-1.0869 -0.06,-1.5864 -0.293,-1.4221 -3.549,-0.6555 -4.5614,-0.4414 -0.6557,0.1387 -0.9671,0.7346 -0.9208,1.3662 0.134,1.8262 1.5306,7.938 2.7489,9.1694 0.9469,0.9571 1.63,1.4287 2.7283,1.0979 z" />
      <path
         inkscape:connector-curvature="0"
         style="fill:#9fd753;fill-opacity:1;fill-rule:nonzero;stroke:none"
         id="path220"
         d="m 220.0476,556.5903 c 1.1377,-5e-4 2.3796,-0.2571 3.3463,-0.8877 1.6214,-1.0579 3.4413,-8.8357 2.4456,-10.4827 -0.4927,-0.8152 -1.4661,-1.6662 -2.4125,-1.8591 -0.7317,-0.1489 -1.2183,0.1228 -1.5778,0.7449 -0.8198,1.4184 -0.8307,2.9765 -1.3202,4.5285 -0.4614,1.4634 -0.8289,2.8931 -1.4371,4.3089 -0.3533,0.8222 -0.664,1.8498 -0.4107,2.74 0.1876,0.6591 0.7237,0.9077 1.3664,0.9072 z" />
      <path
         inkscape:connector-curvature="0"
         style="fill:#9fd753;fill-opacity:1;fill-rule:nonzero;stroke:none"
         id="path222"
         d="m 218.486,524.84 c 1.5363,0.3072 2.4998,-0.5996 2.2101,-2.0588 -0.1891,-1.3821 -1.6156,-3.2104 -2.8569,-3.5002 -2.7333,-0.3431 -5.4906,-0.4134 -8.2266,-0.7229 -2.452,-0.1851 -4.8955,-0.5164 -7.3603,-0.4883 -3.5511,-0.044 -7.0645,0.2002 -10.6194,0.2968 -1.2899,0.1104 -2.7249,0.016 -3.8521,0.7432 -0.6395,0.9314 -1.0766,2.1995 -0.9472,3.3462 0.4702,1.3005 2.1296,0.9778 3.2281,1.0857 2.5313,0.01 5.0468,-0.4551 7.5825,-0.2615 4.2188,0.072 7.909,0.1031 12.9373,0.5752 3.093,0.2905 7.1924,0.9468 7.9045,0.9846 z" />
      <path
         inkscape:connector-curvature="0"
         style="fill:#3bb84c;fill-opacity:1;fill-rule:nonzero;stroke:none"
         id="path224"
         d="m 193.4259,505.5104 c 2.4796,-0.289 5.2288,-0.1416 7.8035,0 0.9106,0.05 1.2538,0.7811 1.1446,1.6504 -0.089,0.7066 -0.066,1.5081 -0.093,2.4727 -0.052,1.8037 0.2286,2.8445 -0.057,4.6262 -0.099,0.6184 0.062,1.086 -0.3338,1.5711 -0.4837,0.5922 -1.4807,0.5559 -1.877,0.5669 -0.9956,0.028 -2.1366,0.051 -3.2714,0.052 -2.2055,0 -3.3332,-0.075 -4.3796,-0.355 -2.2458,-0.6003 -1.4109,-5.6731 -1.5223,-7.2995 -0.023,-0.3294 0.045,-2.1807 1.0194,-2.8433 0.5248,-0.3572 1.2168,-0.4009 1.5668,-0.4417 z" />
      <path
         inkscape:connector-curvature="0"
         style="fill:#3bb84c;fill-opacity:1;fill-rule:nonzero;stroke:none"
         id="path226"
         d="m 207.2607,506.559 c -0.3516,1.6302 -0.5774,2.4634 -0.5519,4.062 0.036,2.2579 -0.4254,4.5357 1.3209,5.637 0.7305,0.4607 1.5592,0.4478 2.4198,0.4927 1.8776,0.098 5.7193,0.7993 6.5575,-1.1878 1.0994,-2.6067 1.5242,-5.7038 1.5912,-8.488 0.018,-0.7251 -0.2648,-1.3472 -1.1183,-1.5645 -0.3352,-0.085 -8.2669,-0.094 -9.1462,0 -0.4671,0.05 -0.9767,0.6019 -1.073,1.0486 z" />
      <path
         inkscape:connector-curvature="0"
         style="fill:#3bb84c;fill-opacity:1;fill-rule:nonzero;stroke:none"
         id="path228"
         d="m 219.8062,582.5778 c 1.5424,0.2654 2.762,-0.9167 3.0061,-2.1167 1.193,-4.4538 6.0575,-19.6806 6.8687,-22.9831 0.4236,-1.8833 0.4476,-4.4776 -0.5299,-6.2949 -0.4372,-1.0284 -2.2614,-1.7798 -2.4987,-0.2195 -0.5029,3.0781 -0.8437,6.196 -1.6875,9.2109 -1.2037,4.3943 -1.9772,8.9119 -3.5747,13.1924 -0.8724,2.498 -1.8743,4.9568 -2.7027,7.4683 -0.2133,0.778 0.2508,1.7004 1.1187,1.7426 z" />
      <path
         inkscape:connector-curvature="0"
         style="fill:#9fd753;fill-opacity:1;fill-rule:nonzero;stroke:none"
         id="path230"
         d="m 220.6232,590.8222 c 1.5555,-0.083 3.331,-0.2937 4.6648,-1.116 2.8111,-1.7329 3.385,-8.6386 -0.635,-9.2104 -3.1352,-0.4458 -0.1615,3.8179 -1.4502,5.447 -0.9126,1.1536 -3.5549,1.0523 -4.258,2.709 -0.4818,1.1353 0.3937,2.2393 1.6784,2.1704 z" />
      <path
         inkscape:connector-curvature="0"
         style="fill:#9fd753;fill-opacity:1;fill-rule:nonzero;stroke:none"
         id="path232"
         d="m 218.2861,578.7458 c -0.7073,-0.6541 -1.5053,-0.4058 -2.4568,-0.2554 -1.0949,0.1729 -2.2749,0.9146 -2.5502,1.2549 -0.8081,0.9988 -1.671,2.1213 -1.4931,4.2363 0.227,2.7019 2.2785,5.3167 4.2053,5.2957 0.812,-0.01 1.4545,-0.4883 1.7578,-1.2241 0.287,-0.6961 0.1103,-1.1497 -0.2289,-1.575 -0.546,-0.6843 -1.513,-1.2959 -1.6481,-2.7263 -0.042,-0.4504 0.012,-1.0019 0.1604,-1.6189 0.3717,-1.5425 3.4185,-2.3101 2.2536,-3.3872 z" />
      <path
         inkscape:connector-curvature="0"
         style="fill:#3bb84c;fill-opacity:1;fill-rule:nonzero;stroke:none"
         id="path234"
         d="m 178.2895,551.4736 c 0.6715,2.4411 3.7178,2.9187 3.3955,0.8442 -0.1836,-1.1816 -3.9007,-17.7961 -4.4246,-20.8528 -0.424,-2.4743 -0.3562,-5.4475 -1.7797,-7.6162 -0.5716,-0.8706 -1.6708,-1.3886 -2.5752,-0.6523 -1.1311,0.9209 -0.6884,2.5793 -0.3516,3.7771 0.6411,2.2798 1.0005,4.6081 1.6128,6.8928 0.7028,2.6223 0.9348,4.8691 1.6422,7.958 0.8674,3.7874 2.3591,9.2075 2.4806,9.6492 z" />
      <path
         inkscape:connector-curvature="0"
         style="fill:#9fd753;fill-opacity:1;fill-rule:nonzero;stroke:none"
         id="path236"
         d="m 180.5454,522.6738 c 0.2909,-2.2857 -1.2248,-8.8426 -4.7705,-6.9873 -0.8082,0.4228 -0.9192,1.601 -0.5535,2.3423 0.4101,0.8313 1.1321,1.4821 1.6413,2.2544 1.0033,1.5214 0.951,2.7163 0.6502,4.4404 -0.1161,0.666 0.3624,1.3657 1.0615,1.4502 1.083,0.1306 1.8353,-2.4336 1.971,-3.5 z" />
      <path
         inkscape:connector-curvature="0"
         style="fill:#9fd753;fill-opacity:1;fill-rule:nonzero;stroke:none"
         id="path238"
         d="m 171.1756,526.7963 c -0.3292,0.4995 -0.8723,0.8492 -1.4388,0.6155 -1.0555,-0.4348 -2.9784,-2.8406 -3.2907,-3.8613 -0.3248,-1.0618 -0.3915,-2.3108 -0.1477,-3.488 0.2235,-1.0796 0.4078,-2.2164 1.4885,-2.857 0.4889,-0.2898 1.0271,-0.3845 1.3947,-0.4228 0.6311,-0.066 1.1598,0.3252 1.3789,0.8361 0.6544,1.5254 -1.1447,2.8802 -1.2024,4.3807 -0.069,1.7815 2.5237,3.7253 1.8175,4.7968 z" />
    </g>
    <g
       id="g3951"
       transform="matrix(1.25,0,0,-1.25,87.952918,1099.7039)">
      <path
         inkscape:connector-curvature="0"
         style="fill:#3bb84c;fill-opacity:1;fill-rule:nonzero;stroke:none"
         id="path240"
         d="m 370.7099,615.601 c -2.9143,11.6868 7.6917,24.3938 23.6895,28.3823 15.9978,3.9888 31.3286,-2.2517 34.2426,-13.9384 2.9143,-11.687 -7.6916,-24.3941 -23.6894,-28.3826 -5.9881,-1.4929 -11.8826,-1.5527 -17.0676,-0.4302 -4.5108,-4.5656 -14.889,-6.0757 -14.889,-6.0757 0,0 5.4932,4.607 7.605,8.6753 -5.0031,2.6289 -8.6228,6.6834 -9.8911,11.7693 z" />
      <g
         id="g3855">
        <g
           id="g3850">
          <path
             inkscape:connector-curvature="0"
             style="fill:#ffffff;fill-opacity:1;fill-rule:nonzero;stroke:none"
             id="path242"
             d="m 396.9218,617.6596 c -2.7793,3.6782 -6.9233,4.9219 -11.5222,4.1485 l 7.9299,8.978 c 4.6165,0.7229 9.8174,-0.4068 11.2366,-5.3679 l -7.4817,-7.9807 c 0,0 -0.1052,0.145 -0.1626,0.2221 z" />
          <path
             inkscape:connector-curvature="0"
             style="fill:#ffffff;fill-opacity:1;fill-rule:nonzero;stroke:none"
             id="path244"
             d="m 405.8696,626.6398 -0.4265,-0.468 c -0.7605,2.2412 -2.1712,3.7525 -3.9837,4.6802 l 6.5476,5.0845 c -1.7534,-2.9578 -2.1443,-7.2271 -2.1374,-9.2967 z" />
          <path
             inkscape:connector-curvature="0"
             style="fill:#ffffff;fill-opacity:1;fill-rule:nonzero;stroke:none"
             id="path246"
             d="m 409.8352,630.8369 c 0,0 -1.4676,-0.2134 -2.2767,-2.5889 -0.6919,-2.03 -1.2981,-2.7859 -1.8627,-3.4121 l -8.0687,-8.398 c 0,0 -1.3842,-1.2832 -3.0537,-1.7578 -2.2944,-0.6526 -6.8339,-1.3867 -8.2446,-1.5559 -1.4109,-0.1694 -0.4482,-0.9822 1.0569,-1.8789 1.5054,-0.896 1.7292,-1.3398 4.7351,0.2859 3.0061,1.624 5.8865,0.1321 12.0476,1.9028 6.1633,1.7691 7.4138,6.7017 7.3018,10.323 -0.1123,3.6231 0.3449,4.4095 0.7072,4.7173 0.3628,0.3076 1.7183,0.7273 1.7183,0.7273 l -1.5906,0.5164 c 0,0 -0.1914,0.2878 -0.8591,0.8044 -0.6704,0.5139 -1.6108,0.3145 -1.6108,0.3145 z" />
        </g>
      </g>
      <path
         inkscape:connector-curvature="0"
         style="fill:#3bb84c;fill-opacity:1;fill-rule:nonzero;stroke:none"
         id="path248"
         d="m 340.6093,577.7153 c 0,0 0.06,0.3037 0.046,0.4985 -0.029,0.395 -0.1327,0.7864 -0.4102,0.9292 -0.1623,0.4341 -0.068,0.77 -0.1136,1.2158 2.0349,0.7864 2.3594,2.8042 1.4078,4.6455 -0.348,0.6734 -1.0798,1.3567 -1.6321,1.8758 -0.6012,0.5649 -2.3032,0.1731 -2.9437,-0.148 -1.7403,1.1641 -5.8187,1.4959 -7.9991,1.3899 -7.1866,-0.3489 -12.7803,-2.4902 -14.8782,-9.9829 -0.2957,-1.0561 -0.6233,-2.1636 -0.7362,-3.2637 -0.5167,-5.0334 1.873,-8.2204 7.1734,-7.5835 2.3725,0.2852 4.6927,1.3301 6.9491,2.0801 2.2985,0.7642 8.4374,3.3123 10.2389,4.8491 1.366,1.1656 2.6259,1.7151 2.8982,3.4942 z" />
      <path
         inkscape:connector-curvature="0"
         style="fill:#ffffff;fill-opacity:1;fill-rule:nonzero;stroke:none"
         id="path250"
         d="m 338.6711,585.894 c 1.5373,0.041 2.7903,-2.2581 2.2279,-3.6213 -0.3969,-0.9624 -1.938,-1.273 -2.8038,-0.8638 -1.861,0.8796 -2.2552,4.4106 0.5759,4.4851 z" />
      <path
         inkscape:connector-curvature="0"
         style="fill:#ffffff;fill-opacity:1;fill-rule:nonzero;stroke:none"
         id="path252"
         d="m 325.9625,580.9348 c 2.9776,0.079 5.0732,-4.1524 2.0796,-5.3816 -0.6523,-0.2676 -1.4035,-0.3577 -2.092,-0.2036 -2.0402,0.4565 -3.13,3.8029 -1.1917,5.0554 0.3305,0.2136 0.7983,0.519 1.2041,0.5298 z" />
      <path
         inkscape:connector-curvature="0"
         style="fill:#3bb84c;fill-opacity:1;fill-rule:nonzero;stroke:none"
         id="path254"
         d="m 361.9296,599.6464 c -0.7341,-0.4455 -2.2246,-3.8401 -3.05,-4.8581 -0.8445,-1.042 -1.6216,-1.6301 -2.7664,-2.3137 -0.3635,-0.2171 -0.6292,-0.428 -0.8194,-1.0962 -0.5174,-1.8174 1.3255,-5.8638 3.4918,-6.1736 0.4656,-0.067 1.0247,0.1711 1.5381,0.2539 1.1955,0.1924 2.4197,0.069 3.6252,0.011 1.2752,-0.061 2.606,-0.015 3.8672,-0.1936 0.7561,-0.1069 1.332,0.2835 1.1604,1.1099 -2.4299,1.2529 -4.9026,3.1982 -5.9922,5.8005 -0.6885,1.6441 -0.6506,3.4968 -0.5339,5.2341 0.055,0.8196 0.5774,1.5887 -0.3054,2.0896 l -0.2154,0.136 z" />
      <path
         inkscape:connector-curvature="0"
         style="fill:#9fd753;fill-opacity:1;fill-rule:nonzero;stroke:none"
         id="path256"
         d="m 353.4724,591.3625 c -2.3405,-0.7073 -3.7553,-3.2056 -2.7839,-5.3081 0.4635,-1.5378 1.8085,-2.5554 3.2322,-3.1226 1.503,-0.499 2.9313,1.2989 2.2589,2.6853 -1.0085,1.2764 -1.3006,2.4407 -1.8304,3.9173 -0.2085,0.5808 0.053,2.1093 -0.8768,1.8281 z" />
      <path
         inkscape:connector-curvature="0"
         style="fill:#3bb84c;fill-opacity:1;fill-rule:nonzero;stroke:none"
         id="path258"
         d="m 350.6708,583.5974 c 0.16,0.6433 -0.4677,1.0466 -0.7154,1.5417 -0.2477,0.4949 -0.5209,2.2568 -0.5665,2.3108 -0.5454,0.644 -1.194,0.03 -1.4208,-0.5366 -1.0003,-2.5012 1.1471,-5.2722 2.3769,-3.9148 0.1565,0.1726 0.2616,0.3408 0.3258,0.5989 z" />
      <path
         inkscape:connector-curvature="0"
         style="fill:#9fd753;fill-opacity:1;fill-rule:nonzero;stroke:none"
         id="path260"
         d="m 368.3703,603.5688 c -0.5886,-0.03 -1.8513,-0.6001 -2.2576,-1.023 -0.6523,-0.6787 -1.8452,-1.6689 -2.1086,-2.5893 -0.5564,-1.9436 -1.1243,-4.3274 -0.4702,-6.3018 0.7441,-2.2468 1.792,-3.7094 3.4802,-5.3217 0.948,-0.9056 2.6401,-1.2488 3.8806,-1.6043 0.6629,-0.1897 1.4995,-0.2588 2.1858,-0.2373 0.6802,0.021 1.7271,0.6631 1.0288,1.3911 -0.468,0.4881 -1.6198,-0.1238 -2.3708,0.029 -1.7573,0.3564 -4.3828,4.2756 -4.9771,5.8777 -0.5461,1.4729 -0.7563,4.6277 -0.3447,6.1457 0.1892,0.698 0.677,1.2085 1.1733,1.6936 0.3667,0.3587 0.6707,0.8225 1.252,0.8091 0.1399,0 0.2168,-0.082 0.3542,-0.057 0.4041,0.075 -0.029,0.7407 -0.3542,0.9922 -0.157,0.1215 -0.2935,0.2092 -0.4702,0.196 l 0,0 z" />
      <path
         inkscape:connector-curvature="0"
         style="fill:#3bb84c;fill-opacity:1;fill-rule:nonzero;stroke:none"
         id="path262"
         d="m 367.5922,597.0095 c 1.0193,0.086 2.2349,0.2346 3.1905,-0.27 2.9907,-1.5789 1.3164,-7.7471 -1.2412,-5.0557 -0.5987,0.6296 -1.1631,1.3078 -1.5032,2.1155 -0.4329,1.0283 -0.5537,2.1015 -0.4461,3.2102 z" />
      <path
         inkscape:connector-curvature="0"
         style="fill:#9fd753;fill-opacity:1;fill-rule:nonzero;stroke:none"
         id="path264"
         d="m 325.7625,566.6345 c -3.2662,-0.3528 -3.7962,-5.6084 0.091,-5.8201 3.6621,-0.1995 3.3895,6.196 -0.091,5.8201 z" />
      <path
         inkscape:connector-curvature="0"
         style="fill:#3bb84c;fill-opacity:1;fill-rule:nonzero;stroke:none"
         id="path266"
         d="m 331.0748,569.0617 c -0.6238,-0.3293 -1.6686,-0.7087 -1.8889,-1.4429 -0.1502,-0.5004 1.2426,-3.478 1.2172,-4.7524 -0.046,-2.2888 -1.9727,-2.8342 -2,-3.7549 -0.041,-1.3891 4.1917,-6.2151 4.8125,-8.4026 0.2414,-0.8501 0,-0.9301 0.9765,-1.27 1.7822,-0.6184 6.3833,0.3157 8.3782,0.8921 2.0755,0.5999 4.7895,2.2564 5.3672,4.5552 1.0838,4.3142 -4.9454,8.8506 -7.9235,11.1094 -1.5798,1.1982 -3.6591,3.2824 -5.603,3.7067 -1.1064,0.2417 -2.3611,-0.1257 -3.3362,-0.6406 z" />
      <path
         inkscape:connector-curvature="0"
         style="fill:#3bb84c;fill-opacity:1;fill-rule:nonzero;stroke:none"
         id="path268"
         d="m 347.499,551.8066 -0.7986,-0.7656 -1.2081,-0.93 c -0.8929,-0.6921 -2.0312,-1.132 -3.1158,-1.4411 -1.7556,-0.5 -3.6742,-0.9934 -5.513,-0.8089 -1.6344,0.1643 -1.8201,0.3963 -3.4694,0.1568 -0.2192,-0.032 -0.5417,-0.1265 -0.6161,-0.2498 -0.1931,-0.3205 -0.3365,-0.7397 -0.4184,-1.1108 -0.043,-0.1922 -0.07,-0.8086 0.3872,-1.5369 l 0,0 c 0.3772,-0.5503 3.5486,-2.3005 4.1454,-2.7497 0.6007,-0.4524 0.411,-1.0066 0.6471,-1.4739 0.2559,-0.5066 0.3946,-0.96 0.6257,-1.2251 0.3454,-0.3967 1.4231,-0.3318 2.8818,0.5608 0.667,0.4084 1.3573,0.7048 2.0126,1.1404 1.901,1.2629 3.349,2.8071 4.517,5.239 0.4411,0.9184 0.6375,1.4687 0.8936,2.4548 0.1781,0.6851 0.3118,1.1233 0.3398,1.783 0.061,1.4348 -0.5291,2.0481 -1.3108,0.957 z" />
      <path
         inkscape:connector-curvature="0"
         style="fill:#9fd753;fill-opacity:1;fill-rule:nonzero;stroke:none"
         id="path270"
         d="m 337.6058,571.1401 c 1.0906,0.9829 2.7884,0.1089 3.7023,-0.6807 1.4345,-1.2395 1.7995,-3.218 0.9604,-3.5278 -0.9546,-0.3525 -3.0828,1.5303 -3.8279,2.072 -0.462,0.3357 -1.5583,0.6069 -1.4077,1.3535 0.075,0.3709 0.2918,0.5298 0.5729,0.783 z" />
      <path
         inkscape:connector-curvature="0"
         style="fill:#9fd753;fill-opacity:1;fill-rule:nonzero;stroke:none"
         id="path272"
         d="m 356.5397,582.9208 c 1.5096,0.9034 3.8294,1.1563 4.5044,0.2422 0.6387,-0.8652 0.4085,-2.06 -1.2092,-3.2546 -0.5466,-0.4038 -2.0332,-1.0183 -3.4062,-0.9219 -0.8905,0.062 -1.8897,0.138 -1.7255,1.7066 0.019,0.1806 0.072,0.3569 0.1497,0.5266 0,0 0.885,1.2214 1.6868,1.7011 z" />
      <path
         inkscape:connector-curvature="0"
         style="fill:#9fd753;fill-opacity:1;fill-rule:nonzero;stroke:none"
         id="path274"
         d="m 362.6914,581.0498 c 0.4082,-0.08 0.6257,-0.7046 0.457,-1.5611 -0.1463,-0.7429 -0.583,-1.6606 -1.4382,-2.5486 -1.8494,-1.9204 -5.3113,-0.9812 -4.4539,0.4922 0.4739,0.8145 2.9224,1.5073 4.1306,2.8382 0.3982,0.4387 0.9971,0.8396 1.3045,0.7793 z" />
      <path
         inkscape:connector-curvature="0"
         style="fill:#9fd753;fill-opacity:1;fill-rule:nonzero;stroke:none"
         id="path276"
         d="m 363.9094,577.2346 c 0.584,-0.2962 0.5359,-0.9322 0.175,-1.6441 -0.6907,-1.3633 -2.7278,-2.4546 -3.4663,-2.5212 -1.8613,-0.1682 -2.5881,1.2568 -0.4065,2.0911 1.3919,0.5322 2.8162,1.9946 3.6978,2.0742 z" />
      <path
         inkscape:connector-curvature="0"
         style="fill:#9fd753;fill-opacity:1;fill-rule:nonzero;stroke:none"
         id="path278"
         d="m 350.7291,579.9147 c 2.285,1.1634 5.4361,-2.0629 3.4419,-3.7307 -2.1162,-1.7697 -5.5567,2.6543 -3.4419,3.7307 z" />
      <path
         inkscape:connector-curvature="0"
         style="fill:#9fd753;fill-opacity:1;fill-rule:nonzero;stroke:none"
         id="path280"
         d="m 314.4967,535.0012 c 1.5664,0.3049 1.7839,3.5666 1.097,4.6975 -0.3859,0.635 -1.014,1.0229 -1.5953,1.4568 -0.8932,0.667 -1.2773,0.781 -2.3484,0.3298 -2.8185,-1.1875 -1.8306,-4.9543 0.4717,-6.0308 0.379,-0.1772 1.9873,-0.5288 2.375,-0.4533 z" />
      <path
         inkscape:connector-curvature="0"
         style="fill:#9fd753;fill-opacity:1;fill-rule:nonzero;stroke:none"
         id="path282"
         d="m 317.0753,538.6896 c 0.5898,0.7615 2.6074,0.052 3.9216,-0.5168 1.5475,-0.6697 2.5933,-1.8411 1.3257,-3.3457 -0.6398,-0.7595 -2.2226,-0.4934 -3.5443,0.2495 -1.5174,0.853 -2.6942,2.3333 -1.703,3.613 z" />
      <path
         inkscape:connector-curvature="0"
         style="fill:#9fd753;fill-opacity:1;fill-rule:nonzero;stroke:none"
         id="path284"
         d="m 311.4362,535.1945 c -0.7103,0.1184 -1.0432,-0.2087 -1.2091,-0.8369 -0.3802,-1.4402 0.017,-4.0537 0.2718,-5.4023 0.2109,-1.116 1.6156,-2.449 2.2233,-2.1033 0.9527,0.5422 0.318,2.0105 0.1235,2.885 -0.2703,1.2141 -0.2371,1.6943 -0.5724,2.8906 -0.1357,0.4842 0.1972,1.3062 0.056,1.7671 -0.1014,0.3299 -0.5704,0.7461 -0.8929,0.7998 z" />
      <path
         inkscape:connector-curvature="0"
         style="fill:#3bb84c;fill-opacity:1;fill-rule:nonzero;stroke:none"
         id="path286"
         d="m 313.414,542.5747 c 0.5127,-0.1456 1.0635,-0.04 1.611,-0.211 0.4879,-0.1521 0.817,-0.6023 1.2876,-0.716 1.1235,-0.2715 1.8405,3.3366 2.1858,4.0427 0.5516,1.1282 1.1891,2.2334 1.6527,3.4013 0.2927,0.7378 2.3016,5.0389 2.5169,5.7981 0.5805,2.0457 2.3511,4.3191 2.0752,4.5955 -0.5285,0.5293 -1.4058,1.1643 -2.1948,0.8015 -2.4679,-1.1348 -7.1421,-14.4431 -9.5209,-16.6286 -0.3366,-0.3094 0.2041,-0.8372 0.3865,-1.0835 z" />
      <path
         inkscape:connector-curvature="0"
         style="fill:#9fd753;fill-opacity:1;fill-rule:nonzero;stroke:none"
         id="path288"
         d="m 333.4265,542.6831 c -0.699,-0.2308 -1.4375,-0.6446 -1.7342,-1.2542 -0.7457,-1.5332 -1.6079,-2.9885 -2.3495,-4.5295 -0.7662,-1.5923 -1.7491,-2.8272 -2.8103,-4.1516 -1.5341,-1.9153 -3.1099,-3.2547 -4.7194,-4.9957 -0.545,-0.5896 -1.5342,-1.9179 -1.6195,-2.7761 -0.1161,-1.1677 2.0847,-1.0097 2.7786,-1.2036 0.9911,-0.2771 1.0912,0.1275 1.585,0.9507 0.6113,1.019 1.8328,2.102 2.6627,2.9111 1.2064,1.1763 2.2882,2.5315 3.2749,3.9512 1.8692,2.6897 4.2572,6.1018 5.8269,8.9292 0.4755,0.8564 -0.8308,1.1448 -1.3423,1.6343 -0.354,0.3388 -1.0463,0.7014 -1.5529,0.5342 z" />
      <path
         inkscape:connector-curvature="0"
         style="fill:#9fd753;fill-opacity:1;fill-rule:nonzero;stroke:none"
         id="path290"
         d="m 346.3116,542.9313 c -0.6334,-1.207 -2.7216,-2.4331 -3.2936,-3.0866 -0.418,-0.4776 -2.1424,-1.9656 -2.5713,-2.6685 -1.3524,-2.2163 -2.0503,-4.1391 -2.8143,-6.0776 -0.6104,-1.5488 -1.2501,-2.8677 -1.8589,-4.4077 -0.2679,-0.6778 -0.094,-1.9908 0.914,-2.3907 0.5737,-0.2275 1.3693,-0.2417 1.9685,-0.073 0.8939,0.2522 0.9951,1.7344 1.5703,2.8797 0.7724,1.5383 1.1445,2.6555 1.8049,4.0398 1.3713,2.8747 2.8831,5.8159 3.8496,8.882 0.1586,0.5027 0.3897,0.9441 0.5726,1.4375 0.3044,0.8211 0.078,1.2183 -0.1418,1.4646 z" />
      <path
         inkscape:connector-curvature="0"
         style="fill:#3bb84c;fill-opacity:1;fill-rule:nonzero;stroke:none"
         id="path292"
         d="m 352.8114,562.9116 c -1.4052,0.7212 -2.8111,1.6069 -4.2131,2.2632 -0.9577,0.4484 -1.8969,0.9431 -2.8486,1.4111 -0.6738,0.3315 -1.9761,0.6755 -2.3473,1.689 -0.1034,0.2824 -0.1344,0.6169 -0.06,1.0173 0.1236,0.6611 0.6346,0.875 1.3686,0.7925 1.9994,-0.2246 5.6081,-1.7132 7.5986,-3.2881 0.2789,1.322 0.8953,2.8171 1.0123,3.2944 0.339,1.3833 0.6525,3.3906 0.9753,3.9866 0.1536,0.2839 2.625,0.8696 2.8032,-0.4312 0.2019,-1.4738 -0.3806,-4.5459 -1.3738,-6.9314 -0.2802,-1.09 -1.0714,-3.2685 -1.7169,-3.9653 -0.2537,-0.2737 -0.9152,0.016 -1.1987,0.1619 z" />
      <path
         inkscape:connector-curvature="0"
         style="fill:#3bb84c;fill-opacity:1;fill-rule:nonzero;stroke:none"
         id="path294"
         d="m 326.0462,524.0854 c -1.8832,-1.4604 -3.7845,-1.8491 -5.7805,-1.0818 -0.5248,0.8311 -0.5868,1.2705 -2.1571,0.9785 -0.318,-0.4455 -0.4951,-0.9467 -0.7227,-1.4297 -0.6786,-1.4404 -1.5568,-2.8034 -2.3213,-4.2087 -1.4577,-2.6799 -3.2283,-5.2107 -5.1115,-7.6526 -0.5789,-0.7507 -1.9986,-2.0854 -2.2571,-2.8872 -0.2612,-0.8098 0.4521,-1.552 1.1382,-1.7559 1.1116,-0.3308 7.3299,-0.4553 8.675,-0.573 3.3015,-0.289 3.0351,-0.1843 6.1664,1.2059 0.8068,0.3584 1.6266,0.4743 2.1768,1.2807 0.3282,0.481 0.3485,1.0508 0.3769,1.5742 0.057,1.0498 -0.054,2.0718 -0.097,3.1062 -0.049,1.1592 0.3197,10.1973 0.5664,10.8033 l -0.6521,0.6401 z" />
      <path
         inkscape:connector-curvature="0"
         style="fill:#3bb84c;fill-opacity:1;fill-rule:nonzero;stroke:none"
         id="path296"
         d="m 333.9542,523.6516 c -0.2075,0.064 -0.4337,0.096 -0.6328,-0.023 -0.037,-0.022 -0.099,-0.2795 -0.1065,-0.311 -0.542,-2.1656 -0.5868,-4.6587 -1.4758,-6.7027 -0.9183,-2.1113 -2.8014,-3.9636 -3.0319,-6.3559 -0.1,-1.0357 0.097,-2.3623 0.7666,-3.1682 1.1022,-1.3262 6.9551,-1.8946 8.6631,-1.7137 2.1814,0.2312 4.3932,0.1512 6.3991,1.0286 0.7758,0.3394 2.9516,0.9963 2.8327,2.1553 -0.052,0.5058 -0.4995,0.9524 -0.7583,1.3584 -1.2951,2.032 -1.8464,4.8147 -2.4963,7.1455 -0.6105,2.1894 -0.7754,4.769 -1.5907,6.8525 -0.1538,0.3931 -0.3219,0.6021 -0.7516,0.6043 -0.5178,0 -1.6757,-0.8875 -2.1661,-1.1719 -2.1768,-1.2615 -3.5413,-0.3491 -5.6515,0.3018 z" />
      <path
         inkscape:connector-curvature="0"
         style="fill:#9fd753;fill-opacity:1;fill-rule:nonzero;stroke:none"
         id="path298"
         d="m 309.4665,537.0634 c -1.7153,0.2102 -1.4906,-1.4189 -1.9868,-3.0322 -0.2859,-0.9297 -0.2449,-2.2244 0.5924,-2.7559 0.9532,-0.6049 0.9071,0.9942 1.1044,1.733 0.2739,1.0258 0.1595,0.9172 0.3667,1.9523 0.084,0.4187 0.2979,0.8497 0.3664,1.253 0.049,0.2885 -0.1232,0.8105 -0.4431,0.8498 z" />
      <path
         inkscape:connector-curvature="0"
         style="fill:#9fd753;fill-opacity:1;fill-rule:nonzero;stroke:none"
         id="path300"
         d="m 315.5792,534.2248 c -0.4474,0.1985 -0.9284,0.2527 -1.3579,0.084 -2.1567,-0.8474 -0.9196,-3.8201 -0.2593,-5.2388 0.3585,-0.7702 0.8097,-1.9336 1.3994,-2.5312 0.3146,-0.3186 0.7308,-0.6411 1.2089,-0.5911 2.3133,0.2422 0.7863,4.3965 0.3999,5.4783 -0.3141,0.8791 -0.685,2.1133 -1.391,2.7988 z" />
    </g>
  </g>
</svg>
