<?xml version="1.0" encoding="UTF-8" standalone="no"?>
<!-- Created with Inkscape (http://www.inkscape.org/) -->
<svg id="svg2" xmlns:rdf="http://www.w3.org/1999/02/22-rdf-syntax-ns#" xmlns="http://www.w3.org/2000/svg" height="313.87" width="367.58" version="1.1" xmlns:cc="http://creativecommons.org/ns#" xmlns:dc="http://purl.org/dc/elements/1.1/">
 <metadata id="metadata7">
  <rdf:RDF>
   <cc:Work rdf:about="">
    <dc:format>image/svg+xml</dc:format>
    <dc:type rdf:resource="http://purl.org/dc/dcmitype/StillImage"/>
    <dc:title/>
   </cc:Work>
  </rdf:RDF>
 </metadata>
 <g id="layer1" transform="translate(-137.42284,-60.599505)">
  <rect id="rect3144" transform="matrix(0.99779739,-0.06633534,0.06633534,0.99779739,0,0)" height="98.571" width="255" y="258.84" x="175.23" fill="#1a1a1a"/>
  <path id="path2985" transform="matrix(2.0146841,-0.63708061,0.67208562,1.909751,-476.87359,-1.5603102)" fill="#1a1a1a" d="m305.32,278.9-52.093-57.098,38.206-67.188,75.706,15.574,8.5825,76.813z"/>
  <path id="path2987" transform="matrix(2.0146841,-0.67208562,0.67208562,2.0146841,-391.29297,-68.662747)" fill="#1a1a1a" d="m255,185.22-14.679,28.776-31.904-5.0686-5.0382-31.908,28.79-14.652z"/>
  <path id="path2989" transform="matrix(-0.78039909,-0.7053663,0.7053663,-0.78039909,549.2191,522.50584)" fill="#1a1a1a" d="m383.57,230.93-55.985,18.486-34.881-47.533,34.427-47.863,56.159,17.952z"/>
  <text id="text2991" style="letter-spacing:0px;text-anchor:middle;word-spacing:0px;text-align:center;" font-weight="normal" xml:space="preserve" transform="matrix(0.99796426,-0.06377573,0.06377573,0.99796426,0,0)" font-style="normal" font-stretch="normal" font-size="18.94919586px" font-variant="normal" y="181.52045" x="299.98181" font-family="FreeSans" line-height="125%" fill="#ffffff"><tspan id="tspan2993" x="299.98181" y="181.52045">Hacking for Freedom</tspan></text>
  <rect id="rect1878" transform="matrix(0.99796426,-0.06377573,0.06377573,0.99796426,0,0)" height="20.483" width="20.483" y="197.21" x="297.01" fill="#090"/>
  <rect id="rect6448" transform="matrix(0.99796426,-0.06377573,0.06377573,0.99796426,0,0)" height="20.483" width="20.483" y="221.75" x="272.46" fill="#090"/>
  <rect id="rect6464" transform="matrix(0.99796426,-0.06377573,0.06377573,0.99796426,0,0)" height="20.483" width="20.483" y="221.76" x="297" fill="#090"/>
  <rect id="rect6523" transform="matrix(0.99796426,-0.06377573,0.06377573,0.99796426,0,0)" height="20.483" width="20.483" y="221.76" x="321.55" fill="#090"/>
  <rect id="rect6535" transform="matrix(0.99796426,-0.06377573,0.06377573,0.99796426,0,0)" height="20.483" width="9.1159" y="246.27" x="296.77" fill="#090"/>
  <rect id="rect6547" transform="matrix(0.99796426,-0.06377573,0.06377573,0.99796426,0,0)" height="20.483" width="9.1159" y="246.27" x="308.79" fill="#090"/>
  <rect id="rect3146" transform="matrix(0.9643179,-0.26474703,0.08434417,0.99643668,0,0)" height="85.509" width="30.023" y="306.7" x="162.19" fill="#1a1a1a"/>
  <rect id="rect3148" height="153.57" width="72.857" y="179.39" x="422.96" fill="#FFF"/>
  <rect id="rect3150" transform="matrix(0.99766854,-0.06824583,0.06824583,0.99766854,0,0)" height="162.14" width="45.714" y="222.3" x="132.95" fill="#FFF"/>
  <rect id="rect3152" transform="matrix(0.69017436,-0.72364311,0.25984461,0.96565044,0,0)" height="119.92" width="74.034" y="362.87" x="62.007" fill="#FFF"/>
  <rect id="rect3154" transform="matrix(0.99707472,-0.076433,0.076433,0.99707472,0,0)" height="32.857" width="122.14" y="99.975" x="80.804" fill="#FFF"/>
  <rect id="rect3154-8" transform="matrix(0.99707472,-0.076433,0.076433,0.99707472,0,0)" height="32.857" width="122.14" y="98.829" x="374.25" fill="#FFF"/>
  <rect id="rect3174" transform="matrix(0.99556191,-0.09410887,0.09410887,0.99556191,0,0)" height="14.647" width="101.02" y="120.94" x="232.63" fill="#333"/>
 </g>
</svg>
