<?xml version="1.0" encoding="UTF-8" standalone="no"?>
<svg
   xmlns:dc="http://purl.org/dc/elements/1.1/"
   xmlns:cc="http://creativecommons.org/ns#"
   xmlns:rdf="http://www.w3.org/1999/02/22-rdf-syntax-ns#"
   xmlns:svg="http://www.w3.org/2000/svg"
   xmlns="http://www.w3.org/2000/svg"
   xmlns:sodipodi="http://sodipodi.sourceforge.net/DTD/sodipodi-0.dtd"
   xmlns:inkscape="http://www.inkscape.org/namespaces/inkscape"
   height="251.06181"
   viewBox="0 0 314.98856 235.37097"
   width="335.98468"
   version="1.0"
   id="svg74"
   sodipodi:docname="sweater-size.svg"
   inkscape:version="0.92.1 r15371">
  <title
     id="title5387">Sweater size measurements</title>
  <metadata
     id="metadata78">
    <rdf:RDF>
      <cc:Work
         rdf:about="">
        <dc:format>image/svg+xml</dc:format>
        <dc:type
           rdf:resource="http://purl.org/dc/dcmitype/StillImage" />
        <dc:title>Sweater size measurements</dc:title>
        <cc:license
           rdf:resource="http://creativecommons.org/publicdomain/zero/1.0/" />
        <dc:date>2018-12-28</dc:date>
        <dc:creator>
          <cc:Agent>
            <dc:title>Onsemeliot</dc:title>
          </cc:Agent>
        </dc:creator>
        <dc:subject>
          <rdf:Bag>
            <rdf:li>sweater</rdf:li>
            <rdf:li>clothes</rdf:li>
            <rdf:li>wear</rdf:li>
            <rdf:li>size</rdf:li>
            <rdf:li>measurements</rdf:li>
          </rdf:Bag>
        </dc:subject>
        <dc:description>Usual measurements from sweaters</dc:description>
      </cc:Work>
      <cc:License
         rdf:about="http://creativecommons.org/publicdomain/zero/1.0/">
        <cc:permits
           rdf:resource="http://creativecommons.org/ns#Reproduction" />
        <cc:permits
           rdf:resource="http://creativecommons.org/ns#Distribution" />
        <cc:permits
           rdf:resource="http://creativecommons.org/ns#DerivativeWorks" />
      </cc:License>
    </rdf:RDF>
  </metadata>
  <sodipodi:namedview
     pagecolor="#ffffff"
     bordercolor="#666666"
     borderopacity="1"
     objecttolerance="10"
     gridtolerance="10"
     guidetolerance="10"
     inkscape:pageopacity="0"
     inkscape:pageshadow="2"
     inkscape:window-width="1440"
     inkscape:window-height="863"
     id="namedview76"
     showgrid="false"
     inkscape:zoom="2.1026918"
     inkscape:cx="170.57542"
     inkscape:cy="125.53832"
     inkscape:window-x="0"
     inkscape:window-y="0"
     inkscape:window-maximized="1"
     inkscape:current-layer="svg74"
     inkscape:snap-global="true"
     fit-margin-top="0"
     fit-margin-left="0"
     fit-margin-right="0"
     fit-margin-bottom="0" />
  <defs
     id="defs32">
    <marker
       inkscape:stockid="Arrow1Mend"
       orient="auto"
       refY="0"
       refX="0"
       id="marker5560"
       style="overflow:visible"
       inkscape:isstock="true">
      <path
         id="path5558"
         d="M 0,0 5,-5 -12.5,0 5,5 Z"
         style="fill:#000000;fill-opacity:1;fill-rule:evenodd;stroke:#000000;stroke-width:1.00000003pt;stroke-opacity:1"
         transform="matrix(-0.4,0,0,-0.4,-4,0)"
         inkscape:connector-curvature="0" />
    </marker>
    <marker
       inkscape:stockid="Arrow1Mstart"
       orient="auto"
       refY="0"
       refX="0"
       id="marker5445"
       style="overflow:visible"
       inkscape:isstock="true">
      <path
         id="path5443"
         d="M 0,0 5,-5 -12.5,0 5,5 Z"
         style="fill:#000000;fill-opacity:1;fill-rule:evenodd;stroke:#000000;stroke-width:1.00000003pt;stroke-opacity:1"
         transform="matrix(0.4,0,0,0.4,4,0)"
         inkscape:connector-curvature="0" />
    </marker>
    <marker
       inkscape:isstock="true"
       style="overflow:visible"
       id="marker5318"
       refX="0"
       refY="0"
       orient="auto"
       inkscape:stockid="Arrow1Mend">
      <path
         transform="matrix(-0.4,0,0,-0.4,-4,0)"
         style="fill:#000000;fill-opacity:1;fill-rule:evenodd;stroke:#000000;stroke-width:1.00000003pt;stroke-opacity:1"
         d="M 0,0 5,-5 -12.5,0 5,5 Z"
         id="path5316"
         inkscape:connector-curvature="0" />
    </marker>
    <marker
       inkscape:stockid="Arrow1Mstart"
       orient="auto"
       refY="0"
       refX="0"
       id="marker5197"
       style="overflow:visible"
       inkscape:isstock="true">
      <path
         id="path5195"
         d="M 0,0 5,-5 -12.5,0 5,5 Z"
         style="fill:#000000;fill-opacity:1;fill-rule:evenodd;stroke:#000000;stroke-width:1.00000003pt;stroke-opacity:1"
         transform="matrix(0.4,0,0,0.4,4,0)"
         inkscape:connector-curvature="0" />
    </marker>
    <marker
       inkscape:stockid="Arrow1Mstart"
       orient="auto"
       refY="0"
       refX="0"
       id="marker5100"
       style="overflow:visible"
       inkscape:isstock="true">
      <path
         id="path5098"
         d="M 0,0 5,-5 -12.5,0 5,5 Z"
         style="fill:#000000;fill-opacity:1;fill-rule:evenodd;stroke:#000000;stroke-width:1.00000003pt;stroke-opacity:1"
         transform="matrix(0.4,0,0,0.4,4,0)"
         inkscape:connector-curvature="0" />
    </marker>
    <marker
       inkscape:stockid="Arrow1Mend"
       orient="auto"
       refY="0"
       refX="0"
       id="Arrow1Mend"
       style="overflow:visible"
       inkscape:isstock="true"
       inkscape:collect="always">
      <path
         id="path4667"
         d="M 0,0 5,-5 -12.5,0 5,5 Z"
         style="fill:#000000;fill-opacity:1;fill-rule:evenodd;stroke:#000000;stroke-width:1.00000003pt;stroke-opacity:1"
         transform="matrix(-0.4,0,0,-0.4,-4,0)"
         inkscape:connector-curvature="0" />
    </marker>
    <marker
       inkscape:stockid="Arrow1Mstart"
       orient="auto"
       refY="0"
       refX="0"
       id="Arrow1Mstart"
       style="overflow:visible"
       inkscape:isstock="true">
      <path
         id="path4664"
         d="M 0,0 5,-5 -12.5,0 5,5 Z"
         style="fill:#000000;fill-opacity:1;fill-rule:evenodd;stroke:#000000;stroke-width:1.00000003pt;stroke-opacity:1"
         transform="matrix(0.4,0,0,0.4,4,0)"
         inkscape:connector-curvature="0" />
    </marker>
    <marker
       id="b"
       refY="0"
       refX="0"
       style="overflow:visible"
       orient="auto">
      <path
         d="M 0,0 5,-5 -12.5,0 5,5 Z"
         style="fill-rule:evenodd;stroke:#000000;stroke-width:1.00000003pt"
         transform="matrix(0.8,0,0,0.8,10,0)"
         id="path2"
         inkscape:connector-curvature="0" />
    </marker>
    <marker
       id="g"
       refY="0"
       refX="0"
       style="overflow:visible"
       orient="auto">
      <path
         d="M 0,0 5,-5 -12.5,0 5,5 Z"
         style="fill-rule:evenodd;stroke:#000000;stroke-width:1.00000003pt"
         transform="matrix(-0.8,0,0,-0.8,-10,0)"
         id="path5"
         inkscape:connector-curvature="0" />
    </marker>
    <marker
       id="e"
       refY="0"
       refX="0"
       style="overflow:visible"
       orient="auto">
      <path
         d="M 0,0 5,-5 -12.5,0 5,5 Z"
         style="fill-rule:evenodd;stroke:#000000;stroke-width:1.00000003pt"
         transform="matrix(0.8,0,0,0.8,10,0)"
         id="path8"
         inkscape:connector-curvature="0" />
    </marker>
    <marker
       id="h"
       refY="0"
       refX="0"
       style="overflow:visible"
       orient="auto">
      <path
         d="M 0,0 5,-5 -12.5,0 5,5 Z"
         style="fill-rule:evenodd;stroke:#000000;stroke-width:1.00000003pt"
         transform="matrix(-0.8,0,0,-0.8,-10,0)"
         id="path11"
         inkscape:connector-curvature="0" />
    </marker>
    <marker
       id="c"
       refY="0"
       refX="0"
       style="overflow:visible"
       orient="auto">
      <path
         d="M 0,0 5,-5 -12.5,0 5,5 Z"
         style="fill-rule:evenodd;stroke:#000000;stroke-width:1.00000003pt"
         transform="matrix(0.8,0,0,0.8,10,0)"
         id="path14"
         inkscape:connector-curvature="0" />
    </marker>
    <marker
       id="f"
       refY="0"
       refX="0"
       style="overflow:visible"
       orient="auto">
      <path
         d="M 0,0 5,-5 -12.5,0 5,5 Z"
         style="fill-rule:evenodd;stroke:#000000;stroke-width:1.00000003pt"
         transform="matrix(-0.8,0,0,-0.8,-10,0)"
         id="path17"
         inkscape:connector-curvature="0" />
    </marker>
    <marker
       id="d"
       refY="0"
       refX="0"
       style="overflow:visible"
       orient="auto">
      <path
         d="M 0,0 5,-5 -12.5,0 5,5 Z"
         style="fill-rule:evenodd;stroke:#000000;stroke-width:1.00000003pt"
         transform="matrix(0.8,0,0,0.8,10,0)"
         id="path20"
         inkscape:connector-curvature="0" />
    </marker>
    <marker
       id="i"
       refY="0"
       refX="0"
       style="overflow:visible"
       orient="auto">
      <path
         d="M 0,0 5,-5 -12.5,0 5,5 Z"
         style="fill-rule:evenodd;stroke:#000000;stroke-width:1.00000003pt"
         transform="matrix(-0.8,0,0,-0.8,-10,0)"
         id="path23"
         inkscape:connector-curvature="0" />
    </marker>
    <marker
       id="a"
       refY="0"
       refX="0"
       style="overflow:visible"
       orient="auto">
      <path
         style="fill-rule:evenodd;stroke:#000000;stroke-width:1.00000003pt"
         transform="matrix(0.8,0,0,0.8,10,0)"
         d="M 0,0 5,-5 -12.5,0 5,5 Z"
         id="path26"
         inkscape:connector-curvature="0" />
    </marker>
    <marker
       id="j"
       refY="0"
       refX="0"
       style="overflow:visible"
       orient="auto">
      <path
         style="fill-rule:evenodd;stroke:#000000;stroke-width:1.00000003pt"
         transform="matrix(-0.8,0,0,-0.8,-10,0)"
         d="M 0,0 5,-5 -12.5,0 5,5 Z"
         id="path29"
         inkscape:connector-curvature="0" />
    </marker>
  </defs>
  <path
     style="fill:none;stroke:#000000;stroke-width:9.375;stroke-linecap:round;stroke-linejoin:round;stroke-miterlimit:0;paint-order:markers fill stroke"
     d="m 165.78936,4.6824471 c -5.1e-4,3.21e-4 -4.3e-4,0.0014 0,0.00183 8.6e-4,8.64e-4 0.004,0.00119 0.004,0 3.1e-4,-0.00133 -0.003,-0.00255 -0.004,-0.00183 z M 137.01407,37.145517 c 0,9.5512 0.54253,22.172824 5.11236,31.717824 -18.192,0.76674 -43.791214,8.041172 -50.206164,15.034929 -14.77765,16.11101 -70.567668,116.51109 -70.567668,116.51109 l 32.508846,19.73712 50.779276,-84.80242 v 95.34024 h 122.30095 l 0.0714,-95.34024 50.77928,84.80242 32.50885,-19.73712 c 0,0 -55.78819,-100.40009 -70.56584,-116.51109 -6.41495,-6.993757 -32.01599,-14.268189 -50.20799,-15.034929 4.56983,-9.545 5.11236,-22.166624 5.11236,-31.717824 0,-17.925527 -13.91769,-32.4588477 -28.81284,-32.4588477 -14.89515,0 -28.81282,14.5333227 -28.81282,32.4588477 z M 165.86444,4.6842781 c 4.3e-4,-4.316e-4 5.1e-4,-0.00151 0,-0.00183 -9.4e-4,-7.184e-4 -0.004,5.016e-4 -0.004,0.00183 2.8e-4,0.00119 0.003,8.64e-4 0.004,0 z"
     id="path34"
     inkscape:connector-curvature="0"
     sodipodi:nodetypes="ssssscsccccccccscsssssss" />
  <path
     inkscape:connector-curvature="0"
     id="path36"
     style="fill:none;stroke:#000000;stroke-width:1.8750174;stroke-linecap:round;stroke-linejoin:round;stroke-miterlimit:4;stroke-dasharray:5.62505219, 5.62505219;stroke-dashoffset:0;marker-start:url(#Arrow1Mstart);marker-end:url(#Arrow1Mend)"
     d="M 7.0615676,188.80259 94.257488,43.028717"
     sodipodi:nodetypes="cc" />
  <path
     inkscape:connector-curvature="0"
     id="path38"
     style="fill:none;stroke:#000000;stroke-width:0.9375087;stroke-linecap:round;stroke-linejoin:round;stroke-miterlimit:4;stroke-dasharray:none"
     d="M 24.615691,201.95433 0.47450259,187.6309" />
  <path
     inkscape:connector-curvature="0"
     id="path40"
     style="fill:none;stroke:#000000;stroke-width:0.9375087;stroke-linecap:round;stroke-linejoin:round;stroke-miterlimit:4;stroke-dasharray:none"
     d="M 140.1313,66.315208 91.136918,37.244867" />
  <g
     aria-label="c"
     style="font-weight:bold;font-size:12.5px;line-height:1.25;font-family:'Roboto Condensed';font-variant-ligatures:normal;font-variant-caps:normal;font-variant-numeric:normal;font-feature-settings:normal;letter-spacing:0px;word-spacing:0px;fill:#000000"
     id="text44"
     transform="matrix(1.9881152,0,0,1.9881152,-117.36809,-48.784648)">
    <path
       d="m 76.857306,69.431112 q 1.48,-0.02 2.46,0.44 1,0.44 1.58,1.34 0.26,0.4 0.44,0.98 0.04,0.1 0.06,0.26 0.02,0.16 -0.02,0.28 -0.06,0.1 -0.2,0.18 -0.06,0.04 -0.12,0.04 -0.06,-0.02 -0.14,0 -0.08,0.02 -0.16,0.02 -0.08,-0.02 -0.16,-0.02 -0.22,0 -0.42,0 -0.2,-0.02 -0.34,-0.12 -0.16,-0.12 -0.22,-0.34 -0.06,-0.22 -0.16,-0.38 -0.3,-0.52 -0.78,-0.82 -0.16,-0.1 -0.34,-0.16 -0.18,-0.08 -0.38,-0.14 -0.28,-0.08 -0.74,-0.08 -0.46,-0.02 -0.76,0.08 -0.14,0.04 -0.26,0.06 -0.12,0.02 -0.26,0.06 -0.52,0.22 -0.92,0.6 -0.4,0.38 -0.62,0.9 -0.08,0.18 -0.14,0.38 -0.06,0.18 -0.12,0.4 l -0.12,0.54 q -0.02,0.1 -0.02,0.22 0.02,0.12 -0.02,0.22 v 0.16 q -0.02,0.08 -0.04,0.26 0,0.18 0.04,0.26 0.02,0.1 0,0.2 -0.02,0.1 0,0.2 0.02,0.08 0.02,0.28 0.04,0.16 0.06,0.34 0.04,0.18 0.08,0.34 0.22,0.64 0.5,1.12 0.3,0.46 0.82,0.8 0.18,0.1 0.36,0.18 0.2,0.08 0.42,0.16 0.1,0.02 0.16,0.02 0.06,0 0.16,0.02 0.06,0.02 0.2,0.02 h 0.22 q 0,0.02 0.08,0.02 0.04,-0.02 0.1,0 0.06,0 0.12,-0.02 0.14,-0.04 0.26,-0.02 0.14,0 0.28,-0.04 0.52,-0.16 0.9,-0.4 0.38,-0.26 0.64,-0.66 0.1,-0.16 0.18,-0.34 0.08,-0.18 0.16,-0.36 0.04,-0.16 0.08,-0.3 0.06,-0.16 0.2,-0.26 0.06,-0.06 0.24,-0.08 0.18,-0.04 0.38,-0.04 0.22,-0.02 0.4,0 0.2,0.02 0.28,0.08 0.12,0.08 0.14,0.24 0.04,0.16 0,0.34 -0.1,0.3 -0.2,0.58 -0.08,0.26 -0.22,0.52 -0.3,0.6 -0.76,1.06 -0.44,0.46 -1.08,0.74 -0.16,0.08 -0.34,0.14 -0.18,0.04 -0.38,0.1 -0.22,0.08 -0.44,0.08 -0.22,0.02 -0.44,0.06 -0.08,0.04 -0.16,0.02 -0.08,-0.02 -0.16,0 h -0.18 q -0.16,0 -0.32,0 -0.14,0.02 -0.26,-0.02 h -0.1 l -0.48,-0.06 q -0.26,-0.08 -0.5,-0.14 -0.24,-0.06 -0.46,-0.16 -0.72,-0.32 -1.2,-0.76 -0.46,-0.44 -0.86,-1.08 -0.1,-0.16 -0.18,-0.36 -0.08,-0.2 -0.16,-0.4 -0.1,-0.22 -0.14,-0.46 -0.04,-0.24 -0.1,-0.48 -0.02,-0.08 -0.02,-0.16 0,-0.08 -0.02,-0.16 -0.04,-0.12 -0.04,-0.26 0.02,-0.14 -0.02,-0.26 v -0.2 q -0.02,-0.1 -0.02,-0.28 0,-0.18 0.02,-0.28 0.02,-0.1 0,-0.18 0,-0.08 0.02,-0.16 0.04,-0.14 0.02,-0.28 0,-0.14 0.04,-0.26 0.08,-0.34 0.14,-0.68 0.06,-0.34 0.18,-0.64 0.42,-1.04 1.02,-1.68 0.6,-0.64 1.64,-1.06 0.22,-0.1 0.48,-0.14 0.26,-0.04 0.54,-0.1 0.14,-0.02 0.28,-0.02 0.14,-0.02 0.3,-0.04 z"
       style="font-weight:normal;font-size:20px;font-family:'Alte Haas Grotesk';stroke-width:0.9375"
       id="path4718"
       inkscape:connector-curvature="0" />
  </g>
  <path
     style="fill:none;stroke:#000000;stroke-width:1.8750174;stroke-linecap:round;stroke-linejoin:round;stroke-miterlimit:4;stroke-dasharray:5.62505219, 5.62505219;stroke-dashoffset:0;marker-start:url(#marker5445);marker-end:url(#marker5560)"
     d="M 201.18288,224.9529 V 74.602903"
     id="path46"
     inkscape:connector-curvature="0" />
  <path
     style="fill:none;stroke:#000000;stroke-width:1.8750174;stroke-linecap:round;stroke-linejoin:round;stroke-miterlimit:4;stroke-dasharray:5.62505219, 5.62505219;stroke-dashoffset:0;marker-start:url(#marker5100);marker-end:url(#marker5318)"
     d="m 221.21288,148.82478 h -110.49"
     id="path48"
     inkscape:connector-curvature="0" />
  <g
     aria-label="a"
     style="font-weight:bold;font-size:12.5px;line-height:1.25;font-family:'Roboto Condensed';font-variant-ligatures:normal;font-variant-caps:normal;font-variant-numeric:normal;font-feature-settings:normal;letter-spacing:0px;word-spacing:0px;fill:#000000"
     id="text64"
     transform="matrix(1.9881152,0,0,1.9881152,-216.31442,-140.19075)">
    <path
       d="m 190.07216,140.10099 q 0.06,0.32 -0.06,0.54 -0.12,0.2 -0.32,0.3 -0.1,0.04 -0.22,0.04 -0.1,0 -0.22,0.04 -0.44,0.1 -0.88,-0.06 -0.42,-0.14 -0.58,-0.36 -0.1,-0.14 -0.18,-0.32 -0.08,-0.2 -0.2,-0.32 -0.04,-0.04 -0.1,-0.08 -0.04,-0.04 -0.12,-0.02 -0.22,0.06 -0.42,0.22 -0.18,0.16 -0.36,0.28 -0.26,0.16 -0.56,0.3 -0.3,0.12 -0.64,0.22 -0.2,0.06 -0.44,0.08 -0.22,0.02 -0.44,0.06 -0.1,0.02 -0.18,0.02 -0.06,0 -0.14,0 -0.22,0.04 -0.42,0 h -0.18 q -0.1,-0.02 -0.2,-0.02 -0.1,0 -0.18,-0.04 -0.08,-0.02 -0.14,-0.02 -0.04,0.02 -0.1,0 -0.16,-0.04 -0.32,-0.08 -0.16,-0.02 -0.3,-0.08 -0.6,-0.26 -0.98,-0.58 -0.36,-0.34 -0.6,-0.94 -0.18,-0.44 -0.18,-1.06 v -0.42 q 0.02,-0.1 0.02,-0.2 0.02,-0.12 0.04,-0.24 0.08,-0.22 0.16,-0.44 0.08,-0.22 0.2,-0.4 0.36,-0.58 0.98,-0.86 0.62,-0.28 1.36,-0.5 0.28,-0.08 0.58,-0.12 0.3,-0.04 0.6,-0.1 0.14,-0.04 0.26,-0.04 0.14,0 0.3,-0.04 0.14,-0.04 0.28,-0.04 0.14,-0.02 0.3,-0.06 0.5,-0.12 0.94,-0.2 0.44,-0.1 0.7,-0.46 0.12,-0.16 0.2,-0.4 0.08,-0.26 0,-0.56 -0.12,-0.48 -0.36,-0.76 -0.22,-0.28 -0.64,-0.44 -0.24,-0.1 -0.58,-0.14 -0.32,-0.04 -0.68,-0.04 -0.36,0 -0.7,0.04 -0.34,0.04 -0.58,0.12 -0.34,0.12 -0.66,0.34 -0.16,0.12 -0.3,0.32 -0.12,0.18 -0.22,0.4 -0.06,0.16 -0.12,0.34 -0.04,0.18 -0.18,0.28 -0.08,0.06 -0.28,0.1 -0.18,0.02 -0.38,0.02 -0.2,0 -0.4,-0.02 -0.18,-0.04 -0.26,-0.1 -0.08,-0.06 -0.12,-0.2 -0.04,-0.14 0,-0.3 0.06,-0.26 0.12,-0.48 0.08,-0.24 0.18,-0.46 0.38,-0.7 0.96,-1.08 0.58,-0.4 1.44,-0.64 0.2,-0.04 0.4,-0.06 0.22,-0.02 0.44,-0.06 0.08,-0.02 0.26,0 0.18,0 0.22,-0.04 1.4,-0.02 2.44,0.32 1.04,0.34 1.46,1.3 0.18,0.4 0.2,0.94 0.04,0.52 0.04,1.1 v 4.42 q 0,0.28 0.02,0.54 0.02,0.26 0.12,0.42 0.1,0.14 0.26,0.2 0.18,0.08 0.34,0.12 0.16,0.02 0.24,0.18 0.04,0.06 0.04,0.12 0,0.06 0.02,0.16 z m -2.86,-2.22 q 0.12,-0.28 0.12,-0.64 0.02,-0.38 0.02,-0.78 0,-0.22 -0.02,-0.4 -0.02,-0.18 -0.16,-0.28 -0.06,-0.04 -0.28,-0.04 -0.04,0.04 -0.14,0.04 -0.1,0 -0.18,0.04 -0.16,0.04 -0.36,0.08 -0.2,0.04 -0.4,0.08 -0.06,0 -0.14,0.02 -0.06,0 -0.14,0 -0.3,0.08 -0.66,0.1 -0.34,0 -0.64,0.08 -0.16,0.04 -0.3,0.08 -0.12,0.02 -0.28,0.06 -0.32,0.1 -0.6,0.26 -0.28,0.14 -0.48,0.36 -0.2,0.22 -0.3,0.54 -0.1,0.3 -0.08,0.74 0,0.2 0.06,0.38 0.08,0.16 0.18,0.3 0.16,0.22 0.42,0.38 0.26,0.14 0.56,0.24 0.1,0.02 0.2,0.02 0.1,0 0.2,0.02 0.14,0.04 0.34,0.06 0.22,0 0.36,-0.04 0.12,-0.04 0.24,-0.02 0.12,0 0.24,-0.04 0.16,-0.04 0.3,-0.06 0.16,-0.02 0.3,-0.08 0.58,-0.24 0.98,-0.58 0.42,-0.34 0.64,-0.92 z"
       style="font-weight:normal;font-size:20px;font-family:'Alte Haas Grotesk';stroke-width:0.9375"
       id="path4715"
       inkscape:connector-curvature="0" />
  </g>
  <g
     aria-label="b"
     style="font-weight:bold;font-size:12.5px;line-height:1.25;font-family:'Roboto Condensed';font-variant-ligatures:normal;font-variant-caps:normal;font-variant-numeric:normal;font-feature-settings:normal;letter-spacing:0px;word-spacing:0px;fill:#000000"
     id="text68"
     transform="matrix(1.9881152,0,0,1.9881152,-263.12984,-27.925298)">
    <path
       d="m 229.43404,108.44053 q 0.02,0.1 0.02,0.28 0,0.16 -0.02,0.26 0,0.08 -0.02,0.16 0,0.06 0,0.16 -0.04,0.16 -0.04,0.32 0,0.16 -0.04,0.32 -0.02,0.08 -0.02,0.16 0,0.06 -0.02,0.14 -0.06,0.22 -0.12,0.42 -0.04,0.2 -0.12,0.4 -0.28,0.7 -0.68,1.26 -0.4,0.56 -1,0.96 -0.3,0.2 -0.58,0.34 -0.22,0.1 -0.44,0.16 -0.2,0.06 -0.42,0.12 -0.14,0.04 -0.26,0.04 -0.12,0.02 -0.24,0.06 h -0.2 q -0.1,0.04 -0.3,0.04 -0.2,0.02 -0.32,-0.02 h -0.2 q -0.08,-0.02 -0.18,-0.02 -0.08,0 -0.18,-0.02 -0.3,-0.08 -0.6,-0.14 -0.28,-0.06 -0.56,-0.18 -0.4,-0.16 -0.72,-0.4 -0.12,-0.1 -0.24,-0.2 -0.12,-0.12 -0.28,-0.16 -0.12,-0.02 -0.2,0.06 -0.06,0.06 -0.1,0.18 -0.02,0.12 -0.04,0.26 0,0.12 -0.04,0.18 -0.08,0.1 -0.18,0.18 -0.1,0.04 -0.28,0.06 -0.16,0 -0.36,0 -0.18,0 -0.34,-0.02 -0.16,-0.04 -0.24,-0.08 -0.04,-0.04 -0.08,-0.1 -0.04,-0.06 -0.08,-0.12 -0.06,-0.16 -0.06,-0.48 0.02,-0.32 0.02,-0.54 v -11.74 q 0,-0.24 -0.02,-0.5 0,-0.28 0.1,-0.44 0.08,-0.12 0.26,-0.2 0.04,0 0.1,0 0.06,-0.02 0.1,-0.02 0.28,-0.02 0.58,0 0.32,0 0.44,0.16 0.1,0.16 0.1,0.46 0,0.28 0,0.54 v 2.34 q 0,0.14 0,0.34 0,0.18 0,0.38 0.02,0.18 0.04,0.34 0.04,0.14 0.12,0.2 0.08,0.06 0.18,0.02 0.1,-0.04 0.16,-0.08 0.1,-0.08 0.18,-0.16 0.1,-0.08 0.2,-0.16 0.14,-0.1 0.28,-0.18 0.16,-0.08 0.32,-0.16 0.36,-0.18 0.86,-0.26 0.5,-0.08 1.02,-0.08 0.52,0 1.02,0.1 0.5,0.08 0.88,0.24 0.8,0.34 1.38,0.94 0.58,0.6 0.92,1.4 0.1,0.22 0.16,0.44 0.08,0.2 0.16,0.42 0.06,0.22 0.08,0.46 0.04,0.22 0.08,0.44 0.02,0.06 0.02,0.14 0,0.06 0.02,0.12 0.04,0.12 0,0.24 -0.02,0.1 0.02,0.22 z m -1.78,0.52 q 0.04,-0.1 0.02,-0.24 -0.02,-0.14 -0.02,-0.26 0,-0.34 -0.04,-0.64 -0.02,-0.3 -0.12,-0.54 -0.06,-0.2 -0.1,-0.36 -0.04,-0.16 -0.12,-0.32 -0.22,-0.5 -0.6,-0.92 -0.38,-0.44 -0.88,-0.66 -0.16,-0.06 -0.32,-0.1 -0.14,-0.06 -0.3,-0.1 -0.22,-0.06 -0.44,-0.06 -0.22,-0.02 -0.48,-0.02 -0.1,0.02 -0.18,0.04 -0.08,0 -0.18,0 -0.18,0.04 -0.36,0.08 -0.16,0.04 -0.32,0.12 -0.68,0.28 -1.08,0.84 -0.4,0.54 -0.64,1.28 -0.08,0.22 -0.1,0.44 -0.02,0.22 -0.08,0.46 -0.02,0.1 0,0.18 0.02,0.08 -0.02,0.18 -0.02,0.1 -0.02,0.3 0,0.18 0.02,0.28 v 0.16 q 0.02,0.08 0.02,0.16 0,0.08 0.02,0.14 0.02,0.06 0.02,0.14 0,0.06 0.02,0.12 0.04,0.16 0.06,0.32 0.04,0.16 0.08,0.32 0.22,0.68 0.6,1.16 0.4,0.48 0.98,0.8 0.18,0.1 0.38,0.16 0.2,0.04 0.42,0.1 0.1,0.04 0.18,0.04 0.1,-0.02 0.2,0 0.08,0.02 0.18,0.02 0.1,0 0.18,0 h 0.18 q 0.08,-0.02 0.14,-0.02 0.06,0 0.14,-0.02 0.16,-0.04 0.3,-0.06 0.14,-0.04 0.3,-0.1 0.62,-0.26 1,-0.68 0.38,-0.44 0.64,-1.06 0.1,-0.28 0.14,-0.56 0.06,-0.3 0.14,-0.6 0.04,-0.1 0.02,-0.18 0,-0.1 0.02,-0.2 z"
       style="font-weight:normal;font-size:20px;font-family:'Alte Haas Grotesk';stroke-width:0.9375"
       id="path4712"
       inkscape:connector-curvature="0" />
  </g>
</svg>
