<?xml version="1.0" encoding="UTF-8" standalone="no"?>
<svg
   xmlns:dc="http://purl.org/dc/elements/1.1/"
   xmlns:cc="http://creativecommons.org/ns#"
   xmlns:rdf="http://www.w3.org/1999/02/22-rdf-syntax-ns#"
   xmlns:svg="http://www.w3.org/2000/svg"
   xmlns="http://www.w3.org/2000/svg"
   xmlns:sodipodi="http://sodipodi.sourceforge.net/DTD/sodipodi-0.dtd"
   xmlns:inkscape="http://www.inkscape.org/namespaces/inkscape"
   height="184.33"
   width="250.29"
   version="1.0"
   viewBox="0 0 234.64567 172.80576"
   id="svg4771"
   sodipodi:docname="t-shirt-size.svg"
   inkscape:version="0.92.1 r15371">
  <metadata
     id="metadata4775">
    <rdf:RDF>
      <cc:Work
         rdf:about="">
        <dc:format>image/svg+xml</dc:format>
        <dc:type
           rdf:resource="http://purl.org/dc/dcmitype/StillImage" />
        <dc:title>Sweather size measurements</dc:title>
        <dc:date>2018-12-28</dc:date>
        <dc:creator>
          <cc:Agent>
            <dc:title>Onsemeliot</dc:title>
          </cc:Agent>
        </dc:creator>
        <dc:subject>
          <rdf:Bag>
            <rdf:li>sweather</rdf:li>
            <rdf:li>clothes</rdf:li>
            <rdf:li>wear</rdf:li>
            <rdf:li>size</rdf:li>
            <rdf:li>measurements</rdf:li>
          </rdf:Bag>
        </dc:subject>
        <dc:description>Usual measurements from sweathers</dc:description>
      </cc:Work>
    </rdf:RDF>
  </metadata>
  <sodipodi:namedview
     pagecolor="#ffffff"
     bordercolor="#666666"
     borderopacity="1"
     objecttolerance="10"
     gridtolerance="10"
     guidetolerance="10"
     inkscape:pageopacity="0"
     inkscape:pageshadow="2"
     inkscape:window-width="1440"
     inkscape:window-height="863"
     id="namedview4773"
     showgrid="false"
     inkscape:zoom="3.4286334"
     inkscape:cx="125.145"
     inkscape:cy="92.165001"
     inkscape:window-x="0"
     inkscape:window-y="0"
     inkscape:window-maximized="1"
     inkscape:current-layer="svg4771" />
  <title
     id="title4721">Sweather size measurements</title>
  <defs
     id="defs4747">
    <marker
       inkscape:stockid="Arrow1Mend"
       orient="auto"
       refY="0.0"
       refX="0.0"
       id="marker5108"
       style="overflow:visible;"
       inkscape:isstock="true">
      <path
         id="path5106"
         d="M 0.0,0.0 L 5.0,-5.0 L -12.5,0.0 L 5.0,5.0 L 0.0,0.0 z "
         style="fill-rule:evenodd;stroke:#000000;stroke-width:1pt;stroke-opacity:1;fill:#000000;fill-opacity:1"
         transform="scale(0.4) rotate(180) translate(10,0)" />
    </marker>
    <marker
       inkscape:stockid="Arrow1Mstart"
       orient="auto"
       refY="0.0"
       refX="0.0"
       id="marker5026"
       style="overflow:visible"
       inkscape:isstock="true">
      <path
         id="path5024"
         d="M 0.0,0.0 L 5.0,-5.0 L -12.5,0.0 L 5.0,5.0 L 0.0,0.0 z "
         style="fill-rule:evenodd;stroke:#000000;stroke-width:1pt;stroke-opacity:1;fill:#000000;fill-opacity:1"
         transform="scale(0.4) translate(10,0)" />
    </marker>
    <marker
       inkscape:stockid="Arrow1Mend"
       orient="auto"
       refY="0.0"
       refX="0.0"
       id="Arrow1Mend"
       style="overflow:visible;"
       inkscape:isstock="true">
      <path
         id="path4623"
         d="M 0.0,0.0 L 5.0,-5.0 L -12.5,0.0 L 5.0,5.0 L 0.0,0.0 z "
         style="fill-rule:evenodd;stroke:#000000;stroke-width:1pt;stroke-opacity:1;fill:#000000;fill-opacity:1"
         transform="scale(0.4) rotate(180) translate(10,0)" />
    </marker>
    <marker
       inkscape:stockid="Arrow1Mstart"
       orient="auto"
       refY="0.0"
       refX="0.0"
       id="Arrow1Mstart"
       style="overflow:visible"
       inkscape:isstock="true">
      <path
         id="path4620"
         d="M 0.0,0.0 L 5.0,-5.0 L -12.5,0.0 L 5.0,5.0 L 0.0,0.0 z "
         style="fill-rule:evenodd;stroke:#000000;stroke-width:1pt;stroke-opacity:1;fill:#000000;fill-opacity:1"
         transform="scale(0.4) translate(10,0)" />
    </marker>
    <marker
       id="d"
       refY="0"
       refX="0"
       style="overflow:visible"
       orient="auto">
      <path
         style="stroke:#000;stroke-width:1pt;fill-rule:evenodd"
         d="m0 0 5-5-17.5 5 17.5 5z"
         transform="matrix(.8 0 0 .8 10 0)"
         id="path4723" />
    </marker>
    <marker
       id="h"
       refY="0"
       refX="0"
       style="overflow:visible"
       orient="auto">
      <path
         style="stroke:#000;stroke-width:1pt;fill-rule:evenodd"
         d="m0 0 5-5-17.5 5 17.5 5z"
         transform="matrix(-.8 0 0 -.8 -10 0)"
         id="path4726" />
    </marker>
    <marker
       id="c"
       refY="0"
       refX="0"
       style="overflow:visible"
       orient="auto">
      <path
         style="stroke:#000;stroke-width:1pt;fill-rule:evenodd"
         d="m0 0 5-5-17.5 5 17.5 5z"
         transform="matrix(.8 0 0 .8 10 0)"
         id="path4729" />
    </marker>
    <marker
       id="g"
       refY="0"
       refX="0"
       style="overflow:visible"
       orient="auto">
      <path
         style="stroke:#000;stroke-width:1pt;fill-rule:evenodd"
         d="m0 0 5-5-17.5 5 17.5 5z"
         transform="matrix(-.8 0 0 -.8 -10 0)"
         id="path4732" />
    </marker>
    <marker
       id="b"
       refY="0"
       refX="0"
       style="overflow:visible"
       orient="auto">
      <path
         style="stroke:#000;stroke-width:1pt;fill-rule:evenodd"
         d="m0 0 5-5-17.5 5 17.5 5z"
         transform="matrix(.8 0 0 .8 10 0)"
         id="path4735" />
    </marker>
    <marker
       id="f"
       refY="0"
       refX="0"
       style="overflow:visible"
       orient="auto">
      <path
         style="stroke:#000;stroke-width:1pt;fill-rule:evenodd"
         d="m0 0 5-5-17.5 5 17.5 5z"
         transform="matrix(-.8 0 0 -.8 -10 0)"
         id="path4738" />
    </marker>
    <marker
       id="a"
       refY="0"
       refX="0"
       style="overflow:visible"
       orient="auto">
      <path
         style="stroke:#000;stroke-width:1pt;fill-rule:evenodd"
         d="m0 0 5-5-17.5 5 17.5 5z"
         transform="matrix(.8 0 0 .8 10 0)"
         id="path4741" />
    </marker>
    <marker
       id="e"
       refY="0"
       refX="0"
       style="overflow:visible"
       orient="auto">
      <path
         style="stroke:#000;stroke-width:1pt;fill-rule:evenodd"
         d="m0 0 5-5-17.5 5 17.5 5z"
         transform="matrix(-.8 0 0 -.8 -10 0)"
         id="path4744" />
    </marker>
  </defs>
  <path
     inkscape:connector-curvature="0"
     id="path4749"
     d="M 90.802813,4.6877187 C 74.96,5.794625 61.7375,7.9443125 56.173437,11.157125 38.25875,21.500562 4.6840625,41.036187 4.6840625,41.036187 L 25.740313,77.32025 56.173437,63.409625 V 168.119 H 178.47031 V 63.409625 l 30.43406,13.910625 21.05532,-36.284063 c 0,0 -36.95907,-21.490312 -51.48938,-29.879062 -5.55525,-3.207375 -18.79406,-5.3590313 -34.65844,-6.46725 a 26.904375,16.6275 0 0 1 -26.49375,13.815 A 26.904375,16.6275 0 0 1 90.804687,4.6870625 Z"
     style="fill:none;stroke:#000000;stroke-width:9.375;stroke-linecap:round;stroke-linejoin:round;stroke-miterlimit:0;paint-order:markers fill stroke" />
  <path
     style="fill:none;stroke:#000000;stroke-width:1.87499042;stroke-linecap:round;stroke-linejoin:round;stroke-miterlimit:4;stroke-dasharray:7.49996169,7.49996169;stroke-dashoffset:0;marker-start:url(#marker5026);marker-end:url(#marker5108)"
     d="M 147.08503,162.391 V 12.041"
     id="path4751"
     inkscape:connector-curvature="0" />
  <path
     style="fill:none;stroke:#000000;stroke-width:1.87499046;stroke-linecap:round;stroke-linejoin:round;stroke-miterlimit:4;stroke-dasharray:7.49996169, 7.49996169;stroke-dashoffset:0;marker-start:url(#Arrow1Mstart);marker-end:url(#Arrow1Mend)"
     d="M 172.74,76.129576 H 62.25"
     id="path4753"
     inkscape:connector-curvature="0" />
  <g
     aria-label="a"
     style="font-variant-ligatures:normal;font-variant-caps:normal;font-variant-numeric:normal;font-feature-settings:normal"
     id="g4761"
     transform="matrix(1.9625738,0,0,1.9625738,-533.2355,346.19697)">
    <path
       style="stroke-width:0.9375"
       d="m 330.06,-142.07 q 0.06,0.32 -0.06,0.54 -0.12,0.2 -0.32,0.3 -0.1,0.04 -0.22,0.04 -0.1,0 -0.22,0.04 -0.44,0.1 -0.88,-0.06 -0.42,-0.14 -0.58,-0.36 -0.1,-0.14 -0.18,-0.32 -0.08,-0.2 -0.2,-0.32 -0.04,-0.04 -0.1,-0.08 -0.04,-0.04 -0.12,-0.02 -0.22,0.06 -0.42,0.22 -0.18,0.16 -0.36,0.28 -0.26,0.16 -0.56,0.3 -0.3,0.12 -0.64,0.22 -0.2,0.06 -0.44,0.08 -0.22,0.02 -0.44,0.06 -0.1,0.02 -0.18,0.02 -0.06,0 -0.14,0 -0.22,0.04 -0.42,0 h -0.18 q -0.1,-0.02 -0.2,-0.02 -0.1,0 -0.18,-0.04 -0.08,-0.02 -0.14,-0.02 -0.04,0.02 -0.1,0 -0.16,-0.04 -0.32,-0.08 -0.16,-0.02 -0.3,-0.08 -0.6,-0.26 -0.98,-0.58 -0.36,-0.34 -0.6,-0.94 -0.18,-0.44 -0.18,-1.06 v -0.42 q 0.02,-0.1 0.02,-0.2 0.02,-0.12 0.04,-0.24 0.08,-0.22 0.16,-0.44 0.08,-0.22 0.2,-0.4 0.36,-0.58 0.98,-0.86 0.62,-0.28 1.36,-0.5 0.28,-0.08 0.58,-0.12 0.3,-0.04 0.6,-0.1 0.14,-0.04 0.26,-0.04 0.14,0 0.3,-0.04 0.14,-0.04 0.28,-0.04 0.14,-0.02 0.3,-0.06 0.5,-0.12 0.94,-0.2 0.44,-0.1 0.7,-0.46 0.12,-0.16 0.2,-0.4 0.08,-0.26 0,-0.56 -0.12,-0.48 -0.36,-0.76 -0.22,-0.28 -0.64,-0.44 -0.24,-0.1 -0.58,-0.14 -0.32,-0.04 -0.68,-0.04 -0.36,0 -0.7,0.04 -0.34,0.04 -0.58,0.12 -0.34,0.12 -0.66,0.34 -0.16,0.12 -0.3,0.32 -0.12,0.18 -0.22,0.4 -0.06,0.16 -0.12,0.34 -0.04,0.18 -0.18,0.28 -0.08,0.06 -0.28,0.1 -0.18,0.02 -0.38,0.02 -0.2,0 -0.4,-0.02 -0.18,-0.04 -0.26,-0.1 -0.08,-0.06 -0.12,-0.2 -0.04,-0.14 0,-0.3 0.06,-0.26 0.12,-0.48 0.08,-0.24 0.18,-0.46 0.38,-0.7 0.96,-1.08 0.58,-0.4 1.44,-0.64 0.2,-0.04 0.4,-0.06 0.22,-0.02 0.44,-0.06 0.08,-0.02 0.26,0 0.18,0 0.22,-0.04 1.4,-0.02 2.44,0.32 1.04,0.34 1.46,1.3 0.18,0.4 0.2,0.94 0.04,0.52 0.04,1.1 v 4.42 q 0,0.28 0.02,0.54 0.02,0.26 0.12,0.42 0.1,0.14 0.26,0.2 0.18,0.08 0.34,0.12 0.16,0.02 0.24,0.18 0.04,0.06 0.04,0.12 0,0.06 0.02,0.16 z m -2.86,-2.22 q 0.12,-0.28 0.12,-0.64 0.02,-0.38 0.02,-0.78 0,-0.22 -0.02,-0.4 -0.02,-0.18 -0.16,-0.28 -0.06,-0.04 -0.28,-0.04 -0.04,0.04 -0.14,0.04 -0.1,0 -0.18,0.04 -0.16,0.04 -0.36,0.08 -0.2,0.04 -0.4,0.08 -0.06,0 -0.14,0.02 -0.06,0 -0.14,0 -0.3,0.08 -0.66,0.1 -0.34,0 -0.64,0.08 -0.16,0.04 -0.3,0.08 -0.12,0.02 -0.28,0.06 -0.32,0.1 -0.6,0.26 -0.28,0.14 -0.48,0.36 -0.2,0.22 -0.3,0.54 -0.1,0.3 -0.08,0.74 0,0.2 0.06,0.38 0.08,0.16 0.18,0.3 0.16,0.22 0.42,0.38 0.26,0.14 0.56,0.24 0.1,0.02 0.2,0.02 0.1,0 0.2,0.02 0.14,0.04 0.34,0.06 0.22,0 0.36,-0.04 0.12,-0.04 0.24,-0.02 0.12,0 0.24,-0.04 0.16,-0.04 0.3,-0.06 0.16,-0.02 0.3,-0.08 0.58,-0.24 0.98,-0.58 0.42,-0.34 0.64,-0.92 z"
       id="path4759"
       inkscape:connector-curvature="0" />
  </g>
  <g
     aria-label="b"
     style="font-variant-ligatures:normal;font-variant-caps:normal;font-variant-numeric:normal;font-feature-settings:normal"
     id="g4765"
     transform="matrix(1.9625738,0,0,1.9625738,-585.06624,459.36098)">
    <path
       style="stroke-width:0.9375"
       d="m 369.42,-173.73 q 0.02,0.1 0.02,0.28 0,0.16 -0.02,0.26 0,0.08 -0.02,0.16 0,0.06 0,0.16 -0.04,0.16 -0.04,0.32 0,0.16 -0.04,0.32 -0.02,0.08 -0.02,0.16 0,0.06 -0.02,0.14 -0.06,0.22 -0.12,0.42 -0.04,0.2 -0.12,0.4 -0.28,0.7 -0.68,1.26 -0.4,0.56 -1,0.96 -0.3,0.2 -0.58,0.34 -0.22,0.1 -0.44,0.16 -0.2,0.06 -0.42,0.12 -0.14,0.04 -0.26,0.04 -0.12,0.02 -0.24,0.06 h -0.2 q -0.1,0.04 -0.3,0.04 -0.2,0.02 -0.32,-0.02 h -0.2 q -0.08,-0.02 -0.18,-0.02 -0.08,0 -0.18,-0.02 -0.3,-0.08 -0.6,-0.14 -0.28,-0.06 -0.56,-0.18 -0.4,-0.16 -0.72,-0.4 -0.12,-0.1 -0.24,-0.2 -0.12,-0.12 -0.28,-0.16 -0.12,-0.02 -0.2,0.06 -0.06,0.06 -0.1,0.18 -0.02,0.12 -0.04,0.26 0,0.12 -0.04,0.18 -0.08,0.1 -0.18,0.18 -0.1,0.04 -0.28,0.06 -0.16,0 -0.36,0 -0.18,0 -0.34,-0.02 -0.16,-0.04 -0.24,-0.08 -0.04,-0.04 -0.08,-0.1 -0.04,-0.06 -0.08,-0.12 -0.06,-0.16 -0.06,-0.48 0.02,-0.32 0.02,-0.54 v -11.74 q 0,-0.24 -0.02,-0.5 0,-0.28 0.1,-0.44 0.08,-0.12 0.26,-0.2 0.04,0 0.1,0 0.06,-0.02 0.1,-0.02 0.28,-0.02 0.58,0 0.32,0 0.44,0.16 0.1,0.16 0.1,0.46 0,0.28 0,0.54 v 2.34 q 0,0.14 0,0.34 0,0.18 0,0.38 0.02,0.18 0.04,0.34 0.04,0.14 0.12,0.2 0.08,0.06 0.18,0.02 0.1,-0.04 0.16,-0.08 0.1,-0.08 0.18,-0.16 0.1,-0.08 0.2,-0.16 0.14,-0.1 0.28,-0.18 0.16,-0.08 0.32,-0.16 0.36,-0.18 0.86,-0.26 0.5,-0.08 1.02,-0.08 0.52,0 1.02,0.1 0.5,0.08 0.88,0.24 0.8,0.34 1.38,0.94 0.58,0.6 0.92,1.4 0.1,0.22 0.16,0.44 0.08,0.2 0.16,0.42 0.06,0.22 0.08,0.46 0.04,0.22 0.08,0.44 0.02,0.06 0.02,0.14 0,0.06 0.02,0.12 0.04,0.12 0,0.24 -0.02,0.1 0.02,0.22 z m -1.78,0.52 q 0.04,-0.1 0.02,-0.24 -0.02,-0.14 -0.02,-0.26 0,-0.34 -0.04,-0.64 -0.02,-0.3 -0.12,-0.54 -0.06,-0.2 -0.1,-0.36 -0.04,-0.16 -0.12,-0.32 -0.22,-0.5 -0.6,-0.92 -0.38,-0.44 -0.88,-0.66 -0.16,-0.06 -0.32,-0.1 -0.14,-0.06 -0.3,-0.1 -0.22,-0.06 -0.44,-0.06 -0.22,-0.02 -0.48,-0.02 -0.1,0.02 -0.18,0.04 -0.08,0 -0.18,0 -0.18,0.04 -0.36,0.08 -0.16,0.04 -0.32,0.12 -0.68,0.28 -1.08,0.84 -0.4,0.54 -0.64,1.28 -0.08,0.22 -0.1,0.44 -0.02,0.22 -0.08,0.46 -0.02,0.1 0,0.18 0.02,0.08 -0.02,0.18 -0.02,0.1 -0.02,0.3 0,0.18 0.02,0.28 v 0.16 q 0.02,0.08 0.02,0.16 0,0.08 0.02,0.14 0.02,0.06 0.02,0.14 0,0.06 0.02,0.12 0.04,0.16 0.06,0.32 0.04,0.16 0.08,0.32 0.22,0.68 0.6,1.16 0.4,0.48 0.98,0.8 0.18,0.1 0.38,0.16 0.2,0.04 0.42,0.1 0.1,0.04 0.18,0.04 0.1,-0.02 0.2,0 0.08,0.02 0.18,0.02 0.1,0 0.18,0 h 0.18 q 0.08,-0.02 0.14,-0.02 0.06,0 0.14,-0.02 0.16,-0.04 0.3,-0.06 0.14,-0.04 0.3,-0.1 0.62,-0.26 1,-0.68 0.38,-0.44 0.64,-1.06 0.1,-0.28 0.14,-0.56 0.06,-0.3 0.14,-0.6 0.04,-0.1 0.02,-0.18 0,-0.1 0.02,-0.2 z"
       id="path4763"
       inkscape:connector-curvature="0" />
  </g>
</svg>
