<?xml version="1.0" encoding="UTF-8" standalone="no"?>
<!-- Created with Inkscape (http://www.inkscape.org/) -->

<svg
   xmlns:dc="http://purl.org/dc/elements/1.1/"
   xmlns:cc="http://creativecommons.org/ns#"
   xmlns:rdf="http://www.w3.org/1999/02/22-rdf-syntax-ns#"
   xmlns:svg="http://www.w3.org/2000/svg"
   xmlns="http://www.w3.org/2000/svg"
   xmlns:sodipodi="http://sodipodi.sourceforge.net/DTD/sodipodi-0.dtd"
   xmlns:inkscape="http://www.inkscape.org/namespaces/inkscape"
   width="89.302094mm"
   height="89.302094mm"
   viewBox="0 0 89.302093 89.302094"
   version="1.1"
   id="svg8"
   inkscape:version="0.92.4 5da689c313, 2019-01-14"
   sodipodi:docname="fediverse.svg">
  <defs
     id="defs2" />
  <sodipodi:namedview
     id="base"
     pagecolor="#ffffff"
     bordercolor="#666666"
     borderopacity="1.0"
     inkscape:pageopacity="0.0"
     inkscape:pageshadow="2"
     inkscape:zoom="0.98994949"
     inkscape:cx="320.36994"
     inkscape:cy="123.44574"
     inkscape:document-units="mm"
     inkscape:current-layer="layer1"
     showgrid="false"
     fit-margin-top="0"
     fit-margin-left="0"
     fit-margin-right="0"
     fit-margin-bottom="0"
     inkscape:window-width="1920"
     inkscape:window-height="1010"
     inkscape:window-x="0"
     inkscape:window-y="23"
     inkscape:window-maximized="1" />
  <metadata
     id="metadata5">
    <rdf:RDF>
      <cc:Work
         rdf:about="">
        <dc:format>image/svg+xml</dc:format>
        <dc:type
           rdf:resource="http://purl.org/dc/dcmitype/StillImage" />
        <dc:title></dc:title>
      </cc:Work>
    </rdf:RDF>
  </metadata>
  <g
     inkscape:label="Layer 1"
     inkscape:groupmode="layer"
     id="layer1"
     transform="translate(-89.75629,-115.36986)">
    <g
       id="g837"
       transform="translate(13.426455,1.972992e-5)"
       style="stroke:none;fill:#c9ad69;fill-opacity:1">
      <path
         style="fill:#c9ad69;fill-opacity:1;stroke-width:0.35277778;stroke:none"
         d="m 104.9059,203.91495 c -1.41818,-0.74939 -3.0072,-2.47333 -3.55657,-3.85856 -0.54261,-1.36816 -0.64872,-4.29242 -0.20139,-5.55003 0.37997,-1.06824 0.30119,-1.24734 -1.691367,-3.84542 -1.870783,-2.43929 -2.267299,-2.76963 -3.78188,-3.1507 -3.073978,-0.77343 -4.833347,-3.47705 -4.326265,-6.64817 0.31407,-1.96409 1.449242,-3.37298 3.417592,-4.24167 1.459489,-0.64411 1.940713,-1.14332 3.431554,-3.55979 l 1.73401,-2.81061 -0.820958,-1.07633 c -2.595155,-3.40242 -1.500417,-8.28933 2.312994,-10.32518 2.31138,-1.23397 5.36871,-1.0186 7.57039,0.53329 l 1.58429,1.11671 2.91919,-0.65476 c 8.00837,-1.79624 9.64302,-2.20047 9.88994,-2.44568 0.14739,-0.14636 0.37149,-5.45572 0.498,-11.79855 0.22339,-11.20079 0.21061,-11.53231 -0.44437,-11.52793 -0.74849,0.005 -7.42409,1.64427 -11.25772,2.76446 l -2.46945,0.72157 -9.965968,-4.95668 c -8.643808,-4.29908 -10.881052,-5.58942 -9.691223,-5.58942 0.277893,0 6.181025,-0.85597 14.894691,-2.15978 2.61938,-0.39193 6.74688,-1.00852 9.17223,-1.37019 5.2456,-0.78223 9.90571,-1.60008 13.05277,-2.29075 6.20109,-1.36092 15.4571,-3.56438 19.45217,-4.63073 2.45251,-0.65462 4.7182,-1.19021 5.03487,-1.19021 0.51539,0 0.56569,0.69196 0.47978,6.60018 l -0.096,6.60018 -4.23334,0.79392 c -2.32833,0.43666 -5.66208,1.0532 -7.40833,1.37008 -1.74625,0.31688 -3.53219,0.65799 -3.96875,0.75803 l -0.79375,0.18187 v 8.60482 c 0,6.64892 0.10024,8.6047 0.44097,8.60432 0.24254,-2.6e-4 1.79035,-0.2479 3.43959,-0.5503 3.94928,-0.72414 10.74924,-1.85158 10.79906,-1.7905 0.0216,0.0265 0.14252,4.1197 0.26864,9.09594 l 0.22931,9.04772 -2.5617,0.54892 c -1.40894,0.30191 -4.82389,0.9846 -7.58879,1.51708 l -5.02708,0.96816 v 12.8984 12.89839 l -5.73264,0.97231 c -3.15295,0.53477 -5.8517,0.96977 -5.99722,0.96667 -0.14552,-0.003 -0.26458,-7.22876 -0.26458,-16.05703 0,-9.79194 -0.12942,-16.05138 -0.33188,-16.05138 -0.18254,0 -2.79197,0.635 -5.79875,1.41111 -3.00677,0.77611 -5.53897,1.41111 -5.6271,1.41111 -0.0881,0 -0.26918,0.43656 -0.40233,0.97014 -0.55677,2.23109 -3.02754,4.43096 -5.44927,4.8518 -1.12989,0.19634 -1.43613,0.51323 -2.8809,2.98094 l -1.61661,2.76124 0.63169,1.1853 c 0.76345,1.43255 0.83798,3.7836 0.17058,5.38092 -0.48287,1.15568 -0.46304,1.21005 1.24865,3.42167 l 1.73932,2.24734 2.77353,0.007 c 2.54572,0.006 2.89946,0.0978 4.30684,1.11727 2.13133,1.54388 3.12234,3.54766 3.12234,6.31327 0,1.89649 -0.15714,2.43008 -1.14653,3.89315 -2.10323,3.11021 -6.33641,4.27785 -9.4823,2.61551 z"
         id="path841"
         inkscape:connector-curvature="0" />
      <path
         style="fill:#c9ad69;fill-opacity:1;stroke-width:0.35277778;stroke:none"
         d="m 105.10283,203.95487 c -1.65481,-0.75159 -3.40934,-2.71918 -3.92606,-4.40281 -0.37598,-1.22505 -0.36312,-3.56097 0.0294,-5.33639 0.20313,-0.91883 -0.0345,-1.4023 -1.80275,-3.66791 -1.822952,-2.33569 -2.220519,-2.65596 -3.787941,-3.05145 -5.377628,-1.35688 -5.962755,-8.61925 -0.875346,-10.86447 1.489751,-0.65747 1.958604,-1.14175 3.457472,-3.57123 l 1.73401,-2.81061 -0.820959,-1.07633 c -2.595155,-3.40242 -1.500417,-8.28933 2.312994,-10.32518 2.31954,-1.23833 5.36796,-1.01912 7.58789,0.54563 l 1.6018,1.12905 3.07807,-0.70437 c 1.69294,-0.3874 4.50682,-1.0307 6.25307,-1.42955 1.74625,-0.39885 3.29559,-0.84492 3.44298,-0.99125 0.14739,-0.14634 0.37149,-5.45567 0.498,-11.7985 0.20784,-10.42102 0.17574,-11.53244 -0.33312,-11.53244 -1.03818,0 -5.3345,1.00733 -9.59042,2.2486 l -4.21867,1.23041 -9.980637,-4.94496 c -8.641178,-4.28132 -10.912912,-5.58961 -9.705884,-5.58961 0.277893,0 6.181025,-0.85597 14.894691,-2.15978 2.61938,-0.39193 6.74688,-1.00852 9.17223,-1.37019 5.24782,-0.78256 9.9074,-1.60038 13.05277,-2.29093 9.49183,-2.08387 16.02019,-3.64283 20.6375,-4.92816 4.88927,-1.36104 4.44071,-1.9524 4.32932,5.70758 l -0.096,6.60018 -4.23334,0.79392 c -2.32833,0.43666 -5.66208,1.0532 -7.40833,1.37008 -1.74625,0.31688 -3.53219,0.65799 -3.96875,0.75803 l -0.79375,0.18187 v 8.60482 c 0,6.64892 0.10024,8.6047 0.44097,8.60432 0.24254,-2.6e-4 1.79035,-0.2479 3.43959,-0.5503 3.94928,-0.72414 10.74924,-1.85158 10.79906,-1.7905 0.0216,0.0265 0.14252,4.1197 0.26864,9.09594 l 0.22931,9.04772 -2.5617,0.55218 c -1.40894,0.30369 -4.82389,0.97799 -7.58879,1.49844 l -5.02708,0.94626 v 12.91704 12.91703 l -5.73264,0.97231 c -3.15295,0.53477 -5.8517,0.96977 -5.99722,0.96667 -0.14552,-0.003 -0.26458,-7.22876 -0.26458,-16.05703 0,-9.79194 -0.12942,-16.05138 -0.33188,-16.05138 -0.18254,0 -2.79197,0.635 -5.79875,1.41111 -3.00677,0.77611 -5.53897,1.41111 -5.6271,1.41111 -0.0881,0 -0.26918,0.43656 -0.40233,0.97014 -0.54431,2.18114 -3.03805,4.38768 -5.47883,4.84784 -1.08253,0.20409 -1.43508,0.57047 -2.86018,2.97236 l -1.62545,2.73957 0.64052,1.20241 c 0.77613,1.45695 0.84849,3.79675 0.16778,5.4259 -0.49937,1.19516 -0.49163,1.21579 1.31741,3.50981 l 1.81973,2.30759 1.8102,-0.21276 c 4.7301,-0.55593 8.25499,2.65916 8.25499,7.52948 0,1.83343 -0.16508,2.38592 -1.14653,3.83726 -2.08557,3.08409 -5.92445,4.18193 -9.28537,2.65543 z"
         id="path839"
         inkscape:connector-curvature="0" />
    </g>
  </g>
</svg>
