<?xml version="1.0" encoding="UTF-8" standalone="no"?>
<svg
   xmlns:dc="http://purl.org/dc/elements/1.1/"
   xmlns:cc="http://creativecommons.org/ns#"
   xmlns:rdf="http://www.w3.org/1999/02/22-rdf-syntax-ns#"
   xmlns:svg="http://www.w3.org/2000/svg"
   xmlns="http://www.w3.org/2000/svg"
   xmlns:sodipodi="http://sodipodi.sourceforge.net/DTD/sodipodi-0.dtd"
   xmlns:inkscape="http://www.inkscape.org/namespaces/inkscape"
   version="1.0"
   width="404.96381pt"
   height="404.96381pt"
   viewBox="0 0 404.96381 404.96381"
   preserveAspectRatio="xMidYMid meet"
   id="svg8"
   sodipodi:docname="gnusocial.svg"
   inkscape:version="0.92.1 r"
   inkscape:export-filename="/home/max/Dokumente/FSFE/svn-test/graphics/icons/gnusocial.png"
   inkscape:export-xdpi="5.6900001"
   inkscape:export-ydpi="5.6900001">
  <defs
     id="defs12" />
  <sodipodi:namedview
     pagecolor="#ffffff"
     bordercolor="#666666"
     borderopacity="1"
     objecttolerance="10"
     gridtolerance="10"
     guidetolerance="10"
     inkscape:pageopacity="0"
     inkscape:pageshadow="2"
     inkscape:window-width="1366"
     inkscape:window-height="702"
     id="namedview10"
     showgrid="false"
     inkscape:zoom="0.357594"
     inkscape:cx="331.19743"
     inkscape:cy="116.40379"
     inkscape:window-x="0"
     inkscape:window-y="21"
     inkscape:window-maximized="1"
     inkscape:current-layer="g6"
     fit-margin-top="0"
     fit-margin-left="0"
     fit-margin-right="0"
     fit-margin-bottom="0" />
  <metadata
     id="metadata2">
Created by potrace 1.11, written by Peter Selinger 2001-2013
<rdf:RDF>
  <cc:Work
     rdf:about="">
    <dc:format>image/svg+xml</dc:format>
    <dc:type
       rdf:resource="http://purl.org/dc/dcmitype/StillImage" />
    <dc:title></dc:title>
  </cc:Work>
</rdf:RDF>
</metadata>
  <g
     transform="matrix(0.1,0,0,-0.1,-202.82422,625.96093)"
     id="g6"
     style="fill:#000000;stroke:none">
    <path
       style="fill:#a22430;fill-opacity:1;stroke:none;stroke-width:0.85048497;stroke-miterlimit:4;stroke-dasharray:none;stroke-opacity:1"
       d="m 3097.4241,6259.5948 c -16.5088,0.2666 -35.458,-3.1533 -53.833,-10.5908 -28,-11 -111.0049,-71.0088 -160.0049,-114.0088 -50,-45 -144.9971,-165.9952 -191.9971,-244.9951 -69,-116.0001 -86.0088,-187.9932 -84.0087,-342.9932 1.9999,-73 6.0048,-154.0069 10.0048,-182.0068 11,-74.0001 52.9981,-202.9942 82.9981,-248.9942 35,-57 107.9981,-132.0078 157.998,-163.0078 l 41.9971,-26.9971 -54.9902,-63.999 c -134.0001,-158 -227.9991,-369.9971 -258.9991,-581.9971 -3,-19 -7.0088,-41.0029 -9.0087,-48.0029 -23.0001,-68 -21.9894,-520.0059 1.0107,-636.0059 2,-11 6.9941,-33.9912 8.9941,-50.9912 7,-41 23,-125.0097 30,-155.0097 30,-147.0001 134.003,-400.9894 213.003,-523.9894 162,-252.9999 384.0039,-434 659.0039,-540 130.9999,-51 286.9902,-89.0117 414.9902,-102.0117 35.0001,-3 74.0079,-7.9903 88.0078,-9.9902 37.0001,-6 308,-5.0039 360,0.9961 106.0001,12.9999 189.9923,27.996 256.9923,45.996 378.9999,99.0001 669.0087,371.0108 819.0087,766.0108 32.0001,84 79.9893,269.9932 88.9893,342.9932 4,30 9.001,57.9961 11.001,60.9961 2,4 6.0088,49.0049 9.0088,100.0049 2.2865,39.6326 5.1423,83.6574 7.7051,112.6611 v 70.5762 c -0.231,0.6413 -0.4568,1.3478 -0.7028,1.7578 -10,15 -1284.0137,14 -1279.0137,0 2,-6 18.0058,-48.9912 36.0058,-95.9912 17.0001,-47 62.0049,-168 100.005,-270 l 68.9941,-185.0098 119.0039,3.999 c 65,2.0001 149.998,5.0098 187.9981,5.0098 l 70.0044,0.9961 -1.0107,-30 c -5,-114 -53.9951,-196.9971 -154.9951,-266.9971 -53,-36 -169.0039,-81.0068 -239.0039,-92.0068 -19,-3 -47.9951,-8.9971 -64.9951,-11.9971 -55,-11 -318.9971,-9.9932 -401.9971,2.0068 -261,38.0001 -439.0068,143.9893 -557.0069,328.9893 -55,86 -112.9902,243.0098 -129.9902,350.0098 -12,81 -17.002,113.9951 -22.0019,154.9951 -7.0001,60 -7.004,447.0029 0.996,513.0029 3,28 8.001,74.9971 11.001,101.9971 8,76 44.0049,202.9942 70.0049,248.9942 49,86 111.999,139.0039 213.999,179.0039 68,27 80.9932,30.0029 192.9932,48.0029 190,30 454.002,33.9981 577.002,7.998 96,-19.9999 249.9999,-85.998 300,-127.998 92,-78 127,-112.9961 165,-165.9961 51,-71 99,-160 120,-225 l 15.9961,-47.0068 182.0068,-1.9922 c 100,-2.0001 230.9951,-4.0098 289.9952,-5.0098 82.9999,-2 110.0087,0 114.0087,11.001 7,19 -24.0039,154.0078 -59.0039,253.0078 -60,170 -151.0058,327.9883 -261.0058,452.9883 -33,37 -58.001,70.0117 -56.001,72.0117 2,2 31.0098,22.9883 65.0097,47.9883 89.0001,65 152.9942,159.002 188.9942,277.002 24,80 30,138.0098 30,290.0097 0,131 -1.0029,136.9942 -33.0029,203.9942 -29.0001,63 -105.9961,194.001 -120.9961,206.001 -3,3 -25.0069,30 -47.0069,60 -60.9999,82 -191.9883,207.0019 -242.9883,232.0019 -33,16 -50.0049,18.9971 -70.0048,11.9971 -43.0001,-15 -37.9971,-45.998 33.0029,-187.998 81,-162 93.999,-220.004 93.999,-419.004 -1,-168 -6.0049,-202.9932 -40.0048,-252.9931 -19.0001,-28.0001 -36,-38.0088 -90,-54.0088 -77.0001,-24 -225.9923,-29.001 -271.9923,-11.001 -17,7 -63.0078,46.0117 -103.0078,87.0117 -40,41 -89.9912,81.9961 -110.9912,90.9961 -21,9 -73.0069,17.999 -122.0068,18.9991 -72,3 -92.9961,0 -135.9961,-19.9952 -27,-13 -62.0108,-34.0068 -76.0108,-47.0068 -27,-26 -67.998,-95.001 -67.998,-116.001 0,-25 -18.9903,-13.0039 -24.9903,15.9961 -7.9999,37 -54.998,97.0058 -97.998,126.0059 -70,47 -215.0068,57.0058 -302.0069,21.0058 -20,-9 -69.0029,-49 -108.0029,-90 -40,-41 -84.997,-80.0117 -101.9971,-87.0117 -38,-14 -174.9999,-13.9893 -240,1.0107 -81,18 -110.0068,36.9932 -137.0068,87.9932 -24,44 -24.9971,57.9971 -26.9971,206.9971 -3,218.9999 18.0059,309.0049 111.0059,475.0049 50,89 54.9981,108.0058 37.998,141.0058 -6.75,11.8125 -23.9355,18.2461 -45.1611,18.5889 z"
       id="rect4489"
       inkscape:connector-curvature="0" />
  </g>
</svg>
