<svg xmlns="http://www.w3.org/2000/svg" width="256" height="256"><path d="M242.313 153.47c-3.51 18.058-31.44 37.821-63.515 41.651-16.726 1.996-33.194 3.83-50.755 3.025-28.719-1.316-51.38-6.855-51.38-6.855 0 2.796.172 5.458.517 7.948 3.734 28.342 28.104 30.04 51.188 30.831 23.3.798 44.047-5.744 44.047-5.744l.957 21.064s-16.297 8.751-45.33 10.36c-16.008.88-35.886-.402-59.038-6.53-50.213-13.29-58.849-66.815-60.17-121.125-.403-16.125-.154-31.33-.154-44.046 0-55.534 36.386-71.812 36.386-71.812C63.413 3.81 94.894.267 127.622 0h.804c32.729.268 64.23 3.81 82.576 12.237 0 0 36.385 16.278 36.385 71.812 0 0 .456 40.973-5.074 69.42" fill="#2b90d9"/><path d="M204.469 88.357V155.6h-26.64V90.334c0-13.758-5.79-20.742-17.368-20.742-12.802 0-19.219 8.284-19.219 24.664v35.724H114.76V94.256c0-16.38-6.417-24.664-19.22-24.664-11.578 0-17.367 6.984-17.367 20.742V155.6h-26.64V88.357c0-13.743 3.499-24.664 10.528-32.743 7.247-8.08 16.74-12.222 28.522-12.222 13.633 0 23.957 5.24 30.783 15.72L128 70.237l6.637-11.123c6.825-10.481 17.148-15.72 30.782-15.72 11.782 0 21.274 4.141 28.523 12.22 7.028 8.08 10.527 19.001 10.527 32.744" fill="#fff"/></svg>