<?xml version="1.0" encoding="UTF-8" standalone="no"?>
<svg
   xmlns:dc="http://purl.org/dc/elements/1.1/"
   xmlns:cc="http://creativecommons.org/ns#"
   xmlns:rdf="http://www.w3.org/1999/02/22-rdf-syntax-ns#"
   xmlns:svg="http://www.w3.org/2000/svg"
   xmlns="http://www.w3.org/2000/svg"
   xmlns:sodipodi="http://sodipodi.sourceforge.net/DTD/sodipodi-0.dtd"
   xmlns:inkscape="http://www.inkscape.org/namespaces/inkscape"
   viewBox="0 0 512 512"
   version="1.1"
   id="svg4"
   sodipodi:docname="podcast.svg"
   width="512"
   height="512"
   inkscape:version="0.92.4 5da689c313, 2019-01-14">
  <metadata
     id="metadata10">
    <rdf:RDF>
      <cc:Work
         rdf:about="">
        <dc:format>image/svg+xml</dc:format>
        <dc:type
           rdf:resource="http://purl.org/dc/dcmitype/StillImage" />
        <dc:title></dc:title>
      </cc:Work>
    </rdf:RDF>
  </metadata>
  <defs
     id="defs8" />
  <sodipodi:namedview
     pagecolor="#ffffff"
     bordercolor="#666666"
     borderopacity="1"
     objecttolerance="10"
     gridtolerance="10"
     guidetolerance="10"
     inkscape:pageopacity="0"
     inkscape:pageshadow="2"
     inkscape:window-width="1920"
     inkscape:window-height="1010"
     id="namedview6"
     showgrid="false"
     inkscape:zoom="0.4609375"
     inkscape:cx="234.84746"
     inkscape:cy="256"
     inkscape:window-x="0"
     inkscape:window-y="23"
     inkscape:window-maximized="1"
     inkscape:current-layer="svg4" />
  <path
     d="M 299.429,488.563 C 294.286,507.573 274.858,512 256,512 237.143,512 217.714,507.573 212.572,488.563 204.927,460.134 192,388.898 192,355.75 192,320.594 223.142,312 256,312 c 32.858,0 64,8.594 64,43.75 0,32.949 -12.871,104.179 -20.571,132.813 z M 188.867,288.554 c -18.693,-18.308 -29.958,-44.173 -28.784,-72.599 2.054,-49.724 42.395,-89.956 92.124,-91.881 C 306.862,121.958 352,165.807 352,220 c 0,26.827 -11.064,51.116 -28.866,68.552 -2.675,2.62 -2.401,6.986 0.628,9.187 9.312,6.765 16.46,15.343 21.234,25.363 1.741,3.654 6.497,4.66 9.449,1.891 C 383.271,297.95 400.998,259.21 399.956,216.428 398.101,140.222 336.361,78.22 260.163,76.059 178.869,73.753 112,139.215 112,220 c 0,41.361 17.532,78.7 45.55,104.989 2.953,2.771 7.711,1.77 9.453,-1.887 4.774,-10.021 11.923,-18.598 21.235,-25.363 3.029,-2.2 3.304,-6.566 0.629,-9.185 z M 256,0 C 132.204,0 32,100.185 32,224 c 0,89.992 52.602,165.647 125.739,201.408 4.333,2.118 9.267,-1.544 8.535,-6.31 -2.382,-15.512 -4.342,-30.946 -5.406,-44.339 -0.146,-1.836 -1.149,-3.486 -2.678,-4.512 C 110.79,338.441 79.626,284.231 80.003,222.9 80.595,126.663 159.293,48.252 255.532,48.001 352.793,47.747 432,126.797 432,224 c 0,61.932 -32.158,116.49 -80.65,147.867 -0.999,14.037 -3.069,30.588 -5.624,47.23 -0.732,4.767 4.203,8.429 8.535,6.31 C 427.227,389.727 480,314.187 480,224 480,100.205 379.815,0 256,0 Z m 0,160 c -35.346,0 -64,28.654 -64,64 0,35.346 28.654,64 64,64 35.346,0 64,-28.654 64,-64 0,-35.346 -28.654,-64 -64,-64 z"
     id="path2"
     inkscape:connector-curvature="0"
     style="fill:#000000;fill-opacity:1" />
</svg>
