<?xml version="1.0" encoding="UTF-8" standalone="no"?>
<!-- Created with Inkscape (http://www.inkscape.org/) -->

<svg
   xmlns:dc="http://purl.org/dc/elements/1.1/"
   xmlns:cc="http://creativecommons.org/ns#"
   xmlns:rdf="http://www.w3.org/1999/02/22-rdf-syntax-ns#"
   xmlns:svg="http://www.w3.org/2000/svg"
   xmlns="http://www.w3.org/2000/svg"
   version="1.1"
   width="137.00008"
   height="49.816422"
   id="svg3016">
  <defs
     id="defs3018" />
  <metadata
     id="metadata3021">
    <rdf:RDF>
      <cc:Work
         rdf:about="">
        <dc:format>image/svg+xml</dc:format>
        <dc:type
           rdf:resource="http://purl.org/dc/dcmitype/StillImage" />
        <dc:title></dc:title>
      </cc:Work>
    </rdf:RDF>
  </metadata>
  <g
     transform="translate(-325.78563,-213.17255)"
     id="layer1">
    <g
       transform="translate(302.28571,197.67647)"
       id="g35"
       style="fill:#bac2e4;stroke:#4b5269;stroke-linejoin:round">
      <path
         d="m 24,16 0,12.8 33.6,0 0,-12.8 z m 0,18.4 V 64.8 H 38.4 V 47.2 H 57.6 V 34.4 z"
         id="path37" />
      <path
         d="m 68,16 17.6,0 c 33.6,0 33.6,48.8 0,48.8 H 68 V 34.4 h 14.4 v 18.4 c 17.6,0 17.6,-24 0,-24 H 68 z"
         id="path39" />
      <path
         d="m 120.8,64.8 0,-48.8 24,0 c 10.4,0 15.2,7.2 15.2,14.4 V 64.8 H 145.6 V 32 c 0,-1.6 -1.6,-3.2 -3.2,-3.2 h -7.2 v 36 z"
         id="path41" />
    </g>
  </g>
</svg>
