<?xml version="1.0" encoding="UTF-8" standalone="no"?>
<!-- Created with Inkscape (http://www.inkscape.org/) -->
<svg
   xmlns:dc="http://purl.org/dc/elements/1.1/"
   xmlns:cc="http://creativecommons.org/ns#"
   xmlns:rdf="http://www.w3.org/1999/02/22-rdf-syntax-ns#"
   xmlns:svg="http://www.w3.org/2000/svg"
   xmlns="http://www.w3.org/2000/svg"
   xmlns:xlink="http://www.w3.org/1999/xlink"
   xmlns:sodipodi="http://sodipodi.sourceforge.net/DTD/sodipodi-0.dtd"
   xmlns:inkscape="http://www.inkscape.org/namespaces/inkscape"
   width="112"
   height="33"
   id="svg3444"
   sodipodi:version="0.32"
   inkscape:version="0.46"
   version="1.0"
   sodipodi:docname="pdfreaders-free.et.prp-2012-01-25.svg"
   inkscape:output_extension="org.inkscape.output.svg.inkscape">
  <defs
     id="defs3446">
    <linearGradient
       id="linearGradient5271">
      <stop
         id="stop5273"
         offset="0"
         style="stop-color:#eeeeee;stop-opacity:1;" />
      <stop
         id="stop5275"
         offset="1"
         style="stop-color:#999999;stop-opacity:1;" />
    </linearGradient>
    <linearGradient
       inkscape:collect="always"
       xlink:href="#linearGradient5271"
       id="linearGradient5336"
       gradientUnits="userSpaceOnUse"
       gradientTransform="matrix(1,0,0,0.9677419,0,1.0322581)"
       x1="45.666668"
       y1="1"
       x2="45.833336"
       y2="32" />
    <linearGradient
       id="linearGradient4285">
      <stop
         style="stop-color:#eeeeee;stop-opacity:1;"
         offset="0"
         id="stop4287" />
      <stop
         style="stop-color:#666666;stop-opacity:1;"
         offset="1"
         id="stop4289" />
    </linearGradient>
    <linearGradient
       inkscape:collect="always"
       xlink:href="#linearGradient4285"
       id="linearGradient5333"
       gradientUnits="userSpaceOnUse"
       gradientTransform="matrix(1,0,0,0.9677419,0,3.22581e-2)"
       x1="45.666668"
       y1="1"
       x2="45.833336"
       y2="32" />
    <linearGradient
       id="linearGradient4396">
      <stop
         style="stop-color:#ffffff;stop-opacity:1;"
         offset="0"
         id="stop4398" />
      <stop
         style="stop-color:#dddddd;stop-opacity:1;"
         offset="1"
         id="stop4400" />
    </linearGradient>
    <linearGradient
       inkscape:collect="always"
       xlink:href="#linearGradient4396"
       id="linearGradient5330"
       gradientUnits="userSpaceOnUse"
       x1="53.333332"
       y1="9.5621643"
       x2="53.333332"
       y2="30.126698" />
    <filter
       inkscape:collect="always"
       id="filter5561"
       x="-0.16770186"
       width="1.3354037"
       y="-0.16770186"
       height="1.3354037">
      <feGaussianBlur
         inkscape:collect="always"
         stdDeviation="1.7468943"
         id="feGaussianBlur5563" />
    </filter>
    <linearGradient
       inkscape:collect="always"
       id="linearGradient5842">
      <stop
         style="stop-color:#000000;stop-opacity:1;"
         offset="0"
         id="stop5844" />
      <stop
         style="stop-color:#000000;stop-opacity:0;"
         offset="1"
         id="stop5846" />
    </linearGradient>
    <linearGradient
       inkscape:collect="always"
       xlink:href="#linearGradient5842"
       id="linearGradient5848"
       x1="17"
       y1="-28.505512"
       x2="17"
       y2="-3.494489"
       gradientUnits="userSpaceOnUse" />
    <linearGradient
       inkscape:collect="always"
       id="linearGradient5834">
      <stop
         style="stop-color:#333333;stop-opacity:1;"
         offset="0"
         id="stop5836" />
      <stop
         style="stop-color:#333333;stop-opacity:0;"
         offset="1"
         id="stop5838" />
    </linearGradient>
    <linearGradient
       inkscape:collect="always"
       xlink:href="#linearGradient5834"
       id="linearGradient5840"
       x1="17"
       y1="-28.505512"
       x2="17"
       y2="-3.494489"
       gradientUnits="userSpaceOnUse" />
    <linearGradient
       id="linearGradient3258">
      <stop
         id="stop3260"
         offset="0"
         style="stop-color:#6bb340;stop-opacity:1;" />
      <stop
         id="stop3262"
         offset="1"
         style="stop-color:#075000;stop-opacity:1;" />
    </linearGradient>
    <radialGradient
       inkscape:collect="always"
       xlink:href="#linearGradient3258"
       id="radialGradient5324"
       gradientUnits="userSpaceOnUse"
       gradientTransform="matrix(1.6626865,0,0,1.6551722,2.4925369,0.163247)"
       cx="1.5080793"
       cy="-1.9111292"
       fx="1.5080793"
       fy="-1.9111292"
       r="14.43447" />
  </defs>
  <sodipodi:namedview
     id="base"
     pagecolor="#ffffff"
     bordercolor="#666666"
     borderopacity="1.0"
     inkscape:pageopacity="0.0"
     inkscape:pageshadow="2"
     inkscape:zoom="4.9732144"
     inkscape:cx="71.697687"
     inkscape:cy="-2.9394349"
     inkscape:document-units="px"
     inkscape:current-layer="layer1"
     showgrid="false"
     inkscape:window-width="1680"
     inkscape:window-height="998"
     inkscape:window-x="0"
     inkscape:window-y="0"
     inkscape:window-maximized="1"
     showguides="false"
     inkscape:guide-bbox="true">
    <sodipodi:guide
       position="93.27208,21.611823"
       orientation="-7.96225,47.489137"
       id="guide2463" />
  </sodipodi:namedview>
  <metadata
     id="metadata3449">
    <rdf:RDF>
      <cc:Work
         rdf:about="">
        <dc:format>image/svg+xml</dc:format>
        <dc:type
           rdf:resource="http://purl.org/dc/dcmitype/StillImage" />
      </cc:Work>
    </rdf:RDF>
  </metadata>
  <g
     inkscape:label="Ebene 1"
     inkscape:groupmode="layer"
     id="layer1">
    <rect
       style="fill:#cccccc;fill-opacity:1;fill-rule:nonzero;stroke:#cccccc;stroke-width:0;stroke-linecap:butt;stroke-linejoin:bevel;marker:none;marker-start:none;marker-mid:none;marker-end:none;stroke-miterlimit:4;stroke-dasharray:none;stroke-dashoffset:0;stroke-opacity:1;visibility:visible;display:inline;overflow:visible;enable-background:accumulate"
       id="rect3278"
       width="112"
       height="33"
       x="0"
       y="7.1054274e-15"
       inkscape:export-filename="/home/mi/WORKS/FSFE_PDF_READERS/free_3.png"
       inkscape:export-xdpi="90"
       inkscape:export-ydpi="90" />
    <rect
       y="2"
       x="1"
       height="30"
       width="110"
       id="rect5211"
       style="fill:url(#linearGradient5336);fill-opacity:1;fill-rule:nonzero;stroke:#cccccc;stroke-width:0;stroke-linecap:butt;stroke-linejoin:bevel;marker:none;marker-start:none;marker-mid:none;marker-end:none;stroke-miterlimit:4;stroke-dasharray:none;stroke-dashoffset:0;stroke-opacity:1;visibility:visible;display:inline;overflow:visible;enable-background:accumulate"
       inkscape:export-filename="/home/mi/WORKS/FSFE_PDF_READERS/free_3.png"
       inkscape:export-xdpi="90"
       inkscape:export-ydpi="90" />
    <rect
       style="fill:url(#linearGradient5333);fill-opacity:1;fill-rule:nonzero;stroke:#cccccc;stroke-width:0;stroke-linecap:butt;stroke-linejoin:bevel;marker:none;marker-start:none;marker-mid:none;marker-end:none;stroke-miterlimit:4;stroke-dasharray:none;stroke-dashoffset:0;stroke-opacity:1;visibility:visible;display:inline;overflow:visible;enable-background:accumulate"
       id="rect4283"
       width="110"
       height="30"
       x="1"
       y="1"
       inkscape:export-filename="/home/mi/WORKS/FSFE_PDF_READERS/free_3.png"
       inkscape:export-xdpi="90"
       inkscape:export-ydpi="90" />
    <rect
       y="2"
       x="2"
       height="28"
       width="108"
       id="rect4249"
       style="fill:url(#linearGradient5330);fill-opacity:1;fill-rule:nonzero;stroke:#cccccc;stroke-width:0;stroke-linecap:butt;stroke-linejoin:bevel;marker:none;marker-start:none;marker-mid:none;marker-end:none;stroke-miterlimit:4;stroke-dasharray:none;stroke-dashoffset:0;stroke-opacity:1;visibility:visible;display:inline;overflow:visible;enable-background:accumulate"
       inkscape:export-filename="/home/mi/WORKS/FSFE_PDF_READERS/free_3.png"
       inkscape:export-xdpi="90"
       inkscape:export-ydpi="90" />
    <path
       style="fill:#7c7c7c;fill-opacity:1;fill-rule:nonzero;stroke-width:0.3407;stroke-linecap:butt;stroke-linejoin:miter;stroke-dasharray:none"
       id="path10"
       d="M 101.83525,4.2353164 C 101.83525,4.2353164 101.83525,8.6748055 101.83525,8.6748055 C 101.83525,8.6748055 99.5,8.6748055 99.5,8.6748055 C 99.5,8.6748055 103.8256,13 103.8256,13 C 103.8256,13 108.15014,8.6748055 108.15014,8.6748055 C 108.15014,8.6748055 105.81594,8.6748055 105.81594,8.6748055 C 105.81594,8.6748055 105.81594,4.2353164 105.81594,4.2353164 C 105.81594,4.2353164 101.83525,4.2353164 101.83525,4.2353164 z"
       inkscape:export-filename="/home/mi/WORKS/FSFE_PDF_READERS/free_3.png"
       inkscape:export-xdpi="90"
       inkscape:export-ydpi="90" />
    <rect
       style="fill:url(#linearGradient5840);fill-opacity:1;fill-rule:nonzero;stroke:url(#linearGradient5848);stroke-width:1;stroke-linecap:butt;stroke-linejoin:bevel;marker:none;marker-start:none;marker-mid:none;marker-end:none;stroke-miterlimit:4;stroke-dasharray:none;stroke-dashoffset:0;stroke-opacity:1;visibility:visible;display:inline;overflow:visible;filter:url(#filter5561);enable-background:accumulate"
       id="rect4404"
       width="23.999998"
       height="23.999998"
       x="5"
       y="-28"
       transform="matrix(0.9604191,0,0,-0.9395857,0.6728776,2.2166278)"
       inkscape:export-filename="/home/mi/WORKS/FSFE_PDF_READERS/free_3.png"
       inkscape:export-xdpi="90"
       inkscape:export-ydpi="90" />
    <rect
       transform="scale(1,-1)"
       y="-27"
       x="5"
       height="23.999998"
       width="23.999998"
       id="rect2462"
       style="fill:url(#radialGradient5324);fill-opacity:1;fill-rule:nonzero;stroke:#000000;stroke-width:0;stroke-linecap:butt;stroke-linejoin:bevel;marker:none;marker-start:none;marker-mid:none;marker-end:none;stroke-miterlimit:4;stroke-dasharray:none;stroke-dashoffset:0;stroke-opacity:1;visibility:visible;display:inline;overflow:visible;enable-background:accumulate"
       inkscape:export-filename="/home/mi/WORKS/FSFE_PDF_READERS/free_3.png"
       inkscape:export-xdpi="90"
       inkscape:export-ydpi="90" />
    <path
       style="fill:#ffffff;fill-rule:nonzero;stroke-width:0.3407;stroke-linecap:butt;stroke-linejoin:miter;stroke-dasharray:none"
       id="path14"
       d="M 11.661544,12.353383 C 11.661544,12.353383 11.484906,12.353383 11.484906,12.30856 C 11.484906,12.220677 12.367294,12.132795 12.412029,12.132795 C 13.51497,12.087971 14.573176,11.956148 15.676117,11.823442 C 18.720367,11.382265 24.235073,10.323265 24.235073,6.3087451 C 24.235073,6.0002657 24.14719,5.6469804 23.926602,5.4263922 C 23.793896,5.2945598 23.485426,5.338501 23.485426,5.161854 C 23.485426,5.1179128 23.617249,5.161854 23.661984,5.161854 C 23.661984,5.161854 24.014484,5.0739716 24.014484,5.0739716 C 24.014484,5.0739716 23.749867,5.2058039 23.749867,5.2058039 C 23.749867,5.2058039 23.264837,5.5590892 23.264837,5.5590892 C 22.779632,5.9563245 22.426337,6.397501 22.02919,6.8826186 C 20.926249,8.382795 19.999867,10.058736 19.161543,11.73556 C 17.661367,14.691089 14.000088,25.058735 9.9855939,25.058735 C 9.2350733,25.058735 8.5733086,24.573618 8.5733086,23.82397 C 8.5733086,20.382441 20.573749,15.352853 22.734896,15.352853 C 22.779632,15.352853 22.911543,15.352853 22.911543,15.396794 C 20.88222,16.235206 9.7650056,19.985206 9.7650056,23.735206 C 9.7650056,24.0885 9.9855939,24.440912 10.294073,24.617559 C 10.294073,24.617559 10.602553,24.794206 10.602553,24.794206 C 10.602553,24.794206 10.250132,24.838147 10.250132,24.838147 C 13.690823,24.838147 18.764308,4.9412657 24.14719,4.9412657 C 25.029543,4.9412657 25.42669,5.338501 25.42669,6.2208539 C 25.42669,11.338324 15.367558,12.353383 11.661544,12.353383 z"
       inkscape:export-filename="/home/mi/WORKS/FSFE_PDF_READERS/free_3.png"
       inkscape:export-xdpi="90"
       inkscape:export-ydpi="90" />
    <text
       inkscape:export-ydpi="90"
       inkscape:export-xdpi="90"
       inkscape:export-filename="/home/mi/WORKS/FSFE_PDF_READERS/free_3.png"
       id="text5804"
       y="14.639273"
       x="35.703583"
       style="font-size:8px;font-style:normal;font-weight:normal;fill:#000000;fill-opacity:1;stroke:none;font-family:Bitstream Vera Sans"
       xml:space="preserve"><tspan
         style="font-size:8px;font-weight:bold;fill:#4d4d4d;-inkscape-font-specification:Bitstream Vera Sans Bold"
         id="tspan5814"
         y="14.639273"
         x="35.703583"
         sodipodi:role="line">Hangi</tspan></text>
    <g
       id="g111994"
       transform="translate(-1.5978456,-31.166965)">
      <path
         sodipodi:nodetypes="cssssssssssssssss"
         id="path111981"
         d="M 66.756611,38.944331 C 66.597321,39.721826 66.734881,40.524 66.739531,41.311777 C 66.752331,43.478582 66.581541,45.654971 66.786651,47.817102 C 66.856011,48.548231 67.416581,47.207874 68.187871,46.125448 C 69.546311,44.219024 71.222421,42.562952 72.881281,40.919369 C 73.554171,40.252677 74.247911,39.603713 74.881221,38.9002 C 75.304901,38.429551 75.848661,37.416148 76.242981,37.553172 C 76.555181,37.661661 75.607511,38.578496 75.253591,38.962696 C 74.330851,39.981848 73.415301,40.904772 72.439581,41.872753 C 71.250201,43.044437 70.038471,44.357543 69.035691,45.695597 C 68.367351,46.587401 67.820751,47.452979 67.320211,48.434833 C 67.102781,48.86135 66.736001,49.498576 66.245551,49.44182 C 65.719611,49.380958 65.875441,48.497908 65.853031,48.034169 C 65.742991,45.757672 66.110061,43.476076 65.941821,41.193968 C 65.891311,40.50878 65.595291,39.875535 65.575511,39.213153 C 65.560581,38.713205 66.296631,38.013495 66.740171,38.430473 C 66.870631,38.553126 66.790701,38.777951 66.756611,38.944331 z"
         style="fill:#6ab340;fill-opacity:1;fill-rule:nonzero;stroke:#6ab340;stroke-width:0.2;stroke-linecap:butt;stroke-linejoin:miter;stroke-miterlimit:4;stroke-dasharray:none;stroke-opacity:1" />
      <path
         sodipodi:nodetypes="csssssssssssssssssssssssssssss"
         id="path111985"
         d="M 77.591541,43.876824 C 78.149921,42.959308 79.240401,42.560856 79.960981,41.791702 L 80.487811,41.229356 C 81.454331,40.197681 82.241971,38.951121 82.647351,37.592182 C 82.733501,37.303399 83.019691,36.496279 82.587211,36.563669 C 82.030401,36.65043 81.372061,37.382931 81.199391,37.528565 C 81.125041,37.591271 81.743271,36.948089 81.364121,37.378086 C 80.139781,38.787658 79.182651,40.424832 78.546511,42.180137 C 78.270821,42.935413 78.102821,43.733443 78.018851,44.533584 C 77.950461,45.18522 78.632461,45.007367 79.011301,44.825742 C 79.937751,44.381583 80.851711,43.86059 81.559731,43.106722 C 81.385241,43.287876 80.860851,43.823797 81.290511,43.344294 C 81.978661,42.576324 82.399211,41.584358 82.765601,40.641108 C 82.883651,40.33721 83.421531,40.158765 83.683271,39.867273 C 84.052731,39.480809 83.745651,40.271302 83.836761,40.47284 C 84.076611,41.003385 84.876031,40.701931 85.111111,41.13049 C 85.376191,41.613725 84.431171,41.79685 84.032491,41.81199 C 83.527761,41.831157 82.950591,41.675926 82.797741,41.10846 C 82.665971,40.619226 82.983291,40.332363 83.384031,40.174259 C 83.609491,40.085307 83.999761,39.576617 83.755551,40.104276 C 82.840791,42.080769 81.549061,43.981286 79.670781,45.122758 C 79.072021,45.486635 78.438811,45.850044 77.736841,45.975429 C 77.197021,46.071849 77.070661,45.466398 77.162481,45.047387 C 77.598271,43.058704 78.405771,41.156312 79.484091,39.436945 C 80.357441,38.044409 81.419581,36.736268 82.751361,35.748764 C 83.157121,35.447892 83.888311,35.488618 83.754031,36.128397 C 83.481861,37.425211 82.825791,38.604579 82.081471,39.683428 C 81.146291,41.038906 80.068031,42.265242 78.771401,43.211297 C 78.278911,43.570629 77.896391,44.171079 77.380761,44.401794 C 77.249921,44.460335 77.532171,43.974382 77.591541,43.876824 z"
         style="fill:#6ab340;fill-opacity:1;fill-rule:nonzero;stroke:#6ab340;stroke-width:0.2;stroke-linecap:butt;stroke-linejoin:miter;stroke-miterlimit:4;stroke-dasharray:none;stroke-opacity:1" />
      <path
         sodipodi:nodetypes="cssssssssssssssssssssssssssss"
         id="path111987"
         d="M 86.685011,41.712185 C 86.316801,41.679019 85.940341,41.762796 85.647051,41.990545 C 85.362061,42.211846 85.202391,42.523398 85.073951,42.845971 C 84.968101,43.111793 84.871431,43.492744 85.073481,43.705902 C 85.240341,43.88194 85.562951,43.738261 85.783791,43.668198 C 86.321611,43.45883 86.770251,43.076943 87.176801,42.677157 C 86.991771,42.875393 86.786751,43.098484 86.596391,43.265517 C 86.869441,42.974131 87.077091,42.629306 87.326891,42.320809 C 87.582971,42.00455 87.907391,41.71205 88.289881,41.566339 C 88.609391,41.444624 88.336041,41.882962 88.293161,42.021218 C 88.200111,42.246352 88.150421,42.513798 88.294511,42.730414 C 88.488481,43.039031 88.868391,43.145495 89.199881,43.238122 C 89.418871,43.29923 89.745761,43.494823 89.616991,43.755631 C 89.453151,44.087447 89.010541,44.137362 88.672731,44.114999 C 88.228181,44.059542 87.763401,43.922314 87.433591,43.605438 C 87.219911,43.3866 87.138981,43.064447 87.223571,42.770924 C 87.270971,42.50641 87.377361,42.259084 87.534671,42.041222 C 87.734151,41.764983 87.988451,41.419495 88.345211,41.408935 C 88.664771,41.399476 88.368281,41.813489 88.255601,41.943244 C 87.459461,42.860053 86.670891,43.831501 85.614101,44.459053 C 85.259561,44.66959 84.838351,44.847705 84.422221,44.776443 C 84.169751,44.733208 84.022781,44.485184 84.003461,44.228505 C 83.970191,43.786484 84.100441,43.356507 84.292121,42.971187 C 84.497881,42.557545 84.835441,42.223729 85.146201,41.884774 C 85.452641,41.572581 85.759751,41.245853 86.132741,41.018387 C 86.597501,40.73495 87.178261,40.838736 87.695721,40.887566 C 87.950131,40.911573 88.290261,40.960397 88.402881,41.210012 C 88.527411,41.486009 88.097721,41.611633 87.883671,41.661221 C 87.490501,41.743739 87.082951,41.748029 86.685011,41.712185 z"
         style="fill:#6ab340;fill-opacity:1;fill-rule:nonzero;stroke:#6ab340;stroke-width:0.2;stroke-linecap:butt;stroke-linejoin:miter;stroke-miterlimit:4;stroke-dasharray:none;stroke-opacity:1" />
      <path
         sodipodi:nodetypes="cssssssssssssssssssssssssssss"
         id="path111992"
         d="M 72.954371,44.016795 C 72.586161,43.983628 72.209701,44.067406 71.916411,44.295155 C 71.631421,44.516456 71.471751,44.828007 71.343311,45.15058 C 71.237461,45.416403 71.140791,45.797354 71.342841,46.010512 C 71.509701,46.186549 71.832311,46.042871 72.053151,45.972808 C 72.590971,45.763439 73.039611,45.381553 73.446161,44.981767 C 73.261131,45.180002 73.056111,45.403094 72.865751,45.570126 C 73.138801,45.278741 73.346451,44.933916 73.596251,44.625418 C 73.852331,44.30916 74.176751,44.01666 74.559241,43.870949 C 74.878751,43.749233 74.605401,44.187571 74.562521,44.325828 C 74.469471,44.550962 74.419781,44.818408 74.563871,45.035024 C 74.757841,45.343641 75.137751,45.450105 75.469241,45.542732 C 75.688231,45.603839 76.015121,45.799433 75.886351,46.060241 C 75.722511,46.392057 75.279901,46.441972 74.942091,46.419609 C 74.497541,46.364152 74.032761,46.226924 73.702951,45.910048 C 73.489271,45.69121 73.408341,45.369057 73.492931,45.075533 C 73.540331,44.81102 73.646721,44.563694 73.804031,44.345832 C 74.003511,44.069593 74.257811,43.724105 74.614571,43.713545 C 74.934131,43.704086 74.637641,44.118099 74.524961,44.247854 C 73.728821,45.164663 72.940251,46.136111 71.883461,46.763663 C 71.528921,46.9742 71.107711,47.152315 70.691581,47.081053 C 70.439111,47.037817 70.292141,46.789794 70.272821,46.533115 C 70.239551,46.091093 70.369801,45.661117 70.561481,45.275797 C 70.767241,44.862155 71.104801,44.528339 71.415561,44.189384 C 71.722001,43.877191 72.029111,43.550463 72.402101,43.322997 C 72.866861,43.03956 73.447621,43.143345 73.965081,43.192176 C 74.219491,43.216183 74.559621,43.265007 74.672241,43.514622 C 74.796771,43.790619 74.367081,43.916243 74.153031,43.965831 C 73.759861,44.048349 73.352311,44.052639 72.954371,44.016795 z"
         style="fill:#6ab340;fill-opacity:1;fill-rule:nonzero;stroke:#6ab340;stroke-width:0.2;stroke-linecap:butt;stroke-linejoin:miter;stroke-miterlimit:4;stroke-dasharray:none;stroke-opacity:1" />
    </g>
    <text
       xml:space="preserve"
       style="font-size:12px;font-style:normal;font-weight:normal;fill:#000000;fill-opacity:1;stroke:none;font-family:Bitstream Vera Sans"
       x="35.367645"
       y="23.573586"
       id="text5816"
       inkscape:export-filename="/home/mi/WORKS/FSFE_PDF_READERS/free_3.png"
       inkscape:export-xdpi="90"
       inkscape:export-ydpi="90"><tspan
         sodipodi:role="line"
         x="35.367645"
         y="23.573586"
         id="tspan5818"
         style="font-size:9px;font-weight:bold;fill:#075000;-inkscape-font-specification:Bitstream Vera Sans Bold">PDF-<tspan
   style="font-size:9px;fill:#000000;fill-opacity:1"
   id="tspan5824">LUGEJA</tspan></tspan><tspan
         sodipodi:role="line"
         x="35.367645"
         y="34.823586"
         id="tspan5826"
         style="font-size:8px;font-weight:bold;fill:#6ab340;-inkscape-font-specification:Bitstream Vera Sans Bold" /></text>
    <text
       xml:space="preserve"
       style="font-size:40px;font-style:normal;font-weight:normal;line-height:125%;letter-spacing:0px;word-spacing:0px;fill:#000000;fill-opacity:1;stroke:none;font-family:Sans"
       x="67.461403"
       y="14.903052"
       id="text3032"
       sodipodi:linespacing="125%"><tspan
         sodipodi:role="line"
         id="tspan3034" /></text>
  </g>
</svg>
