<?xml version="1.0" encoding="UTF-8" standalone="no"?>
<!-- Created with Inkscape (http://www.inkscape.org/) -->
<svg
   xmlns:dc="http://purl.org/dc/elements/1.1/"
   xmlns:cc="http://creativecommons.org/ns#"
   xmlns:rdf="http://www.w3.org/1999/02/22-rdf-syntax-ns#"
   xmlns:svg="http://www.w3.org/2000/svg"
   xmlns="http://www.w3.org/2000/svg"
   xmlns:xlink="http://www.w3.org/1999/xlink"
   xmlns:sodipodi="http://sodipodi.sourceforge.net/DTD/sodipodi-0.dtd"
   xmlns:inkscape="http://www.inkscape.org/namespaces/inkscape"
   width="112"
   height="33"
   id="svg3444"
   sodipodi:version="0.32"
   inkscape:version="0.46"
   version="1.0"
   sodipodi:docname="free_3.svg"
   inkscape:output_extension="org.inkscape.output.svg.inkscape">
  <defs
     id="defs3446">
    <linearGradient
       id="linearGradient5271">
      <stop
         id="stop5273"
         offset="0"
         style="stop-color:#eeeeee;stop-opacity:1;" />
      <stop
         id="stop5275"
         offset="1"
         style="stop-color:#999999;stop-opacity:1;" />
    </linearGradient>
    <linearGradient
       inkscape:collect="always"
       xlink:href="#linearGradient5271"
       id="linearGradient5336"
       gradientUnits="userSpaceOnUse"
       gradientTransform="matrix(1,0,0,0.9677419,0,1.0322581)"
       x1="45.666668"
       y1="1"
       x2="45.833336"
       y2="32" />
    <linearGradient
       id="linearGradient4285">
      <stop
         style="stop-color:#eeeeee;stop-opacity:1;"
         offset="0"
         id="stop4287" />
      <stop
         style="stop-color:#666666;stop-opacity:1;"
         offset="1"
         id="stop4289" />
    </linearGradient>
    <linearGradient
       inkscape:collect="always"
       xlink:href="#linearGradient4285"
       id="linearGradient5333"
       gradientUnits="userSpaceOnUse"
       gradientTransform="matrix(1,0,0,0.9677419,0,3.22581e-2)"
       x1="45.666668"
       y1="1"
       x2="45.833336"
       y2="32" />
    <linearGradient
       id="linearGradient4396">
      <stop
         style="stop-color:#ffffff;stop-opacity:1;"
         offset="0"
         id="stop4398" />
      <stop
         style="stop-color:#dddddd;stop-opacity:1;"
         offset="1"
         id="stop4400" />
    </linearGradient>
    <linearGradient
       inkscape:collect="always"
       xlink:href="#linearGradient4396"
       id="linearGradient5330"
       gradientUnits="userSpaceOnUse"
       x1="53.333332"
       y1="9.5621643"
       x2="53.333332"
       y2="30.126698" />
    <filter
       inkscape:collect="always"
       id="filter5561"
       x="-0.16770186"
       width="1.3354037"
       y="-0.16770186"
       height="1.3354037">
      <feGaussianBlur
         inkscape:collect="always"
         stdDeviation="1.7468943"
         id="feGaussianBlur5563" />
    </filter>
    <linearGradient
       inkscape:collect="always"
       id="linearGradient5842">
      <stop
         style="stop-color:#000000;stop-opacity:1;"
         offset="0"
         id="stop5844" />
      <stop
         style="stop-color:#000000;stop-opacity:0;"
         offset="1"
         id="stop5846" />
    </linearGradient>
    <linearGradient
       inkscape:collect="always"
       xlink:href="#linearGradient5842"
       id="linearGradient5848"
       x1="17"
       y1="-28.505512"
       x2="17"
       y2="-3.494489"
       gradientUnits="userSpaceOnUse" />
    <linearGradient
       inkscape:collect="always"
       id="linearGradient5834">
      <stop
         style="stop-color:#333333;stop-opacity:1;"
         offset="0"
         id="stop5836" />
      <stop
         style="stop-color:#333333;stop-opacity:0;"
         offset="1"
         id="stop5838" />
    </linearGradient>
    <linearGradient
       inkscape:collect="always"
       xlink:href="#linearGradient5834"
       id="linearGradient5840"
       x1="17"
       y1="-28.505512"
       x2="17"
       y2="-3.494489"
       gradientUnits="userSpaceOnUse" />
    <linearGradient
       id="linearGradient3258">
      <stop
         id="stop3260"
         offset="0"
         style="stop-color:#6bb340;stop-opacity:1;" />
      <stop
         id="stop3262"
         offset="1"
         style="stop-color:#075000;stop-opacity:1;" />
    </linearGradient>
    <radialGradient
       inkscape:collect="always"
       xlink:href="#linearGradient3258"
       id="radialGradient5324"
       gradientUnits="userSpaceOnUse"
       gradientTransform="matrix(1.6626865,0,0,1.6551722,2.4925369,0.163247)"
       cx="1.5080793"
       cy="-1.9111292"
       fx="1.5080793"
       fy="-1.9111292"
       r="14.43447" />
    <inkscape:perspective
       sodipodi:type="inkscape:persp3d"
       inkscape:vp_x="0 : 526.18109 : 1"
       inkscape:vp_y="0 : 1000 : 0"
       inkscape:vp_z="744.09448 : 526.18109 : 1"
       inkscape:persp3d-origin="372.04724 : 350.78739 : 1"
       id="perspective3452" />
  </defs>
  <sodipodi:namedview
     id="base"
     pagecolor="#ffffff"
     bordercolor="#666666"
     borderopacity="1.0"
     inkscape:pageopacity="0.0"
     inkscape:pageshadow="2"
     inkscape:zoom="4.9732143"
     inkscape:cx="56"
     inkscape:cy="16.5"
     inkscape:document-units="px"
     inkscape:current-layer="layer1"
     showgrid="false"
     inkscape:window-width="1274"
     inkscape:window-height="949"
     inkscape:window-x="0"
     inkscape:window-y="25" />
  <metadata
     id="metadata3449">
    <rdf:RDF>
      <cc:Work
         rdf:about="">
        <dc:format>image/svg+xml</dc:format>
        <dc:type
           rdf:resource="http://purl.org/dc/dcmitype/StillImage" />
      </cc:Work>
    </rdf:RDF>
  </metadata>
  <g
     inkscape:label="Ebene 1"
     inkscape:groupmode="layer"
     id="layer1">
    <rect
       style="fill:#cccccc;fill-opacity:1;fill-rule:nonzero;stroke:#cccccc;stroke-width:0;stroke-linecap:butt;stroke-linejoin:bevel;marker:none;marker-start:none;marker-mid:none;marker-end:none;stroke-miterlimit:4;stroke-dasharray:none;stroke-dashoffset:0;stroke-opacity:1;visibility:visible;display:inline;overflow:visible;enable-background:accumulate"
       id="rect3278"
       width="112"
       height="33"
       x="0"
       y="7.1054274e-15"
       inkscape:export-filename="/home/mi/WORKS/FSFE_PDF_READERS/free_3.png"
       inkscape:export-xdpi="90"
       inkscape:export-ydpi="90" />
    <rect
       y="2"
       x="1"
       height="30"
       width="110"
       id="rect5211"
       style="fill:url(#linearGradient5336);fill-opacity:1;fill-rule:nonzero;stroke:#cccccc;stroke-width:0;stroke-linecap:butt;stroke-linejoin:bevel;marker:none;marker-start:none;marker-mid:none;marker-end:none;stroke-miterlimit:4;stroke-dasharray:none;stroke-dashoffset:0;stroke-opacity:1;visibility:visible;display:inline;overflow:visible;enable-background:accumulate"
       inkscape:export-filename="/home/mi/WORKS/FSFE_PDF_READERS/free_3.png"
       inkscape:export-xdpi="90"
       inkscape:export-ydpi="90" />
    <rect
       style="fill:url(#linearGradient5333);fill-opacity:1;fill-rule:nonzero;stroke:#cccccc;stroke-width:0;stroke-linecap:butt;stroke-linejoin:bevel;marker:none;marker-start:none;marker-mid:none;marker-end:none;stroke-miterlimit:4;stroke-dasharray:none;stroke-dashoffset:0;stroke-opacity:1;visibility:visible;display:inline;overflow:visible;enable-background:accumulate"
       id="rect4283"
       width="110"
       height="30"
       x="1"
       y="1"
       inkscape:export-filename="/home/mi/WORKS/FSFE_PDF_READERS/free_3.png"
       inkscape:export-xdpi="90"
       inkscape:export-ydpi="90" />
    <rect
       y="2"
       x="2"
       height="28"
       width="108"
       id="rect4249"
       style="fill:url(#linearGradient5330);fill-opacity:1;fill-rule:nonzero;stroke:#cccccc;stroke-width:0;stroke-linecap:butt;stroke-linejoin:bevel;marker:none;marker-start:none;marker-mid:none;marker-end:none;stroke-miterlimit:4;stroke-dasharray:none;stroke-dashoffset:0;stroke-opacity:1;visibility:visible;display:inline;overflow:visible;enable-background:accumulate"
       inkscape:export-filename="/home/mi/WORKS/FSFE_PDF_READERS/free_3.png"
       inkscape:export-xdpi="90"
       inkscape:export-ydpi="90" />
    <path
       style="fill:#7c7c7c;fill-opacity:1;fill-rule:nonzero;stroke-width:0.3407;stroke-linecap:butt;stroke-linejoin:miter;stroke-dasharray:none"
       id="path10"
       d="M 101.83525,4.2353164 C 101.83525,4.2353164 101.83525,8.6748055 101.83525,8.6748055 C 101.83525,8.6748055 99.5,8.6748055 99.5,8.6748055 C 99.5,8.6748055 103.8256,13 103.8256,13 C 103.8256,13 108.15014,8.6748055 108.15014,8.6748055 C 108.15014,8.6748055 105.81594,8.6748055 105.81594,8.6748055 C 105.81594,8.6748055 105.81594,4.2353164 105.81594,4.2353164 C 105.81594,4.2353164 101.83525,4.2353164 101.83525,4.2353164 z"
       inkscape:export-filename="/home/mi/WORKS/FSFE_PDF_READERS/free_3.png"
       inkscape:export-xdpi="90"
       inkscape:export-ydpi="90" />
    <rect
       style="fill:url(#linearGradient5840);fill-opacity:1;fill-rule:nonzero;stroke:url(#linearGradient5848);stroke-width:1;stroke-linecap:butt;stroke-linejoin:bevel;marker:none;marker-start:none;marker-mid:none;marker-end:none;stroke-miterlimit:4;stroke-dasharray:none;stroke-dashoffset:0;stroke-opacity:1;visibility:visible;display:inline;overflow:visible;filter:url(#filter5561);enable-background:accumulate"
       id="rect4404"
       width="23.999998"
       height="23.999998"
       x="5"
       y="-28"
       transform="matrix(0.9604191,0,0,-0.9395857,0.6728776,2.2166278)"
       inkscape:export-filename="/home/mi/WORKS/FSFE_PDF_READERS/free_3.png"
       inkscape:export-xdpi="90"
       inkscape:export-ydpi="90" />
    <rect
       transform="scale(1,-1)"
       y="-27"
       x="5"
       height="23.999998"
       width="23.999998"
       id="rect2462"
       style="fill:url(#radialGradient5324);fill-opacity:1;fill-rule:nonzero;stroke:#000000;stroke-width:0;stroke-linecap:butt;stroke-linejoin:bevel;marker:none;marker-start:none;marker-mid:none;marker-end:none;stroke-miterlimit:4;stroke-dasharray:none;stroke-dashoffset:0;stroke-opacity:1;visibility:visible;display:inline;overflow:visible;enable-background:accumulate"
       inkscape:export-filename="/home/mi/WORKS/FSFE_PDF_READERS/free_3.png"
       inkscape:export-xdpi="90"
       inkscape:export-ydpi="90" />
    <path
       style="fill:#ffffff;fill-rule:nonzero;stroke-width:0.3407;stroke-linecap:butt;stroke-linejoin:miter;stroke-dasharray:none"
       id="path14"
       d="M 11.661544,12.353383 C 11.661544,12.353383 11.484906,12.353383 11.484906,12.30856 C 11.484906,12.220677 12.367294,12.132795 12.412029,12.132795 C 13.51497,12.087971 14.573176,11.956148 15.676117,11.823442 C 18.720367,11.382265 24.235073,10.323265 24.235073,6.3087451 C 24.235073,6.0002657 24.14719,5.6469804 23.926602,5.4263922 C 23.793896,5.2945598 23.485426,5.338501 23.485426,5.161854 C 23.485426,5.1179128 23.617249,5.161854 23.661984,5.161854 C 23.661984,5.161854 24.014484,5.0739716 24.014484,5.0739716 C 24.014484,5.0739716 23.749867,5.2058039 23.749867,5.2058039 C 23.749867,5.2058039 23.264837,5.5590892 23.264837,5.5590892 C 22.779632,5.9563245 22.426337,6.397501 22.02919,6.8826186 C 20.926249,8.382795 19.999867,10.058736 19.161543,11.73556 C 17.661367,14.691089 14.000088,25.058735 9.9855939,25.058735 C 9.2350733,25.058735 8.5733086,24.573618 8.5733086,23.82397 C 8.5733086,20.382441 20.573749,15.352853 22.734896,15.352853 C 22.779632,15.352853 22.911543,15.352853 22.911543,15.396794 C 20.88222,16.235206 9.7650056,19.985206 9.7650056,23.735206 C 9.7650056,24.0885 9.9855939,24.440912 10.294073,24.617559 C 10.294073,24.617559 10.602553,24.794206 10.602553,24.794206 C 10.602553,24.794206 10.250132,24.838147 10.250132,24.838147 C 13.690823,24.838147 18.764308,4.9412657 24.14719,4.9412657 C 25.029543,4.9412657 25.42669,5.338501 25.42669,6.2208539 C 25.42669,11.338324 15.367558,12.353383 11.661544,12.353383 z"
       inkscape:export-filename="/home/mi/WORKS/FSFE_PDF_READERS/free_3.png"
       inkscape:export-xdpi="90"
       inkscape:export-ydpi="90" />
    <g
       id="g5565"
       transform="matrix(0.9537426,0,0,0.9537426,0.8343712,1.2661157)"
       inkscape:export-xdpi="90"
       inkscape:export-ydpi="90"
       inkscape:export-filename="/home/mi/WORKS/FSFE_PDF_READERS/free_3.png">
      <g
         inkscape:export-ydpi="90"
         inkscape:export-xdpi="90"
         inkscape:export-filename="/home/mi/WORKS/FSFE_PDF_READERS/g80.png"
         id="g20"
         style="fill:#6ab340;fill-rule:nonzero;stroke:#6ab340;stroke-width:0.3407;stroke-linecap:butt;stroke-linejoin:miter;stroke-dasharray:none;stroke-opacity:1"
         transform="matrix(1.010291,-0.1998919,-0.1874935,1.3760635,72.267886,9.3316427)">
        <path
           style="stroke:#6ab340;stroke-opacity:1"
           id="path22"
           d="M 0.2705,2.20216 C 0.2158,2.20216 0,2.20216 0,2.14646 C 0,1.35546 4.7481,0 5.6113,0 C 5.9356,0 6.4756,0.11231 6.4756,0.56446 C 6.4756,2.08986 4.7481,4.12306 3.1299,4.12306 C 3.0762,4.12306 2.8604,4.12306 2.8604,4.06636 C 2.8604,2.20216 5.666,0.16896 7.2305,0.16896 C 8.417,0.16896 9.5508,1.18556 10.5762,1.63766 C 10.6299,1.80766 9.4424,1.91996 9.335,1.91996 C 9.335,1.91996 9.1191,1.86326 9.1191,1.86326 C 8.417,1.63766 7.7705,1.24216 7.1221,0.90336 C 7.1221,0.90336 6.3135,0.56446 6.3135,0.56446 C 6.3135,0.56446 6.043,0.50786 6.043,0.50786 C 6.043,0.50786 6.9063,0.39546 6.9063,0.39546 C 6.9063,0.39546 6.7988,0.50786 6.7988,0.50786 C 6.7988,0.50786 6.5293,0.67776 6.5293,0.67776 C 6.5293,0.67776 5.8818,1.35546 5.8818,1.35546 C 5.2881,2.08986 4.8027,2.99316 4.4248,3.89646 C 4.4248,3.89646 2.8604,4.00976 2.8604,4.00976 C 3.4531,3.33206 4.9102,1.75096 4.9102,0.73436 C 4.9102,0.39546 4.5322,0.33886 4.5322,0.33886 C 4.5322,0.33886 4.5869,0.33886 4.7481,0.33886 C 4.7481,0.33886 4.8565,0.33886 4.8565,0.33886 C 4.8565,0.33886 4.4785,0.45216 4.4785,0.45216 C 4.4785,0.45216 3.7774,0.73436 3.7774,0.73436 C 2.9678,1.07326 2.2666,1.52446 1.5107,1.97656 C 1.1875,2.20216 0.6475,2.20216 0.2705,2.20216 z" />
      </g>
      <g
         inkscape:export-ydpi="90"
         inkscape:export-xdpi="90"
         inkscape:export-filename="/home/mi/WORKS/FSFE_PDF_READERS/g80.png"
         id="g24"
         style="fill:#6ab340;fill-rule:nonzero;stroke:#6ab340;stroke-width:0.3407;stroke-linecap:butt;stroke-linejoin:miter;stroke-dasharray:none;stroke-opacity:1"
         transform="matrix(1.010291,-0.1998919,-0.1874935,1.3760635,81.383921,7.4932201)">
        <path
           style="stroke:#6ab340;stroke-opacity:1"
           id="path26"
           d="M 0.7021,1.86326 C 0.7021,1.35546 2.8057,1.80766 3.0762,1.86326 C 3.0762,1.86326 3.3457,1.86326 3.3457,1.86326 C 3.3457,1.86326 3.4531,1.86326 3.4531,1.86326 C 3.831,1.86326 5.0185,1.35546 5.0185,0.84666 C 5.0185,0.50786 4.3711,0.39546 4.1006,0.33886 C 4.1006,0.33886 4.3711,0.33886 4.3711,0.33886 C 3.4531,0.28226 1.5654,2.08986 1.5654,3.10646 C 1.5654,3.72756 2.2666,3.84086 2.6982,3.84086 C 4.1553,3.84086 5.4502,3.04976 6.9062,3.04976 C 6.9062,3.04976 7.123,3.04976 7.123,3.10646 C 7.123,3.10646 6.9609,3.21876 6.9609,3.21876 C 5.2881,3.72756 3.4531,4.17966 1.6728,4.17966 C 1.0791,4.17966 0,4.12306 0,3.27536 C 0,1.18556 3.5615,0 5.0185,0 C 5.3955,0 6.583,0.11231 6.583,0.67776 C 6.583,1.80766 3.0762,2.20216 2.4287,2.20216 C 2.1045,2.20216 0.7021,2.03316 0.7021,1.86326 z" />
      </g>
      <g
         inkscape:export-ydpi="90"
         inkscape:export-xdpi="90"
         inkscape:export-filename="/home/mi/WORKS/FSFE_PDF_READERS/g80.png"
         id="g28"
         style="fill:#6ab340;fill-rule:nonzero;stroke:#6ab340;stroke-width:0.3407;stroke-linecap:butt;stroke-linejoin:miter;stroke-dasharray:none;stroke-opacity:1"
         transform="matrix(1.010291,-0.1998919,-0.1874935,1.3760635,88.204235,6.7097334)">
        <path
           style="stroke:#6ab340;stroke-opacity:1"
           id="path30"
           d="M 0.7021,1.86326 C 0.7021,1.35546 2.8057,1.80766 3.0762,1.86326 C 3.0762,1.86326 3.3457,1.86326 3.3457,1.86326 C 3.3457,1.86326 3.4531,1.86326 3.4531,1.86326 C 3.831,1.86326 5.0185,1.35546 5.0185,0.84666 C 5.0185,0.50786 4.3711,0.39546 4.1006,0.33886 C 4.1006,0.33886 4.3711,0.33886 4.3711,0.33886 C 3.4531,0.28226 1.5654,2.08986 1.5654,3.10646 C 1.5654,3.72756 2.2666,3.84086 2.6982,3.84086 C 4.1553,3.84086 5.4502,3.04976 6.9072,3.04976 C 6.9072,3.04976 7.1767,3.04976 7.1767,3.10646 C 7.1767,3.10646 6.9609,3.21876 6.9609,3.21876 C 5.2881,3.72756 3.4531,4.17966 1.6728,4.17966 C 1.0791,4.17966 0,4.12306 0,3.27536 C 0,1.18556 3.5615,0 5.0185,0 C 5.3955,0 6.583,0.11231 6.583,0.67776 C 6.583,1.80766 3.0762,2.20216 2.4287,2.20216 C 2.1045,2.20216 0.7021,2.03316 0.7021,1.86326 z" />
      </g>
      <g
         inkscape:export-ydpi="90"
         inkscape:export-xdpi="90"
         inkscape:export-filename="/home/mi/WORKS/FSFE_PDF_READERS/g80.png"
         id="g16"
         style="fill:#6ab340;fill-rule:nonzero;stroke:#6ab340;stroke-width:0.3407;stroke-linecap:butt;stroke-linejoin:miter;stroke-dasharray:none;stroke-opacity:1"
         transform="matrix(0.9629365,0,0,0.9629365,62.185963,3.296747)">
        <path
           style="stroke:#6ab340;stroke-opacity:1"
           id="path18"
           d="M 2.5899,6.3252 C 2.5899,6.3252 2.3741,6.38184 2.3741,6.26856 C 2.3741,6.15625 3.3995,6.04297 3.5069,6.04297 C 6.2588,5.87403 12.5713,5.25293 12.5713,1.24219 C 12.5713,0.95997 12.5176,0.73438 12.3555,0.50782 C 12.3018,0.39551 12.0323,0.45215 12.0323,0.28223 C 12.0323,0.28223 12.3555,0.28223 12.3555,0.28223 C 12.3555,0.28223 12.8956,0.16895 12.8956,0.16895 C 12.8956,0.16895 12.6797,0.28223 12.6797,0.28223 C 12.6797,0.28223 12.3018,0.56446 12.3018,0.56446 C 11.9239,0.90333 11.6543,1.29883 11.3311,1.75098 C 10.4678,2.99317 9.712,4.40528 9.0108,5.81739 C 7.6612,8.69725 5.0723,17 1.2413,17 C 0.6475,17 0,16.6611 0,15.9834 C 0,13.6113 7.0137,9.77055 9.1729,9.77055 C 9.2266,9.77055 9.4424,9.77055 9.4424,9.82715 C 7.7696,10.7305 1.5108,13.1025 1.5108,15.8701 C 1.5108,16.1524 1.6729,16.3789 1.8887,16.5479 C 1.8887,16.5479 2.2657,16.7177 2.2657,16.7177 C 2.2657,16.6611 2.1045,16.7177 2.0498,16.7177 C 2.0498,16.7177 1.4024,16.7744 1.4024,16.7744 C 5.6114,14.5146 7.7159,0 12.9493,0 C 13.6504,0 14.1368,0.28223 14.1368,1.07325 C 14.1368,5.53516 5.503,6.3252 2.5899,6.3252 z" />
      </g>
    </g>
    <text
       inkscape:export-ydpi="90"
       inkscape:export-xdpi="90"
       inkscape:export-filename="/home/mi/WORKS/FSFE_PDF_READERS/free_3.png"
       id="text5804"
       y="14.639273"
       x="35.703583"
       style="font-size:8px;font-style:normal;font-weight:normal;fill:#000000;fill-opacity:1;stroke:none;stroke-width:1px;stroke-linecap:butt;stroke-linejoin:miter;stroke-opacity:1;font-family:Bitstream Vera Sans"
       xml:space="preserve"><tspan
         style="font-size:8px;font-weight:bold;fill:#4d4d4d;-inkscape-font-specification:Bitstream Vera Sans Bold"
         id="tspan5814"
         y="14.639273"
         x="35.703583"
         sodipodi:role="line">Get a</tspan></text>
    <text
       xml:space="preserve"
       style="font-size:12px;font-style:normal;font-weight:normal;fill:#000000;fill-opacity:1;stroke:none;stroke-width:1px;stroke-linecap:butt;stroke-linejoin:miter;stroke-opacity:1;font-family:Bitstream Vera Sans"
       x="35.367645"
       y="23.573586"
       id="text5816"
       inkscape:export-filename="/home/mi/WORKS/FSFE_PDF_READERS/free_3.png"
       inkscape:export-xdpi="90"
       inkscape:export-ydpi="90"><tspan
         sodipodi:role="line"
         x="35.367645"
         y="23.573586"
         id="tspan5818"
         style="font-size:9px;font-weight:bold;fill:#075000;-inkscape-font-specification:Bitstream Vera Sans Bold">PDF <tspan
   style="font-size:9px;fill:#000000;fill-opacity:1"
   id="tspan5824">READER</tspan></tspan><tspan
         sodipodi:role="line"
         x="35.367645"
         y="34.823586"
         id="tspan5826"
         style="font-size:8px;font-weight:bold;fill:#6ab340;-inkscape-font-specification:Bitstream Vera Sans Bold" /></text>
  </g>
</svg>
