<?xml version="1.0" encoding="UTF-8" standalone="no"?>
<!-- Created with Inkscape (http://www.inkscape.org/) -->
<svg
   xmlns:dc="http://purl.org/dc/elements/1.1/"
   xmlns:cc="http://creativecommons.org/ns#"
   xmlns:rdf="http://www.w3.org/1999/02/22-rdf-syntax-ns#"
   xmlns:svg="http://www.w3.org/2000/svg"
   xmlns="http://www.w3.org/2000/svg"
   xmlns:sodipodi="http://sodipodi.sourceforge.net/DTD/sodipodi-0.dtd"
   xmlns:inkscape="http://www.inkscape.org/namespaces/inkscape"
   width="444.21875"
   height="140.40625"
   id="svg2"
   sodipodi:version="0.32"
   inkscape:version="0.46"
   sodipodi:docname="cwfs-1.0.0-original-0-degree.svg"
   inkscape:output_extension="org.inkscape.output.svg.inkscape"
   version="1.0">
  <defs
     id="defs4">
    <inkscape:perspective
       sodipodi:type="inkscape:persp3d"
       inkscape:vp_x="0 : 526.18109 : 1"
       inkscape:vp_y="0 : 1000 : 0"
       inkscape:vp_z="744.09448 : 526.18109 : 1"
       inkscape:persp3d-origin="372.04724 : 350.78739 : 1"
       id="perspective10" />
  </defs>
  <sodipodi:namedview
     id="base"
     pagecolor="#ffffff"
     bordercolor="#666666"
     borderopacity="1.0"
     gridtolerance="10000"
     guidetolerance="10"
     objecttolerance="10"
     inkscape:pageopacity="0.0"
     inkscape:pageshadow="2"
     inkscape:zoom="0.35"
     inkscape:cx="566.87511"
     inkscape:cy="508.39907"
     inkscape:document-units="px"
     inkscape:current-layer="layer1"
     showgrid="false"
     inkscape:window-width="1680"
     inkscape:window-height="997"
     inkscape:window-x="0"
     inkscape:window-y="0" />
  <metadata
     id="metadata7">
    <rdf:RDF>
      <cc:Work
         rdf:about="">
        <dc:format>image/svg+xml</dc:format>
        <dc:type
           rdf:resource="http://purl.org/dc/dcmitype/StillImage" />
        <dc:title>CREATED WITH FREE SOFTWARE</dc:title>
        <dc:date>2010-02-01</dc:date>
        <dc:creator>
          <cc:Agent>
            <dc:title>Sebastian Pipping</dc:title>
          </cc:Agent>
        </dc:creator>
        <cc:license
           rdf:resource="http://creativecommons.org/licenses/by-sa/3.0/" />
        <dc:language>English</dc:language>
        <dc:subject>
          <rdf:Bag>
            <rdf:li>freedom free software open source foss floss licensing</rdf:li>
          </rdf:Bag>
        </dc:subject>
      </cc:Work>
      <cc:License
         rdf:about="http://creativecommons.org/licenses/by-sa/3.0/">
        <cc:permits
           rdf:resource="http://creativecommons.org/ns#Reproduction" />
        <cc:permits
           rdf:resource="http://creativecommons.org/ns#Distribution" />
        <cc:requires
           rdf:resource="http://creativecommons.org/ns#Notice" />
        <cc:requires
           rdf:resource="http://creativecommons.org/ns#Attribution" />
        <cc:permits
           rdf:resource="http://creativecommons.org/ns#DerivativeWorks" />
        <cc:requires
           rdf:resource="http://creativecommons.org/ns#ShareAlike" />
      </cc:License>
    </rdf:RDF>
  </metadata>
  <g
     inkscape:label="Layer 1"
     inkscape:groupmode="layer"
     id="layer1"
     transform="translate(27.68817,-556.09213)">
    <g
       id="g3482"
       transform="translate(410.08929,-297.85194)">
      <g
         transform="translate(0,-1.0000044)"
         id="g3486" />
    </g>
    <g
       id="g3750"
       transform="translate(413.03613,-155.91374)" />
    <path
       style="font-size:40px;font-style:normal;font-weight:normal;fill:#d40000;fill-opacity:1;stroke:none;stroke-width:1px;stroke-linecap:butt;stroke-linejoin:miter;stroke-opacity:1;font-family:Bitstream Vera Sans"
       d="M -4.594425,556.09213 C -7.623854,556.09213 -10.51091,556.64344 -13.15692,557.65463 C -12.93291,558.27823 -12.71206,558.90152 -12.50068,559.52963 C -12.45041,559.87178 -12.42299,560.21829 -12.37568,560.56088 C -13.05999,560.05585 -13.75551,559.56636 -14.43817,559.06088 C -14.67025,558.88903 -14.8954,558.70394 -15.12567,558.52963 C -17.87085,559.87955 -20.31429,561.72121 -22.28192,563.96713 C -20.58949,564.16826 -18.90123,564.41335 -17.21942,564.68588 C -16.13229,565.48828 -15.0552,566.31905 -13.96942,567.12338 C -11.26689,565.09551 -7.851336,563.87338 -4.125675,563.87338 L 18.436825,563.87338 C 18.383656,563.15448 18.330816,562.43734 18.311825,561.71713 C 18.825954,561.89363 19.345768,562.05355 19.874325,562.21713 C 20.059209,562.27435 20.248544,562.37862 20.436825,562.46713 C 20.512854,562.93726 20.584019,563.40247 20.655575,563.87338 L 40.311825,563.87338 C 40.346279,563.58973 40.370814,563.28573 40.405575,562.99838 C 42.648123,562.19244 42.270646,561.9734 41.030575,561.84213 C 41.081002,561.79898 41.104068,561.76094 41.155575,561.71713 C 41.473028,561.44711 41.231178,560.91526 41.155575,560.46713 C 41.411852,560.71198 41.677564,560.94595 41.968075,560.84213 C 43.292109,560.36899 44.315802,560.05251 45.186825,559.74838 C 45.74503,560.17904 46.302379,560.61829 46.874325,561.02963 C 46.27188,561.37157 45.706046,561.73251 45.186825,562.06088 C 44.891673,562.24754 45.046115,562.59347 45.280575,562.96713 C 45.139099,563.14031 45.003724,563.3163 44.874325,563.49838 C 44.788375,563.61932 44.743612,563.74287 44.686825,563.87338 L 51.905575,563.87338 C 51.888573,563.65918 51.861044,563.39236 51.843075,563.15463 C 51.87909,563.13962 51.901299,563.13814 51.936825,563.12338 C 52.094563,563.22366 51.908442,563.09972 52.093075,563.21713 C 52.407047,563.37436 52.787213,563.62138 53.186825,563.87338 L 79.218074,563.87338 C 79.242637,563.38621 79.269742,562.89093 79.311824,562.40463 C 79.871275,562.87673 80.404029,563.36706 80.936824,563.87338 L 81.843074,563.87338 C 82.16749,563.65659 82.507205,563.49655 82.749324,563.46713 C 82.582602,563.60578 82.413256,563.73187 82.249324,563.87338 L 128.87432,563.87338 C 129.1543,563.71671 129.43582,563.55661 129.71807,563.40463 C 129.76544,562.89524 129.78067,562.3835 129.81182,561.87338 C 130.05944,562.16032 130.33504,562.44724 130.62432,562.59213 C 130.85081,562.70555 131.15993,562.82075 131.37432,562.68588 C 131.93785,562.33137 132.49859,561.98303 133.06182,561.62338 C 133.00277,562.36972 132.96019,563.12655 132.90557,563.87338 L 138.87432,563.87338 C 138.96184,562.36647 139.03161,560.84524 139.15557,559.34213 C 140.16378,560.87901 141.19355,562.39285 142.28057,563.87338 L 156.99932,563.87338 C 156.9338,563.81417 156.87712,563.74535 156.81182,563.68588 C 157.54128,563.10944 158.24015,562.49001 158.87432,561.81088 C 159.40296,561.24479 159.0402,560.27288 159.03057,559.49838 C 159.01212,558.01341 158.86897,557.0721 158.68682,556.09213 L 151.84307,556.09213 C 151.90617,556.36105 151.97086,556.63486 152.03057,556.90463 C 152.20081,557.91375 152.35455,558.63026 152.46807,559.37338 C 152.36784,559.26583 152.25521,559.16892 152.15557,559.06088 C 151.30476,558.06446 150.47461,557.07984 149.65557,556.09213 L 123.65557,556.09213 C 123.65421,556.18659 123.65675,556.27891 123.65557,556.37338 C 123.49283,556.49154 123.34249,556.60896 123.18682,556.71713 C 123.19555,556.47431 123.20168,556.2718 123.24932,556.18588 C 123.27389,556.14159 123.3314,556.10617 123.40557,556.09213 L 122.40557,556.09213 C 122.14716,556.24221 121.81252,556.43224 121.43682,556.65463 C 121.14319,556.03566 120.58482,556.3581 119.18682,557.68588 C 118.94578,557.15489 118.7081,556.6236 118.46807,556.09213 L 111.12432,556.09213 C 111.31807,556.51062 111.52808,556.92189 111.71807,557.34213 C 111.35751,557.65874 110.97167,557.98559 110.49932,558.37338 C 109.08342,558.78982 108.40481,559.06823 108.28057,559.27963 C 107.27734,559.74711 106.70786,560.50462 105.68682,561.74838 C 105.63378,562.22461 105.57428,562.67792 105.53057,563.15463 C 105.41883,563.03648 105.29776,562.92976 105.18682,562.81088 C 105.32763,560.57194 105.45094,558.33378 105.56182,556.09213 L 74.874325,556.09213 C 74.824817,556.27257 74.769629,556.44026 74.718075,556.62338 C 74.681011,556.82403 74.661561,557.01804 74.624325,557.21713 C 74.505167,556.84268 74.373867,556.46457 74.249325,556.09213 L 19.093075,556.09213 L 3.968075,556.09213 C 6.449484,557.11259 8.943364,558.13277 11.436825,559.12338 C 11.340574,559.33002 11.251564,559.54166 11.155575,559.74838 C 10.906933,560.3001 10.638248,560.85552 10.374325,561.40463 C 9.551921,561.10738 8.750695,560.72821 7.999325,560.49838 C 6.771051,559.97983 5.436266,559.82132 4.186825,559.40463 C 3.675464,558.81353 3.193811,558.18656 2.718075,557.56088 C 2.634955,557.07343 2.545254,556.58062 2.468075,556.09213 L -4.594425,556.09213 z M 163.03058,556.09213 C 162.14397,556.63028 161.25524,557.18178 160.34308,557.65463 C 159.67992,559.65648 159.49515,561.75331 159.31182,563.87338 L 165.31183,563.87338 C 165.33506,563.67594 165.35253,563.47728 165.37433,563.27963 C 165.51211,563.47551 165.64297,563.6774 165.78058,563.87338 L 188.65558,563.87338 C 186.88827,562.78831 185.11505,561.7553 183.28058,560.77963 C 182.29289,560.3648 181.44986,559.51721 180.40558,559.21713 C 180.88946,558.94731 181.36173,558.67896 181.84308,558.40463 C 182.10181,558.68109 182.37114,558.89239 182.68683,558.77963 C 183.19398,559.13619 183.70874,559.48748 184.21808,559.84213 C 186.99774,561.51705 186.79637,561.71369 191.28058,556.34213 C 191.30387,556.32607 191.30303,556.29376 191.31183,556.27963 C 191.68825,556.21795 192.06058,556.1549 192.43683,556.09213 L 178.18683,556.09213 C 177.42967,556.51183 176.68622,556.94103 175.93683,557.37338 C 175.82372,557.21597 175.70682,557.06161 175.59308,556.90463 C 175.59588,556.87385 175.59027,556.84166 175.59308,556.81088 C 175.62966,556.42223 175.629,556.38014 175.65558,556.09213 L 163.03058,556.09213 z M 192.65558,556.09213 C 194.19096,557.82799 195.66614,559.65441 197.28058,561.27963 C 197.50512,561.45194 197.69201,561.63758 197.93683,561.77963 C 198.48349,562.09676 199.16396,562.05014 199.74933,562.27963 C 199.80117,562.29996 199.85512,562.33817 199.90558,562.37338 C 199.94736,562.87476 199.9729,563.37338 200.03058,563.87338 L 206.65558,563.87338 C 206.56163,563.16881 206.46092,562.45117 206.37433,561.71713 C 206.78792,562.53641 207.19003,563.35277 207.37433,563.74838 C 207.39409,563.7908 207.41708,563.83095 207.43683,563.87338 L 217.93683,563.87338 C 217.93785,563.81116 217.93588,563.7481 217.93683,563.68588 C 217.96537,562.83246 217.96533,561.9813 217.99933,561.12338 C 219.2601,561.75789 220.52589,562.38766 221.74933,563.09213 C 222.17923,563.35068 222.59924,563.61714 223.03058,563.87338 L 231.87433,563.87338 C 232.83254,563.32032 233.54139,562.639 233.56183,561.81088 C 233.57648,561.21757 233.45618,560.6173 233.34308,560.02963 C 236.61265,560.99598 236.26179,560.81533 241.43683,556.09213 L 226.53058,556.09213 C 226.5704,556.97732 226.59937,557.86422 226.65558,558.74838 C 224.87705,557.80578 223.05278,556.91518 221.21808,556.09213 L 192.65558,556.09213 z M 243.53058,556.09213 C 244.19525,557.66673 244.87515,559.24627 245.56183,560.81088 C 246.28548,562.39444 246.71417,563.43303 247.21808,563.87338 L 248.46808,563.87338 C 248.48771,563.86206 248.51052,563.85432 248.53058,563.84213 C 248.53412,563.85114 248.52704,563.86437 248.53058,563.87338 L 276.53058,563.87338 C 273.52728,562.04325 270.62499,560.07043 267.78058,557.99838 C 267.81328,557.84212 267.84112,557.68577 267.87433,557.52963 C 271.32892,559.52637 274.75399,561.59273 278.03058,563.87338 L 294.87433,563.87338 C 294.96497,563.55407 295.05206,563.22484 295.06183,563.18588 C 295.54126,561.27267 295.84365,559.32363 296.12433,557.37338 C 296.19837,556.88511 296.2492,556.51082 296.31183,556.09213 L 243.53058,556.09213 z M 298.18683,556.09213 C 299.2618,557.22406 300.28135,558.421 301.28058,559.62338 C 301.52168,561.04212 301.75807,562.46035 302.03058,563.87338 L 320.84308,563.87338 C 319.73483,561.2702 318.64308,558.69494 317.59308,556.34213 C 318.22818,556.79167 318.87052,557.22745 319.49933,557.68588 C 320.51027,558.41773 321.52007,559.14094 322.53058,559.87338 C 321.88869,561.14577 321.3787,562.54949 320.93683,563.87338 L 326.49933,563.87338 C 326.63202,563.37467 326.75819,562.91525 326.90558,562.59213 C 327.05255,562.15911 327.19781,561.71824 327.34308,561.27963 C 327.98961,562.13325 328.58567,563.01007 329.21808,563.87338 L 349.15558,563.87338 C 348.07636,562.6103 347.05797,561.30447 346.03058,559.99838 C 345.90954,558.86299 345.79772,557.73182 345.71808,556.59213 C 345.70841,556.38222 345.69673,556.28313 345.68683,556.09213 L 310.68683,556.09213 C 310.99652,556.69748 311.32279,557.29505 311.62433,557.90463 C 310.98909,558.2132 310.39217,558.4748 309.90558,558.68588 C 309.87378,558.65445 309.84362,558.62338 309.81183,558.59213 C 309.33773,558.12618 308.89274,557.60716 308.43683,557.12338 C 308.13331,556.77927 307.83386,556.43684 307.53058,556.09213 L 298.18683,556.09213 z M 352.24933,556.09213 C 352.37513,556.22001 352.49432,556.30153 352.65558,556.24838 C 352.85672,556.18207 352.9656,556.15393 353.15558,556.09213 L 352.24933,556.09213 z M 354.18683,556.09213 C 354.85153,557.25486 355.46892,558.46145 356.18683,559.59213 C 356.99855,561.00163 357.80063,562.60426 358.90558,563.87338 L 364.62433,563.87338 C 364.95589,563.73664 365.27129,563.58971 365.53058,563.46713 C 365.61283,563.54525 365.70098,563.64701 365.78058,563.71713 C 365.84955,563.77789 365.92696,563.81694 365.99933,563.87338 L 368.49933,563.87338 C 368.8787,563.59507 369.26971,563.3302 369.65558,563.06088 C 369.65876,563.07024 369.6524,563.08277 369.65558,563.09213 C 369.48432,563.32299 369.28374,563.53805 369.06183,563.71713 C 369.00611,563.7621 368.87637,563.81858 368.78058,563.87338 L 369.43683,563.87338 C 369.58304,563.81295 369.7281,563.74628 369.87433,563.68588 C 369.89578,563.74856 369.9153,563.81073 369.93683,563.87338 L 382.71808,563.87338 C 382.89283,563.37251 383.0696,562.86627 383.28058,562.27963 C 383.47973,561.76696 383.63949,561.35297 383.81183,560.90463 C 384.38559,561.90492 384.96468,562.88559 385.56183,563.87338 L 392.93683,563.87338 C 401.73085,563.87336 408.81183,570.59967 408.81183,578.96713 L 408.81183,673.62338 C 408.8118,681.99081 401.73086,688.71713 392.93683,688.71713 L 366.56183,688.71713 C 366.666,689.8079 366.69562,690.86298 366.46808,692.09213 C 366.44359,692.22442 366.36784,692.39549 366.28058,692.56088 C 365.38266,692.39286 364.47085,692.31294 363.59308,692.06088 C 362.07727,691.62554 360.56594,691.00522 359.12433,690.24838 C 360.10729,689.98446 361.1425,689.38466 362.12433,688.71713 L 337.62433,688.71713 C 337.79902,688.83939 337.98125,688.93194 338.21808,688.93588 C 338.37463,688.93849 338.47366,688.93437 338.62433,688.93588 C 338.67561,689.34863 338.81089,689.57781 339.12433,689.43588 C 339.47586,689.2767 339.82722,689.08674 340.18683,688.90463 C 340.42483,688.89968 340.7172,688.91323 340.93683,688.90463 C 339.88721,689.56427 338.5269,690.7495 336.15558,692.09213 C 336.13676,692.11364 336.11147,692.13283 336.09308,692.15463 C 335.8989,691.13418 335.72854,690.11215 335.53058,689.09213 C 335.50896,688.96744 335.48975,688.84181 335.46808,688.71713 L 324.93683,688.71713 C 324.78334,689.18701 324.5685,689.79625 324.46808,690.09213 C 324.053,691.31522 323.65301,692.53218 323.21808,693.74838 C 323.05966,693.51611 322.92445,693.33903 322.78058,693.12338 C 322.85549,692.53022 322.92375,691.93521 322.99933,691.34213 C 322.95715,691.29225 322.91651,691.23575 322.87433,691.18588 C 322.92526,691.16256 322.9794,691.146 323.03058,691.12338 C 323.13285,690.32177 323.23977,689.51861 323.34308,688.71713 L 304.99933,688.71713 C 305.0114,688.85174 305.0191,688.98934 305.03058,689.12338 C 305.18588,690.93611 305.32109,692.74756 305.46808,694.56088 C 305.42079,694.58802 305.39124,694.62722 305.34308,694.65463 C 304.76645,694.28482 304.00558,693.783 303.65558,693.56088 C 303.01808,693.14165 302.38619,692.73109 301.74933,692.31088 C 302.05862,692.07882 302.37893,691.85134 302.71808,691.62338 C 303.00195,691.43257 302.8832,690.94511 302.99933,690.62338 C 303.15273,690.19839 303.36119,689.79225 303.53058,689.37338 C 303.61976,689.15218 303.71686,688.9355 303.81183,688.71713 L 298.74933,688.71713 C 298.73827,688.73765 298.72911,688.7591 298.71808,688.77963 C 298.29275,688.76588 297.83074,688.98881 297.24933,689.37338 C 296.91538,689.15686 296.58345,688.93338 296.24933,688.71713 L 285.34308,688.71713 C 285.36274,688.7294 285.38592,688.73611 285.40558,688.74838 C 284.53631,689.37414 284.07986,690.03501 283.46808,691.31088 C 282.68797,691.64311 281.91191,691.97085 281.37433,692.21713 C 281.35354,692.18968 281.29852,692.14562 281.28058,692.12338 C 280.57653,690.99718 279.90098,689.85614 279.21808,688.71713 L 243.40558,688.71713 C 244.31739,689.6529 245.24163,690.56545 246.12433,691.52963 C 246.1701,691.65024 246.20138,691.78362 246.24933,691.90463 C 245.53152,692.47085 245.09806,693.04452 244.81183,693.81088 C 244.18063,692.83355 243.52218,691.87081 242.87433,690.90463 C 242.61469,690.51181 241.93985,689.47988 241.40558,688.71713 L 171.99933,688.71713 C 171.78929,690.73209 171.58653,692.72866 171.40558,694.74838 C 170.65454,695.12997 169.90823,695.53072 169.15558,695.90463 C 168.9921,695.9673 168.8251,696.05039 168.65558,696.12338 C 168.61285,696.04028 168.57304,695.95662 168.53058,695.87338 C 162.54339,684.13502 168.65095,695.79708 164.99933,688.71713 L 16.561825,688.71713 C 16.522915,689.34247 16.503093,689.96656 16.468075,690.59213 C 16.047107,690.82667 15.664538,691.07525 15.311825,691.34213 C 14.991747,691.04235 14.656641,690.73576 14.311825,690.46713 C 14.077825,690.34954 13.871426,690.21016 13.624325,690.12338 C 13.308044,690.01234 13.000756,689.93756 12.686825,689.90463 C 12.434478,689.50701 12.175217,689.12287 11.936825,688.71713 L -4.125675,688.71713 C -4.400185,688.71713 -4.667167,688.69883 -4.938175,688.68588 C -4.876942,689.00796 -4.809511,689.33201 -4.750675,689.65463 L -7.094425,690.96713 C -7.009186,691.15865 -6.952833,691.36694 -6.875675,691.56088 C -6.960754,691.43639 -7.040502,691.31098 -7.125675,691.18588 C -7.117006,691.11286 -7.102675,691.04021 -7.094425,690.96713 C -7.076767,690.81072 -7.04757,690.65509 -7.031925,690.49838 C -7.024187,689.86658 -6.930068,689.12309 -7.063175,688.43588 C -14.44671,687.13557 -20.00067,681.03686 -20.00067,673.62338 L -20.00067,578.96713 C -20.00068,574.29147 -17.79858,570.13688 -14.31317,567.37338 C -14.97354,567.22383 -15.64351,567.17835 -16.31317,567.24838 C -16.76014,567.7291 -17.16212,568.15401 -17.53192,568.49838 C -17.40645,568.1096 -17.24924,567.73582 -17.06317,567.37338 C -17.9894,567.55267 -18.92612,567.88078 -19.84442,568.21713 C -19.55519,567.88107 -19.23774,567.49205 -18.84442,567.06088 C -18.35377,566.71378 -17.8665,566.37523 -17.37567,566.02963 C -17.24587,565.93824 -17.68736,566.069 -17.84442,566.09213 C -17.87557,566.09221 -17.90702,566.09209 -17.93817,566.09213 C -17.91476,566.06764 -17.8994,566.05437 -17.87567,566.02963 C -17.56046,565.70093 -18.74253,566.01428 -19.21942,566.06088 C -20.71035,566.03419 -22.2004,565.96547 -23.68817,565.81088 C -26.20414,569.36978 -27.68817,573.66278 -27.68817,578.31088 L -27.68817,580.71713 C -26.83623,580.94117 -25.88977,581.01564 -25.15692,581.49838 C -25.06014,581.56213 -25.3554,581.63391 -25.46942,581.65463 C -26.28625,582.26552 -26.16119,583.25139 -25.25067,583.71713 C -25.01725,583.83653 -24.75041,583.88727 -24.50067,583.96713 C -24.47014,583.9728 -24.43748,583.96166 -24.40692,583.96713 C -24.28971,584.41638 -24.1721,584.8598 -24.06317,585.31088 C -24.06646,585.8648 -24.06057,586.4132 -24.06317,586.96713 C -25.27386,587.48734 -26.4837,588.02749 -27.68817,588.56088 L -27.68817,590.40463 C -26.48116,589.89292 -25.27214,589.37983 -24.06317,588.87338 C -24.0656,589.2709 -24.0598,589.66337 -24.06317,590.06088 C -24.06264,590.34183 -24.06383,590.62369 -24.06317,590.90463 C -24.35708,591.0738 -24.66318,591.25927 -24.87567,591.40463 C -24.94761,591.14792 -25.02955,590.88155 -25.09442,590.62338 C -25.9365,591.08435 -26.80687,591.4998 -27.68817,591.90463 L -27.68817,674.27963 C -27.68818,686.59135 -17.38925,696.49839 -4.594425,696.49838 L 27.343075,696.49838 C 27.432281,696.26557 27.533056,696.04286 27.624325,695.81088 C 27.721977,695.77493 27.811825,695.72347 27.905575,695.68588 C 28.248918,695.95868 28.59143,696.22763 28.936825,696.49838 L 44.968075,696.49838 C 44.915584,695.9774 44.894999,695.45262 44.811825,694.93588 C 44.76146,694.623 44.625724,694.03907 44.530575,693.56088 C 44.902503,693.18385 45.238209,692.74071 45.561825,692.27963 C 45.805404,692.59597 46.044633,692.91713 46.280575,693.24838 C 46.960459,694.27506 47.485537,695.40013 48.030575,696.49838 L 56.436825,696.49838 C 56.861628,696.24417 57.29685,696.00789 57.718075,695.74838 C 57.816355,695.68784 58.027651,695.41231 58.280575,695.06088 C 59.291682,694.63029 60.211724,693.86508 61.655575,692.34213 C 62.094864,692.93509 62.53766,693.52357 62.968075,694.12338 C 63.345605,694.57983 63.894045,695.33206 64.436825,695.65463 C 64.931575,695.94863 65.593735,696.0836 66.124325,695.74838 C 68.190576,694.44295 69.529796,693.7279 70.468075,693.21713 C 71.72148,694.32824 72.994185,695.4236 74.280575,696.49838 L 84.718074,696.49838 C 84.644185,696.44825 84.572987,696.39259 84.499324,696.34213 C 84.746333,696.02577 84.96747,695.68707 85.218074,695.37338 C 85.287148,695.28692 85.367438,695.20959 85.436824,695.12338 C 85.503339,695.15844 85.590722,695.21414 85.655574,695.24838 C 85.738593,695.40552 85.821746,695.56042 85.905574,695.71713 C 85.903782,695.97647 85.909753,696.23904 85.905574,696.49838 L 103.74932,696.49838 C 103.77841,696.38395 103.81368,696.26898 103.84307,696.15463 C 104.21825,696.11294 104.59228,696.06579 104.96807,696.02963 C 105.77129,695.95234 106.56982,695.90574 107.37432,695.84213 C 107.49423,696.05676 107.59719,696.28427 107.71807,696.49838 L 171.03058,696.49838 C 171.11434,696.4569 171.19673,696.41464 171.28058,696.37338 C 171.2767,696.41474 171.28448,696.45702 171.28058,696.49838 L 176.93683,696.49838 C 177.01129,695.59281 177.07809,694.68491 177.15558,693.77963 C 177.45761,693.6612 177.7585,693.55018 178.06183,693.43588 C 178.68723,693.92962 179.32438,694.40582 179.96808,694.87338 C 180.59835,695.33118 181.16397,696.26135 181.90558,696.24838 C 181.94525,696.33246 181.99084,696.41433 182.03058,696.49838 L 192.49933,696.49838 C 192.34726,695.70973 192.19792,694.91495 192.06183,694.12338 C 192.273,694.8125 192.46378,695.50179 192.68683,696.18588 C 192.76774,696.31097 192.83397,696.38707 192.90558,696.49838 L 195.93683,696.49838 C 196.32185,696.1209 196.81076,695.68177 197.37433,695.12338 C 197.54074,695.60685 197.70469,696.05507 197.87433,696.49838 L 205.24933,696.49838 C 205.79989,696.02807 206.18309,695.71332 206.56183,695.37338 C 206.95014,695.72381 207.30332,696.10204 207.65558,696.49838 L 280.31183,696.49838 C 280.25779,696.42781 280.20936,696.3504 280.15558,696.27963 C 280.3443,696.20095 280.51592,696.16376 280.68683,696.09213 C 280.86192,696.25771 281.03326,696.40957 281.21808,696.49838 L 282.84308,696.49838 C 283.75072,696.16823 284.68717,695.39165 285.62433,694.56088 C 285.67084,695.20559 285.71178,695.85007 285.74933,696.49838 L 296.71808,696.49838 C 296.62775,696.36248 296.52566,696.22909 296.43683,696.09213 C 296.3675,695.98107 296.37588,695.97554 296.31183,695.87338 C 296.60574,696.07829 296.89417,696.29168 297.18683,696.49838 L 328.78058,696.49838 C 328.97342,696.32878 329.10897,696.22663 329.18683,696.18588 C 329.20712,696.09391 329.22849,695.99657 329.24933,695.90463 C 329.36182,696.1031 329.48461,696.29742 329.59308,696.49838 L 338.46808,696.49838 C 338.57253,696.4468 338.67602,696.39349 338.78058,696.34213 C 338.75492,696.37662 338.69853,696.44365 338.62433,696.49838 L 339.53058,696.49838 C 339.59371,696.45861 339.65481,696.41292 339.71808,696.37338 C 339.91082,695.9579 340.05693,695.55081 340.21808,695.12338 C 341.95259,695.64784 343.20535,695.27361 344.15558,694.46713 C 344.44838,695.11328 344.63982,695.82999 344.90558,696.49838 L 354.99933,696.49838 C 354.98724,696.3204 354.97957,696.11874 354.96808,695.93588 C 355.20662,696.12475 355.44871,696.30897 355.68683,696.49838 L 393.43683,696.49838 C 400.23407,696.49837 406.31208,693.68433 410.53058,689.21713 C 410.53411,689.00817 410.52721,688.80109 410.53058,688.59213 C 410.69539,688.62495 410.86523,688.65262 411.03058,688.68588 C 414.46487,684.80961 416.53057,679.79693 416.53058,674.27963 L 416.53058,604.43588 C 415.6375,603.51074 414.75708,602.589 413.87433,601.65463 C 413.69198,598.93854 413.5154,596.21513 413.34308,593.49838 C 413.55093,594.60456 413.66266,595.29811 413.93683,595.56088 C 413.94155,595.60362 413.96359,595.64311 413.96808,595.68588 C 413.99453,595.93801 413.75457,596.60381 413.96808,596.46713 C 414.96799,595.82698 415.80184,595.32383 416.53058,594.90463 L 416.53058,578.31088 C 416.53057,572.94027 414.58362,568.01857 411.31183,564.18588 C 410.98535,564.18818 410.67476,564.19873 410.40558,564.21713 C 410.24195,563.76843 410.06872,563.32225 409.90558,562.87338 C 409.87219,562.77986 409.84521,562.68565 409.81183,562.59213 C 409.80121,562.58187 409.79122,562.57112 409.78058,562.56088 C 405.60649,558.54516 399.83422,556.09213 393.43683,556.09213 L 392.96808,556.09213 C 392.94957,556.20494 392.95714,556.18696 392.93683,556.31088 C 392.62889,557.7771 392.35112,559.27658 392.06183,560.74838 C 391.98047,560.61945 391.8588,560.49786 391.78058,560.37338 C 390.90403,558.97839 390.12737,557.53845 389.34308,556.09213 L 382.15558,556.09213 C 380.85341,557.15383 379.85792,558.14273 379.84308,558.15463 C 379.27984,558.60647 379.19472,559.46168 378.90558,560.12338 C 378.26264,561.59478 377.87749,562.59853 377.43683,563.77963 C 376.94656,562.65014 376.5242,561.50532 376.12433,560.34213 C 376.27922,560.12523 376.46484,559.91136 376.59308,559.71713 C 377.37065,558.53941 378.04222,557.31306 378.74933,556.09213 L 354.18683,556.09213 z M -17.06317,567.37338 C -16.81117,567.3246 -16.56469,567.27468 -16.31317,567.24838 C -16.04534,566.96032 -15.76544,566.6565 -15.46942,566.31088 C -15.07143,565.84617 -16.74411,566.73971 -17.03192,567.27963 C -17.04727,567.30843 -17.04828,567.34437 -17.06317,567.37338 z M 323.03058,691.12338 C 323.02127,691.19637 323.00863,691.26913 322.99933,691.34213 C 323.00865,691.35315 323.02126,691.36236 323.03058,691.37338 C 323.03207,691.28729 323.10932,691.08859 323.03058,691.12338 z M 381.43683,557.68588 C 381.31345,557.74951 381.18644,557.81395 381.06183,557.87338 C 380.92214,557.94 381.19927,557.76728 381.43683,557.68588 z M 58.311825,557.99838 C 58.533797,558.31411 58.755135,558.64517 58.968075,558.96713 C 58.715457,558.81687 58.469936,558.64992 58.218075,558.49838 C 58.243234,558.41877 58.253455,558.36478 58.280575,558.27963 C 58.297382,558.18675 58.29582,558.09163 58.311825,557.99838 z M 42.624325,559.77963 C 42.605727,559.81331 42.587783,559.84436 42.561825,559.87338 C 42.459065,559.98825 41.993745,560.14276 42.124325,560.06088 C 42.284793,559.96028 42.461432,559.87676 42.624325,559.77963 z M 256.53058,560.40463 C 256.52231,560.53153 256.49141,560.6634 256.43683,560.77963 C 256.32517,561.01741 255.46687,561.11863 255.65558,560.93588 C 255.82281,560.77392 255.99949,560.61291 256.18683,560.46713 C 256.30427,560.44247 256.4137,560.43255 256.53058,560.40463 z M 326.74933,561.37338 C 326.73108,561.52125 326.72362,561.66809 326.68683,561.71713 C 326.54152,561.91085 325.78883,561.88 325.96808,561.71713 C 326.04977,561.64292 326.13172,561.56842 326.21808,561.49838 C 326.39845,561.46163 326.57047,561.41766 326.74933,561.37338 z M -5.500675,561.59213 C -5.125393,561.79217 -4.748663,561.98168 -4.375675,562.18588 C -4.318689,562.35142 -4.276409,562.52048 -4.219425,562.68588 C -5.062631,562.48658 -5.904005,562.30826 -6.750675,562.12338 C -6.050422,561.93402 -5.686794,561.83882 -5.500675,561.59213 z M 157.90557,562.43588 C 157.95796,562.47787 157.18215,563.01992 156.84307,563.06088 C 156.75426,563.07161 156.64992,563.06747 156.56182,563.06088 C 156.97514,562.83435 157.38281,562.6338 157.81182,562.46713 C 157.8573,562.44946 157.89809,562.42988 157.90557,562.43588 z M -24.75067,570.40463 C -24.70731,570.41131 -24.66892,570.42918 -24.62567,570.43588 C -24.81404,570.51622 -25.00119,570.60136 -25.18817,570.68588 C -25.03844,570.59862 -24.90035,570.49198 -24.75067,570.40463 z M -23.46942,570.43588 C -23.42688,570.44384 -23.38466,570.42853 -23.34442,570.43588 C -23.57662,570.55651 -23.79805,570.69293 -24.03192,570.81088 C -23.84324,570.68832 -23.65811,570.55844 -23.46942,570.43588 z M 23.374325,581.90463 C 17.828604,581.90468 13.459258,583.8953 10.218075,587.87338 C 8.049881,590.52185 6.623358,593.82229 5.905575,597.74838 C 5.923129,598.08385 5.942341,598.41312 5.968075,598.74838 C 5.978497,598.8845 5.988182,599.01859 5.999325,599.15463 C 5.935522,600.03172 5.879227,600.93869 5.843075,601.59213 C 5.813234,600.64195 5.74953,599.69871 5.718075,598.74838 C 5.473775,600.40397 5.343075,602.15883 5.343075,604.02963 C 5.343075,610.82486 6.976879,616.20773 10.218075,620.18588 C 10.801506,620.89854 11.403722,621.57025 12.061825,622.15463 C 12.744023,621.7477 13.432822,621.34519 14.124325,620.96713 C 14.211261,621.92317 14.299322,622.88823 14.405575,623.84213 C 16.958399,625.36464 19.935268,626.12338 23.374325,626.12338 C 24.109182,626.12338 24.850209,626.08171 25.561825,625.99838 C 25.434778,624.66478 25.297424,623.33367 25.186825,621.99838 C 26.068718,621.53626 26.903844,621.00828 27.749325,620.46713 C 27.718537,620.67565 27.686216,620.88359 27.655575,621.09213 C 27.599953,621.47065 27.012054,624.4944 27.186825,625.74838 C 27.709804,625.63686 28.239558,625.50103 28.749325,625.34213 C 30.459107,624.80917 32.07955,624.01401 33.655575,622.96713 L 33.655575,622.62338 C 33.593113,622.65878 33.558719,622.65587 33.530575,622.59213 C 33.571955,622.57124 33.614141,622.55039 33.655575,622.52963 L 33.655575,621.59213 C 33.583418,621.63485 33.508961,621.67437 33.436825,621.71713 C 33.431844,621.57136 33.443527,621.47072 33.436825,621.27963 C 33.400545,620.24545 33.487506,619.21805 33.561825,618.18588 C 33.587445,617.83005 33.627321,617.47897 33.655575,617.12338 L 33.655575,614.15463 C 32.064686,615.54413 30.5143,616.53874 28.968075,617.18588 C 27.421798,617.83306 25.802857,618.15464 24.093075,618.15463 C 21.03028,618.15464 18.597462,616.91718 16.843075,614.40463 C 15.088651,611.89213 14.218065,608.42652 14.218075,604.02963 C 14.218065,599.61372 15.088653,596.16716 16.843075,593.65463 C 18.59746,591.14215 21.03028,589.87343 24.093075,589.87338 C 25.802857,589.87342 27.421796,590.195 28.968075,590.84213 C 30.514302,591.48934 32.064686,592.51516 33.655575,593.90463 L 33.655575,585.09213 C 32.091397,584.05315 30.476506,583.28122 28.780575,582.74838 C 28.624286,582.88448 28.464883,583.01801 28.311825,583.15463 C 28.303462,582.96729 28.28912,582.77947 28.280575,582.59213 C 26.711495,582.15023 25.06666,581.90469 23.374325,581.90463 z M 43.593075,582.68588 C 43.578875,582.82096 43.576222,582.95707 43.561825,583.09213 C 43.468954,583.04257 43.374702,583.05221 43.249325,583.06088 C 43.072077,583.07313 42.94944,583.07877 42.780575,583.09213 C 42.831722,582.9437 42.837023,582.85186 42.686825,582.93588 C 42.563552,583.00484 42.436772,583.08615 42.311825,583.15463 C 41.795944,583.20129 41.247674,583.25126 40.811825,583.31088 L 40.811825,623.27963 C 40.832439,623.18587 40.85374,623.09215 40.874325,622.99838 C 41.824174,623.67338 42.685788,624.50728 43.499325,625.31088 L 49.405575,625.31088 L 49.405575,609.18588 L 51.811825,609.18588 C 53.209391,609.18591 54.322955,609.56174 55.155575,610.34213 C 56.003019,611.12255 56.837819,612.58531 57.655575,614.71713 L 60.874325,623.06088 C 61.886507,622.53317 62.847041,621.91698 63.624325,621.09213 C 64.348705,620.32341 63.476455,618.98716 63.374325,617.93588 C 63.323154,617.40915 63.355878,617.668 63.311825,617.21713 C 65.441767,617.27507 66.814776,617.15101 67.593075,616.81088 L 66.218075,613.21713 C 65.266502,610.76172 64.310974,608.91629 63.374325,607.71713 C 62.452491,606.49896 61.392609,605.71604 60.218075,605.37338 C 62.359016,604.51687 63.974933,603.18163 65.030575,601.37338 C 66.10104,599.56515 66.624295,597.25296 66.624325,594.43588 C 66.624295,590.3626 65.613561,587.38281 63.561825,585.49838 C 61.524902,583.61403 58.291576,582.68596 53.905575,582.68588 L 43.593075,582.68588 z M 75.936825,582.68588 L 75.936825,588.49838 C 76.812307,586.57526 77.655237,584.63465 78.468074,582.68588 L 75.936825,582.68588 z M 82.843074,582.68588 C 82.440766,583.11821 81.997884,583.62547 81.499324,584.18588 C 81.068579,584.39877 80.652605,584.60766 80.218074,584.77963 C 80.115074,584.82039 80.427645,584.86372 80.530574,584.90463 C 80.562121,584.9976 80.592777,585.09291 80.624324,585.18588 C 80.435702,585.40077 80.294393,585.54907 80.093074,585.77963 C 79.536714,586.41682 80.190015,587.46707 80.249324,588.31088 C 80.320928,589.32957 80.388004,590.35532 80.468074,591.37338 C 80.005703,591.61941 79.553744,591.88294 79.124324,592.18588 C 78.661324,592.5125 79.094723,593.339 79.061824,593.90463 C 79.016728,594.6801 78.971455,595.44314 78.905574,596.21713 C 78.612656,596.40956 78.320106,596.59133 78.030574,596.77963 C 77.637624,597.03518 77.770744,597.69343 77.686824,598.15463 C 77.356354,599.97073 77.094945,602.78388 76.905575,604.49838 C 76.58446,607.73088 76.25462,610.95265 75.936825,614.18588 L 75.936825,625.31088 L 80.936824,625.31088 C 81.124849,623.89875 81.28707,622.47283 81.468074,621.06088 C 81.63362,619.76953 81.797891,618.47662 81.968074,617.18588 C 82.225734,617.04009 82.488866,616.89047 82.749324,616.74838 C 83.016352,616.69503 83.319517,616.63914 83.561824,616.59213 C 84.301158,619.50451 85.053673,622.41137 85.843074,625.31088 L 96.311824,625.31088 C 96.167843,622.60185 96.038636,619.87645 95.968074,617.96713 C 95.956135,617.64405 95.94734,617.32151 95.936824,616.99838 L 84.530574,616.99838 L 84.530574,607.24838 L 98.249325,607.24838 L 98.249325,598.93588 L 84.530574,598.93588 L 84.530574,590.99838 L 99.124325,590.99838 L 99.124325,582.68588 L 97.280575,582.68588 C 97.545282,583.14261 97.808826,583.59734 98.061825,584.06088 C 98.102785,584.41519 98.141438,584.76934 98.186825,585.12338 C 98.021415,586.70365 97.822888,588.28768 97.624325,589.84213 C 97.35986,589.97995 97.104094,590.13544 96.843074,590.27963 C 96.640229,590.29665 96.436051,590.32433 96.249324,590.34213 C 96.338256,588.86354 96.437342,587.38141 96.561824,585.90463 C 96.623645,585.17126 96.745548,583.88387 96.874324,582.68588 L 82.843074,582.68588 z M 115.53057,582.68588 L 115.53057,582.71713 L 108.40557,607.34213 C 108.38038,608.10705 108.37146,608.85876 108.34307,609.62338 C 108.22598,609.99442 108.1446,610.27076 108.40557,610.18588 C 108.73227,610.07963 109.06047,609.97797 109.37432,609.84213 C 110.05257,611.55973 110.72426,613.28216 111.40557,614.99838 C 111.45596,615.12529 111.96609,616.39266 112.37432,617.40463 C 112.42794,618.79921 112.5058,620.19763 112.56182,621.59213 C 112.57119,621.91572 112.58354,622.23726 112.59307,622.56088 L 113.96807,617.52963 L 127.37432,617.52963 L 129.46807,625.31088 L 138.09307,625.31088 L 125.78057,582.68588 L 117.03057,582.68588 C 117.0823,583.35139 117.13153,584.02069 117.18682,584.68588 C 117.04494,584.01049 116.89444,583.21323 116.81182,582.93588 C 116.79254,582.87112 116.76813,582.77589 116.74932,582.68588 L 115.56182,582.68588 C 115.55305,582.69008 115.53933,582.6817 115.53057,582.68588 z M 134.96807,582.68588 L 134.96807,590.99838 L 146.03057,590.99838 L 146.03057,623.34213 C 146.47991,623.24105 146.92331,623.12517 147.37432,623.02963 C 147.33823,623.14492 147.29339,623.26087 147.24932,623.37338 C 147.39053,623.24491 147.51388,623.09506 147.65557,622.96713 C 149.38244,622.60185 151.12357,622.25071 152.78057,621.65463 C 153.18676,621.50851 153.3287,620.94754 153.43682,620.52963 C 153.51197,620.23918 153.57814,619.951 153.62432,619.65463 C 153.93747,621.19951 154.26763,622.74494 154.62432,624.27963 L 154.62432,590.99838 L 156.71807,590.99838 C 156.6623,590.69801 156.6176,590.39235 156.56182,590.09213 C 156.53284,589.96784 156.52488,589.8424 156.49932,589.71713 C 156.76141,590.14673 157.02446,590.56516 157.28057,590.99838 L 165.65558,590.99838 L 165.65558,582.68588 L 134.96807,582.68588 z M 147.24932,623.37338 C 146.84139,623.74453 146.43266,624.12087 146.03057,624.49838 L 146.03057,624.56088 C 146.25618,624.4621 147.00688,623.92078 147.15557,623.59213 C 147.18805,623.52036 147.22068,623.44651 147.24932,623.37338 z M 170.06183,582.68588 L 170.06183,616.46713 C 170.71869,616.46606 171.2994,616.43811 171.81183,616.37338 C 171.61933,618.69741 171.3449,621.01151 170.96808,623.31088 C 170.6641,623.08963 170.37326,622.87028 170.06183,622.65463 L 170.06183,625.31088 L 192.93683,625.31088 C 192.50382,622.83083 192.07738,620.35507 191.65558,617.87338 C 191.60568,617.58231 191.54862,617.28954 191.49933,616.99838 L 178.65558,616.99838 L 178.65558,607.24838 L 192.37433,607.24838 L 192.37433,598.93588 L 178.65558,598.93588 L 178.65558,590.99838 L 187.78058,590.99838 C 187.72001,590.51599 187.65774,590.04275 187.59308,589.56088 C 187.4904,588.79567 187.43017,587.99896 187.24933,587.24838 C 187.19898,587.03939 187.01959,586.89938 186.90558,586.71713 C 186.22184,587.24281 185.50484,587.73419 184.78058,588.21713 C 182.32655,582.50616 182.30387,582.45333 182.40558,582.68588 L 170.06183,582.68588 z M 188.78058,582.68588 C 189.38066,584.25483 189.98775,585.8266 190.49933,587.27963 C 190.6554,588.51867 190.80965,589.75964 190.96808,590.99838 L 193.24933,590.99838 L 193.24933,582.68588 L 188.78058,582.68588 z M 203.81183,582.68588 C 203.95161,583.11577 204.16824,583.71157 204.28058,584.06088 C 204.36093,584.31072 204.47542,584.69618 204.56183,584.96713 C 203.63498,585.71767 202.70876,586.48863 201.74933,587.18588 C 201.72616,587.27894 201.70955,587.37399 201.68683,587.46713 C 201.59126,587.49792 201.49011,587.54035 201.40558,587.59213 C 201.36592,587.61642 201.32026,587.63033 201.28058,587.65463 L 201.28058,625.31088 L 205.34308,625.31088 C 204.22914,622.43704 203.13332,619.56122 202.03058,616.68588 C 202.3781,616.12538 202.75789,615.46201 203.21808,614.56088 C 203.21323,614.55726 203.22293,614.53325 203.21808,614.52963 C 203.53799,613.90271 203.87744,613.19453 204.28058,612.37338 C 204.71451,611.48953 204.2234,610.51205 203.78058,609.52963 C 203.87751,608.79338 203.96986,608.04792 204.06183,607.31088 C 205.18769,608.96957 206.34367,610.59955 208.15558,613.21713 C 208.73134,614.02756 209.29968,614.84341 209.87433,615.65463 L 209.87433,602.90463 C 209.04548,602.52102 208.57261,602.30951 207.96808,602.02963 C 207.05961,600.62617 206.212,599.20802 205.34308,597.77963 C 205.34796,597.74362 205.33826,597.7214 205.34308,597.68588 C 206.71413,598.83161 208.08325,599.98832 209.43683,601.15463 C 209.52866,601.47795 209.6256,601.80026 209.71808,602.12338 C 209.77213,602.32065 209.82019,602.51988 209.87433,602.71713 L 209.87433,590.99838 L 212.93683,590.99838 C 216.4605,590.99842 219.15569,592.10294 220.99933,594.31088 C 222.84291,596.51889 223.78055,599.71032 223.78058,603.93588 C 223.78055,608.18053 222.82653,611.42765 220.96808,613.65463 C 219.12444,615.88164 216.44563,616.99838 212.93683,616.99838 L 210.84308,616.99838 C 211.15972,617.44332 211.46206,617.89853 211.78058,618.34213 C 212.53816,619.39725 214.6623,622.38962 216.15558,624.27963 C 216.10925,624.5405 216.0766,624.79984 216.03058,625.06088 C 218.28983,624.83753 220.15815,624.46073 221.59308,623.93588 C 224.09085,623.00321 226.21516,621.42511 227.99933,619.21713 C 229.56042,617.29468 230.74105,615.07341 231.49933,612.56088 C 232.25756,610.02936 232.62431,607.15269 232.62433,603.93588 C 232.62432,603.33437 232.58899,602.76354 232.56183,602.18588 C 232.52904,602.21465 232.50098,602.25099 232.46808,602.27963 C 232.46162,602.05224 232.4483,601.83312 232.53058,601.62338 C 232.53555,601.62881 232.55686,601.61795 232.56183,601.62338 C 232.41965,599.36426 232.06801,597.28902 231.49933,595.40463 C 230.74104,592.89214 229.56042,590.67085 227.99933,588.74838 C 226.23002,586.54045 224.10723,585.00581 221.62433,584.09213 C 220.05103,583.49762 217.93634,583.08894 215.31183,582.87338 C 215.29581,582.95179 215.26634,583.01041 215.24933,583.09213 C 215.29586,583.72901 215.35536,584.36202 215.40558,584.99838 C 215.38542,584.97664 215.3633,584.95756 215.34308,584.93588 C 215.13358,584.71122 214.23248,583.65702 213.15558,582.74838 C 212.25873,582.71205 211.34068,582.6859 210.34308,582.68588 L 203.81183,582.68588 z M 203.21808,614.56088 C 203.31667,614.63452 203.43422,614.70346 203.53058,614.77963 C 204.58682,613.41015 204.23113,613.86843 203.21808,614.56088 z M 252.24933,582.68588 L 260.15558,625.31088 L 270.06183,625.31088 L 276.03058,592.90463 L 280.96808,619.34213 C 281.37087,618.96312 281.72911,618.59958 282.21808,618.15463 C 282.80899,617.61691 282.51332,616.57084 282.62433,615.77963 C 282.65205,615.58207 282.66011,615.38361 282.68683,615.18588 C 282.92279,618.11953 283.18188,621.06902 283.46808,623.99838 C 283.02219,623.38836 282.59486,622.76921 282.15558,622.15463 C 281.81664,621.77154 281.53183,621.27117 281.24933,620.77963 L 282.09308,625.31088 L 291.99933,625.31088 L 299.84308,582.68588 L 291.96808,582.68588 C 292.11989,584.12067 292.25107,585.56082 292.37433,586.99838 C 291.93141,587.24402 291.51231,587.49132 291.06183,587.71713 C 290.9824,587.80607 290.8935,587.88 290.81183,587.96713 C 290.80594,587.81122 290.78692,587.65427 290.78058,587.49838 L 285.93683,613.65463 L 280.21808,582.68588 L 271.93683,582.68588 L 266.21808,613.65463 L 260.46808,582.68588 L 252.24933,582.68588 z M 305.46808,582.68588 L 305.46808,620.49838 C 306.39333,621.74659 307.30606,622.98325 308.24933,624.21713 C 308.53135,624.58604 308.83498,624.94769 309.12433,625.31088 L 314.06183,625.31088 L 314.06183,620.71713 C 312.46888,618.90696 310.38295,616.28559 308.49933,613.87338 C 308.17184,611.25053 307.98732,609.74066 307.93683,609.27963 C 309.2631,609.03938 310.2977,608.76842 311.09308,608.40463 C 312.13769,612.28832 313.12271,616.18157 314.06183,620.09213 L 314.06183,582.68588 L 305.46808,582.68588 z M 305.46808,620.49838 L 305.46808,625.31088 L 308.87433,625.31088 C 307.71197,623.7275 306.58111,622.1175 305.46808,620.49838 z M 318.56183,582.68588 L 318.56183,590.99838 L 329.62433,590.99838 L 329.62433,625.31088 L 338.18683,625.31088 L 338.18683,590.99838 L 349.24933,590.99838 L 349.24933,582.68588 L 340.68683,582.68588 C 340.60937,582.852 340.57024,583.04744 340.56183,583.24838 C 340.48371,583.3838 340.39569,583.5367 340.31183,583.68588 C 340.09991,583.35444 339.89766,583.01789 339.68683,582.68588 L 331.96808,582.68588 C 332.16349,582.98496 332.52439,583.54809 332.65558,583.74838 C 333.62611,585.23256 334.61017,586.70885 335.59308,588.18588 C 335.54942,588.21397 335.51172,588.25152 335.46808,588.27963 C 335.13712,588.40767 334.79963,588.52795 334.46808,588.65463 C 334.46138,588.63883 334.44333,588.60724 334.43683,588.59213 C 334.26861,588.20116 334.19723,587.31781 333.81183,587.49838 C 332.62911,588.05259 331.97324,588.34734 331.15558,588.71713 C 330.81137,587.86861 330.43832,587.03398 330.09308,586.18588 C 330.02765,585.01467 329.9863,583.85655 329.90558,582.68588 L 318.56183,582.68588 z M 353.65558,582.68588 L 353.65558,616.15463 C 354.73548,618.71048 355.82292,621.28734 356.90558,623.84213 C 356.8861,623.86436 356.89394,623.88227 356.87433,623.90463 C 356.69161,624.11301 356.55905,624.3403 356.46808,624.59213 C 355.98365,624.36167 355.52779,624.12411 355.15558,623.81088 C 355.09123,623.75673 355.03176,623.70858 354.96808,623.65463 C 354.55726,622.38247 354.12083,621.1243 353.65558,619.87338 L 353.65558,625.31088 L 362.24933,625.31088 L 362.24933,607.24838 L 374.90558,607.24838 L 374.90558,625.31088 L 383.49933,625.31088 L 383.49933,585.21713 C 383.46359,584.37425 383.44268,583.52872 383.40558,582.68588 L 374.90558,582.68588 L 374.90558,590.74838 C 375.21867,590.84238 375.53052,590.93391 375.84308,591.02963 C 375.96457,591.50467 376.21924,592.59865 376.37433,593.24838 C 375.81567,593.67811 375.32597,594.05838 374.90558,594.40463 L 374.90558,598.93588 L 362.24933,598.93588 L 362.24933,582.68588 L 353.65558,582.68588 z M 48.374325,582.87338 C 48.439483,583.2998 48.494639,583.72858 48.561825,584.15463 C 48.416904,584.23333 48.268405,584.29686 48.124325,584.37338 C 48.198991,583.87211 48.30151,583.37495 48.374325,582.87338 z M 47.624325,587.68588 C 47.682408,587.9114 47.739846,588.1327 47.749325,588.34213 C 47.806078,589.59574 47.832447,590.83792 47.874325,592.09213 C 47.787138,592.14937 47.711196,592.22189 47.624325,592.27963 C 47.448345,591.89471 47.268727,591.50845 47.093075,591.12338 C 47.281805,589.97944 47.444484,588.83129 47.624325,587.68588 z M 49.405575,590.65463 L 52.999325,590.65463 C 54.798322,590.65467 56.101172,591.06715 56.874325,591.90463 C 57.662293,592.74216 58.030555,594.11939 58.030575,596.06088 C 58.030555,598.02143 57.662293,599.45434 56.874325,600.31088 C 56.101172,601.16745 54.798322,601.59215 52.999325,601.59213 L 49.405575,601.59213 L 49.405575,590.65463 z M 306.15558,591.99838 C 306.83852,594.01541 307.44233,595.92674 307.90558,597.40463 C 307.55937,597.72575 307.2243,598.05854 306.93683,598.43588 C 306.88404,598.39613 306.8346,598.37435 306.78058,598.34213 C 306.56852,596.23118 306.35364,594.11077 306.15558,591.99838 z M 120.65557,592.68588 L 125.21807,609.62338 L 116.09307,609.62338 L 120.65557,592.68588 z M 373.15558,598.99838 C 373.64335,599.87227 374.40474,600.97922 375.34308,602.62338 C 375.65328,603.16665 375.97051,603.70503 376.28058,604.24838 C 375.84501,604.09226 375.40121,603.94163 374.96808,603.77963 C 374.40723,602.55237 373.86448,601.32309 373.31183,600.09213 C 373.26282,599.72733 373.20601,599.36299 373.15558,598.99838 z M 127.49932,608.12338 C 127.73632,609.04236 127.98436,609.9613 128.24932,610.87338 C 128.975,612.22445 129.24773,612.85747 129.68682,612.87338 C 130.5148,616.44617 131.26795,620.02786 131.99932,623.62338 C 131.99304,623.64011 132.0056,623.66923 131.99932,623.68588 C 131.9031,623.55692 131.78121,623.44073 131.68682,623.31088 C 130.48743,621.66083 129.41602,619.93555 128.43682,618.15463 C 128.3294,617.82107 128.22761,617.48897 128.12432,617.15463 C 127.77004,616.00776 127.48338,614.97962 127.21807,613.99838 C 127.31842,612.03913 127.39892,610.08267 127.49932,608.12338 z M 45.686825,608.34213 C 46.201552,611.64298 46.679316,614.95158 47.218075,618.24838 C 47.271612,618.57599 47.274797,618.97316 47.249325,619.37338 C 46.473731,618.70885 45.644237,618.13633 44.749325,617.74838 C 44.217105,617.51765 43.594805,617.47682 43.030575,617.34213 C 42.700333,617.37802 42.393027,617.4055 42.061825,617.43588 C 42.5612,615.08716 43.054652,612.72673 43.530575,610.37338 C 44.082544,610.02864 44.650344,609.68002 45.343075,609.27963 C 45.631855,609.11273 45.625951,608.68449 45.686825,608.34213 z M 56.499325,609.31088 C 56.540435,609.90157 56.553784,610.50136 56.593075,611.09213 C 56.356023,610.61686 56.141449,610.13049 55.905575,609.65463 C 56.10463,609.53995 56.305131,609.43325 56.499325,609.31088 z M 306.62433,609.49838 C 306.64422,609.49563 306.66705,609.50115 306.68683,609.49838 C 306.36127,609.7343 306.02377,609.92378 306.21808,609.77963 C 306.34801,609.68324 306.49072,609.59103 306.62433,609.49838 z M 148.71807,610.40463 C 148.69147,610.89622 148.60125,611.89661 148.56182,612.43588 C 148.41715,611.83845 148.28648,611.23239 148.15557,610.62338 C 148.33653,610.58562 148.50995,610.50629 148.71807,610.40463 z M 106.62432,613.46713 L 103.21807,625.31088 L 106.96807,625.31088 C 106.95922,625.09303 106.94311,624.87524 106.93682,624.65463 C 106.89466,623.17317 106.83328,621.69826 106.78057,620.21713 C 106.72494,617.97116 106.6672,615.71292 106.62432,613.46713 z M 227.53058,613.49838 C 227.57971,613.8013 227.64183,614.10104 227.68683,614.40463 C 227.73911,614.38535 227.79071,614.3612 227.84308,614.34213 C 227.85566,614.4564 227.86276,614.57151 227.87433,614.68588 C 227.90004,614.94004 227.65465,615.56627 227.87433,615.43588 C 227.89448,615.42392 227.91672,615.41665 227.93683,615.40463 C 227.70821,616.08285 227.47786,616.75726 227.24933,617.43588 C 226.98362,617.09628 226.6932,616.78659 226.40558,616.46713 C 226.47645,616.4043 226.55463,616.34259 226.62433,616.27963 C 227.18386,615.77421 226.77132,614.82411 226.68683,614.02963 C 227.02594,613.8219 227.24785,613.67763 227.53058,613.49838 z M 177.43683,615.31088 C 177.99806,617.79987 178.56615,620.29 179.12433,622.77963 C 178.04096,623.15215 177.15681,623.55464 176.40558,624.02963 C 176.65885,622.82831 176.83014,621.65369 176.84308,621.56088 C 177.13251,619.48577 177.28626,617.40056 177.43683,615.31088 z M 98.186825,616.99838 C 98.319074,617.86984 98.452838,618.75621 98.593075,619.62338 C 98.821635,621.3351 99.051136,623.03678 99.280575,624.74838 C 99.303865,624.92211 99.286993,625.11347 99.280575,625.31088 L 99.624325,625.31088 L 99.624325,616.99838 L 98.186825,616.99838 z M 192.12433,616.99838 C 192.59846,617.67116 193.09675,618.57417 193.71808,618.99838 L 193.71808,616.99838 L 192.12433,616.99838 z M 90.249324,617.84213 C 90.334576,618.05839 90.419381,618.2539 90.530574,618.40463 C 90.532419,618.5611 90.528749,618.71691 90.530574,618.87338 C 90.439521,618.53031 90.338735,618.18563 90.249324,617.84213 z M 69.280575,621.15463 C 69.697136,622.55116 70.149776,623.93161 70.624325,625.31088 L 70.874325,625.31088 L 69.280575,621.15463 z M 68.311825,621.56088 C 67.729936,621.5789 66.454842,622.69177 64.030575,625.31088 L 68.999325,625.31088 C 68.996101,625.26951 69.002482,625.22725 68.999325,625.18588 C 69.178938,624.62887 69.262178,624.16146 68.936825,624.02963 C 68.880507,622.61547 68.869552,621.5436 68.311825,621.56088 z M 48.843075,623.02963 C 48.829433,623.14467 48.823643,623.25822 48.811825,623.37338 C 47.283427,623.6389 47.774025,623.53172 48.843075,623.02963 z M 145.59307,639.65463 C 145.15335,639.65463 144.72651,639.66203 144.31182,639.68588 C 145.10641,641.53449 145.87802,643.39267 146.65557,645.24838 C 146.70951,645.24793 146.75704,645.24838 146.81182,645.24838 C 148.19983,645.2484 149.65653,645.43724 151.21807,645.81088 C 152.77957,646.18461 154.38896,646.73307 156.03057,647.46713 L 156.03057,641.12338 C 154.17541,640.6296 152.39057,640.26986 150.65557,640.02963 C 148.92054,639.77608 147.23465,639.65463 145.59307,639.65463 z M 143.78057,639.74838 C 141.05104,639.97976 138.86588,640.73984 137.28057,642.06088 C 135.3587,643.66247 134.40557,645.92845 134.40557,648.90463 C 134.40557,651.2803 135.0934,653.19075 136.46807,654.59213 C 136.98858,655.11765 137.6286,655.57984 138.37432,655.99838 C 138.39879,655.51944 138.45112,655.04026 138.46807,654.56088 C 138.85702,654.29884 139.244,654.05002 139.62432,653.77963 C 139.82059,654.67152 140.01629,655.57001 140.12432,656.09213 C 140.16491,656.28827 140.13916,656.54005 140.12432,656.81088 C 140.99071,657.13862 141.95806,657.4248 143.03057,657.65463 L 146.03057,658.31088 C 147.84566,658.71128 149.05498,659.1787 149.65557,659.68588 C 150.2695,660.19305 150.56181,660.90786 150.56182,661.84213 C 150.5618,662.88315 150.11227,663.68787 149.21807,664.24838 C 148.32386,664.80893 147.05596,665.06092 145.37432,665.06088 C 144.35994,665.06089 143.31384,664.97016 142.24932,664.77963 C 142.61343,666.6913 142.96548,668.61458 143.31182,670.52963 C 144.2421,670.61586 145.16599,670.65464 146.09307,670.65463 C 148.94513,670.65463 151.28369,670.24312 153.09307,669.43588 C 153.06823,668.75101 153.04791,668.04507 153.03057,667.46713 C 153.0533,667.5918 153.07029,667.71749 153.09307,667.84213 C 153.19535,668.39298 153.27719,668.87742 153.34307,669.34213 C 153.9844,669.03531 154.55851,668.66205 155.06182,668.24838 C 157.02371,666.63347 157.9993,664.20122 157.99932,660.90463 C 157.9993,658.39553 157.30692,656.45344 155.90557,655.09213 C 154.50419,653.73081 152.13505,652.69693 148.81182,652.02963 L 147.37432,651.74838 C 147.3735,652.92035 147.37546,654.1077 147.37432,655.27963 C 147.23202,655.11092 147.09528,654.93929 147.03057,654.71713 C 147.00038,654.61347 146.96465,654.50893 146.93682,654.40463 C 146.96811,654.37261 146.96782,654.37438 146.99932,654.34213 C 147.37448,653.95808 146.7931,653.34809 146.56182,652.81088 C 146.46538,652.38467 146.37561,651.95614 146.28057,651.52963 L 145.53057,651.37338 C 143.96903,651.05309 142.88115,650.68886 142.28057,650.24838 C 141.69333,649.79462 141.40557,649.17422 141.40557,648.37338 C 141.40556,647.3057 141.83721,646.50553 142.71807,645.99838 C 143.26508,645.68345 144.01923,645.49275 144.93682,645.37338 C 144.54554,643.49572 144.15364,641.62981 143.78057,639.74838 z M 175.18683,639.87338 C 171.90912,640.37214 169.24016,641.68493 167.15558,643.77963 C 164.43292,646.529 163.06183,650.30996 163.06183,655.15463 C 163.06183,659.98603 164.43292,663.78026 167.15558,666.52963 C 169.89158,669.27898 173.64548,670.65466 178.43683,670.65463 C 178.94101,670.65463 179.42432,670.62241 179.90558,670.59213 C 179.89465,670.55057 179.88502,670.50877 179.87433,670.46713 C 179.9756,670.32152 180.09696,670.18469 180.18683,670.02963 C 180.85847,668.8708 179.56818,667.40675 179.31183,666.09213 C 179.243,665.73914 179.18889,665.38341 179.12433,665.02963 C 178.89474,665.04764 178.67751,665.06088 178.43683,665.06088 C 176.08786,665.06089 174.26266,664.2022 172.96808,662.46713 C 171.67347,660.73212 171.03057,658.29107 171.03058,655.15463 C 171.03057,652.00491 171.67347,649.57714 172.96808,647.84213 C 173.75571,646.78654 174.72765,646.03674 175.90558,645.62338 C 175.67187,644.03152 175.45838,642.43709 175.24933,640.84213 C 175.23494,640.51782 175.1984,640.19781 175.18683,639.87338 z M 181.74933,639.90463 C 182.31608,642.03957 182.89846,644.17646 183.46808,646.31088 C 183.23782,646.41498 183.00961,646.51681 182.78058,646.62338 C 183.19828,646.96116 183.56275,647.38267 183.90558,647.84213 C 185.20015,649.57717 185.8743,652.00494 185.87433,655.15463 C 185.8743,658.29104 185.20015,660.73215 183.90558,662.46713 C 182.7668,663.99331 181.21419,664.84594 179.24933,665.02963 C 179.42579,665.31416 179.62782,665.60307 179.84308,665.87338 C 182.3487,667.48416 180.69717,666.50401 186.56183,662.68588 C 186.6466,662.97864 186.72809,663.26757 186.81183,663.56088 C 187.18214,665.0305 187.5967,666.50628 187.99933,667.96713 C 188.61092,667.53484 189.186,667.06691 189.71808,666.52963 C 192.44071,663.78029 193.8118,659.98606 193.81183,655.15463 C 193.8118,650.30993 192.44071,646.52903 189.71808,643.77963 C 187.65705,641.69843 185.00339,640.41039 181.74933,639.90463 z M 5.343075,640.18588 L 5.343075,669.65463 C 5.654317,669.54073 5.97009,669.41382 6.280575,669.27963 C 6.299536,669.37859 6.3233,669.50073 6.343075,669.59213 C 6.380245,669.76394 6.420033,669.9231 6.468075,670.09213 L 12.780575,670.09213 C 12.871426,670.03463 12.971295,669.99388 13.061825,669.93588 L 13.061825,664.62338 C 12.894784,664.9146 12.730388,665.20811 12.561825,665.49838 C 11.830679,662.08569 11.806524,658.31579 11.936825,654.81088 C 12.327734,655.6794 12.738784,656.53353 13.124325,657.40463 L 25.374325,657.40463 L 25.374325,651.59213 L 13.061825,651.59213 L 13.061825,646.02963 L 26.155575,646.02963 L 26.155575,640.18588 L 21.686825,640.18588 C 21.69029,640.22728 21.683353,640.26948 21.686825,640.31088 C 21.709551,640.49714 21.727377,640.68701 21.749325,640.87338 C 20.924671,640.72985 20.101318,640.57001 19.280575,640.40463 C 19.249258,640.33211 19.218306,640.25834 19.186825,640.18588 L 5.343075,640.18588 z M 33.374325,640.18588 L 33.374325,669.06088 C 33.614392,668.92632 33.850233,668.78289 34.093075,668.65463 C 34.065119,668.23333 34.00382,667.8251 33.968075,667.40463 C 34.304051,667.30173 34.637079,667.18885 34.968075,667.06088 C 35.268175,667.67205 35.57873,668.40017 36.124325,668.24838 C 36.346835,668.18648 36.562278,668.10402 36.780575,668.02963 C 36.784392,668.0384 36.776758,668.05211 36.780575,668.06088 C 36.820025,668.57932 36.858267,669.11223 36.905575,669.62338 C 36.914515,669.71997 36.956104,669.96582 36.968075,670.09213 L 41.093075,670.09213 L 41.093075,658.77963 L 43.249325,658.77963 C 44.503875,658.77964 45.501915,659.04497 46.249325,659.59213 C 47.010055,660.13934 47.765255,661.15982 48.499325,662.65463 L 52.155575,670.09213 L 60.343075,670.09213 L 56.186825,661.59213 C 55.332635,659.87046 54.465125,658.58925 53.624325,657.74838 C 52.796825,656.89423 51.866164,656.33241 50.811825,656.09213 C 52.733674,655.49156 54.176705,654.57877 55.124325,653.31088 C 55.560909,652.73482 55.886095,652.06421 56.124325,651.34213 C 56.027957,650.32387 55.940596,649.29183 55.780575,648.27963 C 55.648225,647.4424 55.558835,646.68271 55.061825,645.99838 C 54.437367,645.58586 54.021365,645.32114 53.686825,645.21713 C 53.575579,645.03997 53.449644,644.86574 53.343075,644.68588 C 52.987465,644.08566 52.653535,643.48159 52.311825,642.87338 C 51.979421,642.25379 51.652413,641.62895 51.343075,640.99838 C 49.694907,640.4678 47.650523,640.18588 45.155575,640.18588 L 37.749325,640.18588 C 37.898136,640.47039 38.070556,640.74436 38.218075,641.02963 C 37.86497,641.17474 37.53961,641.29561 37.218075,641.40463 C 37.172629,640.99661 37.105695,640.59407 37.061825,640.18588 L 33.374325,640.18588 z M 64.936825,640.18588 L 64.936825,670.09213 L 70.593075,670.09213 C 70.399344,668.61815 70.229535,667.13147 70.061825,665.65463 C 70.290885,666.56121 70.507774,667.46969 70.749325,668.37338 C 70.972011,669.03229 71.130043,669.59857 71.280575,670.09213 L 77.749324,670.09213 C 77.644541,670.06352 77.542038,670.02591 77.436824,669.99838 C 78.019014,669.65572 78.331692,669.48402 79.061824,669.06088 C 79.510104,668.80108 79.201025,668.0162 79.218074,667.49838 C 79.253833,666.41226 79.275805,665.33513 79.280574,664.24838 L 72.624325,664.24838 L 72.624325,657.40463 L 81.561824,657.40463 C 81.546615,657.20166 81.540274,656.99549 81.561824,656.81088 C 81.687763,655.73191 81.798667,654.63836 81.936824,653.56088 C 82.396128,654.67062 82.876158,655.7796 83.374324,656.87338 C 83.45114,657.0511 83.517924,657.22615 83.593074,657.40463 L 84.936824,657.40463 L 84.936824,651.59213 L 72.624325,651.59213 L 72.624325,646.02963 L 85.718074,646.02963 L 85.718074,640.18588 L 73.811825,640.18588 C 73.665657,640.94097 73.918162,641.8668 73.874325,642.65463 C 73.869699,642.73777 73.878728,642.82148 73.874325,642.90463 C 73.594271,642.72458 73.307847,642.55735 73.030575,642.37338 C 73.607996,641.18009 74.034279,640.47192 72.374325,641.90463 C 71.926024,641.59987 71.472116,641.31254 71.030575,640.99838 C 70.987133,640.72731 70.948072,640.4571 70.905575,640.18588 L 64.936825,640.18588 z M 92.936824,640.18588 L 92.936824,670.09213 L 114.18682,670.09213 L 114.18682,664.24838 L 100.65557,664.24838 L 100.65557,657.40463 L 112.96807,657.40463 L 112.96807,651.59213 L 100.65557,651.59213 L 100.65557,646.02963 L 113.74932,646.02963 L 113.74932,640.18588 L 92.936824,640.18588 z M 199.62433,640.18588 L 199.62433,670.09213 L 207.31183,670.09213 L 207.31183,657.40463 L 219.62433,657.40463 L 219.62433,651.59213 L 207.31183,651.59213 L 207.31183,646.02963 L 220.40558,646.02963 L 220.40558,642.59213 C 220.38133,642.54211 220.33559,642.45368 220.31183,642.40463 C 220.34116,642.38129 220.37591,642.36567 220.40558,642.34213 L 220.40558,640.18588 L 199.62433,640.18588 z M 224.09308,640.18588 L 224.09308,646.02963 L 233.99933,646.02963 L 233.99933,661.96713 C 234.61246,661.30791 235.19073,660.70385 236.15558,659.71713 C 236.27038,659.59973 236.3523,659.45922 236.40558,659.31088 C 236.78846,661.8466 237.11545,664.39003 237.43683,666.93588 C 236.39278,666.21373 235.3492,665.49538 234.28058,664.81088 C 234.18549,664.52181 234.09145,664.22631 233.99933,663.93588 L 233.99933,670.09213 L 241.71808,670.09213 L 241.71808,646.02963 L 251.62433,646.02963 L 251.62433,640.18588 L 240.87433,640.18588 C 240.88254,640.28375 240.89705,640.37122 240.90558,640.46713 C 240.67,640.58189 240.4434,640.69209 240.18683,640.81088 C 240.03335,640.88195 239.93041,641.26175 239.84308,641.68588 C 239.83194,641.62353 239.82302,641.56073 239.81183,641.49838 C 239.71255,640.99016 239.62816,640.56767 239.56183,640.18588 L 224.09308,640.18588 z M 253.03058,640.18588 L 260.15558,670.09213 L 269.03058,670.09213 L 274.40558,647.37338 L 279.84308,670.09213 L 288.28058,670.09213 C 288.20034,669.79127 288.1238,669.48306 288.03058,669.18588 C 287.96602,668.98005 287.51798,667.71026 287.31183,667.12338 C 287.95906,667.42812 288.59949,667.71725 289.21808,667.96713 L 295.78058,640.18588 L 288.43683,640.18588 L 283.28058,661.90463 L 278.15558,640.18588 L 270.71808,640.18588 L 265.59308,661.90463 L 260.43683,640.18588 L 253.03058,640.18588 z M 306.49933,640.18588 L 305.49933,642.90463 C 306.32043,644.09319 307.14956,645.29113 308.03058,646.56088 C 308.76674,647.66726 309.46433,648.80352 310.15558,649.93588 L 311.09308,647.18588 L 315.18683,659.09213 L 312.31183,659.09213 C 312.34843,659.40445 312.37075,659.71711 312.40558,660.02963 C 312.49139,660.79967 312.57128,661.57191 312.65558,662.34213 C 312.5293,662.44423 312.38149,662.5488 312.24933,662.65463 C 311.64538,661.45801 311.0074,660.27295 310.37433,659.09213 L 306.99933,659.09213 L 308.31183,655.31088 C 307.45057,653.78565 306.5791,652.25606 305.68683,650.74838 C 305.43727,648.6605 305.17104,646.55356 304.90558,644.46713 L 295.49933,669.96713 C 295.93808,669.76945 296.37163,669.56816 296.81183,669.37338 C 297.04583,669.37334 297.25356,669.37888 297.49933,669.37338 C 299.40121,669.33086 301.30856,668.99712 303.21808,668.46713 C 303.27152,668.55948 303.48956,668.90489 303.56183,669.02963 L 305.06183,664.62338 L 317.12433,664.62338 L 318.99933,670.09213 L 326.74933,670.09213 L 315.68683,640.18588 L 306.49933,640.18588 z M 330.68683,640.18588 L 330.68683,646.49838 C 331.76451,646.35752 332.86846,646.17609 333.96808,645.96713 C 334.12704,647.30693 334.28932,648.65732 334.43683,649.99838 C 334.39592,650.02074 334.35271,650.03846 334.31183,650.06088 C 334.14414,649.56858 333.9535,649.08291 333.78058,648.59213 C 332.77969,649.21744 331.7163,649.78724 330.68683,650.37338 L 330.68683,670.09213 L 338.40558,670.09213 L 338.40558,658.77963 L 340.59308,658.77963 C 341.84762,658.77964 342.84566,659.04497 343.59308,659.59213 C 344.35381,660.13934 345.109,661.15982 345.84308,662.65463 L 349.46808,670.09213 L 357.68683,670.09213 L 353.49933,661.59213 C 352.64514,659.87046 351.80886,658.58925 350.96808,657.74838 C 350.14058,656.89423 349.17866,656.33241 348.12433,656.09213 C 350.04618,655.49156 351.48923,654.57877 352.43683,653.31088 C 353.39775,652.04299 353.87429,650.41119 353.87433,648.43588 C 353.8743,645.57979 352.96609,643.50716 351.12433,642.18588 C 349.29585,640.86462 346.40522,640.18588 342.46808,640.18588 L 333.21808,640.18588 C 333.3292,641.04344 333.45462,641.89032 333.56183,642.74838 C 332.82717,642.78773 332.10251,642.80503 331.37433,642.77963 C 331.84072,641.92505 332.2906,641.05983 332.71808,640.18588 L 330.68683,640.18588 z M 362.24933,640.18588 L 362.24933,670.09213 L 383.49933,670.09213 L 383.49933,664.24838 L 378.78058,664.24838 C 379.12736,665.44353 379.49288,666.62621 379.87433,667.81088 C 379.44848,667.66111 379.01889,667.52325 378.59308,667.37338 C 378.34312,666.33372 378.11617,665.28978 377.87433,664.24838 L 369.96808,664.24838 L 369.96808,657.40463 L 376.37433,657.40463 C 376.2856,656.94979 376.20848,656.48542 376.12433,656.02963 C 376.37665,655.8814 376.62508,655.74325 376.87433,655.59213 C 376.98375,656.19821 377.10551,656.79908 377.21808,657.40463 L 382.28058,657.40463 L 382.28058,651.59213 L 369.96808,651.59213 L 369.96808,646.02963 L 383.06183,646.02963 L 383.06183,640.18588 L 362.24933,640.18588 z M 95.405574,641.18588 C 95.536364,641.53346 95.687153,641.86738 95.811824,642.21713 C 95.790076,642.23572 95.74031,642.29185 95.718074,642.31088 C 95.527704,642.37276 95.30164,642.43926 95.124324,642.49838 C 95.214576,642.05573 95.301693,641.62646 95.405574,641.18588 z M 38.999325,642.68588 C 39.127266,642.96352 39.261888,643.25637 39.374325,643.49838 C 39.353406,643.82137 39.33542,644.14433 39.311825,644.46713 C 39.118576,647.11109 38.922983,649.76147 38.718075,652.40463 C 38.698355,652.41686 38.67533,652.42373 38.655575,652.43588 C 38.592865,652.04069 38.509419,651.61152 38.436825,651.09213 C 38.068477,648.5972 37.765466,646.09638 37.468075,643.59213 C 37.952983,643.30882 38.455278,643.01542 38.999325,642.68588 z M 201.71808,642.68588 C 201.73582,642.67698 201.76237,642.67527 201.78058,642.68588 C 201.91715,642.76543 202.02003,642.87956 202.12433,642.99838 C 201.96496,643.05587 201.81592,643.13097 201.65558,643.18588 C 201.51604,643.23366 201.59387,642.74816 201.71808,642.68588 z M 230.06183,643.18588 C 230.31316,643.46728 230.53545,643.7708 230.78058,644.06088 C 230.56894,644.21306 230.36342,644.37295 230.15558,644.52963 C 230.11735,644.09082 230.09597,643.67096 230.06183,643.18588 z M 250.15558,644.27963 C 250.1646,644.33188 250.17783,644.38363 250.18683,644.43588 C 250.18235,644.56401 250.15838,644.75445 250.12433,645.06088 C 250.05265,644.88613 250.00521,644.70559 249.93683,644.52963 C 249.97809,644.48755 250.02119,644.44741 250.06183,644.40463 C 250.10156,644.36281 250.13542,644.32653 250.15558,644.27963 z M 45.124325,644.43588 C 45.347868,644.92957 45.601276,645.42099 45.843075,645.90463 C 46.67436,646.03906 47.332729,646.27573 47.780575,646.65463 C 48.487915,647.2419 48.843055,648.23079 48.843075,649.59213 C 48.843072,649.76397 48.822879,649.90114 48.811825,650.06088 C 48.846536,650.0986 48.87473,650.13864 48.905575,650.18588 C 50.986301,649.20859 52.830091,647.74811 54.905575,646.74838 C 56.653546,645.9064 50.829867,650.69194 49.093075,650.65463 C 49.230067,651.04938 49.328535,651.4816 49.374325,651.68588 C 49.512349,652.30173 49.624609,652.90717 49.718075,653.52963 C 49.380409,653.70363 49.088501,653.8749 48.843075,654.02963 C 48.579531,653.58398 48.325482,653.1315 48.061825,652.68588 C 48.007753,652.59449 47.95917,652.49633 47.905575,652.40463 C 47.862926,652.44655 47.826162,652.49092 47.780575,652.52963 C 47.086545,653.13023 45.926715,653.43586 44.311825,653.43588 L 41.093075,653.43588 L 41.093075,645.77963 L 44.311825,645.77963 C 44.558406,645.77963 44.774214,645.79718 44.999325,645.81088 C 45.041015,645.35192 45.080482,644.89473 45.124325,644.43588 z M 49.093075,650.65463 C 49.033972,650.48432 48.990279,650.31562 48.905575,650.18588 C 48.875711,650.19991 48.841784,650.2033 48.811825,650.21713 C 48.801989,650.32118 48.795345,650.43098 48.780575,650.52963 C 48.860373,650.59366 48.96004,650.65177 49.093075,650.65463 z M 338.40558,645.77963 L 341.65558,645.77963 C 343.27047,645.77966 344.43029,646.06745 345.12433,646.65463 C 345.83166,647.2419 346.1868,648.23079 346.18683,649.59213 C 346.18681,650.96682 345.83165,651.92903 345.12433,652.52963 C 344.49303,653.07594 343.45504,653.35524 342.06183,653.40463 C 342.11282,653.54002 342.16701,653.67561 342.21808,653.81088 C 342.52874,654.66724 342.84409,655.51732 343.15558,656.37338 C 342.71533,655.39082 342.27597,654.42182 341.84308,653.43588 C 341.77759,653.43692 341.72266,653.43588 341.65558,653.43588 L 338.40558,653.43588 L 338.40558,645.77963 z M 364.62433,648.56088 C 364.51409,648.71875 364.40215,648.87637 364.28058,649.02963 C 364.27233,649.00794 364.25758,648.98882 364.24933,648.96713 C 364.37276,648.8366 364.72719,648.41359 364.62433,648.56088 z M 259.24933,656.62338 C 259.33179,658.07477 259.45183,659.51727 259.56183,660.96713 C 259.37268,661.12823 259.16298,661.27975 258.96808,661.43588 C 258.85226,660.66195 258.72254,659.74885 258.62433,659.09213 C 258.51095,658.41497 258.39331,657.73812 258.28058,657.06088 C 258.60359,656.91595 258.92205,656.76179 259.24933,656.62338 z M 147.37432,656.96713 C 147.37388,657.36445 147.37447,657.75731 147.37432,658.15463 C 147.28977,657.66009 147.25342,657.38948 147.18682,656.99838 C 147.22553,656.99319 147.33689,656.97219 147.37432,656.96713 z M 186.28058,661.84213 C 186.28709,661.86424 186.30533,661.88251 186.31183,661.90463 C 186.23548,661.95409 186.28043,661.93777 186.18683,661.99838 C 186.16427,661.97867 186.14631,661.95587 186.12433,661.93588 C 186.21686,661.88342 186.20349,661.88592 186.28058,661.84213 z M 134.65557,661.99838 L 134.65557,668.52963 C 135.41377,668.81064 136.17863,669.05338 136.93682,669.27963 C 136.77781,668.70871 136.30838,668.06993 136.18682,667.49838 C 135.98447,666.54692 135.80544,665.57917 135.62432,664.62338 C 135.5826,663.88574 135.54209,663.14129 135.49932,662.40463 C 135.22418,662.26736 134.93356,662.14612 134.65557,661.99838 z M 85.561824,664.24838 C 84.773872,664.82106 83.880995,665.48921 82.686824,666.40463 C 82.186564,666.78811 82.287715,667.65526 82.374324,668.27963 C 82.461858,668.91066 82.667391,669.52042 82.968074,670.09213 L 86.155574,670.09213 L 86.155574,664.24838 L 85.561824,664.24838 z M 204.74933,666.21713 C 204.88097,666.54025 205.02408,666.86589 205.15558,667.18588 C 205.09972,667.23257 205.0553,667.29506 204.99933,667.34213 C 204.92242,666.96441 204.82478,666.59514 204.74933,666.21713 z M -19.90692,675.96713 C -19.86528,676.13291 -19.82374,676.30139 -19.78192,676.46713 C -19.79522,676.54661 -19.80006,676.66913 -19.81317,676.74838 C -19.83973,676.48856 -19.87995,676.2269 -19.90692,675.96713 z M 54.780575,688.87338 C 54.864865,688.89178 54.946324,688.91732 55.030575,688.93588 C 55.838086,689.08747 56.658545,689.23454 57.468075,689.37338 C 57.462456,689.67641 57.421589,689.97717 57.405575,690.27963 C 57.372779,690.31919 57.344397,690.36476 57.311825,690.40463 C 56.470779,689.95409 55.677809,689.4452 54.905575,688.96713 C 54.861311,688.93973 54.824789,688.90087 54.780575,688.87338 z M 388.15558,688.96713 C 388.9603,689.69522 389.74722,690.43924 390.56183,691.15463 C 390.5925,691.27928 390.6251,691.40493 390.65558,691.52963 C 390.00848,691.18528 389.36266,690.84677 388.71808,690.49838 C 388.53568,689.98594 388.3348,689.48067 388.15558,688.96713 z M 372.93683,689.21713 C 373.694,689.64799 374.46038,690.06842 375.21808,690.49838 C 374.81186,691.65668 374.35377,692.94292 373.90558,694.24838 C 373.29708,694.54554 372.69968,694.85398 372.09308,695.15463 C 371.49223,694.69005 370.95541,694.27861 370.53058,694.09213 C 370.08933,693.89844 369.58367,693.91094 369.09308,693.90463 C 370.63927,692.82125 371.92334,691.7475 372.40558,691.31088 C 372.93708,690.82967 372.89228,689.95619 372.93683,689.21713 z M 100.28057,690.87338 C 99.927452,691.89347 99.581781,692.90859 99.249325,693.93588 C 98.261557,694.1092 97.266179,694.27537 96.280574,694.46713 C 94.810813,693.64373 93.244213,692.78847 92.093074,692.18588 C 92.090652,692.12289 92.095426,692.06137 92.093074,691.99838 C 92.087621,691.85235 92.067449,691.7069 92.061824,691.56088 C 94.818276,691.43529 97.597083,691.2043 100.28057,690.87338 z M 78.468074,691.74838 C 79.806642,692.35252 81.153153,692.94998 82.468074,693.56088 C 82.632364,693.64783 82.65717,693.66669 82.811824,693.74838 C 82.544221,694.06095 82.308811,694.30413 82.061824,694.59213 C 80.84046,693.67029 79.636641,692.73678 78.468074,691.74838 z M 104.90557,692.27963 C 105.16328,692.38456 105.42689,692.48736 105.68682,692.59213 C 105.75122,692.72402 105.81092,692.83848 105.87432,692.96713 C 105.46625,693.02047 105.06346,693.09955 104.65557,693.15463 C 104.73892,692.86156 104.81995,692.572 104.90557,692.27963 z M 263.68683,693.37338 C 263.73596,693.41683 263.79417,693.455 263.84308,693.49838 C 263.80382,693.66647 263.75869,693.83064 263.71808,693.99838 C 263.70946,693.78956 263.69603,693.58218 263.68683,693.37338 z M 158.96807,694.84213 C 159.14893,695.1817 159.28516,695.43731 159.46808,695.77963 C 159.38335,695.77426 159.28341,695.78056 159.18682,695.77963 C 158.89864,695.70091 158.49978,695.60648 158.15557,695.52963 C 158.15227,695.49889 158.15897,695.46661 158.15557,695.43588 C 158.42212,695.2294 158.70093,695.04774 158.96807,694.84213 z"
       id="path2604" />
  </g>
</svg>
