<?xml version="1.0" encoding="UTF-8" standalone="no"?>
<!-- Created with Inkscape (http://www.inkscape.org/) -->
<svg
   xmlns:dc="http://purl.org/dc/elements/1.1/"
   xmlns:cc="http://creativecommons.org/ns#"
   xmlns:rdf="http://www.w3.org/1999/02/22-rdf-syntax-ns#"
   xmlns:svg="http://www.w3.org/2000/svg"
   xmlns="http://www.w3.org/2000/svg"
   xmlns:sodipodi="http://sodipodi.sourceforge.net/DTD/sodipodi-0.dtd"
   xmlns:inkscape="http://www.inkscape.org/namespaces/inkscape"
   width="447.19437"
   height="299.99811"
   id="svg2"
   sodipodi:version="0.32"
   inkscape:version="0.46"
   sodipodi:docname="cwfs-1.0.0-black.svg"
   inkscape:output_extension="org.inkscape.output.svg.inkscape"
   version="1.0">
  <sodipodi:namedview
     id="base"
     pagecolor="#ffffff"
     bordercolor="#666666"
     borderopacity="1.0"
     gridtolerance="10000"
     guidetolerance="10"
     objecttolerance="10"
     inkscape:pageopacity="0.0"
     inkscape:pageshadow="2"
     inkscape:zoom="0.7"
     inkscape:cx="809.37106"
     inkscape:cy="353.01906"
     inkscape:document-units="px"
     inkscape:current-layer="layer1"
     showgrid="false"
     inkscape:window-width="1680"
     inkscape:window-height="997"
     inkscape:window-x="0"
     inkscape:window-y="0" />
  <defs
     id="defs4">
    <inkscape:perspective
       id="perspective10"
       inkscape:persp3d-origin="372.04724 : 350.78739 : 1"
       inkscape:vp_z="744.09448 : 526.18109 : 1"
       inkscape:vp_y="0 : 1000 : 0"
       inkscape:vp_x="0 : 526.18109 : 1"
       sodipodi:type="inkscape:persp3d" />
  </defs>
  <metadata
     id="metadata7">
    <rdf:RDF>
      <cc:Work
         rdf:about="">
        <dc:format>image/svg+xml</dc:format>
        <dc:type
           rdf:resource="http://purl.org/dc/dcmitype/StillImage" />
        <dc:title>CREATED WITH FREE SOFTWARE</dc:title>
        <dc:date>2010-02-01</dc:date>
        <dc:creator>
          <cc:Agent>
            <dc:title>Sebastian Pipping</dc:title>
          </cc:Agent>
        </dc:creator>
        <cc:license
           rdf:resource="http://creativecommons.org/licenses/by-sa/3.0/" />
        <dc:language>English</dc:language>
        <dc:subject>
          <rdf:Bag>
            <rdf:li>freedom free software open source foss floss licensing</rdf:li>
          </rdf:Bag>
        </dc:subject>
      </cc:Work>
      <cc:License
         rdf:about="http://creativecommons.org/licenses/by-sa/3.0/">
        <cc:permits
           rdf:resource="http://creativecommons.org/ns#Reproduction" />
        <cc:permits
           rdf:resource="http://creativecommons.org/ns#Distribution" />
        <cc:requires
           rdf:resource="http://creativecommons.org/ns#Notice" />
        <cc:requires
           rdf:resource="http://creativecommons.org/ns#Attribution" />
        <cc:permits
           rdf:resource="http://creativecommons.org/ns#DerivativeWorks" />
        <cc:requires
           rdf:resource="http://creativecommons.org/ns#ShareAlike" />
      </cc:License>
    </rdf:RDF>
  </metadata>
  <g
     transform="translate(29.175978,-731.90513)"
     id="layer1"
     inkscape:groupmode="layer"
     inkscape:label="Layer 1">
    <g
       transform="translate(410.08929,-297.85194)"
       id="g3482">
      <g
         id="g3486"
         transform="translate(0,-1.0000044)" />
    </g>
    <g
       transform="translate(413.03613,-155.91374)"
       id="g3750" />
    <path
       id="path2610"
       d="M -15.622927,902.39249 C -18.368517,903.67278 -20.752087,905.39256 -22.722837,907.42726 C -22.256267,907.89776 -21.792697,908.36932 -21.335667,908.84925 C -21.145507,909.13809 -20.974227,909.44056 -20.786557,909.73105 C -21.620187,909.56254 -22.457407,909.41285 -23.289737,909.24323 C -23.572697,909.18557 -23.854977,909.11297 -24.137337,909.05231 C -26.054817,911.43591 -27.491007,914.13767 -28.325117,917.00472 C -26.706247,916.47175 -25.072587,915.98039 -23.433177,915.51662 C -22.108797,915.7844 -20.781517,916.08214 -19.457547,916.35224 C -17.865237,913.37222 -15.286187,910.82112 -11.909594,909.24659 L 8.5389803,899.71127 C 8.1869723,899.08219 7.8360063,898.45457 7.5144213,897.80987 C 8.0549723,897.75255 8.5936693,897.67781 9.1418363,897.60268 C 9.3335803,897.57641 9.5492423,897.59089 9.7572893,897.59154 C 10.02488,897.98549 10.285983,898.37703 10.54985,898.77358 L 28.364463,890.46649 C 28.275813,890.19486 28.169573,889.90897 28.079638,889.63385 C 29.771472,887.95568 29.336791,887.91669 28.157428,888.3218 C 28.184895,888.26138 28.189723,888.21716 28.217889,888.15568 C 28.391484,887.7768 27.947524,887.39699 27.689617,887.0228 C 28.02536,887.1364 28.365057,887.23615 28.584473,887.01929 C 29.584498,886.03091 30.378529,885.31146 31.039413,884.66771 C 31.727323,884.82211 32.418088,884.98466 33.110287,885.11575 C 32.708796,885.68026 32.348517,886.24651 32.016718,886.76355 C 31.828105,887.05745 32.114273,887.3057 32.484682,887.54527 C 32.42965,887.76201 32.381335,887.97873 32.34101,888.19843 C 32.314225,888.34436 32.32587,888.47526 32.329559,888.61754 L 38.871969,885.56676 C 38.766035,885.37982 38.628322,885.14963 38.511568,884.94177 C 38.537865,884.91294 38.557368,884.90222 38.583327,884.87383 C 38.768666,884.89805 38.547604,884.86438 38.764558,884.89276 C 39.115562,884.90257 39.564504,884.96578 40.033176,885.02528 L 63.6255,874.024 C 63.441875,873.57209 63.257126,873.11176 63.089746,872.65324 C 63.796299,872.84468 64.48636,873.06391 65.183217,873.29763 L 66.004558,872.91463 C 66.206959,872.58105 66.44721,872.29243 66.654211,872.16344 C 66.561705,872.35956 66.461514,872.54541 66.372746,872.74294 L 108.62934,853.03836 C 108.81688,852.77805 109.00435,852.51398 109.19594,852.25695 C 109.02359,851.77527 108.82112,851.30504 108.63377,850.82954 C 108.97945,850.98495 109.35049,851.12852 109.6739,851.13757 C 109.9271,851.14465 110.25595,851.11842 110.39325,850.90558 C 110.75416,850.34613 111.11514,849.79345 111.47362,849.22946 C 111.73552,849.93083 112.01677,850.63474 112.2829,851.33468 L 117.69242,848.81218 C 117.13489,847.40947 116.55522,846.00128 116.03233,844.58661 C 117.59559,845.55341 119.16865,846.49022 120.77953,847.37264 L 134.11925,841.15222 C 134.03484,841.12626 133.95439,841.08784 133.87008,841.06153 C 134.28757,840.23082 134.65918,839.37407 134.94693,838.49056 C 135.18679,837.7541 134.44728,837.02655 134.11123,836.32868 C 133.46693,834.99064 132.93938,834.19802 132.36015,833.38685 L 126.1576,836.27914 C 126.32844,836.4962 126.50278,836.71702 126.67091,836.93628 C 127.25167,837.7789 127.69381,838.36331 128.11076,838.98883 C 127.97446,838.93372 127.83143,838.89349 127.69547,838.83768 C 126.50326,838.29418 125.33478,837.75265 124.17505,837.20362 L 100.61105,848.19169 C 100.64974,848.27788 100.69105,848.36048 100.72991,848.44659 C 100.63235,848.62246 100.54572,848.79242 100.45036,848.95624 C 100.35564,848.73248 100.27561,848.54636 100.28248,848.44835 C 100.28603,848.39783 100.32318,848.34142 100.38447,848.29735 L 99.478173,848.71997 C 99.307393,848.9652 99.084413,849.27885 98.837903,849.63918 C 98.310203,849.20229 97.940413,849.7305 97.234543,851.5247 C 96.791673,851.14533 96.351726,850.76426 95.909583,850.38403 L 89.253885,853.48763 C 89.606335,853.78503 89.97048,854.06902 90.320278,854.36959 C 90.127301,854.80891 89.915743,855.2682 89.65154,855.81928 C 88.544286,856.79509 88.04692,857.33421 88.023668,857.57831 C 87.311995,858.42597 87.116007,859.35318 86.716271,860.91192 C 86.869461,861.36595 87.007109,861.80193 87.168967,862.25245 C 87.01776,862.19259 86.862934,862.14704 86.712149,862.08618 C 85.893544,859.99751 85.059409,857.91693 84.212548,855.83844 L 56.400227,868.80754 C 56.431615,868.992 56.452467,869.1673 56.483133,869.35505 C 56.53434,869.55257 56.598704,869.73662 56.649096,869.93279 C 56.382853,869.64378 56.104058,869.35659 55.833785,869.07168 L 5.8452463,892.38172 L -7.8626637,898.77382 C -5.1824737,898.64998 -2.4911037,898.52062 0.18738626,898.36463 C 0.18748626,898.59259 0.19625626,898.82202 0.19662626,899.04994 C 0.20444626,899.65505 0.19566626,900.27198 0.18853626,900.88118 C -0.68244374,900.95934 -1.5688437,900.95431 -2.3469437,901.06356 C -3.6792837,901.11268 -4.9560037,901.53313 -6.2644837,901.68352 C -6.9777437,901.36391 -7.6792337,900.99923 -8.3748237,900.63323 C -8.6561637,900.22658 -8.9457337,899.81785 -9.2221237,899.40775 L -15.622927,902.39249 z M 136.29692,831.5511 C 135.72081,832.41353 135.14842,833.28895 134.52156,834.10299 C 134.76655,836.19755 135.48525,838.17601 136.21509,840.17492 L 141.65294,837.63921 C 141.59055,837.45045 141.52242,837.26302 141.45865,837.07468 C 141.6663,837.19397 141.87023,837.32165 142.07777,837.44111 L 162.80956,827.77371 C 160.74926,827.5372 158.70561,827.35037 156.63068,827.2414 C 155.56021,827.28285 154.43796,826.87095 153.3647,827.04032 C 153.68922,826.59128 154.00383,826.14849 154.32414,825.69643 C 154.67547,825.83764 155.00886,825.91532 155.24732,825.67971 C 155.85765,825.78853 156.47264,825.88936 157.08414,825.99553 C 160.31122,826.33879 160.21182,826.60211 162.00577,819.83871 C 162.02009,819.81431 162.00568,819.78538 162.00768,819.76886 C 162.32277,819.55388 162.63357,819.33938 162.94804,819.12348 L 150.03315,825.14579 C 149.5243,825.84616 149.0319,826.54934 148.53544,827.25789 C 148.3664,827.16303 148.19522,827.07254 148.02579,826.97833 C 148.01532,826.94925 147.99663,826.92245 147.98617,826.89337 C 147.85507,826.52567 147.83669,826.4878 147.73906,826.21554 L 136.29692,831.5511 z M 163.14629,819.03103 C 165.27142,819.95538 167.38027,820.98724 169.5303,821.7779 C 169.80662,821.83917 170.05446,821.92843 170.33637,821.95371 C 170.96584,822.0101 171.56285,821.68026 172.19036,821.64086 C 172.24594,821.63738 172.31098,821.64921 172.37159,821.6598 C 172.62135,822.09654 172.85522,822.53765 173.11881,822.96643 L 179.1231,820.16658 C 178.74019,819.56773 178.34563,818.95989 177.95693,818.33122 C 178.67802,818.89895 179.38746,819.46888 179.72168,819.74954 C 179.75752,819.77963 179.79533,819.8063 179.83116,819.83641 L 189.34739,815.39892 C 189.32202,815.3421 189.29358,815.28578 189.26815,815.22899 C 188.93334,814.44347 188.57359,813.67207 188.24183,812.88016 C 189.65263,812.9224 191.06598,812.95822 192.47252,813.07964 C 192.97141,813.13228 193.46468,813.19627 193.96389,813.24621 L 201.97905,809.50868 C 202.61375,808.60248 202.96825,807.68542 202.6368,806.92625 C 202.39933,806.38234 202.03662,805.88915 201.68575,805.40434 C 205.05738,804.89837 204.66305,804.88292 207.35712,798.41518 L 193.84747,804.71484 C 194.25766,805.50026 194.65873,806.29182 195.08334,807.06939 C 193.07309,806.96674 191.04335,806.93056 189.03271,806.96 L 163.14629,819.03103 z M 209.2547,797.53033 C 210.52255,798.6765 211.80629,799.82071 213.08987,800.94852 C 214.41496,802.07789 215.24241,802.838 215.88521,803.02413 L 217.01809,802.49586 C 217.0311,802.4773 217.0485,802.46065 217.06153,802.44112 C 217.06855,802.44779 217.06772,802.46277 217.07474,802.46944 L 242.45136,790.63613 C 238.956,790.24672 235.49188,789.6853 232.03828,789.00948 C 232.00188,788.85404 231.96103,788.70058 231.92515,788.54503 C 235.89993,788.89472 239.87737,789.31998 243.81082,790.0022 L 259.07644,782.88373 C 259.02364,782.55603 258.96343,782.22084 258.95582,782.1814 C 258.58178,780.24483 258.03213,778.3506 257.46231,776.46446 C 257.32306,775.99064 257.21094,775.62994 257.09076,775.22401 L 209.2547,797.53033 z M 258.79009,774.4316 C 260.24271,775.00317 261.67259,775.65709 263.08635,776.32452 C 263.90444,777.50844 264.71805,778.69389 265.56221,779.85937 L 282.61212,771.90886 C 280.50755,770.01794 278.42974,768.14536 276.48378,766.45674 C 277.24936,766.59576 278.01568,766.71924 278.77932,766.86897 C 280.00483,767.10501 281.22567,767.3337 282.45104,767.57046 C 282.40703,768.99491 282.53806,770.48265 282.69709,771.86924 L 287.73842,769.51843 C 287.64792,769.01036 287.56811,768.54067 287.56513,768.18553 C 287.51533,767.73097 287.46066,767.27002 287.40695,766.81111 C 288.35367,767.31151 289.26444,767.85428 290.20245,768.36943 L 308.27196,759.94348 C 306.76005,759.25484 305.28521,758.50175 303.8021,757.75222 C 303.21257,756.77436 302.63317,755.79643 302.07934,754.79718 C 301.98186,754.61102 301.9294,754.52615 301.83971,754.35723 L 270.11893,769.14887 C 270.65544,769.56662 271.20369,769.97032 271.73459,770.39535 C 271.28928,770.94347 270.85884,771.43283 270.50705,771.82978 C 270.46494,771.81473 270.42448,771.79932 270.38246,771.78443 C 269.75586,771.5625 269.13322,771.28017 268.51557,771.03439 C 268.09506,770.85079 267.67895,770.667 267.2584,770.48276 L 258.79009,774.4316 z M 307.78735,751.5838 C 307.95541,751.64653 308.09788,751.67004 308.22157,751.55372 C 308.37584,751.40862 308.46263,751.3371 308.60869,751.2008 L 307.78735,751.5838 z M 309.54332,750.76498 C 310.63714,751.53785 311.70661,752.37047 312.8351,753.09182 C 314.16645,754.02621 315.57068,755.13971 317.10846,755.82295 L 322.29141,753.4061 C 322.53411,753.14205 322.75787,752.8756 322.94106,752.65492 C 323.04862,752.69096 323.17152,752.74593 323.27329,752.77584 C 323.36148,752.80176 323.44814,752.80444 323.53758,752.825 L 325.80335,751.76846 C 326.02956,751.3559 326.27199,750.95059 326.50789,750.54343 C 326.51473,750.55057 326.51426,750.56461 326.5211,750.57175 C 326.46345,750.85336 326.37255,751.13304 326.24711,751.38913 C 326.21562,751.45343 326.12191,751.55945 326.05825,751.6496 L 326.65301,751.37225 C 326.75999,751.2557 326.86328,751.13397 326.97028,751.01743 C 327.01621,751.06517 327.06018,751.11326 327.10617,751.16095 L 338.68991,745.75936 C 338.63662,745.23156 338.58288,744.69805 338.52617,744.0772 C 338.48999,743.5284 338.45982,743.08568 338.42654,742.60652 C 339.36928,743.2706 340.30857,743.91466 341.26723,744.55753 L 347.95125,741.44073 C 355.92133,737.72419 365.18154,740.82775 368.71778,748.41124 L 408.72124,834.19894 C 412.25744,841.78242 408.68259,850.87107 400.7125,854.58759 L 376.80863,865.73414 C 377.36402,866.67869 377.83676,867.6224 378.15,868.83255 C 378.18371,868.9628 378.18736,869.14985 378.17817,869.33663 C 377.29337,869.56383 376.43321,869.87674 375.53116,870.01926 C 373.97338,870.26532 372.3415,870.34183 370.7151,870.26515 C 371.49443,869.61054 372.17916,868.62944 372.78689,867.60951 L 350.58235,877.96366 C 350.79234,878.00064 350.99661,878.0075 351.21291,877.91099 C 351.3559,877.84719 351.44391,877.8016 351.5811,877.7393 C 351.80201,878.0917 352.02147,878.24224 352.24557,877.98114 C 352.49689,877.68831 352.73505,877.36766 352.984,877.05063 C 353.19761,876.94556 353.46831,876.83428 353.66373,876.73367 C 352.99123,877.7751 352.25927,879.42417 350.67754,881.64317 C 350.66958,881.67062 350.65477,881.6987 350.64731,881.72623 C 350.04007,880.88345 349.45374,880.02917 348.84325,879.18838 C 348.77096,879.08451 348.70045,878.97877 348.62812,878.87493 L 339.08357,883.32563 C 339.14304,883.81635 339.2058,884.45931 339.23983,884.76991 C 339.38054,886.05382 339.53234,887.32581 339.65215,888.61187 C 339.41041,888.46831 339.21303,888.36496 338.9915,888.23032 C 338.80871,887.66108 338.61912,887.09297 338.43697,886.52351 C 338.37766,886.49613 338.31695,886.4621 338.25765,886.43473 C 338.29395,886.39207 338.33602,886.35418 338.37284,886.31205 C 338.12676,885.54232 337.88423,884.76923 337.63914,883.99918 L 321.01406,891.75158 C 321.08188,891.86848 321.14701,891.98993 321.21407,892.10656 C 322.12091,893.68382 323.009,895.26841 323.90856,896.84972 C 323.87717,896.8943 323.86696,896.94231 323.83489,896.98751 C 323.156,896.89604 322.25434,896.7628 321.84326,896.7094 C 321.08832,896.59887 320.34212,896.49383 319.58734,896.38213 C 319.76958,896.0411 319.96374,895.69957 320.17477,895.34964 C 320.35141,895.05674 320.03778,894.66513 320.00706,894.32447 C 319.96647,893.87447 319.98376,893.41828 319.96026,892.96707 C 319.9476,892.7289 319.94403,892.49149 319.93781,892.25344 L 315.34963,894.39295 C 315.34828,894.41622 315.34904,894.43953 315.34772,894.4628 C 314.95643,894.63009 314.63192,895.02738 314.26751,895.62164 C 313.87335,895.56654 313.47807,895.50428 313.08386,895.44949 L 303.19944,900.05867 C 303.22245,900.06148 303.24629,900.05777 303.26929,900.06058 C 302.74593,900.99508 302.61154,901.78694 302.59628,903.20182 C 302.02967,903.83261 301.46483,904.45762 301.0817,904.90802 C 301.05125,904.89192 300.98277,904.87524 300.95711,904.86267 C 299.84307,904.13953 298.74859,903.3909 297.64831,902.64721 L 265.19116,917.78222 C 266.41301,918.24497 267.63632,918.68142 268.8438,919.18222 C 268.93625,919.27219 269.02097,919.37985 269.11557,919.46926 C 268.70431,920.28579 268.5539,920.9889 268.61837,921.80442 C 267.63327,921.18542 266.62964,920.59115 265.63416,919.98929 C 265.23283,919.743 264.18511,919.09296 263.37854,918.62746 L 200.47512,947.95981 C 201.13632,949.87475 201.79634,951.76995 202.48591,953.67691 C 201.96651,954.34015 201.45949,955.01876 200.93537,955.67572 C 200.8137,955.80161 200.69746,955.94749 200.57467,956.08528 C 200.50082,956.02803 200.42939,955.96903 200.35573,955.91153 C 189.96864,947.80326 200.43257,955.79151 194.13096,950.91814 L 59.600901,1013.6506 C 59.829917,1014.2338 60.075704,1014.8078 60.308344,1015.3895 C 60.025939,1015.78 59.784268,1016.167 59.57739,1016.5579 C 59.160608,1016.4215 58.727328,1016.2852 58.301291,1016.1875 C 58.039519,1016.1798 57.793554,1016.1407 57.532929,1016.1665 C 57.199354,1016.1995 56.889253,1016.2616 56.590818,1016.3645 C 56.194072,1016.1107 55.796758,1015.8722 55.409228,1015.6052 L 40.851657,1022.3935 C 40.602867,1022.5095 40.353167,1022.6057 40.102075,1022.7085 C 40.293695,1022.9746 40.491756,1023.2398 40.68142,1023.5073 L 39.111947,1025.6873 C 39.270141,1025.8249 39.409238,1025.9898 39.561132,1026.133 C 39.431411,1026.0561 39.306142,1025.9762 39.176073,1025.8988 C 39.153071,1025.8289 39.135355,1025.757 39.111947,1025.6873 C 39.061851,1025.5381 39.022543,1025.3847 38.970489,1025.2361 C 38.710494,1024.6602 38.481583,1023.9466 38.070517,1023.38 C 30.829231,1025.322 23.218208,1022.1419 20.085136,1015.423 L -19.918327,929.63524 C -21.894357,925.39765 -21.654377,920.70167 -19.663427,916.72409 C -20.325137,916.86764 -20.951557,917.10956 -21.528877,917.45604 C -21.730807,918.08062 -21.915547,918.6356 -22.105167,919.10399 C -22.155757,918.69861 -22.171237,918.29341 -22.155777,917.88629 C -22.919457,918.44022 -23.629747,919.13347 -24.319867,919.82639 C -24.199757,919.39959 -24.076457,918.91285 -23.902207,918.35586 C -23.604217,917.83392 -23.305677,917.32116 -23.006897,916.80051 C -22.927877,916.66282 -23.272737,916.96791 -23.405307,917.05525 C -23.433507,917.06849 -23.462067,917.08167 -23.490277,917.09487 C -23.479407,917.06278 -23.471097,917.04427 -23.460047,917.01182 C -23.313287,916.5807 -24.252177,917.36426 -24.664687,917.60803 C -26.027217,918.21394 -27.406697,918.78138 -28.820407,919.27003 C -29.596597,923.55878 -29.127287,928.07674 -27.162907,932.28935 L -26.145987,934.47015 C -25.279187,934.31316 -24.389927,933.98066 -23.521727,934.10845 C -23.407067,934.12533 -23.644327,934.31517 -23.738907,934.38213 C -24.221037,935.28099 -23.691047,936.12164 -22.669007,936.15894 C -22.406997,936.16851 -22.143717,936.10172 -21.883617,936.06856 C -21.853557,936.06079 -21.828667,936.0369 -21.798657,936.02894 C -21.502567,936.38656 -21.208577,936.73873 -20.919217,937.10151 C -20.688107,937.60493 -20.450997,938.09946 -20.219257,938.60259 C -21.096667,939.58572 -21.964877,940.58656 -22.831077,941.57901 L -22.051867,943.25001 C -21.174207,942.27614 -20.295307,941.30017 -19.413637,940.33024 C -19.247847,940.69154 -19.076717,941.04478 -18.911777,941.40648 C -18.792567,941.66088 -18.674527,941.91683 -18.555197,942.17117 C -18.750077,942.4487 -18.949117,942.74616 -19.080267,942.9677 C -19.253957,942.76545 -19.440787,942.55867 -19.608687,942.3521 C -20.177057,943.12576 -20.790307,943.87012 -21.417947,944.60947 L 13.395238,1019.2666 C 18.598387,1030.4248 32.119283,1035.0511 43.715324,1029.6438 L 72.660531,1016.1464 C 72.642989,1015.8977 72.640201,1015.6533 72.62488,1015.4045 C 72.698189,1015.3306 72.757871,1015.246 72.826951,1015.1723 C 73.253416,1015.2745 73.677501,1015.3735 74.104959,1015.4729 L 88.634205,1008.6978 C 88.366457,1008.2478 88.126019,1007.7808 87.832254,1007.3477 C 87.654379,1007.0854 87.284581,1006.6135 86.996255,1006.2204 C 87.173996,1005.7215 87.29097,1005.178 87.389405,1004.6233 C 87.743853,1004.8071 88.096397,1004.9971 88.450225,1005.1976 C 89.500303,1005.8407 90.45166,1006.6385 91.409773,1007.4035 L 99.028423,1003.8508 C 99.305993,1003.4409 99.600583,1003.0429 99.872663,1002.6296 C 99.936153,1002.5332 100.0112,1002.1942 100.09191,1001.7688 C 100.82631,1000.9513 101.33676,999.86892 102.00171,997.87846 C 102.65043,998.23022 103.30045,998.57643 103.94402,998.93814 C 104.47909,999.19227 105.29405,999.64224 105.9223,999.7052 C 106.49494,999.76256 107.15211,999.60505 107.49131,999.077 C 108.81227,997.02064 109.72383,995.80661 110.35833,994.94716 C 111.96388,995.42445 113.58026,995.87932 115.20035,996.30975 L 124.65994,991.89867 C 124.57179,991.88446 124.48374,991.86411 124.39565,991.84951 C 124.48581,991.4584 124.54309,991.05798 124.63765,990.66777 C 124.66371,990.56021 124.70379,990.4562 124.73025,990.34874 C 124.80535,990.35241 124.90808,990.36596 124.98133,990.36958 C 125.12298,990.47691 125.2638,990.58216 125.40601,990.68876 C 125.51399,990.92456 125.63036,991.16 125.73618,991.39681 L 141.90811,983.85572 C 141.8861,983.73972 141.86948,983.62061 141.8478,983.50455 C 142.17021,983.30821 142.48926,983.10741 142.81457,982.91582 C 143.50986,982.50632 144.21389,982.12661 144.91613,981.72896 C 145.11551,981.87281 145.30497,982.03549 145.50502,982.17845 L 202.88563,955.42143 C 202.94401,955.34844 203.00082,955.27532 203.05938,955.20249 C 203.07334,955.24161 203.09826,955.27664 203.11221,955.31578 L 208.23851,952.92534 C 207.92328,952.07315 207.60013,951.22208 207.28777,950.36887 C 207.51145,950.13389 207.73723,949.90611 207.96384,949.67433 C 208.7393,949.8575 209.51801,950.01982 210.299,950.17153 C 211.06369,950.32007 211.96942,950.92405 212.63607,950.59888 C 212.70756,950.65832 212.78348,950.71325 212.85501,950.77263 L 222.34292,946.34835 C 221.8718,945.69785 221.40057,945.04065 220.94269,944.38076 C 221.42531,944.91607 221.88953,945.46015 222.38079,945.98588 C 222.50698,946.06506 222.59917,946.10604 222.71111,946.17666 L 225.45836,944.8956 C 225.64777,944.39077 225.90529,943.78616 226.18007,943.04191 C 226.53522,943.40975 226.87323,943.74669 227.21433,944.07677 L 233.89835,940.95996 C 234.19857,940.30104 234.41284,939.85383 234.61244,939.38568 C 235.11246,939.53917 235.5924,939.7327 236.07915,939.94304 L 301.92808,909.23718 C 301.84928,909.19606 301.77267,909.14637 301.69402,909.10496 C 301.83181,908.95389 301.97163,908.84766 302.09626,908.71051 C 302.32492,908.78658 302.54438,908.8518 302.74942,908.85418 L 304.22217,908.16742 C 304.90525,907.48462 305.42576,906.38504 305.92402,905.23605 C 306.23864,905.8007 306.54811,906.36749 306.85613,906.93919 L 316.79719,902.3036 C 316.65789,902.2186 316.50899,902.14086 316.3706,902.05427 C 316.26083,901.98292 316.26609,901.97436 316.16487,901.90884 C 316.51784,901.97034 316.86943,902.04184 317.22202,902.10549 L 345.85569,888.7534 C 345.95878,888.51819 346.03846,888.36833 346.0918,888.29849 C 346.07133,888.20656 346.04956,888.10931 346.02959,888.01718 C 346.21542,888.14951 346.40882,888.27373 346.59206,888.41002 L 354.63554,884.65928 C 354.70841,884.56839 354.77967,884.47634 354.85273,884.38561 C 354.84405,884.42771 354.82127,884.51229 354.77715,884.59325 L 355.59849,884.21025 C 355.6389,884.14753 355.67497,884.0803 355.7156,884.01772 C 355.71469,883.55971 355.67507,883.12902 355.64048,882.67353 C 357.43413,882.41582 358.41136,881.54721 358.93172,880.4147 C 359.47017,880.87657 359.94656,881.44523 360.4699,881.93868 L 369.61794,877.67288 C 369.53177,877.51668 369.43959,877.33716 369.3519,877.17628 C 369.64791,877.24665 369.94517,877.3113 370.24103,877.38233 L 404.45415,861.42849 C 410.61454,858.55584 414.93382,853.43678 416.86916,847.6053 C 416.78405,847.41443 416.69028,847.22967 416.60502,847.03886 C 416.76826,846.99895 416.93388,846.95225 417.0978,846.91252 C 418.57214,841.94803 418.32585,836.532 415.99414,831.53162 L 386.4769,768.23169 C 385.27651,767.77066 384.08904,767.30736 382.89411,766.8336 C 381.58098,764.44905 380.26998,762.05543 378.96566,759.66604 C 379.62152,760.58074 380.01589,761.16209 380.37543,761.28437 C 380.39777,761.32111 380.43443,761.34759 380.45658,761.38445 C 380.5871,761.60178 380.651,762.30661 380.78675,762.0925 C 381.42243,761.08975 381.96552,760.28134 382.44882,759.59344 L 375.436,744.55439 C 373.16627,739.68697 369.32173,736.04921 364.73672,733.95834 C 364.4418,734.0984 364.16477,734.23922 363.92859,734.36966 C 363.59066,734.03215 363.2451,733.70098 362.90754,733.36311 C 362.83775,733.29247 362.77349,733.21849 362.70371,733.14784 C 362.68975,733.14302 362.67615,733.1375 362.66218,733.13272 C 357.18206,731.25729 350.91391,731.47355 345.1159,734.17721 L 344.69107,734.37531 C 344.72197,734.48537 344.72123,734.46588 344.7552,734.58677 C 345.09576,736.04576 345.47772,737.52214 345.83755,738.9783 C 345.70932,738.89584 345.54766,738.83706 345.42417,738.7573 C 344.04019,737.86346 342.72775,736.88666 341.40571,735.9073 L 334.89162,738.94487 C 334.16015,740.45742 333.67585,741.77438 333.66743,741.79144 C 333.34792,742.43898 333.6322,743.25003 333.6498,743.97193 C 333.68894,745.57719 333.76408,746.64967 333.86386,747.90634 C 332.94218,747.08987 332.07557,746.23081 331.22158,745.3456 C 331.27029,745.08356 331.34813,744.81128 331.38227,744.58105 C 331.58926,743.18506 331.67964,741.78979 331.80451,740.38441 L 309.54332,750.76498 z M -22.155777,917.88629 C -21.948007,917.73558 -21.745717,917.58617 -21.528877,917.45604 C -21.407877,917.08178 -21.282607,916.68813 -21.160387,916.24979 C -20.996077,915.66042 -22.134417,917.17715 -22.167077,917.78812 C -22.168817,917.82071 -22.154547,917.85371 -22.155777,917.88629 z M 338.37284,886.31205 C 338.39525,886.38213 338.41455,886.45342 338.43697,886.52351 C 338.45007,886.52956 338.46539,886.53258 338.4785,886.53863 C 338.44346,886.45997 338.4295,886.24724 338.37284,886.31205 z M 334.91376,740.69306 C 334.82883,740.80287 334.74095,740.91495 334.65313,741.02147 C 334.55469,741.14088 334.73286,740.86723 334.91376,740.69306 z M 42.195121,877.53481 C 42.529729,877.72715 42.870241,877.93365 43.199297,878.13545 C 42.906844,878.10603 42.613771,878.05848 42.321463,878.02758 C 42.310621,877.9448 42.297067,877.89155 42.28566,877.80291 C 42.26164,877.71163 42.220024,877.62608 42.195121,877.53481 z M 28.730206,885.77899 C 28.727584,885.81738 28.724444,885.8531 28.713182,885.89037 C 28.668596,886.03791 28.312172,886.37459 28.395914,886.2452 C 28.498832,886.08621 28.623624,885.93586 28.730206,885.77899 z M 222.85924,795.94474 C 222.90538,796.06325 222.9331,796.19582 222.93276,796.32423 C 222.93205,796.58692 222.19694,797.04139 222.29074,796.79601 C 222.37386,796.57855 222.46594,796.35796 222.57411,796.14666 C 222.67013,796.07468 222.76511,796.01944 222.85924,795.94474 z M 286.90846,767.147 C 286.95441,767.28873 287.0097,767.42497 286.99709,767.48496 C 286.94726,767.72194 286.25205,768.01208 286.34568,767.78872 C 286.38835,767.68694 286.43114,767.58478 286.47981,767.48481 C 286.62775,767.37527 286.76507,767.26272 286.90846,767.147 z M -14.119867,907.76018 C -13.695207,907.78288 -13.273677,907.79542 -12.849337,907.82285 C -12.727727,907.9488 -12.617964,908.08415 -12.496414,908.20997 C -13.344847,908.3857 -14.182757,908.57967 -15.028237,908.76993 C -14.473607,908.30237 -14.184287,908.06241 -14.119867,907.76018 z M 134.33308,839.46641 C 134.3983,839.48233 133.92426,840.30146 133.63426,840.48188 C 133.5583,840.52914 133.46199,840.56949 133.37936,840.60075 C 133.65822,840.22076 133.94294,839.86672 134.26132,839.53435 C 134.29507,839.49912 134.32376,839.46413 134.33308,839.46641 z M -27.841957,923.88241 C -27.799837,923.87014 -27.757487,923.87011 -27.715467,923.85791 C -27.852227,924.01033 -27.985867,924.16659 -28.119607,924.32221 C -28.020787,924.17984 -27.940697,924.02484 -27.841957,923.88241 z M -26.667547,923.36926 C -26.625627,923.35849 -26.593827,923.32677 -26.554257,923.31643 C -26.713717,923.52389 -26.856747,923.74111 -27.018857,923.94684 C -26.899657,923.75603 -26.786757,923.56008 -26.667547,923.36926 z M 20.63421,913.96645 C 15.608101,916.31022 12.489401,919.9609 11.233101,924.93605 C 10.387342,928.2527 10.489299,931.84678 11.498004,935.70838 C 11.655689,936.005 11.812257,936.2953 11.977267,936.58827 C 12.044239,936.70724 12.109685,936.82467 12.177277,936.94325 C 12.490127,937.76513 12.822408,938.61092 13.065799,939.21841 C 12.63719,938.36987 12.180824,937.54193 11.75069,936.69393 C 12.228961,938.29765 12.852143,939.94333 13.642777,941.63885 C 16.514565,947.79742 20.270194,951.98548 24.888954,954.22112 C 25.718905,954.62044 26.548575,954.97471 27.391988,955.22621 C 27.838294,954.5691 28.29245,953.9132 28.759389,953.27832 C 29.24222,954.10804 29.729882,954.94547 30.229316,955.76509 C 33.1864,956.06609 36.205017,955.49566 39.321861,954.04225 C 39.987868,953.73169 40.641856,953.38075 41.251582,953.00448 C 40.572835,951.84952 39.885799,950.70118 39.221244,949.53773 C 39.82521,948.74621 40.358957,947.91476 40.896524,947.06699 C 40.956744,947.26899 41.015331,947.4711 41.075694,947.67305 C 41.185252,948.03962 41.930327,951.02852 42.618678,952.09115 C 43.045528,951.76906 43.468244,951.42207 43.863095,951.06262 C 45.187445,949.85701 46.320016,948.45152 47.30595,946.83667 L 47.160674,946.52513 C 47.119025,946.58361 47.086624,946.59551 47.034179,946.54963 C 47.062854,946.51321 47.092276,946.47649 47.121054,946.44016 L 46.724849,945.5905 C 46.677507,945.65971 46.626728,945.727 46.579422,945.79623 C 46.513302,945.66623 46.481359,945.57008 46.394526,945.39973 C 45.924582,944.47777 45.569198,943.50988 45.20034,942.54301 C 45.073179,942.20969 44.960946,941.87465 44.836274,941.54044 L 43.581626,938.84983 C 42.727019,940.78149 41.742233,942.33813 40.61437,943.5781 C 39.486477,944.81813 38.155124,945.79378 36.605531,946.51635 C 33.8297,947.81075 31.101845,947.71739 28.449981,946.18168 C 25.798104,944.64603 23.544456,941.87305 21.686259,937.88811 C 19.820005,933.88594 19.152447,930.39437 19.680652,927.37579 C 20.208845,924.35728 21.877544,922.17927 24.653358,920.88484 C 26.202964,920.16229 27.806126,919.76954 29.48102,919.70256 C 31.1559,919.63566 32.994556,919.91015 35.023606,920.4971 L 31.299283,912.51026 C 29.442564,912.22968 27.652744,912.21256 25.890521,912.44637 C 25.806393,912.63577 25.718357,912.82415 25.637378,913.01266 C 25.550625,912.84641 25.458251,912.68224 25.371333,912.51607 C 23.762508,912.77869 22.168012,913.25129 20.63421,913.96645 z M 39.288791,906.12969 C 39.333009,906.25812 39.388127,906.3826 39.432158,906.51109 C 39.327043,906.50542 39.245696,906.55399 39.13573,906.61483 C 38.980266,906.70084 38.871502,906.75778 38.724105,906.84126 C 38.707731,906.68512 38.673722,906.59964 38.573104,906.73927 C 38.490525,906.85386 38.409986,906.98113 38.325687,907.096 C 37.877859,907.35631 37.402076,907.63331 37.032259,907.87154 L 53.923783,944.09553 C 53.902841,944.00184 53.882538,943.9079 53.861566,943.81422 C 55.007689,944.02455 56.140997,944.41619 57.217928,944.80068 L 62.570809,942.30459 L 55.756089,927.69038 L 57.936892,926.67345 C 59.20353,926.08285 60.371594,925.95285 61.456011,926.30824 C 62.553876,926.6574 63.928651,927.63031 65.570736,929.21679 L 72.014135,935.4185 C 72.708464,934.51246 73.31859,933.54807 73.674452,932.472 C 74.006088,931.46917 72.650837,930.62675 72.113986,929.71712 C 71.845004,929.26137 71.984056,929.48214 71.753585,929.09213 C 73.708454,928.24449 74.900393,927.55179 75.462026,926.91461 L 72.697069,924.23866 C 70.79695,922.41546 69.151035,921.14675 67.795356,920.45579 C 66.445069,919.74134 65.153614,919.4797 63.94431,919.66552 C 65.522685,917.98446 66.422906,916.0914 66.615443,914.00644 C 66.821423,911.91523 66.318479,909.59854 65.127957,907.04538 C 63.406487,903.35375 61.231138,901.0803 58.575239,900.23952 C 55.932799,899.39256 52.610191,899.91791 48.63509,901.77144 L 39.288791,906.12969 z M 68.602184,892.46063 L 71.058652,897.72855 C 71.039363,895.61561 70.983181,893.50059 70.896275,891.39088 L 68.602184,892.46063 z M 74.861372,889.54193 C 74.679468,890.10377 74.492458,890.75068 74.277448,891.46928 C 73.977032,891.84427 73.688312,892.20938 73.367171,892.54888 C 73.291047,892.62935 73.592645,892.53652 73.703219,892.5301 C 73.771102,892.60103 73.839165,892.67445 73.907047,892.74538 C 73.826914,893.01985 73.761519,893.21398 73.676501,893.50802 C 73.441556,894.32063 74.477502,894.99639 74.887864,895.73607 C 75.383276,896.62906 75.877568,897.53036 76.380387,898.41919 C 76.065313,898.83758 75.767072,899.26742 75.505913,899.72346 C 75.224328,900.21515 75.966415,900.78105 76.175644,901.30759 C 76.462501,902.02946 76.743945,902.74015 77.011338,903.46946 C 76.827189,903.76766 76.638868,904.05603 76.456042,904.34905 C 76.207908,904.74673 76.606744,905.28704 76.725599,905.7405 C 77.193608,907.52611 78.145579,910.18616 78.69853,911.82006 C 79.773615,914.88541 80.836257,917.94472 81.914659,921.00933 L 86.616287,931.092 L 91.147826,928.97891 C 90.721443,927.61962 90.265845,926.25874 89.833175,924.90259 C 89.437462,923.66226 89.039935,922.42107 88.648683,921.17934 C 88.820588,920.93831 88.995835,920.69151 89.17184,920.45265 C 89.391303,920.29145 89.642444,920.11268 89.842181,919.96767 C 91.74307,922.29472 93.653573,924.61121 95.594399,926.90544 L 105.08231,922.48116 C 103.80693,920.08679 102.53802,917.67134 101.66716,915.97073 C 101.5198,915.68297 101.37552,915.39436 101.22943,915.10595 L 90.891855,919.92644 L 86.771327,911.08994 L 99.204733,905.29215 L 95.691723,897.75846 L 83.258313,903.55626 L 79.903781,896.36244 L 93.13021,890.19486 L 89.617196,882.66117 L 87.946191,883.44037 C 88.379119,883.74244 88.810148,884.04319 89.235344,884.35638 C 89.422204,884.66018 89.606906,884.96481 89.797664,885.2665 C 90.315603,886.76862 90.805116,888.28814 91.282096,889.78086 C 91.100654,890.01754 90.934565,890.26655 90.758938,890.50754 C 90.582291,890.6087 90.408941,890.72007 90.247231,890.81512 C 89.702952,889.43748 89.166379,888.05234 88.655084,886.66131 C 88.401177,885.97052 87.967584,884.75223 87.578003,883.61206 L 74.861372,889.54193 z M 104.4863,875.72759 L 104.49951,875.75591 L 108.44904,901.0849 C 108.74948,901.7888 109.05908,902.47385 109.3565,903.17883 C 109.40718,903.56459 109.45021,903.84943 109.65086,903.66221 C 109.90204,903.42785 110.15654,903.19701 110.38358,902.94126 C 111.72416,904.21129 113.06085,905.48848 114.40364,906.75596 C 114.50293,906.84969 115.50089,907.78272 116.29855,908.52735 C 116.93651,909.76861 117.59808,911.00311 118.2382,912.24328 C 118.38344,912.53259 118.53052,912.81878 118.67593,913.10806 L 117.7958,907.96709 L 129.94599,902.30137 L 135.13207,908.46872 L 142.94898,904.82364 L 113.77596,871.39575 L 105.84577,875.09366 C 106.17391,875.67496 106.50138,876.26075 106.83261,876.84025 C 106.41859,876.2881 105.94525,875.62914 105.75317,875.41269 C 105.70832,875.36215 105.64595,875.28615 105.59087,875.21253 L 104.51463,875.71438 C 104.50845,875.7219 104.49247,875.7201 104.4863,875.72759 z M 122.10266,867.51295 L 125.61568,875.04663 L 135.64171,870.37142 L 149.31077,899.68481 C 149.67528,899.4033 150.02817,899.11089 150.39655,898.8337 C 150.41256,898.95344 150.42092,899.07747 150.42853,899.19807 C 150.50221,899.02196 150.55068,898.83402 150.62503,898.65819 C 152.03573,897.59733 153.46533,896.54326 154.71517,895.30274 C 155.02155,894.99865 154.91312,894.43025 154.83449,894.0058 C 154.77985,893.71081 154.71803,893.42166 154.63464,893.13354 C 155.57134,894.40134 156.52369,895.66244 157.49555,896.9026 L 143.43029,866.73954 L 145.32787,865.85468 C 145.15038,865.60603 144.98069,865.3479 144.80326,865.09938 C 144.72447,864.99898 144.66424,864.88866 144.58814,864.78593 C 145.00723,865.06451 145.42246,865.33257 145.83767,865.61696 L 153.428,862.07753 L 149.91499,854.54385 L 122.10266,867.51295 z M 150.42853,899.19807 C 150.21568,899.70684 150.00428,900.22066 149.79942,900.73273 L 149.82583,900.78937 C 149.98856,900.6045 150.44015,899.79664 150.43602,899.43594 C 150.43512,899.35717 150.43348,899.27645 150.42853,899.19807 z M 153.9084,852.68169 L 168.18498,883.2979 C 168.77984,883.01933 169.29433,882.74858 169.7314,882.47335 C 170.53911,884.66099 171.26837,886.87426 171.89861,889.11744 C 171.52961,889.04539 171.17332,888.96951 170.79993,888.90568 L 171.92251,891.31306 L 192.6543,881.64566 C 191.21374,879.58097 189.78096,877.51739 188.34987,875.44648 C 188.18163,875.20377 188.00619,874.96254 187.83847,874.71949 L 176.19808,880.1475 L 172.07755,871.311 L 184.51096,865.5132 L 180.99794,857.97952 L 168.56453,863.77731 L 165.21,856.5835 L 173.48006,852.7271 C 173.2213,852.31551 172.96486,851.91292 172.70261,851.50353 C 172.28616,850.85341 171.89487,850.1568 171.41376,849.55297 C 171.27981,849.38484 171.05806,849.33376 170.87771,849.21676 C 170.48019,849.98215 170.03803,850.73051 169.58573,851.47429 C 164.94806,847.33551 164.90518,847.29722 165.09564,847.46499 L 153.9084,852.68169 z M 170.87335,844.7708 C 172.08028,845.93915 173.29475,847.10709 174.37247,848.20778 C 175.03756,849.26477 175.70181,850.32428 176.36891,851.38001 L 178.43643,850.41591 L 174.92342,842.88223 L 170.87335,844.7708 z M 184.49629,838.41832 C 184.80465,838.74886 185.25278,839.19729 185.50222,839.46639 C 185.68063,839.65887 185.9473,839.95982 186.14012,840.16887 C 185.6173,841.2408 185.10368,842.33096 184.52881,843.36836 C 184.54714,843.46249 184.57226,843.55565 184.59103,843.64967 C 184.51743,843.71796 184.44369,843.79917 184.38896,843.88182 C 184.36328,843.92059 184.32778,843.9525 184.30208,843.99129 L 200.2163,878.11944 L 203.89818,876.40255 C 201.67407,874.26874 199.46555,872.12548 197.25095,869.98557 C 197.32903,869.33072 197.39289,868.569 197.42913,867.55781 C 197.4232,867.55658 197.42185,867.53072 197.41592,867.52949 C 197.44091,866.82611 197.44927,866.04082 197.4676,865.12623 C 197.48735,864.1418 196.62915,863.46346 195.81263,862.76023 C 195.58932,862.05199 195.35798,861.33735 195.12984,860.6305 C 196.85122,861.65797 198.58775,862.64669 201.33614,864.25328 C 202.20045,864.74445 203.06034,865.24367 203.92398,865.73603 L 198.5356,854.18061 C 197.62229,854.18323 197.10433,854.19138 196.43816,854.1932 C 195.02168,853.30517 193.65415,852.37811 192.26297,851.45077 C 192.25218,851.41607 192.234,851.40003 192.22335,851.3658 C 193.95015,851.82476 195.67985,852.29448 197.39951,852.77946 C 197.61938,853.03368 197.84345,853.28483 198.06382,853.53859 C 198.19618,853.69453 198.32393,853.85479 198.45636,854.01067 L 193.5038,843.38988 L 196.27937,842.09561 C 199.47292,840.60648 202.38238,840.46848 204.9864,841.6904 C 207.59039,842.9124 209.78894,845.40856 211.57476,849.2382 C 213.3686,853.08517 213.87626,856.43125 213.1331,859.23499 C 212.40337,862.03251 210.44749,864.17673 207.26744,865.65961 L 205.36986,866.54447 C 205.84487,866.81391 206.31127,867.09869 206.78742,867.36612 C 207.91993,868.00221 211.10968,869.81652 213.26181,870.89836 C 213.33007,871.15437 213.41008,871.40321 213.47869,871.65924 C 215.43187,870.50202 216.9659,869.37094 218.04458,868.28883 C 219.91417,866.38795 221.17251,864.05993 221.85639,861.3048 C 222.45875,858.90272 222.59002,856.39061 222.21541,853.79302 C 221.83273,851.17824 220.94939,848.4161 219.58992,845.50067 C 219.33571,844.95552 219.06244,844.45311 218.7937,843.94105 C 218.77614,843.98098 218.76607,844.02577 218.74835,844.06563 C 218.6464,843.86228 218.54172,843.66932 218.52765,843.44445 C 218.53445,843.44728 218.54918,843.42843 218.55598,843.43125 C 217.47237,841.44388 216.27664,839.71168 214.96487,838.24418 C 213.2158,836.28756 211.20704,834.77334 208.97974,833.69073 C 206.44309,832.43741 203.87062,831.94368 201.23421,832.16493 C 199.55707,832.29102 197.46779,832.81434 194.99808,833.72814 C 195.0167,833.80598 195.01476,833.87156 195.03388,833.95281 C 195.34521,834.51036 195.66666,835.05891 195.98111,835.61443 C 195.95365,835.60324 195.92554,835.5953 195.89805,835.58419 C 195.61323,835.46912 194.35103,834.89451 192.99102,834.52612 C 192.16285,834.87222 191.31976,835.23651 190.41562,835.65809 L 184.49629,838.41832 z M 197.42913,867.55781 C 197.5496,867.58289 197.68528,867.59569 197.8048,867.624 C 198.18331,865.93644 198.05462,866.50211 197.42913,867.55781 z M 228.39558,817.94775 L 253.57518,853.23779 L 262.55329,849.05123 L 254.26734,817.15869 L 269.9152,839.03252 C 270.12008,838.5188 270.29112,838.03792 270.54623,837.42801 C 270.85453,836.69094 270.14447,835.86784 269.9107,835.10384 C 269.85233,834.91308 269.77576,834.7298 269.71641,834.53931 C 271.17008,837.09838 272.6514,839.66203 274.14879,842.19597 C 273.48687,841.83155 272.83791,841.45101 272.18006,841.07966 C 271.71097,840.8757 271.24138,840.54258 270.77762,840.21648 L 273.4573,843.9666 L 282.43541,839.78004 L 271.53016,797.83376 L 264.39299,801.16188 C 265.13694,802.39808 265.86447,803.64786 266.58372,804.89864 C 266.28611,805.30845 266.01079,805.7097 265.69795,806.10474 C 265.66355,806.21891 265.61422,806.32349 265.57702,806.43697 C 265.50579,806.29816 265.42223,806.16395 265.3506,806.02534 L 272.01478,831.77801 L 253.74387,806.12764 L 246.23851,809.62745 L 254.14352,840.11152 L 235.84429,814.47435 L 228.39558,817.94775 z M 276.62814,795.45653 L 292.6084,829.72629 C 293.97447,830.46653 295.32432,831.20159 296.70068,831.92122 C 297.11218,832.13638 297.5402,832.33583 297.95594,832.5427 L 302.43083,830.45603 L 300.48943,826.29267 C 298.28071,825.32531 295.28238,823.8311 292.5558,822.44094 C 291.15053,820.20224 290.3452,818.91181 290.1046,818.51532 C 291.20507,817.73707 292.02822,817.05426 292.59534,816.38841 C 295.1834,819.46675 297.72149,822.57895 300.22529,825.72623 L 284.41673,791.82466 L 276.62814,795.45653 z M 292.6084,829.72629 L 294.64225,834.0879 L 297.72936,832.64836 C 296.00674,831.70456 294.30141,830.72333 292.6084,829.72629 z M 288.49511,789.92287 L 292.00813,797.45656 L 302.03416,792.78134 L 316.53525,823.87903 L 324.29551,820.26036 L 309.79442,789.16267 L 319.82045,784.48746 L 316.30743,776.95378 L 308.54717,780.57244 C 308.54717,780.75574 308.59431,780.9494 308.67161,781.13507 C 308.65804,781.29082 308.64288,781.46659 308.62992,781.63723 C 308.29779,781.42641 307.97225,781.20687 307.64086,780.99506 L 300.6453,784.25715 C 300.9488,784.44562 301.51387,784.80347 301.71742,784.92955 C 303.22426,785.86451 304.74003,786.7866 306.25507,787.70985 C 306.22737,787.75376 306.20907,787.80372 306.1814,787.84764 C 305.93556,788.10356 305.68052,788.3552 305.43357,788.61013 C 305.42082,788.59864 305.39111,788.57764 305.37884,788.56669 C 305.06115,788.28344 304.62313,787.51302 304.35016,787.83955 C 303.51247,788.84168 303.04261,789.38599 302.45784,790.06669 C 301.78728,789.44314 301.09645,788.84437 300.42514,788.22163 C 299.87086,787.18781 299.34394,786.15567 298.77604,785.1288 L 288.49511,789.92287 z M 320.30085,775.09161 L 334.44536,805.4246 C 336.50423,807.2846 338.57881,809.16046 340.63973,811.01833 C 340.63147,811.04671 340.64615,811.05963 340.63783,811.08819 C 340.56029,811.35426 340.53621,811.61628 340.56019,811.88296 C 340.02375,811.87882 339.5102,811.85617 339.04049,811.72959 C 338.95928,811.70771 338.88504,811.68921 338.80452,811.66722 C 337.89455,810.68788 336.96729,809.73203 336.01697,808.79493 L 338.31495,813.72298 L 346.10354,810.09111 L 338.46999,793.72092 L 349.94045,788.37216 L 357.57399,804.74235 L 365.36258,801.11047 L 348.41823,764.77319 C 348.02962,764.02439 347.65333,763.26691 347.26351,762.51872 L 339.55989,766.11098 L 342.96725,773.41808 C 343.29073,773.37096 343.61205,773.32212 343.93578,773.27678 C 344.24664,773.65597 344.93979,774.53982 345.35494,775.06313 C 345.03023,775.6887 344.74712,776.2403 344.51245,776.73177 L 346.42744,780.83848 L 334.95698,786.18724 L 328.08943,771.45974 L 320.30085,775.09161 z M 43.701316,904.27898 C 43.940582,904.63791 44.171781,905.00321 44.412729,905.36095 C 44.314646,905.49352 44.206909,905.61386 44.108667,905.7441 C 43.964491,905.25824 43.847296,904.76433 43.701316,904.27898 z M 45.055436,908.95755 C 45.203386,909.13739 45.348968,909.31369 45.446068,909.49949 C 46.027302,910.61166 46.576168,911.72631 47.144175,912.84532 C 47.089347,912.93404 47.051168,913.03186 46.996839,913.1209 C 46.674672,912.84642 46.348643,912.57226 46.02671,912.2975 C 45.714308,911.18098 45.376516,910.07165 45.055436,908.95755 z M 47.924445,910.89536 L 51.181488,909.37658 C 52.81195,908.61633 54.167055,908.43955 55.221704,908.87182 C 56.289801,909.29787 57.205602,910.39043 58.026129,912.15001 C 58.854675,913.92688 59.126491,915.38117 58.774338,916.49047 C 58.435626,917.59353 57.434329,918.52905 55.803875,919.28932 L 52.546832,920.80811 L 47.924445,910.89536 z M 281.18686,803.60597 C 282.65825,805.1454 284.01325,806.62247 285.05768,807.76612 C 284.87962,808.20347 284.71659,808.64668 284.61552,809.11016 C 284.55088,809.09644 284.49687,809.0976 284.43429,809.09123 C 283.34997,807.26768 282.2591,805.43674 281.18686,803.60597 z M 113.35731,882.62475 L 124.65044,896.04714 L 116.38038,899.90353 L 113.35731,882.62475 z M 344.86781,781.6347 C 345.6792,782.22058 346.83708,782.90204 348.38235,783.99559 C 348.89308,784.35687 349.40812,784.71074 349.91877,785.07214 C 349.45803,785.11472 348.99215,785.16577 348.53114,785.20199 C 347.50417,784.32674 346.49276,783.44201 345.47166,782.55994 C 345.27307,782.25004 345.06761,781.94384 344.86781,781.6347 z M 126.08403,893.72358 C 126.68719,894.4563 127.30036,895.18432 127.92596,895.89897 C 129.15463,896.81677 129.66933,897.27522 130.07401,897.10407 C 132.33434,899.9922 134.53062,902.92001 136.713,905.86957 C 136.71437,905.88739 136.73806,905.90847 136.73941,905.92622 C 136.5977,905.85 136.43812,905.79621 136.29771,905.71842 C 134.51334,904.72985 132.81318,903.61901 131.17308,902.41878 C 130.93475,902.16187 130.70215,901.9039 130.46724,901.64454 C 129.66146,900.75485 128.96715,899.94418 128.31201,899.167 C 127.57494,897.34891 126.82106,895.54173 126.08403,893.72358 z M 52.029173,928.49729 C 53.890674,931.27135 55.72195,934.06805 57.603519,936.82827 C 57.790494,937.10256 57.961232,937.46117 58.107287,937.83466 C 57.123517,937.56017 56.129783,937.39185 55.154762,937.41846 C 54.574897,937.43427 53.993646,937.66026 53.425357,937.77664 C 53.141224,937.94874 52.874324,938.10352 52.586992,938.27102 C 52.046968,935.93131 51.496626,933.5835 50.93339,931.2495 C 51.287951,930.70379 51.655219,930.14787 52.113834,929.49223 C 52.305023,929.21893 52.11869,928.8333 52.029173,928.49729 z M 62.238037,924.80572 C 62.524932,925.32369 62.790513,925.86165 63.075793,926.38046 C 62.660093,926.0499 62.260074,925.69978 61.845192,925.36819 C 61.977131,925.18013 62.113754,924.99869 62.238037,924.80572 z M 289.00751,819.26826 C 289.02438,819.25736 289.0474,819.25271 289.06416,819.24184 C 288.86881,819.59325 288.643,819.90761 288.75819,819.69484 C 288.83521,819.55257 288.92558,819.40869 289.00751,819.26826 z M 146.27884,886.82367 C 146.46248,887.28044 146.8035,888.22523 146.99568,888.73064 C 146.61207,888.25032 146.23751,887.75627 145.86149,887.25964 C 146.00954,887.14895 146.13318,887.00376 146.27884,886.82367 z M 109.42322,907.38882 L 111.34149,919.56245 L 114.74015,917.97763 C 114.64005,917.78393 114.53341,917.59336 114.43448,917.39607 C 113.77017,916.07123 113.09122,914.76045 112.4175,913.44036 C 111.4179,911.42834 110.41119,909.40608 109.42322,907.38882 z M 219.01471,856.31995 C 219.18725,856.57373 219.37023,856.81913 219.53931,857.07526 C 219.57855,857.03569 219.61511,856.992 219.65451,856.95258 C 219.71421,857.05083 219.76929,857.15215 219.82811,857.25092 C 219.95882,857.4704 220.00108,858.14166 220.14507,857.93065 C 220.15828,857.91129 220.17536,857.8953 220.18851,857.87591 C 220.26794,858.58721 220.34419,859.29578 220.42387,860.0074 C 220.03953,859.81191 219.64544,859.65397 219.24976,859.486 C 219.28743,859.3991 219.33221,859.31013 219.36877,859.22362 C 219.66228,858.52908 218.88686,857.84235 218.47453,857.15801 C 218.69407,856.82643 218.83422,856.60189 219.01471,856.31995 z M 174.38034,879.13317 C 175.94088,881.15177 177.50812,883.16851 179.06617,885.18899 C 178.24174,885.98446 177.61052,886.7229 177.13042,887.47087 C 176.85226,886.27506 176.51108,885.13811 176.48359,885.04852 C 175.86892,883.04552 175.12702,881.0907 174.38034,879.13317 z M 103.26862,914.15506 C 103.75677,914.88898 104.2526,915.63578 104.74618,916.36243 C 105.67673,917.81718 106.60389,919.26244 107.53518,920.71671 C 107.62971,920.86432 107.69529,921.04488 107.77291,921.22651 L 108.08445,921.08123 L 104.57144,913.54755 L 103.26862,914.15506 z M 188.40491,874.45536 C 189.11895,874.86473 189.95218,875.47255 190.69457,875.59443 L 189.84934,873.78181 L 188.40491,874.45536 z M 96.431388,918.27429 C 96.600048,918.43426 96.759533,918.57561 96.924009,918.66523 C 96.991809,918.80626 97.054331,918.94902 97.122113,919.09006 C 96.894602,918.81761 96.657591,918.54782 96.431388,918.27429 z M 78.827169,930.13821 C 79.7949,931.22785 80.788535,932.28767 81.801527,933.33716 L 82.028104,933.23151 L 78.827169,930.13821 z M 78.120872,930.91581 C 77.601117,931.17806 76.915808,932.72554 75.82556,936.1238 L 80.328777,934.02392 C 80.308371,933.98779 80.296295,933.94679 80.27595,933.91063 C 80.203332,933.3299 80.081237,932.8711 79.730653,932.88912 C 79.081962,931.63126 78.619041,930.66445 78.120872,930.91581 z M 61.096913,940.4748 C 61.133167,940.58483 61.175908,940.69019 61.213866,940.79955 C 59.94088,941.68612 60.340217,941.38165 61.096913,940.4748 z M 155.80822,914.65385 C 155.40969,914.83969 155.02597,915.02679 154.66022,915.22365 C 156.16161,916.56326 157.64623,917.92124 159.13519,919.27448 C 159.18388,919.25128 159.22715,919.2316 159.2768,919.20844 C 160.53476,918.62187 161.93479,918.17739 163.50794,917.85608 C 165.08109,917.53488 166.77147,917.3518 168.56951,917.3233 L 165.88852,911.57391 C 163.9985,911.91042 162.22885,912.33869 160.55488,912.85421 C 158.87525,913.35768 157.29599,913.96009 155.80822,914.65385 z M 154.20515,915.50481 C 151.82914,916.86807 150.16994,918.48042 149.29146,920.34767 C 148.2265,922.61142 148.32033,925.06791 149.57812,927.76524 C 150.58212,929.91833 152.01289,931.3591 153.85102,932.04822 C 154.54485,932.30452 155.32023,932.45293 156.17298,932.51709 C 155.99273,932.07269 155.83765,931.61629 155.65043,931.17466 C 155.89218,930.77279 156.13776,930.38374 156.36818,929.97795 C 156.92298,930.70333 157.48006,931.43494 157.79863,931.86248 C 157.91831,932.02309 158.00138,932.26216 158.10239,932.51389 C 159.02612,932.44477 160.02377,932.29532 161.09293,932.05035 L 164.0892,931.37726 C 165.90344,930.97306 167.19699,930.8856 167.95566,931.09144 C 168.7264,931.29164 169.29342,931.81594 169.68828,932.66267 C 170.12821,933.60616 170.06088,934.52547 169.48735,935.41137 C 168.91381,936.29731 167.8712,937.06153 166.34711,937.77218 C 165.42777,938.20089 164.44133,938.56076 163.39603,938.83796 C 164.53393,940.41665 165.66581,942.01095 166.78904,943.6002 C 167.6686,943.2852 168.52232,942.9299 169.36254,942.53808 C 171.94738,941.33275 173.89292,939.97148 175.19162,938.47519 C 174.87967,937.86499 174.56291,937.23378 174.30295,936.71731 C 174.37624,936.8207 174.44475,936.92743 174.51808,937.03077 C 174.84357,937.48678 175.12248,937.89124 175.37858,938.28457 C 175.83015,937.73546 176.19273,937.15454 176.47406,936.56692 C 177.56964,934.27419 177.42591,931.65752 176.03274,928.66978 C 174.97232,926.39578 173.52405,924.92826 171.67868,924.28673 C 169.83328,923.64521 167.24917,923.70943 163.9553,924.50911 L 162.53362,924.86172 C 163.02817,925.92424 163.53174,926.99951 164.02599,928.06212 C 163.82572,927.96936 163.62926,927.8716 163.47672,927.6976 C 163.40555,927.61641 163.32898,927.53677 163.25969,927.454 C 163.27451,927.41176 163.27499,927.41348 163.28992,927.37094 C 163.46762,926.86432 162.68291,926.55719 162.24627,926.16805 C 161.97874,925.82253 161.71628,925.47209 161.44989,925.12571 L 160.70413,925.30106 C 159.15353,925.67071 158.01364,925.80037 157.28318,925.65497 C 156.55919,925.49191 156.0362,925.05125 155.69776,924.32544 C 155.24653,923.35779 155.29956,922.45017 155.88357,921.61827 C 156.24622,921.10167 156.84913,920.61012 157.6303,920.11414 C 156.48214,918.57777 155.33839,917.05231 154.20515,915.50481 z M 182.72171,902.34525 C 179.96188,904.1825 178.09779,906.50024 177.09378,909.27966 C 175.78815,912.92208 176.14342,916.92825 178.19087,921.31901 C 180.2327,925.69774 183.07885,928.55704 186.70835,929.89817 C 190.34993,931.23364 194.33351,930.89396 198.67593,928.86902 C 199.13287,928.65595 199.55729,928.42249 199.98066,928.19166 C 199.95319,928.15861 199.9268,928.1248 199.89951,928.09158 C 199.92975,927.91681 199.98192,927.74151 199.99783,927.563 C 200.1168,926.22889 198.32867,925.44731 197.54076,924.3642 C 197.32919,924.07337 197.12982,923.77384 196.92179,923.48049 C 196.72132,923.59384 196.53004,923.69765 196.31191,923.79936 C 194.18303,924.79209 192.16593,924.78522 190.25937,923.75982 C 188.35281,922.73449 186.73852,920.79385 185.41301,917.95127 C 184.08187,915.09666 183.63851,912.62465 184.07858,910.50507 C 184.34631,909.21551 184.9103,908.1252 185.80318,907.25276 C 184.91861,905.90881 184.05129,904.55399 183.18777,903.19682 C 183.03767,902.90897 182.86931,902.63439 182.72171,902.34525 z M 188.68257,899.60014 C 190.09848,901.29553 191.52938,902.98608 192.94768,904.67979 C 192.78299,904.87145 192.61919,905.06019 192.45666,905.25357 C 192.97798,905.38317 193.48644,905.61116 193.99132,905.88268 C 195.89786,906.90805 197.53487,908.82345 198.86601,911.67803 C 200.19149,914.52059 200.61216,917.0179 200.17212,919.13743 C 199.78502,921.00189 198.73822,922.4308 197.03508,923.42766 C 197.31525,923.61096 197.62045,923.78742 197.92978,923.94143 C 200.88139,924.34237 198.97037,924.15202 202.67194,918.21311 C 202.8725,918.44261 203.06846,918.67003 203.26831,918.90047 C 204.22501,920.0759 205.22442,921.23821 206.20671,922.39203 C 206.57831,921.74178 206.90175,921.07465 207.15691,920.36284 C 208.46253,916.72046 208.10165,912.70227 206.05983,908.3235 C 204.01235,903.93272 201.17184,901.08551 197.54235,899.74434 C 194.79487,898.72916 191.84549,898.68328 188.68257,899.60014 z M 28.923068,974.40754 L 41.3771,1001.1153 C 41.611045,1000.8805 41.843598,1000.6321 42.068282,1000.3792 C 42.127289,1000.4609 42.200445,1000.5616 42.256995,1000.636 C 42.363292,1000.776 42.466616,1000.9035 42.581592,1001.0364 L 48.30266,998.36858 C 48.360698,998.27807 48.433989,998.19894 48.491525,998.10811 L 46.246365,993.29335 C 46.21805,993.62788 46.193099,993.96337 46.163003,994.29768 C 44.058094,991.51373 42.442974,988.10725 41.079828,984.87565 C 41.801164,985.49759 42.534673,986.09798 43.252234,986.72453 L 54.354505,981.54745 L 51.898036,976.27954 L 40.739121,981.48303 L 38.388307,976.44169 L 50.255275,970.90803 L 47.785599,965.6118 L 43.735536,967.50037 C 43.756173,967.53643 43.767721,967.57761 43.788364,967.61366 C 43.887677,967.77286 43.984076,967.93741 44.082731,968.09704 C 43.274682,968.31548 42.460919,968.51858 41.647181,968.71555 C 41.58815,968.66306 41.528921,968.60928 41.469767,968.55692 L 28.923068,974.40754 z M 54.328009,962.56102 L 66.531111,988.73066 C 66.691818,988.50725 66.844946,988.27759 67.010831,988.05871 C 66.807445,987.6887 66.579364,987.34462 66.36927,986.97866 C 66.63028,986.74341 66.884401,986.50036 67.130302,986.24449 C 67.660577,986.67157 68.249752,987.20023 68.68008,986.83208 C 68.855583,986.68195 69.015991,986.51616 69.182397,986.35648 C 69.189563,986.36282 69.188438,986.37847 69.195604,986.38481 C 69.45046,986.838 69.710336,987.30482 69.969233,987.74809 C 70.018156,987.83185 70.159749,988.03709 70.22398,988.1465 L 73.962499,986.4032 L 69.18163,976.1506 L 71.135856,975.23933 C 72.272869,974.70914 73.289534,974.52782 74.198157,974.70785 C 75.118874,974.88229 76.234591,975.488 77.531618,976.53252 L 83.988529,981.72799 L 91.408924,978.2678 L 84.049827,972.32069 C 82.548059,971.12133 81.220365,970.32678 80.102975,969.92003 C 78.992025,969.49562 77.911125,969.37976 76.854022,969.60757 C 78.341997,968.25106 79.264066,966.81394 79.587068,965.26436 C 79.739294,964.55777 79.7506,963.81256 79.661346,963.05745 C 79.143671,962.17532 78.628337,961.2769 78.055534,960.42716 C 77.581756,959.7243 77.179682,959.07357 76.440027,958.6634 C 75.699738,958.55344 75.210836,958.48933 74.863684,958.53645 C 74.68799,958.4229 74.500221,958.31822 74.327624,958.20025 C 73.751668,957.80655 73.193734,957.4002 72.626999,956.99339 C 72.063889,956.57233 71.50345,956.14423 70.956604,955.70347 C 69.238624,955.91915 67.266638,956.52764 65.005447,957.58205 L 58.293105,960.71207 C 58.548213,960.90703 58.820263,961.08246 59.074521,961.27866 C 58.815825,961.5594 58.572031,961.80645 58.326695,962.04114 C 58.11307,961.69056 57.882287,961.35402 57.670019,961.00262 L 54.328009,962.56102 z M 82.933348,949.22213 L 95.572276,976.3264 L 100.69858,973.93596 C 99.900063,972.68196 99.117873,971.40633 98.341733,970.13874 C 98.932473,970.86357 99.512983,971.59528 100.11381,972.31221 C 100.5941,972.81528 100.97665,973.26171 101.32166,973.64541 L 107.18434,970.9116 C 107.07728,970.92996 106.96849,970.93919 106.8615,970.9587 C 107.24433,970.4021 107.45515,970.11435 107.93804,969.42229 C 108.23453,968.99738 107.6227,968.41666 107.41931,967.94015 C 106.99271,966.94067 106.55741,965.95518 106.10245,964.96823 L 100.06984,967.78128 L 97.177543,961.57874 L 105.27767,957.80159 C 105.17811,957.62406 105.08523,957.43989 105.02674,957.26347 C 104.68489,956.23237 104.32325,955.1944 103.9931,954.15949 C 104.87836,954.97114 105.78209,955.77335 106.69584,956.55412 C 106.84056,956.68272 106.97507,956.81315 107.11861,956.94315 L 108.33646,956.37525 L 105.87999,951.10734 L 94.721079,956.31083 L 92.370265,951.26949 L 104.23723,945.73583 L 101.76755,940.4396 L 90.97683,945.47139 C 91.163471,946.21751 91.783591,946.94989 92.076813,947.68243 C 92.107757,947.75973 92.151317,947.83178 92.182467,947.90901 C 91.85256,947.86418 91.522297,947.83367 91.193254,947.78411 C 91.212269,946.4586 91.299327,945.63662 90.400387,947.63662 C 89.865292,947.54988 89.33248,947.4813 88.799539,947.38318 C 88.645608,947.15586 88.496011,946.92748 88.342873,946.69963 L 82.933348,949.22213 z M 108.30996,937.38882 L 120.94889,964.49309 L 140.20793,955.51245 L 137.73826,950.21621 L 125.47478,955.93477 L 122.58249,949.73222 L 133.7414,944.52874 L 131.28493,939.26082 L 120.12602,944.46431 L 117.7752,939.42297 L 129.64217,933.88931 L 127.17249,928.59308 L 108.30996,937.38882 z M 205.00167,892.30073 L 217.6406,919.405 L 224.60785,916.15612 L 219.24588,904.65734 L 230.40479,899.45385 L 227.94832,894.18594 L 216.78941,899.38943 L 214.4386,894.34809 L 226.30556,888.81443 L 224.85281,885.699 C 224.8097,885.66391 224.73087,885.6031 224.68861,885.56869 C 224.70532,885.53514 224.73022,885.50629 224.74716,885.47242 L 223.83589,883.5182 L 205.00167,892.30073 z M 227.1779,881.95979 L 229.64757,887.25603 L 238.62569,883.06946 L 245.36116,897.51374 C 245.63825,896.65717 245.90705,895.86532 246.3645,894.56328 C 246.41893,894.40836 246.43379,894.2464 246.41939,894.08944 C 247.83804,896.22577 249.20929,898.39271 250.57648,900.56421 C 249.32506,900.35096 248.07566,900.14095 246.81788,899.9722 C 246.60954,899.7504 246.39942,899.52233 246.19319,899.29804 L 248.79494,904.8775 L 255.7905,901.61541 L 245.62125,879.80738 L 254.59936,875.62082 L 252.12968,870.32458 L 242.38688,874.86773 C 242.43568,874.95296 242.4858,875.0261 242.53406,875.10942 C 242.36905,875.31299 242.21025,875.50863 242.02793,875.72472 C 241.91886,875.85399 241.98608,876.24171 242.08617,876.66301 C 242.04973,876.61121 242.0151,876.55807 241.97861,876.50629 C 241.67385,876.08764 241.41881,875.7404 241.19735,875.42241 L 227.1779,881.95979 z M 253.40418,869.73027 L 272.50055,893.82339 L 280.54403,890.07265 L 275.81408,867.2109 L 290.34348,885.50309 L 297.99046,881.93725 C 297.79059,881.69849 297.59096,881.4515 297.38088,881.22156 C 297.23538,881.0623 296.29268,880.10083 295.85782,879.65606 C 296.5732,879.65872 297.27582,879.6501 297.94206,879.61514 L 292.14884,851.66334 L 285.49314,854.76695 L 289.99873,876.62994 L 276.17516,859.11199 L 269.4345,862.25521 L 273.96841,884.105 L 260.11652,866.60026 L 253.40418,869.73027 z M 301.86332,847.1334 L 302.10601,850.02005 C 303.35249,850.75024 304.6102,851.48553 305.9453,852.26398 C 307.08006,852.95559 308.1925,853.69058 309.29754,854.42471 L 308.985,851.53616 L 317.727,860.59679 L 315.12136,861.81182 C 315.28653,862.07941 315.43889,862.35334 315.60254,862.62186 C 316.00574,863.28349 316.40451,863.94961 316.80642,864.61204 C 316.73512,864.75794 316.64535,864.91518 316.5703,865.06695 C 315.51722,864.23769 314.43819,863.43328 313.36539,862.63064 L 310.3066,864.05698 L 309.89811,860.07531 C 308.47295,859.05697 307.0367,858.03899 305.59085,857.04966 C 304.4823,855.26286 303.35058,853.46584 302.22823,851.68708 L 304.48004,878.77318 C 304.79414,878.4086 305.102,878.04294 305.41864,877.68038 C 305.6307,877.58145 305.82131,877.49868 306.04172,877.38983 C 307.74744,876.54752 309.33505,875.43897 310.84167,874.15164 C 310.92914,874.21275 311.27272,874.43365 311.39094,874.51616 L 310.88824,869.88881 L 321.82058,864.79098 L 325.8311,868.95494 L 332.85498,865.67965 L 310.19003,843.2506 L 301.86332,847.1334 z M 323.78464,836.91133 L 326.45242,842.63239 C 327.3696,842.04928 328.29344,841.4183 329.20173,840.7642 C 329.91202,841.91129 330.62979,843.06658 331.33024,844.21965 C 331.30261,844.25721 331.27094,844.29153 331.24336,844.32912 C 330.88333,843.95382 330.5053,843.59422 330.14117,843.2225 C 329.49832,844.21222 328.77537,845.17804 328.09007,846.14434 L 336.42357,864.01559 L 343.41913,860.75351 L 338.63827,850.5009 L 340.62081,849.57642 C 341.75782,849.04624 342.77448,848.86492 343.68311,849.04494 C 344.60383,849.21939 345.71954,849.8251 347.01658,850.86962 L 353.44516,856.07829 L 360.89388,852.6049 L 353.50646,846.671 C 352.00469,845.47163 350.7053,844.66389 349.58793,844.25713 C 348.47698,843.83272 347.36775,843.73007 346.31066,843.95788 C 347.79863,842.60137 348.72072,841.16424 349.0437,839.61467 C 349.37876,838.05947 349.12102,836.37916 348.28626,834.5889 C 347.07919,832.00042 345.38014,830.5058 343.15255,830.08668 C 340.93699,829.66196 338.03034,830.26845 334.46208,831.93235 L 326.07874,835.84157 C 326.54186,836.57182 327.01344,837.28635 327.47324,838.01871 C 326.82404,838.36486 326.17459,838.68679 325.5039,838.97151 C 325.56543,837.99989 325.6075,837.02561 325.62558,836.05288 L 323.78464,836.91133 z M 352.38998,823.57244 L 365.02891,850.6767 L 384.28795,841.69607 L 381.81828,836.39983 L 377.54164,838.39406 C 378.36102,839.33068 379.19211,840.24807 380.03849,841.16054 C 379.58924,841.20478 379.14164,841.26139 378.69239,841.30551 C 378.02647,840.4689 377.37959,839.61868 376.72029,838.77706 L 369.5548,842.11838 L 366.6625,835.91584 L 372.46854,833.20844 C 372.1959,832.83371 371.92975,832.44544 371.66086,832.06792 C 371.8269,831.82694 371.99367,831.59675 372.1557,831.35445 C 372.51101,831.8575 372.8753,832.35062 373.23324,832.85186 L 377.82142,830.71235 L 375.36495,825.44444 L 364.20604,830.64792 L 361.85522,825.60659 L 373.72219,820.07293 L 371.25251,814.77669 L 352.38998,823.57244 z M 110.97003,937.25179 C 111.23546,937.51153 111.51324,937.75044 111.77404,938.01473 C 111.76219,938.04077 111.74081,938.11267 111.72869,938.13932 C 111.58231,938.27585 111.40553,938.43166 111.26982,938.56018 C 111.16454,938.12086 111.06208,937.69499 110.97003,937.25179 z M 60.482536,962.44956 C 60.715825,962.64712 60.961598,962.85564 61.165778,963.02746 C 61.283321,963.32902 61.403509,963.62933 61.518546,963.93185 C 62.460788,966.40977 63.40362,968.89449 64.334958,971.3766 C 64.322254,971.39602 64.30429,971.41198 64.29152,971.43134 C 64.067671,971.09968 63.810668,970.74598 63.525372,970.30593 C 62.137133,968.20043 60.805619,966.06198 59.47775,963.91804 C 59.797494,963.45634 60.128731,962.97815 60.482536,962.44956 z M 207.9558,893.68165 C 207.96812,893.66608 207.99146,893.65331 208.01245,893.65523 C 208.16984,893.66961 208.31131,893.72957 208.45606,893.79318 C 208.33592,893.91263 208.23258,894.04369 208.11047,894.16121 C 208.00419,894.26349 207.86955,893.79058 207.9558,893.68165 z M 233.85528,882.15621 C 234.20198,882.30503 234.53172,882.48617 234.87648,882.64547 C 234.74898,882.87284 234.63029,883.1046 234.50814,883.33444 C 234.28804,882.9529 234.09122,882.58141 233.85528,882.15621 z M 252.52864,874.6555 C 252.5589,874.69904 252.59276,874.74035 252.62299,874.7839 C 252.67308,874.90192 252.73184,875.08465 252.83049,875.37676 C 252.69167,875.24868 252.57238,875.1051 252.43604,874.97452 C 252.45565,874.91895 252.47775,874.86436 252.4965,874.80841 C 252.51483,874.75372 252.53019,874.70653 252.52864,874.6555 z M 66.773253,961.44706 C 67.184494,961.80003 67.621843,962.13831 68.045382,962.47445 C 68.855595,962.24497 69.552301,962.18122 70.118317,962.33535 C 71.007576,962.56867 71.747365,963.31482 72.32271,964.5486 C 72.39533,964.70434 72.435,964.8372 72.49249,964.98664 C 72.53989,965.00616 72.582365,965.03053 72.630284,965.06031 C 74.103042,963.29523 75.156857,961.19237 76.615381,959.40917 C 77.843744,957.90735 74.588155,964.70571 72.998319,965.4059 C 73.289305,965.70577 73.561211,966.05588 73.689043,966.22167 C 74.074405,966.72149 74.432017,967.22276 74.779789,967.7474 C 74.547295,968.0478 74.355119,968.32639 74.198079,968.57034 C 73.770887,968.27782 73.349414,967.9751 72.922133,967.68266 C 72.834504,967.62269 72.748988,967.55426 72.661661,967.4938 C 72.640724,967.54981 72.626156,967.60556 72.601199,967.65991 C 72.226019,968.49755 71.304021,969.26471 69.840442,969.94721 L 66.923264,971.30751 L 63.687593,964.36859 L 66.604771,963.00829 C 66.828249,962.90408 67.031255,962.82878 67.241064,962.74606 C 67.084883,962.31249 66.927436,961.88145 66.773253,961.44706 z M 72.998319,965.4059 C 72.872777,965.27652 72.761882,965.1421 72.630284,965.06031 C 72.609147,965.08564 72.579832,965.10306 72.558525,965.12825 C 72.593584,965.22671 72.633966,965.32903 72.662271,965.42468 C 72.761652,965.44899 72.87654,965.45953 72.998319,965.4059 z M 333.14423,838.7189 L 336.08973,837.34539 C 337.55333,836.66294 338.72611,836.4336 339.60327,836.67245 C 340.49252,836.90577 341.23231,837.65192 341.80767,838.8857 C 342.38862,840.1316 342.47338,841.15376 342.08616,841.99701 C 341.74489,842.75893 340.92218,843.45074 339.68038,844.0843 C 339.78381,844.18545 339.89023,844.28544 339.99368,844.38645 C 340.63715,845.03129 341.28221,845.66845 341.9263,846.31266 C 341.11205,845.60822 340.30434,844.91569 339.49533,844.20507 C 339.43642,844.23369 339.38619,844.25596 339.3254,844.28431 L 336.3799,845.65782 L 333.14423,838.7189 z M 358.08189,830.15905 C 358.0487,830.34871 358.01386,830.53887 357.96845,830.72915 C 357.95181,830.71298 357.93036,830.70189 357.91372,830.68571 C 357.97042,830.51525 358.11287,829.98208 358.08189,830.15905 z M 265.98707,881.99955 C 266.67519,883.28011 267.39361,884.53673 268.10604,885.80426 C 268.00269,886.0302 267.87668,886.25615 267.76602,886.48002 C 267.33397,885.82755 266.83052,885.05482 266.46397,884.50114 C 266.07503,883.93534 265.68236,883.37162 265.29398,882.80547 C 265.52548,882.53761 265.74895,882.26331 265.98707,881.99955 z M 164.73916,929.59152 C 164.90666,929.9518 165.07323,930.3076 165.24102,930.66776 C 164.95538,930.25528 164.80807,930.02539 164.58243,929.69908 C 164.61531,929.67802 164.70737,929.61192 164.73916,929.59152 z M 202.06046,917.56727 C 202.0757,917.58456 202.09996,917.59341 202.1152,917.61071 C 202.0669,917.6878 202.10074,917.65402 202.04153,917.7485 C 202.01275,917.74018 201.98684,917.7271 201.95847,917.71827 C 202.02016,917.63162 202.0091,917.63954 202.06046,917.56727 z M 155.33835,939.52655 L 158.09858,945.44588 C 158.90449,945.38013 159.70029,945.27688 160.48306,945.16151 C 160.09765,944.71128 159.40225,944.33074 159.05054,943.86411 C 158.46504,943.08731 157.89379,942.2859 157.32571,941.4962 C 156.97615,940.84531 156.62482,940.18772 156.27474,939.53816 C 155.96736,939.53003 155.65273,939.54297 155.33835,939.52655 z M 111.7952,962.31366 C 111.32309,963.16569 110.79624,964.14858 110.10083,965.48291 C 109.80951,966.04188 110.26766,966.78504 110.61002,967.31431 C 110.95604,967.84922 111.40001,968.31499 111.91413,968.70606 L 114.80299,967.35897 L 112.33332,962.06273 L 111.7952,962.31366 z M 220.64779,913.72714 C 220.90365,913.96435 221.17097,914.199 221.42539,914.43343 C 221.39449,914.49936 221.38064,914.57476 221.34981,914.64108 C 221.12048,914.33125 220.87592,914.03784 220.64779,913.72714 z M 21.160614,1017.5075 C 21.268414,1017.6402 21.377265,1017.7753 21.485211,1017.9078 C 21.506747,1017.9855 21.55414,1018.0986 21.575751,1018.1759 C 21.441874,1017.9517 21.29484,1017.7315 21.160614,1017.5075 z M 94.304886,997.64021 C 94.389055,997.62126 94.473676,997.60998 94.557877,997.5912 C 95.353795,997.38732 96.159538,997.17387 96.951898,996.95758 C 97.074871,997.23459 97.164943,997.52444 97.278253,997.80533 C 97.265243,997.85504 97.258783,997.90834 97.246113,997.95824 C 96.29346,997.90535 95.359718,997.77927 94.457796,997.67235 C 94.406099,997.66622 94.356576,997.64644 94.304886,997.64021 z M 396.48487,856.83481 C 397.52189,857.15459 398.54952,857.49634 399.59015,857.80043 C 399.67062,857.90044 399.75327,858.00054 399.8336,858.10068 C 399.10159,858.06207 398.37322,858.02821 397.6418,857.98487 C 397.25992,857.59753 396.86433,857.22449 396.48487,856.83481 z M 382.79765,863.49311 C 383.66597,863.56361 384.53823,863.62076 385.40664,863.69022 C 385.528,864.91167 385.65642,866.27099 385.80193,867.64356 C 385.37603,868.17004 384.96495,868.70205 384.54225,869.23089 C 383.80135,869.06377 383.14095,868.91775 382.67711,868.92828 C 382.19535,868.93922 381.74234,869.16425 381.29505,869.36586 C 382.23852,867.73054 382.9485,866.21472 383.20103,865.61521 C 383.47936,864.95446 383.06961,864.18175 382.79765,863.49311 z M 136.38712,980.22369 C 136.49819,981.29744 136.61392,982.36354 136.74676,983.43509 C 135.92479,984.00962 135.0929,984.58088 134.28068,985.17121 C 132.60064,985.0461 130.81937,984.93305 129.52142,984.87341 C 129.4926,984.81734 129.47093,984.75957 129.44218,984.70348 C 129.37552,984.57343 129.29577,984.45014 129.22896,984.32017 C 131.67407,983.04142 134.09491,981.6577 136.38712,980.22369 z M 116.98808,990.23507 C 118.45655,990.21691 119.9294,990.18933 121.3793,990.18728 C 121.56495,990.19665 121.5954,990.20326 121.77009,990.21194 C 121.65965,990.60832 121.54907,990.9282 121.44694,991.2936 C 119.95042,990.9743 118.46487,990.63701 116.98808,990.23507 z M 141.17311,979.54358 C 141.45101,979.52977 141.73336,979.51153 142.01323,979.49663 C 142.12732,979.58895 142.2298,979.66746 142.34164,979.75725 C 141.99434,979.97806 141.66271,980.21995 141.31632,980.44225 C 141.268,980.14142 141.21906,979.84474 141.17311,979.54358 z M 285.54003,913.43099 C 285.60292,913.44961 285.67181,913.4596 285.73447,913.47825 C 285.76993,913.64718 285.7984,913.81504 285.83249,913.98423 C 285.73643,913.79862 285.63661,913.61634 285.54003,913.43099 z M 191.25333,959.01819 C 191.56075,959.24952 191.79224,959.4236 192.10269,959.65655 C 192.02363,959.68749 191.93572,959.73543 191.84779,959.77541 C 191.55333,959.82586 191.15194,959.90884 190.8075,959.98466 C 190.79152,959.95819 190.78395,959.9261 190.76788,959.89969 C 190.92219,959.59991 191.09811,959.31744 191.25333,959.01819 z"
       style="font-size:40px;font-style:normal;font-weight:normal;fill:#000000;fill-opacity:1;stroke:none;stroke-width:1px;stroke-linecap:butt;stroke-linejoin:miter;stroke-opacity:1;font-family:Bitstream Vera Sans" />
  </g>
</svg>
