<?xml version="1.0" encoding="UTF-8" standalone="no"?>
<!-- Created with Inkscape (http://www.inkscape.org/) -->

<svg
   xmlns:dc="http://purl.org/dc/elements/1.1/"
   xmlns:cc="http://creativecommons.org/ns#"
   xmlns:rdf="http://www.w3.org/1999/02/22-rdf-syntax-ns#"
   xmlns:svg="http://www.w3.org/2000/svg"
   xmlns="http://www.w3.org/2000/svg"
   version="1.1"
   width="300"
   height="91"
   id="svg2">
  <metadata
     id="metadata8">
    <rdf:RDF>
      <cc:Work
         rdf:about="">
        <dc:format>image/svg+xml</dc:format>
        <dc:type
           rdf:resource="http://purl.org/dc/dcmitype/StillImage" />
        <dc:title></dc:title>
      </cc:Work>
    </rdf:RDF>
  </metadata>
  <defs
     id="defs6" />
  <g
     transform="matrix(0.73146583,0,0,0.73146583,-1.4746395,-146.30095)"
     id="g3898">
    <g
       transform="translate(0,86.09016)"
       id="g3866">
      <g
         id="text2987"
         style="font-size:72.12260437px;font-style:normal;font-variant:normal;font-weight:normal;font-stretch:normal;line-height:125%;letter-spacing:0px;word-spacing:0px;fill:#6bb248;fill-opacity:1;stroke:none;font-family:Nimbus Sans L;-inkscape-font-specification:Nimbus Sans L">
        <path
           d="m 19.846911,161.47606 c 0.633871,5e-5 1.209067,0.0235 1.72559,0.0704 0.516482,0.0235 1.220804,0.0705 2.112967,0.14087 l 0,8.17014 c -0.56348,-0.0704 -1.514314,-0.11735 -2.852505,-0.14087 -1.314754,-0.0469 -2.230372,0.24656 -2.746857,0.88041 -0.493043,0.61045 -0.739555,1.29129 -0.739539,2.04253 -1.6e-5,0.75132 -1.6e-5,1.83128 0,3.23988 l 6.585414,0 0,7.07844 -6.585414,0 0,30.95497 -10.0013766,0 0,-30.95497 -5.5993624,0 0,-7.07844 5.493714,0 0,-2.46513 c -6.2e-6,-4.1085 0.6925767,-6.93752 2.0777508,-8.48708 1.4555902,-2.30073 4.9654592,-3.45113 10.5296182,-3.45118"
           id="path3091"
           style="font-weight:bold;fill:#6bb248;-inkscape-font-specification:Nimbus Sans L Bold" />
        <path
           d="m 44.498192,182.78181 c -2.324281,3e-5 -4.13204,0.72783 -5.423281,2.1834 -1.267794,1.45563 -2.066025,3.42773 -2.394696,5.91631 l 15.600739,0 c -0.164369,-2.65292 -0.974339,-4.66024 -2.429912,-6.02196 -1.432146,-1.38513 -3.216427,-2.07772 -5.35285,-2.07775 m 0,-8.27579 c 3.192905,4e-5 6.068885,0.59872 8.627949,1.79603 2.559006,1.19738 4.671971,3.08731 6.3389,5.66979 1.502518,2.27734 2.47683,4.91854 2.922938,7.92363 0.258214,1.76082 0.363862,4.29638 0.316945,7.60668 l -26.271222,0 c 0.140853,3.85031 1.349938,6.5502 3.62726,8.0997 1.38515,0.96258 3.052045,1.44387 5.000688,1.44386 2.06599,10e-6 3.744623,-0.58692 5.035905,-1.7608 0.704296,-0.63388 1.326447,-1.51428 1.866454,-2.64121 l 10.247889,0 c -0.258288,2.27732 -1.443896,4.58984 -3.556827,6.93757 -3.286868,3.73291 -7.888436,5.59937 -13.804717,5.59937 -4.883317,0 -9.191418,-1.57299 -12.924315,-4.71896 -3.732912,-3.14597 -5.599364,-8.26404 -5.599362,-15.35423 -2e-6,-6.64408 1.678631,-11.73867 5.035904,-15.28379 3.380737,-3.54505 7.75927,-5.3176 13.135611,-5.31764 m 0.704323,0 0,0"
           id="path3093"
           style="font-weight:bold;fill:#6bb248;-inkscape-font-specification:Nimbus Sans L Bold" />
        <path
           d="m 81.158168,213.91286 -10.036593,0 0,-51.90856 10.036593,0 0,51.90856"
           id="path3095"
           style="font-weight:bold;fill:#6bb248;-inkscape-font-specification:Nimbus Sans L Bold" />
        <path
           d="m 101.02006,213.91286 -10.036592,0 0,-51.90856 10.036592,0 0,51.90856"
           id="path3097"
           style="font-weight:bold;fill:#6bb248;-inkscape-font-specification:Nimbus Sans L Bold" />
        <path
           d="m 127.85474,206.83442 c 2.93465,0 5.18848,-1.04474 6.76149,-3.13424 1.57296,-2.08947 2.35945,-5.05936 2.35948,-8.90967 -3e-5,-3.85028 -0.78652,-6.80843 -2.35948,-8.87446 -1.57301,-2.08946 -3.82684,-3.13421 -6.76149,-3.13424 -2.9347,3e-5 -5.20027,1.04478 -6.79671,3.13424 -1.573,2.06603 -2.3595,5.02418 -2.35948,8.87446 -2e-5,3.85031 0.78648,6.8202 2.35948,8.90967 1.59644,2.0895 3.86201,3.13424 6.79671,3.13424 m 19.65059,-12.04391 c -4e-5,5.63459 -1.61998,10.45919 -4.85983,14.47382 -3.23991,3.99116 -8.15842,5.98674 -14.75555,5.98674 -6.59716,0 -11.51568,-1.99558 -14.75555,-5.98674 -3.23989,-4.01463 -4.85983,-8.83923 -4.85982,-14.47382 -1e-5,-5.54065 1.61993,-10.34177 4.85982,-14.40339 3.23987,-4.06156 8.15839,-6.09235 14.75555,-6.09239 6.59713,4e-5 11.51564,2.03083 14.75555,6.09239 3.23985,4.06162 4.85979,8.86274 4.85983,14.40339 m -19.61538,-20.28449 0,0"
           id="path3099"
           style="font-weight:bold;fill:#6bb248;-inkscape-font-specification:Nimbus Sans L Bold" />
        <path
           d="m 172.82572,175.52729 10.17746,0 5.84588,27.64465 5.98674,-27.64465 10.45918,0 -11.12829,38.38557 -10.31832,0 -6.02196,-27.9616 -6.09239,27.9616 -10.42397,0 -10.77613,-38.38557 10.77613,0 5.98674,27.539 5.52893,-27.539"
           id="path3101"
           style="font-weight:bold;fill:#6bb248;-inkscape-font-specification:Nimbus Sans L Bold" />
        <path
           d="m 218.60667,201.65765 c 0.21129,1.78429 0.6691,3.05207 1.37343,3.80334 1.24429,1.33822 3.54507,2.00732 6.90236,2.00732 1.97208,0 3.53333,-0.29346 4.68374,-0.8804 1.17385,-0.58693 1.76078,-1.46733 1.76081,-2.64121 -3e-5,-1.12691 -0.46957,-1.98383 -1.40864,-2.57078 -0.93913,-0.58692 -4.42552,-1.59645 -10.45919,-3.02859 -4.34333,-1.07994 -7.40713,-2.42989 -9.19141,-4.04985 -1.78428,-1.59644 -2.67643,-3.89723 -2.67642,-6.90236 -1e-5,-3.54506 1.38516,-6.58538 4.1555,-9.12097 2.7938,-2.559 6.71452,-3.83852 11.76218,-3.83856 4.78937,4e-5 8.68662,0.96261 11.69175,2.88772 3.02855,1.90171 4.76588,5.20028 5.21199,9.89573 l -10.03659,0 c -0.1409,-1.29123 -0.5048,-2.31249 -1.0917,-3.0638 -1.10347,-1.36166 -2.98166,-2.0425 -5.63458,-2.04254 -2.18342,4e-5 -3.74467,0.34046 -4.68375,1.02127 -0.91563,0.68088 -1.37344,1.47911 -1.37342,2.3947 -2e-5,1.15042 0.49301,1.98387 1.47907,2.50034 0.98604,0.54001 4.47243,1.46736 10.45919,2.78208 3.99113,0.93911 6.9845,2.3595 8.98011,4.26115 1.97206,1.92516 2.95811,4.33159 2.95815,7.2193 -4e-5,3.80335 -1.42042,6.9141 -4.26115,9.33227 -2.81732,2.3947 -7.18411,3.59204 -13.10039,3.59204 -6.03371,0 -10.49442,-1.26778 -13.38213,-3.80334 -2.86425,-2.55903 -4.29637,-5.81065 -4.29636,-9.75486 l 10.17745,0 m 7.67712,-27.15163 0,0"
           id="path3103"
           style="font-weight:bold;fill:#6bb248;-inkscape-font-specification:Nimbus Sans L Bold" />
        <path
           d="m 272.09994,174.54124 c 2.37119,4e-5 4.51938,0.41089 6.44455,1.23256 1.94859,0.82175 3.54506,2.07779 4.78939,3.76813 1.05645,1.43215 1.70208,2.91123 1.93689,4.43723 0.23474,1.50258 0.35212,3.96771 0.35216,7.39538 l 0,22.53832 -10.24789,0 0,-23.34829 c -3e-5,-2.06598 -0.35219,-3.73288 -1.05648,-5.00069 -0.91565,-1.78425 -2.65297,-2.67639 -5.21199,-2.67642 -2.65296,3e-5 -4.67202,0.89217 -6.05717,2.67642 -1.3617,1.76084 -2.04255,4.28466 -2.04253,7.57147 l 0,20.77751 -10.00138,0 0,-51.73248 10.00138,0 0,18.3476 c 1.45558,-2.23032 3.13421,-3.77983 5.0359,-4.64853 1.92513,-0.8921 3.94418,-1.33817 6.05717,-1.33821"
           id="path3105"
           style="font-weight:bold;fill:#6bb248;-inkscape-font-specification:Nimbus Sans L Bold" />
        <path
           d="m 305.20309,170.9492 -10.17746,0 0,-9.26184 10.17746,0 0,9.26184 m -10.17746,4.57809 10.17746,0 0,38.38557 -10.17746,0 0,-38.38557"
           id="path3107"
           style="font-weight:bold;fill:#6bb248;-inkscape-font-specification:Nimbus Sans L Bold" />
        <path
           d="m 341.19398,194.72007 c -3e-5,-2.95813 -0.68088,-5.57586 -2.04254,-7.85319 -1.33824,-2.27728 -3.52164,-3.41593 -6.5502,-3.41596 -3.63901,3e-5 -6.13936,1.72562 -7.50103,5.17677 -0.70434,1.83126 -1.0565,4.15552 -1.05648,6.97279 -2e-5,4.46072 1.18559,7.59495 3.55683,9.4027 1.40862,1.05649 3.07552,1.58473 5.00068,1.58473 2.79379,0 4.91849,-1.07996 6.37412,-3.23989 1.47905,-2.15991 2.21859,-5.03589 2.21862,-8.62795 m -5.70501,-20.03797 c 4.48415,4e-5 8.27575,1.6552 11.3748,4.96548 3.12246,3.31034 4.6837,8.17016 4.68374,14.57947 -4e-5,6.76151 -1.52607,11.91479 -4.57809,15.45987 -3.02862,3.54509 -6.93761,5.31764 -11.72697,5.31764 -3.05208,0 -5.58764,-0.76302 -7.60668,-2.28905 -1.10345,-0.84519 -2.18341,-2.07775 -3.23988,-3.69769 l 0,20.00275 -9.93095,0 0,-53.49328 9.614,0 0,5.6698 c 1.07995,-1.66687 2.23034,-2.9816 3.45118,-3.94421 2.23034,-1.71381 4.88328,-2.57074 7.95885,-2.57078"
           id="path3109"
           style="font-weight:bold;fill:#6bb248;-inkscape-font-specification:Nimbus Sans L Bold" />
      </g>
      <g
         id="text2991"
         style="font-size:18.62169647px;font-style:normal;font-variant:normal;font-weight:normal;font-stretch:normal;line-height:125%;letter-spacing:0px;word-spacing:0px;fill:#173b00;fill-opacity:1;stroke:none;font-family:Nimbus Sans L;-inkscape-font-specification:Nimbus Sans L">
        <path
           d="m 7.4285265,220.88433 9.5017935,0 0,2.35499 -6.71945,0 0,3.0824 5.882928,0 0,2.32771 -5.882928,0 0,5.61925 -2.7823435,0 0,-13.38435"
           id="path3112"
           style="font-weight:bold;fill:#173b00;-inkscape-font-specification:Nimbus Sans L Bold" />
        <path
           d="m 23.986197,224.12131 c 0.04849,1e-5 0.08789,0.003 0.118204,0.009 0.03636,1e-5 0.112135,0.003 0.227315,0.009 l 0,2.65505 c -0.163674,-0.0182 -0.309155,-0.0303 -0.436446,-0.0364 -0.127303,-0.006 -0.230352,-0.009 -0.309149,-0.009 -1.042626,0 -1.742757,0.33946 -2.100396,1.01837 -0.200042,0.3819 -0.300061,0.96989 -0.300057,1.76397 l 0,4.73726 -2.609583,0 0,-9.91096 2.473194,0 0,1.72759 c 0.400071,-0.66072 0.748622,-1.11232 1.045652,-1.3548 0.484935,-0.40612 1.115356,-0.60919 1.891266,-0.6092"
           id="path3114"
           style="font-weight:bold;fill:#173b00;-inkscape-font-specification:Nimbus Sans L Bold" />
        <path
           d="m 29.750921,226.2308 c -0.600117,0 -1.066872,0.18792 -1.400264,0.56374 -0.327338,0.37583 -0.533437,0.88502 -0.618298,1.52756 l 4.028033,0 c -0.04244,-0.68497 -0.25157,-1.20325 -0.627391,-1.55484 -0.369773,-0.35763 -0.830466,-0.53646 -1.38208,-0.53646 m 0,-2.13677 c 0.824393,1e-5 1.566956,0.15458 2.227694,0.46372 0.660722,0.30916 1.206279,0.79713 1.636672,1.46392 0.387943,0.58799 0.639505,1.26994 0.754688,2.04584 0.06667,0.45463 0.09395,1.1093 0.08183,1.964 l -6.783099,0 c 0.03637,0.99413 0.348548,1.69123 0.936541,2.09131 0.357639,0.24853 0.788022,0.3728 1.291152,0.37279 0.533429,1e-5 0.966843,-0.15154 1.300246,-0.45463 0.181846,-0.16366 0.342482,-0.39098 0.481909,-0.68194 l 2.645954,0 c -0.06669,0.58799 -0.372807,1.18507 -0.918355,1.79124 -0.848653,0.96382 -2.036755,1.44573 -3.564309,1.44573 -1.260848,0 -2.373178,-0.40614 -3.336994,-1.21841 -0.963819,-0.81227 -1.445728,-2.13373 -1.445727,-3.96439 -1e-6,-1.71546 0.433414,-3.03086 1.300245,-3.94619 0.87289,-0.91532 2.003405,-1.37298 3.391549,-1.37299 m 0.181853,0 0,0"
           id="path3116"
           style="font-weight:bold;fill:#173b00;-inkscape-font-specification:Nimbus Sans L Bold" />
        <path
           d="m 40.480219,226.2308 c -0.600118,0 -1.066872,0.18792 -1.400264,0.56374 -0.327338,0.37583 -0.533437,0.88502 -0.618299,1.52756 l 4.028033,0 c -0.04244,-0.68497 -0.251569,-1.20325 -0.627391,-1.55484 -0.369773,-0.35763 -0.830465,-0.53646 -1.382079,-0.53646 m 0,-2.13677 c 0.824392,1e-5 1.566956,0.15458 2.227693,0.46372 0.660723,0.30916 1.20628,0.79713 1.636673,1.46392 0.387942,0.58799 0.639505,1.26994 0.754688,2.04584 0.06667,0.45463 0.09395,1.1093 0.08183,1.964 l -6.783098,0 c 0.03637,0.99413 0.348547,1.69123 0.93654,2.09131 0.357639,0.24853 0.788023,0.3728 1.291153,0.37279 0.533428,1e-5 0.966843,-0.15154 1.300246,-0.45463 0.181845,-0.16366 0.342482,-0.39098 0.481909,-0.68194 l 2.645954,0 c -0.06669,0.58799 -0.372807,1.18507 -0.918356,1.79124 -0.848652,0.96382 -2.036754,1.44573 -3.564309,1.44573 -1.260848,0 -2.373178,-0.40614 -3.336993,-1.21841 -0.963819,-0.81227 -1.445728,-2.13373 -1.445728,-3.96439 0,-1.71546 0.433415,-3.03086 1.300246,-3.94619 0.872889,-0.91532 2.003405,-1.37298 3.391549,-1.37299 m 0.181853,0 0,0"
           id="path3118"
           style="font-weight:bold;fill:#173b00;-inkscape-font-specification:Nimbus Sans L Bold" />
        <path
           d="m 54.701086,230.13153 c 0.08486,0.61224 0.251558,1.0699 0.500094,1.37299 0.454627,0.55162 1.233561,0.82743 2.336805,0.82743 0.660723,0 1.197188,-0.0727 1.609394,-0.21823 0.781957,-0.27883 1.17294,-0.79711 1.172949,-1.55483 -9e-6,-0.44251 -0.193985,-0.785 -0.581928,-1.02747 -0.38796,-0.2364 -0.997165,-0.44553 -1.827618,-0.62739 l -1.418449,-0.31824 c -1.394207,-0.31521 -2.358024,-0.6577 -2.891455,-1.02747 -0.903202,-0.61829 -1.354802,-1.58514 -1.354801,-2.90055 -10e-7,-1.20021 0.436444,-2.19737 1.309338,-2.99147 0.872889,-0.79408 2.154947,-1.19112 3.84618,-1.19114 1.41238,2e-5 2.615637,0.37585 3.609772,1.12749 1.000178,0.74561 1.524519,1.83066 1.573025,3.25516 l -2.691417,0 c -0.0485,-0.8062 -0.400084,-1.37904 -1.054745,-1.71851 -0.436453,-0.22427 -0.978979,-0.33641 -1.62758,-0.33642 -0.721353,1e-5 -1.297219,0.14549 -1.727599,0.43644 -0.430388,0.29098 -0.64558,0.69711 -0.645576,1.21841 -4e-6,0.47889 0.212157,0.83653 0.636484,1.07293 0.272774,0.15762 0.854701,0.3425 1.745784,0.55465 l 2.309527,0.55465 c 1.012303,0.24248 1.776082,0.56678 2.291341,0.97292 0.80014,0.63042 1.200215,1.54272 1.200227,2.73688 -1.2e-5,1.22447 -0.469797,2.24284 -1.409357,3.05512 -0.933519,0.80621 -2.254979,1.20932 -3.964385,1.20932 -1.745789,0 -3.118774,-0.39705 -4.118959,-1.19114 -1.00019,-0.80015 -1.500284,-1.89732 -1.500283,-3.29153 l 2.673232,0 m 2.718694,-9.67455 0,0"
           id="path3120"
           style="font-weight:bold;fill:#173b00;-inkscape-font-specification:Nimbus Sans L Bold" />
        <path
           d="m 69.385676,232.44106 c 0.757712,0 1.33964,-0.26975 1.745784,-0.80924 0.406129,-0.5395 0.609198,-1.30631 0.609206,-2.30044 -8e-6,-0.99412 -0.203077,-1.7579 -0.609206,-2.29134 -0.406144,-0.53949 -0.988072,-0.80924 -1.745784,-0.80924 -0.757724,0 -1.342682,0.26975 -1.754877,0.80924 -0.406141,0.53344 -0.609209,1.29722 -0.609206,2.29134 -3e-6,0.99413 0.203065,1.76094 0.609206,2.30044 0.412195,0.53949 0.997153,0.80924 1.754877,0.80924 m 5.073685,-3.10968 c -1.1e-5,1.45482 -0.418271,2.70051 -1.254783,3.73707 -0.83653,1.0305 -2.106465,1.54575 -3.80981,1.54575 -1.703355,0 -2.973291,-0.51525 -3.809809,-1.54575 -0.836523,-1.03656 -1.254783,-2.28225 -1.254783,-3.73707 0,-1.43057 0.41826,-2.67019 1.254783,-3.71888 0.836518,-1.04868 2.106454,-1.57302 3.809809,-1.57303 1.703345,1e-5 2.97328,0.52435 3.80981,1.57303 0.836512,1.04869 1.254772,2.28831 1.254783,3.71888 m -5.064593,-5.23735 0,0"
           id="path3122"
           style="font-weight:bold;fill:#173b00;-inkscape-font-specification:Nimbus Sans L Bold" />
        <path
           d="m 79.978582,220.72976 c 0.163662,1e-5 0.312175,0.006 0.445539,0.0182 0.133353,0.006 0.315205,0.0182 0.545557,0.0364 l 0,2.10949 c -0.145488,-0.0182 -0.390988,-0.0303 -0.736502,-0.0364 -0.339463,-0.0121 -0.575871,0.0637 -0.709225,0.22732 -0.127301,0.15761 -0.19095,0.3334 -0.190945,0.52737 -5e-6,0.19399 -5e-6,0.47283 0,0.83652 l 1.700321,0 0,1.82762 -1.700321,0 0,7.99242 -2.582306,0 0,-7.99242 -1.445727,0 0,-1.82762 1.418449,0 0,-0.63648 c -10e-7,-1.0608 0.17882,-1.79124 0.536465,-2.19132 0.375826,-0.59404 1.282057,-0.89107 2.718695,-0.89108"
           id="path3124"
           style="font-weight:bold;fill:#173b00;-inkscape-font-specification:Nimbus Sans L Bold" />
        <path
           d="m 81.415217,226.29444 0,-1.8458 1.382079,0 0,-2.76416 2.564121,0 0,2.76416 1.609394,0 0,1.8458 -1.609394,0 0,5.23736 c -4e-6,0.40614 0.05152,0.66073 0.154574,0.76378 0.103046,0.097 0.418256,0.14548 0.945633,0.14548 0.0788,0 0.160631,0 0.245501,0 0.09092,-0.006 0.178816,-0.0121 0.263686,-0.0182 l 0,1.93673 -1.227504,0.0455 c -1.224477,0.0424 -2.060998,-0.16973 -2.509565,-0.63649 -0.290965,-0.29702 -0.436447,-0.75468 -0.436446,-1.37298 l 0,-6.10116 -1.382079,0"
           id="path3126"
           style="font-weight:bold;fill:#173b00;-inkscape-font-specification:Nimbus Sans L Bold" />
        <path
           d="m 93.326553,224.35772 2.627769,0 1.509376,7.13771 1.545746,-7.13771 2.700506,0 -2.873266,9.91096 -2.664139,0 -1.554839,-7.21955 -1.573024,7.21955 -2.691417,0 -2.782343,-9.91096 2.782343,0 1.545746,7.11043 1.427542,-7.11043"
           id="path3128"
           style="font-weight:bold;fill:#173b00;-inkscape-font-specification:Nimbus Sans L Bold" />
        <path
           d="m 108.59308,229.44959 c -0.16368,0.10305 -0.33038,0.18791 -0.5001,0.25459 -0.16367,0.0606 -0.39099,0.11821 -0.68195,0.17276 l -0.58192,0.10911 c -0.54557,0.097 -0.93655,0.2152 -1.17295,0.35461 -0.40008,0.23641 -0.60012,0.60315 -0.60012,1.10021 0,0.44251 0.12124,0.76378 0.36371,0.96382 0.24853,0.19398 0.54858,0.29096 0.90017,0.29096 0.55768,0 1.06989,-0.16366 1.53665,-0.491 0.47281,-0.32733 0.71831,-0.92441 0.73651,-1.79125 l 0,-0.96381 m -1.57303,-1.20932 c 0.47887,-0.0606 0.82136,-0.13639 1.02747,-0.22732 0.36976,-0.1576 0.55464,-0.4031 0.55465,-0.7365 -1e-5,-0.40613 -0.14246,-0.68497 -0.42736,-0.83652 -0.27884,-0.1576 -0.69104,-0.2364 -1.23659,-0.23641 -0.61224,1e-5 -1.04566,0.15155 -1.30025,0.45463 -0.18185,0.22429 -0.30309,0.52738 -0.3637,0.90926 l -2.50047,0 c 0.0546,-0.86682 0.29702,-1.57908 0.72741,-2.13676 0.68497,-0.87289 1.86095,-1.30933 3.52793,-1.30934 1.08505,1e-5 2.04887,0.2152 2.89146,0.64557 0.84257,0.4304 1.26386,1.24267 1.26387,2.43683 l 0,4.54631 c -1e-5,0.31521 0.006,0.6971 0.0182,1.14567 0.0182,0.33946 0.0697,0.56981 0.15457,0.69104 0.0849,0.12124 0.21216,0.22125 0.38189,0.30006 l 0,0.38189 -2.81871,0 c -0.0788,-0.20004 -0.13337,-0.38795 -0.16367,-0.56375 -0.0303,-0.17579 -0.0546,-0.37582 -0.0727,-0.60011 -0.35765,0.38795 -0.76985,0.71832 -1.2366,0.9911 -0.55768,0.32127 -1.1881,0.48191 -1.89126,0.48191 -0.89714,0 -1.63971,-0.2546 -2.22769,-0.76378 -0.58193,-0.51525 -0.8729,-1.24266 -0.8729,-2.18223 0,-1.21841 0.46979,-2.1004 1.40936,-2.64596 0.51525,-0.29702 1.27296,-0.50918 2.27316,-0.63648 l 0.88198,-0.10911 m 0.13639,-4.14624 0,0"
           id="path3130"
           style="font-weight:bold;fill:#173b00;-inkscape-font-specification:Nimbus Sans L Bold" />
        <path
           d="m 118.87684,224.12131 c 0.0485,1e-5 0.0879,0.003 0.1182,0.009 0.0364,1e-5 0.11213,0.003 0.22731,0.009 l 0,2.65505 c -0.16367,-0.0182 -0.30915,-0.0303 -0.43644,-0.0364 -0.1273,-0.006 -0.23035,-0.009 -0.30915,-0.009 -1.04263,0 -1.74276,0.33946 -2.1004,1.01837 -0.20004,0.3819 -0.30006,0.96989 -0.30005,1.76397 l 0,4.73726 -2.60959,0 0,-9.91096 2.4732,0 0,1.72759 c 0.40007,-0.66072 0.74862,-1.11232 1.04565,-1.3548 0.48493,-0.40612 1.11536,-0.60919 1.89127,-0.6092"
           id="path3132"
           style="font-weight:bold;fill:#173b00;-inkscape-font-specification:Nimbus Sans L Bold" />
        <path
           d="m 124.64155,226.2308 c -0.60011,0 -1.06687,0.18792 -1.40026,0.56374 -0.32734,0.37583 -0.53344,0.88502 -0.6183,1.52756 l 4.02803,0 c -0.0424,-0.68497 -0.25157,-1.20325 -0.62739,-1.55484 -0.36977,-0.35763 -0.83046,-0.53646 -1.38208,-0.53646 m 0,-2.13677 c 0.8244,1e-5 1.56696,0.15458 2.2277,0.46372 0.66072,0.30916 1.20628,0.79713 1.63667,1.46392 0.38794,0.58799 0.6395,1.26994 0.75469,2.04584 0.0667,0.45463 0.0939,1.1093 0.0818,1.964 l -6.7831,0 c 0.0364,0.99413 0.34855,1.69123 0.93654,2.09131 0.35764,0.24853 0.78803,0.3728 1.29116,0.37279 0.53342,1e-5 0.96684,-0.15154 1.30024,-0.45463 0.18185,-0.16366 0.34248,-0.39098 0.48191,-0.68194 l 2.64595,0 c -0.0667,0.58799 -0.3728,1.18507 -0.91835,1.79124 -0.84865,0.96382 -2.03676,1.44573 -3.56431,1.44573 -1.26085,0 -2.37318,-0.40614 -3.33699,-1.21841 -0.96382,-0.81227 -1.44573,-2.13373 -1.44573,-3.96439 0,-1.71546 0.43341,-3.03086 1.30024,-3.94619 0.87289,-0.91532 2.00341,-1.37298 3.39155,-1.37299 m 0.18186,0 0,0"
           id="path3134"
           style="font-weight:bold;fill:#173b00;-inkscape-font-specification:Nimbus Sans L Bold" />
        <path
           d="m 136.83476,220.88433 9.50179,0 0,2.35499 -6.71945,0 0,3.0824 5.88293,0 0,2.32771 -5.88293,0 0,5.61925 -2.78234,0 0,-13.38435"
           id="path3136"
           style="font-weight:bold;fill:#173b00;-inkscape-font-specification:Nimbus Sans L Bold" />
        <path
           d="m 152.4559,232.44106 c 0.75771,0 1.33964,-0.26975 1.74578,-0.80924 0.40613,-0.5395 0.6092,-1.30631 0.60921,-2.30044 -1e-5,-0.99412 -0.20308,-1.7579 -0.60921,-2.29134 -0.40614,-0.53949 -0.98807,-0.80924 -1.74578,-0.80924 -0.75773,0 -1.34269,0.26975 -1.75488,0.80924 -0.40614,0.53344 -0.60921,1.29722 -0.60921,2.29134 0,0.99413 0.20307,1.76094 0.60921,2.30044 0.41219,0.53949 0.99715,0.80924 1.75488,0.80924 m 5.07368,-3.10968 c -1e-5,1.45482 -0.41827,2.70051 -1.25478,3.73707 -0.83653,1.0305 -2.10647,1.54575 -3.80981,1.54575 -1.70336,0 -2.97329,-0.51525 -3.80981,-1.54575 -0.83652,-1.03656 -1.25478,-2.28225 -1.25478,-3.73707 0,-1.43057 0.41826,-2.67019 1.25478,-3.71888 0.83652,-1.04868 2.10645,-1.57302 3.80981,-1.57303 1.70334,1e-5 2.97328,0.52435 3.80981,1.57303 0.83651,1.04869 1.25477,2.28831 1.25478,3.71888 m -5.06459,-5.23735 0,0"
           id="path3138"
           style="font-weight:bold;fill:#173b00;-inkscape-font-specification:Nimbus Sans L Bold" />
        <path
           d="m 161.97588,224.35772 0,5.97385 c 0,0.56375 0.0667,0.98807 0.20004,1.27297 0.2364,0.50312 0.70013,0.75469 1.39117,0.75469 0.88501,0 1.49118,-0.35765 1.81853,-1.07293 0.16972,-0.38795 0.25458,-0.90017 0.25459,-1.53666 l 0,-5.39192 2.62777,0 0,9.91096 -2.51866,0 0,-1.40027 c -0.0243,0.0303 -0.0849,0.12124 -0.18185,0.27278 -0.097,0.15155 -0.21217,0.2849 -0.34552,0.40008 -0.40615,0.3637 -0.80016,0.61223 -1.18204,0.74559 -0.37584,0.13336 -0.81834,0.20004 -1.32753,0.20004 -1.46694,0 -2.45501,-0.52737 -2.96419,-1.58212 -0.28491,-0.58192 -0.42736,-1.43966 -0.42736,-2.57321 l 0,-5.97385 2.65505,0 m 1.81853,-0.26369 0,0"
           id="path3140"
           style="font-weight:bold;fill:#173b00;-inkscape-font-specification:Nimbus Sans L Bold" />
        <path
           d="m 176.23312,224.12131 c 1.02442,1e-5 1.86094,0.26975 2.50956,0.80924 0.65466,0.53344 0.98199,1.42149 0.982,2.66414 l 0,6.67399 -2.65504,0 0,-6.02841 c -1e-5,-0.52131 -0.0697,-0.92138 -0.20913,-1.20023 -0.2546,-0.50918 -0.73954,-0.76377 -1.45482,-0.76378 -0.87896,1e-5 -1.48211,0.3728 -1.80944,1.11839 -0.16973,0.39402 -0.25459,0.89715 -0.25459,1.50938 l 0,5.36465 -2.5823,0 0,-9.89278 2.50047,0 0,1.44573 c 0.33339,-0.50918 0.6486,-0.87592 0.94563,-1.10021 0.53343,-0.40007 1.20931,-0.6001 2.02766,-0.60011 m -0.95473,-0.0273 0,0"
           id="path3142"
           style="font-weight:bold;fill:#173b00;-inkscape-font-specification:Nimbus Sans L Bold" />
        <path
           d="m 185.744,224.12131 c 0.60011,1e-5 1.13354,0.13337 1.6003,0.40007 0.46675,0.26067 0.84561,0.62437 1.13658,1.09112 l 0,-4.72817 2.62777,0 0,13.38435 -2.51866,0 0,-1.37299 c -0.36977,0.58799 -0.79106,1.01534 -1.26387,1.28206 -0.47282,0.26672 -1.06081,0.40008 -1.76397,0.40008 -1.1578,0 -2.13374,-0.46676 -2.92783,-1.40027 -0.78803,-0.93957 -1.18204,-2.14282 -1.18204,-3.60977 0,-1.69122 0.38795,-3.02178 1.16386,-3.99166 0.78196,-0.96987 1.82458,-1.45481 3.12786,-1.45482 m 0.56374,8.27429 c 0.73347,0 1.29115,-0.27278 1.67305,-0.81834 0.38188,-0.54555 0.57282,-1.25175 0.57283,-2.11858 -1e-5,-1.21235 -0.30612,-2.07918 -0.91835,-2.60049 -0.37584,-0.31521 -0.81228,-0.47281 -1.30934,-0.47282 -0.75772,1e-5 -1.3154,0.28794 -1.67304,0.8638 -0.35159,0.56981 -0.52738,1.27904 -0.52738,2.12767 0,0.91533 0.17882,1.6488 0.53647,2.20042 0.3637,0.54556 0.91229,0.81834 1.64576,0.81834"
           id="path3144"
           style="font-weight:bold;fill:#173b00;-inkscape-font-specification:Nimbus Sans L Bold" />
        <path
           d="m 198.93739,229.44959 c -0.16367,0.10305 -0.33037,0.18791 -0.50009,0.25459 -0.16368,0.0606 -0.39099,0.11821 -0.68195,0.17276 l -0.58193,0.10911 c -0.54556,0.097 -0.93654,0.2152 -1.17295,0.35461 -0.40008,0.23641 -0.60011,0.60315 -0.60011,1.10021 0,0.44251 0.12123,0.76378 0.3637,0.96382 0.24853,0.19398 0.54859,0.29096 0.90017,0.29096 0.55768,0 1.0699,-0.16366 1.53666,-0.491 0.47281,-0.32733 0.71831,-0.92441 0.7365,-1.79125 l 0,-0.96381 m -1.57302,-1.20932 c 0.47887,-0.0606 0.82136,-0.13639 1.02746,-0.22732 0.36976,-0.1576 0.55465,-0.4031 0.55465,-0.7365 0,-0.40613 -0.14245,-0.68497 -0.42735,-0.83652 -0.27885,-0.1576 -0.69105,-0.2364 -1.2366,-0.23641 -0.61224,1e-5 -1.04565,0.15155 -1.30024,0.45463 -0.18186,0.22429 -0.30309,0.52738 -0.36371,0.90926 l -2.50047,0 c 0.0546,-0.86682 0.29702,-1.57908 0.72741,-2.13676 0.68498,-0.87289 1.86095,-1.30933 3.52794,-1.30934 1.08505,1e-5 2.04886,0.2152 2.89145,0.64557 0.84258,0.4304 1.26387,1.24267 1.26388,2.43683 l 0,4.54631 c -10e-6,0.31521 0.006,0.6971 0.0182,1.14567 0.0182,0.33946 0.0697,0.56981 0.15458,0.69104 0.0848,0.12124 0.21215,0.22125 0.38189,0.30006 l 0,0.38189 -2.81872,0 c -0.0788,-0.20004 -0.13336,-0.38795 -0.16366,-0.56375 -0.0303,-0.17579 -0.0546,-0.37582 -0.0727,-0.60011 -0.35765,0.38795 -0.76985,0.71832 -1.2366,0.9911 -0.55769,0.32127 -1.18811,0.48191 -1.89127,0.48191 -0.89714,0 -1.6397,-0.2546 -2.22769,-0.76378 -0.58193,-0.51525 -0.87289,-1.24266 -0.87289,-2.18223 0,-1.21841 0.46978,-2.1004 1.40936,-2.64596 0.51524,-0.29702 1.27296,-0.50918 2.27315,-0.63648 l 0.88199,-0.10911 m 0.13639,-4.14624 0,0"
           id="path3146"
           style="font-weight:bold;fill:#173b00;-inkscape-font-specification:Nimbus Sans L Bold" />
        <path
           d="m 202.81995,226.29444 0,-1.8458 1.38208,0 0,-2.76416 2.56412,0 0,2.76416 1.60939,0 0,1.8458 -1.60939,0 0,5.23736 c -1e-5,0.40614 0.0515,0.66073 0.15457,0.76378 0.10305,0.097 0.41826,0.14548 0.94564,0.14548 0.0788,0 0.16063,0 0.2455,0 0.0909,-0.006 0.17881,-0.0121 0.26368,-0.0182 l 0,1.93673 -1.2275,0.0455 c -1.22448,0.0424 -2.061,-0.16973 -2.50957,-0.63649 -0.29096,-0.29702 -0.43644,-0.75468 -0.43644,-1.37298 l 0,-6.10116 -1.38208,0"
           id="path3148"
           style="font-weight:bold;fill:#173b00;-inkscape-font-specification:Nimbus Sans L Bold" />
        <path
           d="m 212.72182,223.17567 -2.62777,0 0,-2.39136 2.62777,0 0,2.39136 m -2.62777,1.18205 2.62777,0 0,9.91096 -2.62777,0 0,-9.91096"
           id="path3150"
           style="font-weight:bold;fill:#173b00;-inkscape-font-specification:Nimbus Sans L Bold" />
        <path
           d="m 219.63221,232.44106 c 0.75771,0 1.33964,-0.26975 1.74579,-0.80924 0.40613,-0.5395 0.60919,-1.30631 0.6092,-2.30044 -1e-5,-0.99412 -0.20307,-1.7579 -0.6092,-2.29134 -0.40615,-0.53949 -0.98808,-0.80924 -1.74579,-0.80924 -0.75772,0 -1.34268,0.26975 -1.75487,0.80924 -0.40615,0.53344 -0.60921,1.29722 -0.60921,2.29134 0,0.99413 0.20306,1.76094 0.60921,2.30044 0.41219,0.53949 0.99715,0.80924 1.75487,0.80924 m 5.07369,-3.10968 c -1e-5,1.45482 -0.41827,2.70051 -1.25479,3.73707 -0.83653,1.0305 -2.10646,1.54575 -3.80981,1.54575 -1.70335,0 -2.97329,-0.51525 -3.80981,-1.54575 -0.83652,-1.03656 -1.25478,-2.28225 -1.25478,-3.73707 0,-1.43057 0.41826,-2.67019 1.25478,-3.71888 0.83652,-1.04868 2.10646,-1.57302 3.80981,-1.57303 1.70335,1e-5 2.97328,0.52435 3.80981,1.57303 0.83652,1.04869 1.25478,2.28831 1.25479,3.71888 m -5.0646,-5.23735 0,0"
           id="path3152"
           style="font-weight:bold;fill:#173b00;-inkscape-font-specification:Nimbus Sans L Bold" />
        <path
           d="m 232.06184,224.12131 c 1.02442,1e-5 1.86094,0.26975 2.50956,0.80924 0.65466,0.53344 0.98199,1.42149 0.982,2.66414 l 0,6.67399 -2.65504,0 0,-6.02841 c -1e-5,-0.52131 -0.0697,-0.92138 -0.20913,-1.20023 -0.2546,-0.50918 -0.73954,-0.76377 -1.45482,-0.76378 -0.87896,1e-5 -1.48211,0.3728 -1.80944,1.11839 -0.16973,0.39402 -0.25459,0.89715 -0.25459,1.50938 l 0,5.36465 -2.5823,0 0,-9.89278 2.50047,0 0,1.44573 c 0.33339,-0.50918 0.6486,-0.87592 0.94563,-1.10021 0.53343,-0.40007 1.20931,-0.6001 2.02766,-0.60011 m -0.95473,-0.0273 0,0"
           id="path3154"
           style="font-weight:bold;fill:#173b00;-inkscape-font-specification:Nimbus Sans L Bold" />
        <path
           d="m 253.20219,223.23932 -7.09225,0 0,2.84599 6.51032,0 0,2.32772 -6.51032,0 0,3.4461 7.41958,0 0,2.40955 -10.15646,0 0,-13.40253 9.82913,0 0,2.37317"
           id="path3156"
           style="font-weight:bold;fill:#173b00;-inkscape-font-specification:Nimbus Sans L Bold" />
        <path
           d="m 258.10311,224.35772 0,5.97385 c -1e-5,0.56375 0.0667,0.98807 0.20004,1.27297 0.2364,0.50312 0.70012,0.75469 1.39117,0.75469 0.88501,0 1.49118,-0.35765 1.81852,-1.07293 0.16972,-0.38795 0.25459,-0.90017 0.2546,-1.53666 l 0,-5.39192 2.62777,0 0,9.91096 -2.51866,0 0,-1.40027 c -0.0243,0.0303 -0.0849,0.12124 -0.18185,0.27278 -0.097,0.15155 -0.21217,0.2849 -0.34552,0.40008 -0.40615,0.3637 -0.80016,0.61223 -1.18205,0.74559 -0.37583,0.13336 -0.81834,0.20004 -1.32752,0.20004 -1.46695,0 -2.45501,-0.52737 -2.96419,-1.58212 -0.28491,-0.58192 -0.42736,-1.43966 -0.42736,-2.57321 l 0,-5.97385 2.65505,0 m 1.81852,-0.26369 0,0"
           id="path3158"
           style="font-weight:bold;fill:#173b00;-inkscape-font-specification:Nimbus Sans L Bold" />
        <path
           d="m 272.25125,224.12131 c 0.0485,1e-5 0.0879,0.003 0.1182,0.009 0.0364,1e-5 0.11214,0.003 0.22732,0.009 l 0,2.65505 c -0.16368,-0.0182 -0.30916,-0.0303 -0.43645,-0.0364 -0.1273,-0.006 -0.23035,-0.009 -0.30915,-0.009 -1.04262,0 -1.74276,0.33946 -2.10039,1.01837 -0.20005,0.3819 -0.30006,0.96989 -0.30006,1.76397 l 0,4.73726 -2.60958,0 0,-9.91096 2.47319,0 0,1.72759 c 0.40007,-0.66072 0.74862,-1.11232 1.04565,-1.3548 0.48494,-0.40612 1.11536,-0.60919 1.89127,-0.6092"
           id="path3160"
           style="font-weight:bold;fill:#173b00;-inkscape-font-specification:Nimbus Sans L Bold" />
        <path
           d="m 278.55241,232.44106 c 0.75771,0 1.33964,-0.26975 1.74578,-0.80924 0.40613,-0.5395 0.6092,-1.30631 0.60921,-2.30044 -10e-6,-0.99412 -0.20308,-1.7579 -0.60921,-2.29134 -0.40614,-0.53949 -0.98807,-0.80924 -1.74578,-0.80924 -0.75773,0 -1.34268,0.26975 -1.75488,0.80924 -0.40614,0.53344 -0.60921,1.29722 -0.6092,2.29134 -1e-5,0.99413 0.20306,1.76094 0.6092,2.30044 0.4122,0.53949 0.99715,0.80924 1.75488,0.80924 m 5.07368,-3.10968 c -10e-6,1.45482 -0.41827,2.70051 -1.25478,3.73707 -0.83653,1.0305 -2.10646,1.54575 -3.80981,1.54575 -1.70335,0 -2.97329,-0.51525 -3.80981,-1.54575 -0.83652,-1.03656 -1.25478,-2.28225 -1.25478,-3.73707 0,-1.43057 0.41826,-2.67019 1.25478,-3.71888 0.83652,-1.04868 2.10646,-1.57302 3.80981,-1.57303 1.70335,1e-5 2.97328,0.52435 3.80981,1.57303 0.83651,1.04869 1.25477,2.28831 1.25478,3.71888 m -5.06459,-5.23735 0,0"
           id="path3162"
           style="font-weight:bold;fill:#173b00;-inkscape-font-specification:Nimbus Sans L Bold" />
        <path
           d="m 292.31865,229.3132 c -10e-6,-0.76378 -0.1758,-1.43966 -0.52737,-2.02766 -0.34553,-0.58798 -0.90927,-0.88198 -1.69123,-0.88198 -0.93958,0 -1.58515,0.44554 -1.93673,1.33661 -0.18186,0.47282 -0.27278,1.07294 -0.27278,1.80034 0,1.15174 0.30611,1.96098 0.91836,2.42773 0.3637,0.27278 0.79408,0.40917 1.29115,0.40917 0.72134,0 1.26993,-0.27884 1.64576,-0.83652 0.38189,-0.55768 0.57283,-1.30024 0.57284,-2.22769 m -1.47301,-5.17371 c 1.15779,1e-5 2.13676,0.42737 2.93692,1.28206 0.8062,0.85472 1.20931,2.1095 1.20932,3.76435 -10e-6,1.74579 -0.39402,3.07634 -1.18204,3.99166 -0.78198,0.91533 -1.79126,1.37299 -3.02785,1.37299 -0.78803,0 -1.4427,-0.19701 -1.964,-0.59102 -0.28491,-0.21822 -0.56375,-0.53647 -0.83652,-0.95473 l 0,5.16461 -2.56412,0 0,-13.81169 2.48228,0 0,1.46391 c 0.27884,-0.43038 0.57586,-0.76984 0.89108,-1.01838 0.57586,-0.44249 1.26084,-0.66375 2.05493,-0.66376"
           id="path3164"
           style="font-weight:bold;fill:#173b00;-inkscape-font-specification:Nimbus Sans L Bold" />
        <path
           d="m 300.78389,226.2308 c -0.60012,0 -1.06687,0.18792 -1.40027,0.56374 -0.32733,0.37583 -0.53343,0.88502 -0.61829,1.52756 l 4.02803,0 c -0.0424,-0.68497 -0.25157,-1.20325 -0.62739,-1.55484 -0.36978,-0.35763 -0.83047,-0.53646 -1.38208,-0.53646 m 0,-2.13677 c 0.82439,1e-5 1.56695,0.15458 2.22769,0.46372 0.66072,0.30916 1.20628,0.79713 1.63667,1.46392 0.38795,0.58799 0.63951,1.26994 0.75469,2.04584 0.0667,0.45463 0.094,1.1093 0.0818,1.964 l -6.7831,0 c 0.0364,0.99413 0.34854,1.69123 0.93654,2.09131 0.35764,0.24853 0.78802,0.3728 1.29115,0.37279 0.53343,1e-5 0.96684,-0.15154 1.30025,-0.45463 0.18184,-0.16366 0.34248,-0.39098 0.4819,-0.68194 l 2.64596,0 c -0.0667,0.58799 -0.37281,1.18507 -0.91836,1.79124 -0.84865,0.96382 -2.03675,1.44573 -3.56431,1.44573 -1.26084,0 -2.37317,-0.40614 -3.33699,-1.21841 -0.96382,-0.81227 -1.44573,-2.13373 -1.44573,-3.96439 0,-1.71546 0.43342,-3.03086 1.30025,-3.94619 0.87289,-0.91532 2.0034,-1.37298 3.39155,-1.37299 m 0.18185,0 0,0"
           id="path3166"
           style="font-weight:bold;fill:#173b00;-inkscape-font-specification:Nimbus Sans L Bold" />
      </g>
    </g>
    <g
       transform="matrix(1.2692794,0,0,1.2692794,-18.07676,247.92395)"
       id="g3858"
       style="fill:#6bb340;fill-opacity:1">
      <rect
         width="6.6696811"
         height="16.674202"
         rx="0"
         ry="0"
         x="301.43765"
         y="1.9851639"
         id="rect7506"
         style="fill:#6bb340;fill-opacity:1;stroke:none" />
      <rect
         width="17.150608"
         height="16.674202"
         rx="0"
         ry="0"
         x="321.80402"
         y="-17.785675"
         id="rect7508"
         style="fill:#6bb340;fill-opacity:1;stroke:none" />
      <rect
         width="17.150608"
         height="16.674202"
         rx="0"
         ry="0"
         x="280.95221"
         y="-17.785675"
         id="rect7510"
         style="fill:#6bb340;fill-opacity:1;stroke:none" />
      <rect
         width="6.6696811"
         height="16.674202"
         rx="0"
         ry="0"
         x="311.91858"
         y="1.9851639"
         id="rect7512"
         style="fill:#6bb340;fill-opacity:1;stroke:none" />
      <rect
         width="17.150608"
         height="16.674202"
         rx="0"
         ry="0"
         x="301.43765"
         y="-37.675617"
         id="rect7514"
         style="fill:#6bb340;fill-opacity:1;stroke:none" />
      <rect
         width="17.150608"
         height="16.674202"
         rx="0"
         ry="0"
         x="301.43765"
         y="-17.785675"
         id="rect7516"
         style="fill:#6bb340;fill-opacity:1;stroke:none" />
    </g>
  </g>
</svg>
