<?xml version="1.0" encoding="UTF-8" standalone="no"?>
<!-- Created with Inkscape (http://www.inkscape.org/) -->

<svg
   xmlns:dc="http://purl.org/dc/elements/1.1/"
   xmlns:cc="http://creativecommons.org/ns#"
   xmlns:rdf="http://www.w3.org/1999/02/22-rdf-syntax-ns#"
   xmlns:svg="http://www.w3.org/2000/svg"
   xmlns="http://www.w3.org/2000/svg"
   xmlns:sodipodi="http://sodipodi.sourceforge.net/DTD/sodipodi-0.dtd"
   xmlns:inkscape="http://www.inkscape.org/namespaces/inkscape"
   width="447.71637"
   height="75"
   id="svg5601"
   version="1.1"
   inkscape:version="0.48.3.1 r9886"
   sodipodi:docname="ilovefs-banner-medium-nl.svg">
  <defs
     id="defs5603">
    <clipPath
       id="clipPath2420"
       clipPathUnits="userSpaceOnUse">
      <path
         inkscape:connector-curvature="0"
         id="path2422"
         d="m 2693.3703,2020.3887 358.1731,0 0,-60 -358.1731,0 0,60 z" />
    </clipPath>
    <clipPath
       id="clipPath2430"
       clipPathUnits="userSpaceOnUse">
      <path
         inkscape:connector-curvature="0"
         id="path2432"
         d="m 2693.3703,2020.3887 358.1731,0 0,-60 -358.1731,0 0,60 z" />
    </clipPath>
  </defs>
  <sodipodi:namedview
     id="base"
     pagecolor="#ffffff"
     bordercolor="#666666"
     borderopacity="1.0"
     inkscape:pageopacity="0.0"
     inkscape:pageshadow="2"
     inkscape:zoom="1.4"
     inkscape:cx="158.45624"
     inkscape:cy="94.642848"
     inkscape:document-units="px"
     inkscape:current-layer="g5746"
     showgrid="false"
     fit-margin-top="0"
     fit-margin-left="0"
     fit-margin-right="0"
     fit-margin-bottom="0"
     inkscape:window-width="1366"
     inkscape:window-height="713"
     inkscape:window-x="0"
     inkscape:window-y="27"
     inkscape:window-maximized="1" />
  <metadata
     id="metadata5606">
    <rdf:RDF>
      <cc:Work
         rdf:about="">
        <dc:format>image/svg+xml</dc:format>
        <dc:type
           rdf:resource="http://purl.org/dc/dcmitype/StillImage" />
        <dc:title></dc:title>
      </cc:Work>
    </rdf:RDF>
  </metadata>
  <g
     inkscape:label="Layer 1"
     inkscape:groupmode="layer"
     id="layer1"
     transform="translate(-216.54376,-552.00504)">
    <g
       transform="translate(2.857184,49.714812)"
       id="g5746">
      <g
         transform="matrix(1.25,0,0,-1.25,-3153.0263,3027.7761)"
         id="g2416">
        <g
           id="g2418"
           clip-path="url(#clipPath2420)">
          <g
             id="g2424">
            <g
               id="g2426">
              <g
                 id="g2428"
                 clip-path="url(#clipPath2430)">
                <path
                   inkscape:connector-curvature="0"
                   d="m 2693.3703,2020.3887 358.1731,0 0,-60 -358.1731,0 0,60 z"
                   style="fill:#8a0014;fill-opacity:1;fill-rule:nonzero;stroke:none"
                   id="path2434" />
                <path
                   inkscape:connector-curvature="0"
                   d="m 2392.5136,2020.3833 c 0,33.4641 136.2849,60.5913 304.4058,60.5913 168.1206,0 304.4055,-27.1272 304.4055,-60.5913 0,-33.4642 -136.2849,-60.5915 -304.4055,-60.5915 -168.1209,0 -304.4058,27.1273 -304.4058,60.5915 z"
                   style="fill:#8a0014;fill-opacity:1;fill-rule:nonzero;stroke:none"
                   id="path2436" />
                <path
                   inkscape:connector-curvature="0"
                   d="m 2396.455,2020.3829 c 0,33.0296 134.5147,59.8046 300.4517,59.8046 165.9368,0 300.4514,-26.775 300.4514,-59.8046 0,-33.0296 -134.5146,-59.8045 -300.4514,-59.8045 -165.937,0 -300.4517,26.7749 -300.4517,59.8045 z"
                   style="fill:#8b0014;fill-opacity:1;fill-rule:nonzero;stroke:none"
                   id="path2438" />
                <path
                   inkscape:connector-curvature="0"
                   d="m 2400.4377,2020.3825 c 0,32.595 132.7454,59.0178 296.5,59.0178 163.7546,0 296.5002,-26.4228 296.5002,-59.0178 0,-32.5948 -132.7456,-59.0176 -296.5002,-59.0176 -163.7546,0 -296.5,26.4228 -296.5,59.0176 z"
                   style="fill:#8d0115;fill-opacity:1;fill-rule:nonzero;stroke:none"
                   id="path2440" />
                <path
                   inkscape:connector-curvature="0"
                   d="m 2404.3791,2020.3823 c 0,32.1604 130.9751,58.2307 292.5459,58.2307 161.5708,0 292.5461,-26.0703 292.5461,-58.2307 0,-32.1604 -130.9753,-58.2307 -292.5461,-58.2307 -161.5708,0 -292.5459,26.0703 -292.5459,58.2307 z"
                   style="fill:#8e0116;fill-opacity:1;fill-rule:nonzero;stroke:none"
                   id="path2442" />
                <path
                   inkscape:connector-curvature="0"
                   d="m 2408.3205,2020.382 c 0,31.7259 129.2048,57.4439 288.5918,57.4439 159.387,0 288.592,-25.718 288.592,-57.4439 0,-31.7258 -129.205,-57.4438 -288.592,-57.4438 -159.387,0 -288.5918,25.718 -288.5918,57.4438 z"
                   style="fill:#8f0216;fill-opacity:1;fill-rule:nonzero;stroke:none"
                   id="path2444" />
                <path
                   inkscape:connector-curvature="0"
                   d="m 2412.3032,2020.3817 c 0,31.2911 127.4358,56.6568 284.6404,56.6568 157.2045,0 284.6403,-25.3657 284.6403,-56.6568 0,-31.2912 -127.4358,-56.657 -284.6403,-56.657 -157.2046,0 -284.6404,25.3658 -284.6404,56.657 z"
                   style="fill:#910217;fill-opacity:1;fill-rule:nonzero;stroke:none"
                   id="path2446" />
                <path
                   inkscape:connector-curvature="0"
                   d="m 2416.2446,2020.3813 c 0,30.8564 125.6655,55.8701 280.6863,55.8701 155.0207,0 280.6862,-25.0137 280.6862,-55.8701 0,-30.8566 -125.6655,-55.87 -280.6862,-55.87 -155.0208,0 -280.6863,25.0134 -280.6863,55.87 z"
                   style="fill:#920318;fill-opacity:1;fill-rule:nonzero;stroke:none"
                   id="path2448" />
                <path
                   inkscape:connector-curvature="0"
                   d="m 2420.186,2020.3811 c 0,30.4218 123.8952,55.083 276.7322,55.083 152.8369,0 276.7321,-24.6612 276.7321,-55.083 0,-30.422 -123.8952,-55.0833 -276.7321,-55.0833 -152.837,0 -276.7322,24.6613 -276.7322,55.0833 z"
                   style="fill:#930418;fill-opacity:1;fill-rule:nonzero;stroke:none"
                   id="path2450" />
                <path
                   inkscape:connector-curvature="0"
                   d="m 2424.1684,2020.3807 c 0,29.9874 122.1262,54.2963 272.7808,54.2963 150.6548,0 272.7807,-24.3089 272.7807,-54.2963 0,-29.9874 -122.1259,-54.2963 -272.7807,-54.2963 -150.6546,0 -272.7808,24.3089 -272.7808,54.2963 z"
                   style="fill:#950419;fill-opacity:1;fill-rule:nonzero;stroke:none"
                   id="path2452" />
                <path
                   inkscape:connector-curvature="0"
                   d="m 2428.1098,2020.3803 c 0,29.5528 120.356,53.5093 268.8267,53.5093 148.4709,0 268.8266,-23.9565 268.8266,-53.5093 0,-29.5527 -120.3557,-53.5094 -268.8266,-53.5094 -148.4707,0 -268.8267,23.9567 -268.8267,53.5094 z"
                   style="fill:#96051a;fill-opacity:1;fill-rule:nonzero;stroke:none"
                   id="path2454" />
                <path
                   inkscape:connector-curvature="0"
                   d="m 2432.0515,2020.38 c 0,29.1182 118.5854,52.7225 264.8723,52.7225 146.2871,0 264.8725,-23.6043 264.8725,-52.7225 0,-29.1182 -118.5854,-52.7225 -264.8725,-52.7225 -146.2869,0 -264.8723,23.6043 -264.8723,52.7225 z"
                   style="fill:#97051a;fill-opacity:1;fill-rule:nonzero;stroke:none"
                   id="path2456" />
                <path
                   inkscape:connector-curvature="0"
                   d="m 2435.9929,2020.3797 c 0,28.6837 116.8152,51.9357 260.9182,51.9357 144.1033,0 260.9184,-23.252 260.9184,-51.9357 0,-28.6836 -116.8151,-51.9355 -260.9184,-51.9355 -144.103,0 -260.9182,23.2519 -260.9182,51.9355 z"
                   style="fill:#99061b;fill-opacity:1;fill-rule:nonzero;stroke:none"
                   id="path2458" />
                <path
                   inkscape:connector-curvature="0"
                   d="m 2439.9753,2020.3793 c 0,28.2491 115.0461,51.1487 256.967,51.1487 141.9207,0 256.9671,-22.8996 256.9671,-51.1487 0,-28.249 -115.0464,-51.1486 -256.9671,-51.1486 -141.9209,0 -256.967,22.8996 -256.967,51.1486 z"
                   style="fill:#9a071c;fill-opacity:1;fill-rule:nonzero;stroke:none"
                   id="path2460" />
                <path
                   inkscape:connector-curvature="0"
                   d="m 2443.9167,2020.3791 c 0,27.8142 113.2761,50.3618 253.0129,50.3618 139.7369,0 253.0127,-22.5476 253.0127,-50.3618 0,-27.8145 -113.2758,-50.3618 -253.0127,-50.3618 -139.7368,0 -253.0129,22.5473 -253.0129,50.3618 z"
                   style="fill:#9b071c;fill-opacity:1;fill-rule:nonzero;stroke:none"
                   id="path2462" />
                <path
                   inkscape:connector-curvature="0"
                   d="m 2447.8583,2020.3787 c 0,27.3798 111.5054,49.5749 249.0586,49.5749 137.553,0 249.0586,-22.1951 249.0586,-49.5749 0,-27.3798 -111.5056,-49.5749 -249.0586,-49.5749 -137.5532,0 -249.0586,22.1951 -249.0586,49.5749 z"
                   style="fill:#9c081d;fill-opacity:1;fill-rule:nonzero;stroke:none"
                   id="path2464" />
                <path
                   inkscape:connector-curvature="0"
                   d="m 2451.8408,2020.3784 c 0,26.9452 109.7365,48.7881 245.1071,48.7881 135.3709,0 245.1075,-21.8429 245.1075,-48.7881 0,-26.9452 -109.7366,-48.788 -245.1075,-48.788 -135.3706,0 -245.1071,21.8428 -245.1071,48.788 z"
                   style="fill:#9e081e;fill-opacity:1;fill-rule:nonzero;stroke:none"
                   id="path2466" />
                <path
                   inkscape:connector-curvature="0"
                   d="m 2455.7822,2020.3781 c 0,26.5105 107.9663,48.001 241.1533,48.001 133.1868,0 241.1531,-21.4905 241.1531,-48.001 0,-26.5106 -107.9663,-48.0012 -241.1531,-48.0012 -133.187,0 -241.1533,21.4906 -241.1533,48.0012 z"
                   style="fill:#9f091e;fill-opacity:1;fill-rule:nonzero;stroke:none"
                   id="path2468" />
                <path
                   inkscape:connector-curvature="0"
                   d="m 2459.7236,2020.3778 c 0,26.076 106.196,47.2142 237.1992,47.2142 131.0029,0 237.199,-21.1382 237.199,-47.2142 0,-26.0761 -106.1961,-47.2143 -237.199,-47.2143 -131.0032,0 -237.1992,21.1382 -237.1992,47.2143 z"
                   style="fill:#a0091f;fill-opacity:1;fill-rule:nonzero;stroke:none"
                   id="path2470" />
                <path
                   inkscape:connector-curvature="0"
                   d="m 2463.6652,2020.3774 c 0,25.6415 104.4256,46.4272 233.2449,46.4272 128.8191,0 233.2446,-20.7857 233.2446,-46.4272 0,-25.6414 -104.4255,-46.4273 -233.2446,-46.4273 -128.8193,0 -233.2449,20.7859 -233.2449,46.4273 z"
                   style="fill:#a20a20;fill-opacity:1;fill-rule:nonzero;stroke:none"
                   id="path2472" />
                <path
                   inkscape:connector-curvature="0"
                   d="m 2467.6477,2020.3771 c 0,25.2068 102.6564,45.6404 229.2934,45.6404 126.637,0 229.2935,-20.4336 229.2935,-45.6404 0,-25.2067 -102.6565,-45.6403 -229.2935,-45.6403 -126.637,0 -229.2934,20.4336 -229.2934,45.6403 z"
                   style="fill:#a30b20;fill-opacity:1;fill-rule:nonzero;stroke:none"
                   id="path2474" />
                <path
                   inkscape:connector-curvature="0"
                   d="m 2471.5891,2020.3768 c 0,24.7722 100.8862,44.8536 225.3393,44.8536 124.4531,0 225.3394,-20.0814 225.3394,-44.8536 0,-24.7722 -100.8863,-44.8535 -225.3394,-44.8535 -124.4531,0 -225.3393,20.0813 -225.3393,44.8535 z"
                   style="fill:#a40b21;fill-opacity:1;fill-rule:nonzero;stroke:none"
                   id="path2476" />
                <path
                   inkscape:connector-curvature="0"
                   d="m 2475.5305,2020.3764 c 0,24.3377 99.1159,44.0667 221.3852,44.0667 122.2693,0 221.3853,-19.729 221.3853,-44.0667 0,-24.3376 -99.116,-44.0665 -221.3853,-44.0665 -122.2693,0 -221.3852,19.7289 -221.3852,44.0665 z"
                   style="fill:#a60c22;fill-opacity:1;fill-rule:nonzero;stroke:none"
                   id="path2478" />
                <path
                   inkscape:connector-curvature="0"
                   d="m 2479.5131,2020.3762 c 0,23.9029 97.347,43.2798 217.4336,43.2798 120.0869,0 217.4339,-19.3769 217.4339,-43.2798 0,-23.9031 -97.347,-43.2798 -217.4339,-43.2798 -120.0866,0 -217.4336,19.3767 -217.4336,43.2798 z"
                   style="fill:#a70c22;fill-opacity:1;fill-rule:nonzero;stroke:none"
                   id="path2480" />
                <path
                   inkscape:connector-curvature="0"
                   d="m 2483.4545,2020.3758 c 0,23.4684 95.5767,42.4928 213.4798,42.4928 117.9031,0 213.4795,-19.0244 213.4795,-42.4928 0,-23.4684 -95.5764,-42.4928 -213.4795,-42.4928 -117.9031,0 -213.4798,19.0244 -213.4798,42.4928 z"
                   style="fill:#a80d23;fill-opacity:1;fill-rule:nonzero;stroke:none"
                   id="path2482" />
                <path
                   inkscape:connector-curvature="0"
                   d="m 2487.3959,2020.3754 c 0,23.034 93.8064,41.7061 209.5257,41.7061 115.7192,0 209.5254,-18.6721 209.5254,-41.7061 0,-23.0338 -93.8062,-41.7059 -209.5254,-41.7059 -115.7193,0 -209.5257,18.6721 -209.5257,41.7059 z"
                   style="fill:#aa0e24;fill-opacity:1;fill-rule:nonzero;stroke:none"
                   id="path2484" />
                <path
                   inkscape:connector-curvature="0"
                   d="m 2491.3374,2020.3752 c 0,22.5991 92.0361,40.9189 205.5712,40.9189 113.5357,0 205.5716,-18.3198 205.5716,-40.9189 0,-22.5994 -92.0359,-40.9191 -205.5716,-40.9191 -113.5351,0 -205.5712,18.3197 -205.5712,40.9191 z"
                   style="fill:#ab0e24;fill-opacity:1;fill-rule:nonzero;stroke:none"
                   id="path2486" />
                <path
                   inkscape:connector-curvature="0"
                   d="m 2495.32,2020.3748 c 0,22.1647 90.2669,40.1322 201.6199,40.1322 111.353,0 201.6201,-17.9675 201.6201,-40.1322 0,-22.1646 -90.2671,-40.1321 -201.6201,-40.1321 -111.353,0 -201.6199,17.9675 -201.6199,40.1321 z"
                   style="fill:#ac0f25;fill-opacity:1;fill-rule:nonzero;stroke:none"
                   id="path2488" />
                <path
                   inkscape:connector-curvature="0"
                   d="m 2499.2614,2020.3745 c 0,21.7301 88.4966,39.3452 197.6658,39.3452 109.1692,0 197.6658,-17.6151 197.6658,-39.3452 0,-21.73 -88.4966,-39.3453 -197.6658,-39.3453 -109.1692,0 -197.6658,17.6153 -197.6658,39.3453 z"
                   style="fill:#ae0f26;fill-opacity:1;fill-rule:nonzero;stroke:none"
                   id="path2490" />
                <path
                   inkscape:connector-curvature="0"
                   d="m 2503.2028,2020.3742 c 0,21.2954 86.7263,38.5584 193.7117,38.5584 106.9854,0 193.7117,-17.263 193.7117,-38.5584 0,-21.2955 -86.7263,-38.5583 -193.7117,-38.5583 -106.9854,0 -193.7117,17.2628 -193.7117,38.5583 z"
                   style="fill:#af1026;fill-opacity:1;fill-rule:nonzero;stroke:none"
                   id="path2492" />
                <path
                   inkscape:connector-curvature="0"
                   d="m 2507.1855,2020.3739 c 0,20.8608 84.957,37.7716 189.7603,37.7716 104.8029,0 189.7602,-16.9108 189.7602,-37.7716 0,-20.8609 -84.9573,-37.7714 -189.7602,-37.7714 -104.8033,0 -189.7603,16.9105 -189.7603,37.7714 z"
                   style="fill:#b01027;fill-opacity:1;fill-rule:nonzero;stroke:none"
                   id="path2494" />
                <path
                   inkscape:connector-curvature="0"
                   d="m 2511.1269,2020.3735 c 0,20.4263 83.1868,36.9846 185.8062,36.9846 102.6191,0 185.8061,-16.5583 185.8061,-36.9846 0,-20.4263 -83.187,-36.9845 -185.8061,-36.9845 -102.6194,0 -185.8062,16.5582 -185.8062,36.9845 z"
                   style="fill:#b21128;fill-opacity:1;fill-rule:nonzero;stroke:none"
                   id="path2496" />
                <path
                   inkscape:connector-curvature="0"
                   d="m 2515.0683,2020.3732 c 0,19.9917 81.4165,36.1976 181.8521,36.1976 100.4353,0 181.852,-16.2059 181.852,-36.1976 0,-19.9917 -81.4167,-36.1977 -181.852,-36.1977 -100.4356,0 -181.8521,16.206 -181.8521,36.1977 z"
                   style="fill:#b31228;fill-opacity:1;fill-rule:nonzero;stroke:none"
                   id="path2498" />
                <path
                   inkscape:connector-curvature="0"
                   d="m 2519.0097,2020.3729 c 0,19.5571 79.6463,35.4107 177.898,35.4107 98.2514,0 177.8977,-15.8536 177.8977,-35.4107 0,-19.557 -79.6463,-35.4108 -177.8977,-35.4108 -98.2517,0 -177.898,15.8538 -177.898,35.4108 z"
                   style="fill:#b41229;fill-opacity:1;fill-rule:nonzero;stroke:none"
                   id="path2500" />
                <path
                   inkscape:connector-curvature="0"
                   d="m 2522.9921,2020.3726 c 0,19.1225 77.8775,34.6239 173.9466,34.6239 96.0693,0 173.9465,-15.5014 173.9465,-34.6239 0,-19.1225 -77.8772,-34.6239 -173.9465,-34.6239 -96.0691,0 -173.9466,15.5014 -173.9466,34.6239 z"
                   style="fill:#b5132a;fill-opacity:1;fill-rule:nonzero;stroke:none"
                   id="path2502" />
                <path
                   inkscape:connector-curvature="0"
                   d="m 2526.9338,2020.3723 c 0,18.6878 76.1069,33.8369 169.9922,33.8369 93.8855,0 169.9924,-15.1491 169.9924,-33.8369 0,-18.6879 -76.1069,-33.8369 -169.9924,-33.8369 -93.8853,0 -169.9922,15.149 -169.9922,33.8369 z"
                   style="fill:#b7132a;fill-opacity:1;fill-rule:nonzero;stroke:none"
                   id="path2504" />
                <path
                   inkscape:connector-curvature="0"
                   d="m 2530.8752,2020.3719 c 0,18.2533 74.3367,33.0502 166.0381,33.0502 91.7016,0 166.0383,-14.7969 166.0383,-33.0502 0,-18.2533 -74.3367,-33.0501 -166.0383,-33.0501 -91.7014,0 -166.0381,14.7968 -166.0381,33.0501 z"
                   style="fill:#b8142b;fill-opacity:1;fill-rule:nonzero;stroke:none"
                   id="path2506" />
                <path
                   inkscape:connector-curvature="0"
                   d="m 2534.8576,2020.3715 c 0,17.8188 72.5676,32.2632 162.0869,32.2632 89.5191,0 162.0867,-14.4444 162.0867,-32.2632 0,-17.8186 -72.5676,-32.263 -162.0867,-32.263 -89.5193,0 -162.0869,14.4444 -162.0869,32.263 z"
                   style="fill:#b9152c;fill-opacity:1;fill-rule:nonzero;stroke:none"
                   id="path2508" />
                <path
                   inkscape:connector-curvature="0"
                   d="m 2538.799,2020.3713 c 0,17.384 70.7974,31.4763 158.1328,31.4763 87.3352,0 158.1326,-14.0923 158.1326,-31.4763 0,-17.384 -70.7974,-31.4763 -158.1326,-31.4763 -87.3354,0 -158.1328,14.0923 -158.1328,31.4763 z"
                   style="fill:#bb152c;fill-opacity:1;fill-rule:nonzero;stroke:none"
                   id="path2510" />
                <path
                   inkscape:connector-curvature="0"
                   d="m 2542.7407,2020.3709 c 0,16.9496 69.0268,30.6894 154.1784,30.6894 85.1514,0 154.1785,-13.7398 154.1785,-30.6894 0,-16.9494 -69.0271,-30.6893 -154.1785,-30.6893 -85.1516,0 -154.1784,13.7399 -154.1784,30.6893 z"
                   style="fill:#bc162d;fill-opacity:1;fill-rule:nonzero;stroke:none"
                   id="path2512" />
                <path
                   inkscape:connector-curvature="0"
                   d="m 2546.6821,2020.3706 c 0,16.5148 67.2566,29.9025 150.2243,29.9025 82.9676,0 150.2244,-13.3877 150.2244,-29.9025 0,-16.5149 -67.2568,-29.9025 -150.2244,-29.9025 -82.9677,0 -150.2243,13.3876 -150.2243,29.9025 z"
                   style="fill:#bd162e;fill-opacity:1;fill-rule:nonzero;stroke:none"
                   id="path2514" />
                <path
                   inkscape:connector-curvature="0"
                   d="m 2550.6645,2020.3703 c 0,16.0803 65.4875,29.1155 146.273,29.1155 80.7854,0 146.2729,-13.0352 146.2729,-29.1155 0,-16.0803 -65.4875,-29.1156 -146.2729,-29.1156 -80.7855,0 -146.273,13.0353 -146.273,29.1156 z"
                   style="fill:#bf172e;fill-opacity:1;fill-rule:nonzero;stroke:none"
                   id="path2516" />
                <path
                   inkscape:connector-curvature="0"
                   d="m 2554.6059,2020.3701 c 0,15.6456 63.7173,28.3286 142.3189,28.3286 78.6015,0 142.3188,-12.683 142.3188,-28.3286 0,-15.6458 -63.7173,-28.3288 -142.3188,-28.3288 -78.6016,0 -142.3189,12.683 -142.3189,28.3288 z"
                   style="fill:#c0182f;fill-opacity:1;fill-rule:nonzero;stroke:none"
                   id="path2518" />
                <path
                   inkscape:connector-curvature="0"
                   d="m 2558.5473,2020.3697 c 0,15.2111 61.947,27.5417 138.3648,27.5417 76.4177,0 138.3647,-12.3306 138.3647,-27.5417 0,-15.2112 -61.947,-27.5419 -138.3647,-27.5419 -76.4178,0 -138.3648,12.3307 -138.3648,27.5419 z"
                   style="fill:#c11830;fill-opacity:1;fill-rule:nonzero;stroke:none"
                   id="path2520" />
                <path
                   inkscape:connector-curvature="0"
                   d="m 2562.53,2020.3693 c 0,14.7766 60.178,26.7549 134.4133,26.7549 74.2354,0 134.4133,-11.9783 134.4133,-26.7549 0,-14.7765 -60.1779,-26.7548 -134.4133,-26.7548 -74.2353,0 -134.4133,11.9783 -134.4133,26.7548 z"
                   style="fill:#c31930;fill-opacity:1;fill-rule:nonzero;stroke:none"
                   id="path2522" />
                <path
                   inkscape:connector-curvature="0"
                   d="m 2566.4714,2020.3691 c 0,14.3418 58.4077,25.968 130.4592,25.968 72.0515,0 130.4592,-11.6262 130.4592,-25.968 0,-14.3421 -58.4077,-25.968 -130.4592,-25.968 -72.0515,0 -130.4592,11.6259 -130.4592,25.968 z"
                   style="fill:#c41931;fill-opacity:1;fill-rule:nonzero;stroke:none"
                   id="path2524" />
                <path
                   inkscape:connector-curvature="0"
                   d="m 2570.4128,2020.3687 c 0,13.9074 56.6374,25.1811 126.5051,25.1811 69.8677,0 126.5049,-11.2737 126.5049,-25.1811 0,-13.9073 -56.6372,-25.1811 -126.5049,-25.1811 -69.8677,0 -126.5051,11.2738 -126.5051,25.1811 z"
                   style="fill:#c51a31;fill-opacity:1;fill-rule:nonzero;stroke:none"
                   id="path2526" />
                <path
                   inkscape:connector-curvature="0"
                   d="m 2574.3955,2020.3684 c 0,13.4727 54.8681,24.3942 122.5534,24.3942 67.6856,0 122.5537,-10.9215 122.5537,-24.3942 0,-13.4728 -54.8681,-24.3942 -122.5537,-24.3942 -67.6853,0 -122.5534,10.9214 -122.5534,24.3942 z"
                   style="fill:#c71a32;fill-opacity:1;fill-rule:nonzero;stroke:none"
                   id="path2528" />
                <path
                   inkscape:connector-curvature="0"
                   d="m 2578.3369,2020.368 c 0,13.0382 53.0979,23.6074 118.5993,23.6074 65.5017,0 118.5996,-10.5692 118.5996,-23.6074 0,-13.0381 -53.0979,-23.6073 -118.5996,-23.6073 -65.5014,0 -118.5993,10.5692 -118.5993,23.6073 z"
                   style="fill:#c81b33;fill-opacity:1;fill-rule:nonzero;stroke:none"
                   id="path2530" />
                <path
                   inkscape:connector-curvature="0"
                   d="m 2582.2783,2020.3677 c 0,12.6036 51.3276,22.8205 114.6452,22.8205 63.3179,0 114.6455,-10.2169 114.6455,-22.8205 0,-12.6035 -51.3276,-22.8204 -114.6455,-22.8204 -63.3176,0 -114.6452,10.2169 -114.6452,22.8204 z"
                   style="fill:#c91c33;fill-opacity:1;fill-rule:nonzero;stroke:none"
                   id="path2532" />
                <path
                   inkscape:connector-curvature="0"
                   d="m 2586.2197,2020.3674 c 0,12.1689 49.5573,22.0336 110.6911,22.0336 61.1341,0 110.6914,-9.8647 110.6914,-22.0336 0,-12.169 -49.5573,-22.0335 -110.6914,-22.0335 -61.1338,0 -110.6911,9.8645 -110.6911,22.0335 z"
                   style="fill:#cb1c34;fill-opacity:1;fill-rule:nonzero;stroke:none"
                   id="path2534" />
                <path
                   inkscape:connector-curvature="0"
                   d="m 2590.2023,2020.3671 c 0,11.7343 47.7884,21.2466 106.7398,21.2466 58.9514,0 106.7397,-9.5123 106.7397,-21.2466 0,-11.7343 -47.7883,-21.2467 -106.7397,-21.2467 -58.9514,0 -106.7398,9.5124 -106.7398,21.2467 z"
                   style="fill:#cc1d35;fill-opacity:1;fill-rule:nonzero;stroke:none"
                   id="path2536" />
                <path
                   inkscape:connector-curvature="0"
                   d="m 2594.1437,2020.3668 c 0,11.2997 46.0179,20.4597 102.7857,20.4597 56.7676,0 102.7856,-9.16 102.7856,-20.4597 0,-11.2997 -46.018,-20.4597 -102.7856,-20.4597 -56.7678,0 -102.7857,9.16 -102.7857,20.4597 z"
                   style="fill:#cd1d35;fill-opacity:1;fill-rule:nonzero;stroke:none"
                   id="path2538" />
                <path
                   inkscape:connector-curvature="0"
                   d="m 2598.0852,2020.3664 c 0,10.8652 44.2475,19.6729 98.8315,19.6729 54.5837,0 98.8315,-8.8077 98.8315,-19.6729 0,-10.8651 -44.2478,-19.6728 -98.8315,-19.6728 -54.584,0 -98.8315,8.8077 -98.8315,19.6728 z"
                   style="fill:#cf1e36;fill-opacity:1;fill-rule:nonzero;stroke:none"
                   id="path2540" />
                <path
                   inkscape:connector-curvature="0"
                   d="m 2602.0678,2020.3662 c 0,10.4305 42.4785,18.8858 94.8801,18.8858 52.4014,0 94.8802,-8.4553 94.8802,-18.8858 0,-10.4307 -42.4788,-18.886 -94.8802,-18.886 -52.4016,0 -94.8801,8.4553 -94.8801,18.886 z"
                   style="fill:#d01f37;fill-opacity:1;fill-rule:nonzero;stroke:none"
                   id="path2542" />
                <path
                   inkscape:connector-curvature="0"
                   d="m 2606.0092,2020.3658 c 0,9.996 40.7083,18.099 90.9258,18.099 50.2178,0 90.926,-8.103 90.926,-18.099 0,-9.996 -40.7082,-18.099 -90.926,-18.099 -50.2175,0 -90.9258,8.103 -90.9258,18.099 z"
                   style="fill:#d11f37;fill-opacity:1;fill-rule:nonzero;stroke:none"
                   id="path2544" />
                <path
                   inkscape:connector-curvature="0"
                   d="m 2609.9506,2020.3654 c 0,9.5614 38.938,17.3123 86.9717,17.3123 48.0339,0 86.9719,-7.7509 86.9719,-17.3123 0,-9.5613 -38.938,-17.3121 -86.9719,-17.3121 -48.0337,0 -86.9717,7.7508 -86.9717,17.3121 z"
                   style="fill:#d22038;fill-opacity:1;fill-rule:nonzero;stroke:none"
                   id="path2546" />
                <path
                   inkscape:connector-curvature="0"
                   d="m 2613.892,2020.3652 c 0,9.1267 37.1678,16.5253 83.0176,16.5253 45.8501,0 83.0178,-7.3986 83.0178,-16.5253 0,-9.1268 -37.1677,-16.5253 -83.0178,-16.5253 -45.8498,0 -83.0176,7.3985 -83.0176,16.5253 z"
                   style="fill:#d42039;fill-opacity:1;fill-rule:nonzero;stroke:none"
                   id="path2548" />
                <path
                   inkscape:connector-curvature="0"
                   d="m 2617.8745,2020.3648 c 0,8.6922 35.3986,15.7384 79.0664,15.7384 43.6677,0 79.0664,-7.0462 79.0664,-15.7384 0,-8.6921 -35.3987,-15.7384 -79.0664,-15.7384 -43.6678,0 -79.0664,7.0463 -79.0664,15.7384 z"
                   style="fill:#d52139;fill-opacity:1;fill-rule:nonzero;stroke:none"
                   id="path2550" />
                <path
                   inkscape:connector-curvature="0"
                   d="m 2621.8161,2020.3645 c 0,8.2575 33.6282,14.9515 75.1121,14.9515 41.4839,0 75.1123,-6.694 75.1123,-14.9515 0,-8.2576 -33.6284,-14.9515 -75.1123,-14.9515 -41.4839,0 -75.1121,6.6939 -75.1121,14.9515 z"
                   style="fill:#d6223a;fill-opacity:1;fill-rule:nonzero;stroke:none"
                   id="path2552" />
                <path
                   inkscape:connector-curvature="0"
                   d="m 2625.7575,2020.3642 c 0,7.823 31.8579,14.1646 71.158,14.1646 39.3,0 71.1582,-6.3416 71.1582,-14.1646 0,-7.823 -31.8582,-14.1645 -71.1582,-14.1645 -39.3001,0 -71.158,6.3415 -71.158,14.1645 z"
                   style="fill:#d8223b;fill-opacity:1;fill-rule:nonzero;stroke:none"
                   id="path2554" />
                <path
                   inkscape:connector-curvature="0"
                   d="m 2629.7399,2020.3638 c 0,7.3885 30.0889,13.3777 67.2068,13.3777 37.1177,0 67.2066,-5.9892 67.2066,-13.3777 0,-7.3884 -30.0889,-13.3776 -67.2066,-13.3776 -37.1179,0 -67.2068,5.9892 -67.2068,13.3776 z"
                   style="fill:#d9233b;fill-opacity:1;fill-rule:nonzero;stroke:none"
                   id="path2556" />
                <path
                   inkscape:connector-curvature="0"
                   d="m 2633.6813,2020.3635 c 0,6.9538 28.3189,12.5908 63.2527,12.5908 34.9339,0 63.2525,-5.637 63.2525,-12.5908 0,-6.9538 -28.3186,-12.5907 -63.2525,-12.5907 -34.9338,0 -63.2527,5.6369 -63.2527,12.5907 z"
                   style="fill:#da233c;fill-opacity:1;fill-rule:nonzero;stroke:none"
                   id="path2558" />
                <path
                   inkscape:connector-curvature="0"
                   d="m 2637.6228,2020.3632 c 0,6.5192 26.5485,11.8039 59.2985,11.8039 32.75,0 59.2984,-5.2847 59.2984,-11.8039 0,-6.5191 -26.5484,-11.8039 -59.2984,-11.8039 -32.75,0 -59.2985,5.2848 -59.2985,11.8039 z"
                   style="fill:#dc243d;fill-opacity:1;fill-rule:nonzero;stroke:none"
                   id="path2560" />
                <path
                   inkscape:connector-curvature="0"
                   d="m 2641.5644,2020.3629 c 0,6.0846 24.7781,11.0171 55.3442,11.0171 30.5662,0 55.3443,-4.9325 55.3443,-11.0171 0,-6.0846 -24.7781,-11.017 -55.3443,-11.017 -30.5661,0 -55.3442,4.9324 -55.3442,11.017 z"
                   style="fill:#dd243d;fill-opacity:1;fill-rule:nonzero;stroke:none"
                   id="path2562" />
                <path
                   inkscape:connector-curvature="0"
                   d="m 2645.5468,2020.3625 c 0,5.65 23.0091,10.2302 51.3928,10.2302 28.3838,0 51.3929,-4.5802 51.3929,-10.2302 0,-5.6499 -23.0091,-10.23 -51.3929,-10.23 -28.3837,0 -51.3928,4.5801 -51.3928,10.23 z"
                   style="fill:#de253e;fill-opacity:1;fill-rule:nonzero;stroke:none"
                   id="path2564" />
                <path
                   inkscape:connector-curvature="0"
                   d="m 2649.4882,2020.3623 c 0,5.2153 21.2388,9.4432 47.4388,9.4432 26.1999,0 47.4387,-4.2279 47.4387,-9.4432 0,-5.2154 -21.2388,-9.4433 -47.4387,-9.4433 -26.2,0 -47.4388,4.2279 -47.4388,9.4433 z"
                   style="fill:#e0263f;fill-opacity:1;fill-rule:nonzero;stroke:none"
                   id="path2566" />
                <path
                   inkscape:connector-curvature="0"
                   d="m 2653.4296,2020.3619 c 0,4.7809 19.4685,8.6564 43.4847,8.6564 24.0161,0 43.4846,-3.8755 43.4846,-8.6564 0,-4.7808 -19.4685,-8.6563 -43.4846,-8.6563 -24.0162,0 -43.4847,3.8755 -43.4847,8.6563 z"
                   style="fill:#e1263f;fill-opacity:1;fill-rule:nonzero;stroke:none"
                   id="path2568" />
                <path
                   inkscape:connector-curvature="0"
                   d="m 2657.4123,2020.3615 c 0,4.3463 17.6992,7.8695 39.5332,7.8695 21.8337,0 39.533,-3.5232 39.533,-7.8695 0,-4.3462 -17.6993,-7.8694 -39.533,-7.8694 -21.834,0 -39.5332,3.5232 -39.5332,7.8694 z"
                   style="fill:#e22740;fill-opacity:1;fill-rule:nonzero;stroke:none"
                   id="path2570" />
                <path
                   inkscape:connector-curvature="0"
                   d="m 2661.3537,2020.3613 c 0,3.9116 15.929,7.0825 35.5791,7.0825 19.6499,0 35.5789,-3.1709 35.5789,-7.0825 0,-3.9116 -15.929,-7.0825 -35.5789,-7.0825 -19.6501,0 -35.5791,3.1709 -35.5791,7.0825 z"
                   style="fill:#e42741;fill-opacity:1;fill-rule:nonzero;stroke:none"
                   id="path2572" />
                <path
                   inkscape:connector-curvature="0"
                   d="m 2665.2951,2020.3609 c 0,3.4771 14.1587,6.2957 31.625,6.2957 17.4661,0 31.6248,-2.8186 31.6248,-6.2957 0,-3.4769 -14.1587,-6.2955 -31.6248,-6.2955 -17.4663,0 -31.625,2.8186 -31.625,6.2955 z"
                   style="fill:#e52841;fill-opacity:1;fill-rule:nonzero;stroke:none"
                   id="path2574" />
                <path
                   inkscape:connector-curvature="0"
                   d="m 2669.2365,2020.3607 c 0,3.0423 12.3885,5.5086 27.6709,5.5086 15.2822,0 27.6707,-2.4663 27.6707,-5.5086 0,-3.0425 -12.3885,-5.5088 -27.6707,-5.5088 -15.2824,0 -27.6709,2.4663 -27.6709,5.5088 z"
                   style="fill:#e62942;fill-opacity:1;fill-rule:nonzero;stroke:none"
                   id="path2576" />
                <path
                   inkscape:connector-curvature="0"
                   d="m 2673.2192,2020.3603 c 0,2.6078 10.6194,4.7218 23.7192,4.7218 13.1001,0 23.7195,-2.114 23.7195,-4.7218 0,-2.6078 -10.6194,-4.7218 -23.7195,-4.7218 -13.0998,0 -23.7192,2.114 -23.7192,4.7218 z"
                   style="fill:#e82943;fill-opacity:1;fill-rule:nonzero;stroke:none"
                   id="path2578" />
                <path
                   inkscape:connector-curvature="0"
                   d="m 2677.1606,2020.3599 c 0,2.1733 8.8491,3.935 19.7651,3.935 10.9163,0 19.7654,-1.7617 19.7654,-3.935 0,-2.1732 -8.8491,-3.9349 -19.7654,-3.9349 -10.916,0 -19.7651,1.7617 -19.7651,3.9349 z"
                   style="fill:#e92a43;fill-opacity:1;fill-rule:nonzero;stroke:none"
                   id="path2580" />
                <path
                   inkscape:connector-curvature="0"
                   d="m 2681.102,2020.3597 c 0,1.7386 7.0789,3.1481 15.811,3.1481 8.7325,0 15.8111,-1.4095 15.8111,-3.1481 0,-1.7387 -7.0786,-3.1481 -15.8111,-3.1481 -8.7321,0 -15.811,1.4094 -15.811,3.1481 z"
                   style="fill:#ea2a44;fill-opacity:1;fill-rule:nonzero;stroke:none"
                   id="path2582" />
                <path
                   inkscape:connector-curvature="0"
                   d="m 2685.0847,2020.3593 c 0,1.3041 5.3095,2.3612 11.8596,2.3612 6.55,0 11.8596,-1.0571 11.8596,-2.3612 0,-1.3041 -5.3096,-2.3611 -11.8596,-2.3611 -6.5501,0 -11.8596,1.057 -11.8596,2.3611 z"
                   style="fill:#eb2b45;fill-opacity:1;fill-rule:nonzero;stroke:none"
                   id="path2584" />
                <path
                   inkscape:connector-curvature="0"
                   d="m 2689.0261,2020.359 c 0,0.8695 3.5393,1.5743 7.9055,1.5743 4.3662,0 7.9055,-0.7048 7.9055,-1.5743 0,-0.8694 -3.5393,-1.5743 -7.9055,-1.5743 -4.3662,0 -7.9055,0.7049 -7.9055,1.5743 z"
                   style="fill:#ed2b45;fill-opacity:1;fill-rule:nonzero;stroke:none"
                   id="path2586" />
                <path
                   inkscape:connector-curvature="0"
                   d="m 2692.9675,2020.3587 c 0,0.4348 1.769,0.7874 3.9514,0.7874 2.1824,0 3.9514,-0.3526 3.9514,-0.7874 0,-0.4349 -1.769,-0.7873 -3.9514,-0.7873 -2.1824,0 -3.9514,0.3524 -3.9514,0.7873 z"
                   style="fill:#ee2c46;fill-opacity:1;fill-rule:nonzero;stroke:none"
                   id="path2588" />
              </g>
            </g>
          </g>
          <path
             inkscape:connector-curvature="0"
             d="m 2773.5537,1956.9262 c 1.9231,0.5335 3.4848,0.9282 5.4943,0.9965 0.2781,1.9917 0.8399,3.5089 1.5716,5.3653 0.739,1.8756 1.2824,4.0755 -0.2593,5.8489 -2.2129,2.5455 -4.8098,2.2752 -6.9697,0.3975 -1.303,-1.1326 -1.5867,-2.4287 -1.2012,-3.9822 -1.5051,0.5454 -2.8296,0.3934 -4.092,-0.7837 -2.0933,-1.9519 -2.6336,-4.5063 -0.3333,-6.9731 1.6025,-1.7188 3.8472,-1.4082 5.7896,-0.8692 z"
             style="fill:#a80018;fill-opacity:1;fill-rule:nonzero;stroke:none"
             id="path2590" />
          <path
             inkscape:connector-curvature="0"
             d="m 2759.9821,1995.862 c -0.5583,0.6987 -1.0608,1.5012 -1.4524,2.424 -3.3691,7.9372 0.1626,13.601 6.8977,16.4598 4.0616,1.7239 7.376,0.931 10.5147,-1.6952 0.4326,4.0687 2.2478,6.9345 6.3674,8.5159 6.8306,2.6222 13.3054,1.0011 16.3955,-7.0487 2.1531,-5.6084 -1.0757,-10.4175 -4.4912,-14.277 -3.3804,-3.8201 -6.0569,-6.9735 -8.4658,-11.515 -3.4563,1.1266 -6.5171,1.665 -9.8118,2.0251 l -15.9541,5.1111 z"
             style="fill:#ff7a8e;fill-opacity:1;fill-rule:evenodd;stroke:none"
             id="path2592" />
          <path
             inkscape:connector-curvature="0"
             d="m 2775.9548,1990.7509 c 0.8193,-3.4566 -0.8613,-6.8485 -2.7056,-9.7428 -2.2204,-3.4846 -3.9619,-6.3464 -5.3137,-10.2849 -4.1118,0.6552 -7.4421,0.4697 -11.5615,0.1452 -4.1614,-0.328 -8.8462,-0.073 -11.4248,4.0539 -3.701,5.923 -1.5935,10.9016 3.4323,14.0421 3.031,1.8938 5.783,1.6795 8.6268,-0.024 -0.1485,2.8998 0.6689,5.1953 2.9553,6.9214 l 15.9912,-5.1111 z"
             style="fill:#ef2d47;fill-opacity:1;fill-rule:evenodd;stroke:none"
             id="path2594" />
          <path
             inkscape:connector-curvature="0"
             d="m 2775.9362,1990.7509 c -0.1772,0.7477 -0.4704,1.4986 -0.903,2.248 -3.4925,6.0483 -8.8777,6.5247 -14.0101,3.5614 -0.3835,-0.2215 -0.736,-0.4541 -1.0595,-0.6983 2.7883,-3.4892 7.4338,-4.3898 11.7143,-4.7262 1.4895,-0.1171 2.8941,-0.2357 4.2583,-0.3849 z"
             style="fill:#de1638;fill-opacity:1;fill-rule:nonzero;stroke:none"
             id="path2596" />
          <text
             xml:space="preserve"
             style="font-size:32px;font-style:normal;font-weight:normal;line-height:125%;letter-spacing:-0.28px;word-spacing:0px;fill:#000000;fill-opacity:1;stroke:none;font-family:Sans"
             x="2793.3491"
             y="-1970.3311"
             id="text4053"
             sodipodi:linespacing="125%"
             transform="scale(1,-1)"><tspan
               sodipodi:role="line"
               id="tspan4055"
               x="2793.3491"
               y="-1970.3311"
               style="font-size:34.40000153px;font-style:normal;font-variant:normal;font-weight:bold;font-stretch:normal;text-align:start;letter-spacing:-0.28px;text-anchor:start;fill:#ffffff;font-family:Nimbus Sans L;-inkscape-font-specification:Nimbus Sans L Bold">Free</tspan></text>
          <text
             xml:space="preserve"
             style="font-size:32px;font-style:normal;font-variant:normal;font-weight:normal;font-stretch:normal;line-height:125%;letter-spacing:0.176px;word-spacing:0px;fill:#000000;fill-opacity:1;stroke:none;font-family:Nimbus Sans L;-inkscape-font-specification:Nimbus Sans L"
             x="2874.0208"
             y="-1969.9312"
             id="text4057"
             sodipodi:linespacing="125%"
             transform="scale(1,-1)"><tspan
               sodipodi:role="line"
               id="tspan4059"
               x="2874.0208"
               y="-1969.9312"
               style="font-size:34.40000153px;font-weight:bold;letter-spacing:-0.13600001px;fill:#ffffff;-inkscape-font-specification:Nimbus Sans L Bold">Software</tspan></text>
          <text
             xml:space="preserve"
             style="font-size:34.40000153px;font-style:normal;font-variant:normal;font-weight:bold;font-stretch:normal;line-height:125%;letter-spacing:0px;word-spacing:0px;fill:#000000;fill-opacity:1;stroke:none;font-family:Nimbus Sans L;-inkscape-font-specification:Nimbus Sans L Bold"
             x="2726.821"
             y="-1970.3312"
             id="text4061"
             sodipodi:linespacing="125%"
             transform="scale(1,-1)"><tspan
               sodipodi:role="line"
               id="tspan4063"
               x="2726.821"
               y="-1970.3312"
               style="fill:#ffffff">I</tspan></text>
          <text
             xml:space="preserve"
             style="font-size:40px;font-style:normal;font-variant:normal;font-weight:normal;font-stretch:normal;line-height:125%;letter-spacing:0px;word-spacing:0px;fill:#000000;fill-opacity:1;stroke:none;font-family:Nimbus Sans L;-inkscape-font-specification:Nimbus Sans L"
             x="223.5"
             y="516.36218"
             id="text4065"
             sodipodi:linespacing="125%"
             transform="matrix(0.8,0,0,-0.8,2522.421,2422.2209)"><tspan
               sodipodi:role="line"
               id="tspan4067"
               x="223.5"
               y="516.36218" /></text>
        </g>
      </g>
      <flowRoot
         xml:space="preserve"
         id="flowRoot4071"
         style="font-size:40px;font-style:normal;font-variant:normal;font-weight:normal;font-stretch:normal;line-height:125%;letter-spacing:0px;word-spacing:0px;fill:#000000;fill-opacity:1;stroke:none;font-family:Nimbus Sans L;-inkscape-font-specification:Nimbus Sans L"
         transform="translate(16,104.5)"><flowRegion
           id="flowRegion4073"><rect
             id="rect4075"
             width="133"
             height="25.5"
             x="212"
             y="405.36218" /></flowRegion><flowPara
           id="flowPara4077"
           style="font-size:16px;font-weight:bold;letter-spacing:0.17px;fill:#ffffff;-inkscape-font-specification:Nimbus Sans L Bold">Valentijnsdag</flowPara></flowRoot>      <path
         inkscape:connector-curvature="0"
         d="m 365.20545,522.26647 c -1.07875,0.53775 -1.93937,0.99188 -2.86925,1.77338 -0.92988,-0.78162 -1.79537,-1.23563 -2.87412,-1.77338 -1.08988,-0.54337 -2.22288,-1.311 -2.248,-2.73037 -0.0354,-2.03738 1.23962,-2.9655 2.9685,-2.99575 1.0425,-0.0181 1.694,0.44913 2.14874,1.30225 0.45526,-0.85337 1.11113,-1.32037 2.15363,-1.30225 1.72875,0.0303 3.00388,0.95837 2.96838,2.99575 -0.0246,1.41937 -1.15775,2.187 -2.24788,2.73037 z"
         style="fill:#ffffff;fill-opacity:1;fill-rule:nonzero;stroke:none"
         id="path2654" />
      <flowRoot
         xml:space="preserve"
         id="flowRoot4071-9"
         style="font-size:40px;font-style:normal;font-variant:normal;font-weight:normal;font-stretch:normal;line-height:125%;letter-spacing:0px;word-spacing:0px;fill:#000000;fill-opacity:1;stroke:none;font-family:Nimbus Sans L;-inkscape-font-specification:Nimbus Sans L"
         transform="translate(164.59525,104.34168)"><flowRegion
           id="flowRegion4073-6"><rect
             id="rect4075-9"
             width="338.5"
             height="32"
             x="212"
             y="405.36218" /></flowRegion><flowPara
           id="flowPara4077-1"
           style="font-size:16px;font-weight:bold;letter-spacing:0.17px;fill:#ffffff;-inkscape-font-specification:Nimbus Sans L Bold">Toon uw liefde voor Vrije Software</flowPara></flowRoot>    </g>
  </g>
</svg>
