<?xml version="1.0" encoding="UTF-8" standalone="no"?>
<!-- Created with Inkscape (http://www.inkscape.org/) -->

<svg
   xmlns:dc="http://purl.org/dc/elements/1.1/"
   xmlns:cc="http://creativecommons.org/ns#"
   xmlns:rdf="http://www.w3.org/1999/02/22-rdf-syntax-ns#"
   xmlns:svg="http://www.w3.org/2000/svg"
   xmlns="http://www.w3.org/2000/svg"
   xmlns:sodipodi="http://sodipodi.sourceforge.net/DTD/sodipodi-0.dtd"
   xmlns:inkscape="http://www.inkscape.org/namespaces/inkscape"
   width="187.5"
   height="112.5"
   id="svg8081"
   version="1.1"
   inkscape:version="0.48.5 r10040"
   sodipodi:docname="ilovefs-button-nl.svg">
  <defs
     id="defs8083">
    <clipPath
       id="clipPath2714"
       clipPathUnits="userSpaceOnUse">
      <path
         inkscape:connector-curvature="0"
         id="path2716"
         d="m 2875,2278.1914 107.5778,0 0,-24.324 42.4222,0 0,-65.676 -150,0 0,90 z" />
    </clipPath>
    <clipPath
       id="clipPath2722"
       clipPathUnits="userSpaceOnUse">
      <path
         inkscape:connector-curvature="0"
         id="path2724"
         d="m 2875,2278.1914 107.5778,0 0,-24.324 42.4222,0 0,-65.676 -150,0 0,90 z" />
    </clipPath>
  </defs>
  <sodipodi:namedview
     id="base"
     pagecolor="#ffffff"
     bordercolor="#666666"
     borderopacity="1.0"
     inkscape:pageopacity="0.0"
     inkscape:pageshadow="2"
     inkscape:zoom="1"
     inkscape:cx="85.89286"
     inkscape:cy="73.392857"
     inkscape:document-units="px"
     inkscape:current-layer="layer1"
     showgrid="false"
     fit-margin-top="0"
     fit-margin-left="0"
     fit-margin-right="0"
     fit-margin-bottom="0"
     inkscape:window-width="1366"
     inkscape:window-height="725"
     inkscape:window-x="0"
     inkscape:window-y="0"
     inkscape:window-maximized="1" />
  <metadata
     id="metadata8086">
    <rdf:RDF>
      <cc:Work
         rdf:about="">
        <dc:format>image/svg+xml</dc:format>
        <dc:type
           rdf:resource="http://purl.org/dc/dcmitype/StillImage" />
        <dc:title />
      </cc:Work>
    </rdf:RDF>
  </metadata>
  <g
     inkscape:label="Layer 1"
     inkscape:groupmode="layer"
     id="layer1"
     transform="translate(-289.10714,-493.25504)">
    <g
       transform="translate(-151.61656,313.21819)"
       id="g6014">
      <g
         transform="matrix(1.25,0,0,-1.25,-3153.0263,3027.7761)"
         id="g2710">
        <g
           id="g2712"
           clip-path="url(#clipPath2714)">
          <g
             id="g2718">
            <g
               id="g2720"
               clip-path="url(#clipPath2722)">
              <path
                 inkscape:connector-curvature="0"
                 d="m 2875,2278.1914 150,0 0,-90 -150,0 0,90 z"
                 style="fill:#8a0014;fill-opacity:1;fill-rule:nonzero;stroke:none"
                 id="path2726" />
              <path
                 inkscape:connector-curvature="0"
                 d="m 2748.9851,2278.1853 c 0,50.196 57.0749,90.8872 127.4824,90.8872 70.4077,0 127.4826,-40.6912 127.4826,-90.8872 0,-50.1963 -57.0749,-90.8873 -127.4826,-90.8873 -70.4075,0 -127.4824,40.691 -127.4824,90.8873 z"
                 style="fill:#8a0014;fill-opacity:1;fill-rule:nonzero;stroke:none"
                 id="path2728" />
              <path
                 inkscape:connector-curvature="0"
                 d="m 2750.6279,2278.1848 c 0,49.5444 56.3337,89.7068 125.8266,89.7068 69.493,0 125.8267,-40.1624 125.8267,-89.7068 0,-49.5442 -56.3337,-89.7068 -125.8267,-89.7068 -69.4929,0 -125.8266,40.1626 -125.8266,89.7068 z"
                 style="fill:#8b0014;fill-opacity:1;fill-rule:nonzero;stroke:none"
                 id="path2730" />
              <path
                 inkscape:connector-curvature="0"
                 d="m 2752.3146,2278.1845 c 0,48.8924 55.5928,88.5264 124.1719,88.5264 68.5791,0 124.1719,-39.634 124.1719,-88.5264 0,-48.8926 -55.5928,-88.5266 -124.1719,-88.5266 -68.5791,0 -124.1719,39.634 -124.1719,88.5266 z"
                 style="fill:#8d0115;fill-opacity:1;fill-rule:nonzero;stroke:none"
                 id="path2732" />
              <path
                 inkscape:connector-curvature="0"
                 d="m 2753.9577,2278.184 c 0,48.2408 54.8513,87.3462 122.5159,87.3462 67.6643,0 122.5156,-39.1054 122.5156,-87.3462 0,-48.2404 -54.8513,-87.3462 -122.5156,-87.3462 -67.6646,0 -122.5159,39.1058 -122.5159,87.3462 z"
                 style="fill:#8e0116;fill-opacity:1;fill-rule:nonzero;stroke:none"
                 id="path2734" />
              <path
                 inkscape:connector-curvature="0"
                 d="m 2755.6005,2278.1838 c 0,47.5886 54.1099,86.1658 120.8599,86.1658 66.75,0 120.8599,-38.5772 120.8599,-86.1658 0,-47.5886 -54.1099,-86.1658 -120.8599,-86.1658 -66.75,0 -120.8599,38.5772 -120.8599,86.1658 z"
                 style="fill:#8f0216;fill-opacity:1;fill-rule:nonzero;stroke:none"
                 id="path2736" />
              <path
                 inkscape:connector-curvature="0"
                 d="m 2757.2873,2278.1833 c 0,46.9368 53.3691,84.9856 119.2051,84.9856 65.8359,0 119.2051,-38.0488 119.2051,-84.9856 0,-46.9368 -53.3692,-84.9854 -119.2051,-84.9854 -65.836,0 -119.2051,38.0486 -119.2051,84.9854 z"
                 style="fill:#910217;fill-opacity:1;fill-rule:nonzero;stroke:none"
                 id="path2738" />
              <path
                 inkscape:connector-curvature="0"
                 d="m 2758.9304,2278.1831 c 0,46.2849 52.6277,83.8051 117.549,83.8051 64.9214,0 117.5491,-37.5202 117.5491,-83.8051 0,-46.285 -52.6277,-83.8052 -117.5491,-83.8052 -64.9213,0 -117.549,37.5202 -117.549,83.8052 z"
                 style="fill:#920318;fill-opacity:1;fill-rule:nonzero;stroke:none"
                 id="path2740" />
              <path
                 inkscape:connector-curvature="0"
                 d="m 2760.5732,2278.1826 c 0,45.633 51.8862,82.6247 115.8931,82.6247 64.0068,0 115.8933,-36.9917 115.8933,-82.6247 0,-45.6328 -51.8865,-82.6248 -115.8933,-82.6248 -64.0069,0 -115.8931,36.992 -115.8931,82.6248 z"
                 style="fill:#930418;fill-opacity:1;fill-rule:nonzero;stroke:none"
                 id="path2742" />
              <path
                 inkscape:connector-curvature="0"
                 d="m 2762.26,2278.1823 c 0,44.981 51.1455,81.4444 114.2382,81.4444 63.0931,0 114.2386,-36.4634 114.2386,-81.4444 0,-44.9812 -51.1455,-81.4446 -114.2386,-81.4446 -63.0927,0 -114.2382,36.4634 -114.2382,81.4446 z"
                 style="fill:#950419;fill-opacity:1;fill-rule:nonzero;stroke:none"
                 id="path2744" />
              <path
                 inkscape:connector-curvature="0"
                 d="m 2763.9028,2278.1818 c 0,44.3294 50.4043,80.2642 112.5825,80.2642 62.1782,0 112.5823,-35.9348 112.5823,-80.2642 0,-44.3291 -50.4041,-80.2639 -112.5823,-80.2639 -62.1782,0 -112.5825,35.9348 -112.5825,80.2639 z"
                 style="fill:#96051a;fill-opacity:1;fill-rule:nonzero;stroke:none"
                 id="path2746" />
              <path
                 inkscape:connector-curvature="0"
                 d="m 2765.5458,2278.1816 c 0,43.6772 49.6626,79.0837 110.9263,79.0837 61.2639,0 110.9265,-35.4065 110.9265,-79.0837 0,-43.6773 -49.6626,-79.0837 -110.9265,-79.0837 -61.2637,0 -110.9263,35.4064 -110.9263,79.0837 z"
                 style="fill:#97051a;fill-opacity:1;fill-rule:nonzero;stroke:none"
                 id="path2748" />
              <path
                 inkscape:connector-curvature="0"
                 d="m 2767.1887,2278.1811 c 0,43.0254 48.9214,77.9036 109.2705,77.9036 60.3491,0 109.2705,-34.8782 109.2705,-77.9036 0,-43.0254 -48.9214,-77.9033 -109.2705,-77.9033 -60.3491,0 -109.2705,34.8779 -109.2705,77.9033 z"
                 style="fill:#99061b;fill-opacity:1;fill-rule:nonzero;stroke:none"
                 id="path2750" />
              <path
                 inkscape:connector-curvature="0"
                 d="m 2768.8754,2278.1809 c 0,42.3735 48.1805,76.7229 107.6158,76.7229 59.4353,0 107.6157,-34.3494 107.6157,-76.7229 0,-42.3736 -48.1804,-76.7232 -107.6157,-76.7232 -59.4353,0 -107.6158,34.3496 -107.6158,76.7232 z"
                 style="fill:#9a071c;fill-opacity:1;fill-rule:nonzero;stroke:none"
                 id="path2752" />
              <path
                 inkscape:connector-curvature="0"
                 d="m 2770.5185,2278.1804 c 0,41.7216 47.439,75.5427 105.9597,75.5427 58.5205,0 105.9597,-33.8211 105.9597,-75.5427 0,-41.7215 -47.4392,-75.5428 -105.9597,-75.5428 -58.5207,0 -105.9597,33.8213 -105.9597,75.5428 z"
                 style="fill:#9b071c;fill-opacity:1;fill-rule:nonzero;stroke:none"
                 id="path2754" />
              <path
                 inkscape:connector-curvature="0"
                 d="m 2772.1613,2278.1801 c 0,41.0699 46.6978,74.3623 104.3037,74.3623 57.6062,0 104.3037,-33.2924 104.3037,-74.3623 0,-41.0698 -46.6975,-74.3623 -104.3037,-74.3623 -57.6059,0 -104.3037,33.2925 -104.3037,74.3623 z"
                 style="fill:#9c081d;fill-opacity:1;fill-rule:nonzero;stroke:none"
                 id="path2756" />
              <path
                 inkscape:connector-curvature="0"
                 d="m 2773.8481,2278.1796 c 0,40.418 45.9568,73.1822 102.6489,73.1822 56.6922,0 102.6489,-32.7642 102.6489,-73.1822 0,-40.4177 -45.9567,-73.1818 -102.6489,-73.1818 -56.6921,0 -102.6489,32.7641 -102.6489,73.1818 z"
                 style="fill:#9e081e;fill-opacity:1;fill-rule:nonzero;stroke:none"
                 id="path2758" />
              <path
                 inkscape:connector-curvature="0"
                 d="m 2775.4912,2278.1794 c 0,39.7659 45.2153,72.0017 100.9929,72.0017 55.7776,0 100.9929,-32.2358 100.9929,-72.0017 0,-39.7659 -45.2153,-72.0017 -100.9929,-72.0017 -55.7776,0 -100.9929,32.2358 -100.9929,72.0017 z"
                 style="fill:#9f091e;fill-opacity:1;fill-rule:nonzero;stroke:none"
                 id="path2760" />
              <path
                 inkscape:connector-curvature="0"
                 d="m 2777.134,2278.1789 c 0,39.114 44.4741,70.8215 99.3369,70.8215 54.863,0 99.3372,-31.7075 99.3372,-70.8215 0,-39.114 -44.4742,-70.8213 -99.3372,-70.8213 -54.8628,0 -99.3369,31.7073 -99.3369,70.8213 z"
                 style="fill:#a0091f;fill-opacity:1;fill-rule:nonzero;stroke:none"
                 id="path2762" />
              <path
                 inkscape:connector-curvature="0"
                 d="m 2778.777,2278.1787 c 0,38.4621 43.7325,69.6408 97.681,69.6408 53.9484,0 97.6811,-31.1787 97.6811,-69.6408 0,-38.4622 -43.7327,-69.6409 -97.6811,-69.6409 -53.9485,0 -97.681,31.1787 -97.681,69.6409 z"
                 style="fill:#a20a20;fill-opacity:1;fill-rule:nonzero;stroke:none"
                 id="path2764" />
              <path
                 inkscape:connector-curvature="0"
                 d="m 2780.4638,2278.1782 c 0,37.8103 42.9917,68.4607 96.0261,68.4607 53.0345,0 96.0262,-30.6504 96.0262,-68.4607 0,-37.8101 -42.9917,-68.4605 -96.0262,-68.4605 -53.0344,0 -96.0261,30.6504 -96.0261,68.4605 z"
                 style="fill:#a30b20;fill-opacity:1;fill-rule:nonzero;stroke:none"
                 id="path2766" />
              <path
                 inkscape:connector-curvature="0"
                 d="m 2782.1066,2278.1779 c 0,37.1585 42.2503,67.2803 94.3704,67.2803 52.1199,0 94.3701,-30.1218 94.3701,-67.2803 0,-37.1584 -42.2502,-67.2802 -94.3701,-67.2802 -52.1201,0 -94.3704,30.1218 -94.3704,67.2802 z"
                 style="fill:#a40b21;fill-opacity:1;fill-rule:nonzero;stroke:none"
                 id="path2768" />
              <path
                 inkscape:connector-curvature="0"
                 d="m 2783.7497,2278.1774 c 0,36.5066 41.5088,66.1001 92.7141,66.1001 51.2053,0 92.7144,-29.5935 92.7144,-66.1001 0,-36.5063 -41.5091,-66.0998 -92.7144,-66.0998 -51.2053,0 -92.7141,29.5935 -92.7141,66.0998 z"
                 style="fill:#a60c22;fill-opacity:1;fill-rule:nonzero;stroke:none"
                 id="path2770" />
              <path
                 inkscape:connector-curvature="0"
                 d="m 2785.4365,2278.1772 c 0,35.8545 40.768,64.9197 91.0593,64.9197 50.2915,0 91.0596,-29.0652 91.0596,-64.9197 0,-35.8545 -40.7681,-64.9197 -91.0596,-64.9197 -50.2913,0 -91.0593,29.0652 -91.0593,64.9197 z"
                 style="fill:#a70c22;fill-opacity:1;fill-rule:nonzero;stroke:none"
                 id="path2772" />
              <path
                 inkscape:connector-curvature="0"
                 d="m 2787.0793,2278.177 c 0,35.2026 40.0266,63.7392 89.4036,63.7392 49.3767,0 89.4035,-28.5366 89.4035,-63.7392 0,-35.2029 -40.0268,-63.7393 -89.4035,-63.7393 -49.377,0 -89.4036,28.5364 -89.4036,63.7393 z"
                 style="fill:#a80d23;fill-opacity:1;fill-rule:nonzero;stroke:none"
                 id="path2774" />
              <path
                 inkscape:connector-curvature="0"
                 d="m 2788.7221,2278.1765 c 0,34.5507 39.2854,62.5588 87.7476,62.5588 48.4624,0 87.7475,-28.0081 87.7475,-62.5588 0,-34.5508 -39.2851,-62.5589 -87.7475,-62.5589 -48.4622,0 -87.7476,28.0081 -87.7476,62.5589 z"
                 style="fill:#aa0e24;fill-opacity:1;fill-rule:nonzero;stroke:none"
                 id="path2776" />
              <path
                 inkscape:connector-curvature="0"
                 d="m 2790.3652,2278.1762 c 0,33.8987 38.5439,61.3784 86.0915,61.3784 47.5476,0 86.0916,-27.4797 86.0916,-61.3784 0,-33.8989 -38.544,-61.3786 -86.0916,-61.3786 -47.5476,0 -86.0915,27.4797 -86.0915,61.3786 z"
                 style="fill:#ab0e24;fill-opacity:1;fill-rule:nonzero;stroke:none"
                 id="path2778" />
              <path
                 inkscape:connector-curvature="0"
                 d="m 2792.052,2278.1757 c 0,33.2471 37.8029,60.1983 84.4367,60.1983 46.6338,0 84.4368,-26.9512 84.4368,-60.1983 0,-33.247 -37.803,-60.1982 -84.4368,-60.1982 -46.6338,0 -84.4367,26.9512 -84.4367,60.1982 z"
                 style="fill:#ac0f25;fill-opacity:1;fill-rule:nonzero;stroke:none"
                 id="path2780" />
              <path
                 inkscape:connector-curvature="0"
                 d="m 2793.6948,2278.1755 c 0,32.595 37.0617,59.0178 82.781,59.0178 45.719,0 82.7807,-26.4228 82.7807,-59.0178 0,-32.5952 -37.0617,-59.0181 -82.7807,-59.0181 -45.7193,0 -82.781,26.4229 -82.781,59.0181 z"
                 style="fill:#ae0f26;fill-opacity:1;fill-rule:nonzero;stroke:none"
                 id="path2782" />
              <path
                 inkscape:connector-curvature="0"
                 d="m 2795.3378,2278.175 c 0,31.9431 36.3204,57.8376 81.1248,57.8376 44.8047,0 81.125,-25.8945 81.125,-57.8376 0,-31.9431 -36.3203,-57.8374 -81.125,-57.8374 -44.8044,0 -81.1248,25.8943 -81.1248,57.8374 z"
                 style="fill:#af1026;fill-opacity:1;fill-rule:nonzero;stroke:none"
                 id="path2784" />
              <path
                 inkscape:connector-curvature="0"
                 d="m 2797.0246,2278.1748 c 0,31.2912 35.5794,56.6569 79.47,56.6569 43.8906,0 79.4702,-25.3657 79.4702,-56.6569 0,-31.2915 -35.5796,-56.6573 -79.4702,-56.6573 -43.8906,0 -79.47,25.3658 -79.47,56.6573 z"
                 style="fill:#b01027;fill-opacity:1;fill-rule:nonzero;stroke:none"
                 id="path2786" />
              <path
                 inkscape:connector-curvature="0"
                 d="m 2798.6674,2278.1743 c 0,30.6394 34.8382,55.4768 77.8142,55.4768 42.9761,0 77.814,-24.8374 77.814,-55.4768 0,-30.6394 -34.8379,-55.4768 -77.814,-55.4768 -42.976,0 -77.8142,24.8374 -77.8142,55.4768 z"
                 style="fill:#b21128;fill-opacity:1;fill-rule:nonzero;stroke:none"
                 id="path2788" />
              <path
                 inkscape:connector-curvature="0"
                 d="m 2800.3105,2278.174 c 0,29.9876 34.0967,54.2964 76.158,54.2964 42.0615,0 76.1582,-24.3088 76.1582,-54.2964 0,-29.9875 -34.0967,-54.2966 -76.1582,-54.2966 -42.0613,0 -76.158,24.3091 -76.158,54.2966 z"
                 style="fill:#b31228;fill-opacity:1;fill-rule:nonzero;stroke:none"
                 id="path2790" />
              <path
                 inkscape:connector-curvature="0"
                 d="m 2801.9533,2278.1735 c 0,29.3357 33.3552,53.1162 74.5022,53.1162 41.147,0 74.5022,-23.7805 74.5022,-53.1162 0,-29.3357 -33.3552,-53.1162 -74.5022,-53.1162 -41.147,0 -74.5022,23.7805 -74.5022,53.1162 z"
                 style="fill:#b41229;fill-opacity:1;fill-rule:nonzero;stroke:none"
                 id="path2792" />
              <path
                 inkscape:connector-curvature="0"
                 d="m 2803.6401,2278.1733 c 0,28.6836 32.6145,51.9358 72.8474,51.9358 40.2329,0 72.8474,-23.2522 72.8474,-51.9358 0,-28.6838 -32.6145,-51.9358 -72.8474,-51.9358 -40.2329,0 -72.8474,23.252 -72.8474,51.9358 z"
                 style="fill:#b5132a;fill-opacity:1;fill-rule:nonzero;stroke:none"
                 id="path2794" />
              <path
                 inkscape:connector-curvature="0"
                 d="m 2805.2832,2278.1728 c 0,28.0317 31.8728,50.7556 71.1914,50.7556 39.3183,0 71.1914,-22.7239 71.1914,-50.7556 0,-28.0317 -31.8731,-50.7554 -71.1914,-50.7554 -39.3186,0 -71.1914,22.7237 -71.1914,50.7554 z"
                 style="fill:#b7132a;fill-opacity:1;fill-rule:nonzero;stroke:none"
                 id="path2796" />
              <path
                 inkscape:connector-curvature="0"
                 d="m 2806.926,2278.1726 c 0,27.3798 31.1316,49.5749 69.5354,49.5749 38.4038,0 69.5354,-22.1951 69.5354,-49.5749 0,-27.3802 -31.1316,-49.5752 -69.5354,-49.5752 -38.4038,0 -69.5354,22.195 -69.5354,49.5752 z"
                 style="fill:#b8142b;fill-opacity:1;fill-rule:nonzero;stroke:none"
                 id="path2798" />
              <path
                 inkscape:connector-curvature="0"
                 d="m 2808.6127,2278.1721 c 0,26.728 30.3907,48.3947 67.8807,48.3947 37.4899,0 67.8806,-21.6667 67.8806,-48.3947 0,-26.7281 -30.3907,-48.3948 -67.8806,-48.3948 -37.49,0 -67.8807,21.6667 -67.8807,48.3948 z"
                 style="fill:#b9152c;fill-opacity:1;fill-rule:nonzero;stroke:none"
                 id="path2800" />
              <path
                 inkscape:connector-curvature="0"
                 d="m 2810.2558,2278.1718 c 0,26.0762 29.6492,47.2144 66.2246,47.2144 36.5752,0 66.2246,-21.1382 66.2246,-47.2144 0,-26.0761 -29.6494,-47.2146 -66.2246,-47.2146 -36.5754,0 -66.2246,21.1385 -66.2246,47.2146 z"
                 style="fill:#bb152c;fill-opacity:1;fill-rule:nonzero;stroke:none"
                 id="path2802" />
              <path
                 inkscape:connector-curvature="0"
                 d="m 2811.8986,2278.1713 c 0,25.4244 28.908,46.0342 64.5686,46.0342 35.6609,0 64.5689,-20.6098 64.5689,-46.0342 0,-25.424 -28.908,-46.0339 -64.5689,-46.0339 -35.6606,0 -64.5686,20.6099 -64.5686,46.0339 z"
                 style="fill:#bc162d;fill-opacity:1;fill-rule:nonzero;stroke:none"
                 id="path2804" />
              <path
                 inkscape:connector-curvature="0"
                 d="m 2813.5415,2278.1711 c 0,24.7722 28.1667,44.8538 62.9128,44.8538 34.7461,0 62.9128,-20.0816 62.9128,-44.8538 0,-24.7725 -28.1667,-44.8538 -62.9128,-44.8538 -34.7461,0 -62.9128,20.0813 -62.9128,44.8538 z"
                 style="fill:#bd162e;fill-opacity:1;fill-rule:nonzero;stroke:none"
                 id="path2806" />
              <path
                 inkscape:connector-curvature="0"
                 d="m 2815.2285,2278.1706 c 0,24.1206 27.4255,43.6736 61.2578,43.6736 33.8323,0 61.2578,-19.553 61.2578,-43.6736 0,-24.1204 -27.4255,-43.6733 -61.2578,-43.6733 -33.8323,0 -61.2578,19.5529 -61.2578,43.6733 z"
                 style="fill:#bf172e;fill-opacity:1;fill-rule:nonzero;stroke:none"
                 id="path2808" />
              <path
                 inkscape:connector-curvature="0"
                 d="m 2816.8713,2278.1704 c 0,23.4685 26.6843,42.4929 59.602,42.4929 32.9175,0 59.6018,-19.0244 59.6018,-42.4929 0,-23.4688 -26.6843,-42.4932 -59.6018,-42.4932 -32.9177,0 -59.602,19.0244 -59.602,42.4932 z"
                 style="fill:#c0182f;fill-opacity:1;fill-rule:nonzero;stroke:none"
                 id="path2810" />
              <path
                 inkscape:connector-curvature="0"
                 d="m 2818.5141,2278.1699 c 0,22.8166 25.9429,41.3127 57.9461,41.3127 32.0031,0 57.946,-18.4961 57.946,-41.3127 0,-22.8167 -25.9429,-41.3128 -57.946,-41.3128 -32.0032,0 -57.9461,18.4961 -57.9461,41.3128 z"
                 style="fill:#c11830;fill-opacity:1;fill-rule:nonzero;stroke:none"
                 id="path2812" />
              <path
                 inkscape:connector-curvature="0"
                 d="m 2820.2011,2278.1696 c 0,22.1648 25.2019,40.1324 56.291,40.1324 31.0891,0 56.2913,-17.9676 56.2913,-40.1324 0,-22.1648 -25.2022,-40.1323 -56.2913,-40.1323 -31.0891,0 -56.291,17.9675 -56.291,40.1323 z"
                 style="fill:#c31930;fill-opacity:1;fill-rule:nonzero;stroke:none"
                 id="path2814" />
              <path
                 inkscape:connector-curvature="0"
                 d="m 2821.8439,2278.1691 c 0,21.513 24.4607,38.9522 54.6353,38.9522 30.1746,0 54.6353,-17.4392 54.6353,-38.9522 0,-21.5129 -24.4607,-38.9519 -54.6353,-38.9519 -30.1746,0 -54.6353,17.439 -54.6353,38.9519 z"
                 style="fill:#c41931;fill-opacity:1;fill-rule:nonzero;stroke:none"
                 id="path2816" />
              <path
                 inkscape:connector-curvature="0"
                 d="m 2823.4868,2278.1689 c 0,20.8608 23.7192,37.7717 52.9792,37.7717 29.26,0 52.9793,-16.9109 52.9793,-37.7717 0,-20.8611 -23.7193,-37.7717 -52.9793,-37.7717 -29.26,0 -52.9792,16.9106 -52.9792,37.7717 z"
                 style="fill:#c51a31;fill-opacity:1;fill-rule:nonzero;stroke:none"
                 id="path2818" />
              <path
                 inkscape:connector-curvature="0"
                 d="m 2825.1735,2278.1684 c 0,20.2092 22.9785,36.5916 51.3245,36.5916 28.3462,0 51.3245,-16.3824 51.3245,-36.5916 0,-20.209 -22.9783,-36.5913 -51.3245,-36.5913 -28.346,0 -51.3245,16.3823 -51.3245,36.5913 z"
                 style="fill:#c71a32;fill-opacity:1;fill-rule:nonzero;stroke:none"
                 id="path2820" />
              <path
                 inkscape:connector-curvature="0"
                 d="m 2826.8166,2278.1682 c 0,19.5571 22.2371,35.4109 49.6685,35.4109 27.4314,0 49.6684,-15.8538 49.6684,-35.4109 0,-19.5572 -22.237,-35.4112 -49.6684,-35.4112 -27.4314,0 -49.6685,15.854 -49.6685,35.4112 z"
                 style="fill:#c81b33;fill-opacity:1;fill-rule:nonzero;stroke:none"
                 id="path2822" />
              <path
                 inkscape:connector-curvature="0"
                 d="m 2828.4594,2278.1677 c 0,18.9055 21.4956,34.2307 48.0127,34.2307 26.5169,0 48.0125,-15.3252 48.0125,-34.2307 0,-18.9053 -21.4956,-34.2305 -48.0125,-34.2305 -26.5171,0 -48.0127,15.3252 -48.0127,34.2305 z"
                 style="fill:#c91c33;fill-opacity:1;fill-rule:nonzero;stroke:none"
                 id="path2824" />
              <path
                 inkscape:connector-curvature="0"
                 d="m 2830.1025,2278.1674 c 0,18.2534 20.7541,33.0503 46.3564,33.0503 25.6023,0 46.3567,-14.7969 46.3567,-33.0503 0,-18.2534 -20.7544,-33.0503 -46.3567,-33.0503 -25.6023,0 -46.3564,14.7969 -46.3564,33.0503 z"
                 style="fill:#cb1c34;fill-opacity:1;fill-rule:nonzero;stroke:none"
                 id="path2826" />
              <path
                 inkscape:connector-curvature="0"
                 d="m 2831.7893,2278.1669 c 0,17.6016 20.0131,31.8702 44.7016,31.8702 24.6885,0 44.7019,-14.2686 44.7019,-31.8702 0,-17.6013 -20.0134,-31.8698 -44.7019,-31.8698 -24.6885,0 -44.7016,14.2685 -44.7016,31.8698 z"
                 style="fill:#cc1d35;fill-opacity:1;fill-rule:nonzero;stroke:none"
                 id="path2828" />
              <path
                 inkscape:connector-curvature="0"
                 d="m 2833.4321,2278.1667 c 0,16.9497 19.272,30.6897 43.0459,30.6897 23.7737,0 43.0456,-13.74 43.0456,-30.6897 0,-16.9497 -19.2719,-30.6897 -43.0456,-30.6897 -23.7739,0 -43.0459,13.74 -43.0459,30.6897 z"
                 style="fill:#cd1d35;fill-opacity:1;fill-rule:nonzero;stroke:none"
                 id="path2830" />
              <path
                 inkscape:connector-curvature="0"
                 d="m 2835.0751,2278.1662 c 0,16.2979 18.5306,29.5093 41.3897,29.5093 22.8594,0 41.3899,-13.2114 41.3899,-29.5093 0,-16.2976 -18.5305,-29.5093 -41.3899,-29.5093 -22.8591,0 -41.3897,13.2117 -41.3897,29.5093 z"
                 style="fill:#cf1e36;fill-opacity:1;fill-rule:nonzero;stroke:none"
                 id="path2832" />
              <path
                 inkscape:connector-curvature="0"
                 d="m 2836.7619,2278.166 c 0,15.6457 17.7896,28.3288 39.7349,28.3288 21.9453,0 39.7351,-12.6831 39.7351,-28.3288 0,-15.6458 -17.7898,-28.3289 -39.7351,-28.3289 -21.9453,0 -39.7349,12.6831 -39.7349,28.3289 z"
                 style="fill:#d01f37;fill-opacity:1;fill-rule:nonzero;stroke:none"
                 id="path2834" />
              <path
                 inkscape:connector-curvature="0"
                 d="m 2838.4047,2278.1655 c 0,14.9941 17.0484,27.1487 38.0791,27.1487 21.0308,0 38.0791,-12.1546 38.0791,-27.1487 0,-14.9939 -17.0483,-27.1485 -38.0791,-27.1485 -21.0307,0 -38.0791,12.1546 -38.0791,27.1485 z"
                 style="fill:#d11f37;fill-opacity:1;fill-rule:nonzero;stroke:none"
                 id="path2836" />
              <path
                 inkscape:connector-curvature="0"
                 d="m 2840.0478,2278.1652 c 0,14.3421 16.3069,25.9683 36.4231,25.9683 20.116,0 36.4231,-11.6262 36.4231,-25.9683 0,-14.342 -16.3071,-25.9682 -36.4231,-25.9682 -20.1162,0 -36.4231,11.6262 -36.4231,25.9682 z"
                 style="fill:#d22038;fill-opacity:1;fill-rule:nonzero;stroke:none"
                 id="path2838" />
              <path
                 inkscape:connector-curvature="0"
                 d="m 2841.6906,2278.165 c 0,13.6899 15.5655,24.7878 34.7671,24.7878 19.2017,0 34.7671,-11.0979 34.7671,-24.7878 0,-13.6902 -15.5654,-24.7881 -34.7671,-24.7881 -19.2016,0 -34.7671,11.0979 -34.7671,24.7881 z"
                 style="fill:#d42039;fill-opacity:1;fill-rule:nonzero;stroke:none"
                 id="path2840" />
              <path
                 inkscape:connector-curvature="0"
                 d="m 2843.3774,2278.1645 c 0,13.0383 14.8247,23.6077 33.1123,23.6077 18.2876,0 33.1123,-10.5694 33.1123,-23.6077 0,-13.0383 -14.8247,-23.6074 -33.1123,-23.6074 -18.2876,0 -33.1123,10.5691 -33.1123,23.6074 z"
                 style="fill:#d52139;fill-opacity:1;fill-rule:nonzero;stroke:none"
                 id="path2842" />
              <path
                 inkscape:connector-curvature="0"
                 d="m 2845.0205,2278.164 c 0,12.3865 14.0832,22.4273 31.4563,22.4273 17.373,0 31.4563,-10.0408 31.4563,-22.4273 0,-12.3862 -14.0833,-22.427 -31.4563,-22.427 -17.3731,0 -31.4563,10.0408 -31.4563,22.427 z"
                 style="fill:#d6223a;fill-opacity:1;fill-rule:nonzero;stroke:none"
                 id="path2844" />
              <path
                 inkscape:connector-curvature="0"
                 d="m 2846.6633,2278.1638 c 0,11.7343 13.3418,21.2468 29.8003,21.2468 16.4585,0 29.8005,-9.5125 29.8005,-21.2468 0,-11.7344 -13.342,-21.2469 -29.8005,-21.2469 -16.4585,0 -29.8003,9.5125 -29.8003,21.2469 z"
                 style="fill:#d8223b;fill-opacity:1;fill-rule:nonzero;stroke:none"
                 id="path2846" />
              <path
                 inkscape:connector-curvature="0"
                 d="m 2848.35,2278.1635 c 0,11.0825 12.6011,20.0664 28.1456,20.0664 15.5446,0 28.1457,-8.9839 28.1457,-20.0664 0,-11.0827 -12.6011,-20.0666 -28.1457,-20.0666 -15.5445,0 -28.1456,8.9839 -28.1456,20.0666 z"
                 style="fill:#d9233b;fill-opacity:1;fill-rule:nonzero;stroke:none"
                 id="path2848" />
              <path
                 inkscape:connector-curvature="0"
                 d="m 2849.9929,2278.163 c 0,10.4307 11.8596,18.8863 26.4897,18.8863 14.6299,0 26.4895,-8.4556 26.4895,-18.8863 0,-10.4306 -11.8596,-18.8862 -26.4895,-18.8862 -14.6301,0 -26.4897,8.4556 -26.4897,18.8862 z"
                 style="fill:#da233c;fill-opacity:1;fill-rule:nonzero;stroke:none"
                 id="path2850" />
              <path
                 inkscape:connector-curvature="0"
                 d="m 2851.6359,2278.1628 c 0,9.7786 11.1182,17.7058 24.8338,17.7058 13.7153,0 24.8335,-7.9272 24.8335,-17.7058 0,-9.7788 -11.1182,-17.7058 -24.8335,-17.7058 -13.7156,0 -24.8338,7.927 -24.8338,17.7058 z"
                 style="fill:#dc243d;fill-opacity:1;fill-rule:nonzero;stroke:none"
                 id="path2852" />
              <path
                 inkscape:connector-curvature="0"
                 d="m 2853.2788,2278.1623 c 0,9.127 10.3769,16.5256 23.1777,16.5256 12.8008,0 23.1777,-7.3986 23.1777,-16.5256 0,-9.1269 -10.3769,-16.5254 -23.1777,-16.5254 -12.8008,0 -23.1777,7.3985 -23.1777,16.5254 z"
                 style="fill:#dd243d;fill-opacity:1;fill-rule:nonzero;stroke:none"
                 id="path2854" />
              <path
                 inkscape:connector-curvature="0"
                 d="m 2854.9655,2278.1621 c 0,8.4748 9.636,15.3449 21.523,15.3449 11.8869,0 21.5229,-6.8701 21.5229,-15.3449 0,-8.4751 -9.636,-15.3453 -21.5229,-15.3453 -11.887,0 -21.523,6.8702 -21.523,15.3453 z"
                 style="fill:#de253e;fill-opacity:1;fill-rule:nonzero;stroke:none"
                 id="path2856" />
              <path
                 inkscape:connector-curvature="0"
                 d="m 2856.6086,2278.1616 c 0,7.8232 8.8945,14.1648 19.8669,14.1648 10.9722,0 19.867,-6.3416 19.867,-14.1648 0,-7.823 -8.8948,-14.1648 -19.867,-14.1648 -10.9724,0 -19.8669,6.3418 -19.8669,14.1648 z"
                 style="fill:#e0263f;fill-opacity:1;fill-rule:nonzero;stroke:none"
                 id="path2858" />
              <path
                 inkscape:connector-curvature="0"
                 d="m 2858.2514,2278.1613 c 0,7.1712 8.1533,12.9844 18.211,12.9844 10.0578,0 18.2109,-5.8132 18.2109,-12.9844 0,-7.1714 -8.1531,-12.9846 -18.2109,-12.9846 -10.0577,0 -18.211,5.8132 -18.211,12.9846 z"
                 style="fill:#e1263f;fill-opacity:1;fill-rule:nonzero;stroke:none"
                 id="path2860" />
              <path
                 inkscape:connector-curvature="0"
                 d="m 2859.9382,2278.1608 c 0,6.5193 7.4123,11.8042 16.5561,11.8042 9.1438,0 16.5562,-5.2849 16.5562,-11.8042 0,-6.5192 -7.4124,-11.8042 -16.5562,-11.8042 -9.1438,0 -16.5561,5.285 -16.5561,11.8042 z"
                 style="fill:#e22740;fill-opacity:1;fill-rule:nonzero;stroke:none"
                 id="path2862" />
              <path
                 inkscape:connector-curvature="0"
                 d="m 2861.5812,2278.1606 c 0,5.8674 6.6709,10.6238 14.9002,10.6238 8.2292,0 14.9001,-4.7564 14.9001,-10.6238 0,-5.8674 -6.6709,-10.6238 -14.9001,-10.6238 -8.2293,0 -14.9002,4.7564 -14.9002,10.6238 z"
                 style="fill:#e42741;fill-opacity:1;fill-rule:nonzero;stroke:none"
                 id="path2864" />
              <path
                 inkscape:connector-curvature="0"
                 d="m 2863.2241,2278.1601 c 0,5.2156 5.9297,9.4434 13.2441,9.4434 7.3147,0 13.2444,-4.2278 13.2444,-9.4434 0,-5.2156 -5.9297,-9.4434 -13.2444,-9.4434 -7.3144,0 -13.2441,4.2278 -13.2441,9.4434 z"
                 style="fill:#e52841;fill-opacity:1;fill-rule:nonzero;stroke:none"
                 id="path2866" />
              <path
                 inkscape:connector-curvature="0"
                 d="m 2864.8671,2278.1599 c 0,4.5634 5.188,8.2629 11.5882,8.2629 6.4001,0 11.5884,-3.6995 11.5884,-8.2629 0,-4.5638 -5.1883,-8.2632 -11.5884,-8.2632 -6.4002,0 -11.5882,3.6994 -11.5882,8.2632 z"
                 style="fill:#e62942;fill-opacity:1;fill-rule:nonzero;stroke:none"
                 id="path2868" />
              <path
                 inkscape:connector-curvature="0"
                 d="m 2866.5539,2278.1594 c 0,3.9118 4.4473,7.0827 9.9334,7.0827 5.486,0 9.9335,-3.1709 9.9335,-7.0827 0,-3.9116 -4.4475,-7.0828 -9.9335,-7.0828 -5.4861,0 -9.9334,3.1712 -9.9334,7.0828 z"
                 style="fill:#e82943;fill-opacity:1;fill-rule:nonzero;stroke:none"
                 id="path2870" />
              <path
                 inkscape:connector-curvature="0"
                 d="m 2868.1967,2278.1591 c 0,3.2598 3.7058,5.9024 8.2776,5.9024 4.5715,0 8.2774,-2.6426 8.2774,-5.9024 0,-3.26 -3.7059,-5.9023 -8.2774,-5.9023 -4.5718,0 -8.2776,2.6423 -8.2776,5.9023 z"
                 style="fill:#e92a43;fill-opacity:1;fill-rule:nonzero;stroke:none"
                 id="path2872" />
              <path
                 inkscape:connector-curvature="0"
                 d="m 2869.8395,2278.1586 c 0,2.608 2.9646,4.7222 6.6216,4.7222 3.657,0 6.6216,-2.1142 6.6216,-4.7222 0,-2.6079 -2.9646,-4.7219 -6.6216,-4.7219 -3.657,0 -6.6216,2.114 -6.6216,4.7219 z"
                 style="fill:#ea2a44;fill-opacity:1;fill-rule:nonzero;stroke:none"
                 id="path2874" />
              <path
                 inkscape:connector-curvature="0"
                 d="m 2871.5266,2278.1584 c 0,1.9561 2.2236,3.5417 4.9665,3.5417 2.7432,0 4.9668,-1.5856 4.9668,-3.5417 0,-1.9561 -2.2236,-3.5418 -4.9668,-3.5418 -2.7429,0 -4.9665,1.5857 -4.9665,3.5418 z"
                 style="fill:#eb2b45;fill-opacity:1;fill-rule:nonzero;stroke:none"
                 id="path2876" />
              <path
                 inkscape:connector-curvature="0"
                 d="m 2873.1694,2278.1579 c 0,1.3042 1.4822,2.3613 3.3108,2.3613 1.8283,0 3.3108,-1.0571 3.3108,-2.3613 0,-1.3042 -1.4825,-2.3613 -3.3108,-2.3613 -1.8286,0 -3.3108,1.0571 -3.3108,2.3613 z"
                 style="fill:#ed2b45;fill-opacity:1;fill-rule:nonzero;stroke:none"
                 id="path2878" />
              <path
                 inkscape:connector-curvature="0"
                 d="m 2874.8122,2278.1577 c 0,0.6521 0.741,1.1809 1.6548,1.1809 0.9141,0 1.655,-0.5288 1.655,-1.1809 0,-0.6524 -0.7409,-1.1812 -1.655,-1.1812 -0.9138,0 -1.6548,0.5288 -1.6548,1.1812 z"
                 style="fill:#ee2c46;fill-opacity:1;fill-rule:nonzero;stroke:none"
                 id="path2880" />
            </g>
          </g>
        </g>
      </g>
      <path
         inkscape:connector-curvature="0"
         d="m 481.39745,289.55048 c 1.37725,-0.38213 2.4955,-0.66476 3.93462,-0.71351 0.19926,-1.42637 0.60151,-2.51312 1.12551,-3.8425 0.52912,-1.34337 0.91862,-2.91875 -0.1855,-4.1885 -1.58488,-1.82312 -3.4445,-1.62962 -4.9915,-0.28475 -0.93288,0.81088 -1.13613,1.73925 -0.86025,2.85188 -1.07788,-0.39063 -2.02638,-0.282 -2.93038,0.56125 -1.499,1.39762 -1.886,3.22725 -0.23863,4.99387 1.14751,1.23075 2.75488,1.00825 4.14613,0.62226 z"
         style="fill:#a80018;fill-opacity:1;fill-rule:nonzero;stroke:none"
         id="path2968" />
      <path
         inkscape:connector-curvature="0"
         d="m 471.6782,261.66685 c -0.39975,-0.5005 -0.75987,-1.07512 -1.04037,-1.73612 -2.41238,-5.68426 0.11662,-9.74038 4.94,-11.78738 2.90887,-1.23475 5.28225,-0.66688 7.53012,1.21362 0.30975,-2.91349 1.6095,-4.96587 4.56,-6.09837 4.89162,-1.878 9.52875,-0.71713 11.74163,5.048 1.542,4.01638 -0.77063,7.46025 -3.21625,10.22425 -2.421,2.73587 -4.33775,4.99425 -6.063,8.2465 -2.47525,-0.80687 -4.667,-1.19237 -7.02663,-1.45025 l -11.4255,-3.66025 z"
         style="fill:#ff7a8e;fill-opacity:1;fill-rule:evenodd;stroke:none"
         id="path2970" />
      <path
         inkscape:connector-curvature="0"
         d="m 483.11708,265.3271 c 0.58662,2.47525 -0.617,4.9045 -1.93775,6.97725 -1.59,2.49537 -2.83725,4.545 -3.80525,7.36537 -2.945,-0.469 -5.32963,-0.33625 -8.27975,-0.10375 -2.98038,0.23475 -6.33551,0.0519 -8.18213,-2.90337 -2.65012,-4.24163 -1.141,-7.807 2.45825,-10.05613 2.17075,-1.35625 4.1415,-1.20275 6.178,0.017 -0.10625,-2.07662 0.47913,-3.72062 2.11637,-4.95662 l 11.45226,3.66025 z"
         style="fill:#ef2d47;fill-opacity:1;fill-rule:evenodd;stroke:none"
         id="path2972" />
      <path
         inkscape:connector-curvature="0"
         d="m 483.1037,265.3271 c -0.127,-0.5355 -0.33687,-1.07325 -0.647,-1.61012 -2.50087,-4.33138 -6.35737,-4.67251 -10.03287,-2.55025 -0.27476,0.15862 -0.52738,0.32524 -0.75901,0.50012 1.99701,2.49875 5.32376,3.14362 8.38926,3.38438 1.06662,0.084 2.07249,0.16912 3.04962,0.27587 z"
         style="fill:#de1638;fill-opacity:1;fill-rule:nonzero;stroke:none"
         id="path2974" />
      <path
         inkscape:connector-curvature="0"
         d="m 575.19595,180.03685 53.02775,0 0,30.405 -53.02775,0 0,-30.405 z"
         style="fill:#ffffff;fill-opacity:1;fill-rule:nonzero;stroke:none"
         id="path3372" />
      <path
         inkscape:connector-curvature="0"
         d="m 587.89345,202.71385 c 0.54112,-0.15013 0.9805,-0.26112 1.546,-0.28038 0.0781,-0.56037 0.23625,-0.98725 0.44188,-1.50975 0.20812,-0.52787 0.361,-1.14687 -0.0726,-1.64575 -0.62287,-0.71625 -1.35337,-0.64025 -1.96138,-0.112 -0.36649,0.3185 -0.44649,0.6835 -0.33812,1.12063 -0.42325,-0.15363 -0.79612,-0.11087 -1.15137,0.22062 -0.589,0.549 -0.741,1.268 -0.0937,1.96188 0.45112,0.48375 1.0825,0.3965 1.62937,0.24475 z"
         style="fill:#a80018;fill-opacity:1;fill-rule:nonzero;stroke:none"
         id="path3400" />
      <path
         inkscape:connector-curvature="0"
         d="m 584.07445,191.75747 c -0.15713,-0.1965 -0.29875,-0.42237 -0.40887,-0.682 -0.94788,-2.23337 0.0457,-3.82725 1.94087,-4.63174 1.14325,-0.48488 2.07575,-0.26176 2.959,0.47699 0.12175,-1.14462 0.63225,-1.95125 1.79162,-2.39625 1.922,-0.73787 3.74401,-0.28162 4.61376,1.98363 0.60575,1.57813 -0.30275,2.93125 -1.26376,4.01737 -0.95162,1.07488 -1.70449,1.96225 -2.38249,3.24013 -0.97263,-0.31688 -1.83388,-0.4685 -2.761,-0.56987 l -4.48913,-1.43826 z"
         style="fill:#ff7a8e;fill-opacity:1;fill-rule:evenodd;stroke:none"
         id="path3402" />
      <path
         inkscape:connector-curvature="0"
         d="m 588.56882,193.19573 c 0.23063,0.97262 -0.24237,1.92725 -0.76112,2.74174 -0.625,0.98051 -1.11512,1.78588 -1.49537,2.894 -1.15688,-0.18437 -2.09413,-0.13212 -3.25313,-0.0409 -1.17137,0.0924 -2.48937,0.0204 -3.21513,-1.14075 -1.04124,-1.66663 -0.44824,-3.06763 0.96588,-3.95112 0.853,-0.53313 1.62725,-0.47276 2.42775,0.006 -0.0419,-0.81575 0.188,-1.46175 0.83125,-1.94763 l 4.49987,1.43826 z"
         style="fill:#ef2d47;fill-opacity:1;fill-rule:evenodd;stroke:none"
         id="path3404" />
      <path
         inkscape:connector-curvature="0"
         d="m 588.56358,193.19573 c -0.0498,-0.21026 -0.13238,-0.42138 -0.25388,-0.63263 -0.983,-1.70163 -2.49812,-1.83588 -3.94262,-1.00188 -0.10763,0.0623 -0.20688,0.12763 -0.29813,0.19625 0.78488,0.98213 2.092,1.23538 3.2965,1.33001 0.419,0.0329 0.81425,0.0665 1.19813,0.10825 z"
         style="fill:#de1638;fill-opacity:1;fill-rule:nonzero;stroke:none"
         id="path3406" />
      <path
         inkscape:connector-curvature="0"
         d="m 596.37208,194.64298 -0.008,1.56737 2.03075,0 c 0.35338,0 0.63962,0.2865 0.63962,0.63963 0,0.35337 -0.28624,0.63962 -0.63962,0.63962 l -2.03075,0 3.8e-4,7.99562 c 0,0.3925 -0.31826,0.71076 -0.71076,0.71076 -0.39249,0 -0.71049,-0.31826 -0.71049,-0.71076 l 0,-7.99562 -1.23138,0 c -0.35338,0 -0.63962,-0.28625 -0.63962,-0.63962 0,-0.35313 0.28624,-0.63963 0.63962,-0.63963 l 1.21375,0 0,-1.4005 c 0,-1.723 1.08337,-2.59338 2.71788,-2.59338 l 0.75137,0 c 0.35338,0 0.63962,0.28626 0.63962,0.63963 0,0.35312 -0.28624,0.63937 -0.63962,0.63937 l -0.75137,0 c -0.96526,0 -1.27175,0.34663 -1.27175,1.14751 z"
         style="fill:#8a0014;fill-opacity:1;fill-rule:nonzero;stroke:none"
         id="path3408" />
      <path
         inkscape:connector-curvature="0"
         d="m 611.39833,194.64298 -0.007,1.56737 2.03037,0 c 0.35337,0 0.63963,0.2865 0.63963,0.63963 0,0.35337 -0.28626,0.63962 -0.63963,0.63962 l -2.03037,0 0,7.99562 c 0,0.3925 -0.31838,0.71076 -0.71075,0.71076 -0.3925,0 -0.7105,-0.31826 -0.7105,-0.71076 l 0,-7.99562 -1.23138,0 c -0.35337,0 -0.63962,-0.28625 -0.63962,-0.63962 0,-0.35313 0.28625,-0.63963 0.63962,-0.63963 l 1.21375,0 0,-1.4005 c 0,-1.723 1.08337,-2.59338 2.71788,-2.59338 l 0.75137,0 c 0.35337,0 0.63963,0.28626 0.63963,0.63963 0,0.35312 -0.28626,0.63937 -0.63963,0.63937 l -0.75137,0 c -0.96526,0 -1.27175,0.34663 -1.27175,1.14751 z"
         style="fill:#8a0014;fill-opacity:1;fill-rule:nonzero;stroke:none"
         id="path3410" />
      <path
         inkscape:connector-curvature="0"
         d="m 615.53382,200.3756 5.81726,0 c -0.2405,-1.95363 -1.34401,-2.80025 -2.71338,-2.80025 -1.70837,0 -2.82062,1.06287 -3.10388,2.80025 z m 3.12901,4.47337 c 1.54174,0 2.20362,-0.81975 2.45412,-1.143 0,0 0.30737,-0.40212 0.478,-0.4525 0.15588,-0.0451 0.329,-0.032 0.48337,0.05 0.28076,0.14926 0.40613,0.47575 0.31251,0.76813 -0.0406,0.156 -0.12175,0.35312 -0.25663,0.567 -0.46175,0.69862 -1.48775,1.54787 -3.4965,1.54787 -2.74525,0 -4.504,-1.76637 -4.504,-4.80837 0,-2.63662 1.38613,-5.13175 4.504,-5.13175 2.36362,0 3.88588,1.66525 4.07175,4.35725 0,1.01225 -0.42112,1.05137 -1.55825,1.05137 l -5.679,0 c 0.12963,2.87875 2.12375,3.194 3.19063,3.194 z"
         style="fill:#8a0014;fill-opacity:1;fill-rule:nonzero;stroke:none"
         id="path3412" />
      <path
         inkscape:connector-curvature="0"
         d="m 599.8282,199.0921 c 0,-1.5595 1.38613,-2.789 3.61363,-2.789 l 0.0534,2.5e-4 c 1.91625,-6.2e-4 2.88975,0.83775 3.32825,1.52712 0.12763,0.21126 0.20488,0.40588 0.24325,0.55976 0.0891,0.28837 -0.0303,0.61062 -0.29625,0.75799 -0.14687,0.0811 -0.311,0.094 -0.45875,0.0495 -0.162,-0.0498 -0.45375,-0.44687 -0.45375,-0.44687 -0.17187,-0.23038 -0.54813,-0.71737 -1.29612,-0.9695 -0.32375,-0.1025 -0.68813,-0.15775 -1.12,-0.15775 -1.38576,0 -2.21013,0.56663 -2.21013,1.43337 0,0.621 0.43863,1.1225 1.193,1.2805 l 2.38525,0.50851 c 1.29825,0.28074 2.43838,0.95175 2.43838,2.49112 0,1.63262 -1.42063,2.8485 -3.73625,2.8485 l -0.10101,8.7e-4 c -2.009,0 -3.03499,-0.84925 -3.49674,-1.54787 -0.13463,-0.21388 -0.21576,-0.411 -0.25638,-0.567 -0.094,-0.29238 0.0317,-0.61887 0.31225,-0.76813 0.15462,-0.082 0.32738,-0.0951 0.48338,-0.05 0.17062,0.0504 0.47824,0.4525 0.47824,0.4525 0.18213,0.23538 0.58251,0.73338 1.38088,0.987 0.35213,0.11201 0.75313,0.17 1.19938,0.17 1.5435,0 2.31562,-0.61549 2.31562,-1.47337 0,-0.5875 -0.43887,-1.08763 -1.15813,-1.2455 l -2.45574,-0.50838 c -1.29788,-0.26337 -2.38563,-1.04249 -2.38563,-2.54362 z"
         style="fill:#8a0014;fill-opacity:1;fill-rule:nonzero;stroke:none"
         id="path3414" />
    </g>
    <text
       xml:space="preserve"
       style="font-size:40px;font-style:normal;font-variant:normal;font-weight:normal;font-stretch:normal;line-height:125%;letter-spacing:0px;word-spacing:0px;fill:#ffffff;fill-opacity:1;stroke:none;font-family:Nimbus Sans L;-inkscape-font-specification:Nimbus Sans L"
       x="295.9787"
       y="517.6604"
       id="text3096"
       sodipodi:linespacing="125%"><tspan
         sodipodi:role="line"
         x="295.9787"
         y="517.6604"
         id="tspan3098"><tspan
           x="295.9787"
           y="517.6604"
           style="font-size:16px;font-weight:bold;letter-spacing:-0.30000001px;word-spacing:-0.90999997px;fill:#ffffff;-inkscape-font-specification:Nimbus Sans L Bold"
           id="tspan3100">Valentijnsdag!</tspan></tspan></text>
    <text
       xml:space="preserve"
       style="font-size:40px;font-style:normal;font-variant:normal;font-weight:normal;font-stretch:normal;line-height:125%;letter-spacing:0px;word-spacing:0px;fill:#ff7a8e;fill-opacity:1;stroke:none;font-family:Nimbus Sans L;-inkscape-font-specification:Nimbus Sans L"
       x="305.88345"
       y="545.58038"
       id="text7937"
       sodipodi:linespacing="125%"><tspan
         sodipodi:role="line"
         id="tspan7939"
         x="305.88345"
         y="545.58038"
         style="font-size:24px;font-weight:bold;letter-spacing:-0.58999997px;fill:#ff7a8e;fill-opacity:1;-inkscape-font-specification:Nimbus Sans L Bold">Toon</tspan></text>
    <text
       xml:space="preserve"
       style="font-size:40px;font-style:normal;font-variant:normal;font-weight:normal;font-stretch:normal;line-height:125%;letter-spacing:0px;word-spacing:0px;fill:#ffffff;fill-opacity:1;stroke:none;font-family:Nimbus Sans L;-inkscape-font-specification:Nimbus Sans L"
       x="372.88345"
       y="545.08038"
       id="text7941"
       sodipodi:linespacing="125%"><tspan
         sodipodi:role="line"
         id="tspan7943"
         x="372.88345"
         y="545.08038"
         style="font-size:14px;font-weight:bold;letter-spacing:-0.75px;fill:#ffffff;-inkscape-font-specification:Nimbus Sans L Bold">uw liefde voor</tspan></text>
    <text
       xml:space="preserve"
       style="font-size:40px;font-style:normal;font-variant:normal;font-weight:normal;font-stretch:normal;line-height:125%;letter-spacing:0px;word-spacing:0px;fill:#ff7a8e;fill-opacity:1;stroke:none;font-family:Nimbus Sans L;-inkscape-font-specification:Nimbus Sans L"
       x="370.88345"
       y="564.08038"
       id="text7945"
       sodipodi:linespacing="125%"><tspan
         sodipodi:role="line"
         id="tspan7947"
         x="370.88345"
         y="564.08038"
         style="font-size:14px;font-weight:bold;letter-spacing:-0.69999999px;fill:#ff7a8e;fill-opacity:1;-inkscape-font-specification:Nimbus Sans L Bold">Vrije Software!</tspan></text>
    <text
       xml:space="preserve"
       style="font-size:40px;font-style:normal;font-variant:normal;font-weight:normal;font-stretch:normal;line-height:125%;letter-spacing:0px;word-spacing:0px;fill:#ffffff;fill-opacity:1;stroke:none;font-family:Nimbus Sans L;-inkscape-font-specification:Nimbus Sans L"
       x="297.38345"
       y="594.58038"
       id="text7949"
       sodipodi:linespacing="125%"><tspan
         sodipodi:role="line"
         id="tspan7951"
         x="297.38345"
         y="594.58038"
         style="font-size:18px;font-weight:bold;fill:#ffffff;-inkscape-font-specification:Nimbus Sans L Bold">I</tspan></text>
    <text
       xml:space="preserve"
       style="font-size:40px;font-style:normal;font-variant:normal;font-weight:normal;font-stretch:normal;line-height:125%;letter-spacing:0px;word-spacing:0px;fill:#ffffff;fill-opacity:1;stroke:none;font-family:Nimbus Sans L;-inkscape-font-specification:Nimbus Sans L"
       x="344.38345"
       y="595.08038"
       id="text7953"
       sodipodi:linespacing="125%"><tspan
         sodipodi:role="line"
         id="tspan7955"
         x="344.38345"
         y="595.08038"
         style="font-size:18px;font-weight:bold;letter-spacing:0.37999997px;fill:#ffffff;-inkscape-font-specification:Nimbus Sans L Bold">Free Software</tspan></text>
  </g>
</svg>
