<?xml version="1.0" encoding="utf-8"?>
<!-- Generator: Adobe InDesign 3.0 SVG Export Plug-in, SVG Library version: 6.0 build 78 -->
<!DOCTYPE svg PUBLIC "-//W3C//DTD SVG 1.0//EN"    "http://www.w3.org/TR/2001/REC-SVG-20010904/DTD/svg10.dtd" [
	<!ENTITY ns_svg "http://www.w3.org/2000/svg">
	<!ENTITY ns_xlink "http://www.w3.org/1999/xlink">
]>
<svg  xmlns="&ns_svg;" xmlns:xlink="&ns_xlink;" width="595.276pt" height="841.89pt" xml:space="preserve">
	<clipPath id="clp1" fill="none">
		<path shape-rendering="crispEdges" stroke="#000000" d="M0,0h595.276v841.89H0z"/>
	</clipPath>
	<g clip-path="url(#clp1)" fill="none">
		<g transform="matrix(1 0 0 1 54.4383 293.2487)">
			<path stroke="#000000" stroke-miterlimit="3.8637" d="M2.189,84.694c0.005-2.452,0.996-4.673,2.595-6.282
				c1.599-1.609,3.807-2.607,6.243-2.612c0,0,30.84,8.801,30.84,8.801s30.873-8.915,30.873-8.915
				c2.436-0.004,4.639,0.985,6.233,2.589c1.594,1.604,2.577,3.821,2.572,6.272c0,0-8.859,31.069-8.859,31.069
				s8.745,31.037,8.745,31.037c-0.004,2.451-0.996,4.672-2.595,6.282c-1.599,1.61-3.806,2.607-6.242,2.612
				c0,0-30.841-8.801-30.841-8.801s-30.873,8.915-30.873,8.915c-2.436,0.005-4.64-0.985-6.233-2.588
				c-1.593-1.604-2.577-3.821-2.572-6.273c0,0,8.859-31.069,8.859-31.069S2.189,84.694,2.189,84.694z M63.727,9.234
				c1.131-2.931,3.337-5.132,5.989-6.323c2.652-1.191,5.751-1.371,8.667-0.257c0,0,32.85,24.689,32.85,24.689
				s41.024,3.513,41.024,3.513c2.916,1.113,5.097,3.309,6.267,5.959c1.17,2.65,1.328,5.754,0.197,8.685
				c0,0-24.863,33.098-24.863,33.098s-3.791,41.142-3.791,41.142c-1.131,2.93-3.337,5.132-5.989,6.323
				c-2.652,1.191-5.75,1.371-8.667,0.258c0,0-32.85-24.69-32.85-24.69s-41.024-3.513-41.024-3.513
				c-2.916-1.113-5.098-3.309-6.267-5.959c-1.17-2.65-1.327-5.754-0.196-8.685c0,0,24.863-33.097,24.863-33.097
				S63.727,9.234,63.727,9.234z M65.827,175.084c-0.51-1.335-0.434-2.752,0.1-3.962c0.534-1.21,1.527-2.214,2.853-2.726
				c0,0,18.628-1.653,18.628-1.653s14.944-11.305,14.944-11.305c1.325-0.512,2.731-0.433,3.934,0.107
				c1.203,0.54,2.201,1.542,2.711,2.877c0,0,1.67,18.765,1.67,18.765s11.247,15.068,11.247,15.068c0.51,1.335,0.434,2.751-0.1,3.962
				s-1.527,2.215-2.852,2.727c0,0-18.628,1.653-18.628,1.653s-14.944,11.305-14.944,11.305c-1.325,0.511-2.732,0.433-3.934-0.107
				s-2.201-1.542-2.711-2.877c0,0-1.67-18.764-1.67-18.764S65.827,175.084,65.827,175.084z"/>
		</g>
		<g transform="matrix(1 0 0 1 54.4383 293.2487)">
			<path fill="#000000" d="M35.575,82.806l6.292,1.795c0,0,30.873-8.915,30.873-8.915c2.436-0.004,4.639,0.985,6.233,2.589
				c1.594,1.604,2.577,3.821,2.572,6.272c0,0-4.73,16.59-4.73,16.59s-35.278-3.021-35.278-3.021
				c-2.916-1.113-5.098-3.309-6.267-5.959c-1.17-2.65-1.327-5.754-0.196-8.685C35.073,83.474,35.575,82.806,35.575,82.806z"/>
		</g>
		<g transform="matrix(1 0 0 1 54.4383 293.2487)">
			<path stroke="#000000" stroke-miterlimit="3.8637" d="M35.575,82.806l6.292,1.795c0,0,30.873-8.915,30.873-8.915
				c2.436-0.004,4.639,0.985,6.233,2.589c1.594,1.604,2.577,3.821,2.572,6.272c0,0-4.73,16.59-4.73,16.59
				s-35.278-3.021-35.278-3.021c-2.916-1.113-5.098-3.309-6.267-5.959c-1.17-2.65-1.327-5.754-0.196-8.685
				C35.073,83.474,35.575,82.806,35.575,82.806z"/>
		</g>
	</g>
</svg>
