<?xml version="1.0" encoding="UTF-8" standalone="no"?>
<!-- Created with Inkscape (http://www.inkscape.org/) -->

<svg
   xmlns:dc="http://purl.org/dc/elements/1.1/"
   xmlns:cc="http://creativecommons.org/ns#"
   xmlns:rdf="http://www.w3.org/1999/02/22-rdf-syntax-ns#"
   xmlns:svg="http://www.w3.org/2000/svg"
   xmlns="http://www.w3.org/2000/svg"
   xmlns:sodipodi="http://sodipodi.sourceforge.net/DTD/sodipodi-0.dtd"
   xmlns:inkscape="http://www.inkscape.org/namespaces/inkscape"
   width="33.555656mm"
   height="46.63129mm"
   viewBox="0 0 118.898 165.22898"
   id="svg4034"
   version="1.1"
   inkscape:version="0.91 r13725"
   sodipodi:docname="Vertical_White.svg"
   inkscape:export-filename="C:\Users\user\Desktop\FSFE Summit Logo\Final\Vertical.png"
   inkscape:export-xdpi="899.76703"
   inkscape:export-ydpi="899.76703">
  <defs
     id="defs4036" />
  <sodipodi:namedview
     id="base"
     pagecolor="#ffffff"
     bordercolor="#666666"
     borderopacity="1.0"
     inkscape:pageopacity="0"
     inkscape:pageshadow="2"
     inkscape:zoom="1.979899"
     inkscape:cx="215.39854"
     inkscape:cy="72.697622"
     inkscape:document-units="px"
     inkscape:current-layer="layer1"
     showgrid="false"
     fit-margin-top="0"
     fit-margin-left="0"
     fit-margin-right="0"
     fit-margin-bottom="0"
     inkscape:window-width="1920"
     inkscape:window-height="1018"
     inkscape:window-x="-8"
     inkscape:window-y="-8"
     inkscape:window-maximized="1" />
  <metadata
     id="metadata4039">
    <rdf:RDF>
      <cc:Work
         rdf:about="">
        <dc:format>image/svg+xml</dc:format>
        <dc:type
           rdf:resource="http://purl.org/dc/dcmitype/StillImage" />
        <dc:title></dc:title>
      </cc:Work>
    </rdf:RDF>
  </metadata>
  <g
     inkscape:label="Layer 1"
     inkscape:groupmode="layer"
     id="layer1"
     transform="translate(-231.11943,-135.856)">
    <g
       transform="translate(341.98043,119.05599)"
       id="g3844">
      <g
         id="g3846">
        <g
           id="g3848">
          <polygon
             style="fill:#ffffff"
             points="6.037,89.184 -40.325,16.8 -52.814,36.299 -17.552,89.184 "
             id="polygon3850" />
        </g>
        <g
           id="g3852">
          <polygon
             style="fill:#ffffff"
             points="-70.168,51.852 -43.943,89.184 -20.938,89.184 -20.938,89.184 -57.998,33.602 "
             id="polygon3854" />
        </g>
        <g
           id="g3856">
          <polygon
             style="fill:#ffffff"
             points="-47.385,89.184 -75.283,49.471 -103.182,89.184 "
             id="polygon3858" />
        </g>
      </g>
    </g>
    <g
       transform="translate(341.98043,119.05599)"
       id="path17-9_2_">
      <path
         style="fill:#ffffff"
         inkscape:connector-curvature="0"
         d="m -92.522,101.259 3.015,0 c 1.417,0 2.566,-1.149 2.566,-2.566 0,-1.417 -1.149,-2.566 -2.566,-2.566 l -3.015,0 c -6.557,0 -10.904,3.491 -10.904,10.405 l 0,5.619 -4.869,0 c -1.417,0 -2.566,1.149 -2.566,2.566 0,1.417 1.149,2.566 2.566,2.566 l 4.94,0 0,32.077 c 0,1.574 1.276,2.851 2.851,2.851 1.574,0 2.851,-1.276 2.851,-2.851 l 0,-32.078 8.146,0 c 1.417,0 2.566,-1.149 2.566,-2.566 0,-1.417 -1.149,-2.566 -2.566,-2.566 l -8.146,0 0.03,-6.289 c -10e-4,-3.212 1.228,-4.602 5.101,-4.602 z"
         id="path3975" />
    </g>
    <g
       transform="translate(341.98043,119.05599)"
       id="path19-6_2_">
      <path
         style="fill:#ffffff"
         inkscape:connector-curvature="0"
         d="m -26.658,114.716 c 0,-1.417 -1.149,-2.566 -2.566,-2.566 l -8.146,0 0.03,-6.289 c 0,-3.212 1.23,-4.603 5.102,-4.603 l 3.015,0 c 1.417,0 2.566,-1.149 2.566,-2.566 0,-1.417 -1.149,-2.566 -2.566,-2.566 l -3.015,0 c -6.557,0 -10.904,3.491 -10.904,10.405 l 0,5.619 -4.869,0 c -1.417,0 -2.566,1.149 -2.566,2.566 0,1.417 1.149,2.566 2.566,2.566 l 4.94,0 0,32.077 c 0,1.574 1.276,2.851 2.851,2.851 1.574,0 2.851,-1.276 2.851,-2.851 l 0,-32.077 8.146,0 c 1.416,0 2.565,-1.149 2.565,-2.566 z"
         id="path3978" />
    </g>
    <g
       transform="translate(341.98043,119.05599)"
       id="path21-4_2_">
      <path
         style="fill:#ffffff"
         inkscape:connector-curvature="0"
         d="m 8.037,129.775 c -0.745,-10.799 -6.852,-17.48 -16.335,-17.48 -12.508,0 -18.07,10.01 -18.07,20.588 0,12.204 7.056,19.29 18.07,19.29 8.059,0 12.175,-3.407 14.028,-6.209 0.54,-0.859 0.866,-1.65 1.029,-2.275 0.377,-1.173 -0.127,-2.482 -1.253,-3.081 -0.62,-0.33 -1.314,-0.383 -1.939,-0.201 -0.685,0.202 -1.918,1.815 -1.918,1.815 -1.005,1.297 -3.661,4.585 -9.845,4.585 -4.28,0 -12.28,-1.265 -12.802,-12.813 l 22.784,0 c 4.562,-0.001 6.251,-0.158 6.251,-4.219 l 0,0 z M -8.298,117.626 c 5.494,0 9.92,3.396 10.885,11.235 l -23.338,0 c 1.138,-6.97 5.6,-11.235 12.453,-11.235 z"
         id="path3981" />
    </g>
    <g
       transform="translate(341.98043,119.05599)"
       id="path23-4_2_">
      <path
         style="fill:#ffffff"
         inkscape:connector-curvature="0"
         d="m -68.979,152.168 c 9.289,0 14.989,-4.877 14.989,-11.427 0,-6.175 -4.574,-8.868 -9.782,-9.994 l -9.57,-2.04 c -3.026,-0.633 -4.786,-2.646 -4.786,-5.137 0,-3.476 3.308,-5.75 8.868,-5.75 1.732,0 3.194,0.221 4.493,0.633 3,1.011 4.509,2.964 5.199,3.89 0,0 1.17,1.593 1.82,1.792 0.593,0.179 1.252,0.127 1.84,-0.199 1.068,-0.591 1.547,-1.884 1.189,-3.041 -0.155,-0.617 -0.464,-1.398 -0.977,-2.246 -1.758,-2.766 -5.665,-6.129 -13.352,-6.127 l -0.214,-0.001 c -8.937,0 -14.497,4.933 -14.497,11.189 0,6.022 4.363,9.148 9.571,10.204 l 9.852,2.04 c 2.885,0.633 4.645,2.639 4.645,4.996 0,3.442 -3.097,5.911 -9.289,5.911 -1.789,0 -3.398,-0.233 -4.811,-0.682 -3.203,-1.018 -4.809,-3.016 -5.541,-3.96 0,0 -1.233,-1.613 -1.918,-1.815 -0.625,-0.181 -1.319,-0.128 -1.939,0.201 -1.126,0.599 -1.63,1.908 -1.253,3.081 0.163,0.625 0.489,1.416 1.029,2.275 1.853,2.802 5.969,6.209 14.028,6.209 l 0.406,-0.002 0,0 z"
         id="path3984" />
    </g>
    <g
       transform="translate(341.98043,119.05599)"
       id="g3986">
      <path
         style="fill:#ffffff"
         inkscape:connector-curvature="0"
         d="m -95.284,176.946 c 0,-0.418 -0.116,-0.765 -0.347,-1.039 -0.231,-0.275 -0.578,-0.512 -1.04,-0.71 -0.462,-0.198 -1.051,-0.385 -1.766,-0.561 -0.715,-0.177 -1.545,-0.363 -2.491,-0.562 -1.782,-0.374 -3.031,-0.995 -3.746,-1.864 -0.715,-0.869 -1.072,-1.887 -1.072,-3.053 0,-0.66 0.132,-1.287 0.396,-1.881 0.264,-0.594 0.66,-1.122 1.188,-1.584 0.528,-0.462 1.193,-0.825 1.996,-1.089 0.803,-0.265 1.744,-0.396 2.822,-0.396 1.078,0 2.018,0.121 2.821,0.363 0.803,0.242 1.479,0.55 2.03,0.924 0.549,0.374 0.968,0.775 1.254,1.205 0.286,0.429 0.44,0.841 0.462,1.237 0.021,0.242 -0.061,0.451 -0.248,0.627 -0.187,0.176 -0.401,0.264 -0.644,0.264 l -1.089,0 c -0.132,0 -0.292,-0.027 -0.479,-0.082 -0.187,-0.055 -0.358,-0.182 -0.512,-0.38 -0.286,-0.374 -0.709,-0.688 -1.27,-0.94 -0.561,-0.253 -1.337,-0.38 -2.327,-0.38 -1.012,0 -1.832,0.188 -2.458,0.562 -0.626,0.374 -0.94,0.891 -0.94,1.551 0,0.418 0.087,0.754 0.264,1.007 0.176,0.253 0.462,0.473 0.858,0.66 0.396,0.187 0.918,0.357 1.567,0.511 0.648,0.154 1.457,0.342 2.425,0.562 1.012,0.22 1.859,0.5 2.541,0.841 0.682,0.342 1.232,0.727 1.65,1.155 0.418,0.428 0.715,0.902 0.891,1.419 0.176,0.518 0.264,1.062 0.264,1.634 0,0.66 -0.16,1.298 -0.479,1.914 -0.319,0.616 -0.775,1.155 -1.37,1.617 -0.594,0.462 -1.315,0.836 -2.162,1.122 -0.847,0.285 -1.81,0.429 -2.887,0.429 -1.078,0 -2.035,-0.132 -2.871,-0.396 -0.836,-0.264 -1.551,-0.588 -2.145,-0.973 -0.594,-0.385 -1.051,-0.804 -1.37,-1.255 -0.319,-0.45 -0.49,-0.874 -0.511,-1.271 -0.022,-0.241 0.055,-0.45 0.231,-0.627 0.176,-0.176 0.396,-0.264 0.66,-0.264 l 1.188,0 c 0.132,0 0.286,0.017 0.462,0.05 0.176,0.033 0.341,0.159 0.495,0.379 0.352,0.484 0.836,0.858 1.452,1.122 0.616,0.265 1.419,0.396 2.409,0.396 0.483,0 0.962,-0.055 1.436,-0.165 0.473,-0.11 0.891,-0.264 1.254,-0.462 0.363,-0.198 0.654,-0.435 0.875,-0.71 0.223,-0.275 0.333,-0.577 0.333,-0.907 z"
         id="path3988" />
      <path
         style="fill:#ffffff"
         inkscape:connector-curvature="0"
         d="m -88.519,165.429 c 0,-0.242 0.087,-0.451 0.264,-0.628 0.176,-0.176 0.384,-0.264 0.627,-0.264 l 1.221,0 c 0.242,0 0.451,0.088 0.627,0.264 0.176,0.177 0.264,0.386 0.264,0.628 l 0,8.712 c 0,1.694 0.379,2.959 1.139,3.795 0.759,0.836 1.864,1.254 3.316,1.254 1.386,0 2.475,-0.418 3.267,-1.254 0.792,-0.836 1.188,-2.101 1.188,-3.795 l 0,-8.712 c 0,-0.242 0.087,-0.451 0.264,-0.628 0.176,-0.176 0.385,-0.264 0.627,-0.264 l 1.221,0 c 0.242,0 0.451,0.088 0.627,0.264 0.176,0.177 0.264,0.386 0.264,0.628 l 0,15.378 c 0,0.242 -0.088,0.451 -0.264,0.627 -0.176,0.176 -0.385,0.264 -0.627,0.264 l -1.221,0 c -0.242,0 -0.451,-0.088 -0.627,-0.264 -0.176,-0.176 -0.264,-0.385 -0.264,-0.627 l 0,-1.023 c -0.418,0.55 -1.012,1.062 -1.782,1.534 -0.77,0.474 -1.826,0.71 -3.168,0.71 -1.034,0 -1.98,-0.171 -2.838,-0.512 -0.858,-0.341 -1.595,-0.825 -2.211,-1.452 -0.616,-0.627 -1.089,-1.396 -1.419,-2.31 -0.33,-0.913 -0.495,-1.952 -0.495,-3.118 l 0,-9.207 z"
         id="path3990" />
      <path
         style="fill:#ffffff"
         inkscape:connector-curvature="0"
         d="m -65.651,166.451 c 0.198,-0.264 0.429,-0.533 0.693,-0.809 0.264,-0.274 0.566,-0.517 0.908,-0.726 0.341,-0.209 0.742,-0.38 1.205,-0.512 0.462,-0.132 1,-0.198 1.617,-0.198 1.342,0 2.453,0.248 3.333,0.743 0.88,0.494 1.573,1.204 2.079,2.128 0.286,-0.396 0.588,-0.77 0.908,-1.122 0.318,-0.352 0.693,-0.66 1.122,-0.924 0.429,-0.264 0.913,-0.467 1.452,-0.61 0.539,-0.143 1.171,-0.215 1.897,-0.215 2.222,0 3.839,0.666 4.851,1.997 1.012,1.331 1.518,3.151 1.518,5.461 l 0,9.142 c 0,0.242 -0.088,0.451 -0.264,0.627 -0.176,0.176 -0.385,0.264 -0.627,0.264 l -1.221,0 c -0.243,0 -0.451,-0.088 -0.627,-0.264 -0.176,-0.176 -0.264,-0.385 -0.264,-0.627 l 0,-8.812 c 0,-1.693 -0.33,-2.942 -0.99,-3.745 -0.66,-0.803 -1.628,-1.205 -2.904,-1.205 -1.167,0 -2.107,0.386 -2.822,1.155 -0.715,0.771 -1.072,1.958 -1.072,3.564 l 0,9.042 c 0,0.242 -0.088,0.451 -0.264,0.627 -0.176,0.176 -0.385,0.264 -0.627,0.264 l -1.221,0 c -0.243,0 -0.451,-0.088 -0.627,-0.264 -0.176,-0.176 -0.264,-0.385 -0.264,-0.627 l 0,-8.812 c 0,-1.693 -0.33,-2.942 -0.99,-3.745 -0.66,-0.803 -1.628,-1.205 -2.904,-1.205 -1.167,0 -2.107,0.386 -2.822,1.155 -0.715,0.771 -1.072,1.958 -1.072,3.564 l 0,9.042 c 0,0.242 -0.088,0.451 -0.264,0.627 -0.176,0.176 -0.385,0.264 -0.627,0.264 l -1.221,0 c -0.243,0 -0.451,-0.088 -0.627,-0.264 -0.176,-0.176 -0.264,-0.385 -0.264,-0.627 l 0,-15.378 c 0,-0.242 0.087,-0.451 0.264,-0.628 0.176,-0.176 0.385,-0.264 0.627,-0.264 l 1.221,0 c 0.242,0 0.451,0.088 0.627,0.264 0.176,0.177 0.264,0.386 0.264,0.628 l 0,1.025 z"
         id="path3992" />
      <path
         style="fill:#ffffff"
         inkscape:connector-curvature="0"
         d="m -36.281,166.451 c 0.198,-0.264 0.429,-0.533 0.693,-0.809 0.264,-0.274 0.566,-0.517 0.908,-0.726 0.341,-0.209 0.742,-0.38 1.205,-0.512 0.462,-0.132 1,-0.198 1.617,-0.198 1.342,0 2.453,0.248 3.333,0.743 0.88,0.494 1.573,1.204 2.079,2.128 0.286,-0.396 0.588,-0.77 0.908,-1.122 0.318,-0.352 0.693,-0.66 1.122,-0.924 0.429,-0.264 0.913,-0.467 1.452,-0.61 0.539,-0.143 1.171,-0.215 1.897,-0.215 2.222,0 3.839,0.666 4.851,1.997 1.012,1.331 1.518,3.151 1.518,5.461 l 0,9.142 c 0,0.242 -0.088,0.451 -0.264,0.627 -0.176,0.176 -0.385,0.264 -0.627,0.264 l -1.221,0 c -0.243,0 -0.451,-0.088 -0.627,-0.264 -0.176,-0.176 -0.264,-0.385 -0.264,-0.627 l 0,-8.812 c 0,-1.693 -0.33,-2.942 -0.99,-3.745 -0.66,-0.803 -1.628,-1.205 -2.904,-1.205 -1.167,0 -2.107,0.386 -2.822,1.155 -0.715,0.771 -1.072,1.958 -1.072,3.564 l 0,9.042 c 0,0.242 -0.088,0.451 -0.264,0.627 -0.176,0.176 -0.385,0.264 -0.627,0.264 l -1.221,0 c -0.243,0 -0.451,-0.088 -0.627,-0.264 -0.176,-0.176 -0.264,-0.385 -0.264,-0.627 l 0,-8.812 c 0,-1.693 -0.33,-2.942 -0.99,-3.745 -0.66,-0.803 -1.628,-1.205 -2.904,-1.205 -1.167,0 -2.107,0.386 -2.822,1.155 -0.715,0.771 -1.072,1.958 -1.072,3.564 l 0,9.042 c 0,0.242 -0.088,0.451 -0.264,0.627 -0.176,0.176 -0.385,0.264 -0.627,0.264 l -1.221,0 c -0.243,0 -0.451,-0.088 -0.627,-0.264 -0.176,-0.176 -0.264,-0.385 -0.264,-0.627 l 0,-15.378 c 0,-0.242 0.087,-0.451 0.264,-0.628 0.176,-0.176 0.385,-0.264 0.627,-0.264 l 1.221,0 c 0.242,0 0.451,0.088 0.627,0.264 0.176,0.177 0.264,0.386 0.264,0.628 l 0,1.025 z"
         id="path3994" />
      <path
         style="fill:#ffffff"
         inkscape:connector-curvature="0"
         d="m -6.58,161.039 c 0,0.242 -0.088,0.451 -0.264,0.627 -0.176,0.177 -0.385,0.265 -0.627,0.265 l -1.881,0 c -0.243,0 -0.451,-0.088 -0.627,-0.265 -0.177,-0.176 -0.264,-0.385 -0.264,-0.627 l 0,-1.881 c 0,-0.242 0.087,-0.45 0.264,-0.627 0.176,-0.176 0.384,-0.264 0.627,-0.264 l 1.881,0 c 0.242,0 0.451,0.088 0.627,0.264 0.176,0.177 0.264,0.385 0.264,0.627 l 0,1.881 z m -0.331,19.768 c 0,0.242 -0.088,0.451 -0.264,0.627 -0.176,0.176 -0.385,0.264 -0.627,0.264 l -1.221,0 c -0.243,0 -0.451,-0.088 -0.627,-0.264 -0.176,-0.176 -0.264,-0.385 -0.264,-0.627 l 0,-15.378 c 0,-0.242 0.087,-0.451 0.264,-0.628 0.176,-0.176 0.385,-0.264 0.627,-0.264 l 1.221,0 c 0.242,0 0.451,0.088 0.627,0.264 0.176,0.177 0.264,0.386 0.264,0.628 l 0,15.378 z"
         id="path3996" />
      <path
         style="fill:#ffffff"
         inkscape:connector-curvature="0"
         d="m 2.527,175.922 c 0,0.419 0.038,0.809 0.116,1.172 0.077,0.363 0.214,0.677 0.413,0.94 0.198,0.264 0.479,0.468 0.841,0.61 0.363,0.144 0.83,0.215 1.402,0.215 l 1.749,0 c 0.242,0 0.451,0.088 0.627,0.264 0.176,0.177 0.264,0.386 0.264,0.627 l 0,1.057 c 0,0.242 -0.088,0.451 -0.264,0.627 -0.176,0.176 -0.385,0.264 -0.627,0.264 l -2.079,0 c -1.914,0 -3.3,-0.495 -4.158,-1.485 -0.858,-0.989 -1.287,-2.42 -1.287,-4.29 l 0,-8.547 -2.442,0 c -0.242,0 -0.451,-0.087 -0.627,-0.264 -0.176,-0.176 -0.264,-0.385 -0.264,-0.627 l 0,-1.056 c 0,-0.242 0.088,-0.451 0.264,-0.628 0.176,-0.176 0.385,-0.264 0.627,-0.264 l 2.442,0 0,-5.379 c 0,-0.242 0.088,-0.45 0.264,-0.627 0.176,-0.176 0.385,-0.264 0.627,-0.264 l 1.221,0 c 0.242,0 0.451,0.088 0.627,0.264 0.176,0.177 0.264,0.385 0.264,0.627 l 0,5.379 4.191,0 c 0.242,0 0.451,0.088 0.627,0.264 0.176,0.177 0.264,0.386 0.264,0.628 l 0,1.056 c 0,0.242 -0.088,0.451 -0.264,0.627 -0.176,0.177 -0.385,0.264 -0.627,0.264 l -4.191,0 0,8.546 z"
         id="path3998" />
    </g>
  </g>
</svg>
