<?xml version="1.0" encoding="UTF-8" standalone="no"?>
<!-- Created with Inkscape (http://www.inkscape.org/) -->

<svg
   xmlns:dc="http://purl.org/dc/elements/1.1/"
   xmlns:cc="http://creativecommons.org/ns#"
   xmlns:rdf="http://www.w3.org/1999/02/22-rdf-syntax-ns#"
   xmlns:svg="http://www.w3.org/2000/svg"
   xmlns="http://www.w3.org/2000/svg"
   xmlns:sodipodi="http://sodipodi.sourceforge.net/DTD/sodipodi-0.dtd"
   xmlns:inkscape="http://www.inkscape.org/namespaces/inkscape"
   height="173.62204"
   width="262.20471"
   id="svg9057"
   sodipodi:version="0.32"
   inkscape:version="0.48.3.1 r9886"
   sodipodi:docname="sponsoring_buttons.svg"
   inkscape:output_extension="org.inkscape.output.svg.inkscape"
   version="1.1">
  <defs
     id="defs9059">
    <inkscape:perspective
       sodipodi:type="inkscape:persp3d"
       inkscape:vp_x="0 : 526.18109 : 1"
       inkscape:vp_y="0 : 1000 : 0"
       inkscape:vp_z="744.09448 : 526.18109 : 1"
       inkscape:persp3d-origin="372.04724 : 350.78739 : 1"
       id="perspective77" />
  </defs>
  <sodipodi:namedview
     id="base"
     pagecolor="#ffffff"
     bordercolor="#666666"
     borderopacity="1.0"
     inkscape:pageopacity="0.0"
     inkscape:pageshadow="2"
     inkscape:cx="152.93265"
     inkscape:cy="84.967826"
     inkscape:zoom="2.8146194"
     inkscape:document-units="mm"
     inkscape:current-layer="layer1"
     inkscape:window-width="1280"
     inkscape:window-height="980"
     inkscape:window-x="-2"
     inkscape:window-y="21"
     showguides="true"
     inkscape:guide-bbox="true"
     showgrid="false"
     units="mm"
     inkscape:window-maximized="1">
    <sodipodi:guide
       orientation="0,1"
       position="-110.53963,0"
       id="guide3073" />
    <sodipodi:guide
       orientation="1,0"
       position="0,309.51097"
       id="guide3075" />
    <sodipodi:guide
       orientation="1,0"
       position="262.20472,251.72889"
       id="guide3077" />
    <sodipodi:guide
       orientation="0,1"
       position="215.55228,173.62205"
       id="guide3079" />
  </sodipodi:namedview>
  <metadata
     id="metadata9062">
    <rdf:RDF>
      <cc:Work
         rdf:about="">
        <dc:format>image/svg+xml</dc:format>
        <dc:type
           rdf:resource="http://purl.org/dc/dcmitype/StillImage" />
        <dc:title></dc:title>
      </cc:Work>
    </rdf:RDF>
  </metadata>
  <g
     inkscape:groupmode="layer"
     inkscape:label="Warstwa 1"
     id="layer1"
     transform="translate(0,-878.74011)">
    <g
       id="g8978"
       transform="matrix(0.52470936,0,0,0.52470936,-52.620907,733.63468)"
       inkscape:export-filename="/mnt/archive/gnu/fsfe/graphics/2015/HardwareDonor2015_t_huge.png"
       inkscape:export-xdpi="72"
       inkscape:export-ydpi="72">
      <g
         transform="translate(0,-14.67622)"
         id="g8980">
        <g
           transform="matrix(1.034931,0,0,1.034931,41.771386,-12.847912)"
           id="g8982">
          <path
             sodipodi:nodetypes="cscccsccscscccsccc"
             d="m 56.3773,377.6927 c 0.005,-2.452 0.996,-4.673 2.595,-6.282 1.599,-1.609 3.807,-2.607 6.243,-2.612 0,0 30.84,8.801 30.84,8.801 0,0 30.873,-8.915 30.873,-8.915 2.436,-0.004 4.639,0.985 6.233,2.589 1.594,1.604 2.577,3.821 2.572,6.272 0,0 -8.859,31.069 -8.859,31.069 0,0 1.5959,5.66402 3.42418,12.15282 2.4515,8.70064 5.32082,18.88418 5.32082,18.88418 -0.004,2.451 -0.996,4.672 -2.595,6.282 -1.599,1.61 -3.806,2.607 -6.242,2.612 0,0 -30.841,-8.801 -30.841,-8.801 0,0 -30.873,8.915 -30.873,8.915 -2.436,0.005 -4.64,-0.985 -6.233,-2.588 -1.593,-1.604 -2.577,-3.821 -2.572,-6.273 0,0 8.859,-31.069 8.859,-31.069 0,0 -8.745,-31.037 -8.745,-31.037 z"
             id="path8984"
             style="fill:#4ad2f0"
             inkscape:connector-curvature="0" />
          <path
             d="m 117.9153,302.2327 c 1.131,-2.931 3.337,-5.132 5.989,-6.323 2.652,-1.191 5.751,-1.371 8.667,-0.257 0,0 32.85,24.689 32.85,24.689 0,0 41.024,3.513 41.024,3.513 2.916,1.113 5.097,3.309 6.267,5.959 1.17,2.65 1.328,5.754 0.197,8.685 0,0 -24.863,33.098 -24.863,33.098 0,0 -3.791,41.142 -3.791,41.142 -1.131,2.93 -3.337,5.132 -5.989,6.323 -2.652,1.191 -5.75,1.371 -8.667,0.258 0,0 -32.85,-24.69 -32.85,-24.69 0,0 -41.024,-3.513 -41.024,-3.513 -2.916,-1.113 -5.098,-3.309 -6.267,-5.959 -1.17,-2.65 -1.327,-5.754 -0.196,-8.685 0,0 24.863,-33.097 24.863,-33.097 0,0 3.79,-41.143 3.79,-41.143 z"
             id="path8986"
             style="fill:#d0f400"
             inkscape:connector-curvature="0" />
          <path
             d="m 120.0153,468.0827 c -0.51,-1.335 -0.434,-2.752 0.1,-3.962 0.534,-1.21 1.527,-2.214 2.853,-2.726 0,0 18.628,-1.653 18.628,-1.653 0,0 14.944,-11.305 14.944,-11.305 1.325,-0.512 2.731,-0.433 3.934,0.107 1.203,0.54 2.201,1.542 2.711,2.877 0,0 1.67,18.765 1.67,18.765 0,0 11.247,15.068 11.247,15.068 0.51,1.335 0.434,2.751 -0.1,3.962 -0.534,1.211 -1.527,2.215 -2.852,2.727 0,0 -18.628,1.653 -18.628,1.653 0,0 -14.944,11.305 -14.944,11.305 -1.325,0.511 -2.732,0.433 -3.934,-0.107 -1.202,-0.54 -2.201,-1.542 -2.711,-2.877 0,0 -1.67,-18.764 -1.67,-18.764 0,0 -11.248,-15.07 -11.248,-15.07 z"
             id="path8988"
             style="fill:#3394ce;fill-opacity:1"
             inkscape:connector-curvature="0" />
          <path
             d="m 89.7633,375.8047 6.292,1.795 c 0,0 30.873,-8.915 30.873,-8.915 2.436,-0.004 4.639,0.985 6.233,2.589 1.594,1.604 2.577,3.821 2.572,6.272 0,0 -4.73,16.59 -4.73,16.59 0,0 -35.278,-3.021 -35.278,-3.021 -2.916,-1.113 -5.098,-3.309 -6.267,-5.959 -1.17,-2.65 -1.327,-5.754 -0.196,-8.685 -10e-4,0.002 0.501,-0.666 0.501,-0.666 z"
             id="path8990"
             style="fill:#6bb340"
             inkscape:connector-curvature="0" />
        </g>
        <g
           transform="matrix(1.034931,0,0,1.0349303,41.771386,-13.720211)"
           id="g8992">
          <path
             d="m 236.4263,414.0827 c 0,0 -0.085,18.031 -0.085,18.031 0,0 23.358,0 23.358,0 4.063,0 7.357,3.294 7.357,7.357 0,4.063 -3.294,7.357 -7.357,7.357 0,0 -23.358,0 -23.358,0 0,0 0,91.975 0,91.975 0,4.515 -3.66,8.174 -8.174,8.174 -4.514,0 -8.174,-3.66 -8.174,-8.174 0,0 0,-91.975 0,-91.975 0,0 -14.164,0 -14.164,0 -4.063,0 -7.357,-3.294 -7.357,-7.357 0,-4.063 3.294,-7.357 7.357,-7.357 0,0 13.962,0 13.962,0 0,0 0,-16.11 0,-16.11 0,-19.822 12.463,-29.833 31.265,-29.833 0,0 8.644,0 8.644,0 4.063,0 7.357,3.294 7.357,7.357 0,4.063 -3.294,7.357 -7.357,7.357 0,0 -8.644,0 -8.644,0 -11.105,10e-4 -14.63,3.987 -14.63,13.198 z"
             id="path8994"
             style="fill:#202d79"
             inkscape:connector-curvature="0" />
          <path
             d="m 409.2753,414.0827 c 0,0 -0.085,18.031 -0.085,18.031 0,0 23.358,0 23.358,0 4.063,0 7.357,3.294 7.357,7.357 0,4.063 -3.294,7.357 -7.357,7.357 0,0 -23.358,0 -23.358,0 0,0 0,91.975 0,91.975 0,4.515 -3.66,8.174 -8.174,8.174 -4.514,0 -8.174,-3.66 -8.174,-8.174 0,0 0,-91.975 0,-91.975 0,0 -14.165,0 -14.165,0 -4.063,0 -7.357,-3.294 -7.357,-7.357 0,-4.063 3.294,-7.357 7.357,-7.357 0,0 13.962,0 13.962,0 0,0 0,-16.11 0,-16.11 0,-19.822 12.463,-29.833 31.265,-29.833 0,0 8.644,0 8.644,0 4.063,0 7.357,3.294 7.357,7.357 0,4.063 -3.294,7.357 -7.357,7.357 0,0 -8.644,0 -8.644,0 -11.103,10e-4 -14.629,3.987 -14.629,13.198 z"
             id="path8996"
             style="fill:#202d79"
             inkscape:connector-curvature="0" />
          <path
             d="m 456.8453,480.0287 c 0,0 66.916,0 66.916,0 -2.767,-22.476 -15.458,-32.213 -31.211,-32.213 -19.651,0 -32.445,12.228 -35.705,32.213 z m 35.995,51.454 c 17.733,0 25.347,-9.427 28.229,-13.146 0,0 3.535,-4.626 5.499,-5.205 1.793,-0.52 3.782,-0.369 5.56,0.577 3.228,1.716 4.673,5.471 3.593,8.833 -0.468,1.793 -1.401,4.061 -2.95,6.524 -5.313,8.034 -17.115,17.804 -40.222,17.804 -31.579,0 -51.811,-20.318 -51.811,-55.31 0,-30.331 15.947,-59.032 51.811,-59.032 27.191,0 44.701,19.157 46.838,50.121 0,11.645 -4.845,12.094 -17.925,12.094 0,0 -65.328,0 -65.328,0 1.495,33.113 24.433,36.74 36.706,36.74 z"
             id="path8998"
             style="fill:#202d79"
             inkscape:connector-curvature="0" />
          <path
             d="m 276.1833,465.2617 c 0,-17.939 15.942,-32.083 41.568,-32.083 0,0 0.614,0.002 0.614,0.002 22.041,-0.007 33.241,9.637 38.283,17.567 1.47,2.431 2.356,4.67 2.8,6.44 1.025,3.318 -0.347,7.025 -3.41,8.719 -1.688,0.934 -3.576,1.083 -5.277,0.57 -1.864,-0.571 -5.219,-5.138 -5.219,-5.138 -1.978,-2.653 -6.306,-8.254 -14.907,-11.153 -3.725,-1.182 -7.918,-1.815 -12.884,-1.815 -15.942,0 -25.426,6.519 -25.426,16.487 0,7.143 5.046,12.913 13.723,14.729 0,0 27.439,5.85 27.439,5.85 14.933,3.229 28.049,10.949 28.049,28.655 0,18.78 -16.343,32.765 -42.978,32.765 0,0 -1.164,0.011 -1.164,0.011 -23.107,0 -34.909,-9.77 -40.222,-17.804 -1.549,-2.463 -2.483,-4.731 -2.95,-6.524 -1.08,-3.362 0.365,-7.117 3.593,-8.833 1.778,-0.945 3.768,-1.096 5.561,-0.577 1.964,0.579 5.499,5.205 5.499,5.205 2.098,2.706 6.703,8.436 15.888,11.354 4.051,1.286 8.664,1.955 13.795,1.955 17.756,0 26.635,-7.081 26.635,-16.949 0,-6.758 -5.046,-12.51 -13.319,-14.326 0,0 -28.249,-5.85 -28.249,-5.85 -14.933,-3.028 -27.442,-11.989 -27.442,-29.257 z"
             id="path9000"
             style="fill:#202d79"
             inkscape:connector-curvature="0" />
        </g>
      </g>
    </g>
    <rect
       style="fill:#202d79;fill-opacity:1;fill-rule:nonzero;stroke:#202d79;stroke-width:0.25780278;stroke-linecap:square;stroke-linejoin:round;stroke-miterlimit:4;stroke-opacity:1;stroke-dasharray:none;stroke-dashoffset:0"
       id="rect9004"
       width="262.09683"
       height="25.977657"
       x="-0.021287587"
       y="1026.3868"
       rx="6.8145132"
       ry="6.7541924"
       inkscape:export-filename="/mnt/archive/gnu/fsfe/graphics/2015/HardwareDonor2015_t_huge.png"
       inkscape:export-xdpi="72"
       inkscape:export-ydpi="72" />
    <rect
       ry="6.8212209"
       rx="6.8212218"
       y="1026.389"
       x="183.62932"
       height="25.973133"
       width="78.444077"
       id="rect9006"
       style="fill:#d0f400;fill-opacity:1;fill-rule:nonzero;stroke:#202d79;stroke-width:0.26233453;stroke-linecap:round;stroke-linejoin:round;stroke-miterlimit:4;stroke-opacity:1;stroke-dasharray:none;stroke-dashoffset:0"
       inkscape:export-filename="/mnt/archive/gnu/fsfe/graphics/2015/HardwareDonor2015_t_huge.png"
       inkscape:export-xdpi="72"
       inkscape:export-ydpi="72" />
    <text
       xml:space="preserve"
       style="font-size:15.32958126px;font-style:normal;font-weight:normal;text-align:center;text-anchor:middle;fill:#d0f400;fill-opacity:1;stroke:none;font-family:Bitstream Vera Sans"
       x="102.72412"
       y="922.22815"
       id="text2484"
       transform="scale(0.88228836,1.1334163)"
       inkscape:export-filename="/mnt/archive/gnu/fsfe/graphics/2015/HardwareDonor2015_t_huge.png"
       inkscape:export-xdpi="72"
       inkscape:export-ydpi="72"><tspan
         sodipodi:role="line"
         id="tspan2486"
         x="102.72412"
         y="922.22815"
         style="font-style:italic;font-variant:normal;font-weight:bold;font-stretch:normal;text-align:center;text-anchor:middle;fill:#d0f400;fill-opacity:1;font-family:Nimbus Sans L;-inkscape-font-specification:Nimbus Sans L Bold Italic">#DONORTYPE#</tspan></text>
    <text
       xml:space="preserve"
       style="font-size:20.53691292px;font-style:normal;font-weight:normal;text-align:center;text-anchor:middle;fill:#202d79;fill-opacity:1;stroke:none;font-family:Bitstream Vera Sans"
       x="225.79698"
       y="1027.8837"
       id="text2488"
       transform="scale(0.98209099,1.0182356)"
       inkscape:export-filename="/mnt/archive/gnu/fsfe/graphics/2015/HardwareDonor2015_t_huge.png"
       inkscape:export-xdpi="72"
       inkscape:export-ydpi="72"><tspan
         sodipodi:role="line"
         id="tspan2490"
         x="225.79698"
         y="1027.8837"
         style="font-style:italic;font-variant:normal;font-weight:bold;font-stretch:normal;text-align:center;text-anchor:middle;fill:#202d79;fill-opacity:1;font-family:Nimbus Sans L;-inkscape-font-specification:Nimbus Sans L Bold Italic">#YEAR#</tspan></text>
  </g>
</svg>
