<?xml version="1.0" encoding="UTF-8" standalone="no"?>
<!-- Created with Inkscape (http://www.inkscape.org/) -->

<svg
   xmlns:dc="http://purl.org/dc/elements/1.1/"
   xmlns:cc="http://creativecommons.org/ns#"
   xmlns:rdf="http://www.w3.org/1999/02/22-rdf-syntax-ns#"
   xmlns:svg="http://www.w3.org/2000/svg"
   xmlns="http://www.w3.org/2000/svg"
   xmlns:sodipodi="http://sodipodi.sourceforge.net/DTD/sodipodi-0.dtd"
   xmlns:inkscape="http://www.inkscape.org/namespaces/inkscape"
   width="556.65625"
   height="524.5625"
   id="svg3064"
   version="1.1"
   inkscape:version="0.48.1 r9760"
   sodipodi:docname="fsfe-ilovefs.svg"
   inkscape:export-filename="/home/samtuke/fsfe/svn/web/trunk/graphics/logov-1.png"
   inkscape:export-xdpi="56.59"
   inkscape:export-ydpi="56.59">
  <defs
     id="defs3066" />
  <sodipodi:namedview
     id="base"
     pagecolor="#ffffff"
     bordercolor="#666666"
     borderopacity="1.0"
     inkscape:pageopacity="0.0"
     inkscape:pageshadow="2"
     inkscape:zoom="0.86866836"
     inkscape:cx="126.55214"
     inkscape:cy="336.71079"
     inkscape:document-units="px"
     inkscape:current-layer="layer1"
     showgrid="false"
     inkscape:window-width="1920"
     inkscape:window-height="1033"
     inkscape:window-x="-3"
     inkscape:window-y="-3"
     inkscape:window-maximized="1"
     fit-margin-top="0"
     fit-margin-left="0"
     fit-margin-right="0"
     fit-margin-bottom="0"
     showguides="true"
     inkscape:guide-bbox="true" />
  <metadata
     id="metadata3069">
    <rdf:RDF>
      <cc:Work
         rdf:about="">
        <dc:format>image/svg+xml</dc:format>
        <dc:type
           rdf:resource="http://purl.org/dc/dcmitype/StillImage" />
        <dc:title></dc:title>
      </cc:Work>
    </rdf:RDF>
  </metadata>
  <g
     inkscape:label="Calque 1"
     inkscape:groupmode="layer"
     id="layer1"
     transform="translate(-65.8125,-212.46875)">
    <g
       id="g3854"
       transform="translate(15.134797,-14.364935)">
      <g
         id="g2999">
        <path
           inkscape:connector-curvature="0"
           id="path2976"
           style="fill:#a80018;fill-opacity:1;fill-rule:nonzero;stroke:none"
           d="m 179.64354,464.62008 c 6.025,-1.67142 10.91718,-2.90822 17.21291,-3.12262 0.87087,-6.23883 2.6323,-10.99271 4.92295,-16.80917 2.31622,-5.87627 4.01845,-12.76809 -0.811,-18.32428 -6.93304,-7.97466 -15.06865,-7.12764 -21.8367,-1.24439 -4.08058,3.54787 -4.97,7.60866 -3.76278,12.47589 -4.71498,-1.70915 -8.86471,-1.23277 -12.81922,2.45504 -6.55834,6.11512 -8.25179,14.11766 -1.04514,21.8466 5.02055,5.38423 12.05296,4.41172 18.13898,2.72293 z" />
        <path
           inkscape:connector-curvature="0"
           id="path2978"
           style="fill:#ff7a8e;fill-opacity:1;fill-rule:evenodd;stroke:none"
           d="m 137.12504,342.63652 c -1.74924,-2.18901 -3.3236,-4.70336 -4.54999,-7.5936 -10.55525,-24.86693 0.50891,-42.61198 21.60955,-51.56789 12.7251,-5.40106 23.10898,-2.91691 32.94212,5.31104 1.35417,-12.74718 7.0417,-21.72517 19.94745,-26.67949 21.40099,-8.21578 41.686,-3.13652 51.36749,22.08246 6.74421,17.57138 -3.37123,32.63709 -14.07118,44.72956 -10.59066,11.9675 -18.97607,21.84716 -26.5226,36.07515 -10.82893,-3.52985 -20.41685,-5.21576 -30.73975,-6.34452 l -49.98309,-16.01271 z" />
        <path
           inkscape:connector-curvature="0"
           id="path2980"
           style="fill:#ef2d47;fill-opacity:1;fill-rule:evenodd;stroke:none"
           d="m 187.16622,358.64923 c 2.56608,10.83005 -2.69909,21.45616 -8.47721,30.52361 -6.95566,10.91658 -12.41199,19.88298 -16.64705,32.22233 -12.88256,-2.05311 -23.31582,-1.47217 -36.22101,-0.45499 -13.03765,1.02768 -27.715908,0.22727 -35.79341,-12.7007 -11.59458,-18.55606 -4.992679,-34.15454 10.75394,-43.99348 9.4956,-5.93269 18.11746,-5.26167 27.02631,0.0744 -0.46534,-9.08427 2.09607,-16.27585 9.25858,-21.68389 l 50.09985,16.01272 z" />
        <path
           inkscape:connector-curvature="0"
           id="path2982"
           style="fill:#de1638;fill-opacity:1;fill-rule:nonzero;stroke:none"
           d="m 187.10813,358.64923 c -0.556,-2.34299 -1.47506,-4.69467 -2.82922,-7.04226 -10.94099,-18.94938 -27.8135,-20.44186 -43.89358,-11.1583 -1.20141,0.69421 -2.30578,1.42332 -3.31896,2.18785 8.73574,10.93169 23.28907,13.75282 36.70085,14.80662 4.66678,0.36716 9.06629,0.73901 13.34091,1.20609 z" />
      </g>
      <path
         d="m 274.04361,374.7601 -0.0828,17.45286 22.6082,-6.1e-4 c 3.93302,0 7.12127,3.18825 7.12127,7.12128 0,3.93246 -3.18825,7.1207 -7.12127,7.1207 l -22.6082,0 0,89.02166 c 0,4.36929 -3.54146,7.91135 -7.91136,7.91135 -4.36989,0 -7.91135,-3.54206 -7.91135,-7.91135 l 0,-89.02166 -13.70983,0 c -3.93298,0 -7.12007,-3.18824 -7.12007,-7.1207 0,-3.93303 3.18709,-7.12128 7.12007,-7.12128 l 13.51406,6.1e-4 0,-15.59266 c 0,-19.18469 12.06283,-28.87547 30.25986,-28.87547 l 8.36682,0 c 3.93302,0 7.12127,3.18825 7.12127,7.12066 0,3.93303 -3.18825,7.12127 -7.12127,7.12127 l -8.36682,0 c -10.74639,0 -14.15888,3.85694 -14.15888,12.77334 z"
         style="fill:#8a0014;fill-opacity:1;fill-rule:nonzero;stroke:none"
         id="path2984"
         inkscape:connector-curvature="0" />
      <path
         d="m 441.34288,374.7601 -0.0836,17.45286 22.60821,-6.1e-4 c 3.93301,0 7.12126,3.18825 7.12126,7.12128 0,3.93246 -3.18825,7.1207 -7.12126,7.1207 l -22.60821,0 9.8e-4,89.02166 c 0,4.36929 -3.54263,7.91135 -7.91253,7.91135 -4.36873,0 -7.91192,-3.54206 -7.91192,-7.91135 l 0,-89.02166 -13.70922,0 c -3.93186,0 -7.12016,-3.18824 -7.12016,-7.1207 0,-3.93303 3.1883,-7.12128 7.12016,-7.12128 l 13.51402,6.1e-4 0,-15.59266 c 0,-19.18469 12.06278,-28.87547 30.26102,-28.87547 l 8.36566,0 c 3.93302,0 7.12127,3.18825 7.12127,7.12066 0,3.93303 -3.18825,7.12127 -7.12127,7.12127 l -8.36566,0 c -10.74811,0 -14.15888,3.85694 -14.15888,12.77334 z"
         style="fill:#8a0014;fill-opacity:1;fill-rule:nonzero;stroke:none"
         id="path2986"
         inkscape:connector-curvature="0" />
      <path
         d="m 487.38484,438.58833 64.76647,0 c -2.67761,-21.75481 -14.96175,-31.17892 -30.20876,-31.17892 -19.02027,0 -31.40377,11.83566 -34.55771,31.17892 z m 34.83833,49.80069 c 17.16294,0 24.53285,-9.12383 27.32257,-12.72339 0,0 3.42239,-4.47794 5.32325,-5.03798 1.73588,-0.50311 3.66054,-0.35694 5.38131,0.55887 3.12434,1.66035 4.52271,5.29533 3.47872,8.54924 -0.4536,1.73527 -1.3571,3.9307 -2.8565,6.31551 -5.1414,7.77542 -16.56462,17.2309 -38.92997,17.2309 -30.56544,0 -50.1469,-19.66506 -50.1469,-53.53322 0,-29.35649 15.43461,-57.13629 50.1469,-57.13629 26.31697,0 43.26616,18.54211 45.33374,48.51153 0,11.27036 -4.68881,11.70612 -17.34885,11.70612 l -63.22929,0 c 1.44541,32.04917 23.64634,35.55871 35.52502,35.55871 z"
         style="fill:#8a0014;fill-opacity:1;fill-rule:nonzero;stroke:none"
         id="path2988"
         inkscape:connector-curvature="0" />
      <path
         d="m 312.52449,424.29528 c 0,-17.36285 15.43115,-31.05176 40.23362,-31.05176 l 0.59429,0.002 c 21.33304,-0.01 32.17354,9.32711 37.05406,17.0026 1.42217,2.35285 2.27905,4.52034 2.70894,6.23358 0.99287,3.21148 -0.33509,6.79886 -3.3009,8.4383 -1.63246,0.90336 -3.46074,1.04743 -5.10714,0.5519 -1.80387,-0.55366 -5.05077,-4.97352 -5.05077,-4.97352 -1.91481,-2.56779 -6.10284,-7.9886 -14.42844,-10.79403 -3.60536,-1.14386 -7.66503,-1.75679 -12.47004,-1.75679 -15.43004,0 -24.60959,6.30911 -24.60959,15.9575 0,6.91329 4.88462,12.49797 13.28281,14.25648 l 26.55694,5.66193 c 14.45399,3.12611 27.14828,10.5971 27.14828,27.73449 0,18.17788 -15.81747,31.71338 -41.59824,31.71338 l -1.12649,0.01 c -22.3642,0 -33.78737,-9.45548 -38.93049,-17.2309 -1.49884,-2.38481 -2.40224,-4.58025 -2.85482,-6.31551 -1.04511,-3.25392 0.3546,-6.88889 3.4776,-8.54924 1.72194,-0.91557 3.64659,-1.06198 5.38246,-0.55887 1.90087,0.56003 5.32205,5.03798 5.32205,5.03798 2.03105,2.61953 6.48748,8.16465 15.37716,10.99039 3.922,1.24439 8.38657,1.89213 13.35253,1.89213 17.18561,0 25.78077,-6.85399 25.78077,-16.4054 0,-6.54031 -4.88461,-12.10812 -12.89129,-13.86607 l -27.34233,-5.66193 C 324.63262,449.68096 312.52449,441.008 312.52449,424.29411 z"
         style="fill:#8a0014;fill-opacity:1;fill-rule:nonzero;stroke:none"
         id="path2990"
         inkscape:connector-curvature="0" />
      <text
         sodipodi:linespacing="125%"
         id="text3015"
         y="615.04053"
         x="96.152283"
         style="font-size:125px;font-style:normal;font-variant:normal;font-weight:normal;font-stretch:normal;line-height:125%;letter-spacing:0px;word-spacing:0px;fill:#ef2d47;fill-opacity:1;stroke:none;font-family:Nimbus Sans L;-inkscape-font-specification:Nimbus Sans L"
         xml:space="preserve"><tspan
           style="font-size:125px;fill:#ef2d47;fill-opacity:1"
           y="615.04053"
           x="96.152283"
           id="tspan3017"
           sodipodi:role="line">I</tspan></text>
      <text
         sodipodi:linespacing="125%"
         id="text3019"
         y="615.43182"
         x="358.30652"
         style="font-size:125px;font-style:normal;font-variant:normal;font-weight:normal;font-stretch:normal;line-height:125%;letter-spacing:0px;word-spacing:0px;fill:#ef2d47;fill-opacity:1;stroke:none;font-family:Nimbus Sans L;-inkscape-font-specification:Nimbus Sans L"
         xml:space="preserve"><tspan
           y="615.43182"
           x="358.30652"
           id="tspan3021"
           sodipodi:role="line">free </tspan></text>
      <text
         sodipodi:linespacing="125%"
         id="text3023"
         y="716.74976"
         x="79.717094"
         style="font-size:130.4467926px;font-style:normal;font-variant:normal;font-weight:normal;font-stretch:normal;line-height:125%;letter-spacing:0px;word-spacing:0px;fill:#ef2d47;fill-opacity:1;stroke:none;font-family:Nimbus Sans L;-inkscape-font-specification:Nimbus Sans L"
         xml:space="preserve"><tspan
           y="716.74976"
           x="79.717094"
           id="tspan3025"
           sodipodi:role="line">so<tspan
   id="tspan3795"
   style="fill:#ff7a8e;fill-opacity:0">f</tspan>tware</tspan></text>
      <path
         sodipodi:nodetypes="ccccccsccccccccccccccc"
         inkscape:connector-curvature="0"
         id="path3801"
         d="m 283.84375,519.9375 c -15.35631,-0.0633 -24.87182,6.93975 -31.40625,19.59375 -6.86886,-12.47721 -16.61967,-19.22162 -31.96875,-18.75 -25.45391,0.78019 -44.04454,14.69027 -43.125,44.6875 0.64092,20.89736 17.4667,31.99338 33.625,39.78125 11.32822,5.46085 21.03788,10.32176 30.65625,16.71875 -6.61584,1.80845 -10.4375,7.0257 -10.4375,14.8125 l 0,11.625 -9.125,0 0,8.875 9.125,0 0,59.46875 10.84375,0 0,-59.46875 11.34375,0 0,-8.875 -11.34375,0 0,-10.71875 c 1.46102,-7.90246 11.79695,-8.21334 18.4198,-11.87154 12.12437,-6.69619 23.84335,-15.72602 35.11145,-21.69096 15.94779,-8.21219 32.4734,-19.71823 32.5625,-40.625 0.12481,-30.00975 -18.81364,-43.45491 -44.28125,-43.5625 z"
         style="fill:#ff7a8e;fill-opacity:1;fill-rule:nonzero;stroke:none" />
    </g>
    <rect
       style="fill:none;stroke:#d02323;stroke-width:10.79057789;stroke-miterlimit:4;stroke-opacity:1;stroke-dasharray:none"
       id="rect3000"
       width="545.8595"
       height="513.74506"
       x="71.222542"
       y="217.87749"
       ry="10.553503" />
  </g>
</svg>
