<?xml version="1.0" encoding="UTF-8" standalone="no"?>
<!-- Created with Inkscape (http://www.inkscape.org/) -->

<svg
   xmlns:dc="http://purl.org/dc/elements/1.1/"
   xmlns:cc="http://creativecommons.org/ns#"
   xmlns:rdf="http://www.w3.org/1999/02/22-rdf-syntax-ns#"
   xmlns:svg="http://www.w3.org/2000/svg"
   xmlns="http://www.w3.org/2000/svg"
   xmlns:sodipodi="http://sodipodi.sourceforge.net/DTD/sodipodi-0.dtd"
   xmlns:inkscape="http://www.inkscape.org/namespaces/inkscape"
   width="187.5"
   height="112.50004"
   id="svg6521"
   version="1.1"
   inkscape:version="0.48.5 r10040"
   sodipodi:docname="Nyt dokument 18">
  <defs
     id="defs6523">
    <clipPath
       id="clipPath2996"
       clipPathUnits="userSpaceOnUse">
      <path
         inkscape:connector-curvature="0"
         id="path2998"
         d="m 2646.8178,2192.1198 c 12.9468,-6.4533 23.2742,-11.9016 34.4314,-21.2815 11.1577,9.3811 21.544,14.8289 34.4893,21.2815 13.0788,6.5191 26.6762,15.7329 26.9731,32.7647 0.4263,24.4463 -14.8747,35.5859 -35.6184,35.9477 -12.511,0.218 -20.3269,-5.3882 -25.7861,-15.6257 -5.4624,10.2385 -13.334,15.8437 -25.8438,15.6257 -20.7439,-0.3618 -36.0449,-11.5014 -35.6186,-35.9477 0.2969,-17.0318 13.8943,-26.2456 26.9731,-32.7647 z" />
    </clipPath>
    <clipPath
       id="clipPath3004"
       clipPathUnits="userSpaceOnUse">
      <path
         inkscape:connector-curvature="0"
         id="path3006"
         d="m 2646.8178,2192.1198 c 12.9468,-6.4533 23.2742,-11.9016 34.4314,-21.2815 11.1577,9.3811 21.544,14.8289 34.4893,21.2815 13.0788,6.5191 26.6762,15.7329 26.9731,32.7647 0.4263,24.4463 -14.8747,35.5859 -35.6184,35.9477 -12.511,0.218 -20.3269,-5.3882 -25.7861,-15.6257 -5.4624,10.2385 -13.334,15.8437 -25.8438,15.6257 -20.7439,-0.3618 -36.0449,-11.5014 -35.6186,-35.9477 0.2969,-17.0318 13.8943,-26.2456 26.9731,-32.7647 z" />
    </clipPath>
  </defs>
  <sodipodi:namedview
     id="base"
     pagecolor="#ffffff"
     bordercolor="#666666"
     borderopacity="1.0"
     inkscape:pageopacity="0.0"
     inkscape:pageshadow="2"
     inkscape:zoom="1.4"
     inkscape:cx="128.75"
     inkscape:cy="44.821442"
     inkscape:document-units="px"
     inkscape:current-layer="layer1"
     showgrid="false"
     fit-margin-top="0"
     fit-margin-left="0"
     fit-margin-right="0"
     fit-margin-bottom="0"
     inkscape:window-width="1366"
     inkscape:window-height="725"
     inkscape:window-x="0"
     inkscape:window-y="0"
     inkscape:window-maximized="1" />
  <metadata
     id="metadata6526">
    <rdf:RDF>
      <cc:Work
         rdf:about="">
        <dc:format>image/svg+xml</dc:format>
        <dc:type
           rdf:resource="http://purl.org/dc/dcmitype/StillImage" />
        <dc:title></dc:title>
      </cc:Work>
    </rdf:RDF>
  </metadata>
  <g
     inkscape:label="Layer 1"
     inkscape:groupmode="layer"
     id="layer1"
     transform="translate(-246.25,-584.68359)">
    <g
       id="g2992"
       transform="matrix(1.25,0,0,-1.25,-3011.5979,3410.7315)">
      <g
         clip-path="url(#clipPath2996)"
         id="g2994">
        <g
           id="g3000">
          <g
             clip-path="url(#clipPath3004)"
             id="g3002">
            <path
               inkscape:connector-curvature="0"
               id="path3008"
               style="fill:#8a0014;fill-opacity:1;fill-rule:nonzero;stroke:none"
               d="m 2619.8361,2260.8383 122.8841,0 0,-90 -122.8841,0 0,90 z" />
            <path
               inkscape:connector-curvature="0"
               id="path3010"
               style="fill:#8a0014;fill-opacity:1;fill-rule:nonzero;stroke:none"
               d="m 2486.781,2260.8322 c 0,50.1914 60.1137,90.8787 134.2697,90.8787 74.156,0 134.2696,-40.6873 134.2696,-90.8787 0,-50.1916 -60.1136,-90.8786 -134.2696,-90.8786 -74.156,0 -134.2697,40.687 -134.2697,90.8786 z" />
            <path
               inkscape:connector-curvature="0"
               id="path3012"
               style="fill:#8b0014;fill-opacity:1;fill-rule:nonzero;stroke:none"
               d="m 2488.5229,2260.8371 c 0,49.5396 59.333,89.6983 132.5259,89.6983 73.1928,0 132.5259,-40.1587 132.5259,-89.6983 0,-49.5398 -59.3331,-89.6985 -132.5259,-89.6985 -73.1929,0 -132.5259,40.1587 -132.5259,89.6985 z" />
            <path
               inkscape:connector-curvature="0"
               id="path3014"
               style="fill:#8d0115;fill-opacity:1;fill-rule:nonzero;stroke:none"
               d="m 2490.2648,2260.8081 c 0,48.8881 58.552,88.5188 130.782,88.5188 72.2298,0 130.782,-39.6307 130.782,-88.5188 0,-48.888 -58.5522,-88.5186 -130.782,-88.5186 -72.23,0 -130.782,39.6306 -130.782,88.5186 z" />
            <path
               inkscape:connector-curvature="0"
               id="path3016"
               style="fill:#8e0116;fill-opacity:1;fill-rule:nonzero;stroke:none"
               d="m 2492.0065,2260.8132 c 0,48.2361 57.7715,87.3384 129.0384,87.3384 71.2666,0 129.0381,-39.1023 129.0381,-87.3384 0,-48.2363 -57.7715,-87.3384 -129.0381,-87.3384 -71.2669,0 -129.0384,39.1021 -129.0384,87.3384 z" />
            <path
               inkscape:connector-curvature="0"
               id="path3018"
               style="fill:#8f0216;fill-opacity:1;fill-rule:nonzero;stroke:none"
               d="m 2493.7485,2260.8181 c 0,47.5842 56.9907,86.1579 127.2944,86.1579 70.3037,0 127.2945,-38.5737 127.2945,-86.1579 0,-47.5845 -56.9908,-86.158 -127.2945,-86.158 -70.3037,0 -127.2944,38.5735 -127.2944,86.158 z" />
            <path
               inkscape:connector-curvature="0"
               id="path3020"
               style="fill:#910217;fill-opacity:1;fill-rule:nonzero;stroke:none"
               d="m 2495.4904,2260.8229 c 0,46.9324 56.21,84.9778 125.5506,84.9778 69.3405,0 125.5505,-38.0454 125.5505,-84.9778 0,-46.9323 -56.21,-84.9777 -125.5505,-84.9777 -69.3406,0 -125.5506,38.0454 -125.5506,84.9777 z" />
            <path
               inkscape:connector-curvature="0"
               id="path3022"
               style="fill:#920318;fill-opacity:1;fill-rule:nonzero;stroke:none"
               d="m 2497.2321,2260.8278 c 0,46.2805 55.4295,83.7974 123.8069,83.7974 68.3775,0 123.8067,-37.5169 123.8067,-83.7974 0,-46.2805 -55.4292,-83.7973 -123.8067,-83.7973 -68.3774,0 -123.8069,37.5168 -123.8069,83.7973 z" />
            <path
               inkscape:connector-curvature="0"
               id="path3024"
               style="fill:#930418;fill-opacity:1;fill-rule:nonzero;stroke:none"
               d="m 2498.9741,2260.8327 c 0,45.6287 54.6484,82.617 122.063,82.617 67.4143,0 122.0629,-36.9883 122.0629,-82.617 0,-45.6286 -54.6486,-82.6169 -122.0629,-82.6169 -67.4146,0 -122.063,36.9883 -122.063,82.6169 z" />
            <path
               inkscape:connector-curvature="0"
               id="path3026"
               style="fill:#950419;fill-opacity:1;fill-rule:nonzero;stroke:none"
               d="m 2500.716,2260.8376 c 0,44.9768 53.8677,81.4368 120.3191,81.4368 66.4512,0 120.3191,-36.46 120.3191,-81.4368 0,-44.9768 -53.8679,-81.4365 -120.3191,-81.4365 -66.4514,0 -120.3191,36.4597 -120.3191,81.4365 z" />
            <path
               inkscape:connector-curvature="0"
               id="path3028"
               style="fill:#96051a;fill-opacity:1;fill-rule:nonzero;stroke:none"
               d="m 2502.4577,2260.8088 c 0,44.3252 53.0872,80.2571 118.5755,80.2571 65.4882,0 118.5754,-35.9319 118.5754,-80.2571 0,-44.3255 -53.0872,-80.2571 -118.5754,-80.2571 -65.4883,0 -118.5755,35.9316 -118.5755,80.2571 z" />
            <path
               inkscape:connector-curvature="0"
               id="path3030"
               style="fill:#97051a;fill-opacity:1;fill-rule:nonzero;stroke:none"
               d="m 2504.1997,2260.8137 c 0,43.6733 52.3064,79.0766 116.8315,79.0766 64.5251,0 116.8315,-35.4033 116.8315,-79.0766 0,-43.6734 -52.3064,-79.0767 -116.8315,-79.0767 -64.5251,0 -116.8315,35.4033 -116.8315,79.0767 z" />
            <path
               inkscape:connector-curvature="0"
               id="path3032"
               style="fill:#99061b;fill-opacity:1;fill-rule:nonzero;stroke:none"
               d="m 2505.9416,2260.8186 c 0,43.0214 51.5256,77.8962 115.0876,77.8962 63.5621,0 115.0877,-34.8748 115.0877,-77.8962 0,-43.0215 -51.5256,-77.8963 -115.0877,-77.8963 -63.562,0 -115.0876,34.8748 -115.0876,77.8963 z" />
            <path
               inkscape:connector-curvature="0"
               id="path3034"
               style="fill:#9a071c;fill-opacity:1;fill-rule:nonzero;stroke:none"
               d="m 2507.6833,2260.8234 c 0,42.3697 50.7451,76.7161 113.344,76.7161 62.5989,0 113.344,-34.3464 113.344,-76.7161 0,-42.3696 -50.7451,-76.716 -113.344,-76.716 -62.5989,0 -113.344,34.3464 -113.344,76.716 z" />
            <path
               inkscape:connector-curvature="0"
               id="path3036"
               style="fill:#9b071c;fill-opacity:1;fill-rule:nonzero;stroke:none"
               d="m 2509.4252,2260.8283 c 0,41.7178 49.9644,75.5357 111.6001,75.5357 61.6358,0 111.6001,-33.8179 111.6001,-75.5357 0,-41.7175 -49.9643,-75.5356 -111.6001,-75.5356 -61.6357,0 -111.6001,33.8181 -111.6001,75.5356 z" />
            <path
               inkscape:connector-curvature="0"
               id="path3038"
               style="fill:#9c081d;fill-opacity:1;fill-rule:nonzero;stroke:none"
               d="m 2511.1669,2260.8332 c 0,41.0659 49.1836,74.3555 109.8565,74.3555 60.6726,0 109.8562,-33.2896 109.8562,-74.3555 0,-41.0657 -49.1836,-74.3552 -109.8562,-74.3552 -60.6729,0 -109.8565,33.2895 -109.8565,74.3552 z" />
            <path
               inkscape:connector-curvature="0"
               id="path3040"
               style="fill:#9e081e;fill-opacity:1;fill-rule:nonzero;stroke:none"
               d="m 2512.9489,2260.8381 c 0,40.414 48.4033,73.175 108.1136,73.175 59.7099,0 108.1132,-32.761 108.1132,-73.175 0,-40.4138 -48.4033,-73.1748 -108.1132,-73.1748 -59.7103,0 -108.1136,32.761 -108.1136,73.1748 z" />
            <path
               inkscape:connector-curvature="0"
               id="path3042"
               style="fill:#9f091e;fill-opacity:1;fill-rule:nonzero;stroke:none"
               d="m 2514.6909,2260.8093 c 0,39.7624 47.6225,71.9953 106.3696,71.9953 58.7471,0 106.3696,-32.2329 106.3696,-71.9953 0,-39.7625 -47.6225,-71.9954 -106.3696,-71.9954 -58.7471,0 -106.3696,32.2329 -106.3696,71.9954 z" />
            <path
               inkscape:connector-curvature="0"
               id="path3044"
               style="fill:#a0091f;fill-opacity:1;fill-rule:nonzero;stroke:none"
               d="m 2516.4326,2260.8142 c 0,39.1106 46.8418,70.8149 104.6259,70.8149 57.784,0 104.6258,-31.7043 104.6258,-70.8149 0,-39.1106 -46.8418,-70.815 -104.6258,-70.815 -57.7841,0 -104.6259,31.7044 -104.6259,70.815 z" />
            <path
               inkscape:connector-curvature="0"
               id="path3046"
               style="fill:#a20a20;fill-opacity:1;fill-rule:nonzero;stroke:none"
               d="m 2518.1745,2260.819 c 0,38.4588 46.061,69.6348 102.8821,69.6348 56.8208,0 102.8818,-31.176 102.8818,-69.6348 0,-38.4585 -46.061,-69.6345 -102.8818,-69.6345 -56.8211,0 -102.8821,31.176 -102.8821,69.6345 z" />
            <path
               inkscape:connector-curvature="0"
               id="path3048"
               style="fill:#a30b20;fill-opacity:1;fill-rule:nonzero;stroke:none"
               d="m 2519.9165,2260.8239 c 0,37.8069 45.2802,68.4544 101.1381,68.4544 55.8577,0 101.1382,-30.6475 101.1382,-68.4544 0,-37.8066 -45.2805,-68.4541 -101.1382,-68.4541 -55.8579,0 -101.1381,30.6475 -101.1381,68.4541 z" />
            <path
               inkscape:connector-curvature="0"
               id="path3050"
               style="fill:#a40b21;fill-opacity:1;fill-rule:nonzero;stroke:none"
               d="m 2521.6582,2260.8288 c 0,37.155 44.4997,67.2742 99.3945,67.2742 54.8945,0 99.3943,-30.1192 99.3943,-67.2742 0,-37.1548 -44.4998,-67.2739 -99.3943,-67.2739 -54.8948,0 -99.3945,30.1191 -99.3945,67.2739 z" />
            <path
               inkscape:connector-curvature="0"
               id="path3052"
               style="fill:#a60c22;fill-opacity:1;fill-rule:nonzero;stroke:none"
               d="m 2523.4001,2260.8339 c 0,36.503 43.719,66.0935 97.6506,66.0935 53.9314,0 97.6504,-29.5905 97.6504,-66.0935 0,-36.5031 -43.719,-66.0937 -97.6504,-66.0937 -53.9316,0 -97.6506,29.5906 -97.6506,66.0937 z" />
            <path
               inkscape:connector-curvature="0"
               id="path3054"
               style="fill:#a70c22;fill-opacity:1;fill-rule:nonzero;stroke:none"
               d="m 2525.142,2260.8049 c 0,35.8515 42.9383,64.914 95.9068,64.914 52.9685,0 95.9067,-29.0625 95.9067,-64.914 0,-35.8513 -42.9382,-64.9138 -95.9067,-64.9138 -52.9685,0 -95.9068,29.0625 -95.9068,64.9138 z" />
            <path
               inkscape:connector-curvature="0"
               id="path3056"
               style="fill:#a80d23;fill-opacity:1;fill-rule:nonzero;stroke:none"
               d="m 2526.8837,2260.8098 c 0,35.1997 42.1575,63.7336 94.1631,63.7336 52.0054,0 94.1629,-28.5339 94.1629,-63.7336 0,-35.1995 -42.1575,-63.7337 -94.1629,-63.7337 -52.0056,0 -94.1631,28.5342 -94.1631,63.7337 z" />
            <path
               inkscape:connector-curvature="0"
               id="path3058"
               style="fill:#aa0e24;fill-opacity:1;fill-rule:nonzero;stroke:none"
               d="m 2528.6257,2260.8146 c 0,34.5479 41.3767,62.5535 92.4192,62.5535 51.0422,0 92.4189,-28.0056 92.4189,-62.5535 0,-34.5476 -41.3767,-62.5532 -92.4189,-62.5532 -51.0425,0 -92.4192,28.0056 -92.4192,62.5532 z" />
            <path
               inkscape:connector-curvature="0"
               id="path3060"
               style="fill:#ab0e24;fill-opacity:1;fill-rule:nonzero;stroke:none"
               d="m 2530.3676,2260.8198 c 0,33.8957 40.596,61.3728 90.6753,61.3728 50.0791,0 90.6753,-27.4771 90.6753,-61.3728 0,-33.896 -40.5962,-61.3731 -90.6753,-61.3731 -50.0793,0 -90.6753,27.4771 -90.6753,61.3731 z" />
            <path
               inkscape:connector-curvature="0"
               id="path3062"
               style="fill:#ac0f25;fill-opacity:1;fill-rule:nonzero;stroke:none"
               d="m 2532.1093,2260.8247 c 0,33.2439 39.8155,60.1926 88.9317,60.1926 49.1159,0 88.9314,-26.9487 88.9314,-60.1926 0,-33.2439 -39.8155,-60.1927 -88.9314,-60.1927 -49.1162,0 -88.9317,26.9488 -88.9317,60.1927 z" />
            <path
               inkscape:connector-curvature="0"
               id="path3064"
               style="fill:#ae0f26;fill-opacity:1;fill-rule:nonzero;stroke:none"
               d="m 2533.8513,2260.8295 c 0,32.5918 39.0346,59.0122 87.1877,59.0122 48.1531,0 87.1875,-26.4204 87.1875,-59.0122 0,-32.592 -39.0344,-59.0122 -87.1875,-59.0122 -48.1531,0 -87.1877,26.4202 -87.1877,59.0122 z" />
            <path
               inkscape:connector-curvature="0"
               id="path3066"
               style="fill:#af1026;fill-opacity:1;fill-rule:nonzero;stroke:none"
               d="m 2535.5932,2260.8344 c 0,31.94 38.2539,57.8318 85.4439,57.8318 47.1899,0 85.4438,-25.8918 85.4438,-57.8318 0,-31.9402 -38.2539,-57.832 -85.4438,-57.832 -47.19,0 -85.4439,25.8918 -85.4439,57.832 z" />
            <path
               inkscape:connector-curvature="0"
               id="path3068"
               style="fill:#b01027;fill-opacity:1;fill-rule:nonzero;stroke:none"
               d="m 2537.3349,2260.8054 c 0,31.2885 37.4732,56.6523 83.7002,56.6523 46.2268,0 83.7,-25.3638 83.7,-56.6523 0,-31.2884 -37.4732,-56.6521 -83.7,-56.6521 -46.227,0 -83.7002,25.3637 -83.7002,56.6521 z" />
            <path
               inkscape:connector-curvature="0"
               id="path3070"
               style="fill:#b21128;fill-opacity:1;fill-rule:nonzero;stroke:none"
               d="m 2539.0769,2260.8105 c 0,30.6365 36.6923,55.4719 81.9563,55.4719 45.2636,0 81.9563,-24.8354 81.9563,-55.4719 0,-30.6367 -36.6927,-55.4719 -81.9563,-55.4719 -45.264,0 -81.9563,24.8352 -81.9563,55.4719 z" />
            <path
               inkscape:connector-curvature="0"
               id="path3072"
               style="fill:#b31228;fill-opacity:1;fill-rule:nonzero;stroke:none"
               d="m 2540.8188,2260.8154 c 0,29.9846 35.9116,54.2915 80.2124,54.2915 44.3005,0 80.2124,-24.3069 80.2124,-54.2915 0,-29.9849 -35.9119,-54.2918 -80.2124,-54.2918 -44.3008,0 -80.2124,24.3069 -80.2124,54.2918 z" />
            <path
               inkscape:connector-curvature="0"
               id="path3074"
               style="fill:#b41229;fill-opacity:1;fill-rule:nonzero;stroke:none"
               d="m 2542.5605,2260.8203 c 0,29.3327 35.1311,53.111 78.4687,53.111 43.3374,0 78.4686,-23.7783 78.4686,-53.111 0,-29.333 -35.1312,-53.1114 -78.4686,-53.1114 -43.3376,0 -78.4687,23.7784 -78.4687,53.1114 z" />
            <path
               inkscape:connector-curvature="0"
               id="path3076"
               style="fill:#b5132a;fill-opacity:1;fill-rule:nonzero;stroke:none"
               d="m 2544.3024,2260.8251 c 0,28.681 34.3504,51.931 76.7249,51.931 42.3745,0 76.7248,-23.25 76.7248,-51.931 0,-28.6811 -34.3503,-51.9309 -76.7248,-51.9309 -42.3745,0 -76.7249,23.2498 -76.7249,51.9309 z" />
            <path
               inkscape:connector-curvature="0"
               id="path3078"
               style="fill:#b7132a;fill-opacity:1;fill-rule:nonzero;stroke:none"
               d="m 2546.0441,2260.83 c 0,28.0291 33.5699,50.7505 74.9812,50.7505 41.4114,0 74.981,-22.7214 74.981,-50.7505 0,-28.029 -33.5696,-50.7505 -74.981,-50.7505 -41.4113,0 -74.9812,22.7215 -74.9812,50.7505 z" />
            <path
               inkscape:connector-curvature="0"
               id="path3080"
               style="fill:#b8142b;fill-opacity:1;fill-rule:nonzero;stroke:none"
               d="m 2547.7861,2260.8349 c 0,27.3772 32.789,49.5703 73.2373,49.5703 40.4482,0 73.237,-22.1931 73.237,-49.5703 0,-27.3772 -32.7888,-49.5703 -73.237,-49.5703 -40.4483,0 -73.2373,22.1931 -73.2373,49.5703 z" />
            <path
               inkscape:connector-curvature="0"
               id="path3082"
               style="fill:#b9152c;fill-opacity:1;fill-rule:nonzero;stroke:none"
               d="m 2549.5678,2260.8061 c 0,26.7256 32.0088,48.3904 71.4944,48.3904 39.4858,0 71.4944,-21.6648 71.4944,-48.3904 0,-26.7258 -32.0086,-48.3906 -71.4944,-48.3906 -39.4856,0 -71.4944,21.6648 -71.4944,48.3906 z" />
            <path
               inkscape:connector-curvature="0"
               id="path3084"
               style="fill:#bb152c;fill-opacity:1;fill-rule:nonzero;stroke:none"
               d="m 2551.3098,2260.811 c 0,26.0737 31.228,47.2102 69.7505,47.2102 38.5227,0 69.7507,-21.1365 69.7507,-47.2102 0,-26.074 -31.228,-47.2102 -69.7507,-47.2102 -38.5225,0 -69.7505,21.1362 -69.7505,47.2102 z" />
            <path
               inkscape:connector-curvature="0"
               id="path3086"
               style="fill:#bc162d;fill-opacity:1;fill-rule:nonzero;stroke:none"
               d="m 2553.0517,2260.8159 c 0,25.4218 30.447,46.0298 68.0066,46.0298 37.5596,0 68.0068,-20.608 68.0068,-46.0298 0,-25.4219 -30.4472,-46.0298 -68.0068,-46.0298 -37.5596,0 -68.0066,20.6079 -68.0066,46.0298 z" />
            <path
               inkscape:connector-curvature="0"
               id="path3088"
               style="fill:#bd162e;fill-opacity:1;fill-rule:nonzero;stroke:none"
               d="m 2554.7937,2260.8208 c 0,24.77 29.6662,44.8496 66.2626,44.8496 36.5965,0 66.263,-20.0796 66.263,-44.8496 0,-24.7701 -29.6665,-44.8497 -66.263,-44.8497 -36.5964,0 -66.2626,20.0796 -66.2626,44.8497 z" />
            <path
               inkscape:connector-curvature="0"
               id="path3090"
               style="fill:#bf172e;fill-opacity:1;fill-rule:nonzero;stroke:none"
               d="m 2556.5354,2260.8256 c 0,24.1182 28.8857,43.6692 64.519,43.6692 35.6335,0 64.5193,-19.551 64.5193,-43.6692 0,-24.1181 -28.8858,-43.6692 -64.5193,-43.6692 -35.6333,0 -64.519,19.5511 -64.519,43.6692 z" />
            <path
               inkscape:connector-curvature="0"
               id="path3092"
               style="fill:#c0182f;fill-opacity:1;fill-rule:nonzero;stroke:none"
               d="m 2558.2773,2260.8305 c 0,23.4663 28.105,42.489 62.7751,42.489 34.6705,0 62.7754,-19.0227 62.7754,-42.489 0,-23.466 -28.1049,-42.4888 -62.7754,-42.4888 -34.6701,0 -62.7751,19.0228 -62.7751,42.4888 z" />
            <path
               inkscape:connector-curvature="0"
               id="path3094"
               style="fill:#c11830;fill-opacity:1;fill-rule:nonzero;stroke:none"
               d="m 2560.019,2260.8354 c 0,22.8145 27.3245,41.3086 61.0315,41.3086 33.7073,0 61.0315,-18.4941 61.0315,-41.3086 0,-22.8142 -27.3242,-41.3084 -61.0315,-41.3084 -33.707,0 -61.0315,18.4942 -61.0315,41.3084 z" />
            <path
               inkscape:connector-curvature="0"
               id="path3096"
               style="fill:#c31930;fill-opacity:1;fill-rule:nonzero;stroke:none"
               d="m 2561.7609,2260.8066 c 0,22.1628 26.5437,40.1289 59.2876,40.1289 32.7442,0 59.2879,-17.9661 59.2879,-40.1289 0,-22.1629 -26.5437,-40.1289 -59.2879,-40.1289 -32.7439,0 -59.2876,17.966 -59.2876,40.1289 z" />
            <path
               inkscape:connector-curvature="0"
               id="path3098"
               style="fill:#c41931;fill-opacity:1;fill-rule:nonzero;stroke:none"
               d="m 2563.5029,2260.8115 c 0,21.511 25.7627,38.9485 57.5437,38.9485 31.781,0 57.5439,-17.4375 57.5439,-38.9485 0,-21.511 -25.7629,-38.9485 -57.5439,-38.9485 -31.781,0 -57.5437,17.4375 -57.5437,38.9485 z" />
            <path
               inkscape:connector-curvature="0"
               id="path3100"
               style="fill:#c51a31;fill-opacity:1;fill-rule:nonzero;stroke:none"
               d="m 2565.2446,2260.8164 c 0,20.8591 24.9822,37.7683 55.8,37.7683 30.8181,0 55.8001,-16.9092 55.8001,-37.7683 0,-20.8589 -24.982,-37.7681 -55.8001,-37.7681 -30.8178,0 -55.8,16.9092 -55.8,37.7681 z" />
            <path
               inkscape:connector-curvature="0"
               id="path3102"
               style="fill:#c71a32;fill-opacity:1;fill-rule:nonzero;stroke:none"
               d="m 2566.9865,2260.8212 c 0,20.2073 24.2014,36.5879 54.0564,36.5879 29.8548,0 54.0562,-16.3806 54.0562,-36.5879 0,-20.207 -24.2014,-36.5876 -54.0562,-36.5876 -29.855,0 -54.0564,16.3806 -54.0564,36.5876 z" />
            <path
               inkscape:connector-curvature="0"
               id="path3104"
               style="fill:#c81b33;fill-opacity:1;fill-rule:nonzero;stroke:none"
               d="m 2568.7285,2260.8261 c 0,19.5554 23.4206,35.4077 52.3122,35.4077 28.8919,0 52.3125,-15.8523 52.3125,-35.4077 0,-19.5552 -23.4206,-35.4074 -52.3125,-35.4074 -28.8916,0 -52.3122,15.8522 -52.3122,35.4074 z" />
            <path
               inkscape:connector-curvature="0"
               id="path3106"
               style="fill:#c91c33;fill-opacity:1;fill-rule:nonzero;stroke:none"
               d="m 2570.4702,2260.831 c 0,18.9036 22.6401,34.2273 50.5686,34.2273 27.9287,0 50.5686,-15.3237 50.5686,-34.2273 0,-18.9033 -22.6399,-34.227 -50.5686,-34.227 -27.9285,0 -50.5686,15.3237 -50.5686,34.227 z" />
            <path
               inkscape:connector-curvature="0"
               id="path3108"
               style="fill:#cb1c34;fill-opacity:1;fill-rule:nonzero;stroke:none"
               d="m 2572.2121,2260.8361 c 0,18.2515 21.8594,33.0467 48.8247,33.0467 26.9656,0 48.825,-14.7952 48.825,-33.0467 0,-18.2514 -21.8594,-33.0468 -48.825,-33.0468 -26.9653,0 -48.8247,14.7954 -48.8247,33.0468 z" />
            <path
               inkscape:connector-curvature="0"
               id="path3110"
               style="fill:#cc1d35;fill-opacity:1;fill-rule:nonzero;stroke:none"
               d="m 2573.9541,2260.8071 c 0,17.6001 21.0786,31.8672 47.081,31.8672 26.0024,0 47.0808,-14.2671 47.0808,-31.8672 0,-17.5999 -21.0784,-31.8672 -47.0808,-31.8672 -26.0024,0 -47.081,14.2673 -47.081,31.8672 z" />
            <path
               inkscape:connector-curvature="0"
               id="path3112"
               style="fill:#cd1d35;fill-opacity:1;fill-rule:nonzero;stroke:none"
               d="m 2575.6958,2260.812 c 0,16.9482 20.2978,30.687 45.3371,30.687 25.0396,0 45.3374,-13.7388 45.3374,-30.687 0,-16.948 -20.2978,-30.6868 -45.3374,-30.6868 -25.0393,0 -45.3371,13.7388 -45.3371,30.6868 z" />
            <path
               inkscape:connector-curvature="0"
               id="path3114"
               style="fill:#cf1e36;fill-opacity:1;fill-rule:nonzero;stroke:none"
               d="m 2577.4377,2260.8168 c 0,16.2964 19.5171,29.5066 43.5935,29.5066 24.0762,0 43.5933,-13.2102 43.5933,-29.5066 0,-16.2961 -19.5171,-29.5063 -43.5933,-29.5063 -24.0764,0 -43.5935,13.2102 -43.5935,29.5063 z" />
            <path
               inkscape:connector-curvature="0"
               id="path3116"
               style="fill:#d01f37;fill-opacity:1;fill-rule:nonzero;stroke:none"
               d="m 2579.1796,2260.822 c 0,15.6443 18.7364,28.3259 41.8496,28.3259 23.1131,0 41.8494,-12.6816 41.8494,-28.3259 0,-15.6443 -18.7363,-28.3262 -41.8494,-28.3262 -23.1132,0 -41.8496,12.6819 -41.8496,28.3262 z" />
            <path
               inkscape:connector-curvature="0"
               id="path3118"
               style="fill:#d11f37;fill-opacity:1;fill-rule:nonzero;stroke:none"
               d="m 2580.9213,2260.8266 c 0,14.9924 17.9558,27.146 40.106,27.146 22.1499,0 40.1057,-12.1536 40.1057,-27.146 0,-14.9922 -17.9558,-27.1457 -40.1057,-27.1457 -22.1502,0 -40.106,12.1535 -40.106,27.1457 z" />
            <path
               inkscape:connector-curvature="0"
               id="path3120"
               style="fill:#d22038;fill-opacity:1;fill-rule:nonzero;stroke:none"
               d="m 2582.6633,2260.8317 c 0,14.3404 17.175,25.9654 38.3618,25.9654 21.187,0 38.3621,-11.625 38.3621,-25.9654 0,-14.3405 -17.1751,-25.9655 -38.3621,-25.9655 -21.1868,0 -38.3618,11.625 -38.3618,25.9655 z" />
            <path
               inkscape:connector-curvature="0"
               id="path3122"
               style="fill:#d42039;fill-opacity:1;fill-rule:nonzero;stroke:none"
               d="m 2584.4052,2260.8366 c 0,13.6885 16.3941,24.7852 36.6182,24.7852 20.2239,0 36.6179,-11.0967 36.6179,-24.7852 0,-13.6887 -16.394,-24.7851 -36.6179,-24.7851 -20.2241,0 -36.6182,11.0964 -36.6182,24.7851 z" />
            <path
               inkscape:connector-curvature="0"
               id="path3124"
               style="fill:#d52139;fill-opacity:1;fill-rule:nonzero;stroke:none"
               d="m 2586.187,2260.8076 c 0,13.0371 15.614,23.6054 34.8752,23.6054 19.2615,0 34.8753,-10.5683 34.8753,-23.6054 0,-13.0371 -15.6138,-23.6053 -34.8753,-23.6053 -19.2612,0 -34.8752,10.5682 -34.8752,23.6053 z" />
            <path
               inkscape:connector-curvature="0"
               id="path3126"
               style="fill:#d6223a;fill-opacity:1;fill-rule:nonzero;stroke:none"
               d="m 2587.9289,2260.8125 c 0,12.3852 14.8333,22.4252 33.1314,22.4252 18.2983,0 33.1315,-10.04 33.1315,-22.4252 0,-12.3851 -14.8332,-22.4251 -33.1315,-22.4251 -18.2981,0 -33.1314,10.04 -33.1314,22.4251 z" />
            <path
               inkscape:connector-curvature="0"
               id="path3128"
               style="fill:#d8223b;fill-opacity:1;fill-rule:nonzero;stroke:none"
               d="m 2589.6706,2260.8176 c 0,11.7331 14.0525,21.2446 31.3877,21.2446 17.3352,0 31.3877,-9.5115 31.3877,-21.2446 0,-11.7334 -14.0525,-21.2449 -31.3877,-21.2449 -17.3352,0 -31.3877,9.5115 -31.3877,21.2449 z" />
            <path
               inkscape:connector-curvature="0"
               id="path3130"
               style="fill:#d9233b;fill-opacity:1;fill-rule:nonzero;stroke:none"
               d="m 2591.4125,2260.8225 c 0,11.0813 13.2718,20.0644 29.6438,20.0644 16.3721,0 29.6438,-8.9831 29.6438,-20.0644 0,-11.0816 -13.2717,-20.0645 -29.6438,-20.0645 -16.372,0 -29.6438,8.9829 -29.6438,20.0645 z" />
            <path
               inkscape:connector-curvature="0"
               id="path3132"
               style="fill:#da233c;fill-opacity:1;fill-rule:nonzero;stroke:none"
               d="m 2593.1545,2260.8273 c 0,10.4295 12.491,18.8841 27.8999,18.8841 15.4089,0 27.9001,-8.4546 27.9001,-18.8841 0,-10.4294 -12.4912,-18.884 -27.9001,-18.884 -15.4089,0 -27.8999,8.4546 -27.8999,18.884 z" />
            <path
               inkscape:connector-curvature="0"
               id="path3134"
               style="fill:#dc243d;fill-opacity:1;fill-rule:nonzero;stroke:none"
               d="m 2594.8962,2260.8322 c 0,9.7776 11.7104,17.7039 26.1562,17.7039 14.4458,0 26.1563,-7.9263 26.1563,-17.7039 0,-9.7776 -11.7105,-17.7036 -26.1563,-17.7036 -14.4458,0 -26.1562,7.926 -26.1562,17.7036 z" />
            <path
               inkscape:connector-curvature="0"
               id="path3136"
               style="fill:#dd243d;fill-opacity:1;fill-rule:nonzero;stroke:none"
               d="m 2596.6381,2260.8371 c 0,9.1257 10.9297,16.5234 24.4124,16.5234 13.4829,0 24.4123,-7.3977 24.4123,-16.5234 0,-9.1257 -10.9294,-16.5234 -24.4123,-16.5234 -13.4827,0 -24.4124,7.3977 -24.4124,16.5234 z" />
            <path
               inkscape:connector-curvature="0"
               id="path3138"
               style="fill:#de253e;fill-opacity:1;fill-rule:nonzero;stroke:none"
               d="m 2598.3801,2260.8083 c 0,8.4741 10.1489,15.3437 22.6684,15.3437 12.5198,0 22.6687,-6.8696 22.6687,-15.3437 0,-8.4744 -10.1489,-15.3438 -22.6687,-15.3438 -12.5195,0 -22.6684,6.8694 -22.6684,15.3438 z" />
            <path
               inkscape:connector-curvature="0"
               id="path3140"
               style="fill:#e0263f;fill-opacity:1;fill-rule:nonzero;stroke:none"
               d="m 2600.1218,2260.8132 c 0,7.8222 9.3684,14.1633 20.9248,14.1633 11.5566,0 20.9248,-6.3411 20.9248,-14.1633 0,-7.8223 -9.3682,-14.1633 -20.9248,-14.1633 -11.5564,0 -20.9248,6.341 -20.9248,14.1633 z" />
            <path
               inkscape:connector-curvature="0"
               id="path3142"
               style="fill:#e1263f;fill-opacity:1;fill-rule:nonzero;stroke:none"
               d="m 2601.8637,2260.8181 c 0,7.1704 8.5874,12.9831 19.1809,12.9831 10.5935,0 19.1809,-5.8127 19.1809,-12.9831 0,-7.1704 -8.5874,-12.9832 -19.1809,-12.9832 -10.5935,0 -19.1809,5.8128 -19.1809,12.9832 z" />
            <path
               inkscape:connector-curvature="0"
               id="path3144"
               style="fill:#e22740;fill-opacity:1;fill-rule:nonzero;stroke:none"
               d="m 2603.6057,2260.8229 c 0,6.5186 7.8066,11.8028 17.437,11.8028 9.6303,0 17.4372,-5.2842 17.4372,-11.8028 0,-6.5185 -7.8069,-11.8027 -17.4372,-11.8027 -9.6304,0 -17.437,5.2842 -17.437,11.8027 z" />
            <path
               inkscape:connector-curvature="0"
               id="path3146"
               style="fill:#e42741;fill-opacity:1;fill-rule:nonzero;stroke:none"
               d="m 2605.3474,2260.8278 c 0,5.8667 7.0261,10.6223 15.6933,10.6223 8.6675,0 15.6934,-4.7556 15.6934,-10.6223 0,-5.8667 -7.0259,-10.6223 -15.6934,-10.6223 -8.6672,0 -15.6933,4.7556 -15.6933,10.6223 z" />
            <path
               inkscape:connector-curvature="0"
               id="path3148"
               style="fill:#e52841;fill-opacity:1;fill-rule:nonzero;stroke:none"
               d="m 2607.0893,2260.8327 c 0,5.2149 6.2454,9.4422 13.9495,9.4422 7.7043,0 13.9497,-4.2273 13.9497,-9.4422 0,-5.2146 -6.2454,-9.4419 -13.9497,-9.4419 -7.7041,0 -13.9495,4.2273 -13.9495,9.4419 z" />
            <path
               inkscape:connector-curvature="0"
               id="path3150"
               style="fill:#e62942;fill-opacity:1;fill-rule:nonzero;stroke:none"
               d="m 2608.831,2260.8376 c 0,4.563 5.4648,8.2617 12.2058,8.2617 6.7412,0 12.2058,-3.6987 12.2058,-8.2617 0,-4.5627 -5.4646,-8.2617 -12.2058,-8.2617 -6.741,0 -12.2058,3.699 -12.2058,8.2617 z" />
            <path
               inkscape:connector-curvature="0"
               id="path3152"
               style="fill:#e82943;fill-opacity:1;fill-rule:nonzero;stroke:none"
               d="m 2610.5729,2260.8088 c 0,3.9114 4.6839,7.082 10.462,7.082 5.778,0 10.4619,-3.1706 10.4619,-7.082 0,-3.9114 -4.6839,-7.082 -10.4619,-7.082 -5.7781,0 -10.462,3.1706 -10.462,7.082 z" />
            <path
               inkscape:connector-curvature="0"
               id="path3154"
               style="fill:#e92a43;fill-opacity:1;fill-rule:nonzero;stroke:none"
               d="m 2612.3149,2260.8137 c 0,3.2595 3.9031,5.9016 8.718,5.9016 4.815,0 8.7183,-2.6421 8.7183,-5.9016 0,-3.2596 -3.9033,-5.9016 -8.7183,-5.9016 -4.8149,0 -8.718,2.642 -8.718,5.9016 z" />
            <path
               inkscape:connector-curvature="0"
               id="path3156"
               style="fill:#ea2a44;fill-opacity:1;fill-rule:nonzero;stroke:none"
               d="m 2614.0568,2260.8186 c 0,2.6076 3.1223,4.7214 6.9742,4.7214 3.8518,0 6.9743,-2.1138 6.9743,-4.7214 0,-2.6077 -3.1225,-4.7215 -6.9743,-4.7215 -3.8519,0 -6.9742,2.1138 -6.9742,4.7215 z" />
            <path
               inkscape:connector-curvature="0"
               id="path3158"
               style="fill:#eb2b45;fill-opacity:1;fill-rule:nonzero;stroke:none"
               d="m 2615.7985,2260.8234 c 0,1.9558 2.3418,3.5411 5.2305,3.5411 2.8889,0 5.2305,-1.5853 5.2305,-3.5411 0,-1.9555 -2.3416,-3.541 -5.2305,-3.541 -2.8887,0 -5.2305,1.5855 -5.2305,3.541 z" />
            <path
               inkscape:connector-curvature="0"
               id="path3160"
               style="fill:#ed2b45;fill-opacity:1;fill-rule:nonzero;stroke:none"
               d="m 2617.5405,2260.8283 c 0,1.304 1.561,2.3609 3.4865,2.3609 1.9258,0 3.4869,-1.0569 3.4869,-2.3609 0,-1.3037 -1.5611,-2.3606 -3.4869,-2.3606 -1.9255,0 -3.4865,1.0569 -3.4865,2.3606 z" />
            <path
               inkscape:connector-curvature="0"
               id="path3162"
               style="fill:#ee2c46;fill-opacity:1;fill-rule:nonzero;stroke:none"
               d="m 2619.2824,2260.8332 c 0,0.6521 0.7803,1.1804 1.7427,1.1804 0.9626,0 1.7429,-0.5283 1.7429,-1.1804 0,-0.6519 -0.7803,-1.1802 -1.7429,-1.1802 -0.9624,0 -1.7427,0.5283 -1.7427,1.1802 z" />
          </g>
        </g>
      </g>
    </g>
    <path
       inkscape:connector-curvature="0"
       id="path3164"
       style="fill:#ff7a8e;fill-opacity:1;fill-rule:nonzero;stroke:none"
       d="m 246.25,656.54126 187.5,0 0,25 -187.5,0 0,-25 z" />
    <path
       inkscape:connector-curvature="0"
       id="path3166"
       style="fill:#a80018;fill-opacity:1;fill-rule:nonzero;stroke:none"
       d="m 332.47226,629.03788 c 1.29637,-0.35949 2.34912,-0.62562 3.70387,-0.67175 0.18738,-1.3425 0.56613,-2.36537 1.05925,-3.61687 0.498,-1.26438 0.86462,-2.74725 -0.17488,-3.94263 -1.49174,-1.716 -3.24212,-1.53374 -4.69812,-0.26787 -0.87837,0.7635 -1.06962,1.63725 -0.81,2.68425 -1.01438,-0.36738 -1.90737,-0.26512 -2.75812,0.52825 -1.41113,1.316 -1.77525,3.03775 -0.22463,4.70062 1.08025,1.15875 2.593,0.94938 3.90263,0.586 z" />
    <path
       inkscape:connector-curvature="0"
       id="path3168"
       style="fill:#ff7a8e;fill-opacity:1;fill-rule:evenodd;stroke:none"
       d="m 323.32363,602.79126 c -0.37625,-0.471 -0.715,-1.012 -0.979,-1.634 -2.27112,-5.35025 0.1095,-9.16838 4.64963,-11.0955 2.73812,-1.16213 4.97225,-0.6275 7.08799,1.14287 0.29176,-2.743 1.51526,-4.67475 4.29238,-5.74075 4.6045,-1.76749 8.96913,-0.67475 11.05225,4.75163 1.45138,3.7805 -0.72537,7.02237 -3.02762,9.624 -2.27875,2.57512 -4.083,4.701 -5.70688,7.76212 -2.32963,-0.75925 -4.393,-1.12212 -6.614,-1.365 l -10.75475,-3.44537 z" />
    <path
       inkscape:connector-curvature="0"
       id="path3170"
       style="fill:#ef2d47;fill-opacity:1;fill-rule:evenodd;stroke:none"
       d="m 334.09088,606.23663 c 0.55238,2.33038 -0.58075,4.61675 -1.82375,6.56775 -1.49687,2.34888 -2.67087,4.27788 -3.58213,6.93288 -2.77162,-0.4415 -5.01649,-0.31675 -7.79362,-0.0976 -2.80513,0.221 -5.96313,0.0489 -7.70137,-2.73287 -2.49488,-3.99263 -1.07425,-7.34888 2.31375,-9.46588 2.04325,-1.27662 3.89837,-1.13187 5.81512,0.0161 -0.1,-1.95463 0.45112,-3.50213 1.99225,-4.66575 l 10.77975,3.44537 z" />
    <path
       inkscape:connector-curvature="0"
       id="path3172"
       style="fill:#de1638;fill-opacity:1;fill-rule:nonzero;stroke:none"
       d="m 334.07838,606.23663 c -0.11937,-0.50387 -0.31713,-1.01012 -0.60887,-1.51525 -2.35413,-4.07712 -5.98451,-4.39849 -9.444,-2.40074 -0.2585,0.14924 -0.4965,0.30612 -0.71438,0.47062 1.87988,2.35225 5.01125,2.95925 7.89675,3.186 1.004,0.079 1.95063,0.159 2.8705,0.25937 z" />
    <text
       sodipodi:linespacing="125%"
       id="text4943"
       y="622.49835"
       x="301.23456"
       style="font-size:40px;font-style:normal;font-variant:normal;font-weight:normal;font-stretch:normal;line-height:125%;letter-spacing:0px;word-spacing:0px;fill:#ffffff;fill-opacity:1;stroke:none;font-family:Nimbus Sans L;-inkscape-font-specification:Nimbus Sans L"
       xml:space="preserve"><tspan
         style="font-size:18px;font-weight:bold;fill:#ffffff;-inkscape-font-specification:Nimbus Sans L Bold"
         y="622.49835"
         x="301.23456"
         id="tspan4945"
         sodipodi:role="line">I</tspan></text>
    <text
       sodipodi:linespacing="125%"
       id="text4947"
       y="622.67511"
       x="339.94867"
       style="font-size:40px;font-style:normal;font-variant:normal;font-weight:normal;font-stretch:normal;line-height:125%;letter-spacing:0px;word-spacing:0px;fill:#ffffff;fill-opacity:1;stroke:none;font-family:Nimbus Sans L;-inkscape-font-specification:Nimbus Sans L"
       xml:space="preserve"><tspan
         style="font-size:18px;font-weight:bold;fill:#ffffff;-inkscape-font-specification:Nimbus Sans L Bold"
         y="622.67511"
         x="339.94867"
         id="tspan4949"
         sodipodi:role="line">Free</tspan></text>
    <text
       sodipodi:linespacing="125%"
       id="text4951"
       y="646.39349"
       x="290.48151"
       style="font-size:24px;font-style:normal;font-variant:normal;font-weight:normal;font-stretch:normal;line-height:125%;letter-spacing:0px;word-spacing:0px;fill:#ffffff;fill-opacity:1;stroke:none;font-family:Nimbus Sans L;-inkscape-font-specification:Nimbus Sans L"
       xml:space="preserve"><tspan
         style="font-size:24px;font-weight:bold;letter-spacing:-0.5px;fill:#ffffff;-inkscape-font-specification:Nimbus Sans L Bold"
         y="646.39349"
         x="290.48151"
         id="tspan4953"
         sodipodi:role="line">Software</tspan></text>
    <text
       sodipodi:linespacing="125%"
       id="text4955"
       y="674.81757"
       x="266.42844"
       style="font-size:40px;font-style:normal;font-variant:normal;font-weight:normal;font-stretch:normal;line-height:125%;letter-spacing:0px;word-spacing:0px;fill:#a80018;fill-opacity:1;stroke:none;font-family:Nimbus Sans L;-inkscape-font-specification:Nimbus Sans L"
       xml:space="preserve"><tspan
         style="font-size:18px;font-weight:bold;fill:#a80018;fill-opacity:1;-inkscape-font-specification:Nimbus Sans L Bold"
         y="674.81757"
         x="266.42844"
         id="tspan4957"
         sodipodi:role="line">Show Your Love!</tspan></text>
  </g>
</svg>
