<?xml version="1.0" encoding="UTF-8" standalone="no"?>
<svg
   xmlns:dc="http://purl.org/dc/elements/1.1/"
   xmlns:cc="http://creativecommons.org/ns#"
   xmlns:rdf="http://www.w3.org/1999/02/22-rdf-syntax-ns#"
   xmlns:svg="http://www.w3.org/2000/svg"
   xmlns="http://www.w3.org/2000/svg"
   xmlns:sodipodi="http://sodipodi.sourceforge.net/DTD/sodipodi-0.dtd"
   xmlns:inkscape="http://www.inkscape.org/namespaces/inkscape"
   viewBox="0 0 448.0004 448.0014"
   version="1.1"
   id="svg4"
   sodipodi:docname="rss.svg"
   width="448.0004"
   height="448.0014"
   inkscape:version="0.92.2 2405546, 2018-03-11">
  <metadata
     id="metadata10">
    <rdf:RDF>
      <cc:Work
         rdf:about="">
        <dc:format>image/svg+xml</dc:format>
        <dc:type
           rdf:resource="http://purl.org/dc/dcmitype/StillImage" />
        <dc:title></dc:title>
      </cc:Work>
    </rdf:RDF>
  </metadata>
  <defs
     id="defs8" />
  <sodipodi:namedview
     pagecolor="#ffffff"
     bordercolor="#666666"
     borderopacity="1"
     objecttolerance="10"
     gridtolerance="10"
     guidetolerance="10"
     inkscape:pageopacity="0"
     inkscape:pageshadow="2"
     inkscape:window-width="1920"
     inkscape:window-height="1010"
     id="namedview6"
     showgrid="false"
     fit-margin-top="0"
     fit-margin-left="0"
     fit-margin-right="0"
     fit-margin-bottom="0"
     inkscape:zoom="0.4609375"
     inkscape:cx="224"
     inkscape:cy="224.001"
     inkscape:window-x="0"
     inkscape:window-y="23"
     inkscape:window-maximized="1"
     inkscape:current-layer="svg4" />
  <path
     d="m 128.081,383.95939 c 0,35.369 -28.672,64.041 -64.041,64.041 -35.369,0 -64.04,-28.672 -64.04,-64.041 0,-35.369 28.672,-64.041 64.041,-64.041 35.369,0 64.04,28.673 64.04,64.041 z m 175.66,47.25 c -8.354,-154.6 -132.185,-278.587 -286.95,-286.95 C 7.656,143.76539 0,151.10539 0,160.25339 v 48.069 c 0,8.415 6.49,15.472 14.887,16.018 111.832,7.284 201.473,96.702 208.772,208.772 0.547,8.397 7.604,14.887 16.018,14.887 h 48.069 c 9.149,10e-4 16.489,-7.655 15.995,-16.79 z m 144.249,0.288 C 439.596,197.67739 251.465,8.4453909 16.503,0.01039086 7.473,-0.31360914 0,6.9813909 0,16.016391 v 48.068 c 0,8.625 6.835,15.645 15.453,15.999 191.179,7.839 344.627,161.315999 352.465,352.464999 0.353,8.618 7.373,15.453 15.999,15.453 h 48.068 c 9.034,-0.001 16.329,-7.474 16.005,-16.504 z"
     id="path2"
     style="fill:#f7a000;fill-opacity:1"
     inkscape:connector-curvature="0" />
</svg>
