<?xml version="1.0" encoding="UTF-8" standalone="no"?>
<svg
   xmlns:dc="http://purl.org/dc/elements/1.1/"
   xmlns:cc="http://creativecommons.org/ns#"
   xmlns:rdf="http://www.w3.org/1999/02/22-rdf-syntax-ns#"
   xmlns:svg="http://www.w3.org/2000/svg"
   xmlns="http://www.w3.org/2000/svg"
   xmlns:sodipodi="http://sodipodi.sourceforge.net/DTD/sodipodi-0.dtd"
   xmlns:inkscape="http://www.inkscape.org/namespaces/inkscape"
   inkscape:version="1.0 (4035a4fb49, 2020-05-01)"
   height="384"
   width="547"
   sodipodi:docname="youtube.svg"
   id="svg4"
   version="1.1"
   viewBox="0 0 547 384">
  <metadata
     id="metadata10">
    <rdf:RDF>
      <cc:Work
         rdf:about="">
        <dc:format>image/svg+xml</dc:format>
        <dc:type
           rdf:resource="http://purl.org/dc/dcmitype/StillImage" />
        <dc:title></dc:title>
      </cc:Work>
    </rdf:RDF>
  </metadata>
  <defs
     id="defs8" />
  <sodipodi:namedview
     inkscape:current-layer="svg4"
     inkscape:window-maximized="1"
     inkscape:window-y="23"
     inkscape:window-x="0"
     inkscape:cy="192"
     inkscape:cx="273.067"
     inkscape:zoom="1.6182464"
     fit-margin-bottom="0"
     fit-margin-right="0"
     fit-margin-left="0"
     fit-margin-top="0"
     showgrid="false"
     id="namedview6"
     inkscape:window-height="1010"
     inkscape:window-width="1920"
     inkscape:pageshadow="2"
     inkscape:pageopacity="0"
     guidetolerance="10"
     gridtolerance="10"
     objecttolerance="10"
     borderopacity="1"
     bordercolor="#666666"
     pagecolor="#ffffff" />
  <path
     id="path2"
     d="M 534.722,60.083 C 528.441,36.433 509.935,17.807 486.438,11.486 443.848,0 273.067,0 273.067,0 273.067,0 102.287,0 59.696,11.486 36.199,17.808 17.693,36.433 11.412,60.083 0,102.95 0,192.388 0,192.388 c 0,0 0,89.438 11.412,132.305 6.281,23.65 24.787,41.5 48.284,47.821 C 102.287,384 273.067,384 273.067,384 c 0,0 170.78,0 213.371,-11.486 23.497,-6.321 42.003,-24.171 48.284,-47.821 11.412,-42.867 11.412,-132.305 11.412,-132.305 0,0 0,-89.438 -11.412,-132.305 z M 217.212,273.591 V 111.185 l 142.739,81.205 z" />
</svg>
