<?xml version="1.0" encoding="UTF-8" standalone="no"?>
<!-- Created with Inkscape (http://www.inkscape.org/) -->

<svg
   xmlns:dc="http://purl.org/dc/elements/1.1/"
   xmlns:cc="http://creativecommons.org/ns#"
   xmlns:rdf="http://www.w3.org/1999/02/22-rdf-syntax-ns#"
   xmlns:svg="http://www.w3.org/2000/svg"
   xmlns="http://www.w3.org/2000/svg"
   xmlns:xlink="http://www.w3.org/1999/xlink"
   xmlns:sodipodi="http://sodipodi.sourceforge.net/DTD/sodipodi-0.dtd"
   xmlns:inkscape="http://www.inkscape.org/namespaces/inkscape"
   width="2125.98"
   height="7086.6138"
   id="svg2"
   version="1.1"
   inkscape:version="0.48.1 r9760"
   sodipodi:docname="booth-banner.svg"
   inkscape:export-filename="/home/samtuke/fsfe/booth-banner.png"
   inkscape:export-xdpi="90.000847"
   inkscape:export-ydpi="90.000847">
  <defs
     id="defs4">
    <inkscape:perspective
       id="perspective2908"
       inkscape:persp3d-origin="372.04749 : 350.78752 : 1"
       inkscape:vp_z="744.09497 : 526.18127 : 1"
       inkscape:vp_y="0 : 1000 : 0"
       inkscape:vp_x="0 : 526.18127 : 1"
       sodipodi:type="inkscape:persp3d" />
    <inkscape:perspective
       sodipodi:type="inkscape:persp3d"
       inkscape:vp_x="0 : 526.18109 : 1"
       inkscape:vp_y="0 : 1000 : 0"
       inkscape:vp_z="744.09448 : 526.18109 : 1"
       inkscape:persp3d-origin="372.04724 : 350.78739 : 1"
       id="perspective3588" />
    <radialGradient
       r="109.34518"
       fy="318.1749"
       fx="364.58063"
       cy="318.1749"
       cx="364.58063"
       gradientTransform="matrix(1.4951422,-0.8632207,1.0476851,1.8146437,-704.75256,-844.64154)"
       gradientUnits="userSpaceOnUse"
       id="radialGradient3810"
       xlink:href="#linearGradient5683"
       inkscape:collect="always" />
    <radialGradient
       r="109.34518"
       fy="318.1749"
       fx="364.58063"
       cy="318.1749"
       cx="364.58063"
       gradientTransform="matrix(1.4951422,-0.8632207,1.0476851,1.8146437,-704.75256,-844.64154)"
       gradientUnits="userSpaceOnUse"
       id="radialGradient3807"
       xlink:href="#linearGradient5683"
       inkscape:collect="always" />
    <radialGradient
       r="109.34518"
       fy="318.1749"
       fx="364.58063"
       cy="318.1749"
       cx="364.58063"
       gradientTransform="matrix(1.4951422,-0.8632207,1.0476851,1.8146437,-704.75256,-844.64154)"
       gradientUnits="userSpaceOnUse"
       id="radialGradient3804"
       xlink:href="#linearGradient5683"
       inkscape:collect="always" />
    <radialGradient
       r="109.34518"
       fy="318.1749"
       fx="364.58063"
       cy="318.1749"
       cx="364.58063"
       gradientTransform="matrix(1.4951422,-0.8632207,1.0476851,1.8146437,-135.53574,-796.07399)"
       gradientUnits="userSpaceOnUse"
       id="radialGradient3744"
       xlink:href="#linearGradient5683"
       inkscape:collect="always" />
    <radialGradient
       r="109.34518"
       fy="318.1749"
       fx="364.58063"
       cy="318.1749"
       cx="364.58063"
       gradientTransform="matrix(1.4951422,-0.8632207,1.0476851,1.8146437,28.46426,-824.07399)"
       gradientUnits="userSpaceOnUse"
       id="radialGradient3741"
       xlink:href="#linearGradient5683"
       inkscape:collect="always" />
    <radialGradient
       r="109.34518"
       fy="318.1749"
       fx="364.58063"
       cy="318.1749"
       cx="364.58063"
       gradientTransform="matrix(1.4951422,-0.8632207,1.0476851,1.8146437,188.46426,-796.07399)"
       gradientUnits="userSpaceOnUse"
       id="radialGradient3738"
       xlink:href="#linearGradient5683"
       inkscape:collect="always" />
    <radialGradient
       r="109.34518"
       fy="318.1749"
       fx="364.58063"
       cy="318.1749"
       cx="364.58063"
       gradientTransform="matrix(1.4951422,-0.8632207,1.0476851,1.8146437,-635.53574,-796.07399)"
       gradientUnits="userSpaceOnUse"
       id="radialGradient3735"
       xlink:href="#linearGradient5683"
       inkscape:collect="always" />
    <radialGradient
       r="109.34518"
       fy="318.1749"
       fx="364.58063"
       cy="318.1749"
       cx="364.58063"
       gradientTransform="matrix(1.4951422,-0.8632207,1.0476851,1.8146437,-471.53574,-824.07399)"
       gradientUnits="userSpaceOnUse"
       id="radialGradient3732"
       xlink:href="#linearGradient5683"
       inkscape:collect="always" />
    <radialGradient
       r="109.34518"
       fy="318.1749"
       fx="364.58063"
       cy="318.1749"
       cx="364.58063"
       gradientTransform="matrix(1.4951422,-0.8632207,1.0476851,1.8146437,-311.53574,-796.07399)"
       gradientUnits="userSpaceOnUse"
       id="radialGradient3729"
       xlink:href="#linearGradient5683"
       inkscape:collect="always" />
    <radialGradient
       r="64.575188"
       fy="152.00642"
       fx="322.91074"
       cy="152.00642"
       cx="322.91074"
       gradientTransform="matrix(1.4042858,0,0,1.5554034,-113.88202,-90.03359)"
       gradientUnits="userSpaceOnUse"
       id="radialGradient3726"
       xlink:href="#linearGradient5683"
       inkscape:collect="always" />
    <radialGradient
       r="64.575188"
       fy="152.00642"
       fx="322.91074"
       cy="152.00642"
       cx="322.91074"
       gradientTransform="matrix(1.4042858,0,0,1.5554034,-113.88202,-90.03359)"
       gradientUnits="userSpaceOnUse"
       id="radialGradient3724"
       xlink:href="#linearGradient5683"
       inkscape:collect="always" />
    <radialGradient
       r="64.575188"
       fy="152.00642"
       fx="322.91074"
       cy="152.00642"
       cx="322.91074"
       gradientTransform="matrix(1.4042858,0,0,1.5554034,-113.88202,-90.03359)"
       gradientUnits="userSpaceOnUse"
       id="radialGradient3722"
       xlink:href="#linearGradient5683"
       inkscape:collect="always" />
    <radialGradient
       r="64.575188"
       fy="152.00642"
       fx="322.91074"
       cy="152.00642"
       cx="322.91074"
       gradientTransform="matrix(1.4042858,0,0,1.5554034,-113.88202,-90.03359)"
       gradientUnits="userSpaceOnUse"
       id="radialGradient3720"
       xlink:href="#linearGradient5683"
       inkscape:collect="always" />
    <radialGradient
       r="64.575188"
       fy="152.00642"
       fx="322.91074"
       cy="152.00642"
       cx="322.91074"
       gradientTransform="matrix(1.4042858,0,0,1.5554034,-113.88202,-90.03359)"
       gradientUnits="userSpaceOnUse"
       id="radialGradient3718"
       xlink:href="#linearGradient5683"
       inkscape:collect="always" />
    <radialGradient
       r="64.575188"
       fy="152.00642"
       fx="322.91074"
       cy="152.00642"
       cx="322.91074"
       gradientTransform="matrix(1.4042858,0,0,1.5554034,-113.88202,-90.03359)"
       gradientUnits="userSpaceOnUse"
       id="radialGradient3716"
       xlink:href="#linearGradient5683"
       inkscape:collect="always" />
    <linearGradient
       y2="405.31586"
       x2="637.78827"
       y1="202.01785"
       x1="637.78827"
       gradientTransform="translate(28,-834)"
       gradientUnits="userSpaceOnUse"
       id="linearGradient3714"
       xlink:href="#linearGradient10832"
       inkscape:collect="always" />
    <linearGradient
       y2="258.88544"
       x2="196.43111"
       y1="330.13321"
       x1="196.43111"
       gradientTransform="translate(28,-834)"
       gradientUnits="userSpaceOnUse"
       id="linearGradient3712"
       xlink:href="#linearGradient10822"
       inkscape:collect="always" />
    <radialGradient
       r="109.34518"
       fy="318.1749"
       fx="364.58063"
       cy="318.1749"
       cx="364.58063"
       gradientTransform="matrix(1.4951422,-0.8632207,1.0476851,1.8146437,-190.03316,37.926008)"
       gradientUnits="userSpaceOnUse"
       id="radialGradient3710"
       xlink:href="#linearGradient5683"
       inkscape:collect="always" />
    <radialGradient
       r="109.34518"
       fy="318.1749"
       fx="364.58063"
       cy="318.1749"
       cx="364.58063"
       gradientTransform="matrix(1.4951422,-0.8632207,1.0476851,1.8146437,-350.03316,9.926008)"
       gradientUnits="userSpaceOnUse"
       id="radialGradient3708"
       xlink:href="#linearGradient5683"
       inkscape:collect="always" />
    <radialGradient
       r="109.34518"
       fy="318.1749"
       fx="364.58063"
       cy="318.1749"
       cx="364.58063"
       gradientTransform="matrix(1.4951422,-0.8632207,1.0476851,1.8146437,-514.03316,37.926008)"
       gradientUnits="userSpaceOnUse"
       id="radialGradient3706"
       xlink:href="#linearGradient5683"
       inkscape:collect="always" />
    <radialGradient
       r="109.34518"
       fy="318.1749"
       fx="364.58063"
       cy="318.1749"
       cx="364.58063"
       gradientTransform="matrix(1.4951422,-0.8632207,1.0476851,1.8146437,-190.03316,37.926008)"
       gradientUnits="userSpaceOnUse"
       id="radialGradient3704"
       xlink:href="#linearGradient5683"
       inkscape:collect="always" />
    <radialGradient
       r="109.34518"
       fy="318.1749"
       fx="364.58063"
       cy="318.1749"
       cx="364.58063"
       gradientTransform="matrix(1.4951422,-0.8632207,1.0476851,1.8146437,-350.03316,9.926008)"
       gradientUnits="userSpaceOnUse"
       id="radialGradient3702"
       xlink:href="#linearGradient5683"
       inkscape:collect="always" />
    <radialGradient
       r="109.34518"
       fy="318.1749"
       fx="364.58063"
       cy="318.1749"
       cx="364.58063"
       gradientTransform="matrix(1.4951422,-0.8632207,1.0476851,1.8146437,-514.03316,37.926008)"
       gradientUnits="userSpaceOnUse"
       id="radialGradient3700"
       xlink:href="#linearGradient5683"
       inkscape:collect="always" />
    <clipPath
       id="clipPath3539">
      <path
         id="path3541"
         d="m 0,0 3390.47,0 0,395.159 L 0,395.159 0,0 z"
         inkscape:connector-curvature="0" />
    </clipPath>
    <inkscape:perspective
       sodipodi:type="inkscape:persp3d"
       inkscape:vp_x="0 : 526.18109 : 1"
       inkscape:vp_y="0 : 1000 : 0"
       inkscape:vp_z="744.09448 : 526.18109 : 1"
       inkscape:persp3d-origin="372.04724 : 350.78739 : 1"
       id="perspective11038" />
    <radialGradient
       r="64.575188"
       fy="152.00642"
       fx="322.91074"
       cy="152.00642"
       cx="322.91074"
       gradientTransform="matrix(1.4042858,0,0,1.5554034,-113.88202,-90.03359)"
       gradientUnits="userSpaceOnUse"
       id="radialGradient10973"
       xlink:href="#linearGradient5683"
       inkscape:collect="always" />
    <radialGradient
       r="64.575188"
       fy="152.00642"
       fx="322.91074"
       cy="152.00642"
       cx="322.91074"
       gradientTransform="matrix(1.4042858,0,0,1.5554034,-113.88202,-90.03359)"
       gradientUnits="userSpaceOnUse"
       id="radialGradient10971"
       xlink:href="#linearGradient5683"
       inkscape:collect="always" />
    <radialGradient
       r="64.575188"
       fy="152.00642"
       fx="322.91074"
       cy="152.00642"
       cx="322.91074"
       gradientTransform="matrix(1.4042858,0,0,1.5554034,-113.88202,-90.03359)"
       gradientUnits="userSpaceOnUse"
       id="radialGradient10969"
       xlink:href="#linearGradient5683"
       inkscape:collect="always" />
    <radialGradient
       r="64.575188"
       fy="152.00642"
       fx="322.91074"
       cy="152.00642"
       cx="322.91074"
       gradientTransform="matrix(1.4042858,0,0,1.5554034,-113.88202,-90.03359)"
       gradientUnits="userSpaceOnUse"
       id="radialGradient10967"
       xlink:href="#linearGradient5683"
       inkscape:collect="always" />
    <radialGradient
       r="64.575188"
       fy="152.00642"
       fx="322.91074"
       cy="152.00642"
       cx="322.91074"
       gradientTransform="matrix(1.4042858,0,0,1.5554034,-113.88202,-90.03359)"
       gradientUnits="userSpaceOnUse"
       id="radialGradient10965"
       xlink:href="#linearGradient5683"
       inkscape:collect="always" />
    <radialGradient
       r="64.575188"
       fy="152.00642"
       fx="322.91074"
       cy="152.00642"
       cx="322.91074"
       gradientTransform="matrix(1.4042858,0,0,1.5554034,-113.88202,-90.03359)"
       gradientUnits="userSpaceOnUse"
       id="radialGradient10963"
       xlink:href="#linearGradient5683"
       inkscape:collect="always" />
    <radialGradient
       r="109.34518"
       fy="318.1749"
       fx="364.58063"
       cy="318.1749"
       cx="364.58063"
       gradientTransform="matrix(1.4951422,-0.8632207,1.0476851,1.8146437,-190.03316,37.926008)"
       gradientUnits="userSpaceOnUse"
       id="radialGradient10957"
       xlink:href="#linearGradient5683"
       inkscape:collect="always" />
    <radialGradient
       r="109.34518"
       fy="318.1749"
       fx="364.58063"
       cy="318.1749"
       cx="364.58063"
       gradientTransform="matrix(1.4951422,-0.8632207,1.0476851,1.8146437,-350.03316,9.926008)"
       gradientUnits="userSpaceOnUse"
       id="radialGradient10955"
       xlink:href="#linearGradient5683"
       inkscape:collect="always" />
    <radialGradient
       r="109.34518"
       fy="318.1749"
       fx="364.58063"
       cy="318.1749"
       cx="364.58063"
       gradientTransform="matrix(1.4951422,-0.8632207,1.0476851,1.8146437,-514.03316,37.926008)"
       gradientUnits="userSpaceOnUse"
       id="radialGradient10953"
       xlink:href="#linearGradient5683"
       inkscape:collect="always" />
    <radialGradient
       r="109.34518"
       fy="318.1749"
       fx="364.58063"
       cy="318.1749"
       cx="364.58063"
       gradientTransform="matrix(1.4951422,-0.8632207,1.0476851,1.8146437,-190.03316,37.926008)"
       gradientUnits="userSpaceOnUse"
       id="radialGradient10951"
       xlink:href="#linearGradient5683"
       inkscape:collect="always" />
    <radialGradient
       r="109.34518"
       fy="318.1749"
       fx="364.58063"
       cy="318.1749"
       cx="364.58063"
       gradientTransform="matrix(1.4951422,-0.8632207,1.0476851,1.8146437,-350.03316,9.926008)"
       gradientUnits="userSpaceOnUse"
       id="radialGradient10949"
       xlink:href="#linearGradient5683"
       inkscape:collect="always" />
    <radialGradient
       r="109.34518"
       fy="318.1749"
       fx="364.58063"
       cy="318.1749"
       cx="364.58063"
       gradientTransform="matrix(1.4951422,-0.8632207,1.0476851,1.8146437,-514.03316,37.926008)"
       gradientUnits="userSpaceOnUse"
       id="radialGradient10947"
       xlink:href="#linearGradient5683"
       inkscape:collect="always" />
    <inkscape:perspective
       sodipodi:type="inkscape:persp3d"
       inkscape:vp_x="0 : 245.09122 : 1"
       inkscape:vp_y="0 : 1000 : 0"
       inkscape:vp_z="1115.9464 : 245.09122 : 1"
       inkscape:persp3d-origin="557.97321 : 163.39414 : 1"
       id="perspective10871" />
    <inkscape:perspective
       sodipodi:type="inkscape:persp3d"
       inkscape:vp_x="0 : 238.3638 : 1"
       inkscape:vp_y="0 : 1000 : 0"
       inkscape:vp_z="939.74725 : 238.3638 : 1"
       inkscape:persp3d-origin="469.87363 : 158.9092 : 1"
       id="perspective2495" />
    <g
       id="s">
      <g
         id="c">
        <path
           d="M 0,0 0,1 0.5,1 0,0 z"
           id="t"
           transform="matrix(0.9510565,0.309017,-0.309017,0.9510565,0,-1)"
           inkscape:connector-curvature="0" />
        <use
           height="1052.3622"
           width="744.09448"
           y="0"
           x="0"
           transform="scale(-1,1)"
           xlink:href="#t"
           id="use9" />
      </g>
      <g
         id="a">
        <use
           height="1052.3622"
           width="744.09448"
           y="0"
           x="0"
           transform="matrix(0.309017,0.9510565,-0.9510565,0.309017,0,0)"
           xlink:href="#c"
           id="use12" />
        <use
           height="1052.3622"
           width="744.09448"
           y="0"
           x="0"
           transform="matrix(-0.809017,0.5877853,-0.5877853,-0.809017,0,0)"
           xlink:href="#c"
           id="use14" />
      </g>
      <use
         height="1052.3622"
         width="744.09448"
         y="0"
         x="0"
         transform="scale(-1,1)"
         xlink:href="#a"
         id="use16" />
    </g>
    <inkscape:perspective
       id="perspective5435"
       inkscape:persp3d-origin="372.04749 : 350.78752 : 1"
       inkscape:vp_z="744.09497 : 526.18127 : 1"
       inkscape:vp_y="0 : 1000 : 0"
       inkscape:vp_x="0 : 526.18127 : 1"
       sodipodi:type="inkscape:persp3d" />
    <inkscape:perspective
       id="perspective5544"
       inkscape:persp3d-origin="557.97321 : 163.39414 : 1"
       inkscape:vp_z="1115.9464 : 245.09122 : 1"
       inkscape:vp_y="0 : 1000 : 0"
       inkscape:vp_x="0 : 245.09122 : 1"
       sodipodi:type="inkscape:persp3d" />
    <inkscape:perspective
       id="perspective12"
       inkscape:persp3d-origin="372.04724 : 350.78739 : 1"
       inkscape:vp_z="744.09448 : 526.18109 : 1"
       inkscape:vp_y="0 : 1000 : 0"
       inkscape:vp_x="0 : 526.18109 : 1"
       sodipodi:type="inkscape:persp3d" />
    <inkscape:perspective
       id="perspective12-0"
       inkscape:persp3d-origin="372.04724 : 350.78739 : 1"
       inkscape:vp_z="744.09448 : 526.18109 : 1"
       inkscape:vp_y="0 : 1000 : 0"
       inkscape:vp_x="0 : 526.18109 : 1"
       sodipodi:type="inkscape:persp3d" />
    <radialGradient
       r="64.575188"
       fy="152.00642"
       fx="322.91074"
       cy="152.00642"
       cx="322.91074"
       gradientTransform="matrix(1.4042858,0,0,1.5554034,-113.88202,-90.03359)"
       gradientUnits="userSpaceOnUse"
       id="radialGradient2475"
       xlink:href="#linearGradient5683"
       inkscape:collect="always" />
    <radialGradient
       r="64.575188"
       fy="152.00642"
       fx="322.91074"
       cy="152.00642"
       cx="322.91074"
       gradientTransform="matrix(1.4042858,0,0,1.5554034,-113.88202,-90.03359)"
       gradientUnits="userSpaceOnUse"
       id="radialGradient2473"
       xlink:href="#linearGradient5683"
       inkscape:collect="always" />
    <radialGradient
       r="64.575188"
       fy="152.00642"
       fx="322.91074"
       cy="152.00642"
       cx="322.91074"
       gradientTransform="matrix(1.4042858,0,0,1.5554034,-113.88202,-90.03359)"
       gradientUnits="userSpaceOnUse"
       id="radialGradient2471"
       xlink:href="#linearGradient5683"
       inkscape:collect="always" />
    <radialGradient
       r="64.575188"
       fy="152.00642"
       fx="322.91074"
       cy="152.00642"
       cx="322.91074"
       gradientTransform="matrix(1.4042858,0,0,1.5554034,-113.88202,-90.03359)"
       gradientUnits="userSpaceOnUse"
       id="radialGradient2457"
       xlink:href="#linearGradient5683"
       inkscape:collect="always" />
    <radialGradient
       r="64.575188"
       fy="152.00642"
       fx="322.91074"
       cy="152.00642"
       cx="322.91074"
       gradientTransform="matrix(1.4042858,0,0,1.5554034,-113.88202,-90.03359)"
       gradientUnits="userSpaceOnUse"
       id="radialGradient2455"
       xlink:href="#linearGradient5683"
       inkscape:collect="always" />
    <radialGradient
       r="64.575188"
       fy="152.00642"
       fx="322.91074"
       cy="152.00642"
       cx="322.91074"
       gradientTransform="matrix(1.4042858,0,0,1.5554034,-113.88202,-90.03359)"
       gradientUnits="userSpaceOnUse"
       id="radialGradient2453"
       xlink:href="#linearGradient5683"
       inkscape:collect="always" />
    <radialGradient
       r="109.34518"
       fy="318.1749"
       fx="364.58063"
       cy="318.1749"
       cx="364.58063"
       gradientTransform="matrix(1.4951422,-0.8632207,1.0476851,1.8146437,-514.03316,37.926008)"
       gradientUnits="userSpaceOnUse"
       id="radialGradient5783"
       xlink:href="#linearGradient5683"
       inkscape:collect="always" />
    <radialGradient
       r="109.34518"
       fy="318.1749"
       fx="364.58063"
       cy="318.1749"
       cx="364.58063"
       gradientTransform="matrix(1.4951422,-0.8632207,1.0476851,1.8146437,-514.03316,37.926008)"
       gradientUnits="userSpaceOnUse"
       id="radialGradient5769"
       xlink:href="#linearGradient5683"
       inkscape:collect="always" />
    <radialGradient
       r="109.34518"
       fy="318.1749"
       fx="364.58063"
       cy="318.1749"
       cx="364.58063"
       gradientTransform="matrix(1.4951422,-0.8632207,1.0476851,1.8146437,-190.03316,37.926008)"
       gradientUnits="userSpaceOnUse"
       id="radialGradient5757"
       xlink:href="#linearGradient5683"
       inkscape:collect="always" />
    <radialGradient
       r="109.34518"
       fy="318.1749"
       fx="364.58063"
       cy="318.1749"
       cx="364.58063"
       gradientTransform="matrix(1.4951422,-0.8632207,1.0476851,1.8146437,-350.03316,17.926008)"
       gradientUnits="userSpaceOnUse"
       id="radialGradient5753"
       xlink:href="#linearGradient5683"
       inkscape:collect="always" />
    <radialGradient
       r="64.575188"
       fy="152.00642"
       fx="322.91074"
       cy="152.00642"
       cx="322.91074"
       gradientTransform="matrix(1.4042858,0,0,1.5554034,-113.88202,-90.03359)"
       gradientUnits="userSpaceOnUse"
       id="radialGradient5739"
       xlink:href="#linearGradient5683"
       inkscape:collect="always" />
    <radialGradient
       r="109.34518"
       fy="318.1749"
       fx="364.58063"
       cy="318.1749"
       cx="364.58063"
       gradientTransform="matrix(1.4951422,-0.8632207,1.0476851,1.8146437,-190.03316,37.926008)"
       gradientUnits="userSpaceOnUse"
       id="radialGradient5737"
       xlink:href="#linearGradient5683"
       inkscape:collect="always" />
    <radialGradient
       r="64.575188"
       fy="152.00642"
       fx="322.91074"
       cy="152.00642"
       cx="322.91074"
       gradientTransform="matrix(1.4042858,0,0,1.5554034,-113.88202,-90.03359)"
       gradientUnits="userSpaceOnUse"
       id="radialGradient5731"
       xlink:href="#linearGradient5683"
       inkscape:collect="always" />
    <radialGradient
       r="109.34518"
       fy="318.1749"
       fx="364.58063"
       cy="318.1749"
       cx="364.58063"
       gradientTransform="matrix(1.4951422,-0.8632207,1.0476851,1.8146437,-350.03316,17.926008)"
       gradientUnits="userSpaceOnUse"
       id="radialGradient5729"
       xlink:href="#linearGradient5683"
       inkscape:collect="always" />
    <radialGradient
       gradientUnits="userSpaceOnUse"
       gradientTransform="matrix(1.4951422,-0.8632207,1.0476851,1.8146437,-514.03316,37.926008)"
       r="109.34518"
       fy="318.1749"
       fx="364.58063"
       cy="318.1749"
       cx="364.58063"
       id="radialGradient5723"
       xlink:href="#linearGradient5683"
       inkscape:collect="always" />
    <radialGradient
       gradientTransform="matrix(1.4042858,0,0,1.5554034,-113.88202,-90.03359)"
       gradientUnits="userSpaceOnUse"
       r="64.575188"
       fy="152.00642"
       fx="322.91074"
       cy="152.00642"
       cx="322.91074"
       id="radialGradient5689"
       xlink:href="#linearGradient5683"
       inkscape:collect="always" />
    <inkscape:perspective
       id="perspective4903"
       inkscape:persp3d-origin="372.04724 : 350.78739 : 1"
       inkscape:vp_z="744.09448 : 526.18109 : 1"
       inkscape:vp_y="0 : 1000 : 0"
       inkscape:vp_x="0 : 526.18109 : 1"
       sodipodi:type="inkscape:persp3d" />
    <linearGradient
       id="linearGradient5683">
      <stop
         id="stop5685"
         offset="0"
         style="stop-color:#ffffff;stop-opacity:1;" />
      <stop
         style="stop-color:#ffffff;stop-opacity:1;"
         offset="0.51881462"
         id="stop5711" />
      <stop
         id="stop5687"
         offset="1"
         style="stop-color:#3394ce;stop-opacity:1;" />
    </linearGradient>
    <linearGradient
       id="linearGradient5794">
      <stop
         id="stop5796"
         offset="0"
         style="stop-color:#ffffff;stop-opacity:1;" />
      <stop
         id="stop5798"
         offset="1"
         style="stop-color:#ffffff;stop-opacity:0;" />
    </linearGradient>
    <linearGradient
       id="linearGradient10822">
      <stop
         id="stop10828"
         offset="0"
         style="stop-color:#ffffff;stop-opacity:1;" />
      <stop
         style="stop-color:#ffffff;stop-opacity:0;"
         offset="1"
         id="stop10826" />
    </linearGradient>
    <linearGradient
       id="linearGradient10832"
       inkscape:collect="always">
      <stop
         id="stop10834"
         offset="0"
         style="stop-color:#6a6a6a;stop-opacity:1;" />
      <stop
         id="stop10836"
         offset="1"
         style="stop-color:#6a6a6a;stop-opacity:0;" />
    </linearGradient>
    <linearGradient
       id="linearGradient10981">
      <stop
         style="stop-color:#ffffff;stop-opacity:1;"
         offset="0"
         id="stop10983" />
      <stop
         id="stop10985"
         offset="0.51881462"
         style="stop-color:#ffffff;stop-opacity:1;" />
      <stop
         style="stop-color:#b11107;stop-opacity:1;"
         offset="1"
         id="stop10987" />
    </linearGradient>
    <linearGradient
       id="linearGradient11103">
      <stop
         id="stop11105"
         offset="0"
         style="stop-color:#ffffff;stop-opacity:1;" />
      <stop
         style="stop-color:#ffffff;stop-opacity:1;"
         offset="0.51881462"
         id="stop11107" />
      <stop
         id="stop11109"
         offset="1"
         style="stop-color:#000000;stop-opacity:1;" />
    </linearGradient>
    <linearGradient
       id="linearGradient3531">
      <stop
         style="stop-color:#ffffff;stop-opacity:1;"
         offset="0"
         id="stop3533" />
      <stop
         id="stop3535"
         offset="0.51881462"
         style="stop-color:#ffffff;stop-opacity:1;" />
      <stop
         style="stop-color:#fdcb32;stop-opacity:1;"
         offset="1"
         id="stop3537" />
    </linearGradient>
    <linearGradient
       id="linearGradient3939">
      <stop
         id="stop3941"
         offset="0"
         style="stop-color:#202d79;stop-opacity:1;" />
      <stop
         id="stop3943"
         offset="1"
         style="stop-color:#9ba6e7;stop-opacity:1;" />
    </linearGradient>
    <linearGradient
       inkscape:collect="always"
       xlink:href="#linearGradient3939"
       id="linearGradient4145"
       gradientUnits="userSpaceOnUse"
       x1="144.284"
       y1="244.46718"
       x2="144.284"
       y2="103.16322" />
    <clipPath
       id="clipPath4200"
       clipPathUnits="userSpaceOnUse">
      <path
         id="path4202"
         d="m 0,5669.292 2267.717,0 L 2267.717,0 0,0 0,5669.292 z"
         inkscape:connector-curvature="0" />
    </clipPath>
  </defs>
  <sodipodi:namedview
     id="base"
     pagecolor="#ffffff"
     bordercolor="#666666"
     borderopacity="1.0"
     inkscape:pageopacity="0.0"
     inkscape:pageshadow="2"
     inkscape:zoom="0.085112877"
     inkscape:cx="-75.18623"
     inkscape:cy="4150.9203"
     inkscape:document-units="px"
     inkscape:current-layer="layer1"
     showgrid="false"
     units="px"
     inkscape:window-width="1920"
     inkscape:window-height="1033"
     inkscape:window-x="-3"
     inkscape:window-y="-3"
     inkscape:window-maximized="1"
     showguides="true"
     inkscape:guide-bbox="true"
     inkscape:showpageshadow="true"
     showborder="false" />
  <metadata
     id="metadata7">
    <rdf:RDF>
      <cc:Work
         rdf:about="">
        <dc:format>image/svg+xml</dc:format>
        <dc:type
           rdf:resource="http://purl.org/dc/dcmitype/StillImage" />
        <dc:title></dc:title>
      </cc:Work>
    </rdf:RDF>
  </metadata>
  <g
     inkscape:label="Layer 1"
     inkscape:groupmode="layer"
     id="layer1"
     transform="translate(0,6034.2519)">
    <g
       transform="matrix(0,4.7121492,-11.199952,0,3026.8784,-6034.2518)"
       id="g3022">
      <path
         id="path3005"
         d="M 0,70.25 C 0,70.25 46.147,81 76.25,81 101.807,81 168.86,58.281 229,57.5 c 51.333,-0.667 70.938,20.499 99.999,20.499 33.291,0 119.333,-32 152.001,-31.999 59.986,0.002 87.557,26 120.666,26 53.259,0 146.952,-38.667 213.334,-38.667 66.382,0 231,34.667 306,32.667 56.979,-1.52 90.324,-22.789 192,-26 95,-3 167.096,50.162 260,43 118.888,-9.165 227,-59.083 227,-59.083 V 143 c 0,0 -61.729,-23.097 -195,-32 -83.473,-5.576 -198,20 -289,20 -147.824,0 -290,-40 -337,-39 -64.051,1.362 -122.672,38 -196,38 -73.328,0 -140.75,-43 -202.5,-43 -34.819,0 -114.167,20.334 -154.834,21 -42.988,0.704 -79.682,-14 -104.166,-14 -28.553,0 -55,10.667 -95,10 -28.671,-0.479 -49.694,-20.25 -91,-20.25 C 58.312,83.75 30.875,94.666 0,94.666 V 70.25 z"
         inkscape:connector-curvature="0"
         style="opacity:0.65;fill:#4ad2f0" />
      <path
         id="path3007"
         d="M 0,57.667 C 0,57.667 33.5,69 52,69 74,69 129.003,58.349 154.667,58.333 175.338,58.321 225.839,73.5 241.5,73.5 275.06,73.5 268.841,61 355,61 c 32.866,0 65.898,13.307 102.5,12 56,-2 88.276,-20.306 135.5,-20 74.868,0.485 160.35,14.551 229.047,14.551 C 912.356,67.551 1016.487,20 1113,20 c 29.803,0 213.959,22 272,22 47.959,0 183.663,-35 263,-35 94.987,0 152,57 152,57 v 77 c 0,0 -30.22,-22.679 -76,-21 -41.524,1.523 -96,30 -181,30 -83.395,0 -212.229,-57 -300,-57 -72,0 -194.156,32.758 -278,34 C 890.908,128.098 717.856,108 670,108 609.022,108 562.167,82.666 517.5,82 480.288,81.445 422.561,100 386,100 358.995,100 327.797,80.5 299.5,80.5 237.75,80.5 213.504,94.667 148.667,94.667 124.404,94.667 96.834,83.167 67.5,82.5 24.003,81.511 0,89 0,89 V 57.667 z"
         inkscape:connector-curvature="0"
         style="opacity:0.65;fill:#d0f400" />
      <path
         id="path3009"
         d="m 0,81.102 c 0,0 62.048,-19.602 90,-19.602 40.672,0 101.072,14.499 139.666,14.499 38.594,0 27.404,-14.801 78.334,-15.999 56.667,-1.333 99.266,21 134,21 34.734,0 79.734,-18.826 133.766,-18.826 52.488,0 82.617,18.418 133.561,18.418 C 774.164,80.592 875.197,24 930,24 c 54.803,0 134.231,25 179,25 51.128,0 147,-37 231,-37 88,0 144.72,24.638 242,19 108.821,-6.307 197.041,-31 218,-31 v 130 c 0,0 -69.777,-65.204 -200,-61 -77.886,2.515 -336.004,67.163 -423,68 C 1073,138 944.75,91 883,91 818.163,91 715.978,131.5 655,131.5 594.022,131.5 535.259,95 482,95 434.144,95 369.953,106.5 327.5,106.5 292.766,106.5 220.435,80 161,80 127.634,80 96.389,99.129 64.999,99.333 26.169,99.583 12.607,85.974 0,83.75 v -2.648 z"
         inkscape:connector-curvature="0"
         style="opacity:0.2;fill:#3394ce" />
    </g>
    <text
       sodipodi:linespacing="125%"
       id="text3674"
       y="-1639.9152"
       x="4680.4155"
       style="font-size:191.13648987px;font-style:normal;font-variant:normal;font-weight:normal;font-stretch:normal;line-height:125%;letter-spacing:0px;word-spacing:0px;fill:#202d79;fill-opacity:1;stroke:none;font-family:Nimbus Sans L;-inkscape-font-specification:Nimbus Sans L"
       xml:space="preserve"><tspan
         y="-1639.9152"
         x="4680.4155"
         id="tspan3676"
         sodipodi:role="line"
         style="letter-spacing:34.31994629" /></text>
    <text
       xml:space="preserve"
       style="font-size:191.13648987px;font-style:normal;font-variant:normal;font-weight:normal;font-stretch:normal;line-height:125%;letter-spacing:0px;word-spacing:0px;fill:#202d79;fill-opacity:1;stroke:none;font-family:Nimbus Sans L;-inkscape-font-specification:Nimbus Sans L"
       x="4680.4155"
       y="-3540.72"
       id="text3079"
       sodipodi:linespacing="125%"><tspan
         style="letter-spacing:34.31994629"
         sodipodi:role="line"
         id="tspan3081"
         x="4680.4155"
         y="-3540.72" /></text>
    <g
       id="g5520">
      <g
         id="g4028"
         transform="matrix(16.211428,0,0,16.211428,22014.282,784.55519)">
        <path
           style="fill:#d0f400"
           d="m -1343.3783,-416.9782 c 0.2343,-0.60713 0.6912,-1.06304 1.2406,-1.30975 0.5493,-0.2467 1.1912,-0.28398 1.7953,-0.0532 0,0 6.8045,5.11408 6.8045,5.11408 0,0 8.4977,0.72768 8.4977,0.72768 0.604,0.23055 1.0558,0.68543 1.2982,1.23435 0.2423,0.54892 0.2751,1.19189 0.041,1.79901 0,0 -5.1501,6.85593 -5.1501,6.85593 0,0 -0.7853,8.52215 -0.7853,8.52215 -0.2343,0.60692 -0.6912,1.06305 -1.2406,1.30975 -0.5493,0.2467 -1.191,0.28399 -1.7953,0.0534 0,0 -6.8045,-5.11429 -6.8045,-5.11429 0,0 -8.4977,-0.72768 -8.4977,-0.72768 -0.604,-0.23055 -1.056,-0.68543 -1.2982,-1.23435 -0.2423,-0.54892 -0.2748,-1.19188 -0.041,-1.79901 0,0 5.1502,-6.85571 5.1502,-6.85571 0,0 0.785,-8.52237 0.785,-8.52237 l 0,0 z"
           id="path5403"
           inkscape:connector-curvature="0" />
        <path
           id="path11223"
           d="m -1343.3783,-416.9782 c 0.2343,-0.60713 0.6912,-1.06304 1.2406,-1.30975 0.5493,-0.2467 1.1912,-0.28398 1.7953,-0.0532 0,0 6.8045,5.11408 6.8045,5.11408 0,0 8.4977,0.72768 8.4977,0.72768 0.604,0.23055 1.0558,0.68543 1.2982,1.23435 0.2423,0.54892 0.2751,1.19189 0.041,1.79901 0,0 -5.1501,6.85593 -5.1501,6.85593 0,0 -0.7853,8.52215 -0.7853,8.52215 -0.2343,0.60692 -0.6912,1.06305 -1.2406,1.30975 -0.5493,0.2467 -1.191,0.28399 -1.7953,0.0534 0,0 -6.8045,-5.11429 -6.8045,-5.11429 0,0 -8.4977,-0.72768 -8.4977,-0.72768 -0.604,-0.23055 -1.056,-0.68543 -1.2982,-1.23435 -0.2423,-0.54892 -0.2748,-1.19188 -0.041,-1.79901 0,0 5.1502,-6.85571 5.1502,-6.85571 0,0 0.785,-8.52237 0.785,-8.52237 l 0,0 z"
           style="fill:#d0f400"
           inkscape:connector-curvature="0" />
        <g
           id="g5397"
           transform="matrix(0.20714008,0,0,0.20714008,-1356.5787,-418.89093)">
          <path
             id="path5399"
             d="m 2.189,84.694 c 0.005,-2.452 0.996,-4.673 2.595,-6.282 1.599,-1.609 3.807,-2.607 6.243,-2.612 0,0 30.84,8.801 30.84,8.801 0,0 30.873,-8.915 30.873,-8.915 2.436,-0.004 4.639,0.985 6.233,2.589 1.594,1.604 2.577,3.821 2.572,6.272 0,0 -8.859,31.069 -8.859,31.069 0,0 8.745,31.037 8.745,31.037 -0.004,2.451 -0.996,4.672 -2.595,6.282 -1.599,1.61 -3.806,2.607 -6.242,2.612 0,0 -30.841,-8.801 -30.841,-8.801 0,0 -30.873,8.915 -30.873,8.915 -2.436,0.005 -4.64,-0.985 -6.233,-2.588 -1.593,-1.604 -2.577,-3.821 -2.572,-6.273 0,0 8.859,-31.069 8.859,-31.069 0,0 -8.745,-31.037 -8.745,-31.037 l 0,0 z"
             style="fill:#4ad2f0"
             inkscape:connector-curvature="0" />
        </g>
        <g
           id="g5405"
           transform="matrix(0.20714008,0,0,0.20714008,-1356.5787,-418.89093)">
          <path
             id="path5407"
             d="m 65.827,175.084 c -0.51,-1.335 -0.434,-2.752 0.1,-3.962 0.534,-1.21 1.527,-2.214 2.853,-2.726 0,0 18.628,-1.653 18.628,-1.653 0,0 14.944,-11.305 14.944,-11.305 1.325,-0.512 2.731,-0.433 3.934,0.107 1.203,0.54 2.201,1.542 2.711,2.877 0,0 1.67,18.765 1.67,18.765 0,0 11.247,15.068 11.247,15.068 0.51,1.335 0.434,2.751 -0.1,3.962 -0.534,1.211 -1.527,2.215 -2.852,2.727 0,0 -18.628,1.653 -18.628,1.653 0,0 -14.944,11.305 -14.944,11.305 -1.325,0.511 -2.732,0.433 -3.934,-0.107 -1.202,-0.54 -2.201,-1.542 -2.711,-2.877 0,0 -1.67,-18.764 -1.67,-18.764 0,0 -11.248,-15.07 -11.248,-15.07 l 0,0 z"
             style="fill:#3394ce"
             inkscape:connector-curvature="0" />
        </g>
        <g
           id="g5409"
           transform="matrix(0.20714008,0,0,0.20714008,-1356.5787,-418.89093)">
          <path
             id="path5411"
             d="m 35.575,82.806 6.292,1.795 c 0,0 30.873,-8.915 30.873,-8.915 2.436,-0.004 4.639,0.985 6.233,2.589 1.594,1.604 2.577,3.821 2.572,6.272 0,0 -4.73,16.59 -4.73,16.59 0,0 -35.278,-3.021 -35.278,-3.021 -2.916,-1.113 -5.098,-3.309 -6.267,-5.959 -1.17,-2.65 -1.327,-5.754 -0.196,-8.685 -10e-4,0.002 0.501,-0.666 0.501,-0.666 l 0,0 z"
             style="fill:#6bb340"
             inkscape:connector-curvature="0" />
        </g>
      </g>
      <g
         id="g3947"
         transform="matrix(3.3580365,0,0,3.3580365,22.203968,-6006.265)">
        <path
           d="m 196.875,90.21875 c -9.92705,0 -18.54108,2.659432 -24.6875,8.25 -6.14642,5.59057 -9.5625,13.99697 -9.5625,24.53125 l 0,13.15625 -10.96875,0 c -5.66182,0 -10.34375,4.63545 -10.34375,10.3125 0,5.67705 4.6667,10.34375 10.34375,10.34375 l 11.1875,0 0,89 c 0,6.11165 5.01335,11.125 11.125,11.125 6.11121,0 11.15625,-4.999 11.15625,-11.125 l 0,-89 20.375,0 c 5.67705,0 10.34375,-4.6667 10.34375,-10.34375 0,-5.67705 -4.68193,-10.3125 -10.34375,-10.3125 l -20.375,0 0.0937,-15.0625 c 0,-4.22716 0.77284,-6.53361 2.21875,-7.90625 1.44591,-1.37264 4.24218,-2.34328 9.4375,-2.34375 l 8.625,0 c 5.66182,0 10.34375,-4.63545 10.34375,-10.3125 0,-5.67705 -4.68193,-10.3125 -10.34375,-10.3125 l -8.625,0 z m 172.84375,0 c -9.92705,0 -18.54108,2.659431 -24.6875,8.25 -6.14642,5.59057 -9.5625,13.99697 -9.5625,24.53125 l 0,13.15625 -10.96875,0 c -5.66183,0 -10.34375,4.63545 -10.34375,10.3125 0,5.67705 4.66669,10.34375 10.34375,10.34375 l 11.1875,0 0,89 c 0,6.11168 5.01337,11.125 11.125,11.125 6.11119,0 11.15625,-4.99898 11.15625,-11.125 l 0,-89 20.40625,0 c 5.67705,0 10.3125,-4.68193 10.3125,-10.34375 0,-5.66182 -4.65068,-10.3125 -10.3125,-10.3125 l -20.40625,0 0.0937,-15.0625 c 0,-4.22695 0.7725,-6.53336 2.21875,-7.90625 1.44625,-1.37289 4.24334,-2.34375 9.4375,-2.34375 l 8.65625,0 c 5.66182,0 10.3125,-4.65068 10.3125,-10.3125 0,-5.661792 -4.65065,-10.3125 -10.3125,-10.3125 l -8.65625,0 z M 438.375,136.5625 c -18.72426,0 -32.73629,7.65148 -41.71875,19.28125 -8.98246,11.62977 -13.0625,27.03268 -13.0625,42.71875 0,18.06846 5.25475,32.71328 14.875,42.8125 9.62025,10.09922 23.47969,15.46875 39.90625,15.46875 23.94492,0 36.87018,-10.35964 42.6875,-19.15625 a 2.9703533,2.9703533 0 0 0 0.0312,-0.0312 c 1.66654,-2.6499 2.6876,-5.12923 3.25,-7.21875 0.0132,-0.0489 0.0498,-0.10778 0.0625,-0.15625 l -0.0312,0 c 1.41728,-4.66614 -0.60031,-9.83202 -5.03125,-12.1875 -2.46136,-1.30959 -5.25909,-1.54397 -7.78125,-0.8125 a 2.9703533,2.9703533 0 0 0 -0.0312,0 c -1.29113,0.38063 -2.02624,0.98341 -2.78125,1.625 -0.75501,0.64159 -1.4449,1.35743 -2.0625,2.03125 -1.23521,1.34764 -2.1875,2.59375 -2.1875,2.59375 l 0.0312,0 c -2.81788,3.63626 -9.19226,11.96875 -25.875,11.96875 -5.84564,0 -14.05376,-0.9122 -20.75,-5.4375 -6.23324,-4.21241 -11.43968,-11.55304 -12.71875,-25.34375 l 62.09375,0 c 6.57397,0 11.33692,0.11376 15.28125,-2.0625 1.97216,-1.08813 3.57095,-2.90907 4.4375,-5.125 0.86655,-2.21593 1.15625,-4.75859 1.15625,-7.875 a 2.9703533,2.9703533 0 0 0 0,-0.21875 c -1.10391,-15.99508 -6.21358,-29.20261 -14.8125,-38.46875 -8.59892,-9.26614 -20.6756,-14.40625 -34.96875,-14.40625 z m -174.8125,0.65625 c -13.35864,0 -24.43398,3.69055 -32.25,9.96875 -7.81602,6.2782 -12.28125,15.2135 -12.28125,25.0625 0,9.35092 3.50569,16.83123 9.03125,22.125 5.52556,5.29377 12.91223,8.46688 20.78125,10.0625 l 28.21875,5.84375 0.0312,0 c 7.21919,1.59548 10.9375,6.13246 10.9375,11.40625 0,4.04421 -1.5999,7.17994 -5.34375,9.71875 -3.74385,2.53881 -9.83042,4.28125 -18.3125,4.28125 -4.86753,0 -9.18841,-0.66351 -12.90625,-1.84375 -8.38983,-2.66538 -12.38357,-7.66335 -14.4375,-10.3125 l 0.0312,0 c 0,0 -0.95229,-1.24611 -2.1875,-2.59375 -0.6176,-0.67382 -1.30749,-1.38966 -2.0625,-2.03125 -0.75501,-0.64159 -1.49012,-1.24437 -2.78125,-1.625 a 2.9703533,2.9703533 0 0 0 -0.0312,0 c -2.5214,-0.72984 -5.32027,-0.4955 -7.78125,0.8125 -4.43094,2.35548 -6.44853,7.52136 -5.03125,12.1875 l -0.0312,0 c 0.0126,0.0485 0.0494,0.1073 0.0625,0.15625 0.56193,2.09175 1.58376,4.56933 3.25,7.21875 a 2.9703533,2.9703533 0 0 0 0.0312,0.0312 c 5.82028,8.80108 18.77383,19.15625 42.71875,19.15625 a 2.9703533,2.9703533 0 0 0 0.0937,0 l 1.0625,-0.0312 c 0.0326,0 0.0612,4e-5 0.0937,0 13.79279,-0.017 25.18142,-3.63674 33.21875,-9.96875 8.05631,-6.34696 12.625,-15.49894 12.625,-25.75 0,-9.58538 -3.70492,-16.92614 -9.40625,-21.96875 -5.70133,-5.04261 -13.1996,-7.91381 -20.96875,-9.59375 L 252.5,183.6875 a 2.9703533,2.9703533 0 0 0 -0.0312,0 c -7.66502,-1.6042 -11.375,-6.10698 -11.375,-11.84375 0,-4.04091 1.71581,-7.07343 5.40625,-9.5 3.69044,-2.42657 9.4952,-4 17.0625,-4 4.71461,0 8.56465,0.60733 11.96875,1.6875 7.7307,2.619 11.46828,7.46427 13.40625,10.0625 0.007,0.01 0.0241,0.0216 0.0312,0.0312 0.0236,0.032 0.90319,1.22245 2.0625,2.53125 0.58746,0.66321 1.24649,1.36467 1.96875,2 0.72226,0.63533 1.40292,1.26274 2.6875,1.65625 a 2.9703533,2.9703533 0 0 0 0.0312,0 c 2.42852,0.73241 5.16296,0.51521 7.5625,-0.8125 4.29248,-2.37397 6.18368,-7.44515 4.84375,-12.03125 -0.005,-0.02 -0.0261,-0.0424 -0.0312,-0.0625 -0.009,-0.0302 0.009,-0.0636 0,-0.0937 l -0.0312,0 c -0.53112,-2.05245 -1.48062,-4.47772 -3.0625,-7.09375 a 2.9703533,2.9703533 0 0 0 -0.0312,-0.0625 c -5.52563,-8.69064 -17.87397,-18.94478 -40.78125,-18.9375 l -0.625,0 z m 174.8125,20.5625 c 7.2642,0 13.51876,2.16729 18.40625,6.84375 4.33838,4.15106 7.59811,10.57218 9.21875,19.4375 l -59.59375,0 c 1.83418,-7.78569 5.18185,-14.05248 9.96875,-18.4375 5.49323,-5.03205 12.79084,-7.84375 22,-7.84375 z"
           id="path3165"
           style="fill:#202d79;fill-opacity:1"
           inkscape:original="M 196.875 93.1875 C 178.073 93.1875 165.59375 103.178 165.59375 123 L 165.59375 139.125 L 151.65625 139.125 C 147.59325 139.125 144.28125 142.40575 144.28125 146.46875 C 144.28125 150.53175 147.59325 153.84375 151.65625 153.84375 L 165.8125 153.84375 L 165.8125 245.8125 C 165.8125 250.3265 169.45475 253.96875 173.96875 253.96875 C 178.48275 253.96875 182.15625 250.3275 182.15625 245.8125 L 182.15625 153.84375 L 205.5 153.84375 C 209.563 153.84375 212.875 150.53175 212.875 146.46875 C 212.875 142.40575 209.563 139.125 205.5 139.125 L 182.15625 139.125 L 182.25 121.09375 C 182.25 111.88275 185.77 107.876 196.875 107.875 L 205.5 107.875 C 209.563 107.875 212.875 104.59425 212.875 100.53125 C 212.875 96.46825 209.563 93.1875 205.5 93.1875 L 196.875 93.1875 z M 369.71875 93.1875 C 350.91675 93.1875 338.4375 103.17801 338.4375 123 L 338.4375 139.125 L 324.5 139.125 C 320.43698 139.125 317.125 142.40574 317.125 146.46875 C 317.125 150.53176 320.43698 153.84375 324.5 153.84375 L 338.65625 153.84375 L 338.65625 245.8125 C 338.65625 250.32654 342.29851 253.96875 346.8125 253.96875 C 351.32648 253.96875 355 250.32751 355 245.8125 L 355 153.84375 L 378.375 153.84375 C 382.43801 153.84375 385.71875 150.53176 385.71875 146.46875 C 385.71875 142.40574 382.43801 139.125 378.375 139.125 L 355 139.125 L 355.09375 121.09375 C 355.09375 111.88275 358.61572 107.875 369.71875 107.875 L 378.375 107.875 C 382.43801 107.875 385.71875 104.59426 385.71875 100.53125 C 385.71875 96.468289 382.43801 93.1875 378.375 93.1875 L 369.71875 93.1875 z M 438.375 139.53125 C 402.511 139.53125 386.5625 168.2315 386.5625 198.5625 C 386.5625 233.5545 406.796 253.875 438.375 253.875 C 461.482 253.875 473.28075 244.0965 478.59375 236.0625 C 480.14275 233.5995 481.06325 231.32425 481.53125 229.53125 C 482.61125 226.16925 481.1655 222.43475 477.9375 220.71875 C 476.1595 219.77275 474.168 219.605 472.375 220.125 C 470.411 220.704 466.875 225.34375 466.875 225.34375 C 463.993 229.06275 456.38925 238.46875 438.65625 238.46875 C 426.38325 238.46875 403.4325 234.863 401.9375 201.75 L 467.28125 201.75 C 480.36125 201.75 485.1875 201.30125 485.1875 189.65625 C 483.0505 158.69225 465.566 139.53125 438.375 139.53125 z M 263.5625 140.1875 C 237.9365 140.1875 222 154.311 222 172.25 C 222 189.518 234.5045 198.50325 249.4375 201.53125 L 277.6875 207.375 C 285.9605 209.191 291 214.9295 291 221.6875 C 291 231.5555 282.131 238.65625 264.375 238.65625 C 259.244 238.65625 254.6135 237.9735 250.5625 236.6875 C 241.3775 233.7695 236.7855 228.04975 234.6875 225.34375 C 234.6875 225.34375 231.1515 220.704 229.1875 220.125 C 227.3945 219.606 225.403 219.77375 223.625 220.71875 C 220.397 222.43475 218.95125 226.16925 220.03125 229.53125 C 220.49825 231.32425 221.41975 233.5995 222.96875 236.0625 C 228.28175 244.0965 240.11175 253.875 263.21875 253.875 L 264.375 253.84375 C 291.01 253.84375 307.34375 239.87375 307.34375 221.09375 C 307.34375 203.38775 294.2455 195.6665 279.3125 192.4375 L 251.875 186.59375 C 243.198 184.77775 238.125 178.98675 238.125 171.84375 C 238.125 161.87575 247.6205 155.375 263.5625 155.375 C 268.5285 155.375 272.7125 156.0055 276.4375 157.1875 C 285.0385 160.0865 289.36575 165.69075 291.34375 168.34375 C 291.34375 168.34375 294.6985 172.89775 296.5625 173.46875 C 298.2635 173.98175 300.15575 173.84025 301.84375 172.90625 C 304.90675 171.21225 306.275 167.5055 305.25 164.1875 C 304.806 162.4175 303.93875 160.181 302.46875 157.75 C 297.42675 149.82 286.2285 140.1805 264.1875 140.1875 L 263.5625 140.1875 z M 438.375 154.8125 C 454.128 154.8125 466.7955 164.55525 469.5625 187.03125 L 402.65625 187.03125 C 405.91625 167.04625 418.724 154.8125 438.375 154.8125 z "
           inkscape:radius="2.9700563"
           sodipodi:type="inkscape:offset" />
        <path
           d="m 221.995,172.263 c 0,-17.939 15.942,-32.083 41.568,-32.083 0,0 0.614,0.002 0.614,0.002 22.041,-0.007 33.241,9.637 38.283,17.567 1.47,2.431 2.356,4.67 2.8,6.44 1.025,3.318 -0.347,7.025 -3.41,8.719 -1.688,0.934 -3.576,1.083 -5.277,0.57 -1.864,-0.571 -5.219,-5.138 -5.219,-5.138 -1.978,-2.653 -6.306,-8.254 -14.907,-11.153 -3.725,-1.182 -7.918,-1.815 -12.884,-1.815 -15.942,0 -25.426,6.519 -25.426,16.487 0,7.143 5.046,12.913 13.723,14.729 0,0 27.439,5.85 27.439,5.85 14.933,3.229 28.049,10.949 28.049,28.655 0,18.78 -16.343,32.765 -42.978,32.765 0,0 -1.164,0.011 -1.164,0.011 -23.107,0 -34.909,-9.77 -40.222,-17.804 -1.549,-2.463 -2.483,-4.731 -2.95,-6.524 -1.08,-3.362 0.365,-7.117 3.593,-8.833 1.778,-0.945 3.768,-1.096 5.561,-0.577 1.964,0.579 5.499,5.205 5.499,5.205 2.098,2.706 6.703,8.436 15.888,11.354 4.051,1.286 8.664,1.955 13.795,1.955 17.756,0 26.635,-7.081 26.635,-16.949 0,-6.758 -5.046,-12.51 -13.319,-14.326 0,0 -28.249,-5.85 -28.249,-5.85 -14.933,-3.028 -27.442,-11.989 -27.442,-29.257 l 0,0 z m 180.662,14.767 c 0,0 66.916,0 66.916,0 -2.767,-22.476 -15.458,-32.213 -31.211,-32.213 -19.651,0 -32.445,12.228 -35.705,32.213 z m 35.995,51.454 c 17.733,0 25.347,-9.427 28.229,-13.146 0,0 3.535,-4.626 5.499,-5.205 1.793,-0.52 3.782,-0.369 5.56,0.577 3.228,1.716 4.673,5.471 3.593,8.833 -0.468,1.793 -1.401,4.061 -2.95,6.524 -5.313,8.034 -17.115,17.804 -40.222,17.804 -31.579,0 -51.811,-20.318 -51.811,-55.31 0,-30.331 15.947,-59.032 51.811,-59.032 27.191,0 44.701,19.157 46.838,50.121 0,11.645 -4.845,12.094 -17.925,12.094 0,0 -65.328,0 -65.328,0 1.495,33.113 24.433,36.74 36.706,36.74 l 0,0 z M 355.08703,121.08402 c 0,0 -0.085,18.031 -0.085,18.031 0,0 23.35797,0 23.35797,0 4.06301,0 7.35703,3.29396 7.35703,7.35697 0,4.06301 -3.29402,7.35702 -7.35703,7.35702 0,0 -23.35797,0 -23.35797,0 0,0 0,91.97498 0,91.97498 0,4.51501 -3.66003,8.17401 -8.17401,8.17401 -4.51399,0 -8.17401,-3.65997 -8.17401,-8.17401 0,0 0,-91.97498 0,-91.97498 0,0 -14.165,0 -14.165,0 -4.06302,0 -7.35698,-3.29401 -7.35698,-7.35702 0,-4.06301 3.29396,-7.35697 7.35698,-7.35697 0,0 13.96199,0 13.96199,0 0,0 0,-16.11004 0,-16.11004 0,-19.82199 12.46302,-29.832972 31.26502,-29.832972 0,0 8.64398,0 8.64398,0 4.06301,0 7.35703,3.294011 7.35703,7.356972 0,4.06301 -3.29402,7.35702 -7.35703,7.35702 0,0 -8.64398,0 -8.64398,0 -11.10303,0 -14.62898,3.98702 -14.62898,13.19802 z M 182.238,121.084 c 0,0 -0.085,18.031 -0.085,18.031 0,0 23.358,0 23.358,0 4.063,0 7.357,3.294 7.357,7.357 0,4.063 -3.294,7.357 -7.357,7.357 0,0 -23.358,0 -23.358,0 0,0 0,91.975 0,91.975 0,4.515 -3.66,8.174 -8.174,8.174 -4.514,0 -8.174,-3.66 -8.174,-8.174 0,0 0,-91.975 0,-91.975 0,0 -14.164,0 -14.164,0 -4.063,0 -7.357,-3.294 -7.357,-7.357 0,-4.063 3.294,-7.357 7.357,-7.357 0,0 13.962,0 13.962,0 0,0 0,-16.11 0,-16.11 0,-19.822 12.463,-29.833 31.265,-29.833 0,0 8.644,0 8.644,0 4.063,0 7.357,3.294 7.357,7.357 0,4.063 -3.294,7.357 -7.357,7.357 0,0 -8.644,0 -8.644,0 -11.105,0.001 -14.63,3.987 -14.63,13.198 z"
           style="fill:url(#linearGradient4145);fill-opacity:1"
           id="path5427"
           inkscape:connector-curvature="0" />
      </g>
      <g
         id="g3673"
         transform="matrix(7.4447736,0,0,7.4447736,-1654.4886,-6046.7539)">
        <text
           xml:space="preserve"
           style="font-size:19.53959084px;font-style:normal;font-variant:normal;font-weight:normal;font-stretch:normal;line-height:125%;letter-spacing:0px;word-spacing:0px;fill:#202d79;fill-opacity:1;stroke:none;font-family:Nimbus Sans L;-inkscape-font-specification:Nimbus Sans L"
           x="288.60605"
           y="168.89499"
           id="text3665"
           sodipodi:linespacing="125%"
           inkscape:export-filename="/home/samtuke/Documents/fsfe-web-mockup/framework/proposal-2/logo-1.png"
           inkscape:export-xdpi="73.255806"
           inkscape:export-ydpi="73.255806"><tspan
             sodipodi:role="line"
             id="tspan3667"
             x="288.60605"
             y="168.89499">foundation europe</tspan></text>
        <text
           sodipodi:linespacing="125%"
           id="text3669"
           y="147.13635"
           x="288.46567"
           style="font-size:27.34358215px;font-style:normal;font-variant:normal;font-weight:normal;font-stretch:normal;line-height:125%;letter-spacing:0px;word-spacing:0px;fill:#202d79;fill-opacity:1;stroke:none;font-family:Nimbus Sans L;-inkscape-font-specification:Nimbus Sans L"
           xml:space="preserve"
           inkscape:export-filename="/home/samtuke/Documents/fsfe-web-mockup/framework/proposal-2/logo-1.png"
           inkscape:export-xdpi="73.255806"
           inkscape:export-ydpi="73.255806"><tspan
             y="147.13635"
             x="288.46567"
             id="tspan3671"
             sodipodi:role="line">free software</tspan></text>
      </g>
    </g>
    <g
       inkscape:groupmode="layer"
       id="layer2" />
    <flowRoot
       xml:space="preserve"
       id="flowRoot4149"
       style="font-size:40px;font-style:normal;font-weight:normal;line-height:125%;letter-spacing:0px;word-spacing:0px;fill:#000000;fill-opacity:1;stroke:none;font-family:Sans"
       transform="translate(0,-6034.2518)"><flowRegion
         id="flowRegion4151"><rect
           id="rect4153"
           width="1446.5385"
           height="2480.9346"
           x="96.974648"
           y="2900.5415" /></flowRegion><flowPara
         id="flowPara4155"
         style="font-size:364px">bringing bring</flowPara></flowRoot>    <g
       id="g5100"
       transform="matrix(0.90878542,0,0,0.90878542,5109.3421,-76.266097)">
      <g
         id="g5301"
         transform="matrix(0.82337255,0,0,0.82337255,-896.48528,-513.41391)">
        <g
           transform="translate(0,-585.22308)"
           id="g5174">
          <g
             id="g4238"
             transform="matrix(1.25,0,0,-1.25,-5040.6443,-3728.3769)">
            <path
               d="m 0,0 -12.903,0 c -10.027,0 -15.039,4.785 -15.039,14.355 0.683,8.147 5.923,12.22 15.722,12.22 l 12.22,0 0,44.434 c 0,11.677 3.825,20.963 11.478,27.856 7.652,6.893 17.225,10.795 28.718,11.707 18.205,0 27.309,-4.785 27.309,-14.355 0,-3.305 -1.34,-6.168 -4.016,-8.588 -2.678,-2.422 -6.609,-3.632 -11.793,-3.632 l -9.398,0 c -7.692,0 -11.536,-4.558 -11.536,-13.672 l 0,-43.75 19.567,0 c 9.229,0 14.241,-4.073 15.039,-12.22 C 65.368,4.785 60.354,0 50.329,0 l -19.567,0 0,-146.289 c 0,-4.955 -1.562,-8.83 -4.687,-11.621 -3.124,-2.79 -6.816,-4.187 -11.078,-4.187 -4.034,0 -7.541,1.425 -10.524,4.273 C 1.49,-154.977 0,-151.131 0,-146.289 L 0,0 z"
               style="fill:#313387;fill-opacity:1;fill-rule:nonzero;stroke:none"
               id="path4240"
               inkscape:connector-curvature="0" />
          </g>
          <g
             id="g4242"
             transform="matrix(1.25,0,0,-1.25,-4947.5047,-3743.6517)">
            <path
               d="m 0,0 c 0,4.841 1.466,8.687 4.401,11.536 2.933,2.848 6.479,4.272 10.638,4.272 4.273,0 7.903,-1.397 10.896,-4.187 C 28.925,8.829 30.42,4.956 30.42,0 l 0,-15.723 0.684,0 c 4.556,8.089 10.553,15.394 17.987,21.918 7.433,6.523 15.222,9.954 23.37,10.296 4.557,0 8.601,-1.51 12.134,-4.528 3.531,-3.021 5.298,-6.78 5.298,-11.279 0,-5.242 -1.81,-9.101 -5.427,-11.579 -3.617,-2.478 -8.873,-4.614 -15.765,-6.409 -6.893,-1.794 -11.364,-3.261 -13.415,-4.4 C 38.708,-30.762 30.42,-46.257 30.42,-68.188 l 0,-90.321 c 0,-5.013 -1.409,-8.9 -4.23,-11.663 -2.82,-2.763 -6.31,-4.144 -10.467,-4.144 -4.388,0 -8.105,1.452 -11.152,4.358 C 1.523,-167.054 0,-163.009 0,-157.825 L 0,0 z"
               style="fill:#313387;fill-opacity:1;fill-rule:nonzero;stroke:none"
               id="path4244"
               inkscape:connector-curvature="0" />
          </g>
          <g
             id="g4246"
             transform="matrix(1.25,0,0,-1.25,-4786.5392,-3659.2706)">
            <path
               d="M 0,0 102.539,0 C 102.197,17.115 97.639,30.879 88.867,41.291 80.094,51.702 68.073,57.078 52.807,57.422 37.256,57.422 24.736,52.387 15.252,42.317 5.768,32.248 0.684,18.143 0,0 m -30.848,-9.791 c 0.684,15.945 4.328,31.062 10.938,45.356 6.607,14.293 16.021,25.88 28.24,34.765 12.221,8.883 26.589,13.438 43.109,13.666 16.065,0 30.335,-4.34 42.811,-13.019 12.476,-8.682 22.102,-20.18 28.882,-34.496 6.778,-14.315 10.169,-29.271 10.169,-44.868 0,-10.017 -5.697,-15.026 -17.09,-15.026 L 0,-23.413 c 0.227,-12.4 2.875,-22.857 7.946,-31.369 5.07,-8.513 11.863,-14.884 20.38,-19.113 8.516,-4.228 17.957,-6.341 28.326,-6.341 18.172,0 34.864,6.426 50.074,19.283 5.24,3.769 9.085,5.656 11.536,5.656 3.418,0 6.08,-1.271 7.988,-3.814 1.908,-2.541 2.863,-5.613 2.863,-9.212 0,-3.886 -1.509,-7.628 -4.529,-11.228 -6.836,-7.269 -16.533,-13.631 -29.096,-19.083 -12.56,-5.452 -26.076,-8.178 -40.545,-8.178 -15.154,0 -28.326,2.863 -39.519,8.591 -11.195,5.727 -20.209,13.321 -27.045,22.782 -6.836,9.459 -11.822,19.673 -14.954,30.644 -3.134,10.969 -4.785,22.068 -4.956,33.295 0.284,0.569 0.47,0.982 0.554,1.239 0.086,0.257 0.129,0.413 0.129,0.47"
               style="fill:#313387;fill-opacity:1;fill-rule:nonzero;stroke:none"
               id="path4248"
               inkscape:connector-curvature="0" />
          </g>
          <g
             id="g4250"
             transform="matrix(1.25,0,0,-1.25,-4559.0318,-3659.2706)">
            <path
               d="M 0,0 102.539,0 C 102.197,17.115 97.64,30.879 88.867,41.291 80.094,51.702 68.074,57.078 52.809,57.422 37.256,57.422 24.738,52.387 15.254,42.317 5.768,32.248 0.684,18.143 0,0 m -30.847,-9.791 c 0.684,15.945 4.329,31.062 10.938,45.356 6.607,14.293 16.022,25.88 28.241,34.765 12.219,8.883 26.588,13.438 43.109,13.666 16.065,0 30.334,-4.34 42.81,-13.019 12.476,-8.682 22.103,-20.18 28.882,-34.496 6.778,-14.315 10.168,-29.271 10.168,-44.868 0,-10.017 -5.697,-15.026 -17.09,-15.026 L 0,-23.413 c 0.228,-12.4 2.877,-22.857 7.947,-31.369 5.07,-8.513 11.864,-14.884 20.379,-19.113 8.516,-4.228 17.959,-6.341 28.327,-6.341 18.171,0 34.864,6.426 50.074,19.283 5.24,3.769 9.086,5.656 11.535,5.656 3.418,0 6.08,-1.271 7.99,-3.814 1.908,-2.541 2.862,-5.613 2.862,-9.212 0,-3.886 -1.51,-7.628 -4.528,-11.228 -6.836,-7.269 -16.535,-13.631 -29.096,-19.083 -12.56,-5.452 -26.077,-8.178 -40.546,-8.178 -15.153,0 -28.327,2.863 -39.52,8.591 -11.194,5.727 -20.209,13.321 -27.045,22.782 -6.836,9.459 -11.82,19.673 -14.953,30.644 -3.134,10.969 -4.785,22.068 -4.956,33.295 0.284,0.569 0.469,0.982 0.555,1.239 0.086,0.257 0.128,0.413 0.128,0.47"
               style="fill:#313387;fill-opacity:1;fill-rule:nonzero;stroke:none"
               id="path4252"
               inkscape:connector-curvature="0" />
          </g>
        </g>
        <g
           id="g5350"
           transform="translate(-809.6307,-89.562888)">
          <g
             transform="matrix(1.25,0,0,-1.25,-4255.3661,-3551.5593)"
             id="g4254">
            <path
               inkscape:connector-curvature="0"
               id="path4256"
               style="fill:#313387;fill-opacity:1;fill-rule:nonzero;stroke:none"
               d="m 0,0 c -4.785,3.298 -7.604,8.304 -8.46,15.014 0,3.696 1.268,6.895 3.803,9.595 2.534,2.702 5.711,4.052 9.527,4.052 2.962,0 5.94,-0.826 8.93,-2.476 2.99,-1.652 6.666,-4.057 11.023,-7.217 4.358,-3.16 7.504,-5.166 9.442,-6.02 6.892,-3.993 15.523,-6.332 25.891,-7.015 9.968,0 18.812,2.05 26.532,6.154 7.719,4.104 11.579,10.573 11.579,19.408 0,8.491 -4.758,15.475 -14.27,20.945 C 78.983,55.632 69.996,59.807 57.038,64.966 44.077,70.123 34.065,74.512 27.002,78.132 19.938,81.749 13.672,86.88 8.203,93.521 2.734,100.16 0,108.438 0,118.356 c 0,9.176 2.534,17.654 7.604,25.434 5.071,7.779 12.233,13.992 21.491,18.639 9.258,4.644 19.838,7.224 31.745,7.736 11.392,0 22.444,-1.92 33.154,-5.757 10.709,-3.839 18.57,-8.089 23.584,-12.752 4.899,-5.004 7.349,-9.78 7.349,-14.329 0,-3.412 -1.34,-6.453 -4.016,-9.127 -2.679,-2.672 -5.896,-4.179 -9.656,-4.519 -3.988,1.025 -9.756,3.703 -17.303,8.033 -7.55,4.328 -13.09,7.334 -16.621,9.015 -3.532,1.678 -7.976,2.633 -13.33,2.862 -10.994,0 -19.298,-2.254 -24.908,-6.76 -5.612,-4.506 -8.617,-10.066 -9.015,-16.683 1.026,-5.647 3.731,-10.51 8.118,-14.587 4.385,-4.078 9.442,-7.415 15.166,-10.01 5.727,-2.595 12.647,-5.275 20.766,-8.042 8.117,-2.766 13.714,-4.862 16.79,-6.288 13.843,-5.64 23.782,-12.206 29.821,-19.698 6.038,-7.493 9.059,-16.678 9.059,-27.559 C 129.512,24.449 126.819,15.589 121.722,7.386 116.624,-0.817 108.948,-7.483 98.694,-12.61 88.44,-17.737 75.821,-20.414 60.84,-20.643 36.458,-20.643 16.178,-13.763 0,0" />
          </g>
          <g
             transform="matrix(1.25,0,0,-1.25,-4028.2847,-3644.8516)"
             id="g4258">
            <path
               inkscape:connector-curvature="0"
               id="path4260"
               style="fill:#313387;fill-opacity:1;fill-rule:nonzero;stroke:none"
               d="m 0,0 c 0,-17.512 4.102,-33.34 12.305,-47.484 8.203,-14.145 21.02,-21.217 38.452,-21.217 11.392,0 20.963,3.094 28.711,9.281 7.747,6.189 13.458,14.473 17.132,24.854 3.675,10.38 5.654,21.903 5.939,34.566 0,12.547 -1.937,24.054 -5.81,34.521 -3.875,10.466 -9.657,18.822 -17.346,25.067 -7.692,6.246 -17.005,9.369 -27.943,9.369 -10.824,0 -20.124,-2.981 -27.899,-8.941 C 15.766,54.056 9.897,45.827 5.939,35.333 1.979,24.838 0,13.061 0,0 m -30.762,0 c 0,18.171 3.516,34.534 10.548,49.09 7.03,14.555 16.81,25.933 29.335,34.137 12.527,8.203 26.648,12.304 42.361,12.304 16.456,-0.228 30.889,-4.714 43.301,-13.458 12.412,-8.745 21.936,-20.38 28.569,-34.905 6.632,-14.527 9.949,-30.25 9.949,-47.168 0,-17.205 -3.303,-33.099 -9.906,-47.682 -6.606,-14.584 -16.115,-26.162 -28.526,-34.734 -12.413,-8.574 -26.875,-12.86 -43.387,-12.86 -16.568,0 -31.101,4.329 -43.598,12.988 -12.498,8.658 -22.064,20.294 -28.697,34.906 -6.632,14.611 -9.949,30.405 -9.949,47.382" />
          </g>
          <g
             transform="matrix(1.25,0,0,-1.25,-3810.3892,-3728.3769)"
             id="g4262">
            <path
               inkscape:connector-curvature="0"
               id="path4264"
               style="fill:#313387;fill-opacity:1;fill-rule:nonzero;stroke:none"
               d="m 0,0 -12.902,0 c -10.028,0 -15.039,4.785 -15.039,14.355 0.683,8.147 5.923,12.22 15.722,12.22 l 12.219,0 0,44.434 c 0,11.677 3.825,20.963 11.479,27.856 7.651,6.893 17.224,10.795 28.717,11.707 18.206,0 27.31,-4.785 27.31,-14.355 0,-3.305 -1.34,-6.168 -4.017,-8.588 -2.678,-2.422 -6.609,-3.632 -11.792,-3.632 l -9.399,0 c -7.691,0 -11.536,-4.558 -11.536,-13.672 l 0,-43.75 19.568,0 c 9.229,0 14.24,-4.073 15.039,-12.22 C 65.369,4.785 60.355,0 50.33,0 l -19.568,0 0,-146.289 c 0,-4.955 -1.562,-8.83 -4.687,-11.621 -3.124,-2.79 -6.816,-4.187 -11.077,-4.187 -4.035,0 -7.542,1.425 -10.525,4.273 C 1.49,-154.977 0,-151.131 0,-146.289 L 0,0 z" />
          </g>
          <g
             transform="matrix(1.25,0,0,-1.25,-3705.393,-3728.3769)"
             id="g4266">
            <path
               inkscape:connector-curvature="0"
               id="path4268"
               style="fill:#313387;fill-opacity:1;fill-rule:nonzero;stroke:none"
               d="m 0,0 -13.587,0 c -4.387,0 -7.891,1.239 -10.51,3.718 -2.621,2.477 -4.159,5.539 -4.614,9.185 0.91,9.115 5.952,13.672 15.124,13.672 l 13.587,0 0,41.699 c 0,4.557 1.448,8.089 4.346,10.596 2.897,2.506 6.447,3.76 10.652,3.76 4.487,0 8.236,-1.269 11.247,-3.803 3.011,-2.535 4.517,-6.309 4.517,-11.321 l 0,-40.931 13.586,0 c 4.671,0 8.231,-1.254 10.681,-3.76 2.449,-2.506 3.674,-5.81 3.674,-9.912 0,-3.475 -1.195,-6.494 -3.588,-9.057 C 52.723,1.282 49.616,0 45.801,0 l -15.039,0 0,-146.973 c 0,-4.672 -1.605,-8.36 -4.815,-11.065 -3.21,-2.704 -7.087,-4.059 -11.632,-4.059 -4.033,0 -7.427,1.355 -10.183,4.059 C 1.377,-155.333 0,-151.416 0,-146.289 L 0,0 z" />
          </g>
          <g
             transform="matrix(1.25,0,0,-1.25,-3636.3927,-3737.9912)"
             id="g4270">
            <path
               inkscape:connector-curvature="0"
               id="path4272"
               style="fill:#313387;fill-opacity:1;fill-rule:nonzero;stroke:none"
               d="m 0,0 c -0.229,0.625 -0.457,1.736 -0.684,3.332 -0.228,1.594 -0.457,2.705 -0.683,3.332 0,4.102 1.466,7.405 4.4,9.912 2.934,2.506 6.48,3.76 10.639,3.76 8.887,0 14.384,-3.617 16.491,-10.852 l 40.931,-131.25 0.683,-0.769 40.931,130.566 c 1.48,4.5 3.645,8.018 6.494,10.554 2.848,2.534 5.951,3.802 9.314,3.802 7.632,0 12.873,-4.785 15.722,-14.356 l 41.615,-129.797 0.768,0 40.247,129.114 c 2.619,9.114 8.088,13.672 16.406,13.672 4.044,0 7.448,-1.354 10.211,-4.059 2.762,-2.706 4.145,-6.365 4.145,-10.981 0,-1.709 -0.457,-4.158 -1.367,-7.347 l -52.552,-153.297 c -3.704,-10.082 -9.399,-15.124 -17.09,-15.124 -4.388,0 -7.919,1.239 -10.596,3.717 -2.678,2.478 -5.098,6.964 -7.262,13.458 l -39.564,124.244 -0.683,0 -38.88,-121.424 c -2.279,-7.861 -4.87,-13.159 -7.776,-15.894 -2.905,-2.734 -6.722,-4.101 -11.45,-4.101 -4.388,0 -7.962,1.339 -10.723,4.017 -2.764,2.675 -5.371,7.546 -7.819,14.611 L 0,0 z" />
          </g>
          <g
             transform="matrix(1.25,0,0,-1.25,-3260.5223,-3644.8516)"
             id="g4274">
            <path
               inkscape:connector-curvature="0"
               id="path4276"
               style="fill:#313387;fill-opacity:1;fill-rule:nonzero;stroke:none"
               d="m 0,0 c 0,-12.035 1.837,-23.271 5.512,-33.71 3.674,-10.438 9.228,-18.88 16.662,-25.323 7.434,-6.447 16.477,-9.668 27.131,-9.668 18.741,0 32.184,6.701 40.332,20.103 8.145,13.405 12.218,29.604 12.218,48.598 0,13.973 -2.108,26.192 -6.323,36.66 C 91.315,47.126 85.377,55.125 77.716,60.658 70.054,66.19 61.295,68.957 51.44,68.957 l -0.683,0 C 34.122,68.33 21.589,61.697 13.159,49.064 4.728,36.432 0.342,20.076 0,0 m 102.539,70.406 0,10.135 c 0,4.486 1.41,8.105 4.23,10.859 2.82,2.754 6.195,4.131 10.126,4.131 4.043,0 7.447,-1.396 10.21,-4.186 2.763,-2.792 4.145,-6.665 4.145,-11.621 l 0,-159.193 c 0,-5.241 -1.367,-9.185 -4.102,-11.834 -2.734,-2.649 -6.152,-3.973 -10.253,-3.973 -3.875,0 -7.236,1.278 -10.083,3.833 -2.85,2.555 -4.273,6.048 -4.273,10.478 l 0,13.631 -0.684,0 C 88.696,-85.452 72.461,-94.766 53.149,-95.276 c -15.65,0 -29.906,3.887 -42.767,11.664 -12.861,7.775 -22.934,18.854 -30.218,33.239 -7.285,14.384 -10.926,30.918 -10.926,49.603 0,21.021 4.014,38.794 12.04,53.321 8.028,14.526 18.232,25.32 30.615,32.385 12.381,7.063 24.862,10.595 37.445,10.595 11.215,0 20.821,-1.959 28.82,-5.877 7.999,-3.917 15.898,-10.334 23.697,-19.248 l 0.684,0 z" />
          </g>
          <g
             transform="matrix(1.25,0,0,-1.25,-3044.8692,-3743.6517)"
             id="g4278">
            <path
               inkscape:connector-curvature="0"
               id="path4280"
               style="fill:#313387;fill-opacity:1;fill-rule:nonzero;stroke:none"
               d="m 0,0 c 0,4.841 1.466,8.687 4.4,11.536 2.934,2.848 6.48,4.272 10.639,4.272 4.273,0 7.904,-1.397 10.895,-4.187 C 28.925,8.829 30.42,4.956 30.42,0 l 0,-15.723 0.684,0 c 4.556,8.089 10.552,15.394 17.987,21.918 7.433,6.523 15.222,9.954 23.37,10.296 4.557,0 8.601,-1.51 12.134,-4.528 3.531,-3.021 5.298,-6.78 5.298,-11.279 0,-5.242 -1.81,-9.101 -5.426,-11.579 -3.618,-2.478 -8.874,-4.614 -15.766,-6.409 -6.893,-1.794 -11.364,-3.261 -13.415,-4.4 C 38.708,-30.762 30.42,-46.257 30.42,-68.188 l 0,-90.321 c 0,-5.013 -1.41,-8.9 -4.23,-11.663 -2.82,-2.763 -6.31,-4.144 -10.467,-4.144 -4.388,0 -8.105,1.452 -11.152,4.358 C 1.523,-167.054 0,-163.009 0,-157.825 L 0,0 z" />
          </g>
          <g
             transform="matrix(1.25,0,0,-1.25,-2883.9037,-3659.2706)"
             id="g4282">
            <path
               inkscape:connector-curvature="0"
               id="path4284"
               style="fill:#313387;fill-opacity:1;fill-rule:nonzero;stroke:none"
               d="m 0,0 102.539,0 c -0.342,17.115 -4.9,30.879 -13.672,41.291 -8.773,10.411 -20.794,15.787 -36.06,16.131 -15.551,0 -28.07,-5.035 -37.555,-15.105 C 5.768,32.248 0.684,18.143 0,0 m -30.848,-9.791 c 0.684,15.945 4.328,31.062 10.938,45.356 6.607,14.293 16.021,25.88 28.241,34.765 12.219,8.883 26.588,13.438 43.108,13.666 16.065,0 30.335,-4.34 42.811,-13.019 12.476,-8.682 22.102,-20.18 28.882,-34.496 6.778,-14.315 10.169,-29.271 10.169,-44.868 0,-10.017 -5.697,-15.026 -17.09,-15.026 L 0,-23.413 c 0.227,-12.4 2.875,-22.857 7.946,-31.369 5.07,-8.513 11.863,-14.884 20.38,-19.113 8.516,-4.228 17.957,-6.341 28.326,-6.341 18.171,0 34.864,6.426 50.074,19.283 5.24,3.769 9.086,5.656 11.536,5.656 3.418,0 6.08,-1.271 7.989,-3.814 1.907,-2.541 2.862,-5.613 2.862,-9.212 0,-3.886 -1.509,-7.628 -4.529,-11.228 -6.836,-7.269 -16.534,-13.631 -29.095,-19.083 -12.561,-5.452 -26.077,-8.178 -40.546,-8.178 -15.154,0 -28.326,2.863 -39.52,8.591 -11.194,5.727 -20.208,13.321 -27.044,22.782 -6.836,9.459 -11.822,19.673 -14.954,30.644 -3.134,10.969 -4.785,22.068 -4.956,33.295 0.284,0.569 0.469,0.982 0.555,1.239 0.085,0.257 0.128,0.413 0.128,0.47" />
          </g>
        </g>
        <g
           id="g4286"
           transform="matrix(1.25,0,0,-1.25,-2693.1395,-3502.5787)" />
        <g
           id="g5242"
           transform="translate(-405,-118.90289)">
          <g
             transform="matrix(1.25,0,0,-1.25,-4635.6443,-3203.3769)"
             id="g4290">
            <path
               inkscape:connector-curvature="0"
               id="path4292"
               style="fill:#313387;fill-opacity:1;fill-rule:nonzero;stroke:none"
               d="m 0,0 -12.903,0 c -10.027,0 -15.039,4.785 -15.039,14.355 0.683,8.147 5.923,12.22 15.722,12.22 l 12.22,0 0,44.434 c 0,11.677 3.825,20.963 11.478,27.856 7.652,6.893 17.225,10.795 28.718,11.707 18.205,0 27.309,-4.785 27.309,-14.355 0,-3.305 -1.34,-6.168 -4.016,-8.588 -2.678,-2.422 -6.609,-3.632 -11.793,-3.632 l -9.398,0 c -7.692,0 -11.536,-4.558 -11.536,-13.672 l 0,-43.75 19.567,0 c 9.229,0 14.241,-4.073 15.039,-12.22 C 65.368,4.785 60.354,0 50.329,0 l -19.567,0 0,-146.289 c 0,-4.955 -1.562,-8.83 -4.687,-11.621 -3.124,-2.79 -6.816,-4.187 -11.078,-4.187 -4.034,0 -7.541,1.425 -10.524,4.273 C 1.49,-154.977 0,-151.131 0,-146.289 L 0,0 z" />
          </g>
          <g
             transform="matrix(1.25,0,0,-1.25,-4542.5047,-3218.6517)"
             id="g4294">
            <path
               inkscape:connector-curvature="0"
               id="path4296"
               style="fill:#313387;fill-opacity:1;fill-rule:nonzero;stroke:none"
               d="m 0,0 c 0,4.841 1.466,8.687 4.401,11.536 2.933,2.848 6.479,4.272 10.638,4.272 4.273,0 7.903,-1.397 10.896,-4.187 C 28.925,8.829 30.42,4.956 30.42,0 l 0,-15.723 0.684,0 c 4.556,8.089 10.553,15.394 17.987,21.918 7.433,6.523 15.222,9.954 23.37,10.296 4.557,0 8.601,-1.51 12.134,-4.528 3.531,-3.021 5.298,-6.78 5.298,-11.279 0,-5.242 -1.81,-9.101 -5.427,-11.579 -3.617,-2.478 -8.873,-4.614 -15.765,-6.409 -6.893,-1.794 -11.364,-3.261 -13.415,-4.4 C 38.708,-30.762 30.42,-46.257 30.42,-68.188 l 0,-90.321 c 0,-5.013 -1.409,-8.9 -4.23,-11.663 -2.82,-2.763 -6.31,-4.144 -10.467,-4.144 -4.388,0 -8.105,1.452 -11.152,4.358 C 1.523,-167.054 0,-163.009 0,-157.825 L 0,0 z" />
          </g>
          <g
             transform="matrix(1.25,0,0,-1.25,-4381.5392,-3134.2706)"
             id="g4298">
            <path
               inkscape:connector-curvature="0"
               id="path4300"
               style="fill:#313387;fill-opacity:1;fill-rule:nonzero;stroke:none"
               d="M 0,0 102.539,0 C 102.197,17.115 97.639,30.879 88.867,41.291 80.094,51.702 68.073,57.078 52.807,57.422 37.256,57.422 24.736,52.387 15.252,42.317 5.768,32.248 0.684,18.143 0,0 m -30.848,-9.791 c 0.684,15.945 4.328,31.062 10.938,45.356 6.607,14.293 16.021,25.88 28.24,34.765 12.221,8.883 26.589,13.438 43.109,13.666 16.065,0 30.335,-4.34 42.811,-13.019 12.476,-8.682 22.102,-20.18 28.882,-34.496 6.778,-14.315 10.169,-29.271 10.169,-44.868 0,-10.017 -5.697,-15.026 -17.09,-15.026 L 0,-23.413 c 0.227,-12.4 2.875,-22.857 7.946,-31.369 5.07,-8.513 11.863,-14.884 20.38,-19.113 8.516,-4.228 17.957,-6.341 28.326,-6.341 18.172,0 34.864,6.426 50.074,19.283 5.24,3.769 9.085,5.656 11.536,5.656 3.418,0 6.08,-1.271 7.988,-3.814 1.908,-2.541 2.863,-5.613 2.863,-9.212 0,-3.886 -1.509,-7.628 -4.529,-11.228 -6.836,-7.269 -16.533,-13.631 -29.096,-19.083 -12.56,-5.452 -26.076,-8.178 -40.545,-8.178 -15.154,0 -28.326,2.863 -39.519,8.591 -11.195,5.727 -20.209,13.321 -27.045,22.782 -6.836,9.459 -11.822,19.673 -14.954,30.644 -3.134,10.969 -4.785,22.068 -4.956,33.295 0.284,0.569 0.47,0.982 0.554,1.239 0.086,0.257 0.129,0.413 0.129,0.47" />
          </g>
          <g
             transform="matrix(1.25,0,0,-1.25,-4154.0318,-3134.2706)"
             id="g4302">
            <path
               inkscape:connector-curvature="0"
               id="path4304"
               style="fill:#313387;fill-opacity:1;fill-rule:nonzero;stroke:none"
               d="M 0,0 102.539,0 C 102.197,17.115 97.64,30.879 88.867,41.291 80.094,51.702 68.074,57.078 52.809,57.422 37.256,57.422 24.738,52.387 15.254,42.317 5.768,32.248 0.684,18.143 0,0 m -30.847,-9.791 c 0.684,15.945 4.329,31.062 10.938,45.356 6.607,14.293 16.022,25.88 28.241,34.765 12.219,8.883 26.588,13.438 43.109,13.666 16.065,0 30.334,-4.34 42.81,-13.019 12.476,-8.682 22.103,-20.18 28.882,-34.496 6.778,-14.315 10.168,-29.271 10.168,-44.868 0,-10.017 -5.697,-15.026 -17.09,-15.026 L 0,-23.413 c 0.228,-12.4 2.877,-22.857 7.947,-31.369 5.07,-8.513 11.864,-14.884 20.379,-19.113 8.516,-4.228 17.959,-6.341 28.327,-6.341 18.171,0 34.864,6.426 50.074,19.283 5.24,3.769 9.086,5.656 11.535,5.656 3.418,0 6.08,-1.271 7.99,-3.814 1.908,-2.541 2.862,-5.613 2.862,-9.212 0,-3.886 -1.51,-7.628 -4.528,-11.228 -6.836,-7.269 -16.535,-13.631 -29.096,-19.083 -12.56,-5.452 -26.077,-8.178 -40.546,-8.178 -15.153,0 -28.327,2.863 -39.52,8.591 -11.194,5.727 -20.209,13.321 -27.045,22.782 -6.836,9.459 -11.82,19.673 -14.953,30.644 -3.134,10.969 -4.785,22.068 -4.956,33.295 0.284,0.569 0.469,0.982 0.555,1.239 0.086,0.257 0.128,0.413 0.128,0.47" />
          </g>
        </g>
        <g
           id="g5233"
           transform="translate(-1214.6319,353.15187)">
          <path
             d="m -3850.3649,-3026.5593 c -5.9812,-4.1225 -9.5063,-10.38 -10.575,-18.7675 0,-4.62 1.5837,-8.6188 4.7525,-11.9938 3.1687,-3.3775 7.1387,-5.065 11.91,-5.065 3.7025,0 7.4237,1.0326 11.1613,3.0951 3.7399,2.0649 8.3325,5.0712 13.7787,9.0212 5.4475,3.95 9.3812,6.4575 11.8038,7.525 8.6149,4.9913 19.4024,7.915 32.3637,8.7687 12.46,0 23.515,-2.5625 33.165,-7.6924 9.6475,-5.13 14.4737,-13.2163 14.4737,-24.2601 0,-10.6137 -5.9462,-19.3437 -17.8387,-26.1812 -6.2675,-3.99 -17.5,-9.2087 -33.6988,-15.6575 -16.2,-6.4462 -28.7162,-11.9325 -37.5437,-16.4575 -8.83,-4.5213 -16.6625,-10.935 -23.4988,-19.2362 -6.8362,-8.2988 -10.2537,-18.6463 -10.2537,-31.0438 0,-11.47 3.1663,-22.0675 9.505,-31.7925 6.3375,-9.7237 15.2912,-17.49 26.865,-23.2988 11.57,-5.8049 24.7963,-9.0299 39.68,-9.67 14.24,0 28.0538,2.4 41.4425,7.1963 13.3862,4.7988 23.2125,10.1113 29.48,15.94 6.1237,6.255 9.1862,12.225 9.1862,17.9112 0,4.265 -1.6737,8.0663 -5.02,11.4088 -3.3487,3.34 -7.3699,5.2238 -12.07,5.6488 -4.9849,-1.2813 -12.1949,-4.6288 -21.63,-10.0413 -9.4362,-5.41 -16.3612,-9.1675 -20.7749,-11.2688 -4.415,-2.0974 -9.9701,-3.2912 -16.6626,-3.5774 -13.7437,0 -24.1225,2.8175 -31.135,8.45 -7.0162,5.6325 -10.7712,12.5825 -11.2687,20.8537 1.2825,7.0588 4.6637,13.1375 10.1462,18.2337 5.4826,5.0976 11.8038,9.2688 18.96,12.5126 7.1563,3.2437 15.8088,6.5937 25.955,10.0524 10.1475,3.4575 17.1438,6.0775 20.9888,7.8601 17.3037,7.05 29.7287,15.2575 37.2762,24.6225 7.5475,9.3662 11.3238,20.8474 11.3238,34.4487 -0.3575,11.8937 -3.7225,22.9688 -10.0938,33.2225 -6.375,10.2537 -15.9687,18.5863 -28.7875,24.995 -12.8175,6.4087 -28.59,9.755 -47.3162,10.0413 -30.4788,0 -55.8275,-8.6 -76.05,-25.8038"
             style="fill:#313387;fill-opacity:1;fill-rule:nonzero;stroke:none"
             id="path4308"
             inkscape:connector-curvature="0" />
          <path
             d="m -3623.2836,-3119.8516 c 0,21.89 5.1275,41.675 15.3812,59.355 10.2538,17.6813 26.275,26.5212 48.065,26.5212 14.24,0 26.2038,-3.8675 35.8888,-11.6012 9.6825,-7.7362 16.8225,-18.0912 21.4162,-31.0675 4.5913,-12.975 7.065,-27.3787 7.4225,-43.2075 0,-15.6838 -2.4212,-30.0675 -7.2625,-43.1512 -4.8437,-13.0825 -12.0712,-23.5276 -21.6825,-31.3338 -9.615,-7.8075 -21.2562,-11.7113 -34.9287,-11.7113 -13.53,0 -25.1538,3.7263 -34.8738,11.1763 -9.7187,7.45 -17.055,17.7362 -22.0037,30.8537 -4.9488,13.1188 -7.4225,27.84 -7.4225,44.1663 m -38.4525,0 c 0,-22.7137 4.395,-43.1675 13.185,-61.3625 8.7875,-18.1938 21.0125,-32.4163 36.67,-42.6713 15.6575,-10.2537 33.3087,-15.38 52.9512,-15.38 20.5688,0.2851 38.6088,5.8926 54.125,16.8225 15.5138,10.9313 27.42,25.475 35.7113,43.6313 8.29,18.1587 12.4362,37.8125 12.4362,58.96 0,21.5062 -4.1287,41.3738 -12.3837,59.6025 -8.2563,18.23 -20.1425,32.7025 -35.6563,43.4175 -15.5162,10.7175 -33.595,16.075 -54.2325,16.075 -20.7112,0 -38.8775,-5.4112 -54.4987,-16.235 -15.6225,-10.8225 -27.58,-25.3675 -35.8713,-43.6325 -8.29,-18.2638 -12.4362,-38.0063 -12.4362,-59.2275"
             style="fill:#313387;fill-opacity:1;fill-rule:nonzero;stroke:none"
             id="path4312"
             inkscape:connector-curvature="0" />
          <path
             d="m -3261.9396,-3217.8643 c 1.1387,3.555 1.7075,6.3287 1.7075,8.3175 0,4.4087 -1.5675,8.0862 -4.7,11.0375 -3.1338,2.9512 -7.2625,4.6387 -12.39,5.065 -1.425,-0.4275 -5.8038,-1.8863 -13.1363,-4.3788 -7.3362,-2.4925 -13.3712,-4.3425 -18.1062,-5.5537 -4.7363,-1.2113 -9.49,-1.8163 -14.2588,-1.8163 -13.9575,0 -25.8312,3.955 -35.6212,11.865 -9.7925,7.9075 -17.2338,18.15 -22.3238,30.725 -5.0925,12.5775 -7.9225,25.8125 -8.4912,39.7075 0,21.0175 4.5212,40.4688 13.5637,58.3525 9.0425,17.885 24.4963,28.0388 46.3575,30.4613 2.9188,0 5.0888,0.2862 6.515,0.855 3.3463,-0.2138 6.8363,-0.695 10.4675,-1.4413 3.6313,-0.7487 6.5863,-1.55 8.865,-2.4037 2.2788,-0.855 5.27,-2.1 8.9725,-3.7388 3.7013,-1.6362 6.515,-2.8837 8.4375,-3.7387 3.7013,-1.7788 6.9425,-2.67 9.7213,-2.67 4.1287,0 7.565,1.5325 10.3062,4.5925 2.74,3.0637 4.1125,6.9425 4.1125,11.6425 0,11.3237 -6.6375,19.1912 -19.9087,23.6062 -13.2713,4.4138 -26.9163,6.6225 -40.9363,6.6225 -21.0625,0 -39.4925,-5.1087 -55.29,-15.3275 -15.7987,-10.2175 -27.9325,-24.015 -36.4,-41.39 -8.4687,-17.3737 -12.8812,-36.3862 -13.2362,-57.0362 0,-16.3775 2.0087,-31.9538 6.03,-46.7313 4.02,-14.775 10.1925,-27.9312 18.5187,-39.4662 8.3275,-11.5363 19.1438,-20.7388 32.4513,-27.6113 13.3087,-6.87 28.7137,-10.52 46.2212,-10.9475 15.7988,0 29.3375,2.1475 40.615,6.4413 11.2788,4.2962 18.5925,9.2825 21.9363,14.96"
             style="fill:#313387;fill-opacity:1;fill-rule:nonzero;stroke:none"
             id="path4316"
             inkscape:connector-curvature="0" />
          <path
             d="m -3223.3825,-3218.6517 c 0,-6.4088 1.8325,-11.445 5.5,-15.1137 3.6675,-3.6663 8.1,-5.5 13.2987,-5.5 5.3413,0 9.88,1.7449 13.6188,5.2325 3.7387,3.4899 5.6075,8.3312 5.6075,14.5262 l 0,198.9913 c 0,6.1937 -1.8875,11.0374 -5.66,14.5262 -3.7763,3.4875 -8.2975,5.2325 -13.5663,5.2325 -5.0575,0 -9.4525,-1.78 -13.1912,-5.34 -3.7388,-3.56 -5.6075,-8.3663 -5.6075,-14.4187 l 0,-198.1363 z m 18.7987,-51.1638 c -6.4812,0 -12.1062,-2.4375 -16.8762,-7.315 -4.7713,-4.8774 -7.1563,-10.4849 -7.1563,-16.8224 0,-6.3388 2.3488,-11.9263 7.0488,-16.77 4.7,-4.8413 10.3612,-7.2638 16.9837,-7.2638 6.4088,0 11.945,2.3862 16.6088,7.1562 4.6637,4.7726 6.9962,10.3976 6.9962,16.8776 0,6.4087 -2.3487,12.0337 -7.0487,16.875 -4.7,4.8437 -10.22,7.2624 -16.5563,7.2624"
             style="fill:#313387;fill-opacity:1;fill-rule:nonzero;stroke:none"
             id="path4320"
             inkscape:connector-curvature="0" />
          <path
             d="m -3111.018,-3134.2706 128.1737,0 c -0.4274,-21.3938 -6.1237,-38.5988 -17.09,-51.6137 -10.965,-13.0138 -25.9912,-19.7338 -45.0725,-20.1638 -19.4412,0 -35.0887,6.2938 -46.945,18.8813 -11.855,12.5862 -18.2112,30.2175 -19.0662,52.8962 m -38.5588,12.2388 c 0.855,-19.9313 5.4101,-38.8275 13.6725,-56.6951 8.2588,-17.8662 20.0263,-32.35 35.3013,-43.4562 15.2737,-11.1038 33.235,-16.7975 53.8862,-17.0825 20.0813,0 37.9175,5.425 53.5125,16.2738 15.595,10.8524 27.6275,25.2249 36.1026,43.1199 8.4724,17.8938 12.71,36.5888 12.71,56.085 0,12.5213 -7.1213,18.7826 -21.3626,18.7826 l -145.2637,0 c 0.285,15.5 3.595,28.5712 9.9338,39.2112 6.3374,10.6413 14.8287,18.605 25.4749,23.8913 10.645,5.285 22.4463,7.9262 35.4075,7.9262 22.7138,0 43.58,-8.0325 62.5925,-24.1038 6.55,-4.7112 11.3575,-7.0699 14.4188,-7.0699 4.2725,0 7.6012,1.5887 9.9875,4.7675 2.3837,3.1762 3.5775,7.0162 3.5775,11.515 0,4.8575 -1.8875,9.5349 -5.66,14.0349 -8.545,9.0863 -20.6688,17.0388 -36.37,23.8538 -15.7013,6.815 -32.5963,10.2225 -50.6825,10.2225 -18.9425,0 -35.4075,-3.5788 -49.4,-10.7388 -13.9925,-7.1587 -25.2612,-16.6512 -33.8063,-28.4775 -8.545,-11.8237 -14.7762,-24.5912 -18.6912,-38.3049 -3.9175,-13.7113 -5.9813,-27.585 -6.195,-41.6188 0.355,-0.7112 0.5862,-1.2275 0.6937,-1.5487 0.1063,-0.3213 0.16,-0.5163 0.16,-0.5875"
             style="fill:#313387;fill-opacity:1;fill-rule:nonzero;stroke:none"
             id="path4324"
             inkscape:connector-curvature="0" />
          <path
             d="m -2895.2587,-3203.3769 -16.9837,0 c -5.485,0 -9.8638,-1.5488 -13.1388,-4.6475 -3.275,-3.0963 -5.1975,-6.9238 -5.7663,-11.4813 1.1376,-11.3937 7.4388,-17.09 18.9051,-17.09 l 16.9837,0 0,-52.1237 c 0,-5.6963 1.81,-10.1113 5.4325,-13.245 3.62,-3.1325 8.0588,-4.7 13.3138,-4.7 5.6087,0 10.295,1.5862 14.0587,4.7537 3.7637,3.1688 5.6475,7.8863 5.6475,14.1513 l 0,51.1637 16.9825,0 c 5.8375,0 10.2888,1.5675 13.3513,4.7 3.0612,3.1325 4.5924,7.2625 4.5924,12.39 0,4.3438 -1.495,8.1175 -4.4862,11.3213 -2.99,3.205 -6.8725,4.8075 -11.6413,4.8075 l -18.7987,0 0,183.7162 c 0,5.84 -2.0075,10.45 -6.02,13.8313 -4.0113,3.38 -8.8587,5.0737 -14.54,5.0737 -5.0412,0 -9.2825,-1.6937 -12.7275,-5.0737 -3.445,-3.3813 -5.165,-8.2775 -5.165,-14.6863 l 0,-182.8612 z"
             style="fill:#313387;fill-opacity:1;fill-rule:nonzero;stroke:none"
             id="path4328"
             inkscape:connector-curvature="0" />
          <path
             d="m -2749.3114,-3012.1856 -69.5738,-199.0962 c -0.2862,-1.9925 -0.9987,-5.34 -2.1374,-10.04 0,-5.2675 1.6912,-9.4338 5.0749,-12.4975 3.3851,-3.0613 7.6413,-4.5913 12.7713,-4.5913 4.4175,0 8.5162,1.2638 12.2925,3.7912 3.775,2.5276 6.2687,5.7863 7.48,9.7725 l 52.9038,159.6825 0.96,0 52.9049,-160.5375 c 2.6363,-9.0425 8.6213,-13.5637 17.955,-13.5637 5.0563,0 9.3138,1.62 12.7713,4.86 3.4537,3.24 5.1825,7.8863 5.1825,13.9388 0,2.1362 -0.5713,5.1975 -1.7112,9.185 l -101.1026,287.4299 c -1.425,5.2688 -4.0975,9.4351 -8.0162,12.4963 -3.9188,3.0613 -8.2638,4.5938 -13.0375,4.5938 -4.205,0 -7.7675,-1.5676 -10.6888,-4.7 -2.9212,-3.1338 -4.6312,-7.5488 -5.1287,-13.245 0.6413,-2.2788 1.53,-6.3388 2.6725,-12.1763 l 28.4275,-75.3025 z"
             style="fill:#313387;fill-opacity:1;fill-rule:nonzero;stroke:none"
             id="path4332"
             inkscape:connector-curvature="0" />
        </g>
      </g>
    </g>
    <g
       id="g5539"
       transform="matrix(0.7130624,0,0,0.7130624,3592.4811,1333.6037)">
      <g
         transform="matrix(1.25,0,0,-1.25,-4996.8736,-1031.8047)"
         id="g4334">
        <path
           inkscape:connector-curvature="0"
           id="path4336"
           style="fill:#65cde9;fill-opacity:1;fill-rule:nonzero;stroke:none"
           d="m 0,0 c 0.012,5.457 2.218,10.405 5.779,13.987 3.559,3.581 8.475,5.802 13.897,5.815 L 88.339,0.207 157.074,20.056 c 5.423,0.008 10.328,-2.196 13.876,-5.765 3.55,-3.571 5.738,-8.508 5.728,-13.965 l -19.725,-69.171 19.471,-69.1 c -0.01,-5.457 -2.219,-10.402 -5.778,-13.985 -3.559,-3.588 -8.474,-5.804 -13.898,-5.817 l -68.662,19.593 -68.736,-19.847 c -5.424,-0.012 -10.33,2.192 -13.877,5.762 -3.547,3.571 -5.738,8.505 -5.727,13.968 L 19.47,-69.101 0,0 z" />
      </g>
      <g
         transform="matrix(1.25,0,0,-1.25,-4825.6138,-1241.8096)"
         id="g4338">
        <path
           inkscape:connector-curvature="0"
           id="path4340"
           style="fill:#b5dc1e;fill-opacity:1;fill-rule:nonzero;stroke:none"
           d="m 0,0 c 2.518,6.524 7.43,11.426 13.332,14.076 5.906,2.651 12.805,3.053 19.298,0.574 l 73.138,-54.968 91.334,-7.821 c 6.493,-2.479 11.348,-7.368 13.954,-13.266 2.604,-5.902 2.956,-12.812 0.436,-19.339 l -55.353,-73.687 -8.44,-91.599 c -2.518,-6.523 -7.429,-11.426 -13.334,-14.076 -5.905,-2.653 -12.802,-3.054 -19.295,-0.577 l -73.138,54.969 -91.335,7.822 c -6.493,2.479 -11.351,7.369 -13.952,13.267 -2.608,5.901 -2.957,12.811 -0.438,19.337 L -8.438,-91.602 0,0 z" />
      </g>
      <g
         transform="matrix(1.25,0,0,-1.25,-4819.7691,-780.24707)"
         id="g4342">
        <path
           inkscape:connector-curvature="0"
           id="path4344"
           style="fill:#4c94d6;fill-opacity:1;fill-rule:nonzero;stroke:none"
           d="m 0,0 c -1.136,2.975 -0.967,6.126 0.223,8.823 1.188,2.693 3.399,4.931 6.351,6.072 l 41.473,3.678 33.271,25.169 c 2.95,1.139 6.08,0.965 8.759,-0.24 2.679,-1.2 4.9,-3.431 6.036,-6.405 l 3.718,-41.776 25.041,-33.547 c 1.134,-2.975 0.964,-6.128 -0.224,-8.823 -1.189,-2.697 -3.399,-4.931 -6.349,-6.07 L 76.825,-56.8 43.555,-81.967 c -2.951,-1.14 -6.084,-0.966 -8.758,0.236 -2.678,1.204 -4.902,3.434 -6.036,6.405 l -3.72,41.78 L 0,0 z" />
      </g>
      <g
         transform="matrix(1.25,0,0,-1.25,-4903.9611,-1037.0586)"
         id="g4346">
        <path
           inkscape:connector-curvature="0"
           id="path4348"
           style="fill:#5dc347;fill-opacity:1;fill-rule:nonzero;stroke:none"
           d="m 0,0 14.009,-3.996 68.735,19.849 c 5.423,0.008 10.328,-2.196 13.876,-5.765 3.55,-3.569 5.737,-8.508 5.728,-13.965 l -10.532,-36.935 -78.542,6.726 c -6.492,2.479 -11.35,7.368 -13.952,13.268 -2.607,5.899 -2.956,12.809 -0.437,19.336 C -1.117,-1.487 0,0 0,0" />
      </g>
      <g
         transform="matrix(1.25,0,0,-1.25,-4495.7995,-930.53269)"
         id="g4350">
        <path
           inkscape:connector-curvature="0"
           id="path4352"
           style="fill:#313387;fill-opacity:1;fill-rule:nonzero;stroke:none"
           d="m 0,0 -0.189,-40.144 52.003,0 c 9.046,0 16.381,-7.335 16.381,-16.379 0,-9.048 -7.335,-16.38 -16.381,-16.38 l -52.003,0 0,-204.773 c 0,-10.053 -8.149,-18.199 -18.198,-18.199 -10.051,0 -18.2,8.149 -18.2,18.199 l 0,204.773 -31.534,0 c -9.045,0 -16.379,7.335 -16.379,16.38 0,9.044 7.334,16.379 16.379,16.379 l 31.086,0 0,35.867 c 0,44.131 27.746,66.418 69.607,66.418 l 19.245,0 c 9.046,0 16.38,-7.333 16.38,-16.378 0,-9.046 -7.336,-16.38 -16.38,-16.38 l -19.245,0 C 7.848,29.381 0,20.507 0,0" />
      </g>
      <g
         transform="matrix(1.25,0,0,-1.25,-4014.7642,-930.53269)"
         id="g4354">
        <path
           inkscape:connector-curvature="0"
           id="path4356"
           style="fill:#313387;fill-opacity:1;fill-rule:nonzero;stroke:none"
           d="m 0,0 -0.188,-40.144 52.004,0 c 9.045,0 16.379,-7.335 16.379,-16.379 0,-9.048 -7.334,-16.38 -16.379,-16.38 l -52.004,0 0,-204.773 c 0,-10.053 -8.148,-18.199 -18.197,-18.199 -10.053,0 -18.197,8.149 -18.197,18.199 l 0,204.773 -31.541,0 c -9.044,0 -16.38,7.335 -16.38,16.38 0,9.044 7.336,16.379 16.38,16.379 l 31.088,0 0,35.867 c 0,44.131 27.748,66.418 69.605,66.418 l 19.246,0 c 9.045,0 16.379,-7.333 16.379,-16.378 0,-9.046 -7.334,-16.38 -16.379,-16.38 l -19.246,0 C 7.854,29.381 0,20.507 0,0" />
      </g>
      <g
         transform="matrix(1.25,0,0,-1.25,-3782.1983,-603.81282)"
         id="g4358">
        <path
           inkscape:connector-curvature="0"
           id="path4360"
           style="fill:#313387;fill-opacity:1;fill-rule:nonzero;stroke:none"
           d="m 0,0 c 39.479,0 56.429,20.983 62.847,29.264 0,0 7.871,10.3 12.241,11.589 3.992,1.161 8.424,0.821 12.381,-1.284 C 94.656,35.747 97.874,27.39 95.47,19.901 94.425,15.909 92.347,10.86 88.898,5.377 77.071,-12.508 50.794,-34.263 -0.647,-34.263 c -70.312,0 -115.357,45.236 -115.357,123.143 0,67.532 35.506,131.432 115.357,131.432 60.532,0 99.517,-42.656 104.278,-111.59 0,-25.929 -10.789,-26.931 -39.91,-26.931 l -145.446,0 C -78.395,8.071 -27.326,0 0,0 m -80.141,114.552 148.981,0 c -6.163,50.044 -34.414,71.719 -69.487,71.719 -43.749,0 -72.238,-27.224 -79.494,-71.719" />
      </g>
      <g
         transform="matrix(1.25,0,0,-1.25,-4385.1561,-788.10357)"
         id="g4362">
        <path
           inkscape:connector-curvature="0"
           id="path4364"
           style="fill:#313387;fill-opacity:1;fill-rule:nonzero;stroke:none"
           d="m 0,0 c 0,39.938 35.494,71.426 92.547,71.426 l 1.366,-0.003 c 49.072,0.016 74.01,-21.455 85.233,-39.111 3.275,-5.414 5.248,-10.398 6.234,-14.336 2.285,-7.387 -0.774,-15.642 -7.59,-19.413 -3.76,-2.082 -7.963,-2.412 -11.751,-1.269 -4.149,1.269 -11.619,11.435 -11.619,11.435 -4.404,5.91 -14.041,18.377 -33.187,24.834 -8.296,2.632 -17.629,4.041 -28.686,4.041 -35.491,0 -56.609,-14.515 -56.609,-36.705 0,-15.907 11.235,-28.752 30.553,-32.795 l 61.09,-13.024 c 33.245,-7.187 62.449,-24.377 62.449,-63.796 0,-41.814 -36.388,-72.949 -95.687,-72.949 l -2.592,-0.026 c -51.445,0 -77.721,21.754 -89.549,39.64 -3.449,5.482 -5.527,10.532 -6.568,14.524 -2.405,7.487 0.812,15.845 8,19.667 3.959,2.106 8.39,2.441 12.381,1.283 4.373,-1.286 12.242,-11.589 12.242,-11.589 4.673,-6.021 14.924,-18.779 35.374,-25.276 9.016,-2.861 19.288,-4.353 30.712,-4.353 39.531,0 59.299,15.766 59.299,37.736 0,15.043 -11.231,27.851 -29.652,31.895 L 61.095,-65.139 C 27.851,-58.396 0,-38.445 0,0" />
      </g>
      <g
         transform="matrix(1.25,0,0,-1.25,-3559.0416,-620.95019)"
         id="g4366">
        <path
           inkscape:connector-curvature="0"
           id="path4368"
           style="fill:#313387;fill-opacity:1;fill-rule:nonzero;stroke:none"
           d="m 0,0 c 6.459,0 12.046,-2.356 16.76,-7.068 4.712,-4.714 7.068,-10.301 7.068,-16.76 0,-6.311 -2.394,-11.858 -7.182,-16.647 C 11.857,-45.264 6.308,-47.657 0,-47.657 c -6.311,0 -11.857,2.432 -16.646,7.297 -4.79,4.863 -7.184,10.375 -7.184,16.532 0,6.307 2.355,11.857 7.07,16.645 C -12.049,-2.395 -6.462,0 0,0" />
      </g>
      <g
         transform="matrix(1.25,0,0,-1.25,-3420.089,-720.28494)"
         id="g4370">
        <path
           inkscape:connector-curvature="0"
           id="path4372"
           style="fill:#313387;fill-opacity:1;fill-rule:nonzero;stroke:none"
           d="m 0,0 c 0,-23.366 5.473,-44.485 16.418,-63.358 10.945,-18.872 28.048,-28.309 51.307,-28.309 15.201,0 27.97,4.127 38.308,12.385 10.336,8.257 17.957,19.31 22.86,33.162 4.902,13.85 7.543,29.224 7.923,46.12 0,16.742 -2.584,32.095 -7.752,46.062 -5.169,13.964 -12.884,25.113 -23.144,33.447 -10.262,8.334 -22.69,12.5 -37.283,12.5 -14.443,0 -26.85,-3.978 -37.226,-11.93 C 21.036,72.126 13.207,61.147 7.924,47.145 2.641,33.143 0,17.427 0,0 m -41.045,0 c 0,24.245 4.691,46.079 14.074,65.501 9.381,19.42 22.428,34.603 39.143,45.549 16.713,10.945 35.555,16.418 56.521,16.418 21.955,-0.305 41.213,-6.291 57.776,-17.957 16.56,-11.669 29.267,-27.194 38.117,-46.575 8.851,-19.382 13.275,-40.361 13.275,-62.936 0,-22.956 -4.406,-44.163 -13.217,-63.62 -8.814,-19.459 -21.501,-34.907 -38.062,-46.346 -16.562,-11.441 -35.859,-17.159 -57.889,-17.159 -22.107,0 -41.499,5.775 -58.173,17.33 -16.676,11.553 -29.438,27.078 -38.29,46.574 -8.849,19.497 -13.275,40.57 -13.275,63.221" />
      </g>
      <g
         transform="matrix(1.25,0,0,-1.25,-3145.1732,-852.11357)"
         id="g4374">
        <path
           inkscape:connector-curvature="0"
           id="path4376"
           style="fill:#313387;fill-opacity:1;fill-rule:nonzero;stroke:none"
           d="m 0,0 c 0,6.46 1.956,11.59 5.872,15.392 3.914,3.799 8.645,5.701 14.194,5.701 5.701,0 10.546,-1.864 14.537,-5.587 C 38.594,11.78 40.589,6.612 40.589,0 l 0,-20.979 0.912,0 c 6.08,10.792 14.08,20.541 24,29.245 9.919,8.702 20.312,13.282 31.183,13.739 6.08,0 11.475,-2.016 16.19,-6.043 4.711,-4.029 7.068,-9.047 7.068,-15.05 0,-6.994 -2.414,-12.142 -7.24,-15.449 -4.828,-3.306 -11.84,-6.157 -21.035,-8.551 -9.197,-2.394 -15.164,-4.352 -17.9,-5.872 -22.12,-12.085 -33.178,-32.761 -33.178,-62.023 l 0,-120.512 c 0,-6.69 -1.881,-11.877 -5.644,-15.564 -3.762,-3.685 -8.419,-5.529 -13.966,-5.529 -5.855,0 -10.814,1.939 -14.879,5.815 -4.068,3.876 -6.1,9.272 -6.1,16.19 L 0,0 z" />
      </g>
      <g
         transform="matrix(1.25,0,0,-1.25,-2924.5567,-720.28494)"
         id="g4378">
        <path
           inkscape:connector-curvature="0"
           id="path4380"
           style="fill:#313387;fill-opacity:1;fill-rule:nonzero;stroke:none"
           d="m 0,0 c 0.379,-17.429 3.059,-32.935 8.038,-46.52 4.978,-13.584 12.388,-24.372 22.233,-32.362 9.842,-7.991 21.68,-12.252 35.514,-12.785 21.055,0 38.156,7.971 51.307,23.914 13.149,15.944 19.724,37.576 19.724,64.899 0,15.829 -2.527,30.972 -7.582,45.433 -5.055,14.46 -12.998,26.314 -23.828,35.56 C 94.574,87.384 81.064,92.009 64.873,92.009 50.432,91.475 38.326,86.795 28.561,77.968 18.793,69.139 11.59,57.8 6.955,43.948 2.318,30.098 0,15.448 0,0 m 132.143,-91.667 -0.913,0 c -6.001,-10.835 -14.718,-19.453 -26.15,-25.855 -11.432,-6.404 -24.82,-9.603 -40.162,-9.603 -20.434,0.304 -38.739,6.175 -54.918,17.614 -16.18,11.44 -28.732,26.983 -37.657,46.633 -8.925,19.647 -13.388,41.215 -13.388,64.702 0.379,24.322 5.107,46.023 14.186,65.102 9.076,19.078 21.894,33.936 38.453,44.579 16.558,10.641 35.738,15.963 57.539,15.963 30.535,-0.76 51.233,-12.238 62.097,-34.436 l 0.913,0 0,13.408 c 0,6.364 1.974,11.307 5.927,14.831 3.951,3.523 8.666,5.285 14.139,5.285 6.08,0 11.096,-1.787 15.049,-5.36 3.951,-3.573 5.93,-8.818 5.93,-15.733 l 0,-212.407 c 0,-22.498 -4.296,-42.717 -12.885,-60.657 -8.59,-17.937 -21.188,-32.017 -37.795,-42.242 -16.61,-10.22 -36.428,-15.486 -59.459,-15.79 -26.957,0 -52.776,7.336 -77.452,22.005 -12.378,7.981 -19.06,16.531 -20.046,25.652 1.818,9.731 7.237,15.506 16.257,17.33 8.965,-1.214 18.16,-4.976 27.583,-11.287 7.14,-5.016 15.689,-9.31 25.643,-12.883 9.953,-3.572 19.907,-5.359 29.862,-5.359 22.718,0 39.681,8.788 50.89,26.363 11.208,17.577 16.812,38.512 16.812,62.807 0,0.986 -0.077,2.504 -0.229,4.555 -0.152,2.049 -0.226,3.642 -0.226,4.783" />
      </g>
    </g>
  </g>
  <g
     inkscape:groupmode="layer"
     id="layer3"
     inkscape:label="clipper"
     sodipodi:insensitive="true"
     transform="translate(0,9.1601563e-5)">
    <path
       transform="translate(0,6034.2518)"
       sodipodi:nodetypes="ssssssssssssssssss"
       inkscape:connector-curvature="0"
       id="rect3712"
       d="m -1877.7735,-6645.2263 c -4.3268,0 -7.8126,3.4858 -7.8126,7.8125 l 0,9392.9377 c 0,4.3266 3.4858,7.8126 7.8126,7.8126 l 5881.5313,0 c 4.327,0 7.8122,-3.486 7.8122,-7.8126 l 0,-9392.9377 c 0,-4.3267 -3.4852,-7.8125 -7.8122,-7.8125 z m 1884.4374461,610.9688 2112.6562539,0 c 3.6903,0 6.6564,2.9659 6.6564,6.6562 l 0,7073.3127 c 0,3.6903 -2.9661,6.6563 -6.6564,6.6563 l -2112.6562539,0 c -3.690302,0 -6.65624592,-2.966 -6.65624592,-6.6563 l 0,-7073.3127 c 0,-3.6903 2.96594392,-6.6562 6.65624592,-6.6562 z"
       style="fill:#ffffff;fill-opacity:1;stroke:#808080;stroke-width:6;stroke-miterlimit:4;stroke-dasharray:none" />
  </g>
</svg>
