<?xml version="1.0" encoding="UTF-8" standalone="no"?>
<!-- Created with Inkscape (http://www.inkscape.org/) -->
<svg
   xmlns:dc="http://purl.org/dc/elements/1.1/"
   xmlns:cc="http://creativecommons.org/ns#"
   xmlns:rdf="http://www.w3.org/1999/02/22-rdf-syntax-ns#"
   xmlns:svg="http://www.w3.org/2000/svg"
   xmlns="http://www.w3.org/2000/svg"
   xmlns:sodipodi="http://sodipodi.sourceforge.net/DTD/sodipodi-0.dtd"
   xmlns:inkscape="http://www.inkscape.org/namespaces/inkscape"
   width="1580"
   height="700"
   id="svg1873"
   sodipodi:version="0.32"
   inkscape:version="0.45+0.46pre3"
   sodipodi:docbase="/l/aoliva/priv/fsfla"
   sodipodi:docname="la.svg"
   inkscape:export-filename="/l/aoliva/priv/fsfla/icon-la.png"
   inkscape:export-xdpi="90"
   inkscape:export-ydpi="90"
   inkscape:output_extension="org.inkscape.output.svg.inkscape"
   version="1.0">
  <defs
     id="defs1875">
    <inkscape:perspective
       sodipodi:type="inkscape:persp3d"
       inkscape:vp_x="0 : 526.18109 : 1"
       inkscape:vp_y="0 : 1000 : 0"
       inkscape:vp_z="744.09448 : 526.18109 : 1"
       inkscape:persp3d-origin="372.04724 : 350.78739 : 1"
       id="perspective12" />
  </defs>
  <sodipodi:namedview
     id="base"
     pagecolor="#ffffff"
     bordercolor="#ffffff"
     borderopacity="0.0"
     inkscape:pageopacity="0.0"
     inkscape:pageshadow="0"
     inkscape:zoom="0.51463113"
     inkscape:cx="410.47665"
     inkscape:cy="593.69612"
     inkscape:document-units="px"
     inkscape:current-layer="g1350"
     inkscape:window-width="887"
     inkscape:window-height="644"
     inkscape:window-x="165"
     inkscape:window-y="102"
     showgrid="false" />
  <metadata
     id="metadata1878">
    <rdf:RDF>
      <cc:Work
         rdf:about="">
        <dc:format>image/svg+xml</dc:format>
        <dc:type
           rdf:resource="http://purl.org/dc/dcmitype/StillImage" />
      </cc:Work>
    </rdf:RDF>
  </metadata>
  <g
     inkscape:label="Layer 1"
     inkscape:groupmode="layer"
     id="layer1"
     transform="translate(379.40948,-107.64188)">
    <g
       id="g1885"
       transform="matrix(25.40592,0,0,25.40592,-6920.946,-5155.327)">
      <path
         style="fill:#000000"
         d="M 287.89137,207.15742 C 283.92999,207.23419 281.45621,209.2037 281.17748,212.59381 L 281.06244,213.99276 L 281.8176,213.99276 C 282.53458,213.99276 282.57572,213.9525 282.57572,213.23798 C 282.57572,212.16935 283.38714,210.53234 284.21879,209.92279 C 285.33906,209.1017 286.4312,208.8871 288.95332,208.99232 L 291.27486,209.08667 L 291.35451,208.31562 C 291.39531,207.93014 291.38182,207.57281 291.32501,207.473 C 291.32005,207.46477 291.31289,207.45773 291.30731,207.45348 C 291.2351,207.40426 290.32601,207.29251 289.2896,207.20622 C 288.80482,207.16586 288.33918,207.14874 287.89137,207.15742 z M 315.06844,207.43396 C 314.75022,207.43509 314.4114,207.43902 314.04779,207.44046 C 310.75781,207.45349 310.42969,207.49207 309.88849,207.93498 C 309.56531,208.19945 309.20464,208.62099 309.08907,208.87195 C 308.96283,209.1461 308.8813,211.79699 308.88258,215.51209 C 308.88449,221.02462 308.92509,221.76226 309.25132,222.31164 C 310.40428,224.25329 314.07695,224.16377 315.89146,222.14897 C 316.58206,221.38214 316.73157,220.25927 316.76461,215.58691 C 316.79199,211.7153 316.75818,211.62718 315.00355,210.79469 C 313.59072,210.12437 312.77832,210.35687 312.21298,211.59177 C 311.62881,212.86778 311.59566,218.14342 312.16578,219.10381 C 312.5857,219.81119 313.24919,219.91912 313.53747,219.32504 C 313.6447,219.10407 313.7973,217.83856 313.87965,216.51413 C 314.07242,213.41361 314.25291,213.03697 314.71151,214.77682 C 315.52235,217.853 314.46465,220.78884 312.38407,221.23803 C 311.79712,221.36475 311.68968,221.30097 311.38407,220.64916 C 310.91998,219.65939 310.85281,211.22936 311.30442,210.62877 C 312.01655,209.68173 314.24192,209.35591 316.44603,209.87724 C 316.44603,209.87724 317.33846,210.03 317.47553,210.74589 C 317.78968,212.38663 317.55813,216.47183 317.55813,216.47183 C 317.63598,222.60583 317.6235,222.8397 317.21299,223.35923 C 316.37887,224.41488 315.68771,224.64864 313.35457,224.65407 C 311.63584,224.65807 310.67556,224.75703 309.5817,224.32223 C 308.60699,223.93479 308.28661,224.24008 308.0622,223.15752 C 307.82285,222.00283 307.83833,219.78377 307.83833,219.78377 C 307.75497,217.69938 307.76519,214.79402 307.85898,213.32907 C 308.04261,210.46107 308.04112,209.3794 307.85308,208.55312 C 307.7541,208.11814 307.5931,208.02932 306.92978,208.02932 C 306.48841,208.02932 306.02832,208.15981 305.90617,208.32213 C 305.76094,208.51513 305.66406,211.27458 305.62889,216.29615 C 305.57581,223.87509 305.58078,223.99032 306.04777,225.05423 C 306.63429,226.39049 307.52712,227.02497 309.12447,227.24376 C 309.79278,227.33529 311.97817,227.40237 313.97995,227.39341 C 319.87341,227.36704 319.62868,227.79484 319.65548,217.46411 C 319.68071,207.73746 319.84187,207.41702 315.06844,207.43396 z M 265.34853,207.46974 C 262.20898,207.49017 261.51086,207.73086 261.05058,208.71253 C 260.82315,209.19757 260.75882,210.69682 260.74969,215.58366 C 260.74969,215.58366 260.38389,219.49316 260.73789,221.212 C 260.90677,222.03199 260.88354,222.1463 261.42521,222.59468 C 262.32256,223.33748 263.59361,223.96067 264.67006,223.73987 C 265.85606,223.4966 267.10468,223.35576 267.72907,222.63698 C 267.72907,222.63698 268.37698,222.19339 268.49308,221.35189 C 268.71571,219.73823 268.59632,216.91104 268.59632,216.91104 C 268.6678,213.7713 268.62642,212.32298 268.45473,211.96916 C 268.12497,211.28959 266.64559,210.49457 265.66121,210.4661 C 264.21464,210.42427 263.64946,211.80786 263.63171,215.42099 C 263.61662,218.49186 263.98538,219.72521 264.9149,219.72521 C 265.41839,219.72521 265.66836,218.69523 265.80281,216.08143 C 265.86329,214.90552 265.99712,213.8479 266.10074,213.71948 C 266.10115,213.719 266.10329,213.71667 266.10369,213.71622 C 266.10724,213.71232 266.11174,213.70918 266.11549,213.70646 C 266.11597,213.70616 266.11796,213.70349 266.11844,213.70321 C 266.11892,213.70294 266.12091,213.70346 266.12139,213.70321 C 266.12188,213.70298 266.12385,213.70017 266.12434,213.69996 C 266.12484,213.69976 266.1268,213.70013 266.12729,213.69996 C 266.12779,213.6998 266.12974,213.70009 266.13024,213.69996 C 266.13227,213.69948 266.13702,213.69689 266.13909,213.6967 C 266.13961,213.69667 266.14152,213.69671 266.14204,213.6967 C 266.14257,213.69671 266.14446,213.69668 266.14499,213.6967 C 266.26596,213.70646 266.46165,214.17826 266.65532,214.93949 C 267.30332,217.48659 266.62699,220.0161 265.06239,220.89642 C 263.16194,221.96571 262.946,221.42661 262.93259,215.61294 C 262.92104,210.60626 262.97991,210.37299 264.41342,209.85121 C 265.16709,209.57689 268.17151,209.65539 268.87361,209.96834 C 269.34381,210.17791 269.47243,211.92034 269.47243,218.00092 C 269.47243,223.84961 269.52296,223.6936 267.42818,224.4426 C 266.03021,224.94245 263.16652,224.84622 261.32787,224.09449 C 260.51628,223.76267 259.70038,222.57825 259.79099,221.61542 C 259.9009,220.44756 259.694,217.25668 259.76149,214.37666 C 259.83185,211.37397 259.80047,208.90083 259.69069,208.5824 C 259.53993,208.14507 259.35119,208.02932 258.79393,208.02932 C 258.40476,208.02932 257.9692,208.17855 257.82933,208.36442 C 257.51216,208.78591 257.33875,222.23886 257.62874,223.92531 C 257.85769,225.25677 258.45281,226.23955 259.35146,226.78178 C 259.88393,227.10306 260.7718,227.20748 263.96209,227.31858 C 269.72639,227.51933 270.22614,227.42664 271.08306,225.9847 C 271.38905,225.46981 271.45352,224.77487 271.48424,221.80086 C 271.50449,219.83978 271.54328,216.42823 271.56979,214.2205 C 271.62241,209.83744 271.49053,209.12011 270.43409,208.04559 C 269.89943,207.50178 269.80053,207.48544 266.30133,207.46974 C 265.96115,207.46822 265.6437,207.46782 265.34853,207.46974 z M 281.04769,207.59988 C 280.33435,207.6035 279.43705,207.61415 278.31317,207.62591 L 272.69663,207.68447 L 272.64354,217.20384 C 272.614,222.37789 272.63138,226.74899 272.68483,227.00301 C 272.68526,227.00476 272.68735,227.00828 272.68778,227.00951 C 272.68991,227.01518 272.6935,227.02356 272.69663,227.02903 C 272.69944,227.0337 272.70486,227.04077 272.70843,227.0453 C 272.70966,227.0468 272.71301,227.05032 272.71433,227.05181 C 272.71569,227.05329 272.71879,227.05685 272.72023,227.05831 C 272.89436,227.22873 273.66118,227.29581 275.38691,227.29581 C 277.74352,227.29581 278.00585,227.25566 278.20107,226.85335 C 278.32121,226.60577 278.41641,224.93083 278.41641,223.06642 L 278.41641,219.72521 L 281.51082,219.72521 C 283.9067,219.72521 284.65737,219.6546 284.84416,219.40638 C 285.001,219.19795 285.06592,218.29573 285.02705,216.82645 L 284.96806,214.56535 L 281.69076,214.50354 L 278.41641,214.43847 L 278.41641,213.6414 L 278.41641,212.84432 L 279.56096,212.84432 C 280.16551,212.84432 280.6645,212.76009 280.70256,212.65562 C 280.70355,212.65221 280.70256,212.64606 280.70256,212.64261 C 280.70256,212.53222 280.76086,212.1194 280.83235,211.72516 L 280.96214,211.00942 L 279.10668,211.00942 C 277.94028,211.00942 277.15731,211.11299 277.00048,211.28595 C 276.66341,211.6577 276.66341,215.41037 277.00048,215.78212 C 277.0025,215.78434 277.00707,215.78642 277.00933,215.78862 C 277.20641,215.97253 278.27084,216.0554 280.43412,216.0554 L 283.61407,216.0554 L 283.61407,216.97285 L 283.61407,217.8903 L 280.43412,217.8903 C 278.2365,217.8903 277.17284,217.97674 277.00048,218.16684 C 276.99642,218.17131 276.99263,218.17752 276.98868,218.18311 C 276.82543,218.42261 276.75269,219.6249 276.75269,222.0774 L 276.75269,225.71142 L 275.4518,225.6431 L 274.15091,225.57477 L 274.09782,217.37627 L 274.04177,209.17451 L 278.07718,209.17451 C 281.58342,209.17451 282.14465,209.12533 282.39283,208.79387 C 282.54982,208.58419 282.96117,208.2229 283.30433,207.99028 C 283.45322,207.88935 283.56058,207.8104 283.56097,207.75279 C 283.56072,207.74819 283.55973,207.74087 283.55802,207.73652 C 283.55682,207.73394 283.55388,207.72925 283.55212,207.72676 C 283.46737,207.61908 282.84476,207.59076 281.04769,207.59988 z M 291.82943,207.68447 L 291.77339,211.26969 C 291.7213,214.53695 291.74962,214.86221 292.08607,214.96877 C 292.28908,215.03307 292.61746,215.16093 292.81764,215.25182 C 292.90167,215.28997 292.96835,215.30308 293.01823,215.25832 C 293.02363,215.25322 293.03087,215.24538 293.03593,215.2388 C 293.16682,215.06115 293.18342,214.35505 293.18342,212.2945 L 293.18342,209.17451 L 298.17459,209.17451 L 303.16575,209.17451 L 303.16575,210.09196 L 303.16575,211.00942 L 299.77636,211.00942 C 297.47228,211.00942 296.36053,211.09079 296.14803,211.27294 C 296.14393,211.2766 296.13963,211.28221 296.13623,211.28595 C 295.77856,211.68042 295.79818,215.46085 296.15983,215.79188 C 296.16047,215.79246 296.1621,215.79454 296.16278,215.79513 C 296.16635,215.79806 296.17306,215.80198 296.17753,215.80489 C 296.40812,215.94887 297.74125,216.07054 299.54037,216.10745 L 302.64363,216.16927 L 302.70852,217.03141 L 302.77342,217.8903 L 299.57872,217.8903 C 297.37134,217.8903 296.30868,217.97665 296.13623,218.16684 C 295.96318,218.3577 295.88549,219.55145 295.88549,222.06438 L 295.88549,225.68864 L 294.6967,225.68864 C 294.30599,225.68864 294.28674,225.98804 293.68785,226.49223 L 292.73504,227.29581 L 294.92679,227.29581 C 296.88146,227.29581 297.14192,227.24892 297.33388,226.85335 C 297.45402,226.60577 297.54922,224.93083 297.54922,223.06642 L 297.54922,219.72521 L 300.52563,219.72521 C 302.59707,219.72521 303.61145,219.63765 303.86192,219.43566 C 304.16912,219.18791 304.21118,218.81102 304.15986,216.85573 L 304.10086,214.56535 L 300.82651,214.50354 L 297.54922,214.43847 L 297.54922,213.6414 L 297.54922,212.84432 L 300.73212,212.84432 C 302.97127,212.84432 304.02478,212.75885 304.27785,212.55477 C 304.58505,212.30702 304.62711,211.93013 304.57579,209.97484 L 304.51679,207.68447 L 298.17459,207.68447 L 291.82943,207.68447 z M 288.3722,210.57346 C 287.00838,210.6013 286.15126,210.88907 285.56098,211.50067 C 284.55856,212.53929 284.76081,214.60143 285.92971,215.26808 C 286.25483,215.45351 287.52704,215.86459 288.75863,216.18228 C 291.90743,216.99453 293.03435,217.63679 293.61115,218.9509 C 293.98747,219.80826 294.04773,220.25641 293.95923,221.47227 C 293.8209,223.37301 293.17685,224.50227 291.79699,225.24944 C 290.91089,225.72923 290.49461,225.79394 288.2955,225.79926 C 286.52795,225.80353 285.36043,225.68136 284.29254,225.37957 L 282.78221,224.95338 L 282.78221,223.96761 L 282.78221,222.98183 L 284.29254,223.58046 C 286.27172,224.36363 289.16773,224.44655 290.21586,223.74963 C 291.39326,222.96677 291.76651,221.35235 291.09492,219.9562 C 290.82417,219.39333 289.66467,218.84112 287.56688,218.27745 L 285.59048,217.74715 L 285.52558,218.53122 C 285.49279,218.92179 285.50293,219.28904 285.54623,219.39987 C 285.54774,219.40354 285.55054,219.40984 285.55213,219.41288 C 285.55253,219.4136 285.55467,219.41545 285.55508,219.41614 C 285.5559,219.41742 285.55718,219.42152 285.55803,219.42264 C 285.55846,219.42316 285.56055,219.42542 285.56098,219.4259 C 285.62866,219.48989 286.50616,219.7718 287.52264,220.05705 C 289.75673,220.68399 289.85303,220.7437 289.85303,221.46576 C 289.85303,222.25987 289.05245,222.54395 287.15095,222.42225 C 285.68678,222.32854 285.31233,222.2054 282.02999,220.72399 C 281.90176,220.66612 281.64405,220.78527 281.45772,220.99077 C 281.0289,221.46371 280.96605,225.38589 281.37808,225.97494 C 281.69341,226.42576 284.08271,227.23959 285.91496,227.52029 C 287.65847,227.7874 290.2975,227.61329 291.67899,227.1429 C 294.06606,226.33011 295.49418,224.04144 295.50496,221.01029 C 295.5149,218.21642 294.6666,216.71168 292.45481,215.59342 C 291.76848,215.24642 290.64555,214.84075 289.95922,214.69224 C 287.4698,214.15354 286.52558,213.77816 286.52558,213.32582 C 286.52558,213.09248 286.65823,212.77819 286.82057,212.6296 C 287.15965,212.31923 289.12129,212.24587 290.44005,212.49295 L 291.33681,212.66213 C 291.33681,212.66213 291.30967,212.25115 291.27191,211.78697 C 291.22998,211.2716 291.2328,210.99036 291.14239,210.94996 C 290.79294,210.79379 289.85676,210.59107 288.81468,210.57346 C 288.66251,210.57089 288.51328,210.57058 288.3722,210.57346 z"
         id="path1317"
         sodipodi:nodetypes="ccccsscccsssccsssssssssssssssscscsssscsssssssssccscssscscssssssssssssssssssssssssssssssssssssscccccsssssssscccscccccccsscccssscccccsscccccccssssscccsssscccccccssssscccccsccccccscccscccccccscccccssssssscccccsscccssssssssssssssssssccsssc" />
      <g
         id="g1350"
         transform="matrix(9.027841e-2,0,0,9.956723e-2,285.6768,197.1627)">
        <text
           sodipodi:linespacing="100%"
           transform="scale(1.050187,0.952211)"
           id="text1336"
           y="393.97665"
           x="33.293304"
           style="font-size:75.93722534px;font-style:normal;font-variant:normal;font-weight:bold;font-stretch:normal;text-align:center;line-height:100%;writing-mode:lr-tb;text-anchor:middle;fill:#000000;fill-opacity:1;stroke:none;stroke-width:1px;stroke-linecap:butt;stroke-linejoin:miter;stroke-opacity:1;font-family:Bitstream Vera Sans"
           xml:space="preserve"><tspan
             sodipodi:role="line"
             id="tspan1920"
             x="33.293308"
             y="393.97665">Latin America</tspan></text>
      </g>
    </g>
  </g>
</svg>
