<?xml version="1.0" encoding="UTF-8" standalone="no"?>
<!-- Generator: Adobe Illustrator 15.0.1, SVG Export Plug-In . SVG Version: 6.00 Build 0)  -->

<svg
   xmlns:dc="http://purl.org/dc/elements/1.1/"
   xmlns:cc="http://creativecommons.org/ns#"
   xmlns:rdf="http://www.w3.org/1999/02/22-rdf-syntax-ns#"
   xmlns:svg="http://www.w3.org/2000/svg"
   xmlns="http://www.w3.org/2000/svg"
   xmlns:sodipodi="http://sodipodi.sourceforge.net/DTD/sodipodi-0.dtd"
   xmlns:inkscape="http://www.inkscape.org/namespaces/inkscape"
   version="1.1"
   id="Layer_1"
   x="0px"
   y="0px"
   width="1800px"
   height="150px"
   viewBox="0 0 1800 150"
   enable-background="new 0 0 1800 150"
   xml:space="preserve"
   inkscape:version="0.47 r22583"
   sodipodi:docname="fsfe.svg"><metadata
   id="metadata13"><rdf:RDF><cc:Work
       rdf:about=""><dc:format>image/svg+xml</dc:format><dc:type
         rdf:resource="http://purl.org/dc/dcmitype/StillImage" /><dc:title></dc:title></cc:Work></rdf:RDF></metadata><defs
   id="defs11"><inkscape:perspective
     sodipodi:type="inkscape:persp3d"
     inkscape:vp_x="0 : 75 : 1"
     inkscape:vp_y="0 : 1000 : 0"
     inkscape:vp_z="1800 : 75 : 1"
     inkscape:persp3d-origin="900 : 50 : 1"
     id="perspective15" /></defs><sodipodi:namedview
   pagecolor="#ffffff"
   bordercolor="#666666"
   borderopacity="1"
   objecttolerance="10"
   gridtolerance="10"
   guidetolerance="10"
   inkscape:pageopacity="0"
   inkscape:pageshadow="2"
   inkscape:window-width="1920"
   inkscape:window-height="1005"
   id="namedview9"
   showgrid="false"
   inkscape:zoom="0.84381409"
   inkscape:cx="1040.9618"
   inkscape:cy="55.376392"
   inkscape:window-x="0"
   inkscape:window-y="25"
   inkscape:window-maximized="1"
   inkscape:current-layer="Layer_1" />
<path
   d="M0,70.25C0,70.25,46.147,81,76.25,81c25.557,0,92.61-22.719,152.75-23.5  c51.333-0.667,70.938,20.499,99.999,20.499c33.291,0,119.333-32,152.001-31.999c59.986,0.002,87.557,26,120.666,26  C654.925,72,748.618,33.333,815,33.333S1046,68,1121,66c56.979-1.52,90.324-22.789,192-26c95-3,167.096,50.162,260,43  c118.888-9.165,227-59.083,227-59.083V143c0,0-61.729-23.097-195-32c-83.473-5.576-198,20-289,20c-147.824,0-290-40-337-39  c-64.051,1.362-122.672,38-196,38S642.25,87,580.5,87c-34.819,0-114.167,20.334-154.834,21c-42.988,0.704-79.682-14-104.166-14  c-28.553,0-55,10.667-95,10c-28.671-0.479-49.694-20.25-91-20.25C58.312,83.75,30.875,94.666,0,94.666V70.25z"
   id="path3"
   fill="#4AD2F0"
   opacity="0.65"
   style="fill:#e2364c;fill-opacity:1"
   inkscape:export-filename="/home/nicolas/Bureau/path7.png"
   inkscape:export-xdpi="90"
   inkscape:export-ydpi="90" />
<path
   d="M0,57.667C0,57.667,33.5,69,52,69c22,0,77.003-10.651,102.667-10.667  C175.338,58.321,225.839,73.5,241.5,73.5C275.06,73.5,268.841,61,355,61c32.866,0,65.898,13.307,102.5,12  c56-2,88.276-20.306,135.5-20c74.868,0.485,160.35,14.551,229.047,14.551C912.356,67.551,1016.487,20,1113,20  c29.803,0,213.959,22,272,22c47.959,0,183.663-35,263-35c94.987,0,152,57,152,57v77c0,0-30.22-22.679-76-21  c-41.524,1.523-96,30-181,30c-83.395,0-212.229-57-300-57c-72,0-194.156,32.758-278,34c-74.092,1.098-247.144-19-295-19  c-60.978,0-107.833-25.334-152.5-26c-37.212-0.555-94.939,18-131.5,18c-27.005,0-58.203-19.5-86.5-19.5  c-61.75,0-85.996,14.167-150.833,14.167c-24.263,0-51.833-11.5-81.167-12.167C24.003,81.511,0,89,0,89V57.667z"
   id="path5"
   fill="#D0F400"
   opacity="0.65"
   style="fill:#9e1321;fill-opacity:1"
   inkscape:export-filename="/home/nicolas/Bureau/path7.png"
   inkscape:export-xdpi="90"
   inkscape:export-ydpi="90" />
<path
   d="M0,81.102c0,0,62.048-19.602,90-19.602c40.672,0,101.072,14.499,139.666,14.499  S257.07,61.198,308,60c56.667-1.333,99.266,21,134,21s79.734-18.826,133.766-18.826c52.488,0,82.617,18.418,133.561,18.418  C774.164,80.592,875.197,24,930,24c54.803,0,134.231,25,179,25c51.128,0,147-37,231-37c88,0,144.72,24.638,242,19  c108.821-6.307,197.041-31,218-31v130c0,0-69.777-65.204-200-61c-77.886,2.515-336.004,67.163-423,68c-104,1-232.25-46-294-46  c-64.837,0-167.022,40.5-228,40.5S535.259,95,482,95c-47.856,0-112.047,11.5-154.5,11.5C292.766,106.5,220.435,80,161,80  c-33.366,0-64.611,19.129-96.001,19.333C26.169,99.583,12.607,85.974,0,83.75V81.102z"
   id="path7"
   fill="#3394CE"
   opacity="0.2"
   style="opacity:0.22000000000000000;fill:#f57b8f;fill-opacity:1"
   inkscape:export-xdpi="90"
   inkscape:export-ydpi="90" />
</svg>