<?xml version="1.0" encoding="UTF-8" standalone="no"?>
<!-- Created with Inkscape (http://www.inkscape.org/) -->

<svg
   xmlns:dc="http://purl.org/dc/elements/1.1/"
   xmlns:cc="http://creativecommons.org/ns#"
   xmlns:rdf="http://www.w3.org/1999/02/22-rdf-syntax-ns#"
   xmlns:svg="http://www.w3.org/2000/svg"
   xmlns="http://www.w3.org/2000/svg"
   xmlns:sodipodi="http://sodipodi.sourceforge.net/DTD/sodipodi-0.dtd"
   xmlns:inkscape="http://www.inkscape.org/namespaces/inkscape"
   width="128"
   height="128"
   id="svg3205"
   version="1.1"
   inkscape:version="0.48.3.1 r9886"
   sodipodi:docname="touch-icon.svg"
   inkscape:export-filename="/home/paul/FSFE/fsfe-web/trunk/graphics/touch-icon.png"
   inkscape:export-xdpi="90"
   inkscape:export-ydpi="90">
  <defs
     id="defs3207" />
  <sodipodi:namedview
     id="base"
     pagecolor="#ffffff"
     bordercolor="#666666"
     borderopacity="1.0"
     inkscape:pageopacity="0.0"
     inkscape:pageshadow="2"
     inkscape:zoom="1.9445436"
     inkscape:cx="65.185059"
     inkscape:cy="-2.4067422"
     inkscape:current-layer="layer1"
     showgrid="true"
     inkscape:document-units="px"
     inkscape:grid-bbox="true"
     inkscape:window-width="1366"
     inkscape:window-height="714"
     inkscape:window-x="-2"
     inkscape:window-y="31"
     inkscape:window-maximized="1" />
  <metadata
     id="metadata3210">
    <rdf:RDF>
      <cc:Work
         rdf:about="">
        <dc:format>image/svg+xml</dc:format>
        <dc:type
           rdf:resource="http://purl.org/dc/dcmitype/StillImage" />
        <dc:title></dc:title>
      </cc:Work>
    </rdf:RDF>
  </metadata>
  <g
     id="layer1"
     inkscape:label="Layer 1"
     inkscape:groupmode="layer"
     transform="translate(0,64)">
    <g
       transform="matrix(2.7126195,0,0,2.7126195,3698.4906,1076.1254)"
       id="g4028">
      <path
         inkscape:connector-curvature="0"
         id="path5403"
         d="m -1343.3783,-416.9782 c 0.2343,-0.60713 0.6912,-1.06304 1.2406,-1.30975 0.5493,-0.2467 1.1912,-0.28398 1.7953,-0.0532 0,0 6.8045,5.11408 6.8045,5.11408 0,0 8.4977,0.72768 8.4977,0.72768 0.604,0.23055 1.0558,0.68543 1.2982,1.23435 0.2423,0.54892 0.2751,1.19189 0.041,1.79901 0,0 -5.1501,6.85593 -5.1501,6.85593 0,0 -0.7853,8.52215 -0.7853,8.52215 -0.2343,0.60692 -0.6912,1.06305 -1.2406,1.30975 -0.5493,0.2467 -1.191,0.28399 -1.7953,0.0534 0,0 -6.8045,-5.11429 -6.8045,-5.11429 0,0 -8.4977,-0.72768 -8.4977,-0.72768 -0.604,-0.23055 -1.056,-0.68543 -1.2982,-1.23435 -0.2423,-0.54892 -0.2748,-1.19188 -0.041,-1.79901 0,0 5.1502,-6.85571 5.1502,-6.85571 0,0 0.785,-8.52237 0.785,-8.52237 l 0,0 z"
         style="fill:#d0f400" />
      <path
         inkscape:connector-curvature="0"
         style="fill:#d0f400"
         d="m -1343.3783,-416.9782 c 0.2343,-0.60713 0.6912,-1.06304 1.2406,-1.30975 0.5493,-0.2467 1.1912,-0.28398 1.7953,-0.0532 0,0 6.8045,5.11408 6.8045,5.11408 0,0 8.4977,0.72768 8.4977,0.72768 0.604,0.23055 1.0558,0.68543 1.2982,1.23435 0.2423,0.54892 0.2751,1.19189 0.041,1.79901 0,0 -5.1501,6.85593 -5.1501,6.85593 0,0 -0.7853,8.52215 -0.7853,8.52215 -0.2343,0.60692 -0.6912,1.06305 -1.2406,1.30975 -0.5493,0.2467 -1.191,0.28399 -1.7953,0.0534 0,0 -6.8045,-5.11429 -6.8045,-5.11429 0,0 -8.4977,-0.72768 -8.4977,-0.72768 -0.604,-0.23055 -1.056,-0.68543 -1.2982,-1.23435 -0.2423,-0.54892 -0.2748,-1.19188 -0.041,-1.79901 0,0 5.1502,-6.85571 5.1502,-6.85571 0,0 0.785,-8.52237 0.785,-8.52237 l 0,0 z"
         id="path11223" />
      <g
         transform="matrix(0.20714008,0,0,0.20714008,-1356.5787,-418.89093)"
         id="g5397">
        <path
           inkscape:connector-curvature="0"
           style="fill:#4ad2f0"
           d="m 2.189,84.694 c 0.005,-2.452 0.996,-4.673 2.595,-6.282 1.599,-1.609 3.807,-2.607 6.243,-2.612 0,0 30.84,8.801 30.84,8.801 0,0 30.873,-8.915 30.873,-8.915 2.436,-0.004 4.639,0.985 6.233,2.589 1.594,1.604 2.577,3.821 2.572,6.272 0,0 -8.859,31.069 -8.859,31.069 0,0 8.745,31.037 8.745,31.037 -0.004,2.451 -0.996,4.672 -2.595,6.282 -1.599,1.61 -3.806,2.607 -6.242,2.612 0,0 -30.841,-8.801 -30.841,-8.801 0,0 -30.873,8.915 -30.873,8.915 -2.436,0.005 -4.64,-0.985 -6.233,-2.588 -1.593,-1.604 -2.577,-3.821 -2.572,-6.273 0,0 8.859,-31.069 8.859,-31.069 0,0 -8.745,-31.037 -8.745,-31.037 l 0,0 z"
           id="path5399" />
      </g>
      <g
         transform="matrix(0.20714008,0,0,0.20714008,-1356.5787,-418.89093)"
         id="g5405">
        <path
           inkscape:connector-curvature="0"
           style="fill:#3394ce"
           d="m 65.827,175.084 c -0.51,-1.335 -0.434,-2.752 0.1,-3.962 0.534,-1.21 1.527,-2.214 2.853,-2.726 0,0 18.628,-1.653 18.628,-1.653 0,0 14.944,-11.305 14.944,-11.305 1.325,-0.512 2.731,-0.433 3.934,0.107 1.203,0.54 2.201,1.542 2.711,2.877 0,0 1.67,18.765 1.67,18.765 0,0 11.247,15.068 11.247,15.068 0.51,1.335 0.434,2.751 -0.1,3.962 -0.534,1.211 -1.527,2.215 -2.852,2.727 0,0 -18.628,1.653 -18.628,1.653 0,0 -14.944,11.305 -14.944,11.305 -1.325,0.511 -2.732,0.433 -3.934,-0.107 -1.202,-0.54 -2.201,-1.542 -2.711,-2.877 0,0 -1.67,-18.764 -1.67,-18.764 0,0 -11.248,-15.07 -11.248,-15.07 l 0,0 z"
           id="path5407" />
      </g>
      <g
         transform="matrix(0.20714008,0,0,0.20714008,-1356.5787,-418.89093)"
         id="g5409">
        <path
           inkscape:connector-curvature="0"
           style="fill:#6bb340"
           d="m 35.575,82.806 6.292,1.795 c 0,0 30.873,-8.915 30.873,-8.915 2.436,-0.004 4.639,0.985 6.233,2.589 1.594,1.604 2.577,3.821 2.572,6.272 0,0 -4.73,16.59 -4.73,16.59 0,0 -35.278,-3.021 -35.278,-3.021 -2.916,-1.113 -5.098,-3.309 -6.267,-5.959 -1.17,-2.65 -1.327,-5.754 -0.196,-8.685 -10e-4,0.002 0.501,-0.666 0.501,-0.666 l 0,0 z"
           id="path5411" />
      </g>
    </g>
  </g>
</svg>
